<?xml version="1.0" standalone="no"?>
<!DOCTYPE svg PUBLIC "-//W3C//DTD SVG 1.1//EN" "http://www.w3.org/Graphics/SVG/1.1/DTD/svg11.dtd" >
<svg xmlns="http://www.w3.org/2000/svg">
<metadata>
Created by FontPrep 20130207 at Thu Nov 17 06:16:42 2016
 By Bradley Gorman
Copyright (c) 2015, Christian Thalmann and the Cormorant Project Authors (github.com/CatharsisFonts/Cormorant)
</metadata>
<defs>
<font id="3cd16a25f6b7caa34ec53f0d703bf5d6" horiz-adv-x='1024' >
  <font-face 
    font-family="Cormorant-Italic"
    font-weight="400"
    font-style="italic"
    font-stretch="normal"
    units-per-em="2048"
    panose-1="0 0 5 0 0 0 0 0 0 0"
    ascent="1485"
    descent="-563"
    x-height="809"
    cap-height="1280"
    bbox="-668 -575.024 2617.11 1850.89"
    underline-thickness="102"
    underline-position="-102"
    slope="-10"
    unicode-range="U+0020-FB06"
  />
<missing-glyph horiz-adv-x="921" 
d="M469 -422l12 68h-186l143 96h60l12 70h-303l-12 -70h129l-146 -96l-12 -68h303zM301 23h188l-18 -99h-186zM520 -143l41 231h-307l-41 -231h307zM582 211l41 231h-185l-20 -114h61l10 49h62l-16 -98h-187l29 163h-62l-39 -231h306zM631 489l35 203h-60l-24 -133h-244
l-12 -70h305zM528 604l25 144h123l12 67h-305l-12 -67h121l-13 -74h-123l-12 -70h184zM477 1014h62l-15 -72h-59zM700 872l11 70h-123l24 141h-184l-35 -211h307zM745 1139l13 65h-123l12 78h125l10 66h-303l-12 -66h117l-11 -78h-122l-13 -65h307zM365 1485h583l-360 -2048
h-586z" />
    <glyph glyph-name="f_f.liga" unicode="ff" horiz-adv-x="1042" 
d="M637 1337q-100 0 -172 -112.5t-111 -325.5l-18 -131q225 0 305 3t100 60l7 25q39 231 77 354q-33 55 -82 91t-106 36zM874 1325q87 162 270 162q87 0 127 -32t35 -69q-9 -65 -71 -65q-29 0 -41 16.5t-29 51.5q-12 33 -26.5 50t-42.5 17q-154 0 -236 -557l-18 -127l131 8
l80 4q18 0 13 -19t-26.5 -43t-42.5 -22q-90 16 -163 21l-111 -764q-55 -377 -134 -448.5t-155 -71.5q-141 0 -141 84q0 29 21.5 48t54 19t46 -16t22.5 -45t18 -41t33 -12t49 47.5t71 382.5l105 723q4 25 4 49t-27 37.5t-360 13.5l-113 -770q-55 -378 -134 -449t-155 -71
q-141 0 -141 84q0 29 21.5 48t54.5 19t46 -16t22 -45t18.5 -41t33.5 -12t48.5 48.5t70.5 381.5l105 723q4 41 4 67t-22.5 35.5t-94.5 9.5q-6 -1 -6 13t8 14q74 0 105.5 19.5t40.5 70.5q55 276 165.5 394t280.5 118q104 0 186 -43z" />
    <glyph glyph-name="fi" unicode="fi" horiz-adv-x="952" 
d="M713 125q0 -61 37 -62q49 0 139 91q4 4 9 4t9 -7.5t-2 -13.5q-136 -155 -233 -155q-72 0 -72 92q0 41 12 108l76 410q6 32 6 66t-29.5 52.5t-98 22.5t-236.5 4l-113 -780q-55 -378 -134 -449t-155 -71q-141 0 -141 84q0 29 21.5 48t54.5 19t46 -16t22 -45t18.5 -41
t33.5 -12t48.5 48.5t70.5 381.5l105 723q4 41 4 67t-22.5 35.5t-94.5 9.5q-6 -1 -6 13t8 14q74 0 105.5 19.5t40.5 70.5q61 350 180 490.5t285 140.5q90 0 141 -34t51 -77q0 -80 -65 -80q-31 0 -45.5 17.5t-30.5 57.5t-36 62.5t-63 22.5q-104 0 -184 -142.5t-121 -414.5
l-18 -125q214 2 461 17q27 0 26 -19q0 -12 -10 -57l-94 -533q-6 -33 -6 -57z" />
    <glyph glyph-name="fl" unicode="fl" horiz-adv-x="1011" 
d="M94 739q-6 -1 -6 13t8 14q74 0 105.5 19.5t40.5 70.5q59 346 173.5 488.5t299.5 142.5q121 0 209 -60q43 29 57 97q2 6 14.5 5t10.5 -7l-248 -1340q-6 -33 -6 -55q0 -63 39 -64q41 0 135 95q4 4 8 4t9 -7.5t-1 -13.5q-72 -82 -126 -120.5t-105 -38.5q-72 0 -72 92
q0 45 12 108l209 1125q-27 61 -81 105t-115 44q-109 0 -188 -142.5t-122 -414.5l-18 -127q86 2 211 12q18 0 13 -19t-26.5 -43t-41.5 -22q-84 16 -164 21l-111 -764q-55 -378 -134 -449t-155 -71q-141 0 -141 84q0 29 21.5 48t54.5 19t46 -16t22 -45t18.5 -41t33.5 -12
t48.5 48.5t70.5 381.5l105 723q4 41 4 67t-22.5 35.5t-94.5 9.5z" />
    <glyph glyph-name="f_f_i.liga" unicode="ffi" horiz-adv-x="1458" 
d="M637 1337q-100 0 -172 -112.5t-111 -325.5l-18 -131q225 0 305 3t100 60l7 25q35 195 90 330q-31 66 -84.5 108.5t-116.5 42.5zM1219 125q0 -61 36 -62q49 0 140 91q4 4 9 4t9 -7.5t-2 -13.5q-136 -155 -233 -155q-72 0 -72 92q0 41 12 108l76 410q6 32 6 66t-29.5 52.5
t-98 22.5t-236.5 4l-113 -780q-55 -377 -134 -448.5t-155 -71.5q-141 0 -141 84q0 29 21.5 48t54 19t46 -16t22.5 -45t18 -41t33 -12t49 47.5t71 382.5l105 723q4 25 4 49t-27 37.5t-360 13.5l-113 -770q-55 -378 -134 -449t-155 -71q-141 0 -141 84q0 29 21.5 48t54.5 19
t46 -16t22 -45t18.5 -41t33.5 -12t48.5 48.5t70.5 381.5l105 723q4 41 4 67t-22.5 35.5t-94.5 9.5q-6 -1 -6 13t8 14q74 0 105.5 19.5t40.5 70.5q55 276 165.5 394t280.5 118q113 0 215 -57q118 176 309 176q90 0 141.5 -34t51.5 -77q0 -80 -66 -80q-31 0 -45 17.5t-30 57.5
t-36 62.5t-63 22.5q-104 0 -184 -142.5t-121 -414.5l-18 -125q214 2 461 17q27 0 26 -19q0 -12 -10 -57l-94 -533q-6 -33 -6 -57z" />
    <glyph glyph-name="f_f_l.liga" unicode="ffl" horiz-adv-x="1517" 
d="M637 1337q-100 0 -172 -112.5t-111 -325.5l-18 -131q225 0 305 3t100 60l7 25q33 197 88 334q-31 63 -84.5 105t-114.5 42zM1221 1487q121 0 209 -60q43 29 57 97q2 6 14 5t10 -7l-247 -1340q-6 -33 -7 -55q0 -63 39 -64q41 0 136 95q4 4 8 4t9 -7.5t-1 -13.5
q-72 -82 -126 -120.5t-105 -38.5q-72 0 -72 92q0 45 12 108l209 1125q-27 61 -81 105t-116 44q-109 0 -187.5 -142.5t-121.5 -414.5l-18 -127q86 2 211 12q18 0 13 -19t-26.5 -43t-42.5 -22q-84 16 -163 21l-111 -764q-55 -377 -134 -448.5t-155 -71.5q-141 0 -141 84
q0 29 21.5 48t54 19t46 -16t22.5 -45t18 -41t33 -12t49 47.5t71 382.5l105 723q4 25 4 49t-27 37.5t-360 13.5l-113 -770q-55 -378 -134 -449t-155 -71q-141 0 -141 84q0 29 21.5 48t54.5 19t46 -16t22 -45t18.5 -41t33.5 -12t48.5 48.5t70.5 381.5l105 723q4 41 4 67
t-22.5 35.5t-94.5 9.5q-6 -1 -6 13t8 14q74 0 105.5 19.5t40.5 70.5q55 276 165.5 394t280.5 118q117 0 211 -55q112 174 322 174z" />
    <glyph glyph-name="T_T.liga" unicode="TT" horiz-adv-x="2097" 
d="M287 12.5q0 12.5 4 12.5q70 0 104.5 10t52 39.5t27.5 91.5l168 948q6 35 6 69t-24.5 48t-94.5 14h-51q-115 0 -183.5 -68.5t-113.5 -226.5q0 -2 -9 -2q-27 0 -15 8q16 51 47 175t43 194q2 6 14 5t10 -7q-4 -27 20 -35q41 -14 306.5 -14t405.5 4l63 2q116 0 127.5 13.5
t19.5 41.5q2 8 14.5 6t10.5 -8l-4 -24q0 -18 19.5 -23.5t123 -8.5t261.5 -3t284 4l127 2q61 0 92 10t43 41q4 6 14.5 5t8.5 -9q-16 -55 -45 -187t-37 -184q-2 -8 -13.5 -7t-9.5 9q12 61 13 109q0 94 -49.5 136t-157.5 42h-37q-55 0 -84 -11t-43 -39t-25 -85l-168 -944
q-8 -53 -8 -66q0 -45 30 -60t114 -15q4 0 4 -12.5t-4 -12.5q-55 0 -89 2l-133 2l-127 -2q-33 -2 -90 -2q-6 0 -6 12.5t6 12.5q70 0 105 11t51 39.5t27 90.5l167 948q6 37 6.5 70t-24.5 47t-90 14h-37q-119 0 -165 -15.5t-69.5 -70.5t-54.5 -205q0 -6 -11 -5t-11 7
q25 141 24.5 187.5t-20 68t-62.5 27.5t-135 6h-35q-57 0 -85.5 -11t-42 -39t-23.5 -85l-170 -944q-6 -37 -6 -74t29.5 -52t113.5 -15q4 0 4 -12.5t-4 -12.5q-55 0 -88 2l-133 2l-127 -2q-33 -2 -92 -2q-4 0 -4 12.5z" />
    <glyph glyph-name="T_h.liga" unicode="Th" horiz-adv-x="1900" 
d="M1628 817q133 0 133 -155q0 -47 -12 -115l-68 -365q-6 -31 -6 -55q0 -63 39 -64q45 0 135 95q5 4 10 4t9 -7.5t0 -13.5q-140 -159 -224 -159q-44 0 -60.5 21.5t-16.5 73.5t10 105l61 326q10 53 11 108q0 121 -86 121q-68 0 -140.5 -86t-136 -249.5t-104.5 -387.5
q-6 -31 -60.5 -30.5t-54.5 12.5l8 43q16 57 25 113l198 1075v4q0 14 -14 14h-381q-53 0 -80.5 -11t-41 -39t-23.5 -85l-166 -944q-6 -37 -6 -74t29.5 -52t113.5 -15q4 0 4 -12.5t-4 -12.5q-55 0 -88 2l-133 2l-127 -2q-33 -2 -92 -2q-4 0 -4 12.5t4 12.5q70 0 104.5 10
t52 39.5t27.5 91.5l168 948q6 37 6 70t-23.5 47t-86.5 14h-50q-121 0 -191.5 -68.5t-115.5 -226.5q0 -2 -13 -2t-11 8q53 168 90 369q2 6 14 5t10 -7q-6 -43 80 -43q152 -6 375 -6t361.5 6t217 56t119.5 153q0 4 8.5 4t13.5 -3t3 -5l-201 -1114q72 209 172.5 327.5
t208.5 118.5z" />
    <glyph glyph-name="f_b.liga" unicode="fb" horiz-adv-x="1415" 
d="M1249 572.5q0 62.5 -30.5 107.5t-103.5 45t-149.5 -65.5t-135 -184.5t-87.5 -272q-4 -12 -4 -37q0 -63 47.5 -102t119 -39t138 51t117.5 147t69.5 191.5t18.5 158zM94 739q-6 0 -6 13.5t8 13.5q74 0 105.5 19.5t40.5 70.5q59 346 173.5 488.5t299.5 142.5q119 0 198 -53
q37 31 50 90q0 6 8 6t13 -3t3 -5l-199 -1073q70 164 186 266t236 102q78 0 123 -58.5t45 -156.5q0 -47 -8 -88q-33 -166 -125 -289t-206.5 -187.5t-210 -64.5t-150.5 39t-55 109q0 12 4 37l221 1175q-31 53 -81 88t-103 35q-109 0 -188 -142.5t-122 -414.5l-18 -127
q86 2 211 12q18 0 13 -19t-26.5 -43t-41.5 -22q-84 16 -164 21l-111 -764q-55 -378 -159 -471q-54 -49 -130 -49q-141 0 -141 84q0 29 21.5 48t54.5 19t46 -16t22 -45t18.5 -41t33.5 -12t40 32q33 65 79 398l105 723q4 41 4 66.5t-22.5 35.5t-94.5 10z" />
    <glyph glyph-name="f_f_b.liga" unicode="ffb" horiz-adv-x="1921" 
d="M1755 572.5q0 62.5 -30.5 107.5t-103.5 45t-149.5 -65.5t-135 -184.5t-87.5 -272q-4 -12 -4 -37q0 -63 47 -102t119 -39t138.5 51t117.5 147t69.5 191.5t18.5 158zM637 1337q-100 0 -172 -112.5t-111 -325.5l-18 -131q225 0 305 3t100 60l7 25q33 197 88 334
q-31 63 -84.5 105t-114.5 42zM1221 1487q119 0 198 -53q37 31 49 90q0 6 8.5 6t13.5 -3t3 -5l-199 -1073q70 164 185.5 266t236.5 102q78 0 123 -58.5t45 -156.5q0 -47 -8 -88q-33 -166 -125 -289t-206.5 -187.5t-210 -64.5t-151 39t-55.5 109q0 12 5 37l221 1175
q-31 53 -81 88t-104 35q-109 0 -187.5 -142.5t-121.5 -414.5l-18 -127q86 2 211 12q18 0 13 -19t-26.5 -43t-42.5 -22q-84 16 -163 21l-111 -764q-55 -377 -159 -471q-54 -49 -130 -49q-141 0 -141 84q0 29 21.5 48t54 19t46 -16t22.5 -45t18.5 -41t33 -12t39.5 32
q33 64 80 398l105 723q4 25 4 49q1 24 -17 32q-37 19 -370 19l-113 -770q-55 -378 -159 -471q-54 -49 -130 -49q-141 0 -141 84q0 29 21.5 48t54.5 19t46 -16t22 -45t18.5 -41t33.5 -12t40 32q33 65 79 398l105 723q4 41 4 66.5t-22.5 35.5t-94.5 10q-6 0 -6 13.5t8 13.5
q74 0 105.5 19.5t40.5 70.5q55 276 165.5 394t280.5 118q117 0 211 -55q112 174 322 174z" />
    <glyph glyph-name="f_f_f.liga" unicode="fff" horiz-adv-x="1548" 
d="M637 1337q-100 0 -172 -112.5t-111 -325.5l-18 -131q225 0 305 2t100 64l7 22q37 197 92 326q-29 68 -83.5 111.5t-119.5 43.5zM1143 1409q-100 0 -172 -130t-111 -380l-18 -131q225 0 295 2q104 4 116 86l2 -4v4q41 254 91 387q-31 72 -85.5 119t-117.5 47zM1407 1366
q86 121 251 121q81 0 121 -32t35 -69q-9 -65 -71 -65q-29 0 -41 16.5t-29 51.5q-12 33 -26.5 50t-42.5 17q-154 0 -236 -557l-18 -127l131 8l80 4q18 0 13 -19t-26.5 -43t-42.5 -22q-90 16 -164 21l-110 -764q-55 -377 -159 -471q-54 -49 -130 -49q-141 0 -141 84
q0 29 21.5 48t54 19t46 -16t22.5 -45t18.5 -41t33 -12t39.5 32q33 64 80 398l105 723q2 14 2 44q1 30 -17 38q-39 18 -370 18l-113 -770q-29 -199 -65.5 -310.5t-91 -160.5t-130.5 -49q-141 0 -141 80q0 31 20.5 51t53 20t46 -16t22.5 -45t18.5 -41t33 -12t39.5 32
q33 64 80 398l107 723q2 12 2 42q1 30 -17 39q-37 19 -370 19l-113 -770q-55 -378 -159 -471q-54 -49 -130 -49q-141 0 -141 84q0 29 21.5 48t54.5 19t46 -16t22 -45t18.5 -41t33.5 -12t40 32q33 65 79 398l105 723q4 41 4 66.5t-22.5 35.5t-94.5 10q-6 0 -6 13.5t8 13.5
q74 0 105.5 19.5t40.5 70.5q55 276 165.5 394t280.5 118q119 0 225 -63q106 135 283 135q121 0 211 -74z" />
    <glyph glyph-name="f_f_h.liga" unicode="ffh" horiz-adv-x="1951" 
d="M637 1337q-100 0 -172 -112.5t-111 -325.5l-18 -131q225 0 305 3t100 60l7 25q33 197 88 334q-31 63 -84.5 105t-114.5 42zM1767 63q41 0 136 95q4 4 8 4t8 -7.5t0 -13.5q-72 -82 -126 -120.5t-105 -38.5q-70 0 -70 90q0 43 12 110l60 326q10 53 10 108q0 121 -86 121
q-66 0 -137.5 -84t-136 -244.5t-105.5 -379.5l-2 -15q-6 -31 -59.5 -30.5t-53.5 11t13 62.5l20 95l213 1155q-27 61 -81 105t-116 44q-109 0 -187.5 -142.5t-121.5 -414.5l-18 -127q86 2 211 12q18 0 13 -19t-26.5 -43t-42.5 -22q-84 16 -163 21l-111 -764
q-55 -377 -159 -471q-54 -49 -130 -49q-141 0 -141 84q0 29 21.5 48t54 19t46 -16t22.5 -45t18.5 -41t33 -12t39.5 32q33 64 80 398l105 723q4 25 4 49q1 24 -17 32q-37 19 -370 19l-113 -770q-55 -378 -159 -471q-54 -49 -130 -49q-141 0 -141 84q0 29 21.5 48t54.5 19
t46 -16t22 -45t18.5 -41t33.5 -12t40 32q33 65 79 398l105 723q4 41 4 66.5t-22.5 35.5t-94.5 10q-6 0 -6 13.5t8 13.5q74 0 105.5 19.5t40.5 70.5q55 276 165.5 394t280.5 118q117 0 211 -55q112 174 322 174q121 0 209 -60q43 29 57 97q2 6 14 5t10 -7l-211 -1143
q74 205 172.5 321.5t206.5 116.5q133 0 133 -155q0 -47 -12 -115l-67 -365q-6 -31 -7 -53q0 -66 41 -66z" />
    <glyph glyph-name="f_f_j.liga" unicode="ffj" horiz-adv-x="1452" 
d="M637 1337q-100 0 -172 -112.5t-111 -325.5l-18 -131q225 0 305 3t100 60l7 25q37 201 92 326q-29 66 -84.5 110.5t-118.5 44.5zM94 739q-6 0 -6 13.5t8 13.5q74 0 105.5 19.5t40.5 70.5q55 276 165.5 394t280.5 118q123 0 219 -61q121 180 330 180q96 0 147.5 -39
t45.5 -92q-12 -59 -68 -60q-29 0 -43 17.5t-30.5 57.5t-37 62.5t-63.5 22.5q-113 0 -200 -142.5t-128 -414.5l-18 -131q209 2 338 12t162.5 10.5t33.5 -20.5q0 -12 -10 -59l-139 -789q-33 -193 -70 -296t-89 -146t-124.5 -43t-105.5 23.5t-33 57.5t20.5 52t47 18t37 -15
t20.5 -47t18 -45t33 -13t53 50t82 357l125 717q6 35 6 67.5t-33.5 50t-107.5 20.5t-270 3l-113 -776q-55 -377 -159 -471q-54 -49 -130 -49q-141 0 -141 84q0 29 21.5 48t54 19t46 -16t22.5 -45t18.5 -41t33 -12t39.5 32q33 64 80 398l105 723q4 25 4 49q1 24 -17 32
q-37 19 -370 19l-113 -770q-55 -378 -159 -471q-54 -49 -130 -49q-141 0 -141 84q0 29 21.5 48t54.5 19t46 -16t22 -45t18.5 -41t33.5 -12t40 32q33 65 79 398l105 723q4 41 4 66.5t-22.5 35.5t-94.5 10z" />
    <glyph glyph-name="f_f_k.liga" unicode="ffk" horiz-adv-x="1873" 
d="M1675 693q0 26 -16.5 44.5t-44.5 18.5q-105 0 -194.5 -98.5t-114.5 -249.5q184 43 267 98q103 68 103 187zM637 1337q-100 0 -172 -112.5t-111 -325.5l-18 -131q225 0 305 3t100 60l7 25q33 197 88 334q-31 63 -84.5 105t-114.5 42zM1221 1487q121 0 209 -60q43 29 57 97
q2 6 14 5t10 -7l-165 -889q76 86 169 135t171.5 49t104.5 -29.5t26 -57t-2 -36.5q-14 -74 -106.5 -144.5t-246.5 -125.5l137 -236q41 -70 70 -94t62 -24q53 0 137 84q2 2 8 2t10 -7.5t-2 -11.5q-135 -156 -215 -155q-47 0 -82 29.5t-82 107.5l-119 207q-31 53 -54 53t-32 -2
h-2l-65 -363q-6 -31 -59.5 -30.5t-53.5 11t13 62.5l20 95l213 1155q-27 61 -81 105t-116 44q-109 0 -187.5 -142.5t-121.5 -414.5l-18 -127q86 2 211 12q18 0 13 -19t-26.5 -43t-42.5 -22q-84 16 -163 21l-111 -764q-55 -377 -159 -471q-54 -49 -130 -49q-141 0 -141 84
q0 29 21.5 48t54 19t46 -16t22.5 -45t18.5 -41t33 -12t39.5 32q33 64 80 398l105 723q4 25 4 49q1 24 -17 32q-37 19 -370 19l-113 -770q-55 -378 -159 -471q-54 -49 -130 -49q-141 0 -141 84q0 29 21.5 48t54.5 19t46 -16t22 -45t18.5 -41t33.5 -12t40 32q33 65 79 398
l105 723q4 41 4 66.5t-22.5 35.5t-94.5 10q-6 0 -6 13.5t8 13.5q74 0 105.5 19.5t40.5 70.5q55 276 165.5 394t280.5 118q117 0 211 -55q112 174 322 174z" />
    <glyph glyph-name="f_f_thorn.liga" unicode="ff&#xfe;" horiz-adv-x="1892" 
d="M1724 528q0 203 -161 203q-96 0 -205 -59l-107 -582q74 -35 158 -35q131 0 204 101.5t105 294.5q6 40 6 77zM637 1337q-100 0 -172 -112.5t-111 -325.5l-18 -131q225 0 305 3t100 60l7 25q33 197 88 334q-31 63 -84.5 105t-114.5 42zM1221 1487q121 0 209 -60
q43 29 57 97q2 6 14 5t10 -7l-145 -805q160 88 291 88q90 0 143 -59.5t53 -157.5q0 -35 -6 -72q-29 -154 -111.5 -272.5t-187 -182t-187.5 -63.5t-124 6l-68 -369q-8 -45 -8 -69q0 -54 74 -55q10 0 51 4q8 2 10 -10.5t-6 -14.5l-352 -53q-8 -2 -10 10t4 14q47 8 68.5 21.5
t32.5 42.5t24 96l180 975q-98 -73 -102 -73.5t-8.5 8t-0.5 12.5q78 66 117 94l123 668q-27 61 -81 106t-116 45q-109 0 -187.5 -142.5t-121.5 -414.5l-18 -127q86 2 211 12q18 0 13 -19t-26.5 -43t-42.5 -22q-84 16 -163 21l-111 -764q-55 -377 -159 -471q-54 -49 -130 -49
q-141 0 -141 84q0 29 21.5 48t54 19t46 -16t22.5 -45t18.5 -41t33 -12t39.5 32q33 64 80 398l105 723q4 25 4 49q1 24 -17 32q-37 19 -370 19l-113 -770q-55 -378 -159 -471q-54 -49 -130 -49q-141 0 -141 84q0 29 21.5 48t54.5 19t46 -16t22 -45t18.5 -41t33.5 -12t40 32
q33 65 79 398l105 723q4 41 4 66.5t-22.5 35.5t-94.5 10q-6 0 -6 13.5t8 13.5q74 0 105.5 19.5t40.5 70.5q55 276 165.5 394t280.5 118q117 0 211 -55q112 174 322 174z" />
    <glyph glyph-name="f_f_t.liga" unicode="fft" horiz-adv-x="1601" 
d="M637 1337q-100 0 -172 -112.5t-111 -325.5l-18 -131q225 0 305 3t100 60l7 25q39 231 77 354q-33 55 -82 91t-106 36zM874 1325q87 162 270 162q87 0 127 -32t35 -69q-9 -65 -71 -65q-29 0 -41 16.5t-29 51.5q-12 33 -26.5 50t-42.5 17q-154 0 -236 -557l-18 -131
q205 0 279.5 2t128 43t71.5 109q0 6 17 6t16 -8l-27 -150q72 2 262 14q20 0 14.5 -19t-27.5 -44t-42 -23q-113 20 -215 23l-92 -508q-6 -33 -6 -61q0 -98 100 -99q89 1 171 69q28 24 32 23.5t9 -7.5t3 -11q-171 -152 -293 -152q-59 0 -99 30t-40 95q0 23 6 50l86 477
q4 33 4 54.5t-31 33.5t-333 12l-113 -770q-55 -377 -159 -471q-54 -49 -130 -49q-141 0 -141 84q0 29 21.5 48t54 19t46 -16t22.5 -45t18.5 -41t33 -12t39.5 32q33 64 80 398l105 723q4 25 4 49q1 24 -17 32q-37 19 -370 19l-113 -770q-55 -378 -159 -471q-54 -49 -130 -49
q-141 0 -141 84q0 29 21.5 48t54.5 19t46 -16t22 -45t18.5 -41t33.5 -12t40 32q33 65 79 398l105 723q4 41 4 66.5t-22.5 35.5t-94.5 10q-6 0 -6 13.5t8 13.5q74 0 105.5 19.5t40.5 70.5q55 276 165.5 394t280.5 118q104 0 186 -43z" />
    <glyph glyph-name="f_h.liga" unicode="fh" horiz-adv-x="1445" 
d="M1221 129q0 -66 41 -66t135 95q4 4 8 4t8 -7.5t0 -13.5q-72 -82 -126 -120.5t-105 -38.5q-70 0 -70 90q0 43 12 110l60 326q10 53 10 108q0 121 -86 121q-66 0 -137.5 -84t-136 -244.5t-105.5 -379.5l-2 -15q-6 -31 -59 -30.5t-53.5 10.5t4 26.5t8.5 36.5l20 95l213 1155
q-27 61 -81 105t-115 44q-109 0 -188 -142.5t-122 -414.5l-18 -127q86 2 211 12q18 0 13 -19t-26.5 -43t-41.5 -22q-84 16 -164 21l-111 -764q-55 -378 -159 -471q-54 -49 -130 -49q-141 0 -141 84q0 29 21.5 48t54.5 19t46 -16t22 -45t18.5 -41t33.5 -12t40 32
q33 65 79 398l105 723q4 41 4 66.5t-22.5 35.5t-94.5 10q-6 0 -6 13.5t8 13.5q74 0 105.5 19.5t40.5 70.5q59 346 173.5 488.5t299.5 142.5q121 0 209 -60q43 29 57 97q2 6 14.5 5t10.5 -7l-211 -1143q74 205 172 321.5t207 116.5q133 0 133 -155q0 -47 -13 -115l-67 -365
q-6 -31 -6 -53z" />
    <glyph glyph-name="f_j.liga" unicode="fj" horiz-adv-x="964" 
d="M94 739q-6 0 -6 13.5t8 13.5q74 0 105.5 19.5t40.5 70.5q63 350 188 490.5t301 140.5q96 0 147.5 -39t45.5 -92q-12 -59 -68 -60q-29 0 -43 17.5t-30.5 57.5t-37 62.5t-63.5 22.5q-113 0 -200 -142.5t-128 -414.5l-18 -131q209 2 338 12t162.5 10.5t33.5 -20.5
q0 -12 -10 -59l-139 -789q-33 -193 -70 -296t-89 -146t-124.5 -43t-105.5 23.5t-33 57.5t20.5 52t47 18t37 -15t20.5 -47t18.5 -45t33 -13t53.5 52t81 355l125 717q6 35 6 67.5t-33.5 50t-107.5 20.5t-270 3l-113 -776q-55 -378 -159 -471q-54 -49 -130 -49q-141 0 -141 84
q0 29 21.5 48t54.5 19t46 -16t22 -45t18.5 -41t33.5 -12t40 32q33 65 79 398l105 723q4 41 4 66.5t-22.5 35.5t-94.5 10z" />
    <glyph glyph-name="f_k.liga" unicode="fk" horiz-adv-x="1366" 
d="M1169 686q0 70 -61 70q-104 0 -188 -92.5t-119 -243.5l-2 -12q184 43 267 98q103 68 103 180zM94 739q-6 0 -6 13.5t8 13.5q74 0 105.5 19.5t40.5 70.5q59 346 173.5 488.5t299.5 142.5q121 0 209 -60q43 29 57 97q2 6 14.5 5t10.5 -7l-166 -889q76 86 169 135t171.5 49
t104.5 -29.5t26 -57t-2 -36.5q-14 -74 -106.5 -144.5t-246.5 -125.5l138 -236q41 -70 69.5 -94t61.5 -24q53 0 137 84q2 2 8 2t10 -7.5t-2 -11.5q-135 -156 -215 -155q-47 0 -81.5 29.5t-82.5 107.5l-118 207q-31 53 -54.5 53t-31.5 -2h-2l-66 -363q-6 -31 -59 -30.5
t-53.5 10.5t4 26.5t8.5 36.5l20 95l213 1155q-27 61 -81 105t-115 44q-109 0 -188 -142.5t-122 -414.5l-18 -127q86 2 211 12q18 0 13 -19t-26.5 -43t-41.5 -22q-84 16 -164 21l-111 -764q-55 -378 -159 -471q-54 -49 -130 -49q-141 0 -141 84q0 29 21.5 48t54.5 19t46 -16
t22 -45t18.5 -41t33.5 -12t40 32q33 65 79 398l105 723q4 41 4 66.5t-22.5 35.5t-94.5 10z" />
    <glyph glyph-name="f_thorn.liga" unicode="f&#xfe;" horiz-adv-x="1386" 
d="M1219 528q0 203 -168 203q-90 0 -199 -59l-107 -582q74 -35 158 -35q131 0 204 101.5t105 294.5q7 40 7 77zM94 739q-6 0 -6 13.5t8 13.5q74 0 105.5 19.5t40.5 70.5q59 346 173.5 488.5t299.5 142.5q121 0 209 -60q43 29 57 97q2 6 14.5 5t10.5 -7l-146 -805
q160 88 291 88q90 0 143.5 -59.5t53.5 -157.5q0 -35 -7 -72q-29 -154 -111.5 -272.5t-187 -182t-187.5 -63.5t-124 6l-67 -369q-8 -45 -8 -69q-1 -54 73 -55q10 0 51 4q8 2 10.5 -10.5t-6.5 -14.5l-352 -53q-8 -2 -10 10t4 14q47 8 68.5 21.5t33 42.5t23.5 96l180 975
q-98 -73 -102 -73.5t-8.5 8t0.5 12.5q78 66 116 94l123 668q-27 61 -81 106t-115 45q-109 0 -188 -142.5t-122 -414.5l-18 -127q86 2 211 12q18 0 13 -19t-26.5 -43t-41.5 -22q-84 16 -164 21l-111 -764q-55 -378 -159 -471q-54 -49 -130 -49q-141 0 -141 84q0 29 21.5 48
t54.5 19t46 -16t22 -45t18.5 -41t33.5 -12t40 32q33 65 79 398l105 723q4 41 4 66.5t-22.5 35.5t-94.5 10z" />
    <glyph glyph-name="f_t.liga" unicode="ft" horiz-adv-x="1093" 
d="M94 739q-6 0 -6 13.5t8 13.5q74 0 105.5 19.5t40.5 70.5q41 252 90 386t123.5 189.5t197.5 55.5q72 0 112 -32t35 -69q-9 -65 -71 -65q-29 0 -41 16.5t-29 51.5q-12 33 -26.5 50t-42.5 17q-154 0 -236 -557l-18 -131q205 0 279.5 2t128 43t71.5 109q0 6 17 6t16 -8
l-27 -150q72 2 262 14q20 0 14.5 -19t-27 -44t-42.5 -23q-113 20 -215 23l-92 -508q-6 -33 -6 -61q0 -98 100 -99q89 1 171 69q28 24 32 23.5t9 -7.5t3 -11q-171 -152 -293 -152q-59 0 -99 30t-40 95q0 23 6 50l86 477q4 33 4 54.5t-30.5 33.5t-333.5 12l-113 -770
q-55 -378 -159 -471q-54 -49 -130 -49q-141 0 -141 84q0 29 21.5 48t54.5 19t46 -16t22 -45t18.5 -41t33.5 -12t40 32q33 65 79 398l105 723q4 41 4 66.5t-22.5 35.5t-94.5 10z" />
    <glyph glyph-name="g_g.liga" unicode="gg" horiz-adv-x="1552" 
d="M27 -314q0 -83 74.5 -143.5t189 -60.5t175 46t60.5 123t-53 122t-116 78t-136 75q-96 -57 -145 -107t-49 -133zM825 -313q0 -84 75 -144.5t191 -60.5t175 45t59 123t-59.5 126t-171.5 101l-93 49q-88 -57 -132 -106t-44 -133zM1321 554q0 68 -36 140t-102 72
q-67 0 -119 -60q-74 -83 -73 -229q0 -98 39 -167.5t103.5 -69.5t114.5 56q73 82 73 258zM545 554q0 68 -36 140t-102.5 72t-118.5 -60q-73 -84 -73 -229q0 -98 39 -167.5t103 -69.5q65 0 115 56q74 82 73 258zM1575 782.5q0 -24.5 -9.5 -52.5t-17.5 -23q-68 35 -157 22
q43 -57 43 -147q0 -133 -80 -237q-54 -69 -125.5 -106.5t-121 -37.5t-73.5 6q-29 -35 -28.5 -84t46.5 -84t134 -78t132 -71q109 -68 109 -160t-60 -161t-159.5 -106.5t-219.5 -37.5t-198.5 58t-78.5 147t62.5 154.5t207.5 156.5q-74 51 -74 105t24.5 89t76.5 78
q-61 23 -95 80t-34 117q0 195 130 308q97 85 220 85q84 0 137 -47q109 51 199 51q10 0 10 -24.5zM836 807q10 0 10 -26t-9.5 -54.5t-17.5 -24.5q-41 21 -93 21t-99 -12q49 -87 22 -207q-18 -90 -71.5 -160t-125 -106.5t-143.5 -36.5q-18 0 -51 4q-29 -33 -29 -81t43 -83
t142.5 -85t156 -99.5t56.5 -132t-59.5 -152.5t-157 -108.5t-220 -38.5t-200.5 60t-78 150.5t70.5 156t218.5 149.5q-70 51 -70 105t23.5 89t74.5 78q-61 23 -94 79t-33 116q0 195 131 310q97 85 208.5 85t168.5 -70q128 74 226 74z" />
    <glyph glyph-name="g_y.liga" unicode="gy" horiz-adv-x="1626" 
d="M27 -316q0 -85 79.5 -143.5t200.5 -58.5t181.5 47t60.5 118.5t-57.5 120t-167.5 107.5q-57 27 -99 53q-96 -57 -147 -108t-51 -136zM545 554q0 68 -36 140t-102.5 72t-118.5 -60q-73 -84 -73 -229q0 -98 39 -167.5t103 -69.5q65 0 115 56q74 82 73 258zM1452 524
q0 65 -33 152q-20 41 -20 69.5t19.5 47t54.5 18.5q77 0 77 -113q0 -168 -133 -478t-309 -552.5t-297 -242.5q-82 0 -82 65q0 74 82 74q160 0 233 82q47 49 109 147q-18 272 -69.5 486.5t-126 334t-156.5 119.5t-152 -76q10 -37 10 -71.5t-14 -103t-67.5 -137.5t-125 -106.5
t-143.5 -37.5q-20 0 -49 4q-27 -31 -32 -74t40 -81t153 -91t169 -105.5t61 -130.5t-59.5 -146.5t-158.5 -110t-227 -41.5t-212 60t-84 148t75.5 158t219.5 152q-74 53 -74 117.5t100 152.5q-61 23 -95 80t-34 117q0 194 131 308q97 85 226.5 85t179.5 -119q49 57 109.5 91
t109.5 34q104 0 188 -120t136.5 -315.5t66.5 -418.5q203 374 203 569z" />
    <glyph glyph-name="g_yacute.liga" unicode="g&#xfd;" horiz-adv-x="1626" 
d="M27 -316q0 -85 79.5 -143.5t200.5 -58.5t181.5 47t60.5 118.5t-57.5 120t-167.5 107.5q-57 27 -99 53q-96 -57 -147 -108t-51 -136zM545 554q0 68 -36 140t-102.5 72t-118.5 -60q-73 -84 -73 -229q0 -98 39 -167.5t103 -69.5q65 0 115 56q74 82 73 258zM1452 524
q0 65 -33 152q-20 41 -20 69.5t19.5 47t54.5 18.5q77 0 77 -113q0 -168 -133 -478t-309 -552.5t-297 -242.5q-82 0 -82 65q0 74 82 74q160 0 233 82q47 49 109 147q-18 272 -69.5 486.5t-126 334t-156.5 119.5t-152 -76q10 -37 10 -71.5t-14 -103t-67.5 -137.5t-125 -106.5
t-143.5 -37.5q-20 0 -49 4q-27 -31 -32 -74t40 -81t153 -91t169 -105.5t61 -130.5t-59.5 -146.5t-158.5 -110t-227 -41.5t-212 60t-84 148t75.5 158t219.5 152q-74 53 -74 117.5t100 152.5q-61 23 -95 80t-34 117q0 194 131 308q97 85 226.5 85t179.5 -119q49 57 109.5 91
t109.5 34q104 0 188 -120t136.5 -315.5t66.5 -418.5q203 374 203 569zM1496 1497q23 0 22 -8l-301 -520q-3 -6 -14 -2t-7 8l190 491q4 10 45.5 20.5t64.5 10.5z" />
    <glyph glyph-name="g_ycircumflex.liga" unicode="g&#x177;" horiz-adv-x="1626" 
d="M27 -316q0 -85 79.5 -143.5t200.5 -58.5t181.5 47t60.5 118.5t-57.5 120t-167.5 107.5q-57 27 -99 53q-96 -57 -147 -108t-51 -136zM545 554q0 68 -36 140t-102.5 72t-118.5 -60q-73 -84 -73 -229q0 -98 39 -167.5t103 -69.5q65 0 115 56q74 82 73 258zM1452 524
q0 65 -33 152q-20 41 -20 69.5t19.5 47t54.5 18.5q77 0 77 -113q0 -168 -133 -478t-309 -552.5t-297 -242.5q-82 0 -82 65q0 74 82 74q160 0 233 82q47 49 109 147q-18 272 -69.5 486.5t-126 334t-156.5 119.5t-152 -76q10 -37 10 -71.5t-14 -103t-67.5 -137.5t-125 -106.5
t-143.5 -37.5q-20 0 -49 4q-27 -31 -32 -74t40 -81t153 -91t169 -105.5t61 -130.5t-59.5 -146.5t-158.5 -110t-227 -41.5t-212 60t-84 148t75.5 158t219.5 152q-74 53 -74 117.5t100 152.5q-61 23 -95 80t-34 117q0 194 131 308q97 85 226.5 85t179.5 -119q49 57 109.5 91
t109.5 34q104 0 188 -120t136.5 -315.5t66.5 -418.5q203 374 203 569zM1091 969q-5 0 -11.5 3t-4.5 7l215 510q6 10 22.5 10t16.5 -10l37 -510q0 -6 -12.5 -7t-12.5 5l-65 315l-178 -321q-2 -2 -7 -2z" />
    <glyph glyph-name="g_ydieresis.liga" unicode="g&#xff;" horiz-adv-x="1626" 
d="M27 -316q0 -85 79.5 -143.5t200.5 -58.5t181.5 47t60.5 118.5t-57.5 120t-167.5 107.5q-57 27 -99 53q-96 -57 -147 -108t-51 -136zM545 554q0 68 -36 140t-102.5 72t-118.5 -60q-73 -84 -73 -229q0 -98 39 -167.5t103 -69.5q65 0 115 56q74 82 73 258zM1452 524
q0 65 -33 152q-20 41 -20 69.5t19.5 47t54.5 18.5q77 0 77 -113q0 -168 -133 -478t-309 -552.5t-297 -242.5q-82 0 -82 65q0 74 82 74q160 0 233 82q47 49 109 147q-18 272 -69.5 486.5t-126 334t-156.5 119.5t-152 -76q10 -37 10 -71.5t-14 -103t-67.5 -137.5t-125 -106.5
t-143.5 -37.5q-20 0 -49 4q-27 -31 -32 -74t40 -81t153 -91t169 -105.5t61 -130.5t-59.5 -146.5t-158.5 -110t-227 -41.5t-212 60t-84 148t75.5 158t219.5 152q-74 53 -74 117.5t100 152.5q-61 23 -95 80t-34 117q0 194 131 308q97 85 226.5 85t179.5 -119q49 57 109.5 91
t109.5 34q104 0 188 -120t136.5 -315.5t66.5 -418.5q203 374 203 569zM1317 1062q0 40 23.5 61.5t63.5 21.5t62.5 -21.5t22.5 -61.5t-22.5 -62.5t-62.5 -22.5t-63.5 22.5t-23.5 62.5zM1096 1145q86 0 86 -83q0 -40 -22.5 -62.5t-62.5 -22.5t-63.5 23.5t-23.5 62.5t22.5 60.5
t63.5 21.5z" />
    <glyph glyph-name="g_ygrave.liga" unicode="g&#x1ef3;" horiz-adv-x="1626" 
d="M27 -316q0 -85 79.5 -143.5t200.5 -58.5t181.5 47t60.5 118.5t-57.5 120t-167.5 107.5q-57 27 -99 53q-96 -57 -147 -108t-51 -136zM545 554q0 68 -36 140t-102.5 72t-118.5 -60q-73 -84 -73 -229q0 -98 39 -167.5t103 -69.5q65 0 115 56q74 82 73 258zM1452 524
q0 65 -33 152q-20 41 -20 69.5t19.5 47t54.5 18.5q77 0 77 -113q0 -168 -133 -478t-309 -552.5t-297 -242.5q-82 0 -82 65q0 74 82 74q160 0 233 82q47 49 109 147q-18 272 -69.5 486.5t-126 334t-156.5 119.5t-152 -76q10 -37 10 -71.5t-14 -103t-67.5 -137.5t-125 -106.5
t-143.5 -37.5q-20 0 -49 4q-27 -31 -32 -74t40 -81t153 -91t169 -105.5t61 -130.5t-59.5 -146.5t-158.5 -110t-227 -41.5t-212 60t-84 148t75.5 158t219.5 152q-74 53 -74 117.5t100 152.5q-61 23 -95 80t-34 117q0 194 131 308q97 85 226.5 85t179.5 -119q49 57 109.5 91
t109.5 34q104 0 188 -120t136.5 -315.5t66.5 -418.5q203 374 203 569zM1174.5 1497q23.5 0 58.5 -10t35 -21l-11 -491q0 -4 -9 -6t-9 4l-86 516q-2 8 21.5 8z" />
    <glyph glyph-name="uni00670233.liga" unicode="g&#x233;" horiz-adv-x="1626" 
d="M27 -316q0 -85 79.5 -143.5t200.5 -58.5t181.5 47t60.5 118.5t-57.5 120t-167.5 107.5q-57 27 -99 53q-96 -57 -147 -108t-51 -136zM545 554q0 68 -36 140t-102.5 72t-118.5 -60q-73 -84 -73 -229q0 -98 39 -167.5t103 -69.5q65 0 115 56q74 82 73 258zM1452 524
q0 65 -33 152q-20 41 -20 69.5t19.5 47t54.5 18.5q77 0 77 -113q0 -168 -133 -478t-309 -552.5t-297 -242.5q-82 0 -82 65q0 74 82 74q160 0 233 82q47 49 109 147q-18 272 -69.5 486.5t-126 334t-156.5 119.5t-152 -76q10 -37 10 -71.5t-14 -103t-67.5 -137.5t-125 -106.5
t-143.5 -37.5q-20 0 -49 4q-27 -31 -32 -74t40 -81t153 -91t169 -105.5t61 -130.5t-59.5 -146.5t-158.5 -110t-227 -41.5t-212 60t-84 148t75.5 158t219.5 152q-74 53 -74 117.5t100 152.5q-61 23 -95 80t-34 117q0 194 131 308q97 85 226.5 85t179.5 -119q49 57 109.5 91
t109.5 34q104 0 188 -120t136.5 -315.5t66.5 -418.5q203 374 203 569zM1010 979q-15 0 -15 30.5t15 30.5h485q12 0 12 -30.5t-12 -30.5h-485z" />
    <glyph glyph-name="uni00671EF9.liga" unicode="g&#x1ef9;" horiz-adv-x="1626" 
d="M27 -316q0 -85 79.5 -143.5t200.5 -58.5t181.5 47t60.5 118.5t-57.5 120t-167.5 107.5q-57 27 -99 53q-96 -57 -147 -108t-51 -136zM545 554q0 68 -36 140t-102.5 72t-118.5 -60q-73 -84 -73 -229q0 -98 39 -167.5t103 -69.5q65 0 115 56q74 82 73 258zM1452 524
q0 65 -33 152q-20 41 -20 69.5t19.5 47t54.5 18.5q77 0 77 -113q0 -168 -133 -478t-309 -552.5t-297 -242.5q-82 0 -82 65q0 74 82 74q160 0 233 82q47 49 109 147q-18 272 -69.5 486.5t-126 334t-156.5 119.5t-152 -76q10 -37 10 -71.5t-14 -103t-67.5 -137.5t-125 -106.5
t-143.5 -37.5q-20 0 -49 4q-27 -31 -32 -74t40 -81t153 -91t169 -105.5t61 -130.5t-59.5 -146.5t-158.5 -110t-227 -41.5t-212 60t-84 148t75.5 158t219.5 152q-74 53 -74 117.5t100 152.5q-61 23 -95 80t-34 117q0 194 131 308q97 85 226.5 85t179.5 -119q49 57 109.5 91
t109.5 34q104 0 188 -120t136.5 -315.5t66.5 -418.5q203 374 203 569zM981 981q-4 0 -9 5t-3 9q96 129 180 129q35 0 117 -25.5t128 -25.5t67.5 13.5t49.5 41.5h2q6 0 10.5 -5t2.5 -9q-57 -76 -92 -101.5t-74 -25.5t-79 10.5t-86 25t-93 14t-65.5 -10.5t-32.5 -24l-21 -21
h-2z" />
    <glyph glyph-name="longs_b.liga" unicode="&#x17f;b" horiz-adv-x="1437" 
d="M1272 561q0 164 -123 164q-84 0 -161 -65.5t-135 -184.5t-87 -272q-4 -12 -4 -35q0 -63 46 -103t119 -40t139.5 51t118.5 147t75 228q12 59 12 110zM1403 604q0 -39 -10 -90q-33 -166 -125 -289t-207 -187.5t-210 -64.5t-150.5 40t-55.5 110q0 10 4 35l221 1175
q-31 53 -81 88t-103 35q-109 0 -188.5 -143.5t-118.5 -413.5l-139 -942q-29 -199 -66 -310.5t-92 -160.5t-132 -49q-77 -1 -110 25q-34 26 -30 59q7 67 75 67q33 0 46.5 -16t22.5 -45t18.5 -41t33 -12t39.5 32q32 63 80 398l139 952q51 344 169 487.5t304 143.5
q119 0 199 -53q37 31 49 90q2 6 14.5 5t10.5 -7l-199 -1073q70 164 185.5 266t236.5 102q80 0 125 -58.5t45 -154.5z" />
    <glyph glyph-name="longs_h.liga" unicode="&#x17f;h" horiz-adv-x="1449" 
d="M1178 817q133 0 133 -155q0 -47 -13 -115l-67 -365q-6 -31 -6 -55q0 -63 39 -64q45 0 135 95q4 4 9 4t9 -7.5t0 -13.5q-140 -159 -224 -159q-44 0 -60.5 21.5t-16.5 73.5t10 105l62 326q10 53 10 108q0 121 -86 121q-66 0 -137.5 -84t-136 -244.5t-105.5 -379.5l-2 -15
q-6 -31 -59 -30.5t-54 12.5l9 47q12 49 22 109l221 1181q-31 53 -81 88t-103 35q-109 0 -188.5 -143.5t-118.5 -413.5l-139 -942q-29 -199 -66 -310.5t-92 -160.5t-132 -49q-77 -1 -110 25q-34 26 -30 59q7 67 75 67q33 0 46.5 -16t22.5 -45t18.5 -41t33 -12t39.5 32
q32 63 80 398l139 952q51 344 169 487.5t304 143.5q119 0 199 -53q37 31 49 90q2 6 14.5 5t10.5 -7l-211 -1143q74 205 172 321.5t207 116.5z" />
    <glyph glyph-name="longs_i.liga" unicode="&#x17f;i" horiz-adv-x="978" 
d="M764 809q74 0 74 -89q0 -46 -13 -108l-82 -430q-6 -33 -6 -59q0 -59 37 -60q49 0 139 91q4 4 8.5 4t9.5 -7.5t-1 -13.5q-139 -155 -234 -155q-73 0 -73 90q0 33 14 110l84 426q6 31 6 56q0 63 -41 63q-53 0 -141 -92q-2 -2 -7 -2t-10.5 7t0.5 11q137 158 236 158z
M-113.5 -412q31.5 0 45 -16t22.5 -45t18.5 -41t33 -12t39.5 32q32 63 80 398l139 952q92 631 465 631q90 0 141.5 -34t51.5 -77q0 -80 -66 -80q-31 0 -45 17.5t-30.5 57.5t-36 62.5t-62.5 22.5q-104 0 -184 -142.5t-121 -414.5l-137 -942q-29 -199 -66 -310.5t-92 -160.5
t-132 -49t-110 25.5t-29.5 58.5t24 50t52 17z" />
    <glyph glyph-name="longs_j.liga" unicode="&#x17f;j" horiz-adv-x="999" 
d="M510 -532q24 0 46 38q38 68 89 369l127 733q6 31 6 54q0 66 -41 65q-55 0 -139 -92q-2 -2 -8 -2t-10.5 7t0.5 11q137 158 237 158q37 0 53.5 -21.5t16.5 -71.5t-10 -104l-119 -690q-33 -193 -70 -296t-90 -146t-128 -43t-107.5 26.5t-28.5 63.5q12 61 70 61
q26 0 37.5 -17t19.5 -47t16 -43t33 -13zM-113.5 -412q31.5 0 45 -16t22.5 -45t18.5 -41t33 -12t39.5 32q32 63 80 398l139 952q98 631 486 631q100 0 152 -39t44 -92q-12 -59 -65 -60q-31 0 -45.5 17.5t-29.5 57.5t-35.5 62.5t-68.5 22.5q-111 0 -196.5 -142.5
t-128.5 -414.5l-137 -942q-29 -199 -66 -310.5t-92 -160.5t-132 -49t-110 25.5t-29.5 58.5t24 50t52 17z" />
    <glyph glyph-name="longs_k.liga" unicode="&#x17f;k" horiz-adv-x="1390" 
d="M1112 756q-104 0 -188 -92.5t-119 -243.5l-2 -12q184 43 274.5 103t96.5 175q0 33 -16.5 51.5t-45.5 18.5zM1374 156q6 0 10.5 -7.5t-2.5 -11.5q-135 -156 -215 -155q-47 0 -81.5 29.5t-81.5 107.5l-119 207q-31 53 -54.5 53t-31.5 -2h-2l-66 -363q-6 -31 -59 -30.5
t-54 12.5l9 47q12 49 22 109l221 1181q-31 53 -81 88t-103 35q-109 0 -188.5 -143.5t-118.5 -413.5l-139 -942q-29 -199 -66 -310.5t-92 -160.5t-132 -49q-77 -1 -110 25q-34 26 -30 59q7 67 75 67q33 0 46.5 -16t22.5 -45t18.5 -41t33 -12t39.5 32q32 63 80 398l139 952
q51 344 169 487.5t304 143.5q119 0 199 -53q37 31 49 90q2 6 14.5 5t10.5 -7l-166 -889q76 86 169 135t171.5 49t104.5 -29.5t26 -57t-2 -36.5q-14 -74 -106.5 -144.5t-245.5 -125.5l137 -236q41 -70 69.5 -94t61.5 -24q53 0 137 84q2 2 8 2z" />
    <glyph glyph-name="longs_l.liga" unicode="&#x17f;l" horiz-adv-x="1015" 
d="M715 -18q-72 0 -72 92q0 45 12 108l215 1151q-31 53 -81 88t-103 35q-109 0 -188.5 -143.5t-118.5 -413.5l-139 -942q-29 -199 -66 -310.5t-92 -160.5t-132 -49q-77 -1 -110 25q-34 26 -30 59q7 67 75 67q33 0 46.5 -16t22.5 -45t18.5 -41t33 -12t39.5 32q32 63 80 398
l139 952q51 344 169 487.5t304 143.5q119 0 199 -53q37 31 49 90q2 6 14.5 5t10.5 -7l-248 -1340q-6 -33 -6 -55q0 -63 39 -64q41 0 135 95q4 4 8 4t9 -7.5t-1 -13.5q-72 -82 -126 -120.5t-105 -38.5z" />
    <glyph glyph-name="longs_thorn.liga" unicode="&#x17f;&#xfe;" horiz-adv-x="1398" 
d="M1233 526q0 92 -40 148.5t-126 56.5t-203 -61l-106 -580q74 -35 160 -35q131 0 203.5 101.5t105.5 294.5q6 40 6 75zM686 1456q-109 0 -188.5 -143.5t-118.5 -413.5l-139 -942q-29 -199 -66 -310.5t-92 -160.5t-132 -49q-77 -1 -110 25q-34 26 -30 59q7 67 75 67
q33 0 46.5 -16t22.5 -45t18.5 -41t33 -12t39.5 32q32 63 80 398l139 952q51 344 169 487.5t304 143.5q119 0 205 -55q41 31 53 92q0 6 8.5 6t13.5 -3t3 -5l-148 -805q160 88 271.5 88t165 -59.5t53.5 -159.5q0 -33 -6 -70q-29 -154 -112 -272.5t-187.5 -182t-188.5 -63.5
t-125 6l-67 -369q-6 -35 -6 -65q0 -60 73 -59q14 0 52 4q6 2 9 -10.5t-5 -14.5l-355 -53q-8 -2 -10 10t6 14q47 8 68.5 21.5t33 42.5t23.5 96l180 975q-98 -73 -102 -73.5t-8 8t0 12.5q78 66 117 94l125 682q-29 57 -80.5 97t-110.5 40z" />
    <glyph glyph-name="longs_longs.liga" unicode="&#x17f;&#x17f;" horiz-adv-x="983" 
d="M-34 -563q-77 0 -109.5 25.5t-29.5 58.5q6 67 75 67q33 0 46 -16t22 -45t18.5 -41t33.5 -12t40 32q33 64 79 398l140 952q74 512 446 512q90 0 166 -33q45 82 104.5 117t139.5 35t115.5 -31t32.5 -67q-6 -68 -64 -68q-37 0 -50.5 19.5t-18.5 52.5t-15.5 49t-36.5 16
q-72 0 -122 -134t-93 -425l-140 -942q-55 -378 -159 -471q-54 -49 -127.5 -49t-106.5 23.5t-33 56.5t20.5 52t52.5 19t46.5 -16t24.5 -45t19.5 -41t31 -12t37.5 32q31 62 80 398l139 952q33 236 80 377q-73 104 -174.5 104t-175.5 -113.5t-107 -324.5l-137 -942
q-29 -199 -65.5 -310.5t-92 -160.5t-132.5 -49z" />
    <glyph glyph-name="longs_longs_b.liga" unicode="&#x17f;&#x17f;b" horiz-adv-x="1939" 
d="M1774 561q0 164 -123 164q-84 0 -161 -65.5t-135.5 -184.5t-86.5 -272q-4 -12 -4 -35q0 -63 46 -103t119 -40t139 51t118.5 147t74.5 228q13 59 13 110zM1905 604q0 -39 -11 -90q-33 -166 -125 -289t-206.5 -187.5t-209.5 -64.5t-150.5 40t-55.5 110q0 10 4 35l221 1175
q-31 53 -81 88t-103 35q-109 0 -188.5 -143.5t-118.5 -413.5l-140 -942q-29 -199 -65.5 -310.5t-92 -160.5t-132.5 -49t-109.5 25.5t-29.5 58.5q6 67 75 67q33 0 46 -16t22.5 -45t18.5 -41t33 -12t40 32q32 63 80 398l139 952q33 217 94 361q-33 53 -81 86.5t-103 33.5
q-102 0 -176 -113.5t-107 -324.5l-137 -942q-29 -199 -65.5 -310.5t-92 -160.5t-132.5 -49t-109.5 25.5t-29.5 58.5q6 67 75 67q33 0 46 -16t22 -45t18.5 -41t33.5 -12t40 32q33 64 79 398l140 952q74 512 446 512q106 0 193 -45q117 164 319 164q119 0 199 -53q37 31 49 90
q2 6 14 5t10 -7l-198 -1073q70 164 185.5 266t236.5 102q80 0 125 -58.5t45 -154.5z" />
    <glyph glyph-name="longs_longs_h.liga" unicode="&#x17f;&#x17f;h" horiz-adv-x="1961" 
d="M1690 817q133 0 133 -155q0 -47 -13 -115l-67 -365q-6 -31 -6 -55q0 -63 39 -64q45 0 135 95q4 4 9 4t9 -7.5t0 -13.5q-140 -159 -224 -159q-44 0 -60.5 21.5t-16.5 73.5t10 105l62 326q10 53 10 108q0 121 -86 121q-66 0 -137.5 -84t-136 -244.5t-105.5 -379.5l-2 -15
q-6 -31 -59 -30.5t-54 12.5l9 47q12 49 22 109l221 1181q-31 53 -81 88t-103 35q-109 0 -188.5 -143.5t-118.5 -413.5l-139 -942q-29 -199 -66 -310.5t-92 -160.5t-132 -49q-77 -1 -110 25q-34 26 -30 59q7 67 75 67q33 0 46.5 -16t22.5 -45t18.5 -41t33 -12t39.5 32
q32 63 80 398l139 952q33 213 90 352q-33 57 -83 93t-107 36q-102 0 -176 -113.5t-107 -324.5l-137 -942q-29 -199 -65.5 -310.5t-92 -160.5t-132.5 -49t-109.5 25.5t-29.5 58.5q6 67 75 67q33 0 46 -16t22 -45t18.5 -41t33.5 -12t40 32q33 64 79 398l140 952
q74 512 446 512q115 0 201 -49q116 168 321 168q119 0 199 -53q37 31 49 90q2 6 14.5 5t10.5 -7l-211 -1143q74 205 172 321.5t207 116.5z" />
    <glyph glyph-name="longs_longs_i.liga" unicode="&#x17f;&#x17f;i" horiz-adv-x="1478" 
d="M1122 72q0 33 15 110l84 426q6 31 6 56q0 63 -41 63q-54 0 -142 -92q-2 -2 -7 -2t-10 7t1 11q137 158 236 158q39 0 56 -21.5t17 -67.5t-12 -108l-82 -430q-6 -33 -6 -59q0 -59 37 -60q49 0 139 91q4 4 8 4t9.5 -7.5t-0.5 -13.5q-139 -155 -234 -155q-74 0 -74 90z
M678.5 1337q-104.5 0 -178.5 -113.5t-107 -324.5l-137 -942q-29 -199 -65.5 -310.5t-92 -160.5t-132.5 -49t-109.5 25.5t-29.5 58.5q6 67 75 67q33 0 46 -16t22 -45t18.5 -41t33.5 -12t40 32q33 64 79 398l140 952q74 512 446 512q111 0 195 -47q117 166 307 166
q90 0 141 -34t51 -77q0 -80 -65 -80q-31 0 -45.5 17.5t-30.5 57.5t-35.5 62.5t-62.5 22.5q-105 0 -184.5 -142.5t-120.5 -414.5l-138 -942q-29 -199 -65.5 -310.5t-92 -160.5t-132.5 -49t-109.5 25.5t-29.5 58.5q6 67 75 67q33 0 46 -16t22.5 -45t18.5 -41t33 -12t40 32
q32 63 80 398l139 952q33 225 98 361q-79 120 -183.5 120z" />
    <glyph glyph-name="longs_longs_j.liga" unicode="&#x17f;&#x17f;j" horiz-adv-x="1472" 
d="M1386 716q0 -50 -10 -104l-119 -690q-33 -193 -69.5 -296t-90 -146t-127.5 -43q-75 1 -108 27q-34 26 -28 59q11 65 69 65q27 0 38 -17t19.5 -47t16.5 -43t33 -13t46 38q39 71 89 369l127 733q6 31 6 54q0 66 -41 65q-55 0 -139 -92q-2 -2 -8 -2t-10.5 7t-0.5 11
q137 158 238 158q37 0 53 -21.5t16 -71.5zM1202 1456q-111 0 -196.5 -142.5t-128.5 -414.5l-138 -942q-29 -199 -65.5 -310.5t-92 -160.5t-132.5 -49t-109.5 25.5t-29.5 58.5q6 67 75 67q33 0 46 -16t22.5 -45t18.5 -41t33 -12t40 32q32 63 80 398l139 952q33 213 100 356
q-33 55 -83 90t-105 35q-102 0 -176 -113.5t-107 -324.5l-137 -942q-29 -199 -65.5 -310.5t-92 -160.5t-132.5 -49t-109.5 25.5t-29.5 58.5q6 67 75 67q33 0 46 -16t22 -45t18.5 -41t33.5 -12t40 32q33 64 79 398l140 952q74 512 446 512q115 0 201 -49q123 168 321 168
q101 0 153 -39t44 -92q-12 -59 -66 -60q-31 0 -45 17.5t-29 57.5t-36 62.5t-68 22.5z" />
    <glyph glyph-name="longs_longs_k.liga" unicode="&#x17f;&#x17f;k" horiz-adv-x="1884" 
d="M1624 756q-104 0 -188 -92.5t-119 -243.5l-2 -12q184 43 274.5 103t96.5 175q0 33 -16.5 51.5t-45.5 18.5zM1249 1487q119 0 199 -53q37 31 49 90q2 6 14.5 5t10.5 -7l-166 -889q76 86 169 135t171.5 49t104.5 -29.5t26 -57t-2 -36.5q-14 -74 -106.5 -144.5
t-245.5 -125.5l137 -236q41 -70 69.5 -94t61.5 -24q53 0 137 84q2 2 8 2t10.5 -7.5t-2.5 -11.5q-135 -156 -215 -155q-47 0 -81.5 29.5t-81.5 107.5l-119 207q-31 53 -54.5 53t-31.5 -2h-2l-66 -363q-6 -31 -59 -30.5t-54 12.5l9 47q12 49 22 109l221 1181q-31 53 -81 88
t-103 35q-109 0 -188.5 -143.5t-118.5 -413.5l-139 -942q-29 -199 -66 -310.5t-92 -160.5t-132 -49q-77 -1 -110 25q-34 26 -30 59q7 67 75 67q33 0 46.5 -16t22.5 -45t18.5 -41t33 -12t39.5 32q32 63 80 398l139 952q33 213 90 352q-33 57 -83 93t-107 36
q-102 0 -176 -113.5t-107 -324.5l-137 -942q-29 -199 -65.5 -310.5t-92 -160.5t-132.5 -49t-109.5 25.5t-29.5 58.5q6 67 75 67q33 0 46 -16t22 -45t18.5 -41t33.5 -12t40 32q33 64 79 398l140 952q74 512 446 512q115 0 201 -49q116 168 321 168z" />
    <glyph glyph-name="longs_longs_l.liga" unicode="&#x17f;&#x17f;l" horiz-adv-x="1527" 
d="M1249 1487q119 0 199 -53q37 31 49 90q2 6 14.5 5t10.5 -7l-248 -1340q-6 -33 -6 -55q0 -63 39 -64q41 0 135 95q4 4 8 4t9 -7.5t-1 -13.5q-72 -82 -126 -120.5t-105 -38.5q-72 0 -72 92q0 45 12 108l215 1151q-31 53 -81 88t-103 35q-109 0 -188.5 -143.5t-118.5 -413.5
l-139 -942q-29 -199 -66 -310.5t-92 -160.5t-132 -49q-77 -1 -110 25q-34 26 -30 59q7 67 75 67q33 0 46.5 -16t22.5 -45t18.5 -41t33 -12t39.5 32q32 63 80 398l139 952q33 213 90 352q-33 57 -83 93t-107 36q-102 0 -176 -113.5t-107 -324.5l-137 -942
q-29 -199 -65.5 -310.5t-92 -160.5t-132.5 -49t-109.5 25.5t-29.5 58.5q6 67 75 67q33 0 46 -16t22 -45t18.5 -41t33.5 -12t40 32q33 64 79 398l140 952q74 512 446 512q115 0 201 -49q116 168 321 168z" />
    <glyph glyph-name="longs_longs_thorn.liga" unicode="&#x17f;&#x17f;&#xfe;" horiz-adv-x="1910" 
d="M1745 526q0 92 -40 148.5t-126 56.5t-203 -61l-106 -580q74 -35 160 -35q131 0 203.5 101.5t105.5 294.5q6 40 6 75zM1249 1487q119 0 205 -55q41 31 53 92q0 6 8.5 6t13.5 -3t3 -5l-148 -805q160 88 271.5 88t165 -59.5t53.5 -159.5q0 -33 -6 -70q-29 -154 -112 -272.5
t-187.5 -182t-188.5 -63.5t-125 6l-67 -369q-6 -35 -6 -65q0 -60 73 -59q14 0 52 4q6 2 9 -10.5t-5 -14.5l-355 -53q-8 -2 -10 10t6 14q47 8 68.5 21.5t33 42.5t23.5 96l180 975q-98 -73 -102 -73.5t-8 8t0 12.5q78 66 117 94l125 682q-29 57 -80.5 97t-110.5 40
q-109 0 -188.5 -143.5t-118.5 -413.5l-139 -942q-29 -199 -66 -310.5t-92 -160.5t-132 -49q-77 -1 -110 25q-34 26 -30 59q7 67 75 67q33 0 46.5 -16t22.5 -45t18.5 -41t33 -12t39.5 32q32 63 80 398l139 952q33 213 90 352q-33 57 -83 93t-107 36q-102 0 -176 -113.5
t-107 -324.5l-137 -942q-29 -199 -65.5 -310.5t-92 -160.5t-132.5 -49t-109.5 25.5t-29.5 58.5q6 67 75 67q33 0 46 -16t22 -45t18.5 -41t33.5 -12t40 32q33 64 79 398l140 952q74 512 446 512q115 0 201 -49q116 168 321 168z" />
    <glyph glyph-name="Aogonek_acutecomb.liga" unicode="&#x104;&#x301;" horiz-adv-x="1228" 
d="M788 719l-61 393l-211 -393h272zM-78 12.5q0 12.5 8 12.5q61 0 134 52t141 177l577 1046q4 6 18.5 6.5t18.5 -10.5l176 -1103q12 -72 28.5 -107t46.5 -48t85 -13q6 0 6 -12.5t-6 -12.5l-141 2q-94 0 -169 -43t-118 -116.5t-43 -159t45 -134.5t117.5 -49t116.5 31h2
q6 0 9 -6t-1 -10q-93 -78 -189 -78t-147 44t-51 139.5t49 169t114.5 143t95 114.5t29.5 79.5t-2 45.5l-77 504h-303l-218 -406q-68 -125 -67.5 -171t31 -60t96.5 -14q6 0 6 -12.5t-8 -12.5l-213 8l-189 -8q-8 0 -8 12.5zM690 1389q-8 0 -10 9t4 13q76 37 186.5 105.5
t147.5 89.5q8 6 48 -7.5t69.5 -30t13.5 -20.5q-215 -53 -455 -157z" />
    <glyph glyph-name="Eogonek_acutecomb.liga" unicode="&#x118;&#x301;" horiz-adv-x="1052" 
d="M697 -502q60 0 122 53h2q6 0 12.5 -7t0.5 -11q-104 -96 -193.5 -96t-131.5 43t-42 129t81 187.5t195 203.5h-710q-4 0 -4 12.5t4 12.5q66 0 98.5 10t48 39.5t27.5 91.5l168 948q6 41 6 76t-26.5 50t-102.5 15q-6 0 -6 12.5t6 12.5h784q17 0 13 -18l-19 -125
q-10 -78 -20 -131q0 -6 -8.5 -6.5t-13.5 3t-3 12.5t2 38q0 90 -42 142t-116 52h-167q-66 0 -98 -10t-47 -38t-25 -87l-74 -426h287q82 0 119.5 33t52.5 112q2 10 14 9.5t10 -11.5l-31 -163l-12 -78q-2 -12 -16 -113q-2 -8 -14.5 -7t-10.5 9q6 35 6 76q0 92 -133 92h-280
l-82 -471q-8 -53 -9 -63q0 -43 28 -58.5t102 -15.5h223q78 0 150.5 74.5t115.5 195.5q0 2 13 2t12 -8q-31 -92 -50.5 -190t-25.5 -104.5t-23 -6.5h-84q-86 -82 -145.5 -165t-63.5 -193q0 -68 33 -106t93 -38zM575 1389q-8 0 -10 9t4 13q76 37 187 105.5t147 89.5
q8 6 48 -7.5t70 -30t13 -20.5q-218 -53 -454 -157z" />
    <glyph glyph-name="IJ_acutecomb.liga" unicode="&#x132;&#x301;" horiz-adv-x="1267" 
d="M197 241q-1 113 81 111q38 0 52 -29q12 -30 15 -111t47 -144t177 -64q309 0 379 406l123 704q8 49 8 64q0 47 -33 62q-34 15 -126 15q-8 1 -8 13t8 12l108 -2q82 -4 130 -4t122 4l80 2q8 0 8 -12t-8 -13q-59 0 -90 -12t-46 -42t-28 -91l-100 -582q-44 -264 -186 -409
t-332 -146q-113 0 -200 41t-134 106t-47 121zM100 563q0 12 9 12q71 1 103 11t48 39t29 92l69 397q6 37 6 74t-28 52q-29 15 -109 15q-8 1 -8 13t8 12l95 -2q82 -4 131 -4t131 4l84 2q10 0 10 -12t-10 -13q-70 0 -105 -12t-51 -42t-27 -91l-69 -393q-8 -35 -8 -74t30 -53
t109 -15q6 0 6 -12t-6 -12q-57 0 -90 2l-131 2l-127 -2q-33 -2 -90 -2q-9 0 -9 12zM979 1389q-8 0 -10 9t4 13q77 37 187 105t147 90q8 6 48 -8q39 -14 69 -29q30 -16 14 -21q-215 -53 -455 -157zM260 1389q-8 0 -10 9t4 13q76 37 186 105t148 90q8 6 48 -8t70 -29
q30 -16 13 -21q-215 -53 -455 -157z" />
    <glyph glyph-name="Iogonek_acutecomb.liga" unicode="&#x12e;&#x301;" horiz-adv-x="630" 
d="M14 -412q0 182 222 416l-113 -2q-31 -2 -82 -2q-6 0 -6 12.5t6 12.5q66 0 98.5 10t48 39.5t27.5 91.5l168 948q6 37 6 74t-27.5 52t-105.5 15q-4 0 -4 12.5t4 12.5l86 -2q74 -4 125 -4t129 4l80 2q4 0 4 -12.5t-4 -12.5q-66 0 -97.5 -12t-48 -42t-28.5 -91l-168 -944
q-6 -39 -6 -75t27.5 -51t105.5 -15q4 0 4 -12.5t-4 -12.5q-51 0 -80 2l-115 2q-147 -180 -147 -371q0 -61 25.5 -97t74 -36t107.5 49h4q6 0 12 -6t0 -10q-100 -96 -177 -96t-114 41t-37 110zM358 1389q-8 0 -10 9t4 13q76 37 186.5 105.5t147.5 89.5q8 6 48 -7.5t70 -30
t13 -20.5q-215 -53 -455 -157z" />
    <glyph glyph-name="J_acutecomb.liga" unicode="J&#x301;" horiz-adv-x="575" 
d="M-43 -395q-4 0 -9 9t-1 13q92 55 146 167t87 288l182 1032q6 37 6 74t-27.5 52t-104.5 15q-4 0 -4.5 12.5t4.5 12.5l86 -2q74 -4 124 -4t127 4l82 2q4 0 4 -12.5t-4 -12.5q-66 0 -97.5 -12t-47.5 -42t-29 -91l-172 -973q-29 -162 -70.5 -260t-107 -160.5t-172.5 -111.5
h-2zM244 1389q-8 0 -11.5 9t3.5 13q76 37 186 105t147 90q8 4 48 -9.5t70 -30t13 -18.5q-242 -61 -454 -159h-2z" />
    <glyph glyph-name="uni01EA0301.liga" unicode="&#x1ea;&#x301;" horiz-adv-x="1333" 
d="M1169 759q0 126 -50 243.5t-143 184t-220 66.5q-182 0 -310 -135q-188 -200 -188 -588q0 -122 48 -242t141.5 -189.5t222.5 -69.5q176 0 303 131t176 372q20 101 20 227zM677.5 -502q59.5 0 123.5 53h2q6 0 12 -7t0 -11q-104 -96 -193.5 -96t-131 43t-41.5 128
q0 145 266 382q-78 -14 -133 -15q-141 0 -243.5 67t-157 183.5t-54.5 263.5q-1 273 149 493q102 151 250 236t303.5 85t259 -67t157.5 -182.5t54 -260.5q0 -80 -14 -152q-41 -233 -184.5 -404t-335.5 -233q-213 -199 -213 -362q0 -68 32.5 -106t92 -38zM717 1389q-8 0 -10 9
t4 13q76 37 186.5 105.5t146.5 89.5q8 6 48.5 -7.5t70 -30t13.5 -20.5q-215 -53 -455 -157z" />
    <glyph glyph-name="aogonek_acutecomb.liga" unicode="&#x105;&#x301;" horiz-adv-x="890" 
d="M639 632q0 41 -32 77t-98.5 36t-142 -61t-132 -167.5t-74.5 -235.5q-8 -43 -8 -84q0 -123 88 -123q74 0 156.5 75.5t162.5 217t80 265.5zM573.5 817q96.5 0 143.5 -57q41 37 49 74q2 4 9 4t12.5 -3.5t3.5 -5.5l-121 -647q-4 -20 -4 -53q0 -66 40 -66t134 95l4 2
q6 0 11 -7.5t1 -11.5l-88 -86q-127 -125 -198.5 -213.5t-71.5 -199.5q0 -61 31.5 -100.5t83 -39.5t77 14.5t55.5 41.5h3q6 0 12 -7.5t0 -13.5q-104 -100 -207 -100q-74 0 -117 45t-43 112q0 158 258 390q-8 -2 -24 -2q-72 0 -72 96q0 33 10 104l35 205q-94 -186 -212 -300
t-224 -114q-125 0 -125 154q0 14 4 59q20 145 108.5 293t207 243t215 95zM854.5 1497q23.5 0 22.5 -8l-302 -520q-2 -6 -13 -2t-7 8l190 491q4 10 45 20.5t64.5 10.5z" />
    <glyph glyph-name="eogonek_acutecomb.liga" unicode="&#x119;&#x301;" horiz-adv-x="712" 
d="M441.5 762q-93.5 0 -157 -83t-87.5 -214q299 57 333 199q4 20 5 30q0 68 -93.5 68zM535 817q137 0 137 -99q0 -52 -66 -112q-134 -123 -416 -170q-10 -66 -10 -112q0 -127 56.5 -203t154.5 -76t174 43l33 25l2 -2l2 2h2q6 0 11.5 -6.5t1 -10.5t-51.5 -39
q-150 -127 -223.5 -222.5t-73.5 -201.5q0 -59 31 -94t91.5 -35t123.5 54h2q6 0 12.5 -7.5t1.5 -11.5q-106 -102 -208 -102q-72 0 -115 40t-43 125q0 162 282 394q-61 -20 -127 -21q-131 0 -197 83q-67 82 -67 232q-1 150 97 294q68 102 170 167.5t213 65.5zM707.5 1497
q23.5 0 21.5 -8l-301 -520q-2 -6 -13.5 -2t-6.5 8l190 491q4 10 45 20.5t64.5 10.5z" />
    <glyph glyph-name="ij_acutecomb.liga" unicode="&#x133;&#x301;" horiz-adv-x="890" 
d="M576.5 1497q23.5 0 21.5 -8l-301 -520q-2 -6 -13.5 -2t-7.5 8l191 491q4 10 45 20.5t64.5 10.5zM1004.5 1497q23.5 0 21.5 -8l-301 -520q-2 -6 -13.5 -2t-6.5 8l190 491q4 10 45 20.5t64.5 10.5zM266 -27q-133 1 -133 139q0 66 14 132l74 364q6 31 6 54q0 66 -41 65.5
t-135 -94.5q-4 -4 -8 -4t-9 7t1 13q72 82 126 121t105 39q72 0 72 -92q0 -45 -14 -109l-66 -325q-14 -76 -14 -111q0 -119 90 -119q68 0 140.5 87t136 251t104.5 387q5 29 58.5 29t53.5 -12l-8 -43q-12 -43 -22 -113l-144 -782q-37 -205 -141 -318.5t-276 -113.5
q-90 0 -147.5 38.5t-57.5 92t23.5 72t46 18.5t33.5 -15.5t31 -59.5t50.5 -73.5t104 -29.5t132 73.5t91.5 265.5l110 623q-76 -215 -176 -336t-211 -121z" />
    <glyph glyph-name="iogonek_acutecomb.liga" unicode="&#x12f;&#x301;" horiz-adv-x="507" 
d="M450 160q5 0 9 -7.5t0 -11.5l-90 -90q-123 -119 -192.5 -206.5t-74.5 -204.5q0 -61 32 -99.5t79 -38.5t70.5 11.5t46.5 29.5l4 2q6 0 10 -8t0 -12q-96 -88 -178 -88t-125 45q-43 44 -43 122q0 149 258 382q-16 -4 -41 -4q-57 0 -57 94q0 53 10 106l80 426q6 31 6 54
q0 66 -41 65q-53 0 -141 -92q-2 -2 -7 -2t-10.5 7t0.5 11q137 158 238 158q37 0 53 -21.5t16 -71.5t-10 -104l-78 -430q-6 -31 -6 -55q0 -63 39 -64q45 0 135 95q3 2 8 2zM475 1497q22 0 21 -8l-209 -518q-2 -6 -12.5 -3t-8.5 7l105 491q2 9 42 20t62 11z" />
    <glyph glyph-name="j_acutecomb.liga" unicode="j&#x301;" horiz-adv-x="491" 
d="M-104.5 -412q26.5 0 38 -17t19.5 -47t16 -43t33 -13q24 0 46 38q40 72 89 369l127 733q6 31 6 54q0 66 -41 65q-55 0 -139 -92q-2 -2 -8 -2t-10 7t0 11q137 158 237 158q37 0 53.5 -21.5t16.5 -71.5t-10 -104l-119 -690q-33 -193 -70 -296t-90 -146t-128 -43t-107.5 26.5
t-27.5 60.5t23.5 49t45 15zM603 1497q23 0 22 -8l-301 -520q-2 -6 -13.5 -2t-7.5 8l191 491q4 10 45 20.5t64 10.5z" />
    <glyph glyph-name="uni01EB0301.liga" unicode="&#x1eb;&#x301;" horiz-adv-x="817" 
d="M647 424q0 141 -54 242.5t-148.5 101.5t-165 -77t-97.5 -208q-12 -57 -12 -121q0 -139 58.5 -239t151.5 -100q92 -1 162 75q104 114 105 326zM246 -339q0 -163 124 -163q59 0 124 53h2q6 0 12 -7t0 -11q-104 -96 -193.5 -96t-131.5 43t-42 117q0 154 256 385
q-45 -10 -82 -11q-121 0 -189.5 86t-68.5 245.5t97 307.5q135 206 359 207q114 0 182.5 -85t68.5 -220q0 -57 -12 -117q-29 -143 -110 -246.5t-187 -148.5q-86 -82 -147.5 -167t-61.5 -172zM773 1497q23 0 22 -8l-301 -520q-2 -6 -13.5 -2t-7.5 8l191 491q4 10 45 20.5
t64 10.5z" />
    <glyph glyph-name=".notdef" horiz-adv-x="921" 
d="M469 -422l12 68h-186l143 96h60l12 70h-303l-12 -70h129l-146 -96l-12 -68h303zM301 23h188l-18 -99h-186zM520 -143l41 231h-307l-41 -231h307zM582 211l41 231h-185l-20 -114h61l10 49h62l-16 -98h-187l29 163h-62l-39 -231h306zM631 489l35 203h-60l-24 -133h-244
l-12 -70h305zM528 604l25 144h123l12 67h-305l-12 -67h121l-13 -74h-123l-12 -70h184zM477 1014h62l-15 -72h-59zM700 872l11 70h-123l24 141h-184l-35 -211h307zM745 1139l13 65h-123l12 78h125l10 66h-303l-12 -66h117l-11 -78h-122l-13 -65h307zM365 1485h583l-360 -2048
h-586z" />
    <glyph glyph-name=".null" horiz-adv-x="0" 
 />
    <glyph glyph-name="nonmarkingreturn" horiz-adv-x="681" 
 />
    <glyph glyph-name="space" unicode=" " horiz-adv-x="479" 
 />
    <glyph glyph-name="exclam" unicode="!" horiz-adv-x="448" 
d="M190.5 150q63.5 0 63.5 -62.5t-22.5 -85t-63.5 -22.5t-64.5 22.5t-23.5 62.5t23.5 62.5t87 22.5zM381 1296q31 0 58.5 -8t25.5 -16q-88 -258 -234 -881q-2 -10 -13 -9t-9 11q76 581 86 879q0 8 27.5 16t58.5 8z" />
    <glyph glyph-name="quotedbl" unicode="&#x22;" horiz-adv-x="653" 
d="M264 1247q2 19 42 37t80 24t36 -3l-223 -680q-3 -4 -13 -5t-10 3zM561 1247q2 19 42 37t80 24t36 -3l-223 -680q-2 -4 -12 -5t-11 3z" />
    <glyph glyph-name="numbersign" unicode="#" horiz-adv-x="890" 
d="M623 563h-242l-111 -325h242zM193 563q-9 0 -9 40t9 40h147l115 346q0 4 11 4t31.5 -9t18.5 -17l-108 -324h241l115 346q0 4 11 4t30.5 -9t17.5 -17l-108 -324h127q4 0 4 -40t-8 -40h-150l-110 -325h127q6 0 6 -41t-9 -41h-151l-109 -324q0 -4 -12 -4t-30.5 7t-16.5 13
l102 308h-241l-109 -324q0 -4 -12 -4t-31.5 7t-17.5 13l102 308h-121q-8 0 -8 41t8 41h148l110 325h-120z" />
    <glyph glyph-name="dollar" unicode="$" horiz-adv-x="768" 
d="M532 249q0 85 -118 173l-74 -414q66 4 129 56.5t63 184.5zM287 730q0 -78 112 -157l68 379q-70 -2 -125 -57t-55 -165zM673 711q-11 0 -11 16q0 72 -43.5 138.5t-112.5 82.5l-72 -399l29 -19q90 -57 138 -108t48 -130t-40 -146.5t-111.5 -112.5t-163.5 -56l-33 -188
q0 -12 -13 -12t-20.5 5t-5.5 13l33 180h-6q-123 0 -207 74q-16 9 -12 41l16 201q0 10 10 9t10 -11q4 -104 58.5 -184t136.5 -95l76 439l-19 12q-86 55 -132 106t-46 129q0 123 86 199t205 86l31 172q4 12 16 12t18.5 -5t4.5 -13l-29 -164q86 -4 166 -49q16 -10 21.5 -15.5
t2.5 -19.5l-18 -180q0 -8 -11 -8z" />
    <glyph glyph-name="percent" unicode="%" horiz-adv-x="1062" 
d="M641 158q0 -141 94 -142q60 0 101.5 79.5t44.5 254.5q0 141 -86 142q-61 0 -93 -60.5t-46 -145.5t-15 -128zM537 192q0 88 36.5 161t100 118t140.5 45t125 -56.5t48 -146.5q0 -148 -87 -235.5t-175 -87.5t-138 57t-50 145zM481 979q0 143 -86 143q-61 0 -93 -60.5
t-46 -147.5t-14 -128q0 -141 94 -141q59 0 102 81t43 253zM123 -12q-8 0 -24.5 10t-12.5 16l881 1112q0 2 7 2t21.5 -12t10.5 -16l-879 -1112h-4zM137 822q0 87 38 161t101.5 119t140.5 45t124 -57.5t47 -147.5q0 -146 -87 -233.5t-176 -87.5t-138.5 57t-49.5 144z" />
    <glyph glyph-name="ampersand" unicode="&#x26;" horiz-adv-x="1538" 
d="M506 897q-80 0 -142.5 -74.5t-87.5 -187.5q-10 -66 -10 -100t4 -74q33 27 162 126t242 201q-52 109 -168 109zM821 1298q0 66 74 66q37 0 65.5 -40t28.5 -107q0 -113 -84 -231t-218.5 -233.5t-412.5 -324.5q20 -111 83 -196t153 -131t188 -46q184 0 309.5 131t151.5 377
l-47 25q-160 82 -225 82q-66 0 -66 -43q0 -27 19 -56q16 -33 16 -52t-13.5 -34.5t-53 -16t-39.5 59.5t33.5 109t89 78.5t108.5 29.5t107.5 -21.5t130 -60t120.5 -56t95 -17.5t49 37q0 26 -21 47q-25 33 -24 59q0 45 52 45t52 -57t-27.5 -105.5t-75 -79t-99.5 -30.5t-148 41
q-37 -279 -187.5 -425.5t-373.5 -146.5q-139 0 -250 68t-171 179.5t-60 242.5q0 47 10 104q25 109 95.5 197t164.5 137t192 49t168 -57q121 137 121 240q0 63 -47 100q-33 33 -33 63z" />
    <glyph glyph-name="quotesingle" unicode="'" horiz-adv-x="266" 
d="M221 1247q2 18 42 37t80 25t36 -4l-223 -680q-2 -4 -12.5 -5.5t-10.5 3.5z" />
    <glyph glyph-name="parenleft" unicode="(" horiz-adv-x="575" 
d="M141 365q0 123 25 258q49 289 192.5 520t343.5 342h3q6 0 10 -6t0 -11q-320 -283 -418 -845q-31 -172 -31 -322q0 -315 146 -524v-4q0 -6 -5.5 -10.5t-9.5 -2.5q-125 84 -190.5 242t-65.5 363z" />
    <glyph glyph-name="parenright" unicode=")" horiz-adv-x="575" 
d="M516 881q0 -123 -24 -258q-49 -289 -192.5 -520.5t-344.5 -342.5h-2q-6 0 -10 6.5t0 10.5q319 282 417 846q31 172 31 321q0 315 -145 524v5q0 6 5 10t9 2q125 -84 190.5 -242t65.5 -362z" />
    <glyph glyph-name="asterisk" unicode="*" horiz-adv-x="917" 
d="M559 987q0 4 7 9t9 1l156 -213q10 -14 -11.5 -52t-51 -68.5t-31.5 -18.5l-78 340v2zM336 770q-22 0 -57 11.5t-58.5 25.5t-17.5 20l299 179q2 2 6 2t9 -6.5t3 -8.5l-155 -213q-7 -10 -29 -10zM596 1030q-4 0 -7 9.5t1 11.5l252 82q16 6 46 -27t49 -70t7 -37zM223 1192
q0 119 19 104l264 -229q2 -2 2 -7t-3 -10.5t-7 -2.5l-250 79q-25 8 -25 66zM543 1348q0 18 40 36.5t82 24.5t37 -4l-137 -322q-2 -6 -11 -6t-11 6v265z" />
    <glyph glyph-name="plus" unicode="+" horiz-adv-x="815" 
d="M745 428q11 0 11 -40t-11 -40h-296v-297q1 -10 -41 -10t-41 6v301h-297q-11 0 -11 40t9 40h299v297q0 10 41 10t41 -10v-297h296z" />
    <glyph glyph-name="comma" unicode="," horiz-adv-x="460" 
d="M258 14q0 -176 -225 -340q-2 -2 -7 -2t-9.5 8.5t1.5 12.5q167 126 175 270q0 25 -7 41q-18 -20 -56 -20t-58.5 23t-20.5 59t25.5 58.5t73.5 22.5t78 -35.5t30 -97.5z" />
    <glyph glyph-name="hyphen" unicode="-" horiz-adv-x="624" 
d="M55 385q0 47 6 47l510 96q11 6 11 -42t-9 -48l-507 -96q-11 -4 -11 43z" />
    <glyph glyph-name="period" unicode="." horiz-adv-x="405" 
d="M161.5 150q63.5 0 63.5 -62.5t-22.5 -85t-63.5 -22.5t-64.5 22.5t-23.5 62.5t23.5 62.5t87 22.5z" />
    <glyph glyph-name="slash" unicode="/" horiz-adv-x="624" 
d="M718 1503q12 0 33 -12t15 -21l-782 -1812q-4 -10 -38 2t-30 23l786 1814q4 6 16 6z" />
    <glyph glyph-name="zero" unicode="0" horiz-adv-x="899" 
d="M494 788q-100 0 -181.5 -103t-109.5 -267q-10 -68 -10 -119q0 -135 55.5 -216t161.5 -81t181 100.5t101 268.5q12 74 13 135q0 137 -55.5 209.5t-155.5 72.5zM544 817q124 0 209 -89t85 -249t-81 -278.5t-177.5 -173t-202.5 -54.5q-144 0 -230 91.5t-86 254.5
t119.5 330.5t363.5 167.5z" />
    <glyph glyph-name="one" unicode="1" horiz-adv-x="595" 
d="M313 645q0 43 -30 43q-44 0 -150 -53q-8 0 -10 10t4 14l311 152q4 4 10.5 0t4.5 -10l-113 -635q-8 -49 -8 -62q0 -47 34.5 -63t129.5 -16q8 0 8 -12.5t-8 -12.5q-61 0 -97 2l-135 2l-137 -2q-35 -2 -98 -2q-9 0 -9 12.5t9 12.5q76 0 114.5 10t57 39.5t30.5 91.5l70 387
q12 78 12 92z" />
    <glyph glyph-name="two" unicode="2" horiz-adv-x="743" 
d="M532 620q0 72 -35.5 112t-97.5 40q-139 0 -247 -246q-2 -6 -8.5 -6t-12.5 5t-4 10l119 305q2 2 7 2t10 -3t1 -15t-4 -25q0 -23 20 -23t80 21q62 21 130 21t113.5 -43.5t45.5 -122.5t-49 -153.5t-141 -154.5t-293 -235q-27 -9 87 -9t199 8.5t125.5 36t65.5 93.5q4 6 9 6
t10.5 -4t3.5 -9l-66 -213q-4 -18 -18 -18h-562q-10 0 -14 10t4 21q197 151 306.5 250.5t162.5 183t53 155.5z" />
    <glyph glyph-name="three" unicode="3" horiz-adv-x="700" 
d="M575 37q0 -132 -134.5 -313t-499.5 -289q-8 -2 -12.5 9t1.5 15q238 76 374 236.5t136 341.5q0 82 -41 133t-127 51q-33 0 -90 -14h-2q-6 0 -10 13t2 16q152 39 227.5 114.5t98.5 206.5q6 37 6 72q0 143 -125 143q-163 0 -270 -244q-3 -4 -9 -4t-12 4t-4 9l121 297
q2 2 7 2t11 -4.5t1 -14.5t-5 -24q0 -20 25 -21q12 0 80 22t118 23q90 0 136.5 -53.5t46.5 -147.5t-71 -196.5t-181 -151.5q102 -12 152 -75.5t50 -155.5z" />
    <glyph glyph-name="four" unicode="4" horiz-adv-x="866" 
d="M162 86q88 0 313 4l96 539l-495 -529q-6 -6 -4 -10t90 -4zM-23 18q-8 0 -12 8.5t4 16.5l715 772q4 4 10 4t12.5 -4t4.5 -10l-125 -711q49 0 155 4q7 0 -1.5 -47t-16.5 -47q-49 4 -152 8l-59 -336q-2 -20 -18 -28l-84 -33l-13 -4q-6 0 -4 16l70 387q-129 4 -486 4z" />
    <glyph glyph-name="five" unicode="5" horiz-adv-x="765" 
d="M726 870q5 0 10 -4t3 -8l-63 -141q-12 -25 -23.5 -31t-36.5 -6l-354 -10q-20 0 -33 -29l-79 -240q227 -2 333.5 -81.5t106.5 -223.5q0 -214 -165 -364t-472 -295h-2q-8 0 -12.5 9t4.5 13q250 125 382 270t132 334q0 131 -88 205t-258 74q-8 0 -12.5 7t-0.5 18l123 364
q4 14 7.5 17.5t131.5 19.5t209.5 28.5t107 26t40.5 43.5q4 4 9 4z" />
    <glyph glyph-name="six" unicode="6" horiz-adv-x="860" 
d="M74 295q0 66 14 131q35 190 146.5 374.5t285.5 330t387 223.5q8 2 11.5 -9.5t-3.5 -15.5q-190 -88 -337.5 -229.5t-238.5 -307t-120 -329.5q-14 -66 -14 -137q0 -141 65.5 -227.5t182.5 -86.5q78 0 141.5 68.5t67.5 241.5q0 92 -38 146t-117 54t-190 -90q-2 -2 -7 -2
t-9 6t-2 10q121 131 281 132q109 0 162 -63.5t53 -173.5t-103.5 -239t-298.5 -129q-149 0 -234 83t-85 239z" />
    <glyph glyph-name="seven" unicode="7" horiz-adv-x="792" 
d="M696 692q-272 0 -380.5 -9t-147.5 -35.5t-72 -96.5q0 -4 -7 -4t-13 3t-4 7l114 293q0 4 6.5 4t13.5 -4t3 -14t-4 -22q0 -22 82 -23h489q8 0 12.5 -9.5t-0.5 -17.5l-618 -1215q-18 -35 -47 -49l-123 -63q-4 -2 -8 4t-2 10l712 1227q9 14 -6 14z" />
    <glyph glyph-name="eight" unicode="8" horiz-adv-x="901" 
d="M713 338q0 84 -39 145.5t-85 96t-147 100.5q-206 -105 -243 -322q-6 -33 -6 -65q0 -119 69.5 -201t175.5 -82t190.5 84.5t84.5 243.5zM715 963q0 76 -43 128t-115 52t-118 -51.5t-46 -131.5t48 -131t143 -112q131 108 131 246zM418 696q-139 88 -139 192t83.5 196
t235.5 92q72 0 150.5 -45.5t78.5 -155.5q0 -66 -61 -138.5t-164 -134.5q78 -51 157 -118t79 -193q0 -31 -7 -61q-18 -102 -83.5 -183t-159.5 -127.5t-194 -46.5t-176.5 38t-116.5 101.5t-40 141.5q0 135 109 257t248 185z" />
    <glyph glyph-name="nine" unicode="9" horiz-adv-x="860" 
d="M655 451q0 141 -64.5 234t-180.5 93q-78 0 -131.5 -49t-71.5 -151q-8 -35 -8 -78q0 -98 48 -165t125 -67t171 90q2 2 7 2t10 -5t3 -9q-111 -133 -258 -133q-113 0 -175 77t-62 174t55 177t147 128t199 48q147 0 230 -91t83 -247q0 -231 -134 -452.5t-308 -366.5
t-387 -223q-8 -2 -11 10t5 14q188 88 333.5 230.5t260 351.5t114.5 408z" />
    <glyph glyph-name="colon" unicode=":" horiz-adv-x="405" 
d="M51 65q0 41 24 63q25 22 65 22t63 -22t23 -62t-24 -64q-22 -23 -62 -23t-65 23q-24 23 -24 63zM127 640q0 40 24 62q25 22 65 23q40 0 63 -22q23 -23 23 -63t-24 -62q-22 -22 -62 -23q-40 0 -65 23q-24 22 -24 62z" />
    <glyph glyph-name="semicolon" unicode=";" horiz-adv-x="454" 
d="M258 14q0 -176 -225 -340q-2 -2 -7 -2q-6 0 -10 8t2 13q167 126 175 270q0 25 -7 41q-18 -20 -56 -20t-58 22t-20 60q0 36 25 59t73 23t78 -36t30 -98zM127 640q0 40 24 62q25 22 65 23q40 0 63 -22q23 -23 23 -63t-24 -62q-22 -22 -62 -23q-40 0 -65 23q-24 22 -24 62z
" />
    <glyph glyph-name="less" unicode="&#x3c;" horiz-adv-x="833" 
d="M772 86q0 -41 -14 -35l-684 303q-10 6 -10 36t10 34l684 301q14 9 14 -32q0 -42 -14 -50l-596 -254l596 -254q14 -6 14 -49z" />
    <glyph glyph-name="equal" unicode="=" horiz-adv-x="958" 
d="M70 205q-11 0 -11 40t9 40h821q10 0 10 -40t-10 -40h-819zM70 492q-11 0 -11 40t9 39h821q10 0 10 -39.5t-10 -39.5h-819z" />
    <glyph glyph-name="greater" unicode="&#x3e;" horiz-adv-x="833" 
d="M770 388q0 -30 -10 -36l-684 -301q-6 -2 -10.5 7.5t-4.5 39.5t15 35l596 254l-596 254q-15 5 -15 49.5t15 34.5l684 -303q10 -4 10 -34z" />
    <glyph glyph-name="question" unicode="?" horiz-adv-x="604" 
d="M266.5 150q63.5 0 63.5 -62.5t-22.5 -85t-63.5 -22.5t-64.5 22.5t-23.5 62.5t23.5 62.5t87 22.5zM256 534q0 66 7 114t42 91t101 97t112.5 111.5t46.5 143.5q0 160 -127 160q-53 0 -75.5 -24.5t-34.5 -65.5t-30.5 -65.5t-50.5 -24.5t-47.5 16.5t-15.5 40.5q0 63 82 107.5
t188.5 44.5t169 -50t62.5 -151t-55.5 -168t-98.5 -103t-55 -46q-84 -68 -132 -143.5t-40 -227.5q0 -8 -11 -9t-13 7q-25 79 -25 145z" />
    <glyph glyph-name="at" unicode="@" horiz-adv-x="1472" 
d="M901 602q0 24 -22.5 51t-68.5 27t-102.5 -48t-110.5 -147.5t-54 -222.5q0 -82 55 -82t117.5 56.5t113 143t61.5 142.5t11 80zM842 210q0 42 6 73l20 104q-72 -129 -159.5 -208t-165.5 -79q-47 0 -76 30t-29 75q0 139 77 262t168 192.5t165 69.5t104 -43q31 27 37 57
q-1 2 19 2t16 -6l-84 -458q-6 -33 -6 -65q0 -71 76 -71q55 0 111.5 40t93 116.5t36.5 194.5t-66.5 228t-181.5 174.5t-265 64.5t-265 -74t-174 -201.5t-59 -285.5t70.5 -281t198.5 -190.5t294 -67.5q98 0 172 20.5t170 75.5h2q6 0 10 -7t-2 -9q-174 -141 -416 -142
q-166 0 -300 66.5t-211.5 192.5t-77.5 306t92 330t243.5 233t315.5 83t281.5 -63.5t181 -171t63.5 -228.5t-51 -221.5t-137 -162t-185 -61.5q-55 0 -83.5 32t-28.5 74z" />
    <glyph glyph-name="A" unicode="A" horiz-adv-x="1228" 
d="M791 719l-64 395l-217 -395h281zM-78 12.5q0 12.5 8 12.5q59 0 128 53t137 176l587 1046q4 6 18.5 6.5t18.5 -10.5l180 -1124q11 -63 23 -92q24 -55 133 -55q6 0 6 -12.5t-6 -12.5l-209 8l-198 -8q-8 0 -8.5 12.5t8.5 12.5q76 0 106.5 19t30.5 57.5t-6 70.5l-82 504h-310
l-223 -406q-63 -119 -63 -167t32.5 -63t100.5 -15q6 0 6 -12.5t-8 -12.5l-213 8l-189 -8q-8 0 -8 12.5z" />
    <glyph glyph-name="B" unicode="B" horiz-adv-x="1067" 
d="M842 418q0 121 -73 188.5t-210 69.5q-45 2 -141 -2l-90 -512q-6 -27 -6 -62.5t34.5 -54t126.5 -18.5q150 0 238 84t113 225q8 39 8 82zM856 1075q0 84 -52 133t-165 49q-49 0 -75 -10q-50 -19 -72 -141l-66 -385l80 -2q150 0 236 80q114 107 114 276zM977 1073
q0 -137 -102 -238q-74 -73 -191 -114q137 -12 215 -89t78 -205.5t-79 -231.5q-156 -203 -390 -203l-268 12l-131 -2q-33 -2 -86 -2q-8 0 -8.5 12.5t8.5 12.5q68 0 103.5 11t54 40.5t28.5 91.5l168 950q6 37 6 73t-28.5 50t-108.5 14q-8 0 -8 12.5t8 12.5l92 -2q78 -4 121 -4
l221 12q150 0 223.5 -57.5t73.5 -155.5z" />
    <glyph glyph-name="C" unicode="C" horiz-adv-x="1200" 
d="M661.5 2q118.5 0 229 77t199.5 230q4 4 8 4t9 -4t3 -8l-61 -221q-6 -25 -12.5 -34t-22.5 -13q-190 -59 -365 -60q-272 0 -400 150.5t-128 376.5q-1 277 163 490q114 149 275.5 231t327.5 82q86 0 169 -19.5t114.5 -42t31.5 -37t-2 -22.5l-18 -228q-2 -8 -12.5 -8t-10.5 8
q-27 303 -348 303q-131 0 -241.5 -67.5t-185.5 -192.5q-113 -188 -116 -460q0 -154 48.5 -276t137.5 -190.5t207.5 -68.5z" />
    <glyph glyph-name="D" unicode="D" horiz-adv-x="1253" 
d="M1077 782q0 209 -99 341t-286 132q-106 0 -149 -28.5t-60 -116.5l-161 -922q-8 -45 -9 -63q0 -53 36 -77.5t122 -24.5q143 0 265 69.5t207 203.5q134 211 134 486zM23 0q-6 0 -6.5 12.5t6.5 12.5q66 0 98.5 10t48.5 39.5t29 91.5l168 948q6 41 6 76t-27 50t-102 15
q-6 0 -6 12.5t6 12.5l86 -2q74 -4 125 -4l231 10q162 0 284 -63.5t186.5 -177t64.5 -259.5q0 -72 -11 -122q-35 -199 -144.5 -351.5t-264 -235.5t-318.5 -83l-252 12l-125 -2q-31 -2 -83 -2z" />
    <glyph glyph-name="E" unicode="E" horiz-adv-x="1052" 
d="M987 1053q0 90 -42 142t-116 52h-167q-66 0 -98 -10t-47 -38t-25 -87l-74 -426h287q82 0 119.5 33t52.5 112q2 10 14 9.5t10 -11.5l-31 -163l-12 -78q-2 -12 -16 -113q-2 -8 -14.5 -7t-10.5 9q6 35 6 76q0 92 -133 92h-280l-82 -471q-8 -53 -9 -63q0 -43 28 -58.5
t102 -15.5h223q78 0 150.5 74.5t115.5 195.5q0 2 13 2t12 -8q-31 -92 -50.5 -190t-25.5 -104.5t-23 -6.5h-831q-4 0 -4 12.5t4 12.5q66 0 98.5 10t48 39.5t27.5 91.5l168 948q6 41 6 76t-26.5 50t-102.5 15q-6 0 -6 12.5t6 12.5h784q17 0 13 -18l-19 -125q-10 -78 -20 -131
q0 -6 -8.5 -6.5t-13.5 3t-3 12.5t2 38z" />
    <glyph glyph-name="F" unicode="F" horiz-adv-x="991" 
d="M983 1053q0 90 -42 142t-116 52h-170q-66 0 -96.5 -10t-45.5 -36.5t-26 -88.5l-79 -448h264q80 0 117.5 31.5t52.5 111.5q2 8 14 8t10 -10q-6 -47 -18 -105l-10 -59q-14 -84 -17 -104l-14 -86q-2 -8 -14.5 -7.5t-10.5 9.5q6 35 6 77q0 92 -131 91h-256l-79 -447
q-8 -49 -9 -63q0 -51 42 -68.5t161 -17.5q6 0 6 -12.5t-6 -12.5q-66 0 -104 2l-181 2l-118 -2q-31 -2 -86 -2q-4 0 -4 12.5t4 12.5q68 0 99.5 10t47.5 39.5t27 91.5l168 948q8 53 8 66q0 43 -29 59t-102 16q-4 0 -4 12.5t4 12.5h786q16 0 12 -18l-40 -256q-2 -8 -13.5 -5
t-9.5 13t2 39z" />
    <glyph glyph-name="G" unicode="G" horiz-adv-x="1292" 
d="M821 493.5q0 16.5 10 16.5q137 -10 221.5 -10t176.5 6q6 0 7 -14.5t-7 -14.5q-43 2 -62.5 -13t-32 -62.5t-29.5 -150.5t-18.5 -140t-3.5 -51.5t-6 -17.5t-18 -9q-447 -117 -681 7q-124 66 -187.5 184t-63.5 270q0 272 165 486q118 152 291 237.5t363 85.5t285 -74
q12 -12 12 -25l-22 -250q-2 -8 -12.5 -8t-10.5 8q-12 147 -97 225t-233 78q-227 0 -380.5 -147t-198.5 -401q-16 -98 -17 -174q0 -158 55.5 -277t159 -182.5t217 -63.5t165 19.5t82 72t45.5 150.5t15.5 134t-15.5 56q-28 34 -165 33q-10 0 -10 16.5z" />
    <glyph glyph-name="H" unicode="H" horiz-adv-x="1374" 
d="M1438 1267.5q0 -12.5 -4 -12.5q-63 0 -96 -11t-49.5 -39.5t-28.5 -90.5l-168 -948q-6 -37 -6 -73t27.5 -52t105.5 -16q4 0 4 -12.5t-4 -12.5q-53 0 -84 2l-123 2l-121 -2q-33 -2 -90 -2q-6 0 -6 12.5t6 12.5q68 0 99.5 10t47 38.5t27.5 92.5l84 479h-658l-86 -479
q-8 -53 -8 -66q0 -45 27.5 -60t105.5 -15q4 0 4 -12.5t-4 -12.5q-55 0 -88 2l-127 2l-119 -2q-31 -2 -83 -2q-6 0 -6.5 12.5t6.5 12.5q66 0 98.5 10t48.5 39.5t29 91.5l168 948q6 37 6 74t-27 52t-102 15q-6 0 -6 12.5t6 12.5l82 -2q74 -4 121 -4t124 4l86 2q6 0 6.5 -12.5
t-6.5 -12.5q-66 0 -97.5 -12t-47.5 -42t-29 -91l-75 -424h659l74 424q8 53 8 68q0 45 -27.5 61t-103.5 16q-4 0 -4 12.5t4 12.5l86 -2q74 -4 119 -4t123 4l88 2q4 0 4 -12.5z" />
    <glyph glyph-name="I" unicode="I" horiz-adv-x="630" 
d="M35 12.5q0 12.5 6 12.5q66 0 98.5 10t48 39.5t27.5 91.5l168 948q6 37 6 74t-27.5 52t-105.5 15q-4 0 -4 12.5t4 12.5l86 -2q74 -4 125 -4t129 4l80 2q4 0 4 -12.5t-4 -12.5q-66 0 -97.5 -12t-48 -42t-28.5 -91l-168 -944q-6 -39 -6 -75t27.5 -51t105.5 -15q4 0 4 -12.5
t-4 -12.5q-53 0 -84 2l-127 2l-121 -2q-33 -2 -88 -2q-6 0 -6 12.5z" />
    <glyph glyph-name="J" unicode="J" horiz-adv-x="575" 
d="M-43 -395q-4 0 -9 9t-1 13q92 55 146 167t87 288l182 1032q6 37 6 74t-27.5 52t-104.5 15q-4 0 -4.5 12.5t4.5 12.5l86 -2q74 -4 124 -4t127 4l82 2q4 0 4 -12.5t-4 -12.5q-66 0 -97.5 -12t-47.5 -42t-29 -91l-172 -973q-29 -162 -70.5 -260t-107 -160.5t-172.5 -111.5
h-2z" />
    <glyph glyph-name="K" unicode="K" horiz-adv-x="1218" 
d="M1274 1267.5q0 -12.5 -6 -12.5q-171 0 -330 -151l-367 -324l205 -366q104 -186 160.5 -267t94.5 -101.5t95 -20.5q6 0 6.5 -12.5t-6.5 -12.5h-174q-72 0 -91 10t-77.5 123t-91.5 170l-217 391l-78 -67l-82 -461q-10 -61 -10 -90t23.5 -40t91.5 -11q6 0 6 -12.5t-6 -12.5
q-51 0 -78 2l-117 2l-119 -2q-31 -2 -83 -2q-6 0 -6.5 12.5t6.5 12.5q66 0 98.5 10t48.5 39.5t29 91.5l168 948q6 37 6 74t-27 52t-102 15q-6 0 -6 12.5t6 12.5l82 -2q74 -4 121 -4t124 4l86 2q6 0 6.5 -12.5t-6.5 -12.5q-66 0 -97.5 -12t-47.5 -42t-29 -91l-77 -438
l491 442q74 74 74 108t-92 33q-6 0 -6.5 12.5t6.5 12.5l75 -2q74 -4 131.5 -4t118.5 4l64 2q6 0 6 -12.5z" />
    <glyph glyph-name="L" unicode="L" horiz-adv-x="1015" 
d="M20 12.5q0 12.5 5 12.5q66 0 98.5 10t47.5 39.5t28 91.5l168 948q6 37 6 74t-27 52t-102 15q-6 0 -6 12.5t6 12.5l82 -2q74 -4 121 -4t124 4l86 2q6 0 6.5 -12.5t-6.5 -12.5q-66 0 -97.5 -11t-47.5 -40.5t-29 -91.5l-164 -938q-8 -53 -8 -65q0 -43 27 -57.5t96 -14.5h205
q115 0 189.5 70.5t123.5 203.5q0 4 6.5 4t12.5 -3t4 -5q-45 -160 -64 -276q-8 -31 -32 -31h-854q-5 0 -5 12.5z" />
    <glyph glyph-name="M" unicode="M" horiz-adv-x="1499" 
d="M1567 1280q4 0 4 -12.5t-4 -12.5q-86 0 -127 -27.5t-54 -109.5l-141 -952q-6 -37 -6 -74t27.5 -52t103.5 -15q6 0 6 -12.5t-6 -12.5q-51 0 -82 2l-127 2l-121 -2q-33 -2 -88 -2q-4 0 -4 12.5t4 12.5q68 0 101.5 10t49 39.5t23.5 91.5l146 975l-596 -1127q-4 -8 -14.5 -8
t-14.5 10l-229 1094l-2 12l-162 -899q-8 -43 -8 -94q0 -104 106 -104q4 0 4 -12.5t-4 -12.5q-43 0 -65 2l-92 2l-89 -2q-25 -2 -69 -2q-6 0 -6 12.5t6 12.5q72 0 112.5 46t61.5 152l178 963q-43 70 -131 69q-4 0 -4 12.5t4 12.5l59 -2q20 -2 54 -2l92 4q23 0 35 -20.5
t26 -85.5l209 -977l547 1032q27 51 63 51l89 -4l81 2q18 2 54 2z" />
    <glyph glyph-name="N" unicode="N" horiz-adv-x="1333" 
d="M1194 1151q0 104 -111 104q-6 0 -6 12.5t6 12.5l64 -2q57 -4 93 -4t93 4l74 2q4 0 4 -12.5t-4 -12.5q-76 0 -118 -46t-60 -148l-193 -1081q0 -11 -13 -11t-17 11l-603 1153l-159 -916q-8 -41 -8 -90q0 -102 112 -102q4 0 4 -12.5t-4 -12.5q-43 0 -65 2l-97 2l-88 -2
q-27 -2 -73 -2q-6 0 -6.5 12.5t6.5 12.5q74 0 116.5 45t59.5 147l172 965q-57 74 -129 73q-4 0 -4 12.5t4 12.5l71 -2q25 -2 64 -2l90 4q12 0 18.5 -7t15.5 -36t27 -63l504 -977l152 864q8 41 8 90z" />
    <glyph glyph-name="O" unicode="O" horiz-adv-x="1333" 
d="M1169 758.5q0 126.5 -50 244t-143 184t-220 66.5q-182 0 -310 -135q-188 -200 -188 -588q0 -122 48 -242t141.5 -189.5t222.5 -69.5q176 0 303 131t176 372q20 100 20 226.5zM127 489q-1 273 149 493q102 151 250 236t303.5 85t259 -67t157.5 -182.5t54 -260.5
q0 -80 -14 -152q-35 -195 -140.5 -346.5t-255 -235.5t-300 -84t-252.5 67t-156.5 183.5t-54.5 263.5z" />
    <glyph glyph-name="P" unicode="P" horiz-adv-x="1030" 
d="M1047 1006q0 -39 -9 -78q-23 -129 -105.5 -217t-190 -131t-200.5 -43t-96 16q0 27 26 20.5t48 -6.5q82 0 161 36q79 35 136 107q86 108 86 253t-70.5 219.5t-175.5 74.5q-68 0 -97.5 -9t-45.5 -38.5t-31 -99.5l-164 -944q-8 -35 -8 -73t28 -53t103 -15q6 0 6.5 -12.5
t-6.5 -12.5q-55 0 -86 2l-127 2l-118 -2q-31 -2 -86 -2q-5 0 -5 12.5t5 12.5q68 0 100.5 10t48.5 39.5t27 91.5l168 948q8 53 8 66q0 45 -29 60t-102 15q-4 0 -4 12.5t4 12.5l82 -2q74 -4 121 -4l253 12q150 0 247.5 -71.5t97.5 -208.5z" />
    <glyph glyph-name="Q" unicode="Q" horiz-adv-x="1333" 
d="M258 529q0 -122 48 -241.5t141.5 -189t222.5 -69.5q176 0 303 131t176 372q20 100 20 226.5t-50 244t-143 184t-220 66.5q-182 0 -310 -135q-188 -200 -188 -589zM557.5 -25q-116.5 0 -219 67t-157 183.5t-54.5 263.5q-1 273 149 493q102 151 250 236t303.5 85t259 -67
t157.5 -182.5t54 -260.5q0 -80 -14 -152q-35 -197 -142.5 -349.5t-258.5 -236.5q49 -119 124.5 -215t159.5 -149t142.5 -53t83.5 8q6 2 9 -9.5t-1 -13.5q-104 -25 -170 -24q-125 0 -254 105.5t-223 297.5q-82 -27 -198.5 -27z" />
    <glyph glyph-name="R" unicode="R" horiz-adv-x="1257" 
d="M530 698q133 0 202 61.5t93 201.5q8 47 9 92q0 106 -49.5 155t-118 49t-92.5 -8q-47 -16 -68 -139l-72 -405q45 -7 96 -7zM692 1286q277 0 277 -208q0 -104 -72 -205t-182 -162q115 -264 194.5 -410.5t149 -211t145.5 -64.5q8 0 8 -12.5t-8 -12.5h-221q-49 0 -146.5 177
t-220.5 493q-84 -26 -190 -15l-88 -489q-8 -53 -8 -68q0 -43 28.5 -58t108.5 -15q8 0 8 -12.5t-6 -12.5q-57 0 -90 2l-127 2l-129 -2q-33 -2 -92 -2q-8 0 -8 12.5t8 12.5q70 0 105.5 11t54 39.5t30.5 90.5l168 948q8 53 8 66q0 45 -29.5 60t-109.5 15q-8 0 -8 12.5t8 12.5
l92 -2q78 -4 123 -4z" />
    <glyph glyph-name="S" unicode="S" horiz-adv-x="946" 
d="M426 8q100 0 176 58q99 76 105 241q0 102 -58.5 169t-169.5 142q-76 56 -120 94q-105 92 -105 218.5t89 228.5q125 144 341 144q102 0 213 -50q27 -14 25 -34l-27 -228q0 -8 -11.5 -8t-11.5 8q-20 283 -231 283q-86 0 -143.5 -44t-85 -109.5t-27.5 -130.5t29.5 -114
t71.5 -84.5t139.5 -101.5t159 -136.5t61.5 -174.5q0 -181 -154 -305q-123 -98 -317 -99q-143 0 -266 70q-16 10 -13 39l29 270q0 10 11 10.5t14 -10.5q2 -147 70.5 -246.5t205.5 -99.5z" />
    <glyph glyph-name="T" unicode="T" horiz-adv-x="1132" 
d="M285 12.5q0 12.5 4 12.5q70 0 104.5 10t51 39.5t28.5 91.5l168 948q6 37 6 70t-23.5 47t-86.5 14h-50q-121 0 -191.5 -68.5t-115.5 -226.5q0 -2 -13 -2t-11 8q53 168 90 369q2 6 14 5t10 -7q-6 -43 80 -43q152 -6 315.5 -6t290.5 4l129 2q61 0 92 10t44 41q4 6 14 5t8 -9
q-16 -55 -45 -187t-37 -184q-2 -8 -13 -7t-9 9q12 61 12 111q0 92 -48 134t-153 42h-47q-53 0 -80.5 -11t-41 -39t-23.5 -85l-166 -944q-6 -37 -6 -74t29.5 -52t113.5 -15q4 0 4 -12.5t-4 -12.5q-55 0 -88 2l-133 2l-127 -2q-33 -2 -92 -2q-4 0 -4 12.5z" />
    <glyph glyph-name="U" unicode="U" horiz-adv-x="1265" 
d="M317 367q1 -330 311 -330q154 0 269 113.5t150 312.5l106 596q6 34 6 63q0 133 -131 133q-6 0 -6 12.5t6 12.5l84 -2q61 -4 97 -4t98 4l73 2q8 0 7 -12.5t-7 -12.5q-150 0 -184 -202l-104 -594q-41 -229 -184.5 -357.5t-332 -128.5t-287 96.5t-98.5 268.5q0 47 11 115
l116 665q8 53 9 66q0 43 -29 57t-109 14q-8 0 -7 12.5t7 12.5l93 -2q78 -4 126.5 -4t131.5 4l82 2q8 0 7 -12.5t-7 -12.5q-125 0 -157 -57q-18 -31 -28 -92l-104 -590q-14 -78 -15 -149z" />
    <glyph glyph-name="V" unicode="V" horiz-adv-x="1212" 
d="M1001 1255q-4 0 -4 12.5t4 12.5l74 -2q66 -4 107 -4t90 4l78 2q8 0 8 -12.5t-8 -12.5q-61 0 -108.5 -32.5t-96.5 -124.5l-570 -1096q-2 -8 -21 -8t-22 8l-239 1108q-16 80 -45 112.5t-82 32.5q-4 0 -4 12.5t4 12.5q27 0 80 -4l76 -2q55 0 129 4l79 2q8 0 8.5 -12.5
t-8.5 -12.5q-59 0 -90.5 -18t-31.5 -66q0 -16 6 -41l211 -950l479 928q25 49 24 80q0 67 -127 67z" />
    <glyph glyph-name="W" unicode="W" horiz-adv-x="1685" 
d="M520 1255q-112 1 -112 -73q0 -38 4 -52l213 -962l239 471l-102 471q-18 82 -44 113.5t-77 31.5q-8 0 -8 12.5t8 12.5l76 -2q53 -4 84 -4t80 4l51 2q10 0 10 -12.5t-10 -12.5q-35 0 -48.5 -8t-13.5 -28t15 -89l76 -342l161 320q35 70 35 100q0 47 -72 47q-6 0 -6 12.5
t6 12.5l50 -2q41 -4 71.5 -4t79.5 4l74 2q8 0 8 -12.5t-8 -12.5q-59 0 -104.5 -32.5t-94.5 -124.5l-188 -365l123 -563l481 938q25 49 25 83q0 64 -121 64q-8 0 -8 12.5t8 12.5l71 -2q61 -4 101.5 -4t89.5 4l78 2q8 0 8 -12.5t-8 -12.5q-61 0 -108.5 -32.5t-96.5 -124.5
l-572 -1096q-2 -8 -20 -8t-20 8l-127 580l-302 -580q-2 -8 -21 -8t-22 8l-239 1108q-16 80 -45 112.5t-82 32.5q-6 0 -6 12.5t6 12.5q27 0 80 -4l76 -2q53 0 122 4l76 2q8 0 8 -12.5t-8 -12.5z" />
    <glyph glyph-name="X" unicode="X" horiz-adv-x="1185" 
d="M680 25q104 0 104 49q0 12 -6 30l-186 484l-307 -393q-57 -72 -58 -115q0 -55 97 -55q6 0 6 -12.5t-6 -12.5q-53 0 -84 2l-125 2l-74 -2q-20 -2 -68 -2q-8 0 -8 12.5t8 12.5q129 0 271 178l334 420l-187 487q-31 80 -69.5 112.5t-98.5 32.5q-8 0 -8 12.5t8 12.5l64 -2
q45 -4 87.5 -4t129.5 4l92 2q8 0 8 -12.5t-8 -12.5q-98 0 -98 -49q0 -8 8 -32l172 -447l268 344q63 82 64 127q0 57 -92 57q-8 0 -8.5 12.5t8.5 12.5l81 -2q70 -4 114 -4t85 4l68 2q8 0 8 -12.5t-8 -12.5q-123 0 -279 -194l-295 -371l201 -520q31 -80 74 -112.5t116 -32.5
q6 0 6.5 -12.5t-6.5 -12.5q-47 0 -73 2l-101 2l-139 -2q-35 -2 -90 -2q-8 0 -8 12.5t8 12.5z" />
    <glyph glyph-name="Y" unicode="Y" horiz-adv-x="1083" 
d="M526 1255q-102 0 -102 -43q0 -12 10 -38l207 -496l279 395q55 78 55 125q0 57 -86 57q-8 0 -8 12.5t8 12.5l82 -2q70 -4 111 -4t81 4l66 2q8 0 8 -12.5t-8 -12.5q-129 0 -268 -192l-312 -428l-82 -469q-8 -39 -8 -76t28.5 -51t106.5 -14q8 0 8 -12.5t-8 -12.5
q-55 0 -86 2l-125 2l-127 -2q-33 -2 -88 -2q-8 0 -8 12.5t8 12.5q68 0 103 11t51 39.5t27 90.5l77 450l-209 494q-35 80 -70.5 112.5t-92.5 32.5q-8 0 -8.5 12.5t8.5 12.5l69 -2q49 -4 86 -4t127 4l94 2q4 0 4.5 -7t-3 -12.5t-5.5 -5.5z" />
    <glyph glyph-name="Z" unicode="Z" horiz-adv-x="1120" 
d="M45 0q-8 0 -10 9t2 18l956 1202q10 10 9 13t-171 3t-294.5 -13t-179 -57.5t-117.5 -164.5l-9 -4q-6 0 -11 4t-3 8l133 323q0 2 6 2t12.5 -3t3.5 -10t-3 -23t19.5 -21.5t76.5 -5.5h684q8 0 11 -10t-1 -17l-946 -1198q-8 -10 -7 -13t11 -3h430q145 0 226 53t135 187
q4 4 10 4t11 -3.5t3 -7.5l-71 -256q0 -6 -6.5 -13t-12.5 -7q-276 4 -897 4z" />
    <glyph glyph-name="bracketleft" unicode="[" horiz-adv-x="507" 
d="M371 1485h262q8 0 8 -12.5t-8 -12.5q-74 0 -113 -12t-57.5 -42t-28.5 -91l-244 -1385q-8 -49 -8 -63q0 -47 33 -64.5t119 -17.5q8 0 8 -12.5t-8 -12.5h-266q-13 0 -15 4.5t2 18.5l297 1681q2 14 5 17.5t14 3.5z" />
    <glyph glyph-name="backslash" unicode="\" horiz-adv-x="624" 
d="M420 -344q-39 0 -39 10l-148 1815q-2 8 14.5 14t36.5 6t21 -10l150 -1817q4 -18 -35 -18z" />
    <glyph glyph-name="bracketright" unicode="]" horiz-adv-x="507" 
d="M219 -240h-262q-8 0 -8 12.5t8 12.5q137 0 162.5 42t36.5 103l243 1385q8 49 9 63q0 47 -33 64.5t-119 17.5q-8 0 -8 12.5t8 12.5h266q13 0 15 -4t-2 -19l-297 -1681q-2 -14 -5.5 -17.5t-13.5 -3.5z" />
    <glyph glyph-name="asciicircum" unicode="^" horiz-adv-x="722" 
d="M189 766q-5 0 -11 4t-4 8l324 510q6 10 23 10t18 -10l143 -510q0 -4 -9 -8t-11 2l-175 340l-290 -344q-3 -2 -8 -2z" />
    <glyph glyph-name="underscore" unicode="_" horiz-adv-x="743" 
d="M-14 -156q-11 0 -11 41t9 41h653q10 0 10 -41t-10 -41h-651z" />
    <glyph glyph-name="grave" unicode="`" horiz-adv-x="339" 
d="M288 1497q24 0 58.5 -10t34.5 -21l-10 -491q0 -4 -9.5 -6t-9.5 4l-86 516q-2 8 22 8z" />
    <glyph glyph-name="a" unicode="a" horiz-adv-x="888" 
d="M639 632q0 40 -32 76.5t-98.5 36.5t-142 -61t-132 -167.5t-74.5 -235.5q-8 -43 -8 -84q0 -123 88 -123q73 0 156 75.5t163 217t80 265.5zM573.5 817q96.5 0 143.5 -57q37 31 49 74q2 4 9 4t12.5 -3.5t3.5 -5.5l-121 -647q-4 -20 -4 -53q0 -66 36 -66q43 0 138 95l4 2
q6 0 11 -7.5t1 -11.5q-72 -80 -126 -119.5t-103 -39.5q-72 0 -72 96q0 33 10 104l37 211q-92 -190 -210 -305t-228 -115q-125 0 -125 154q0 14 4 59q20 145 108.5 293t207 243t215 95z" />
    <glyph glyph-name="b" unicode="b" horiz-adv-x="890" 
d="M725 572.5q0 62.5 -30.5 107.5t-103.5 45q-73 -1 -151 -67q-163 -139 -223 -461q-2 -10 -2 -29q0 -63 46 -103t119 -40t139.5 51t118.5 147t75 228q12 59 12 121.5zM856 604q0 -39 -10 -90q-33 -166 -125 -289t-207 -187.5t-210 -64.5t-150.5 40t-55.5 110q0 10 4 35
l207 1110q4 16 4 43q0 53 -43 53q-35 0 -100 -33h-2q-10 0 -13 11.5t5 13.5l266 129h4q8 0 14.5 -6t4.5 -11l-187 -1022q72 164 186.5 267.5t237.5 103.5q80 0 125 -58.5t45 -154.5z" />
    <glyph glyph-name="c" unicode="c" horiz-adv-x="708" 
d="M59 293q-1 194 107 336q70 92 162 140t175 48t136 -34.5t47 -86.5q-2 -29 -19.5 -47t-47.5 -18t-46 16.5t-28 48.5q-25 76 -114 76t-149.5 -82t-79.5 -188.5t-20 -159.5q0 -133 56.5 -216t169.5 -83q61 0 110 24.5t107 69.5l4 2q6 0 11 -8t1 -12q-164 -145 -308.5 -145.5
t-209 92t-64.5 227.5z" />
    <glyph glyph-name="d" unicode="d" horiz-adv-x="911" 
d="M666 607q0 68 -36 103t-95 35q-135 0 -234.5 -106.5t-132.5 -298.5q-8 -47 -8 -112.5t32.5 -109.5t88.5 -44q92 0 181 100t146.5 232.5t57.5 200.5zM686 129q0 -66 41 -66t135 95q4 4 8 4t8.5 -7.5t0.5 -13.5q-72 -82 -126.5 -120.5t-105.5 -38.5q-72 0 -72 90
q0 33 15 110l37 199q-92 -190 -197.5 -299t-214.5 -109q-72 0 -120 48.5t-48 150.5q0 180 120 362q85 130 201.5 206.5t233.5 76.5q59 0 100 -26l91 477q4 33 4 43q0 53 -43 53q-35 0 -101 -33h-2q-10 0 -13 11.5t5 13.5l266 129h4q8 0 14.5 -6t2.5 -11l-238 -1286
q-6 -31 -6 -53z" />
    <glyph glyph-name="e" unicode="e" horiz-adv-x="702" 
d="M441.5 762q-93.5 0 -157 -83t-87.5 -214q299 57 333 199q4 20 5 30q0 68 -93.5 68zM535 817q137 0 137 -99q0 -52 -66 -112q-134 -123 -416 -170q-10 -66 -10 -112q0 -127 56.5 -203t166 -76t199.5 68h2q6 0 11.5 -6.5t0.5 -10.5q-143 -121 -285.5 -121t-208.5 83
q-67 82 -67 232q-1 150 97 294q68 102 170 167.5t213 65.5z" />
    <glyph glyph-name="f" unicode="f" horiz-adv-x="534" 
d="M94 739q-6 0 -6 13.5t8 13.5q74 0 105.5 19.5t40.5 70.5q41 252 90 386t123.5 189.5t197.5 55.5q72 0 112 -32t35 -69q-9 -65 -71 -65q-29 0 -41 16.5t-29 51.5q-12 33 -26.5 50t-42.5 17q-154 0 -236 -557l-18 -127l131 8l80 4q18 0 13 -19t-26.5 -43t-41.5 -22
q-90 16 -164 21l-111 -764q-55 -378 -159 -471q-54 -49 -130 -49q-141 0 -141 84q0 29 21.5 48t54.5 19t46 -16t22 -45t18.5 -41t33.5 -12t40 32q33 65 79 398l105 723q4 41 4 66.5t-22.5 35.5t-94.5 10z" />
    <glyph glyph-name="g" unicode="g" horiz-adv-x="776" 
d="M27 -316q0 -85 79.5 -143.5t200.5 -58.5t181.5 47t60.5 118.5t-57.5 120t-167.5 107.5q-57 27 -99 53q-96 -57 -147 -108t-51 -136zM545 554q0 68 -36 140t-102.5 72t-118.5 -60q-73 -84 -73 -229q0 -98 39 -167.5t103 -69.5q65 0 115 56q74 82 73 258zM799 782.5
q0 -24.5 -9.5 -52.5t-17.5 -23q-68 35 -158 22q43 -59 43 -125q1 -157 -79 -259q-54 -69 -125.5 -106.5t-143.5 -37.5q-20 0 -49 4q-27 -31 -32 -74t40 -81t153 -91t169 -105.5t61 -130.5t-59.5 -146.5t-158.5 -110t-227 -41.5t-212 60t-84 148t75.5 158t219.5 152
q-74 53 -74 104t25.5 87t74.5 79q-61 23 -95 80t-34 117q0 194 131 308q97 85 220 85q84 0 137 -47q109 51 198 51q11 0 11 -24.5z" />
    <glyph glyph-name="h" unicode="h" horiz-adv-x="913" 
d="M641 817q133 0 133 -155q0 -47 -12 -115l-68 -365q-6 -31 -6 -55q0 -63 39 -64q45 0 135 95q4 4 9 4t9.5 -7.5t-1.5 -13.5q-140 -159 -223 -159q-44 0 -61 21.5t-17 66.5t12 112l59 326q12 66 13 110q0 119 -89 119q-68 0 -140.5 -86t-136 -249.5t-103.5 -387.5
q-4 -31 -58.5 -30.5t-54.5 12.5l8 47q12 49 23 109l208 1116q4 33 5 43q0 53 -43 53q-35 0 -101 -33h-2q-10 0 -13 11.5t5 13.5l266 129h4q6 0 12.5 -6t4.5 -11l-201 -1103q74 211 175 331.5t210 120.5z" />
    <glyph glyph-name="i" unicode="i" horiz-adv-x="505" 
d="M291 809q74 0 74 -89q0 -46 -13 -108l-82 -430q-6 -33 -6 -59q0 -59 37 -60q49 0 139 91q4 4 8 4t9.5 -7.5t-0.5 -13.5q-139 -155 -234 -155q-73 0 -73 90q0 33 14 110l84 426q6 31 6 56q0 63 -41 63q-53 0 -141 -92q-2 -2 -7 -2t-10.5 7t0.5 11q137 158 236 158z
M264 1138q0 40 23.5 62.5t64.5 22.5t63.5 -22.5t22.5 -62.5t-22.5 -63.5t-63.5 -23.5t-64.5 23.5t-23.5 63.5z" />
    <glyph glyph-name="j" unicode="j" horiz-adv-x="491" 
d="M-104.5 -412q26.5 0 38 -17t19.5 -47t16 -43t33 -13q24 0 46 38q40 72 89 369l127 733q6 31 6 54q0 66 -41 65q-55 0 -139 -92q-2 -2 -8 -2t-10 7t0 11q137 158 237 158q37 0 53.5 -21.5t16.5 -71.5t-10 -104l-119 -690q-33 -193 -70 -296t-90 -146t-128 -43t-107.5 26.5
t-27.5 60.5t23.5 49t45 15zM287 1138q0 40 23.5 62.5t64.5 22.5t63.5 -22.5t22.5 -62.5t-22.5 -63.5t-63.5 -23.5t-64.5 23.5t-23.5 63.5z" />
    <glyph glyph-name="k" unicode="k" horiz-adv-x="851" 
d="M637 693q0 26 -16.5 44.5t-45.5 18.5q-104 0 -189 -90.5t-118 -241.5l-4 -16q184 43 268 98q105 69 105 187zM837 156q5 0 10 -7.5t-1 -11.5q-136 -155 -215 -155q-49 0 -83 28.5t-81 108.5l-119 207q-31 53 -54 53t-32 -2h-2l-67 -363q-4 -31 -58.5 -30.5t-54.5 12.5
l8 47q12 49 23 109l208 1116q4 33 5 43q0 53 -43 53q-35 0 -101 -33h-2q-10 0 -13 11.5t5 13.5l266 129h4q6 0 12.5 -6t4.5 -11l-152 -837q76 86 170 136t172 50t104.5 -29.5t26.5 -57.5q0 -97 -100 -174t-254 -132l135 -236q41 -70 70.5 -94t62.5 -24q53 0 137 84q3 2 8 2z
" />
    <glyph glyph-name="l" unicode="l" horiz-adv-x="485" 
d="M186 -18q-73 0 -73 96q0 41 12 104l203 1086q4 16 4 45q0 51 -41 51q-33 0 -98 -33h-3q-10 0 -13 11.5t5 13.5l264 129h5q8 0 14 -6t4 -11l-238 -1286q-6 -33 -6 -55q0 -63 41 -64q43 0 133 95q4 4 9.5 4t9.5 -7.5t0 -13.5q-72 -82 -126 -120.5t-106 -38.5z" />
    <glyph glyph-name="m" unicode="m" horiz-adv-x="1384" 
d="M1120 817q123 0 123 -153q0 -59 -10 -117l-68 -365q-6 -31 -6 -55q0 -63 39 -64q45 0 135 95q4 4 9 4t9.5 -7.5t0.5 -13.5q-140 -159 -225 -159q-44 0 -60 21.5t-16 66.5t12 112l59 326q10 72 11 108q0 121 -80 121q-63 0 -134 -85t-133.5 -248.5t-101.5 -385.5v-4
q-6 -31 -59.5 -30.5t-53.5 12.5q2 12 14.5 64.5t16.5 91.5l66 356q10 72 10 108q0 121 -76 121q-63 0 -133 -85t-132.5 -245.5t-103.5 -375.5l-2 -17q-4 -31 -57 -30.5t-53 12.5q0 2 16 84l99 528q6 31 6 54q0 66 -41 65q-54 0 -142 -92q-2 -2 -7 -2t-9 7t0 11
q137 158 238 158q37 0 53 -21.5t16 -71.5t-10 -104l-43 -235q72 207 169 323.5t204 116.5q121 0 121 -149q0 -49 -13 -121l-30 -172q72 207 170 324.5t202 117.5z" />
    <glyph glyph-name="n" unicode="n" horiz-adv-x="954" 
d="M682 817q133 0 133 -151q0 -37 -14 -119l-66 -365q-6 -31 -6 -55q0 -63 39 -64q41 0 135 95q4 4 9 4t9.5 -7.5t-1.5 -13.5q-72 -82 -125.5 -120.5t-106.5 -38.5q-70 0 -70 90q0 43 13 110l59 326q12 66 12 110q0 119 -88 119q-68 0 -140.5 -86t-136 -249.5t-104.5 -387.5
q-4 -31 -58 -30.5t-54 12.5l8 47q12 49 23 109l84 456q6 31 6 54q0 66 -41 65q-54 0 -142 -92q-2 -2 -7 -2t-9 7t0 11q137 158 238 158q37 0 53 -21.5t16 -71.5t-10 -104l-45 -256q74 215 175 338t212 123z" />
    <glyph glyph-name="o" unicode="o" horiz-adv-x="817" 
d="M647 424q0 141 -54 242.5t-148.5 101.5t-165 -77t-97.5 -208q-12 -57 -12 -121q0 -139 58.5 -239t151.5 -100q92 -1 162 75q104 114 105 326zM513 817q114 0 182.5 -85t68.5 -220q0 -191 -104 -340q-142 -201 -358 -201q-108 0 -176.5 86t-68.5 245.5t97 307.5
q135 206 359 207z" />
    <glyph glyph-name="p" unicode="p" horiz-adv-x="833" 
d="M668 535q0 197 -170 196q-94 0 -201 -59l-102 -582q74 -35 159 -35q129 0 206 107.5t102 288.5q6 43 6 84zM330 946q6 0 11 -3t3 -7l-39 -219q149 88 263 88q216 0 216 -213q0 -172 -86 -311.5t-190.5 -211t-195.5 -71.5t-132 6l-65 -369q-6 -35 -6 -65q0 -60 73 -59
q12 0 49 4q8 2 10.5 -10.5t-5.5 -14.5l-353 -53q-8 -2 -10 10t4 14q47 8 69.5 21.5t34 43.5t23.5 95l172 971l-94 -70q-6 0 -11 9.5t-1 13.5q51 45 114 92l27 154q-1 3 29 29q68 59 84 122q0 4 6 4z" />
    <glyph glyph-name="q" unicode="q" horiz-adv-x="849" 
d="M635 600q0 145 -117 145q-131 0 -229.5 -114.5t-124.5 -329.5q-2 -20 -2 -59q0 -168 102 -168q80 0 156 60.5t131 161.5t76 222q8 41 8 82zM636 -494q28 0 62 5h2q8 0 10.5 -10.5t-5.5 -12.5l-361 -51q-8 -2 -10 10t6 14q49 8 70.5 20.5t34 42.5t24.5 97l123 698
q-76 -164 -182.5 -255t-208.5 -91q-70 0 -112 53.5t-42 141.5q0 29 2 43q20 158 101 298t198 224t220.5 84t150.5 -55q41 33 51 72q2 6 13.5 4t9.5 -9l-215 -1194q-6 -31 -7 -55q-1 -74 65 -74z" />
    <glyph glyph-name="r" unicode="r" horiz-adv-x="696" 
d="M705 715q0 -35 -19.5 -53.5t-46.5 -18.5t-39 9.5t-31 34t-37 24.5q-45 0 -107.5 -119t-118.5 -285t-79 -293q-4 -30 -57 -30t-53 12l98 534q10 53 10 105q0 92 -47 92t-125 -74l-4 -2q-6 0 -10 7.5t-2 11.5q125 139 221 139q41 0 60.5 -25.5t19.5 -86t-19 -162.5
l-40 -236q68 213 151.5 361.5t161.5 148.5q41 0 77 -29.5t36 -64.5z" />
    <glyph glyph-name="s" unicode="s" horiz-adv-x="618" 
d="M20 86q0 41 19.5 58.5t41 17.5t34 -13.5t33 -47t46 -56t74.5 -22.5q113 0 131 124q2 10 2 27q0 59 -32.5 102t-101.5 99.5t-102.5 98.5t-33.5 106.5t41 118t104.5 83t134.5 29.5t120 -29.5t40 -72.5q-2 -27 -20.5 -41.5t-42 -14.5t-38.5 12.5t-35 40t-42 44t-65 16.5
t-73 -27.5t-30 -82t33 -97.5t101.5 -102t102.5 -105.5t34 -108.5t-39 -125t-105.5 -102t-142.5 -39t-132.5 34t-56.5 75z" />
    <glyph glyph-name="t" unicode="t" horiz-adv-x="604" 
d="M133 739q-6 0 -6 13.5t8 13.5q70 0 122 43t71 113q0 6 17 6t15 -8l-26 -150q100 4 190 10l70 4q14 0 14 -15t-22.5 -43t-37.5 -28t-84 10.5t-138 12.5l-93 -508q-6 -33 -6 -61q0 -98 101 -99q53 0 96 22.5t100 67.5l4 2q6 0 11.5 -7t1.5 -11q-175 -152 -291 -152
q-62 0 -100.5 31t-38.5 98q0 12 4 46l88 477q8 35 8 64.5t-16.5 38.5t-61.5 9z" />
    <glyph glyph-name="u" unicode="u" horiz-adv-x="952" 
d="M899 158q6 0 10 -7.5t0 -11.5q-138 -157 -237 -157q-37 0 -53.5 21.5t-16.5 71.5t10 101l45 258q-74 -215 -175 -338t-212 -123q-135 0 -135 152q0 55 15 119l73 364q6 35 6 56q0 63 -40 63t-134 -94q-4 -4 -9 -4t-9 7t2 13q72 82 126 121t105 39q72 0 72 -92
q0 -45 -14 -109l-66 -325q-14 -76 -14 -111q0 -119 90 -119q68 0 140.5 86t136 250t104.5 387q4 31 58 31t54 -12l-8 -47q-12 -49 -22 -109l-84 -457q-6 -31 -6 -55q0 -66 41 -66q48 0 139 95q2 2 8 2z" />
    <glyph glyph-name="v" unicode="v" horiz-adv-x="884" 
d="M729 811q92 0 92 -203q1 -203 -103 -381q-70 -121 -162.5 -187.5t-178.5 -66.5t-135 69t-49 151t26.5 156.5t77.5 178.5l47 107q10 25 10 33q0 18 -28 18h-105q-55 0 -80.5 -7t-41 -29.5t-31.5 -71.5q-2 -4 -9.5 -4.5t-12.5 5t13.5 55.5t40 90t54 54.5t96.5 14.5h180
q18 0 21.5 -4.5t-2.5 -20.5q-152 -340 -152 -506q0 -88 38 -138t101 -50q94 0 180 90t123 235t1 207q-18 31 -41 53.5t-36.5 40t-13.5 47t23.5 47t56.5 17.5z" />
    <glyph glyph-name="w" unicode="w" horiz-adv-x="1267" 
d="M776 582q0 94 -51 94q-57 0 -76 -141q-8 -52 -8 -131.5t27 -165.5q80 121 104 284q4 23 4 60zM1130 494q0 68 -17 105.5t-41.5 66.5t-33 43t-8.5 40.5t24.5 44t63.5 17.5t61.5 -54.5t22.5 -116t-14 -177t-81 -236.5t-150 -187.5t-156 -66.5q-113 0 -168 144
q-125 -144 -254 -144q-88 0 -135 65.5t-47 159t34.5 181.5t77.5 180l35 76q10 25 10 33q0 18 -28 18h-105q-55 0 -80.5 -7t-41 -29.5t-31.5 -71.5q-2 -4 -9.5 -4.5t-12.5 5t13.5 55.5t40 90t54 54.5t96.5 14.5h180q18 0 21.5 -4.5t-2.5 -20.5q-119 -268 -142 -446
q-4 -45 -4 -64q0 -88 36 -139t97 -51q92 0 180 100q-20 74 -20 158t16 190t61.5 196.5t96.5 90.5q35 0 53.5 -38t18.5 -82t-8 -101q-37 -227 -146 -394q61 -120 170 -120q49 0 104.5 42t99.5 118q68 116 68 266z" />
    <glyph glyph-name="x" unicode="x" horiz-adv-x="862" 
d="M846 724q0 -32 -16.5 -48.5t-43 -16.5t-47 20.5t-45.5 20.5q-45 0 -90 -61l-129 -188l82 -277q18 -63 42 -83.5t54 -20.5q53 0 135 84q2 2 8.5 2t10.5 -7.5t-2 -13.5q-139 -156 -223 -155q-43 0 -72 26.5t-51 102.5l-66 221l-127 -201q-59 -94 -90 -121.5t-73 -27.5
t-73.5 27.5t-31.5 59.5t16.5 48t43 16t47 -20.5t45.5 -20.5q47 0 90 62l143 213l-70 233q-37 123 -102 123q-55 0 -137 -84q-2 -2 -7 -2t-10.5 7t0.5 11q137 156 225 156t130 -143l53 -183l113 179q59 92 89.5 119.5t72.5 27.5t74 -26.5t32 -58.5z" />
    <glyph glyph-name="y" unicode="y" horiz-adv-x="905" 
d="M477 -47q252 395 252 563q0 64 -24.5 139.5t-24.5 97t19.5 40t54.5 18.5q77 0 77 -113q0 -168 -158.5 -478t-365.5 -552.5t-344 -242.5q-41 0 -64.5 20t-17.5 63q12 55 88 55.5t132.5 9.5t110.5 48t161 182l2 103q0 385 -62.5 599t-169.5 214q-63 0 -106 -76q-2 -6 -9 -6
t-11.5 4t-2.5 10q37 76 86.5 117t102.5 41q87 -1 149 -99q128 -201 127 -649q0 -72 -2 -108z" />
    <glyph glyph-name="z" unicode="z" horiz-adv-x="704" 
d="M217.5 147q42.5 0 170 -24.5t164 -24.5t56 20.5t39.5 74.5q0 4 7 4t12.5 -3.5t3.5 -7.5q-52 -160 -90 -183q-22 -13 -65.5 -13t-113 12t-140.5 26.5t-125 15.5t-78.5 -11.5t-55.5 -46.5h-2q-4 0 -10 8t-4 10l577 658q-43 -24 -227 16q-102 20 -133 20t-51.5 -21.5
t-42.5 -74.5q-2 -6 -8.5 -6t-11.5 5t12.5 55t38 90t45 51.5t69.5 9.5t163 -27t165 -26.5t71.5 10.5t55.5 47l4 2q6 0 11 -8t1 -10l-573 -656q23 8 65.5 8z" />
    <glyph glyph-name="braceleft" unicode="{" horiz-adv-x="532" 
d="M248 -72q0 -143 108 -143q6 0 6 -12.5t-6 -12.5q-123 0 -169 34t-46 120t28 251t28 253q0 174 -109 192q-4 0 -4 13.5t4 13.5q100 14 152.5 128t86.5 304t69.5 273t93 113t165.5 30q6 0 6.5 -12.5t-6.5 -12.5q-143 0 -187 -232t-73.5 -336t-81 -162t-157.5 -105
q82 -43 114.5 -92.5t32.5 -136.5q1 -87 -27 -261t-28 -207z" />
    <glyph glyph-name="bar" unicode="|" horiz-adv-x="311" 
d="M70 -315q-2 -13 -39 -13t-33 19l315 1806q2 10 40 10t34 -18z" />
    <glyph glyph-name="braceright" unicode="}" horiz-adv-x="534" 
d="M258 1460q-6 0 -6 12.5t6 12.5q123 0 169 -34t46 -120t-28 -250q-27 -164 -27 -251t24.5 -136t83.5 -59q4 0 4 -13.5t-4 -13.5q-100 -14 -152 -128t-86 -304t-70 -273t-93 -113t-166 -30q-6 0 -6 12.5t6 12.5q70 0 117 56.5t65 160.5q49 248 79 351.5t81 161.5t158 106
q-82 43 -115 92t-33 136q-1 87 27 261t29 207q0 143 -109 143z" />
    <glyph glyph-name="asciitilde" unicode="~" horiz-adv-x="907" 
d="M104 311q-6 0 -10 5.5t0 9.5q112 149 230 149q46 0 155 -36t166 -36t89 19.5t69 58.5h2q6 0 10 -5t2 -9q-76 -88 -121 -119t-103 -31t-163 36t-162 36t-82.5 -14.5t-47 -36t-29.5 -27.5h-5z" />
    <glyph glyph-name="uni00A0" unicode="&#xa0;" horiz-adv-x="479" 
 />
    <glyph glyph-name="exclamdown" unicode="&#xa1;" horiz-adv-x="448" 
d="M71.5 -571q-30.5 0 -58 8t-25.5 16q92 268 233 881q2 10 13.5 9t9.5 -11q-76 -575 -86 -879q0 -8 -28 -16t-58.5 -8zM262.5 575q-63.5 0 -63.5 62.5t22.5 85t63.5 22.5t64.5 -22.5t23.5 -62.5t-23.5 -62.5t-87 -22.5z" />
    <glyph glyph-name="cent" unicode="&#xa2;" horiz-adv-x="1001" 
d="M207 383q0 -141 60.5 -245.5t178.5 -127.5l166 942q-143 -10 -274 -159.5t-131 -409.5zM930 668q-10 0 -12 10q-4 131 -75 200.5t-192 73.5l-166 -948h27q231 0 352 283q4 6 10.5 6t11.5 -3t3 -7l-62 -220q-4 -16 -9 -21t-19 -13q-160 -53 -305 -54h-15l-33 -186
q0 -12 -13 -12q-29 0 -25 16l32 184q-190 16 -277 133t-87 295t91 303.5t204.5 193t244.5 79.5l31 172q-1 12 13 12q30 0 26 -18l-29 -164h17q70 0 145 -17.5t107 -35.5t34.5 -23.5t0.5 -21.5l-19 -207q-2 -10 -12 -10z" />
    <glyph glyph-name="sterling" unicode="&#xa3;" horiz-adv-x="794" 
d="M717 692q-8 0 -13.5 3t-3.5 10q2 100 -35.5 173.5t-127.5 73.5t-143.5 -61t-66.5 -129t-13 -118t10 -150h206q12 0 12 -22t-12 -23h-202q8 -184 -41 -256t-99 -109h230q80 0 122 13.5t67.5 48t54.5 108.5q4 6 10 6t10 -4t2 -10q-39 -115 -49 -176t-16.5 -65.5t-22.5 -4.5
h-596q-8 0 -9 12.5t9 14.5q102 27 156.5 86t54.5 243q0 49 -6 93h-90q-15 1 -15 23t15 22h86q-8 66 -8 106q0 209 119.5 296t250.5 87q86 0 160 -37q27 -12 27 -37l-25 -209q0 -8 -8 -8z" />
    <glyph glyph-name="currency" unicode="&#xa4;" horiz-adv-x="768" 
d="M547 446q0 88 -37.5 146.5t-105.5 58.5q-140 0 -179 -202q-6 -37 -6 -101t34.5 -122t102.5 -58t129.5 69.5t61.5 208.5zM655 463q0 -137 -102 -236l72 -98l-62 -55l-69 108q-80 -49 -164 -49t-137 43l-101 -102l-35 49l99 94q-39 59 -39 145q0 147 106 240l-73 100l63 52
l72 -111q79 43 159 43t136 -49l112 111l33 -46l-111 -102q41 -59 41 -137z" />
    <glyph glyph-name="yen" unicode="&#xa5;" horiz-adv-x="886" 
d="M727 881q0 53 -63 53q-6 0 -6.5 12t6.5 12l79 -2q61 -4 99 -4t76 4l53 2q6 0 6 -12t-6 -12q-125 0 -258 -186l-199 -275l-6 -37h190q12 0 12 -22t-12 -21h-198l-15 -80h191q12 1 12 -21t-12 -22h-199l-18 -108q-8 -53 -8 -64q0 -45 29.5 -59t111.5 -14q6 0 6 -12.5
t-6 -12.5q-59 0 -92 2l-125 2l-123 -2q-35 -2 -92 -2q-8 0 -8 12.5t8 12.5q70 0 105.5 11t53 40.5t27.5 91.5l19 102h-193q-14 0 -14 22t12 21h203l14 80h-197q-12 -1 -12 21t12 22h203l2 4l-143 351q-35 80 -67.5 111.5t-88.5 31.5q-8 0 -8 12t13 12t59 -4l53 -2
q57 0 147 4l89 2q8 0 8 -12t-8 -12q-92 0 -93 -53q0 -18 9 -37l139 -338l172 250q51 72 51 125z" />
    <glyph glyph-name="brokenbar" unicode="&#xa6;" horiz-adv-x="311" 
d="M68 -324q-2 -10 -39 -10t-33 19l131 757q1 12 23 12t37.5 -5t13.5 -13zM254 731q0 -12 -38 -12t-34 18l131 760q2 10 40 10t34 -18z" />
    <glyph glyph-name="section" unicode="&#xa7;" horiz-adv-x="800" 
d="M512 80q86 98 86 234t-60 198t-124 114t-90 81q-86 -98 -86 -250q0 -96 46 -158.5t124 -124.5t104 -94zM723 893q-10 0 -10 4q0 49 -25.5 101.5t-72 88t-103.5 35.5q-125 0 -150 -147q-4 -29 -4 -43q0 -72 39 -121t109 -105t133 -120.5t63 -181.5t-48 -195t-128 -148
q49 -59 49 -135q0 -33 -4 -49q-23 -129 -114 -195.5t-199 -66.5t-168 35q-16 14 -14 35l24 202q0 6 11.5 6.5t9.5 -6.5q2 -47 27.5 -99t71.5 -88t104 -36q123 0 149 148q4 29 4 41q0 72 -37.5 119.5t-109.5 105.5t-134.5 122.5t-62.5 183.5t47 194t127 147q-49 63 -49 137
q0 14 4 47q25 129 117.5 195.5t198.5 66.5t165 -36q17 -10 15 -33l-25 -205q0 -4 -10 -4z" />
    <glyph glyph-name="dieresis" unicode="&#xa8;" horiz-adv-x="563" 
d="M465 1062q0 40 23.5 61.5t63.5 21.5t62.5 -21.5t22.5 -61.5t-22.5 -62.5t-62.5 -22.5t-63.5 22.5t-23.5 62.5zM266.5 1145q63.5 0 63.5 -83q0 -40 -22.5 -62.5t-62.5 -22.5t-63.5 23.5t-23.5 62.5t22.5 60.5t86 21.5z" />
    <glyph glyph-name="copyright" unicode="&#xa9;" horiz-adv-x="1484" 
d="M154 385q0 186 92 330.5t245.5 224.5t316.5 80t279.5 -63.5t180 -170t63.5 -232.5t-66.5 -235.5t-182.5 -174t-248 -64.5t-213.5 46t-120.5 118.5t-39 165.5t51 172.5t133 121t162 41.5t139.5 -28.5t61.5 -73.5q0 -25 -17.5 -42t-41.5 -17t-40 14t-39 45t-46 49.5
t-66 18.5q-90 0 -129 -66.5t-39 -199.5t72.5 -221.5t232.5 -88.5q94 0 175 39t131 120t50 206t-65.5 234.5t-178.5 174t-263 64.5t-263.5 -72t-173 -193.5t-59.5 -289.5t86 -300t217 -197.5t258 -65.5t215 18t197 76h2q4 0 7 -5t1 -10q-109 -84 -221 -113.5t-254 -29.5
t-282 68.5t-230 204t-90 321.5z" />
    <glyph glyph-name="ordfeminine" unicode="&#xaa;" horiz-adv-x="565" 
d="M551 641q10 0 10 -26.5t-10 -26.5h-461q-8 0 -8 26.5t6 26.5h463zM502 1163q0 86 -82 86q-47 0 -96.5 -42t-94.5 -129t-45 -180t56 -93q41 0 96 50q54 50 110 144t56 164zM518 842q0 -43 24 -43t87 67q0 2 4 2t10 -7t4 -9q-95 -107 -153 -107q-47 0 -48 62q0 31 9 70
l20 122q-61 -121 -137 -190.5t-145 -69.5q-82 0 -82 99.5t56 207t140 179t150.5 71.5t95.5 -34q18 23 27 45q2 4 12 3t10 -5l-80 -428q-4 -29 -4 -35z" />
    <glyph glyph-name="guillemotleft" unicode="&#xab;" horiz-adv-x="868" 
d="M801 745q6 0 12 -6t2 -10l-283 -317l173 -316v-2q0 -6 -7.5 -12t-9.5 0l-278 305q-16 27 6 47l383 311h2zM500 745q6 0 12 -6t0 -10l-281 -317l172 -316v-2q0 -6 -7 -12t-11 0l-276 305q-16 27 6 47l381 311h4z" />
    <glyph glyph-name="logicalnot" unicode="&#xac;" horiz-adv-x="815" 
d="M72 467q-11 0 -11 41t9 41h678v-389q0 -10 -40 -10t-40 8v309h-596z" />
    <glyph glyph-name="uni00AD" unicode="&#xad;" horiz-adv-x="624" 
d="M55 385q0 47 6 47l510 96q11 6 11 -42t-9 -48l-507 -96q-11 -4 -11 43z" />
    <glyph glyph-name="registered" unicode="&#xae;" horiz-adv-x="1560" 
d="M852 926q172 0 172 184q0 109 -104 109q-39 0 -68 -8t-43 -91l-33 -188q39 -6 76 -6zM637 1214q-2 0 -2 10t6 15l145 -2q29 0 91 4l79 2q84 0 125 -24.5t41 -79.5q0 -20 -2 -31q-23 -121 -145 -178q45 -137 72.5 -202.5t61.5 -100.5t85 -41q4 0 3 -8.5t-5 -8.5h-162
q-33 0 -147 332q-51 -8 -113 -6l-37 -211q-4 -18 -4 -46t19.5 -37t74.5 -9q2 0 2 -8t-6 -15l-149 2l-146 -2q-2 1 -2 9t6 14q47 0 68.5 6t31 24.5t17.5 61.5l80 440q4 34 4 52q0 38 -92 38zM1399 866q0 160 -74 291t-204 206t-289.5 75t-273.5 -70t-171 -185t-57 -275
t84 -293.5t214 -203t276 -69.5t259 64.5t174.5 182t61.5 277.5zM1479 912q0 -164 -87 -311.5t-232.5 -232.5t-306.5 -85t-300 70.5t-226 204.5t-87 314t91 318.5t242.5 216.5t324.5 78t305 -76t204 -204.5t72 -292.5z" />
    <glyph glyph-name="macron" unicode="&#xaf;" horiz-adv-x="681" 
d="M207 979q-14 0 -14 30.5t14 30.5h485q12 0 12 -30t-12 -31h-485z" />
    <glyph glyph-name="degree" unicode="&#xb0;" horiz-adv-x="612" 
d="M451 1264q-86 0 -127.5 -55t-57.5 -129t-16 -126q0 -164 147 -163q84 0 121 51t51 132t15 132q0 158 -133 158zM139 997q0 134 101.5 213.5t219.5 79.5t176 -66.5t58 -156.5t-43 -157.5t-115 -106.5t-174 -39t-162.5 69.5t-60.5 163.5z" />
    <glyph glyph-name="plusminus" unicode="&#xb1;" horiz-adv-x="815" 
d="M745 76q11 0 11 -37t-11 -37h-675q-11 0 -11 37t9 37h677zM70 477q-11 0 -11 40t9 40h299v299q0 8 41 8t41 -8v-299h296q11 0 11 -40t-11 -40h-296v-297q0 -10 -41 -10t-41 8v299h-297z" />
    <glyph glyph-name="uni00B2" unicode="&#xb2;" horiz-adv-x="466" 
d="M467 1374q-1 30 -21 52t-59 22t-79 -34t-62 -87q0 -4 -7 -4q-20 0 -16 12q72 158 205 158q63 0 95 -33t32 -71t-2 -50q-10 -57 -58 -117t-150 -163t-128 -156q-2 -2 2 -2q125 0 170 6q45 5 63 25t44 84q4 6 9 6q17 0 13 -12l-33 -179q0 -6 -6 -6h-329q-10 0 -5 19
q27 59 126 178q98 120 147 194t49 158z" />
    <glyph glyph-name="uni00B3" unicode="&#xb3;" horiz-adv-x="466" 
d="M514 1041q0 -52 -29 -105t-79 -88t-117 -35q-131 0 -146 141v2q1 6 11 8t12 -6q20 -109 113 -108q51 0 89 37t46 89t8 64q0 59 -32 88t-81 29q-6 0 -6 12t6 13q41 0 75 28t53 72q42 95 -1 142q-20 24 -59 24t-77 -33t-58 -82q-4 -4 -10 -4t-10 4q-5 4 -3 8
q69 152 201 152q59 0 93 -34t34 -97t-48 -115q-48 -53 -104 -73q53 -14 86 -48t33 -85z" />
    <glyph glyph-name="acute" unicode="&#xb4;" horiz-adv-x="434" 
d="M523 1497q23 0 22 -8l-301 -520q-2 -6 -13.5 -2t-7.5 8l191 491q4 10 45 20.5t64 10.5z" />
    <glyph glyph-name="paragraph" unicode="&#xb6;" horiz-adv-x="1216" 
d="M1278 1267.5q0 -12.5 -10 -12.5q-80 0 -132.5 -43t-66.5 -122l-170 -977q-47 -264 -137 -386t-236 -122q-57 0 -90 22.5t-33 56.5t21.5 54t50.5 20t40 -12t21 -39t21.5 -40t48.5 -13t61.5 27.5t44 102.5t48.5 232l43 240q-76 -6 -164 -6q-203 0 -343 100.5t-140 315.5
q0 57 12 125q47 244 211 369.5t412 125.5l272 -12q39 0 108 4l97 2q10 0 10 -12.5z" />
    <glyph glyph-name="periodcentered" unicode="&#xb7;" horiz-adv-x="409" 
d="M229.5 502q63.5 0 63.5 -62.5t-22.5 -85t-63.5 -22.5t-64.5 22.5t-23.5 62.5t23.5 62.5t87 22.5z" />
    <glyph glyph-name="cedilla" unicode="&#xb8;" horiz-adv-x="401" 
d="M-113 -483q0 59 60 59q23 0 35 -13t26 -39t23.5 -37t27.5 -11q59 0 74 75q8 66 -76 166q-57 68 -10 160l59 123h27q-29 -59 -29 -107t56 -120q56 -71 56 -141t-63 -132.5t-151 -62.5q-47 0 -81 21.5t-34 58.5z" />
    <glyph glyph-name="uni00B9" unicode="&#xb9;" horiz-adv-x="485" 
d="M361 1393q-20 0 -113 -41h-4q-8 0 -12 9q-3 9 6 13l233 119h4q6 0 10 -5t2 -9l-84 -490q-12 -73 -12 -97t22 -34t83 -10q8 0 8 -11t-8 -12q-41 0 -66 2l-92 2l-98 -2q-27 -2 -72 -2q-8 1 -8 12t8 11q61 0 87 8t39 36t25 97l43 242q18 111 18 137t-19 25z" />
    <glyph glyph-name="ordmasculine" unicode="&#xba;" horiz-adv-x="550" 
d="M100 588q-10 0 -10 26.5t8 26.5h453q10 0 10 -26.5t-10 -26.5h-451zM526 1055q0 90 -38 145q-36 55 -100 55q-132 0 -167 -194q-8 -39 -8 -107.5t36 -125t97.5 -56.5t107.5 52.5t59 129t13 101.5zM428 1290q84 0 132 -61.5t48 -153.5t-44 -171t-113.5 -124t-146.5 -45
t-124 60.5t-47 172.5q1 112 57 186q102 136 238 136z" />
    <glyph glyph-name="guillemotright" unicode="&#xbb;" horiz-adv-x="866" 
d="M373 76q-6 0 -12.5 6t-0.5 12l283 316l-174 315v2q0 6 7 12t11 0l277 -305q6 -8 6 -21t-12 -26l-381 -311h-4zM72 76q-6 0 -12.5 6t-2.5 12l283 316l-172 315v2q0 6 7 12t9 0l279 -305q6 -8 6 -21t-12 -26l-383 -311h-2z" />
    <glyph glyph-name="onequarter" unicode="&#xbc;" horiz-adv-x="1122" 
d="M344 1174q0 26 -22 26t-111 -41h-4q-8 0 -11 9t5 14l233 118h4q6 0 10 -5t3 -9l-84 -489q-13 -73 -13 -97t22 -34t83 -11q8 0 8 -11t-8 -11q-41 0 -66 2l-92 2l-98 -2q-27 -2 -72 -2q-8 0 -8 11t8 11q61 1 87 9t39 36t26 97l43 241q18 110 18 136zM304 -8q-7 0 -25 9
t-17 13l692 1266q2 2 10 2t25 -9q16 -9 15 -18l-693 -1261q0 -2 -7 -2zM885 229l51 293l-209 -289q-6 -6 4 -6zM1047 225q-1 -12 -5 -29t-8 -18l-80 6l-16 -100l-4 -33q0 -18 14 -24t58 -7q10 0 10 -12t-10 -12q-31 0 -48 2l-65 2l-86 -2q-20 -2 -59 -2q-8 0 -9 12
q0 12 9 12q66 0 85 12t27 52l19 102q-127 4 -230 4q-2 0 -4 4t2 9l371 463q2 2 6 2t9 -3t3 -10l-71 -422l79 5q3 -1 3 -13z" />
    <glyph glyph-name="onehalf" unicode="&#xbd;" horiz-adv-x="1150" 
d="M344 1174q0 26 -22 26t-111 -41h-4q-8 0 -11 9t5 14l233 118h4q6 0 10 -5t3 -9l-84 -489q-13 -73 -13 -97t22 -34t83 -11q8 0 8 -11t-8 -11q-41 0 -66 2l-92 2l-98 -2q-27 -2 -72 -2q-8 0 -8 11t8 11q61 1 87 9t39 36t26 97l43 241q18 110 18 136zM304 -8q-7 0 -25 9
t-17 13l692 1266q2 2 10 2t25 -9q16 -9 15 -18l-693 -1261q0 -2 -7 -2zM1008 549q0 29 -20 51t-60 23q-39 0 -79 -34t-63 -87q0 -4 -7 -4q-19 0 -15 12q72 158 205 158q63 0 95 -33t32 -71t-2 -50q-10 -58 -58 -118t-150 -162t-128 -156q-2 -2 2 -2q125 0 170 6t62 26t44 82
q8 11 16 6q9 -5 7 -12l-33 -178q0 -6 -6 -6h-330q-10 0 2 30t45 73q33 44 103 129t118 160q50 75 50 157z" />
    <glyph glyph-name="threequarters" unicode="&#xbe;" horiz-adv-x="1103" 
d="M477 848q-1 -50 -29 -104t-79 -89t-117 -34q-131 0 -146 141v2q0 6 10 8t13 -6q20 -109 113 -109q51 0 89 37q38 38 46 90t8 64q0 59 -32 88t-81 29q-6 0 -6 12t6 12q41 0 75 29t53 72q41 94 -1 142q-20 24 -59 24t-77 -34q-38 -32 -58 -81q-4 -4 -9 -4q-4 0 -10 4t-4 8
q69 151 201 151q59 0 93 -34t34 -96q0 -63 -48 -115q-48 -53 -104 -74q119 -31 119 -133zM286 -8q-7 0 -26 9q-18 9 -16 13l692 1266q2 2 10 2t24 -9t15 -18l-692 -1261q0 -2 -7 -2zM866 229l52 293l-209 -289q-6 -6 4 -6zM1028 225q0 -12 -4 -29t-8 -18l-80 6l-21 -133
q1 -18 15 -24t57 -7q10 0 10 -12t-10 -12q-31 0 -47 2l-66 2l-86 -2q-20 -2 -59 -2q-8 0 -8 12t8 12q66 0 85 12t28 52l18 102q-127 4 -229 4q-2 0 -4 4t2 9l370 463q3 2 7 2t9 -3t3 -10l-72 -422l80 5q2 -1 2 -13z" />
    <glyph glyph-name="questiondown" unicode="&#xbf;" horiz-adv-x="622" 
d="M395 182q0 -66 -7 -114q-12 -82 -140 -185q-68 -55 -115 -113t-47 -144q0 -161 127 -161q53 0 76 25t35 66t30.5 65.5t50.5 24.5t47 -16.5t15 -41.5q0 -63 -82 -107t-188.5 -44t-169 50t-62.5 151t55.5 168t98.5 103t55 46q84 68 120 123.5t46 113.5t6 134q0 8 11.5 9
t13.5 -7q24 -80 24 -146zM385.5 567q-63.5 0 -63.5 62.5t22.5 85t63.5 22.5t64.5 -22.5t23.5 -62.5t-23.5 -62.5t-87 -22.5z" />
    <glyph glyph-name="Agrave" unicode="&#xc0;" horiz-adv-x="1228" 
d="M791 719l-64 395l-217 -395h281zM-78 12.5q0 12.5 8 12.5q59 0 128 53t137 176l587 1046q4 6 18.5 6.5t18.5 -10.5l180 -1124q11 -63 23 -92q24 -55 133 -55q6 0 6 -12.5t-6 -12.5l-209 8l-198 -8q-8 0 -8.5 12.5t8.5 12.5q76 0 106.5 19t30.5 57.5t-6 70.5l-82 504h-310
l-223 -406q-63 -119 -63 -167t32.5 -63t100.5 -15q6 0 6 -12.5t-8 -12.5l-213 8l-189 -8q-8 0 -8 12.5zM999 1410q0 -5 -5 -11t-11 -4q-187 98 -383 153q-16 4 18.5 20.5t80.5 30t55 7.5q143 -123 243 -189q2 -2 2 -7z" />
    <glyph glyph-name="Aacute" unicode="&#xc1;" horiz-adv-x="1228" 
d="M791 719l-64 395l-217 -395h281zM-78 12.5q0 12.5 8 12.5q59 0 128 53t137 176l587 1046q4 6 18.5 6.5t18.5 -10.5l180 -1124q11 -63 23 -92q24 -55 133 -55q6 0 6 -12.5t-6 -12.5l-209 8l-198 -8q-8 0 -8.5 12.5t8.5 12.5q76 0 106.5 19t30.5 57.5t-6 70.5l-82 504h-310
l-223 -406q-63 -119 -63 -167t32.5 -63t100.5 -15q6 0 6 -12.5t-8 -12.5l-213 8l-189 -8q-8 0 -8 12.5zM688 1389q-8 0 -10 9t4 13q76 37 186.5 105.5t147.5 89.5q8 6 48 -7.5t69.5 -30t13.5 -20.5q-215 -53 -455 -157z" />
    <glyph glyph-name="Acircumflex" unicode="&#xc2;" horiz-adv-x="1228" 
d="M791 719l-64 395l-217 -395h281zM-78 12.5q0 12.5 8 12.5q59 0 128 53t137 176l587 1046q4 6 18.5 6.5t18.5 -10.5l180 -1124q11 -63 23 -92q24 -55 133 -55q6 0 6 -12.5t-6 -12.5l-209 8l-198 -8q-8 0 -8.5 12.5t8.5 12.5q76 0 106.5 19t30.5 57.5t-6 70.5l-82 504h-310
l-223 -406q-63 -119 -63 -167t32.5 -63t100.5 -15q6 0 6 -12.5t-8 -12.5l-213 8l-189 -8q-8 0 -8 12.5zM618 1352q-6 0 -10 5t0 9l219 199q10 10 19.5 10t19.5 -10l150 -199l2 -4q0 -4 -6 -8t-11 -2l-174 116l-206 -116h-3z" />
    <glyph glyph-name="Atilde" unicode="&#xc3;" horiz-adv-x="1228" 
d="M791 719l-64 395l-217 -395h281zM-78 12.5q0 12.5 8 12.5q59 0 128 53t137 176l587 1046q4 6 18.5 6.5t18.5 -10.5l180 -1124q11 -63 23 -92q24 -55 133 -55q6 0 6 -12.5t-6 -12.5l-209 8l-198 -8q-8 0 -8.5 12.5t8.5 12.5q76 0 106.5 19t30.5 57.5t-6 70.5l-82 504h-310
l-223 -406q-63 -119 -63 -167t32.5 -63t100.5 -15q6 0 6 -12.5t-8 -12.5l-213 8l-189 -8q-8 0 -8 12.5zM578 1423q-4 0 -9.5 5.5t-3.5 9.5q96 127 178 127q44 0 120.5 -25t124.5 -24.5t70.5 13.5t47.5 42h2q6 0 11 -5t1 -10q-55 -76 -90 -102.5t-77 -26.5t-87 13.5t-89 26
t-85 12.5t-60.5 -11.5t-33.5 -26t-18 -18.5h-2z" />
    <glyph glyph-name="Adieresis" unicode="&#xc4;" horiz-adv-x="1228" 
d="M791 719l-64 395l-217 -395h281zM-78 12.5q0 12.5 8 12.5q59 0 128 53t137 176l587 1046q4 6 18.5 6.5t18.5 -10.5l180 -1124q11 -63 23 -92q24 -55 133 -55q6 0 6 -12.5t-6 -12.5l-209 8l-198 -8q-8 0 -8.5 12.5t8.5 12.5q76 0 106.5 19t30.5 57.5t-6 70.5l-82 504h-310
l-223 -406q-63 -119 -63 -167t32.5 -63t100.5 -15q6 0 6 -12.5t-8 -12.5l-213 8l-189 -8q-8 0 -8 12.5zM909 1551q0 40 23.5 61.5t63.5 21.5t62.5 -21.5t22.5 -61.5t-22.5 -62.5t-62.5 -22.5t-63.5 22.5t-23.5 62.5zM688 1634q86 0 86 -83q0 -40 -22.5 -62.5t-62.5 -22.5
t-63.5 23.5t-23.5 62.5t22.5 60.5t63.5 21.5z" />
    <glyph glyph-name="Aring" unicode="&#xc5;" horiz-adv-x="1228" 
d="M791 719l-64 395l-217 -395h281zM-78 12.5q0 12.5 8 12.5q59 0 128 53t137 176l587 1046q4 6 18.5 6.5t18.5 -10.5l180 -1124q11 -63 23 -92q24 -55 133 -55q6 0 6 -12.5t-6 -12.5l-209 8l-198 -8q-8 0 -8.5 12.5t8.5 12.5q76 0 106.5 19t30.5 57.5t-6 70.5l-82 504h-310
l-223 -406q-63 -119 -63 -167t32.5 -63t100.5 -15q6 0 6 -12.5t-8 -12.5l-213 8l-189 -8q-8 0 -8 12.5zM903 1497q0 70 -34.5 124t-80.5 54q-53 0 -53 -83t30 -139t77 -56q61 0 61 100zM649 1541q0 71 56.5 113t124 42t114.5 -47t47 -118t-55 -114t-127 -43t-116 48t-44 119
z" />
    <glyph glyph-name="AE" unicode="&#xc6;" horiz-adv-x="1574" 
d="M868 686l60 459l-344 -459h284zM-125 12.5q0 12.5 10 12.5q80 0 152 51t178 196l672 906q31 46 31 58q0 19 -140 19q-8 0 -8 12.5t8 12.5h774q19 0 15 -18l-19 -125q-10 -78 -20 -131q-2 -6 -14.5 -4t-10.5 12t2 39q0 92 -46 145t-134 53h-78q-80 0 -121 -11t-59 -40
t-27 -88l-53 -426h234q84 0 126 35t58 115q0 8 11 6t9 -11l-20 -114l-8 -51l-11 -62q-6 -63 -20 -129q0 -4 -7 -4t-13 3q-5 2 -1 20q5 18 5 60q1 91 -144 91h-223l-59 -471q-4 -45 -4 -59q0 -47 26.5 -62.5t104.5 -15.5h141q80 0 152.5 73.5t115.5 196.5q0 2 12 2t11 -8
q-35 -113 -52.5 -200.5t-23.5 -94t-23 -6.5h-763q-8 0 -8.5 12.5t8.5 12.5q68 0 103.5 11t52 39.5t24.5 90.5l61 479h-309l-293 -393q-76 -100 -76 -156q0 -72 133 -71q8 0 7.5 -12.5t-7.5 -12.5l-235 8l-197 -8q-10 0 -10 12.5z" />
    <glyph glyph-name="Ccedilla" unicode="&#xc7;" horiz-adv-x="1200" 
d="M661.5 2q118.5 0 229 77t199.5 230q4 4 8 4t9 -4t3 -8l-61 -221q-6 -25 -12.5 -34t-22.5 -13q-186 -59 -363 -60q-18 -47 -18 -89t47 -97q66 -86 65.5 -155.5t-62.5 -132t-151 -62.5q-47 0 -80.5 21.5t-33.5 54.5q0 63 59 63q23 0 35 -13.5t29 -39.5q12 -25 21 -36
t28 -11q59 0 74 75q8 66 -76 166q-31 37 -31 79t21 81l47 96q-260 6 -382 157t-122 370q-1 277 163 490q114 149 275.5 231t327.5 82q86 0 169 -19.5t114.5 -42.5t31.5 -37t-2 -22l-18 -228q-2 -8 -12.5 -8t-10.5 8q-27 303 -348 303q-131 0 -241.5 -67.5t-185.5 -192.5
q-113 -188 -116 -460q0 -154 48.5 -276t137.5 -190.5t207.5 -68.5z" />
    <glyph glyph-name="Egrave" unicode="&#xc8;" horiz-adv-x="1052" 
d="M987 1053q0 90 -42 142t-116 52h-167q-66 0 -98 -10t-47 -38t-25 -87l-74 -426h287q82 0 119.5 33t52.5 112q2 10 14 9.5t10 -11.5l-31 -163l-12 -78q-2 -12 -16 -113q-2 -8 -14.5 -7t-10.5 9q6 35 6 76q0 92 -133 92h-280l-82 -471q-8 -53 -9 -63q0 -43 28 -58.5
t102 -15.5h223q78 0 150.5 74.5t115.5 195.5q0 2 13 2t12 -8q-31 -92 -50.5 -190t-25.5 -104.5t-23 -6.5h-831q-4 0 -4 12.5t4 12.5q66 0 98.5 10t48 39.5t27.5 91.5l168 948q6 41 6 76t-26.5 50t-102.5 15q-6 0 -6 12.5t6 12.5h784q17 0 13 -18l-19 -125q-10 -78 -20 -131
q0 -6 -8.5 -6.5t-13.5 3t-3 12.5t2 38zM891 1410q0 -5 -5 -11t-12 -4q-186 97 -382 153q-16 4 18.5 20.5t80.5 30t54 7.5q144 -124 244 -189q2 -2 2 -7z" />
    <glyph glyph-name="Eacute" unicode="&#xc9;" horiz-adv-x="1052" 
d="M987 1053q0 90 -42 142t-116 52h-167q-66 0 -98 -10t-47 -38t-25 -87l-74 -426h287q82 0 119.5 33t52.5 112q2 10 14 9.5t10 -11.5l-31 -163l-12 -78q-2 -12 -16 -113q-2 -8 -14.5 -7t-10.5 9q6 35 6 76q0 92 -133 92h-280l-82 -471q-8 -53 -9 -63q0 -43 28 -58.5
t102 -15.5h223q78 0 150.5 74.5t115.5 195.5q0 2 13 2t12 -8q-31 -92 -50.5 -190t-25.5 -104.5t-23 -6.5h-831q-4 0 -4 12.5t4 12.5q66 0 98.5 10t48 39.5t27.5 91.5l168 948q6 41 6 76t-26.5 50t-102.5 15q-6 0 -6 12.5t6 12.5h784q17 0 13 -18l-19 -125q-10 -78 -20 -131
q0 -6 -8.5 -6.5t-13.5 3t-3 12.5t2 38zM580 1389q-8 0 -10.5 9t3.5 13q76 37 187 105.5t147 89.5q8 6 48 -7.5t70 -30t13 -20.5q-218 -53 -454 -157z" />
    <glyph glyph-name="Ecircumflex" unicode="&#xca;" horiz-adv-x="1052" 
d="M987 1053q0 90 -42 142t-116 52h-167q-66 0 -98 -10t-47 -38t-25 -87l-74 -426h287q82 0 119.5 33t52.5 112q2 10 14 9.5t10 -11.5l-31 -163l-12 -78q-2 -12 -16 -113q-2 -8 -14.5 -7t-10.5 9q6 35 6 76q0 92 -133 92h-280l-82 -471q-8 -53 -9 -63q0 -43 28 -58.5
t102 -15.5h223q78 0 150.5 74.5t115.5 195.5q0 2 13 2t12 -8q-31 -92 -50.5 -190t-25.5 -104.5t-23 -6.5h-831q-4 0 -4 12.5t4 12.5q66 0 98.5 10t48 39.5t27.5 91.5l168 948q6 41 6 76t-26.5 50t-102.5 15q-6 0 -6 12.5t6 12.5h784q17 0 13 -18l-19 -125q-10 -78 -20 -131
q0 -6 -8.5 -6.5t-13.5 3t-3 12.5t2 38zM510 1352q-6 0 -10 5t0 9l219 199q10 10 19 10t20 -10l149 -199l2 -4q0 -4 -6 -8t-10 -2l-174 116l-207 -116h-2z" />
    <glyph glyph-name="Edieresis" unicode="&#xcb;" horiz-adv-x="1052" 
d="M987 1053q0 90 -42 142t-116 52h-167q-66 0 -98 -10t-47 -38t-25 -87l-74 -426h287q82 0 119.5 33t52.5 112q2 10 14 9.5t10 -11.5l-31 -163l-12 -78q-2 -12 -16 -113q-2 -8 -14.5 -7t-10.5 9q6 35 6 76q0 92 -133 92h-280l-82 -471q-8 -53 -9 -63q0 -43 28 -58.5
t102 -15.5h223q78 0 150.5 74.5t115.5 195.5q0 2 13 2t12 -8q-31 -92 -50.5 -190t-25.5 -104.5t-23 -6.5h-831q-4 0 -4 12.5t4 12.5q66 0 98.5 10t48 39.5t27.5 91.5l168 948q6 41 6 76t-26.5 50t-102.5 15q-6 0 -6 12.5t6 12.5h784q17 0 13 -18l-19 -125q-10 -78 -20 -131
q0 -6 -8.5 -6.5t-13.5 3t-3 12.5t2 38zM801 1551q0 40 23.5 61.5t63.5 21.5t62.5 -21.5t22.5 -61.5t-22.5 -62.5t-62.5 -22.5t-63.5 22.5t-23.5 62.5zM580 1634q86 0 86 -83q0 -40 -22.5 -62.5t-62.5 -22.5t-63.5 23.5t-23.5 62.5t22.5 60.5t63.5 21.5z" />
    <glyph glyph-name="Igrave" unicode="&#xcc;" horiz-adv-x="630" 
d="M35 12.5q0 12.5 6 12.5q66 0 98.5 10t48 39.5t27.5 91.5l168 948q6 37 6 74t-27.5 52t-105.5 15q-4 0 -4 12.5t4 12.5l86 -2q74 -4 125 -4t129 4l80 2q4 0 4 -12.5t-4 -12.5q-66 0 -97.5 -12t-48 -42t-28.5 -91l-168 -944q-6 -39 -6 -75t27.5 -51t105.5 -15q4 0 4 -12.5
t-4 -12.5q-53 0 -84 2l-127 2l-121 -2q-33 -2 -88 -2q-6 0 -6 12.5zM670 1410q0 -5 -5.5 -11t-11.5 -4q-187 98 -383 153q-16 4 19 20.5t81 30t54 7.5q144 -124 244 -189q2 -2 2 -7z" />
    <glyph glyph-name="Iacute" unicode="&#xcd;" horiz-adv-x="630" 
d="M35 12.5q0 12.5 6 12.5q66 0 98.5 10t48 39.5t27.5 91.5l168 948q6 37 6 74t-27.5 52t-105.5 15q-4 0 -4 12.5t4 12.5l86 -2q74 -4 125 -4t129 4l80 2q4 0 4 -12.5t-4 -12.5q-66 0 -97.5 -12t-48 -42t-28.5 -91l-168 -944q-6 -39 -6 -75t27.5 -51t105.5 -15q4 0 4 -12.5
t-4 -12.5q-53 0 -84 2l-127 2l-121 -2q-33 -2 -88 -2q-6 0 -6 12.5zM358 1389q-8 0 -10 9t4 13q76 37 186.5 105.5t147.5 89.5q8 6 48 -7.5t70 -30t13 -20.5q-215 -53 -455 -157z" />
    <glyph glyph-name="Icircumflex" unicode="&#xce;" horiz-adv-x="630" 
d="M35 12.5q0 12.5 6 12.5q66 0 98.5 10t48 39.5t27.5 91.5l168 948q6 37 6 74t-27.5 52t-105.5 15q-4 0 -4 12.5t4 12.5l86 -2q74 -4 125 -4t129 4l80 2q4 0 4 -12.5t-4 -12.5q-66 0 -97.5 -12t-48 -42t-28.5 -91l-168 -944q-6 -39 -6 -75t27.5 -51t105.5 -15q4 0 4 -12.5
t-4 -12.5q-53 0 -84 2l-127 2l-121 -2q-33 -2 -88 -2q-6 0 -6 12.5zM289 1352q-6 0 -10.5 5t0.5 9l219 199q10 10 19 10t20 -10l149 -199l2 -4q0 -4 -6 -8t-10 -2l-174 116l-207 -116h-2z" />
    <glyph glyph-name="Idieresis" unicode="&#xcf;" horiz-adv-x="630" 
d="M35 12.5q0 12.5 6 12.5q66 0 98.5 10t48 39.5t27.5 91.5l168 948q6 37 6 74t-27.5 52t-105.5 15q-4 0 -4 12.5t4 12.5l86 -2q74 -4 125 -4t129 4l80 2q4 0 4 -12.5t-4 -12.5q-66 0 -97.5 -12t-48 -42t-28.5 -91l-168 -944q-6 -39 -6 -75t27.5 -51t105.5 -15q4 0 4 -12.5
t-4 -12.5q-53 0 -84 2l-127 2l-121 -2q-33 -2 -88 -2q-6 0 -6 12.5zM557 1551q0 40 23.5 61.5t63.5 21.5t62.5 -21.5t22.5 -61.5t-22.5 -62.5t-62.5 -22.5t-63.5 22.5t-23.5 62.5zM297 1551q0 40 23.5 62.5t63.5 22.5t62.5 -22.5t22.5 -62.5t-22.5 -62.5t-62.5 -22.5
t-63.5 22.5t-23.5 62.5z" />
    <glyph glyph-name="Eth" unicode="&#xd0;" horiz-adv-x="1251" 
d="M651 657q11 0 11 -20.5t-11 -20.5h-254l-75 -428q-8 -45 -9 -63q0 -53 36 -77.5t122 -24.5q143 0 265 69.5t207 203.5q134 211 134 486q0 209 -99 341t-286 132q-106 0 -149 -28.5t-60 -116.5l-80 -453h248zM1221 784q0 -72 -11 -122q-35 -199 -144.5 -351.5t-264 -235.5
t-318.5 -83l-252 12l-125 -2q-31 -2 -83 -2q-6 0 -6.5 12.5t6.5 12.5q66 0 98.5 10t48.5 39.5t29 91.5l80 450h-164q-8 0 -8.5 20.5t8.5 20.5h172l80 457q6 41 6 76t-27 50t-102 15q-6 0 -6 12.5t6 12.5l86 -2q74 -4 125 -4l231 10q162 0 284 -63.5t186.5 -177t64.5 -259.5z
" />
    <glyph glyph-name="Ntilde" unicode="&#xd1;" horiz-adv-x="1333" 
d="M1194 1151q0 104 -111 104q-6 0 -6 12.5t6 12.5l64 -2q57 -4 93 -4t93 4l74 2q4 0 4 -12.5t-4 -12.5q-76 0 -118 -46t-60 -148l-193 -1081q0 -11 -13 -11t-17 11l-603 1153l-159 -916q-8 -41 -8 -90q0 -102 112 -102q4 0 4 -12.5t-4 -12.5q-43 0 -65 2l-97 2l-88 -2
q-27 -2 -73 -2q-6 0 -6.5 12.5t6.5 12.5q74 0 116.5 45t59.5 147l172 965q-57 74 -129 73q-4 0 -4 12.5t4 12.5l71 -2q25 -2 64 -2l90 4q12 0 18.5 -7t15.5 -36t27 -63l504 -977l152 864q8 41 8 90zM586 1423q-4 0 -9.5 5.5t-3.5 9.5q96 127 179 127q43 0 119.5 -25
t125 -24.5t71 13.5t46.5 42h2q6 0 11.5 -5t0.5 -10q-55 -76 -89.5 -102.5t-76.5 -26.5t-87 13.5t-89.5 26t-85.5 12.5q-41 1 -60 -11q-20 -12 -34 -26l-18 -19h-2z" />
    <glyph glyph-name="Ograve" unicode="&#xd2;" horiz-adv-x="1333" 
d="M1169 758.5q0 126.5 -50 244t-143 184t-220 66.5q-182 0 -310 -135q-188 -200 -188 -588q0 -122 48 -242t141.5 -189.5t222.5 -69.5q176 0 303 131t176 372q20 100 20 226.5zM127 489q-1 273 149 493q102 151 250 236t303.5 85t259 -67t157.5 -182.5t54 -260.5
q0 -80 -14 -152q-35 -195 -140.5 -346.5t-255 -235.5t-300 -84t-252.5 67t-156.5 183.5t-54.5 263.5zM1022 1410q0 -5 -5 -11t-11 -4q-189 98 -383 153q-16 4 18.5 20.5t80.5 30t54 7.5q144 -124 244 -189q2 -2 2 -7z" />
    <glyph glyph-name="Oacute" unicode="&#xd3;" horiz-adv-x="1333" 
d="M1169 758.5q0 126.5 -50 244t-143 184t-220 66.5q-182 0 -310 -135q-188 -200 -188 -588q0 -122 48 -242t141.5 -189.5t222.5 -69.5q176 0 303 131t176 372q20 100 20 226.5zM127 489q-1 273 149 493q102 151 250 236t303.5 85t259 -67t157.5 -182.5t54 -260.5
q0 -80 -14 -152q-35 -195 -140.5 -346.5t-255 -235.5t-300 -84t-252.5 67t-156.5 183.5t-54.5 263.5zM711 1389q-8 0 -10.5 9t4.5 13q76 37 186.5 105.5t146.5 89.5q8 6 48 -7.5t70 -30t13 -20.5q-218 -53 -454 -157z" />
    <glyph glyph-name="Ocircumflex" unicode="&#xd4;" horiz-adv-x="1333" 
d="M1169 758.5q0 126.5 -50 244t-143 184t-220 66.5q-182 0 -310 -135q-188 -200 -188 -588q0 -122 48 -242t141.5 -189.5t222.5 -69.5q176 0 303 131t176 372q20 100 20 226.5zM127 489q-1 273 149 493q102 151 250 236t303.5 85t259 -67t157.5 -182.5t54 -260.5
q0 -80 -14 -152q-35 -195 -140.5 -346.5t-255 -235.5t-300 -84t-252.5 67t-156.5 183.5t-54.5 263.5zM641 1352q-6 0 -10 5t0 9l219 199q10 10 19 10t20 -10l149 -199l2 -4q0 -4 -6 -8t-10 -2l-174 116l-207 -116h-2z" />
    <glyph glyph-name="Otilde" unicode="&#xd5;" horiz-adv-x="1333" 
d="M1169 758.5q0 126.5 -50 244t-143 184t-220 66.5q-182 0 -310 -135q-188 -200 -188 -588q0 -122 48 -242t141.5 -189.5t222.5 -69.5q176 0 303 131t176 372q20 100 20 226.5zM127 489q-1 273 149 493q102 151 250 236t303.5 85t259 -67t157.5 -182.5t54 -260.5
q0 -80 -14 -152q-35 -195 -140.5 -346.5t-255 -235.5t-300 -84t-252.5 67t-156.5 183.5t-54.5 263.5zM600 1423q-4 0 -9 5.5t-3 9.5q96 127 178 127q43 0 119.5 -25t125 -24.5t71 13.5t46.5 42h2q6 0 11.5 -5t1.5 -10q-55 -76 -90 -102.5t-77 -26.5t-87 13.5t-89 26
t-85 12.5q-57 1 -95 -37l-18 -19h-2z" />
    <glyph glyph-name="Odieresis" unicode="&#xd6;" horiz-adv-x="1333" 
d="M1169 758.5q0 126.5 -50 244t-143 184t-220 66.5q-182 0 -310 -135q-188 -200 -188 -588q0 -122 48 -242t141.5 -189.5t222.5 -69.5q176 0 303 131t176 372q20 100 20 226.5zM127 489q-1 273 149 493q102 151 250 236t303.5 85t259 -67t157.5 -182.5t54 -260.5
q0 -80 -14 -152q-35 -195 -140.5 -346.5t-255 -235.5t-300 -84t-252.5 67t-156.5 183.5t-54.5 263.5zM932 1551q0 40 23.5 61.5t63.5 21.5t62.5 -21.5t22.5 -61.5t-22.5 -62.5t-62.5 -22.5t-63.5 22.5t-23.5 62.5zM711 1634q86 0 86 -83q0 -40 -22.5 -62.5t-62.5 -22.5
t-63.5 23.5t-23.5 62.5t22.5 60.5t63.5 21.5z" />
    <glyph glyph-name="multiply" unicode="&#xd7;" horiz-adv-x="815" 
d="M674 178q6 -6 -22.5 -34.5t-35.5 -22.5l-208 211l-211 -211q-6 -6 -35 21.5t-25 33.5l213 213l-211 211q-6 6 22.5 35t33.5 22l213 -211l208 209q6 6 35 -22.5t23 -34.5l-209 -209z" />
    <glyph glyph-name="Oslash" unicode="&#xd8;" horiz-adv-x="1333" 
d="M1169 765q0 132 -55 251l-778 -791q111 -196 334 -196q176 0 303 131t176 372q20 101 20 233zM258 559q0 -172 57 -293l779 789q-53 94 -140.5 146t-197.5 52q-182 0 -309.5 -135t-170.5 -368q-18 -99 -18 -191zM582 -25q-217 0 -340 154l-144 -145l-4 -2q-8 0 -20.5 13
t-5.5 19l147 150q-88 133 -88 325q-1 273 149 493q102 151 250 236t314 85q223 0 348 -154l139 141q0 2 6 2t18.5 -11t6.5 -17l-146 -148q88 -135 88 -325q0 -59 -14 -150q-35 -195 -140.5 -346.5t-255 -235.5t-308.5 -84z" />
    <glyph glyph-name="Ugrave" unicode="&#xd9;" horiz-adv-x="1265" 
d="M317 367q1 -330 311 -330q154 0 269 113.5t150 312.5l106 596q6 34 6 63q0 133 -131 133q-6 0 -6 12.5t6 12.5l84 -2q61 -4 97 -4t98 4l73 2q8 0 7 -12.5t-7 -12.5q-150 0 -184 -202l-104 -594q-41 -229 -184.5 -357.5t-332 -128.5t-287 96.5t-98.5 268.5q0 47 11 115
l116 665q8 53 9 66q0 43 -29 57t-109 14q-8 0 -7 12.5t7 12.5l93 -2q78 -4 126.5 -4t131.5 4l82 2q8 0 7 -12.5t-7 -12.5q-125 0 -157 -57q-18 -31 -28 -92l-104 -590q-14 -78 -15 -149zM1044 1402q0 -5 -4 -9t-10 -2q-248 108 -455 157q-16 4 13.5 20.5t69.5 30t49 7.5
q187 -120 333 -195q4 -4 4 -9z" />
    <glyph glyph-name="Uacute" unicode="&#xda;" horiz-adv-x="1265" 
d="M317 367q1 -330 311 -330q154 0 269 113.5t150 312.5l106 596q6 34 6 63q0 133 -131 133q-6 0 -6 12.5t6 12.5l84 -2q61 -4 97 -4t98 4l73 2q8 0 7 -12.5t-7 -12.5q-150 0 -184 -202l-104 -594q-41 -229 -184.5 -357.5t-332 -128.5t-287 96.5t-98.5 268.5q0 47 11 115
l116 665q8 53 9 66q0 43 -29 57t-109 14q-8 0 -7 12.5t7 12.5l93 -2q78 -4 126.5 -4t131.5 4l82 2q8 0 7 -12.5t-7 -12.5q-125 0 -157 -57q-18 -31 -28 -92l-104 -590q-14 -78 -15 -149zM627 1389q-8 0 -11.5 9t2.5 13q76 37 187 105.5t147 89.5q8 4 48 -9.5t70 -30
t13 -18.5q-242 -61 -454 -159h-2z" />
    <glyph glyph-name="Ucircumflex" unicode="&#xdb;" horiz-adv-x="1265" 
d="M317 367q1 -330 311 -330q154 0 269 113.5t150 312.5l106 596q6 34 6 63q0 133 -131 133q-6 0 -6 12.5t6 12.5l84 -2q61 -4 97 -4t98 4l73 2q8 0 7 -12.5t-7 -12.5q-150 0 -184 -202l-104 -594q-41 -229 -184.5 -357.5t-332 -128.5t-287 96.5t-98.5 268.5q0 47 11 115
l116 665q8 53 9 66q0 43 -29 57t-109 14q-8 0 -7 12.5t7 12.5l93 -2q78 -4 126.5 -4t131.5 4l82 2q8 0 7 -12.5t-7 -12.5q-125 0 -157 -57q-18 -31 -28 -92l-104 -590q-14 -78 -15 -149zM651 1352q-6 0 -10 5t0 9l219 199q10 10 19.5 10t19.5 -10l150 -199l2 -4
q0 -4 -6.5 -8t-10.5 -2l-174 116l-207 -116h-2z" />
    <glyph glyph-name="Udieresis" unicode="&#xdc;" horiz-adv-x="1265" 
d="M317 367q1 -330 311 -330q154 0 269 113.5t150 312.5l106 596q6 34 6 63q0 133 -131 133q-6 0 -6 12.5t6 12.5l84 -2q61 -4 97 -4t98 4l73 2q8 0 7 -12.5t-7 -12.5q-150 0 -184 -202l-104 -594q-41 -229 -184.5 -357.5t-332 -128.5t-287 96.5t-98.5 268.5q0 47 11 115
l116 665q8 53 9 66q0 43 -29 57t-109 14q-8 0 -7 12.5t7 12.5l93 -2q78 -4 126.5 -4t131.5 4l82 2q8 0 7 -12.5t-7 -12.5q-125 0 -157 -57q-18 -31 -28 -92l-104 -590q-14 -78 -15 -149zM969 1551q0 40 23.5 61.5t63.5 21.5t62.5 -21.5t22.5 -61.5t-22.5 -62.5t-62.5 -22.5
t-63.5 22.5t-23.5 62.5zM610 1551q0 40 23.5 62.5t63.5 22.5t62.5 -22.5t22.5 -62.5t-22.5 -62.5t-62.5 -22.5t-63.5 22.5t-23.5 62.5z" />
    <glyph glyph-name="Yacute" unicode="&#xdd;" horiz-adv-x="1083" 
d="M526 1255q-102 0 -102 -43q0 -12 10 -38l207 -496l279 395q55 78 55 125q0 57 -86 57q-8 0 -8 12.5t8 12.5l82 -2q70 -4 111 -4t81 4l66 2q8 0 8 -12.5t-8 -12.5q-129 0 -268 -192l-312 -428l-82 -469q-8 -39 -8 -76t28.5 -51t106.5 -14q8 0 8 -12.5t-8 -12.5
q-55 0 -86 2l-125 2l-127 -2q-33 -2 -88 -2q-8 0 -8 12.5t8 12.5q68 0 103 11t51 39.5t27 90.5l77 450l-209 494q-35 80 -70.5 112.5t-92.5 32.5q-8 0 -8.5 12.5t8.5 12.5l69 -2q49 -4 86 -4t127 4l94 2q4 0 4.5 -7t-3 -12.5t-5.5 -5.5zM598 1389q-8 0 -10 9t4 13
q76 37 186.5 105.5t147.5 89.5q8 6 48 -7.5t69.5 -30t13.5 -20.5q-215 -53 -455 -157z" />
    <glyph glyph-name="Thorn" unicode="&#xde;" horiz-adv-x="1093" 
d="M725 296q-121 -42 -220 -42t-102 16q0 8 4.5 16.5t20 3.5t79.5 -5t156.5 33.5t161 104.5t88.5 175q10 41 11 92q0 139 -91.5 221t-230.5 82q-86 0 -141 -12l-142 -815q-8 -53 -8 -66q0 -47 36 -61t142 -14q6 0 6.5 -12.5t-6.5 -12.5q-66 0 -104 2l-156 2l-118 -2
q-31 -2 -86 -2q-4 0 -4.5 12.5t4.5 12.5q68 0 100.5 10t48.5 39.5t27 91.5l168 948q8 53 8 66q0 45 -29 60t-102 15q-4 0 -4 12.5t4 12.5l82 -2q74 -4 130.5 -4t153.5 4l99 2q6 0 6 -12.5t-6 -12.5q-96 0 -137.5 -9t-59.5 -37.5t-31 -98.5l-18 -100q90 12 188 12
q183 0 298.5 -76t115.5 -238.5t-128 -282.5q-93 -87 -214 -129z" />
    <glyph glyph-name="germandbls" unicode="&#xdf;" horiz-adv-x="917" 
d="M-158.5 -412q31.5 0 45 -16t22.5 -45t18.5 -41t32 -12t45 46t77.5 384l160 1001q43 272 165.5 427t297.5 155q94 0 138 -48t44 -125.5t-44 -142.5t-103.5 -130.5t-95.5 -118t-36 -114.5t24.5 -113.5t78 -133.5t80 -140.5t26.5 -126t-34.5 -141t-99.5 -125t-140.5 -51.5
t-113.5 34t-38 69q0 72 64 72q27 0 41 -15.5t27 -46.5t28.5 -47t56.5 -16t77 45t36 118.5t-24.5 128t-75.5 133.5t-77 133t-26 92.5t9 100t87 163.5t109 157q47 83 47 198q0 158 -117 158q-102 0 -184 -143.5t-123 -401.5l-149 -952q-59 -380 -160 -472q-53 -48 -131 -48
t-111 25.5t-29.5 58.5t24 50t52 17z" />
    <glyph glyph-name="agrave" unicode="&#xe0;" horiz-adv-x="888" 
d="M639 632q0 40 -32 76.5t-98.5 36.5t-142 -61t-132 -167.5t-74.5 -235.5q-8 -43 -8 -84q0 -123 88 -123q73 0 156 75.5t163 217t80 265.5zM573.5 817q96.5 0 143.5 -57q37 31 49 74q2 4 9 4t12.5 -3.5t3.5 -5.5l-121 -647q-4 -20 -4 -53q0 -66 36 -66q43 0 138 95l4 2
q6 0 11 -7.5t1 -11.5q-72 -80 -126 -119.5t-103 -39.5q-72 0 -72 96q0 33 10 104l37 211q-92 -190 -210 -305t-228 -115q-125 0 -125 154q0 14 4 59q20 145 108.5 293t207 243t215 95zM533.5 1497q23.5 0 58.5 -10t35 -21l-11 -491q0 -4 -9 -6t-9 4l-86 516q-2 8 21.5 8z
" />
    <glyph glyph-name="aacute" unicode="&#xe1;" horiz-adv-x="888" 
d="M639 632q0 40 -32 76.5t-98.5 36.5t-142 -61t-132 -167.5t-74.5 -235.5q-8 -43 -8 -84q0 -123 88 -123q73 0 156 75.5t163 217t80 265.5zM573.5 817q96.5 0 143.5 -57q37 31 49 74q2 4 9 4t12.5 -3.5t3.5 -5.5l-121 -647q-4 -20 -4 -53q0 -66 36 -66q43 0 138 95l4 2
q6 0 11 -7.5t1 -11.5q-72 -80 -126 -119.5t-103 -39.5q-72 0 -72 96q0 33 10 104l37 211q-92 -190 -210 -305t-228 -115q-125 0 -125 154q0 14 4 59q20 145 108.5 293t207 243t215 95zM854.5 1497q23.5 0 22.5 -8l-302 -520q-2 -6 -13 -2t-7 8l190 491q4 10 45 20.5
t64.5 10.5z" />
    <glyph glyph-name="acircumflex" unicode="&#xe2;" horiz-adv-x="888" 
d="M639 632q0 40 -32 76.5t-98.5 36.5t-142 -61t-132 -167.5t-74.5 -235.5q-8 -43 -8 -84q0 -123 88 -123q73 0 156 75.5t163 217t80 265.5zM573.5 817q96.5 0 143.5 -57q37 31 49 74q2 4 9 4t12.5 -3.5t3.5 -5.5l-121 -647q-4 -20 -4 -53q0 -66 36 -66q43 0 138 95l4 2
q6 0 11 -7.5t1 -11.5q-72 -80 -126 -119.5t-103 -39.5q-72 0 -72 96q0 33 10 104l37 211q-92 -190 -210 -305t-228 -115q-125 0 -125 154q0 14 4 59q20 145 108.5 293t207 243t215 95zM469 967q-4 0 -10 4t-4 6l217 510q2 10 19 10t18 -10l36 -510q0 -4 -12 -5t-12 3
l-66 315l-178 -319q-4 -4 -8 -4z" />
    <glyph glyph-name="atilde" unicode="&#xe3;" horiz-adv-x="888" 
d="M639 632q0 40 -32 76.5t-98.5 36.5t-142 -61t-132 -167.5t-74.5 -235.5q-8 -43 -8 -84q0 -123 88 -123q73 0 156 75.5t163 217t80 265.5zM573.5 817q96.5 0 143.5 -57q37 31 49 74q2 4 9 4t12.5 -3.5t3.5 -5.5l-121 -647q-4 -20 -4 -53q0 -66 36 -66q43 0 138 95l4 2
q6 0 11 -7.5t1 -11.5q-72 -80 -126 -119.5t-103 -39.5q-72 0 -72 96q0 33 10 104l37 211q-92 -190 -210 -305t-228 -115q-125 0 -125 154q0 14 4 59q20 145 108.5 293t207 243t215 95zM340 981q-4 0 -9 5t-3 9q96 129 180 129q35 0 117 -25.5t128 -25.5t67.5 13.5t49.5 41.5
h2q6 0 10.5 -5t2.5 -9q-57 -76 -92 -101.5t-74 -25.5t-79 10.5t-86 25t-93 14t-65 -10.5q-20 -10 -34 -24l-20 -21h-2z" />
    <glyph glyph-name="adieresis" unicode="&#xe4;" horiz-adv-x="888" 
d="M639 632q0 40 -32 76.5t-98.5 36.5t-142 -61t-132 -167.5t-74.5 -235.5q-8 -43 -8 -84q0 -123 88 -123q73 0 156 75.5t163 217t80 265.5zM573.5 817q96.5 0 143.5 -57q37 31 49 74q2 4 9 4t12.5 -3.5t3.5 -5.5l-121 -647q-4 -20 -4 -53q0 -66 36 -66q43 0 138 95l4 2
q6 0 11 -7.5t1 -11.5q-72 -80 -126 -119.5t-103 -39.5q-72 0 -72 96q0 33 10 104l37 211q-92 -190 -210 -305t-228 -115q-125 0 -125 154q0 14 4 59q20 145 108.5 293t207 243t215 95zM676 1062q0 40 23.5 61.5t63.5 21.5t62.5 -21.5t22.5 -61.5t-22.5 -62.5t-62.5 -22.5
t-63.5 22.5t-23.5 62.5zM455 1145q86 0 86 -83q0 -40 -22.5 -62.5t-62.5 -22.5t-63.5 23.5t-23.5 62.5t22.5 60.5t63.5 21.5z" />
    <glyph glyph-name="aring" unicode="&#xe5;" horiz-adv-x="888" 
d="M639 632q0 40 -32 76.5t-98.5 36.5t-142 -61t-132 -167.5t-74.5 -235.5q-8 -43 -8 -84q0 -123 88 -123q73 0 156 75.5t163 217t80 265.5zM573.5 817q96.5 0 143.5 -57q37 31 49 74q2 4 9 4t12.5 -3.5t3.5 -5.5l-121 -647q-4 -20 -4 -53q0 -66 36 -66q43 0 138 95l4 2
q6 0 11 -7.5t1 -11.5q-72 -80 -126 -119.5t-103 -39.5q-72 0 -72 96q0 33 10 104l37 211q-92 -190 -210 -305t-228 -115q-125 0 -125 154q0 14 4 59q20 145 108.5 293t207 243t215 95zM688 1079q0 72 -33.5 125t-79.5 53q-53 0 -53 -96q0 -68 30 -125t77 -57q59 0 59 100z
M436 1123.5q0 70.5 56.5 113.5t123 43t113.5 -48t47 -118t-54 -113t-127 -43t-116 47.5t-43 118z" />
    <glyph glyph-name="ae" unicode="&#xe6;" horiz-adv-x="1107" 
d="M582 631q0 46 -27 83.5t-83 37.5t-123.5 -62.5t-130 -197t-62.5 -291.5q0 -123 86 -123q59 0 129.5 74.5t140.5 214.5t70 264zM977 696.5q0 26.5 -19.5 53t-62.5 26.5q-82 0 -144.5 -90t-82.5 -231q127 43 211 91t96 116q2 8 2 34.5zM969 817q71 0 103 -28.5t32 -75.5
q0 -76 -94.5 -142.5t-345.5 -142.5q-30 -218 32 -318q41 -66 103.5 -66.5t103.5 16t80 53.5l4 2q6 0 11.5 -7.5t0.5 -11.5q-70 -66 -131 -93.5t-145 -27.5t-136 72t-52 203q0 61 12 131q-84 -186 -185.5 -297t-195.5 -111q-59 0 -93 39t-34 117q0 158 92 328t201.5 265
t212.5 95q55 0 95 -30.5t48 -94.5q125 125 281 125z" />
    <glyph glyph-name="ccedilla" unicode="&#xe7;" horiz-adv-x="708" 
d="M102 -483q0 59 60 59q23 0 35 -13.5t26 -39t23.5 -36.5t27.5 -11q59 0 74 75q8 66 -76 166q-57 68 -10 160l47 96q-125 4 -187.5 95.5t-62.5 224.5q-1 194 107 336q70 92 162 140t175 48t136 -34.5t47 -86.5q-2 -29 -19.5 -47t-47.5 -18t-46 16.5t-28 48.5
q-25 76 -114 76t-149.5 -82t-79.5 -188.5t-20 -159.5q0 -133 56.5 -216t169.5 -83q61 0 110 24.5t107 69.5l4 2q6 0 11 -8t1 -12q-154 -139 -305 -146q-32 -79 -8 -131q12 -26 37 -55q65 -85 65 -155t-62.5 -132.5t-150.5 -62.5q-47 0 -81 21.5t-34 58.5z" />
    <glyph glyph-name="egrave" unicode="&#xe8;" horiz-adv-x="702" 
d="M441.5 762q-93.5 0 -157 -83t-87.5 -214q299 57 333 199q4 20 5 30q0 68 -93.5 68zM535 817q137 0 137 -99q0 -52 -66 -112q-134 -123 -416 -170q-10 -66 -10 -112q0 -127 56.5 -203t166 -76t199.5 68h2q6 0 11.5 -6.5t0.5 -10.5q-143 -121 -285.5 -121t-208.5 83
q-67 82 -67 232q-1 150 97 294q68 102 170 167.5t213 65.5zM437.5 1497q23.5 0 58 -10t34.5 -21l-10 -491q0 -4 -9 -6t-9 4l-86 516q-2 8 21.5 8z" />
    <glyph glyph-name="eacute" unicode="&#xe9;" horiz-adv-x="702" 
d="M441.5 762q-93.5 0 -157 -83t-87.5 -214q299 57 333 199q4 20 5 30q0 68 -93.5 68zM535 817q137 0 137 -99q0 -52 -66 -112q-134 -123 -416 -170q-10 -66 -10 -112q0 -127 56.5 -203t166 -76t199.5 68h2q6 0 11.5 -6.5t0.5 -10.5q-143 -121 -285.5 -121t-208.5 83
q-67 82 -67 232q-1 150 97 294q68 102 170 167.5t213 65.5zM758.5 1497q23.5 0 21.5 -8l-301 -520q-2 -6 -13 -2t-7 8l190 491q4 10 45 20.5t64.5 10.5z" />
    <glyph glyph-name="ecircumflex" unicode="&#xea;" horiz-adv-x="702" 
d="M441.5 762q-93.5 0 -157 -83t-87.5 -214q299 57 333 199q4 20 5 30q0 68 -93.5 68zM535 817q137 0 137 -99q0 -52 -66 -112q-134 -123 -416 -170q-10 -66 -10 -112q0 -127 56.5 -203t166 -76t199.5 68h2q6 0 11.5 -6.5t0.5 -10.5q-143 -121 -285.5 -121t-208.5 83
q-67 82 -67 232q-1 150 97 294q68 102 170 167.5t213 65.5zM353 969q-5 0 -11 3t-4 7l215 510q6 10 22.5 10t16.5 -10l37 -510q0 -6 -12.5 -7t-12.5 5l-65 315l-179 -321q-2 -2 -7 -2z" />
    <glyph glyph-name="edieresis" unicode="&#xeb;" horiz-adv-x="702" 
d="M441.5 762q-93.5 0 -157 -83t-87.5 -214q299 57 333 199q4 20 5 30q0 68 -93.5 68zM535 817q137 0 137 -99q0 -52 -66 -112q-134 -123 -416 -170q-10 -66 -10 -112q0 -127 56.5 -203t166 -76t199.5 68h2q6 0 11.5 -6.5t0.5 -10.5q-143 -121 -285.5 -121t-208.5 83
q-67 82 -67 232q-1 150 97 294q68 102 170 167.5t213 65.5zM580 1062q0 40 23.5 61.5t63.5 21.5t62.5 -21.5t22.5 -61.5t-22.5 -62.5t-62.5 -22.5t-63.5 22.5t-23.5 62.5zM358 1145q86 0 86 -83q0 -40 -22.5 -62.5t-62.5 -22.5t-63.5 23.5t-23.5 62.5t22.5 60.5t63.5 21.5z
" />
    <glyph glyph-name="igrave" unicode="&#xec;" horiz-adv-x="505" 
d="M291 809q74 0 74 -89q0 -46 -13 -108l-82 -430q-6 -33 -6 -59q0 -59 37 -60q49 0 139 91q4 4 8 4t9.5 -7.5t-0.5 -13.5q-139 -155 -234 -155q-73 0 -73 90q0 33 14 110l84 426q6 31 6 56q0 63 -41 63q-53 0 -141 -92q-2 -2 -7 -2t-10.5 7t0.5 11q137 158 236 158z
M259.5 1497q23.5 0 58 -10t34.5 -21l-10 -491q0 -4 -9 -6t-9 4l-86 516q-2 8 21.5 8z" />
    <glyph glyph-name="iacute" unicode="&#xed;" horiz-adv-x="505" 
d="M291 809q74 0 74 -89q0 -46 -13 -108l-82 -430q-6 -33 -6 -59q0 -59 37 -60q49 0 139 91q4 4 8 4t9.5 -7.5t-0.5 -13.5q-139 -155 -234 -155q-73 0 -73 90q0 33 14 110l84 426q6 31 6 56q0 63 -41 63q-53 0 -141 -92q-2 -2 -7 -2t-10.5 7t0.5 11q137 158 236 158z
M580.5 1497q23.5 0 21.5 -8l-301 -520q-2 -6 -13.5 -2t-6.5 8l190 491q4 10 45 20.5t64.5 10.5z" />
    <glyph glyph-name="icircumflex" unicode="&#xee;" horiz-adv-x="505" 
d="M291 809q74 0 74 -89q0 -46 -13 -108l-82 -430q-6 -33 -6 -59q0 -59 37 -60q49 0 139 91q4 4 8 4t9.5 -7.5t-0.5 -13.5q-139 -155 -234 -155q-73 0 -73 90q0 33 14 110l84 426q6 31 6 56q0 63 -41 63q-53 0 -141 -92q-2 -2 -7 -2t-10.5 7t0.5 11q137 158 236 158z
M195 967q-4 0 -10.5 4t-4.5 6l217 510q2 10 19.5 10t17.5 -10l37 -510q0 -4 -12.5 -5t-12.5 3l-65 315l-178 -319q-4 -4 -8 -4z" />
    <glyph glyph-name="idieresis" unicode="&#xef;" horiz-adv-x="505" 
d="M291 809q74 0 74 -89q0 -46 -13 -108l-82 -430q-6 -33 -6 -59q0 -59 37 -60q49 0 139 91q4 4 8 4t9.5 -7.5t-0.5 -13.5q-139 -155 -234 -155q-73 0 -73 90q0 33 14 110l84 426q6 31 6 56q0 63 -41 63q-53 0 -141 -92q-2 -2 -7 -2t-10.5 7t0.5 11q137 158 236 158z
M379 1062q0 40 23.5 61.5t63.5 21.5t62.5 -21.5t22.5 -61.5t-22.5 -62.5t-62.5 -22.5t-63.5 22.5t-23.5 62.5zM119 1062q0 40 23.5 62.5t63.5 22.5t62.5 -22.5t22.5 -62.5t-22.5 -62.5t-62.5 -22.5t-63.5 22.5t-23.5 62.5z" />
    <glyph glyph-name="eth" unicode="&#xf0;" horiz-adv-x="821" 
d="M659 582q0 86 -46 142t-143 56t-177 -91t-107 -249q-10 -68 -10 -118q0 -137 51.5 -223.5t145.5 -86.5t166.5 98.5t107.5 307.5q12 78 12 164zM649 1186q137 -251 137 -539t-114 -462q-138 -212 -369 -212q-115 0 -183.5 87t-68.5 225q-1 191 105 335q72 98 164 147.5
t181 49.5t158 -59q-20 203 -102 385l-268 -127h-2q-8 0 -16.5 17.5t-0.5 19.5l271 129q-94 188 -228 276q-6 4 8.5 13.5t34 13.5t25.5 0q147 -88 248 -262l200 96h2q8 0 16.5 -17.5t0.5 -21.5z" />
    <glyph glyph-name="ntilde" unicode="&#xf1;" horiz-adv-x="954" 
d="M682 817q133 0 133 -151q0 -37 -14 -119l-66 -365q-6 -31 -6 -55q0 -63 39 -64q41 0 135 95q4 4 9 4t9.5 -7.5t-1.5 -13.5q-72 -82 -125.5 -120.5t-106.5 -38.5q-70 0 -70 90q0 43 13 110l59 326q12 66 12 110q0 119 -88 119q-68 0 -140.5 -86t-136 -249.5t-104.5 -387.5
q-4 -31 -58 -30.5t-54 12.5l8 47q12 49 23 109l84 456q6 31 6 54q0 66 -41 65q-54 0 -142 -92q-2 -2 -7 -2t-9 7t0 11q137 158 238 158q37 0 53 -21.5t16 -71.5t-10 -104l-45 -256q74 215 175 338t212 123zM313 981q-4 0 -9 5t-3 9q96 129 180 129q35 0 118 -26t128 -25.5
t66.5 14t50.5 41.5h2q6 0 10 -5t2 -9q-57 -76 -92 -101.5t-74 -25.5t-79 10.5t-86 25t-93 14t-65.5 -10.5t-32.5 -24.5t-21 -20.5h-2z" />
    <glyph glyph-name="ograve" unicode="&#xf2;" horiz-adv-x="817" 
d="M647 424q0 141 -54 242.5t-148.5 101.5t-165 -77t-97.5 -208q-12 -57 -12 -121q0 -139 58.5 -239t151.5 -100q92 -1 162 75q104 114 105 326zM513 817q114 0 182.5 -85t68.5 -220q0 -191 -104 -340q-142 -201 -358 -201q-108 0 -176.5 86t-68.5 245.5t97 307.5
q135 206 359 207zM435.5 1497q23.5 0 58 -10t34.5 -21l-10 -491q0 -4 -9 -6t-9 4l-86 516q-2 8 21.5 8z" />
    <glyph glyph-name="oacute" unicode="&#xf3;" horiz-adv-x="817" 
d="M647 424q0 141 -54 242.5t-148.5 101.5t-165 -77t-97.5 -208q-12 -57 -12 -121q0 -139 58.5 -239t151.5 -100q92 -1 162 75q104 114 105 326zM513 817q114 0 182.5 -85t68.5 -220q0 -191 -104 -340q-142 -201 -358 -201q-108 0 -176.5 86t-68.5 245.5t97 307.5
q135 206 359 207zM756.5 1497q23.5 0 21.5 -8l-301 -520q-2 -6 -13 -2t-7 8l190 491q4 10 45 20.5t64.5 10.5z" />
    <glyph glyph-name="ocircumflex" unicode="&#xf4;" horiz-adv-x="817" 
d="M647 424q0 141 -54 242.5t-148.5 101.5t-165 -77t-97.5 -208q-12 -57 -12 -121q0 -139 58.5 -239t151.5 -100q92 -1 162 75q104 114 105 326zM513 817q114 0 182.5 -85t68.5 -220q0 -191 -104 -340q-142 -201 -358 -201q-108 0 -176.5 86t-68.5 245.5t97 307.5
q135 206 359 207zM351 969q-5 0 -11 3t-4 7l215 510q6 10 22.5 10t16.5 -10l37 -510q0 -6 -12.5 -7t-12.5 5l-65 315l-179 -321q-2 -2 -7 -2z" />
    <glyph glyph-name="otilde" unicode="&#xf5;" horiz-adv-x="817" 
d="M647 424q0 141 -54 242.5t-148.5 101.5t-165 -77t-97.5 -208q-12 -57 -12 -121q0 -139 58.5 -239t151.5 -100q92 -1 162 75q104 114 105 326zM513 817q114 0 182.5 -85t68.5 -220q0 -191 -104 -340q-142 -201 -358 -201q-108 0 -176.5 86t-68.5 245.5t97 307.5
q135 206 359 207zM242 981q-4 0 -9.5 5t-3.5 9q96 129 181 129q35 0 117 -25.5t128 -25.5t67 13.5t50 41.5h2q6 0 10 -5t2 -9q-57 -76 -92 -101.5t-74 -25.5t-78.5 10.5t-85.5 25t-93.5 14t-65.5 -10.5q-19 -10 -33 -24l-20 -21h-2z" />
    <glyph glyph-name="odieresis" unicode="&#xf6;" horiz-adv-x="817" 
d="M647 424q0 141 -54 242.5t-148.5 101.5t-165 -77t-97.5 -208q-12 -57 -12 -121q0 -139 58.5 -239t151.5 -100q92 -1 162 75q104 114 105 326zM513 817q114 0 182.5 -85t68.5 -220q0 -191 -104 -340q-142 -201 -358 -201q-108 0 -176.5 86t-68.5 245.5t97 307.5
q135 206 359 207zM578 1062q0 40 23.5 61.5t63.5 21.5t62.5 -21.5t22.5 -61.5t-22.5 -62.5t-62.5 -22.5t-63.5 22.5t-23.5 62.5zM356 1145q86 0 86 -83q0 -40 -22.5 -62.5t-62.5 -22.5t-63.5 23.5t-23.5 62.5t22.5 60.5t63.5 21.5z" />
    <glyph glyph-name="divide" unicode="&#xf7;" horiz-adv-x="790" 
d="M317 65q0 40 24 62.5t64.5 22.5t63.5 -22t23 -62.5t-23 -63t-63.5 -22.5t-64.5 22.5t-24 62.5zM70 352q-11 0 -11 41t9 41h677q11 0 11 -41t-11 -41h-675zM425.5 821q63.5 0 63.5 -83q0 -40 -22.5 -63.5t-63.5 -23.5t-64.5 23.5t-23.5 63.5t23.5 61.5t87 21.5z" />
    <glyph glyph-name="oslash" unicode="&#xf8;" horiz-adv-x="835" 
d="M647 424q0 94 -22 164l-416 -430q62 -135 178 -135q85 -1 155 75q104 114 105 326zM170 352q0 -74 23 -151l417 430q-59 137 -172 137q-88 0 -158 -77q-110 -119 -110 -339zM764 536q0 -215 -104 -364q-68 -96 -159 -148.5t-186 -52.5q-125 0 -196 95l-92 -97h-4
q-8 0 -19.5 12.5t-5.5 18.5l98 100q-39 76 -39 161q0 201 97 349q135 206 361 207q116 0 185 -92l91 92l4 2q8 0 20 -11t6 -17l-98 -101q41 -76 41 -154z" />
    <glyph glyph-name="ugrave" unicode="&#xf9;" horiz-adv-x="952" 
d="M899 158q6 0 10 -7.5t0 -11.5q-138 -157 -237 -157q-37 0 -53.5 21.5t-16.5 71.5t10 101l45 258q-74 -215 -175 -338t-212 -123q-135 0 -135 152q0 55 15 119l73 364q6 35 6 56q0 63 -40 63t-134 -94q-4 -4 -9 -4t-9 7t2 13q72 82 126 121t105 39q72 0 72 -92
q0 -45 -14 -109l-66 -325q-14 -76 -14 -111q0 -119 90 -119q68 0 140.5 86t136 250t104.5 387q4 31 58 31t54 -12l-8 -47q-12 -49 -22 -109l-84 -457q-6 -31 -6 -55q0 -66 41 -66q48 0 139 95q2 2 8 2zM484.5 1497q23.5 0 58.5 -10t35 -21l-11 -491q0 -4 -9 -6t-9 4l-86 516
q-2 8 21.5 8z" />
    <glyph glyph-name="uacute" unicode="&#xfa;" horiz-adv-x="952" 
d="M899 158q6 0 10 -7.5t0 -11.5q-138 -157 -237 -157q-37 0 -53.5 21.5t-16.5 71.5t10 101l45 258q-74 -215 -175 -338t-212 -123q-135 0 -135 152q0 55 15 119l73 364q6 35 6 56q0 63 -40 63t-134 -94q-4 -4 -9 -4t-9 7t2 13q72 82 126 121t105 39q72 0 72 -92
q0 -45 -14 -109l-66 -325q-14 -76 -14 -111q0 -119 90 -119q68 0 140.5 86t136 250t104.5 387q4 31 58 31t54 -12l-8 -47q-12 -49 -22 -109l-84 -457q-6 -31 -6 -55q0 -66 41 -66q48 0 139 95q2 2 8 2zM805.5 1497q23.5 0 21.5 -8l-301 -520q-2 -6 -13 -2t-7 8l190 491
q4 10 45 20.5t64.5 10.5z" />
    <glyph glyph-name="ucircumflex" unicode="&#xfb;" horiz-adv-x="952" 
d="M899 158q6 0 10 -7.5t0 -11.5q-138 -157 -237 -157q-37 0 -53.5 21.5t-16.5 71.5t10 101l45 258q-74 -215 -175 -338t-212 -123q-135 0 -135 152q0 55 15 119l73 364q6 35 6 56q0 63 -40 63t-134 -94q-4 -4 -9 -4t-9 7t2 13q72 82 126 121t105 39q72 0 72 -92
q0 -45 -14 -109l-66 -325q-14 -76 -14 -111q0 -119 90 -119q68 0 140.5 86t136 250t104.5 387q4 31 58 31t54 -12l-8 -47q-12 -49 -22 -109l-84 -457q-6 -31 -6 -55q0 -66 41 -66q48 0 139 95q2 2 8 2zM400.5 969q-5.5 0 -11.5 3t-4 7l215 510q6 10 22.5 10t16.5 -10
l37 -510q0 -6 -12.5 -7t-12.5 5l-65 315l-178 -321q-2 -2 -7.5 -2z" />
    <glyph glyph-name="udieresis" unicode="&#xfc;" horiz-adv-x="952" 
d="M899 158q6 0 10 -7.5t0 -11.5q-138 -157 -237 -157q-37 0 -53.5 21.5t-16.5 71.5t10 101l45 258q-74 -215 -175 -338t-212 -123q-135 0 -135 152q0 55 15 119l73 364q6 35 6 56q0 63 -40 63t-134 -94q-4 -4 -9 -4t-9 7t2 13q72 82 126 121t105 39q72 0 72 -92
q0 -45 -14 -109l-66 -325q-14 -76 -14 -111q0 -119 90 -119q68 0 140.5 86t136 250t104.5 387q4 31 58 31t54 -12l-8 -47q-12 -49 -22 -109l-84 -457q-6 -31 -6 -55q0 -66 41 -66q48 0 139 95q2 2 8 2zM627 1062q0 40 23.5 61.5t63.5 21.5t62.5 -21.5t22.5 -61.5
t-22.5 -62.5t-62.5 -22.5t-63.5 22.5t-23.5 62.5zM319 1063q0 39 23 60.5t63.5 21.5t63.5 -21.5t23 -61.5t-23 -62.5t-62.5 -22.5t-63.5 23.5t-24 62.5z" />
    <glyph glyph-name="yacute" unicode="&#xfd;" horiz-adv-x="905" 
d="M477 -47q252 395 252 563q0 64 -24.5 139.5t-24.5 97t19.5 40t54.5 18.5q77 0 77 -113q0 -168 -158.5 -478t-365.5 -552.5t-344 -242.5q-41 0 -64.5 20t-17.5 63q12 55 88 55.5t132.5 9.5t110.5 48t161 182l2 103q0 385 -62.5 599t-169.5 214q-63 0 -106 -76q-2 -6 -9 -6
t-11.5 4t-2.5 10q37 76 86.5 117t102.5 41q87 -1 149 -99q128 -201 127 -649q0 -72 -2 -108zM768.5 1497q23.5 0 22.5 -8l-302 -520q-2 -6 -13 -2t-7 8l190 491q4 10 45 20.5t64.5 10.5z" />
    <glyph glyph-name="thorn" unicode="&#xfe;" horiz-adv-x="837" 
d="M670 528q0 203 -166 203q-88 0 -205 -61l-102 -580q70 -35 157 -35q131 0 204 101.5t106 294.5q6 40 6 77zM307 1311q0 53 -43 53q-35 0 -100 -33h-2q-8 0 -12.5 10.5t4.5 14.5l266 129h4q8 0 14 -6t4 -11l-135 -753q160 90 295 90q90 0 143.5 -59.5t53.5 -157.5
q0 -35 -6 -72q-29 -154 -112 -272.5t-187.5 -182t-187.5 -63.5t-126 6l-65 -369q-6 -35 -6 -65q0 -60 73 -59q12 0 49 4q8 2 10.5 -10.5t-5.5 -14.5l-353 -53q-8 -2 -10 10t4 14q47 8 68.5 21.5t34 42.5t24.5 96l176 973l-98 -72q-6 0 -10 8.5t0 12.5q53 47 116 94l115 631
q4 16 4 43z" />
    <glyph glyph-name="ydieresis" unicode="&#xff;" horiz-adv-x="905" 
d="M477 -47q252 395 252 563q0 64 -24.5 139.5t-24.5 97t19.5 40t54.5 18.5q77 0 77 -113q0 -168 -158.5 -478t-365.5 -552.5t-344 -242.5q-41 0 -64.5 20t-17.5 63q12 55 88 55.5t132.5 9.5t110.5 48t161 182l2 103q0 385 -62.5 599t-169.5 214q-63 0 -106 -76q-2 -6 -9 -6
t-11.5 4t-2.5 10q37 76 86.5 117t102.5 41q87 -1 149 -99q128 -201 127 -649q0 -72 -2 -108zM590 1062q0 40 23.5 61.5t63.5 21.5t62.5 -21.5t22.5 -61.5t-22.5 -62.5t-62.5 -22.5t-63.5 22.5t-23.5 62.5zM369 1145q86 0 86 -83q0 -40 -22.5 -62.5t-62.5 -22.5t-63.5 23.5
t-23.5 62.5t22.5 60.5t63.5 21.5z" />
    <glyph glyph-name="Amacron" unicode="&#x100;" horiz-adv-x="1228" 
d="M791 719l-64 395l-217 -395h281zM-78 12.5q0 12.5 8 12.5q59 0 128 53t137 176l587 1046q4 6 18.5 6.5t18.5 -10.5l180 -1124q11 -63 23 -92q24 -55 133 -55q6 0 6 -12.5t-6 -12.5l-209 8l-198 -8q-8 0 -8.5 12.5t8.5 12.5q76 0 106.5 19t30.5 57.5t-6 70.5l-82 504h-310
l-223 -406q-63 -119 -63 -167t32.5 -63t100.5 -15q6 0 6 -12.5t-8 -12.5l-213 8l-189 -8q-8 0 -8 12.5zM602 1468q-14 0 -14 31t14 31h485q12 0 12.5 -31t-12.5 -31h-485z" />
    <glyph glyph-name="amacron" unicode="&#x101;" horiz-adv-x="888" 
d="M639 632q0 40 -32 76.5t-98.5 36.5t-142 -61t-132 -167.5t-74.5 -235.5q-8 -43 -8 -84q0 -123 88 -123q73 0 156 75.5t163 217t80 265.5zM573.5 817q96.5 0 143.5 -57q37 31 49 74q2 4 9 4t12.5 -3.5t3.5 -5.5l-121 -647q-4 -20 -4 -53q0 -66 36 -66q43 0 138 95l4 2
q6 0 11 -7.5t1 -11.5q-72 -80 -126 -119.5t-103 -39.5q-72 0 -72 96q0 33 10 104l37 211q-92 -190 -210 -305t-228 -115q-125 0 -125 154q0 14 4 59q20 145 108.5 293t207 243t215 95zM369 979q-15 0 -15 30.5t15 30.5h485q12 0 12 -30.5t-12 -30.5h-485z" />
    <glyph glyph-name="Abreve" unicode="&#x102;" horiz-adv-x="1228" 
d="M791 719l-64 395l-217 -395h281zM-78 12.5q0 12.5 8 12.5q59 0 128 53t137 176l587 1046q4 6 18.5 6.5t18.5 -10.5l180 -1124q11 -63 23 -92q24 -55 133 -55q6 0 6 -12.5t-6 -12.5l-209 8l-198 -8q-8 0 -8.5 12.5t8.5 12.5q76 0 106.5 19t30.5 57.5t-6 70.5l-82 504h-310
l-223 -406q-63 -119 -63 -167t32.5 -63t100.5 -15q6 0 6 -12.5t-8 -12.5l-213 8l-189 -8q-8 0 -8 12.5zM629 1540q0 12 29.5 22.5t52 10.5t22.5 -6q4 -59 39 -95t86 -36t86 29.5t66 95.5q6 6 13 6t15.5 -5.5t5.5 -9.5q-86 -188 -233 -188q-86 0 -134 52t-48 124z" />
    <glyph glyph-name="abreve" unicode="&#x103;" horiz-adv-x="888" 
d="M639 632q0 40 -32 76.5t-98.5 36.5t-142 -61t-132 -167.5t-74.5 -235.5q-8 -43 -8 -84q0 -123 88 -123q73 0 156 75.5t163 217t80 265.5zM573.5 817q96.5 0 143.5 -57q37 31 49 74q2 4 9 4t12.5 -3.5t3.5 -5.5l-121 -647q-4 -20 -4 -53q0 -66 36 -66q43 0 138 95l4 2
q6 0 11 -7.5t1 -11.5q-72 -80 -126 -119.5t-103 -39.5q-72 0 -72 96q0 33 10 104l37 211q-92 -190 -210 -305t-228 -115q-125 0 -125 154q0 14 4 59q20 145 108.5 293t207 243t215 95zM403 1149q0 12 30 22.5t52 10.5t23 -6q4 -59 39 -95.5t86 -36.5t86 30t65 95
q13 13 25 4.5t10 -12.5q-86 -188 -233 -188q-86 0 -134.5 52t-48.5 124z" />
    <glyph glyph-name="Aogonek" unicode="&#x104;" horiz-adv-x="1228" 
d="M788 719l-61 393l-211 -393h272zM-78 12.5q0 12.5 8 12.5q61 0 134 52t141 177l577 1046q4 6 18.5 6.5t18.5 -10.5l176 -1103q12 -72 28.5 -107t46.5 -48t85 -13q6 0 6 -12.5t-6 -12.5l-141 2q-94 0 -169 -43t-118 -116.5t-43 -159t45 -134.5t117.5 -49t116.5 31h2
q6 0 9 -6t-1 -10q-93 -78 -189 -78t-147 44t-51 139.5t49 169t114.5 143t95 114.5t29.5 79.5t-2 45.5l-77 504h-303l-218 -406q-68 -125 -67.5 -171t31 -60t96.5 -14q6 0 6 -12.5t-8 -12.5l-213 8l-189 -8q-8 0 -8 12.5z" />
    <glyph glyph-name="aogonek" unicode="&#x105;" horiz-adv-x="890" 
d="M639 632q0 41 -32 77t-98.5 36t-142 -61t-132 -167.5t-74.5 -235.5q-8 -43 -8 -84q0 -123 88 -123q74 0 156.5 75.5t162.5 217t80 265.5zM573.5 817q96.5 0 143.5 -57q41 37 49 74q2 4 9 4t12.5 -3.5t3.5 -5.5l-121 -647q-4 -20 -4 -53q0 -66 40 -66t134 95l4 2
q6 0 11 -7.5t1 -11.5l-88 -86q-127 -125 -198.5 -213.5t-71.5 -199.5q0 -61 31.5 -100.5t83 -39.5t77 14.5t55.5 41.5h3q6 0 12 -7.5t0 -13.5q-104 -100 -207 -100q-74 0 -117 45t-43 112q0 158 258 390q-8 -2 -24 -2q-72 0 -72 96q0 33 10 104l35 205q-94 -186 -212 -300
t-224 -114q-125 0 -125 154q0 14 4 59q20 145 108.5 293t207 243t215 95z" />
    <glyph glyph-name="Cacute" unicode="&#x106;" horiz-adv-x="1200" 
d="M661.5 2q118.5 0 229 77t199.5 230q4 4 8 4t9 -4t3 -8l-61 -221q-6 -25 -12.5 -34t-22.5 -13q-190 -59 -365 -60q-272 0 -400 150.5t-128 376.5q-1 277 163 490q114 149 275.5 231t327.5 82q86 0 169 -19.5t114.5 -42t31.5 -37t-2 -22.5l-18 -228q-2 -8 -12.5 -8t-10.5 8
q-27 303 -348 303q-131 0 -241.5 -67.5t-185.5 -192.5q-113 -188 -116 -460q0 -154 48.5 -276t137.5 -190.5t207.5 -68.5zM750 1389q-8 0 -10.5 9t3.5 13q76 37 187 105.5t147 89.5q8 6 48 -7.5t70 -30t13 -20.5q-218 -53 -454 -157z" />
    <glyph glyph-name="cacute" unicode="&#x107;" horiz-adv-x="708" 
d="M59 293q-1 194 107 336q70 92 162 140t175 48t136 -34.5t47 -86.5q-2 -29 -19.5 -47t-47.5 -18t-46 16.5t-28 48.5q-25 76 -114 76t-149.5 -82t-79.5 -188.5t-20 -159.5q0 -133 56.5 -216t169.5 -83q61 0 110 24.5t107 69.5l4 2q6 0 11 -8t1 -12q-164 -145 -308.5 -145.5
t-209 92t-64.5 227.5zM756.5 1497q23.5 0 21.5 -8l-301 -520q-2 -6 -13 -2t-7 8l190 491q4 10 45 20.5t64.5 10.5z" />
    <glyph glyph-name="Ccircumflex" unicode="&#x108;" horiz-adv-x="1200" 
d="M661.5 2q118.5 0 229 77t199.5 230q4 4 8 4t9 -4t3 -8l-61 -221q-6 -25 -12.5 -34t-22.5 -13q-190 -59 -365 -60q-272 0 -400 150.5t-128 376.5q-1 277 163 490q114 149 275.5 231t327.5 82q86 0 169 -19.5t114.5 -42t31.5 -37t-2 -22.5l-18 -228q-2 -8 -12.5 -8t-10.5 8
q-27 303 -348 303q-131 0 -241.5 -67.5t-185.5 -192.5q-113 -188 -116 -460q0 -154 48.5 -276t137.5 -190.5t207.5 -68.5zM680 1352q-6 0 -10 5t0 9l219 199q10 10 19 10t20 -10l149 -199l2 -4q0 -4 -6 -8t-10 -2l-174 116l-207 -116h-2z" />
    <glyph glyph-name="ccircumflex" unicode="&#x109;" horiz-adv-x="708" 
d="M59 293q-1 194 107 336q70 92 162 140t175 48t136 -34.5t47 -86.5q-2 -29 -19.5 -47t-47.5 -18t-46 16.5t-28 48.5q-25 76 -114 76t-149.5 -82t-79.5 -188.5t-20 -159.5q0 -133 56.5 -216t169.5 -83q61 0 110 24.5t107 69.5l4 2q6 0 11 -8t1 -12q-164 -145 -308.5 -145.5
t-209 92t-64.5 227.5zM351 969q-5 0 -11 3t-4 7l215 510q6 10 22.5 10t16.5 -10l37 -510q0 -6 -12.5 -7t-12.5 5l-65 315l-179 -321q-2 -2 -7 -2z" />
    <glyph glyph-name="Cdotaccent" unicode="&#x10a;" horiz-adv-x="1200" 
d="M661.5 2q118.5 0 229 77t199.5 230q4 4 8 4t9 -4t3 -8l-61 -221q-6 -25 -12.5 -34t-22.5 -13q-190 -59 -365 -60q-272 0 -400 150.5t-128 376.5q-1 277 163 490q114 149 275.5 231t327.5 82q86 0 169 -19.5t114.5 -42t31.5 -37t-2 -22.5l-18 -228q-2 -8 -12.5 -8t-10.5 8
q-27 303 -348 303q-131 0 -241.5 -67.5t-185.5 -192.5q-113 -188 -116 -460q0 -154 48.5 -276t137.5 -190.5t207.5 -68.5zM803 1537q0 40 24.5 62.5t65.5 22.5t63.5 -22.5t22.5 -62.5t-22.5 -62.5t-63.5 -22.5t-65.5 22.5t-24.5 62.5z" />
    <glyph glyph-name="cdotaccent" unicode="&#x10b;" horiz-adv-x="708" 
d="M59 293q-1 194 107 336q70 92 162 140t175 48t136 -34.5t47 -86.5q-2 -29 -19.5 -47t-47.5 -18t-46 16.5t-28 48.5q-25 76 -114 76t-149.5 -82t-79.5 -188.5t-20 -159.5q0 -133 56.5 -216t169.5 -83q61 0 110 24.5t107 69.5l4 2q6 0 11 -8t1 -12q-164 -145 -308.5 -145.5
t-209 92t-64.5 227.5zM440 1138q0 40 23.5 62.5t64.5 22.5t63.5 -22.5t22.5 -62.5t-22.5 -63.5t-63.5 -23.5t-64.5 23.5t-23.5 63.5z" />
    <glyph glyph-name="Ccaron" unicode="&#x10c;" horiz-adv-x="1200" 
d="M661.5 2q118.5 0 229 77t199.5 230q4 4 8 4t9 -4t3 -8l-61 -221q-6 -25 -12.5 -34t-22.5 -13q-190 -59 -365 -60q-272 0 -400 150.5t-128 376.5q-1 277 163 490q114 149 275.5 231t327.5 82q86 0 169 -19.5t114.5 -42t31.5 -37t-2 -22.5l-18 -228q-2 -8 -12.5 -8t-10.5 8
q-27 303 -348 303q-131 0 -241.5 -67.5t-185.5 -192.5q-113 -188 -116 -460q0 -154 48.5 -276t137.5 -190.5t207.5 -68.5zM700 1583q0 6 5.5 10t9.5 2l172 -116l209 118h2q6 0 10 -6t0 -10l-219 -199q-8 -8 -19.5 -8t-17.5 8l-152 199v2z" />
    <glyph glyph-name="ccaron" unicode="&#x10d;" horiz-adv-x="708" 
d="M59 293q-1 194 107 336q70 92 162 140t175 48t136 -34.5t47 -86.5q-2 -29 -19.5 -47t-47.5 -18t-46 16.5t-28 48.5q-25 76 -114 76t-149.5 -82t-79.5 -188.5t-20 -159.5q0 -133 56.5 -216t169.5 -83q61 0 110 24.5t107 69.5l4 2q6 0 11 -8t1 -12q-164 -145 -308.5 -145.5
t-209 92t-64.5 227.5zM494.5 967q-17.5 0 -17.5 10l-37 510q0 6 12.5 7t12.5 -5l65 -315l179 321q2 2 7 2t11 -3t4 -7l-215 -510q-4 -10 -21.5 -10z" />
    <glyph glyph-name="Dcaron" unicode="&#x10e;" horiz-adv-x="1253" 
d="M1077 782q0 209 -99 341t-286 132q-106 0 -149 -28.5t-60 -116.5l-161 -922q-8 -45 -9 -63q0 -53 36 -77.5t122 -24.5q143 0 265 69.5t207 203.5q134 211 134 486zM23 0q-6 0 -6.5 12.5t6.5 12.5q66 0 98.5 10t48.5 39.5t29 91.5l168 948q6 41 6 76t-27 50t-102 15
q-6 0 -6 12.5t6 12.5l86 -2q74 -4 125 -4l231 10q162 0 284 -63.5t186.5 -177t64.5 -259.5q0 -72 -11 -122q-35 -199 -144.5 -351.5t-264 -235.5t-318.5 -83l-252 12l-125 -2q-31 -2 -83 -2zM516 1583q0 6 5 10t9 2l172 -116l209 118h2q6 0 10.5 -6t0.5 -10l-219 -199
q-8 -8 -19.5 -8t-17.5 8l-152 199v2z" />
    <glyph glyph-name="dcaron" unicode="&#x10f;" horiz-adv-x="911" 
d="M666 607q0 68 -36 103t-95 35q-135 0 -234.5 -106.5t-132.5 -298.5q-8 -47 -8 -112.5t32.5 -109.5t88.5 -44q92 0 181 100t146.5 232.5t57.5 200.5zM686 129q0 -66 41 -66t135 95q4 4 8 4t8.5 -7.5t0.5 -13.5q-72 -82 -126.5 -120.5t-105.5 -38.5q-72 0 -72 90
q0 33 15 110l37 199q-92 -190 -197.5 -299t-214.5 -109q-72 0 -120 48.5t-48 150.5q0 180 120 362q85 130 201.5 206.5t233.5 76.5q59 0 100 -26l91 477q4 33 4 43q0 53 -43 53q-35 0 -101 -33h-2q-10 0 -13 11.5t5 13.5l266 129h4q8 0 14.5 -6t2.5 -11l-238 -1286
q-6 -31 -6 -53zM981 924q-10 0 -10 4l84 557q2 10 25.5 -3.5t44 -34t18.5 -28.5l-150 -491q-2 -4 -12 -4z" />
    <glyph glyph-name="Dcroat" unicode="&#x110;" horiz-adv-x="1251" 
d="M651 657q11 0 11 -20.5t-11 -20.5h-254l-75 -428q-8 -45 -9 -63q0 -53 36 -77.5t122 -24.5q143 0 265 69.5t207 203.5q134 211 134 486q0 209 -99 341t-286 132q-106 0 -149 -28.5t-60 -116.5l-80 -453h248zM1221 784q0 -72 -11 -122q-35 -199 -144.5 -351.5t-264 -235.5
t-318.5 -83l-252 12l-125 -2q-31 -2 -83 -2q-6 0 -6.5 12.5t6.5 12.5q66 0 98.5 10t48.5 39.5t29 91.5l80 450h-164q-8 0 -8.5 20.5t8.5 20.5h172l80 457q6 41 6 76t-27 50t-102 15q-6 0 -6 12.5t6 12.5l86 -2q74 -4 125 -4l231 10q162 0 284 -63.5t186.5 -177t64.5 -259.5z
" />
    <glyph glyph-name="dcroat" unicode="&#x111;" horiz-adv-x="892" 
d="M666 607q0 68 -36 103t-95 35q-135 0 -234.5 -106.5t-132.5 -298.5q-8 -47 -8 -112.5t32.5 -109.5t88.5 -44q92 0 181 100t146.5 232.5t57.5 200.5zM991 1044.5q0 -20.5 -8 -20.5h-135l-156 -842q-6 -31 -6 -53q0 -66 41 -66t135 95q4 4 8 4t8.5 -7.5t0.5 -13.5
q-72 -82 -126.5 -120.5t-105.5 -38.5q-72 0 -72 90q0 33 15 110l37 199q-92 -190 -197.5 -299t-214.5 -109q-72 0 -120 48.5t-48 150.5q0 180 120 362q85 130 201.5 206.5t233.5 76.5q59 0 100 -26l46 233h-353q-8 0 -8 20.5t8 20.5h361l37 203q4 33 4 43q0 53 -43 53
q-35 0 -101 -33h-2q-10 0 -13 11.5t5 13.5l266 129h4q8 0 14.5 -6t2.5 -11l-74 -403h127q8 0 8 -20.5z" />
    <glyph glyph-name="Emacron" unicode="&#x112;" horiz-adv-x="1052" 
d="M987 1053q0 90 -42 142t-116 52h-167q-66 0 -98 -10t-47 -38t-25 -87l-74 -426h287q82 0 119.5 33t52.5 112q2 10 14 9.5t10 -11.5l-31 -163l-12 -78q-2 -12 -16 -113q-2 -8 -14.5 -7t-10.5 9q6 35 6 76q0 92 -133 92h-280l-82 -471q-8 -53 -9 -63q0 -43 28 -58.5
t102 -15.5h223q78 0 150.5 74.5t115.5 195.5q0 2 13 2t12 -8q-31 -92 -50.5 -190t-25.5 -104.5t-23 -6.5h-831q-4 0 -4 12.5t4 12.5q66 0 98.5 10t48 39.5t27.5 91.5l168 948q6 41 6 76t-26.5 50t-102.5 15q-6 0 -6 12.5t6 12.5h784q17 0 13 -18l-19 -125q-10 -78 -20 -131
q0 -6 -8.5 -6.5t-13.5 3t-3 12.5t2 38zM494 1468q-15 0 -15 31t15 31h485q12 0 12 -31t-12 -31h-485z" />
    <glyph glyph-name="emacron" unicode="&#x113;" horiz-adv-x="702" 
d="M441.5 762q-93.5 0 -157 -83t-87.5 -214q299 57 333 199q4 20 5 30q0 68 -93.5 68zM535 817q137 0 137 -99q0 -52 -66 -112q-134 -123 -416 -170q-10 -66 -10 -112q0 -127 56.5 -203t166 -76t199.5 68h2q6 0 11.5 -6.5t0.5 -10.5q-143 -121 -285.5 -121t-208.5 83
q-67 82 -67 232q-1 150 97 294q68 102 170 167.5t213 65.5zM272 979q-14 0 -14 30.5t14 30.5h486q12 0 12 -30.5t-12 -30.5h-486z" />
    <glyph glyph-name="Ebreve" unicode="&#x114;" horiz-adv-x="1052" 
d="M987 1053q0 90 -42 142t-116 52h-167q-66 0 -98 -10t-47 -38t-25 -87l-74 -426h287q82 0 119.5 33t52.5 112q2 10 14 9.5t10 -11.5l-31 -163l-12 -78q-2 -12 -16 -113q-2 -8 -14.5 -7t-10.5 9q6 35 6 76q0 92 -133 92h-280l-82 -471q-8 -53 -9 -63q0 -43 28 -58.5
t102 -15.5h223q78 0 150.5 74.5t115.5 195.5q0 2 13 2t12 -8q-31 -92 -50.5 -190t-25.5 -104.5t-23 -6.5h-831q-4 0 -4 12.5t4 12.5q66 0 98.5 10t48 39.5t27.5 91.5l168 948q6 41 6 76t-26.5 50t-102.5 15q-6 0 -6 12.5t6 12.5h784q17 0 13 -18l-19 -125q-10 -78 -20 -131
q0 -6 -8.5 -6.5t-13.5 3t-3 12.5t2 38zM532 1540q0 12 30 22.5t52 10.5t23 -6q4 -59 39 -95t86 -36t86 29.5t65 95.5q6 6 13.5 6t15.5 -5.5t6 -9.5q-86 -188 -233 -188q-86 0 -134.5 52t-48.5 124z" />
    <glyph glyph-name="ebreve" unicode="&#x115;" horiz-adv-x="702" 
d="M441.5 762q-93.5 0 -157 -83t-87.5 -214q299 57 333 199q4 20 5 30q0 68 -93.5 68zM535 817q137 0 137 -99q0 -52 -66 -112q-134 -123 -416 -170q-10 -66 -10 -112q0 -127 56.5 -203t166 -76t199.5 68h2q6 0 11.5 -6.5t0.5 -10.5q-143 -121 -285.5 -121t-208.5 83
q-67 82 -67 232q-1 150 97 294q68 102 170 167.5t213 65.5zM307 1149q0 12 30 22.5t52 10.5t23 -6q4 -59 38.5 -95.5t86 -36.5t86 30t65.5 95q12 12 24.5 4t10.5 -12q-86 -188 -234 -188q-86 0 -134 52t-48 124z" />
    <glyph glyph-name="Edotaccent" unicode="&#x116;" horiz-adv-x="1052" 
d="M987 1053q0 90 -42 142t-116 52h-167q-66 0 -98 -10t-47 -38t-25 -87l-74 -426h287q82 0 119.5 33t52.5 112q2 10 14 9.5t10 -11.5l-31 -163l-12 -78q-2 -12 -16 -113q-2 -8 -14.5 -7t-10.5 9q6 35 6 76q0 92 -133 92h-280l-82 -471q-8 -53 -9 -63q0 -43 28 -58.5
t102 -15.5h223q78 0 150.5 74.5t115.5 195.5q0 2 13 2t12 -8q-31 -92 -50.5 -190t-25.5 -104.5t-23 -6.5h-831q-4 0 -4 12.5t4 12.5q66 0 98.5 10t48 39.5t27.5 91.5l168 948q6 41 6 76t-26.5 50t-102.5 15q-6 0 -6 12.5t6 12.5h784q17 0 13 -18l-19 -125q-10 -78 -20 -131
q0 -6 -8.5 -6.5t-13.5 3t-3 12.5t2 38zM633 1537q0 40 24.5 62.5t65.5 22.5t63.5 -22.5t22.5 -62.5t-22.5 -62.5t-63.5 -22.5t-65.5 22.5t-24.5 62.5z" />
    <glyph glyph-name="edotaccent" unicode="&#x117;" horiz-adv-x="702" 
d="M441.5 762q-93.5 0 -157 -83t-87.5 -214q299 57 333 199q4 20 5 30q0 68 -93.5 68zM535 817q137 0 137 -99q0 -52 -66 -112q-134 -123 -416 -170q-10 -66 -10 -112q0 -127 56.5 -203t166 -76t199.5 68h2q6 0 11.5 -6.5t0.5 -10.5q-143 -121 -285.5 -121t-208.5 83
q-67 82 -67 232q-1 150 97 294q68 102 170 167.5t213 65.5zM442 1138q0 40 23.5 62.5t64.5 22.5t63.5 -22.5t22.5 -62.5t-22.5 -63.5t-63.5 -23.5t-64.5 23.5t-23.5 63.5z" />
    <glyph glyph-name="Eogonek" unicode="&#x118;" horiz-adv-x="1052" 
d="M697 -502q60 0 122 53h2q6 0 12.5 -7t0.5 -11q-104 -96 -193.5 -96t-131.5 43t-42 129t81 187.5t195 203.5h-710q-4 0 -4 12.5t4 12.5q66 0 98.5 10t48 39.5t27.5 91.5l168 948q6 41 6 76t-26.5 50t-102.5 15q-6 0 -6 12.5t6 12.5h784q17 0 13 -18l-19 -125
q-10 -78 -20 -131q0 -6 -8.5 -6.5t-13.5 3t-3 12.5t2 38q0 90 -42 142t-116 52h-167q-66 0 -98 -10t-47 -38t-25 -87l-74 -426h287q82 0 119.5 33t52.5 112q2 10 14 9.5t10 -11.5l-31 -163l-12 -78q-2 -12 -16 -113q-2 -8 -14.5 -7t-10.5 9q6 35 6 76q0 92 -133 92h-280
l-82 -471q-8 -53 -9 -63q0 -43 28 -58.5t102 -15.5h223q78 0 150.5 74.5t115.5 195.5q0 2 13 2t12 -8q-31 -92 -50.5 -190t-25.5 -104.5t-23 -6.5h-84q-86 -82 -145.5 -165t-63.5 -193q0 -68 33 -106t93 -38z" />
    <glyph glyph-name="eogonek" unicode="&#x119;" horiz-adv-x="712" 
d="M441.5 762q-93.5 0 -157 -83t-87.5 -214q299 57 333 199q4 20 5 30q0 68 -93.5 68zM535 817q137 0 137 -99q0 -52 -66 -112q-134 -123 -416 -170q-10 -66 -10 -112q0 -127 56.5 -203t154.5 -76t174 43l33 25l2 -2l2 2h2q6 0 11.5 -6.5t1 -10.5t-51.5 -39
q-150 -127 -223.5 -222.5t-73.5 -201.5q0 -59 31 -94t91.5 -35t123.5 54h2q6 0 12.5 -7.5t1.5 -11.5q-106 -102 -208 -102q-72 0 -115 40t-43 125q0 162 282 394q-61 -20 -127 -21q-131 0 -197 83q-67 82 -67 232q-1 150 97 294q68 102 170 167.5t213 65.5z" />
    <glyph glyph-name="Ecaron" unicode="&#x11a;" horiz-adv-x="1052" 
d="M987 1053q0 90 -42 142t-116 52h-167q-66 0 -98 -10t-47 -38t-25 -87l-74 -426h287q82 0 119.5 33t52.5 112q2 10 14 9.5t10 -11.5l-31 -163l-12 -78q-2 -12 -16 -113q-2 -8 -14.5 -7t-10.5 9q6 35 6 76q0 92 -133 92h-280l-82 -471q-8 -53 -9 -63q0 -43 28 -58.5
t102 -15.5h223q78 0 150.5 74.5t115.5 195.5q0 2 13 2t12 -8q-31 -92 -50.5 -190t-25.5 -104.5t-23 -6.5h-831q-4 0 -4 12.5t4 12.5q66 0 98.5 10t48 39.5t27.5 91.5l168 948q6 41 6 76t-26.5 50t-102.5 15q-6 0 -6 12.5t6 12.5h784q17 0 13 -18l-19 -125q-10 -78 -20 -131
q0 -6 -8.5 -6.5t-13.5 3t-3 12.5t2 38zM530 1583q0 6 5.5 10t9.5 2l172 -116l209 118h2q6 0 10 -6t0 -10l-219 -199q-8 -8 -19.5 -8t-17.5 8l-152 199v2z" />
    <glyph glyph-name="ecaron" unicode="&#x11b;" horiz-adv-x="702" 
d="M441.5 762q-93.5 0 -157 -83t-87.5 -214q299 57 333 199q4 20 5 30q0 68 -93.5 68zM535 817q137 0 137 -99q0 -52 -66 -112q-134 -123 -416 -170q-10 -66 -10 -112q0 -127 56.5 -203t166 -76t199.5 68h2q6 0 11.5 -6.5t0.5 -10.5q-143 -121 -285.5 -121t-208.5 83
q-67 82 -67 232q-1 150 97 294q68 102 170 167.5t213 65.5zM496.5 967q-17.5 0 -17.5 10l-37 510q0 6 12.5 7t12.5 -5l65 -315l179 321q2 2 7 2t11 -3t4 -7l-215 -510q-4 -10 -21.5 -10z" />
    <glyph glyph-name="Gcircumflex" unicode="&#x11c;" horiz-adv-x="1292" 
d="M821 493.5q0 16.5 10 16.5q137 -10 221.5 -10t176.5 6q6 0 7 -14.5t-7 -14.5q-43 2 -62.5 -13t-32 -62.5t-29.5 -150.5t-18.5 -140t-3.5 -51.5t-6 -17.5t-18 -9q-447 -117 -681 7q-124 66 -187.5 184t-63.5 270q0 272 165 486q118 152 291 237.5t363 85.5t285 -74
q12 -12 12 -25l-22 -250q-2 -8 -12.5 -8t-10.5 8q-12 147 -97 225t-233 78q-227 0 -380.5 -147t-198.5 -401q-16 -98 -17 -174q0 -158 55.5 -277t159 -182.5t217 -63.5t165 19.5t82 72t45.5 150.5t15.5 134t-15.5 56q-28 34 -165 33q-10 0 -10 16.5zM725 1352q-6 0 -10 5
t0 9l219 199q10 10 19 10t20 -10l149 -199l2 -4q0 -4 -6 -8t-10 -2l-174 116l-207 -116h-2z" />
    <glyph glyph-name="gcircumflex" unicode="&#x11d;" horiz-adv-x="776" 
d="M27 -316q0 -85 79.5 -143.5t200.5 -58.5t181.5 47t60.5 118.5t-57.5 120t-167.5 107.5q-57 27 -99 53q-96 -57 -147 -108t-51 -136zM545 554q0 68 -36 140t-102.5 72t-118.5 -60q-73 -84 -73 -229q0 -98 39 -167.5t103 -69.5q65 0 115 56q74 82 73 258zM799 782.5
q0 -24.5 -9.5 -52.5t-17.5 -23q-68 35 -158 22q43 -59 43 -125q1 -157 -79 -259q-54 -69 -125.5 -106.5t-143.5 -37.5q-20 0 -49 4q-27 -31 -32 -74t40 -81t153 -91t169 -105.5t61 -130.5t-59.5 -146.5t-158.5 -110t-227 -41.5t-212 60t-84 148t75.5 158t219.5 152
q-74 53 -74 104t25.5 87t74.5 79q-61 23 -95 80t-34 117q0 194 131 308q97 85 220 85q84 0 137 -47q109 51 198 51q11 0 11 -24.5zM566 1487q17 0 18 -10l37 -510q0 -4 -12.5 -5t-12.5 3l-66 315l-178 -319q-8 -8 -16 -2t-6 8l217 510q2 10 19 10z" />
    <glyph glyph-name="Gbreve" unicode="&#x11e;" horiz-adv-x="1292" 
d="M821 493.5q0 16.5 10 16.5q137 -10 221.5 -10t176.5 6q6 0 7 -14.5t-7 -14.5q-43 2 -62.5 -13t-32 -62.5t-29.5 -150.5t-18.5 -140t-3.5 -51.5t-6 -17.5t-18 -9q-447 -117 -681 7q-124 66 -187.5 184t-63.5 270q0 272 165 486q118 152 291 237.5t363 85.5t285 -74
q12 -12 12 -25l-22 -250q-2 -8 -12.5 -8t-10.5 8q-12 147 -97 225t-233 78q-227 0 -380.5 -147t-198.5 -401q-16 -98 -17 -174q0 -158 55.5 -277t159 -182.5t217 -63.5t165 19.5t82 72t45.5 150.5t15.5 134t-15.5 56q-28 34 -165 33q-10 0 -10 16.5zM735 1540q0 12 30 22.5
t52 10.5t23 -6q4 -59 38.5 -95t86 -36t86 29.5t65.5 95.5q6 6 13 6t15.5 -5.5t6.5 -9.5q-86 -188 -233 -188q-87 0 -135 52t-48 124z" />
    <glyph glyph-name="gbreve" unicode="&#x11f;" horiz-adv-x="776" 
d="M27 -316q0 -85 79.5 -143.5t200.5 -58.5t181.5 47t60.5 118.5t-57.5 120t-167.5 107.5q-57 27 -99 53q-96 -57 -147 -108t-51 -136zM545 554q0 68 -36 140t-102.5 72t-118.5 -60q-73 -84 -73 -229q0 -98 39 -167.5t103 -69.5q65 0 115 56q74 82 73 258zM799 782.5
q0 -24.5 -9.5 -52.5t-17.5 -23q-68 35 -158 22q43 -59 43 -125q1 -157 -79 -259q-54 -69 -125.5 -106.5t-143.5 -37.5q-20 0 -49 4q-27 -31 -32 -74t40 -81t153 -91t169 -105.5t61 -130.5t-59.5 -146.5t-158.5 -110t-227 -41.5t-212 60t-84 148t75.5 158t219.5 152
q-74 53 -74 104t25.5 87t74.5 79q-61 23 -95 80t-34 117q0 194 131 308q97 85 220 85q84 0 137 -47q109 51 198 51q11 0 11 -24.5zM279 1139q0 12 29.5 22t52 10t22.5 -6q4 -59 39 -95t86 -36t86 30t65 95q6 6 13.5 6t15.5 -5t6 -9q-86 -188 -233 -188q-86 0 -134 52
t-48 124z" />
    <glyph glyph-name="Gdotaccent" unicode="&#x120;" horiz-adv-x="1292" 
d="M821 493.5q0 16.5 10 16.5q137 -10 221.5 -10t176.5 6q6 0 7 -14.5t-7 -14.5q-43 2 -62.5 -13t-32 -62.5t-29.5 -150.5t-18.5 -140t-3.5 -51.5t-6 -17.5t-18 -9q-447 -117 -681 7q-124 66 -187.5 184t-63.5 270q0 272 165 486q118 152 291 237.5t363 85.5t285 -74
q12 -12 12 -25l-22 -250q-2 -8 -12.5 -8t-10.5 8q-12 147 -97 225t-233 78q-227 0 -380.5 -147t-198.5 -401q-16 -98 -17 -174q0 -158 55.5 -277t159 -182.5t217 -63.5t165 19.5t82 72t45.5 150.5t15.5 134t-15.5 56q-28 34 -165 33q-10 0 -10 16.5zM848 1537
q0 40 24.5 62.5t65.5 22.5t63.5 -22.5t22.5 -62.5t-22.5 -62.5t-63.5 -22.5t-65.5 22.5t-24.5 62.5z" />
    <glyph glyph-name="gdotaccent" unicode="&#x121;" horiz-adv-x="776" 
d="M27 -316q0 -85 79.5 -143.5t200.5 -58.5t181.5 47t60.5 118.5t-57.5 120t-167.5 107.5q-57 27 -99 53q-96 -57 -147 -108t-51 -136zM545 554q0 68 -36 140t-102.5 72t-118.5 -60q-73 -84 -73 -229q0 -98 39 -167.5t103 -69.5q65 0 115 56q74 82 73 258zM799 782.5
q0 -24.5 -9.5 -52.5t-17.5 -23q-68 35 -158 22q43 -59 43 -125q1 -157 -79 -259q-54 -69 -125.5 -106.5t-143.5 -37.5q-20 0 -49 4q-27 -31 -32 -74t40 -81t153 -91t169 -105.5t61 -130.5t-59.5 -146.5t-158.5 -110t-227 -41.5t-212 60t-84 148t75.5 158t219.5 152
q-74 53 -74 104t25.5 87t74.5 79q-61 23 -95 80t-34 117q0 194 131 308q97 85 220 85q84 0 137 -47q109 51 198 51q11 0 11 -24.5zM414 1127q0 40 23.5 62.5t64.5 22.5t63.5 -22.5t22.5 -62.5t-22.5 -63.5t-63.5 -23.5t-64.5 23.5t-23.5 63.5z" />
    <glyph glyph-name="Gcommaaccent" unicode="&#x122;" horiz-adv-x="1292" 
d="M821 493.5q0 16.5 10 16.5q137 -10 221.5 -10t176.5 6q6 0 7 -14.5t-7 -14.5q-43 2 -62.5 -13t-32 -62.5t-29.5 -150.5t-18.5 -140t-3.5 -51.5t-6 -17.5t-18 -9q-447 -117 -681 7q-124 66 -187.5 184t-63.5 270q0 272 165 486q118 152 291 237.5t363 85.5t285 -74
q12 -12 12 -25l-22 -250q-2 -8 -12.5 -8t-10.5 8q-12 147 -97 225t-233 78q-227 0 -380.5 -147t-198.5 -401q-16 -98 -17 -174q0 -158 55.5 -277t159 -182.5t217 -63.5t165 19.5t82 72t45.5 150.5t15.5 134t-15.5 56q-28 34 -165 33q-10 0 -10 16.5zM662 -176q49 0 78.5 -34
t29.5 -91q0 -143 -164 -262l-4 -2q-8 0 -12 9t2 13q108 76 113 193q0 25 -5 33q-18 -20 -56 -20.5t-59.5 24t-17.5 61.5q0 76 95 76z" />
    <glyph glyph-name="gcommaaccent" unicode="&#x123;" horiz-adv-x="776" 
d="M27 -316q0 -85 79.5 -143.5t200.5 -58.5t181.5 47t60.5 118.5t-57.5 120t-167.5 107.5q-57 27 -99 53q-96 -57 -147 -108t-51 -136zM545 554q0 68 -36 140t-102.5 72t-118.5 -60q-73 -84 -73 -229q0 -98 39 -167.5t103 -69.5q65 0 115 56q74 82 73 258zM799 782.5
q0 -24.5 -9.5 -52.5t-17.5 -23q-68 35 -158 22q43 -59 43 -125q1 -157 -79 -259q-54 -69 -125.5 -106.5t-143.5 -37.5q-20 0 -49 4q-27 -31 -32 -74t40 -81t153 -91t169 -105.5t61 -130.5t-59.5 -146.5t-158.5 -110t-227 -41.5t-212 60t-84 148t75.5 158t219.5 152
q-74 53 -74 104t25.5 87t74.5 79q-61 23 -95 80t-34 117q0 194 131 308q97 85 220 85q84 0 137 -47q109 51 198 51q11 0 11 -24.5zM387 1116q0 143 164 262l4 2q8 0 12 -9t-2 -13q-112 -79 -112 -193q0 -25 4 -32q18 20 56 20t59.5 -24.5t19.5 -61.5q-4 -76 -96 -76
q-50 0 -79.5 34t-29.5 91z" />
    <glyph glyph-name="Hcircumflex" unicode="&#x124;" horiz-adv-x="1374" 
d="M1438 1267.5q0 -12.5 -4 -12.5q-63 0 -96 -11t-49.5 -39.5t-28.5 -90.5l-168 -948q-6 -37 -6 -73t27.5 -52t105.5 -16q4 0 4 -12.5t-4 -12.5q-53 0 -84 2l-123 2l-121 -2q-33 -2 -90 -2q-6 0 -6 12.5t6 12.5q68 0 99.5 10t47 38.5t27.5 92.5l84 479h-658l-86 -479
q-8 -53 -8 -66q0 -45 27.5 -60t105.5 -15q4 0 4 -12.5t-4 -12.5q-55 0 -88 2l-127 2l-119 -2q-31 -2 -83 -2q-6 0 -6.5 12.5t6.5 12.5q66 0 98.5 10t48.5 39.5t29 91.5l168 948q6 37 6 74t-27 52t-102 15q-6 0 -6 12.5t6 12.5l82 -2q74 -4 121 -4t124 4l86 2q6 0 6.5 -12.5
t-6.5 -12.5q-66 0 -97.5 -12t-47.5 -42t-29 -91l-75 -424h659l74 424q8 53 8 68q0 45 -27.5 61t-103.5 16q-4 0 -4 12.5t4 12.5l86 -2q74 -4 119 -4t123 4l88 2q4 0 4 -12.5zM668 1352q-6 0 -10.5 5t-0.5 9l220 199q10 10 19 10t19 -10l150 -199l2 -4q0 -4 -6 -8t-10 -2
l-174 116l-207 -116h-2z" />
    <glyph glyph-name="hcircumflex" unicode="&#x125;" horiz-adv-x="913" 
d="M641 817q133 0 133 -155q0 -47 -12 -115l-68 -365q-6 -31 -6 -55q0 -63 39 -64q45 0 135 95q4 4 9 4t9.5 -7.5t-1.5 -13.5q-140 -159 -223 -159q-44 0 -61 21.5t-17 66.5t12 112l59 326q12 66 13 110q0 119 -89 119q-68 0 -140.5 -86t-136 -249.5t-103.5 -387.5
q-4 -31 -58.5 -30.5t-54.5 12.5l8 47q12 49 23 109l208 1116q4 33 5 43q0 53 -43 53q-35 0 -101 -33h-2q-10 0 -13 11.5t5 13.5l266 129h4q6 0 12.5 -6t4.5 -11l-201 -1103q74 211 175 331.5t210 120.5zM464.5 1659q10.5 0 16.5 -10l152 -199v-2q0 -4 -5 -9t-10 -3l-174 116
l-206 -116q-5 -2 -11 5t-2 9l219 199q10 10 20.5 10z" />
    <glyph glyph-name="Hbar" unicode="&#x126;" horiz-adv-x="1374" 
d="M1032 496l60 340h-658l-59 -340h657zM1438 1267.5q0 -12.5 -4 -12.5q-63 0 -96 -11t-49.5 -39.5t-28.5 -90.5l-168 -948q-6 -37 -6 -74t27.5 -52t105.5 -15q4 0 4 -12.5t-4 -12.5q-53 0 -84 2l-123 2l-121 -2q-33 -2 -90 -2q-6 0 -6 12.5t6 12.5q68 0 99.5 10t47 38.5
t27.5 92.5l51 287h-659l-52 -287q-8 -53 -8 -66q0 -45 27.5 -60t105.5 -15q4 0 4 -12.5t-4 -12.5q-55 0 -88 2l-127 2l-119 -2q-31 -2 -83 -2q-6 0 -6.5 12.5t6.5 12.5q66 0 98.5 10t48.5 39.5t29 91.5l168 948q6 41 6 76t-27 50t-102 15q-6 0 -6 12.5t6 12.5l82 -2
q74 -4 121 -4t124 4l86 2q6 0 6.5 -12.5t-6.5 -12.5q-66 0 -97.5 -12t-47.5 -42t-29 -91l-41 -231h658l41 231q8 53 8 68q0 45 -27.5 61t-103.5 16q-4 0 -4 12.5t4 12.5l86 -2q74 -4 119 -4t123 4l88 2q4 0 4 -12.5z" />
    <glyph glyph-name="hbar" unicode="&#x127;" horiz-adv-x="907" 
d="M641 817q133 0 133 -155q0 -47 -12 -115l-68 -365q-6 -31 -6 -55q0 -63 39 -64q45 0 135 95q4 4 9 4t9.5 -7.5t-1.5 -13.5q-140 -159 -223 -159q-44 0 -61 21.5t-17 66.5t12 112l59 326q12 66 13 110q0 119 -89 119q-68 0 -140.5 -86t-136 -249.5t-103.5 -387.5
q-4 -31 -58.5 -30.5t-54.5 12.5l8 47q12 49 23 109l163 872h-124q-8 0 -8.5 20.5t8.5 20.5h131l38 203q4 33 5 43q0 53 -43 53q-35 0 -101 -33h-2q-10 0 -13 11.5t5 13.5l266 129h4q6 0 12.5 -6t4.5 -11l-74 -403h352q10 0 10 -20.5t-10 -20.5h-358l-121 -659
q74 211 175 331.5t210 120.5z" />
    <glyph glyph-name="Itilde" unicode="&#x128;" horiz-adv-x="630" 
d="M35 12.5q0 12.5 6 12.5q66 0 98.5 10t48 39.5t27.5 91.5l168 948q6 37 6 74t-27.5 52t-105.5 15q-4 0 -4 12.5t4 12.5l86 -2q74 -4 125 -4t129 4l80 2q4 0 4 -12.5t-4 -12.5q-66 0 -97.5 -12t-48 -42t-28.5 -91l-168 -944q-6 -39 -6 -75t27.5 -51t105.5 -15q4 0 4 -12.5
t-4 -12.5q-53 0 -84 2l-127 2l-121 -2q-33 -2 -88 -2q-6 0 -6 12.5zM242 1423q-4 0 -9.5 5.5t-3.5 9.5q96 129 181 129q35 1 114 -25t128 -26t70 13t50 42h2q6 0 10 -5t2 -10q-57 -76 -92 -101t-74 -25t-78.5 10t-85.5 24.5t-93.5 14.5t-70.5 -13t-48 -43h-2z" />
    <glyph glyph-name="itilde" unicode="&#x129;" horiz-adv-x="505" 
d="M291 809q74 0 74 -89q0 -46 -13 -108l-82 -430q-6 -33 -6 -59q0 -59 37 -60q49 0 139 91q4 4 8 4t9.5 -7.5t-0.5 -13.5q-139 -155 -234 -155q-73 0 -73 90q0 33 14 110l84 426q6 31 6 56q0 63 -41 63q-53 0 -141 -92q-2 -2 -7 -2t-10.5 7t0.5 11q137 158 236 158z
M113 981q-4 0 -9.5 5t-3.5 9q97 129 179 129q23 0 73.5 -25.5t88.5 -25.5t58.5 13.5t47.5 41.5h2q6 0 10 -5t2 -9q-55 -76 -90 -101.5t-68 -25.5t-90 25q-95 42 -144 13q-24 -14 -54 -44h-2z" />
    <glyph glyph-name="Imacron" unicode="&#x12a;" horiz-adv-x="630" 
d="M35 12.5q0 12.5 6 12.5q66 0 98.5 10t48 39.5t27.5 91.5l168 948q6 37 6 74t-27.5 52t-105.5 15q-4 0 -4 12.5t4 12.5l86 -2q74 -4 125 -4t129 4l80 2q4 0 4 -12.5t-4 -12.5q-66 0 -97.5 -12t-48 -42t-28.5 -91l-168 -944q-6 -39 -6 -75t27.5 -51t105.5 -15q4 0 4 -12.5
t-4 -12.5q-53 0 -84 2l-127 2l-121 -2q-33 -2 -88 -2q-6 0 -6 12.5zM272 1468q-14 0 -14 31t14 31h486q12 0 12 -31t-12 -31h-486z" />
    <glyph glyph-name="imacron" unicode="&#x12b;" horiz-adv-x="505" 
d="M291 809q74 0 74 -89q0 -46 -13 -108l-82 -430q-6 -33 -6 -59q0 -59 37 -60q49 0 139 91q4 4 8 4t9.5 -7.5t-0.5 -13.5q-139 -155 -234 -155q-73 0 -73 90q0 33 14 110l84 426q6 31 6 56q0 63 -41 63q-53 0 -141 -92q-2 -2 -7 -2t-10.5 7t0.5 11q137 158 236 158zM94 979
q-14 0 -14 30.5t14 30.5h486q12 0 12 -30.5t-12 -30.5h-486z" />
    <glyph glyph-name="Ibreve" unicode="&#x12c;" horiz-adv-x="630" 
d="M35 12.5q0 12.5 6 12.5q66 0 98.5 10t48 39.5t27.5 91.5l168 948q6 37 6 74t-27.5 52t-105.5 15q-4 0 -4 12.5t4 12.5l86 -2q74 -4 125 -4t129 4l80 2q4 0 4 -12.5t-4 -12.5q-66 0 -97.5 -12t-48 -42t-28.5 -91l-168 -944q-6 -39 -6 -75t27.5 -51t105.5 -15q4 0 4 -12.5
t-4 -12.5q-53 0 -84 2l-127 2l-121 -2q-33 -2 -88 -2q-6 0 -6 12.5zM311 1540q0 12 30 22.5t52 10.5t23 -6q4 -59 38.5 -95t86 -36t86.5 29.5t65 95.5q6 6 13.5 6t15.5 -5.5t6 -9.5q-86 -188 -233 -188q-86 0 -134.5 52t-48.5 124z" />
    <glyph glyph-name="ibreve" unicode="&#x12d;" horiz-adv-x="505" 
d="M291 809q74 0 74 -89q0 -46 -13 -108l-82 -430q-6 -33 -6 -59q0 -59 37 -60q49 0 139 91q4 4 8 4t9.5 -7.5t-0.5 -13.5q-139 -155 -234 -155q-73 0 -73 90q0 33 14 110l84 426q6 31 6 56q0 63 -41 63q-53 0 -141 -92q-2 -2 -7 -2t-10.5 7t0.5 11q137 158 236 158z
M129 1149q0 12 29.5 22.5t52 10.5t22.5 -6q4 -59 39 -95.5t86.5 -36.5t86 30t65.5 95q12 12 24.5 4t10.5 -12q-86 -188 -234 -188q-86 0 -134 52t-48 124z" />
    <glyph glyph-name="Iogonek" unicode="&#x12e;" horiz-adv-x="630" 
d="M14 -412q0 182 222 416l-113 -2q-31 -2 -82 -2q-6 0 -6 12.5t6 12.5q66 0 98.5 10t48 39.5t27.5 91.5l168 948q6 37 6 74t-27.5 52t-105.5 15q-4 0 -4 12.5t4 12.5l86 -2q74 -4 125 -4t129 4l80 2q4 0 4 -12.5t-4 -12.5q-66 0 -97.5 -12t-48 -42t-28.5 -91l-168 -944
q-6 -39 -6 -75t27.5 -51t105.5 -15q4 0 4 -12.5t-4 -12.5q-51 0 -80 2l-115 2q-147 -180 -147 -371q0 -61 25.5 -97t74 -36t107.5 49h4q6 0 12 -6t0 -10q-100 -96 -177 -96t-114 41t-37 110z" />
    <glyph glyph-name="iogonek" unicode="&#x12f;" horiz-adv-x="505" 
d="M225 -18q-71 0 -71 94q0 43 12 106l80 426q4 20 4 54q0 66 -39 65q-57 0 -141 -92q-2 -2 -8 -2t-10.5 7t1.5 11q135 158 238 158q37 0 53 -21.5t16 -71.5t-10 -104l-78 -430q-6 -31 -6 -55q0 -63 39 -64q41 0 135 95q2 2 7 2t9.5 -7.5t0.5 -11.5l-95 -92
q-123 -119 -193.5 -208.5t-70.5 -198.5q0 -61 33 -100.5t79 -39.5t52 2l70 41q6 0 10 -8t0 -12q-96 -88 -179 -88t-125 44t-42 111q0 160 256 392q-8 -2 -27 -2zM264 1138q0 40 23.5 62.5t64.5 22.5t63.5 -22.5t22.5 -62.5t-22.5 -63.5t-63.5 -23.5t-64.5 23.5t-23.5 63.5z
" />
    <glyph glyph-name="Idotaccent" unicode="&#x130;" horiz-adv-x="630" 
d="M35 12.5q0 12.5 6 12.5q66 0 98.5 10t48 39.5t27.5 91.5l168 948q6 37 6 74t-27.5 52t-105.5 15q-4 0 -4 12.5t4 12.5l86 -2q74 -4 125 -4t129 4l80 2q4 0 4 -12.5t-4 -12.5q-66 0 -97.5 -12t-48 -42t-28.5 -91l-168 -944q-6 -39 -6 -75t27.5 -51t105.5 -15q4 0 4 -12.5
t-4 -12.5q-53 0 -84 2l-127 2l-121 -2q-33 -2 -88 -2q-6 0 -6 12.5zM412 1537q0 40 24.5 62.5t65.5 22.5t63.5 -22.5t22.5 -62.5t-22.5 -62.5t-63.5 -22.5t-65.5 22.5t-24.5 62.5z" />
    <glyph glyph-name="dotlessi" unicode="&#x131;" horiz-adv-x="505" 
d="M291 809q74 0 74 -89q0 -46 -13 -108l-82 -430q-6 -33 -6 -59q0 -59 37 -60q49 0 139 91q4 4 8 4t9.5 -7.5t-0.5 -13.5q-139 -155 -234 -155q-73 0 -73 90q0 33 14 110l84 426q6 31 6 56q0 63 -41 63q-53 0 -141 -92q-2 -2 -7 -2t-10.5 7t0.5 11q137 158 236 158z" />
    <glyph glyph-name="IJ" unicode="&#x132;" horiz-adv-x="1267" 
d="M197 240q-1 112 81 112q38 0 51 -29.5t16 -110.5t47 -144.5t177 -63.5q309 0 379 406l123 704q8 49 8 64q0 47 -33.5 62t-125.5 15q-8 0 -8.5 12.5t8.5 12.5l108 -2q82 -4 130 -4t122 4l80 2q8 0 8 -12.5t-8 -12.5q-59 0 -90 -12t-46.5 -42t-27.5 -91l-100 -582
q-45 -264 -186.5 -409.5t-331.5 -145.5q-113 0 -200 41t-134 105.5t-47 120.5zM100 563q0 12 9 12q70 0 102.5 10.5t48.5 39t29 92.5l69 397q6 37 6 74t-28.5 52t-108.5 15q-8 0 -8 12.5t8 12.5l95 -2q82 -4 131 -4t131 4l84 2q10 0 10 -12.5t-10 -12.5q-70 0 -105 -12
t-51 -42t-27 -91l-69 -393q-8 -35 -8 -74t29.5 -53.5t109.5 -14.5q6 0 6 -12t-6 -12q-57 0 -90 2l-131 2l-127 -2q-33 -2 -90 -2q-9 0 -9 12z" />
    <glyph glyph-name="ij" unicode="&#x133;" horiz-adv-x="923" 
d="M240 -575q-90 0 -147.5 38.5t-57.5 90.5t20.5 72t46.5 20t37 -15.5t31 -59.5t50 -73.5t104 -29.5t132 73.5t91 265.5l110 623q-76 -215 -176 -336t-211 -121q-135 0 -135 152q0 55 15 119l73 364q6 35 6 56q0 63 -40 63t-134 -94q-4 -4 -9 -4t-9 7t2 13q72 82 126 121
t105 39q72 0 72 -92q0 -45 -14 -109l-66 -325q-14 -76 -14 -111q0 -119 90 -119q68 0 140.5 87t136 251t104.5 387q5 29 58 29q54 0 54 -12l-8 -43q-12 -43 -22 -113l-144 -782q-35 -193 -146.5 -312.5t-270.5 -119.5zM899 1138q0 -40 -22.5 -63.5t-63.5 -23.5t-64.5 23.5
t-23.5 63.5t23.5 62.5t64.5 22.5t63.5 -22.5t22.5 -62.5zM248 1138q0 40 23.5 62.5t64.5 22.5t63.5 -22.5t22.5 -62.5t-22.5 -63.5t-63.5 -23.5t-64.5 23.5t-23.5 63.5z" />
    <glyph glyph-name="Jcircumflex" unicode="&#x134;" horiz-adv-x="575" 
d="M-43 -395q-4 0 -9 9t-1 13q92 55 146 167t87 288l182 1032q6 37 6 74t-27.5 52t-104.5 15q-4 0 -4.5 12.5t4.5 12.5l86 -2q74 -4 124 -4t127 4l82 2q4 0 4 -12.5t-4 -12.5q-66 0 -97.5 -12t-47.5 -42t-29 -91l-172 -973q-29 -162 -70.5 -260t-107 -160.5t-172.5 -111.5
h-2zM268 1352q-6 0 -10 5t0 9l219 199q9 10 19 10t20 -10l150 -199l2 -4q0 -4 -6.5 -8t-10.5 -2l-174 116l-207 -116h-2z" />
    <glyph glyph-name="jcircumflex" unicode="&#x135;" horiz-adv-x="491" 
d="M-104.5 -412q26.5 0 38 -17t19.5 -47t16 -43t33 -13q24 0 46 38q40 72 89 369l127 733q6 31 6 54q0 66 -41 65q-55 0 -139 -92q-2 -2 -8 -2t-10 7t0 11q137 158 237 158q37 0 53.5 -21.5t16.5 -71.5t-10 -104l-119 -690q-33 -193 -70 -296t-90 -146t-128 -43t-107.5 26.5
t-27.5 60.5t23.5 49t45 15zM198 969q-5 0 -11.5 3t-4.5 7l215 510q6 10 22.5 10t16.5 -10l37 -510q0 -6 -12 -7t-12 5l-66 315l-178 -321q-2 -2 -7 -2z" />
    <glyph glyph-name="Kcommaaccent" unicode="&#x136;" horiz-adv-x="1218" 
d="M1274 1267.5q0 -12.5 -6 -12.5q-171 0 -330 -151l-367 -324l205 -366q104 -186 160.5 -267t94.5 -101.5t95 -20.5q6 0 6.5 -12.5t-6.5 -12.5h-174q-72 0 -91 10t-77.5 123t-91.5 170l-217 391l-78 -67l-82 -461q-10 -61 -10 -90t23.5 -40t91.5 -11q6 0 6 -12.5t-6 -12.5
q-51 0 -78 2l-117 2l-119 -2q-31 -2 -83 -2q-6 0 -6.5 12.5t6.5 12.5q66 0 98.5 10t48.5 39.5t29 91.5l168 948q6 37 6 74t-27 52t-102 15q-6 0 -6 12.5t6 12.5l82 -2q74 -4 121 -4t124 4l86 2q6 0 6.5 -12.5t-6.5 -12.5q-66 0 -97.5 -12t-47.5 -42t-29 -91l-77 -438
l491 442q74 74 74 108t-92 33q-6 0 -6.5 12.5t6.5 12.5l75 -2q74 -4 131.5 -4t118.5 4l64 2q6 0 6 -12.5zM465 -252q0 76 97 76q46 0 76 -34t30 -91q0 -143 -164 -262l-4 -2q-8 0 -12.5 9t1.5 13q113 79 113 193q0 25 -4 33q-18 -20 -56 -20.5t-59.5 24t-17.5 61.5z" />
    <glyph glyph-name="kcommaaccent" unicode="&#x137;" horiz-adv-x="851" 
d="M637 693q0 26 -16.5 44.5t-45.5 18.5q-104 0 -189 -90.5t-118 -241.5l-4 -16q184 43 268 98q105 69 105 187zM837 156q5 0 10 -7.5t-1 -11.5q-136 -155 -215 -155q-49 0 -83 28.5t-81 108.5l-119 207q-31 53 -54 53t-32 -2h-2l-67 -363q-4 -31 -58.5 -30.5t-54.5 12.5
l8 47q12 49 23 109l208 1116q4 33 5 43q0 53 -43 53q-35 0 -101 -33h-2q-10 0 -13 11.5t5 13.5l266 129h4q6 0 12.5 -6t4.5 -11l-152 -837q76 86 170 136t172 50t104.5 -29.5t26.5 -57.5q0 -97 -100 -174t-254 -132l135 -236q41 -70 70.5 -94t62.5 -24q53 0 137 84q3 2 8 2z
M219 -252q0 76 97 76q46 0 76 -34t30 -91q0 -143 -164 -262l-4 -2q-8 0 -12 9t2 13q112 79 112 193q0 25 -4 33q-18 -20 -56 -20.5t-59.5 24t-17.5 61.5z" />
    <glyph glyph-name="kgreenlandic" unicode="&#x138;" horiz-adv-x="890" 
d="M676 693q0 26 -16.5 44.5t-45.5 18.5q-104 0 -189 -90.5t-118 -241.5l-4 -16q186 43 279.5 104t93.5 181zM281 809q69 0 69 -88q0 -45 -8 -92q167 188 360 188q61 0 88 -30.5t27 -69.5q0 -78 -95 -155t-261 -136l137 -238q41 -70 70.5 -94t62.5 -24q53 0 137 84q2 2 7 2
t10.5 -7.5t-0.5 -11.5q-136 -155 -215 -155q-49 0 -83 28.5t-81 108.5l-119 207q-31 53 -55.5 53t-32.5 -2l-68 -363q-4 -31 -58 -30.5t-54 12.5q2 10 6 32.5t10 53.5l101 526q6 31 6 56q0 63 -41 63q-54 0 -142 -92q-2 -2 -7 -2t-9 7t0 11q137 158 238 158z" />
    <glyph glyph-name="Lacute" unicode="&#x139;" horiz-adv-x="1015" 
d="M20 12.5q0 12.5 5 12.5q66 0 98.5 10t47.5 39.5t28 91.5l168 948q6 37 6 74t-27 52t-102 15q-6 0 -6 12.5t6 12.5l82 -2q74 -4 121 -4t124 4l86 2q6 0 6.5 -12.5t-6.5 -12.5q-66 0 -97.5 -11t-47.5 -40.5t-29 -91.5l-164 -938q-8 -53 -8 -65q0 -43 27 -57.5t96 -14.5h205
q115 0 189.5 70.5t123.5 203.5q0 4 6.5 4t12.5 -3t4 -5q-45 -160 -64 -276q-8 -31 -32 -31h-854q-5 0 -5 12.5zM342 1389q-8 0 -10 9t4 13q76 37 186.5 105.5t147.5 89.5q8 6 48 -7.5t69.5 -30t13.5 -20.5q-215 -53 -455 -157z" />
    <glyph glyph-name="lacute" unicode="&#x13a;" horiz-adv-x="485" 
d="M186 -18q-73 0 -73 96q0 41 12 104l203 1086q4 16 4 45q0 51 -41 51q-33 0 -98 -33h-3q-10 0 -13 11.5t5 13.5l264 129h5q8 0 14 -6t4 -11l-238 -1286q-6 -33 -6 -55q0 -63 41 -64q43 0 133 95q4 4 9.5 4t9.5 -7.5t0 -13.5q-72 -82 -126 -120.5t-106 -38.5zM236 1464
q-8 0 -10.5 9.5t3.5 13.5q76 37 187 105.5t147 88.5q8 6 48 -7t70 -29.5t13 -20.5q-223 -54 -454 -158z" />
    <glyph glyph-name="Lcommaaccent" unicode="&#x13b;" horiz-adv-x="1015" 
d="M20 12.5q0 12.5 5 12.5q66 0 98.5 10t47.5 39.5t28 91.5l168 948q6 37 6 74t-27 52t-102 15q-6 0 -6 12.5t6 12.5l82 -2q74 -4 121 -4t124 4l86 2q6 0 6.5 -12.5t-6.5 -12.5q-66 0 -97.5 -11t-47.5 -40.5t-29 -91.5l-164 -938q-8 -53 -8 -65q0 -43 27 -57.5t96 -14.5h205
q115 0 189.5 70.5t123.5 203.5q0 4 6.5 4t12.5 -3t4 -5q-45 -160 -64 -276q-8 -31 -32 -31h-854q-5 0 -5 12.5zM377 -252q0 76 97 76q46 0 76 -34t30 -91q0 -143 -164 -262l-4 -2q-8 0 -12.5 9t1.5 13q113 79 113 193q0 25 -4 33q-18 -20 -56 -20.5t-59.5 24t-17.5 61.5z
" />
    <glyph glyph-name="lcommaaccent" unicode="&#x13c;" horiz-adv-x="485" 
d="M186 -18q-73 0 -73 96q0 41 12 104l203 1086q4 16 4 45q0 51 -41 51q-33 0 -98 -33h-3q-10 0 -13 11.5t5 13.5l264 129h5q8 0 14 -6t4 -11l-238 -1286q-6 -33 -6 -55q0 -63 41 -64q43 0 133 95q4 4 9.5 4t9.5 -7.5t0 -13.5q-72 -82 -126 -120.5t-106 -38.5zM150 -176
q49 0 78.5 -34t29.5 -91q0 -143 -164 -262l-4 -2q-8 0 -12 9t2 13q108 76 113 193q0 25 -5 33q-18 -20 -56 -20.5t-59.5 24t-17.5 61.5q0 76 95 76z" />
    <glyph glyph-name="Lcaron" unicode="&#x13d;" horiz-adv-x="1015" 
d="M20 12.5q0 12.5 5 12.5q66 0 98.5 10t47.5 39.5t28 91.5l168 948q6 37 6 74t-27 52t-102 15q-6 0 -6 12.5t6 12.5l82 -2q74 -4 121 -4t124 4l86 2q6 0 6.5 -12.5t-6.5 -12.5q-66 0 -97.5 -11t-47.5 -40.5t-29 -91.5l-164 -938q-8 -53 -8 -65q0 -43 27 -57.5t96 -14.5h205
q115 0 189.5 70.5t123.5 203.5q0 4 6.5 4t12.5 -3t4 -5q-45 -160 -64 -276q-8 -31 -32 -31h-854q-5 0 -5 12.5zM823.5 719q-10.5 0 -10.5 4l84 557q2 10 25.5 -3t44 -33.5t18.5 -29.5l-149 -491q-2 -4 -12.5 -4z" />
    <glyph glyph-name="lcaron" unicode="&#x13e;" horiz-adv-x="485" 
d="M186 -18q-73 0 -73 96q0 41 12 104l203 1086q4 16 4 45q0 51 -41 51q-33 0 -98 -33h-3q-10 0 -13 11.5t5 13.5l264 129h5q8 0 14 -6t4 -11l-238 -1286q-6 -33 -6 -55q0 -63 41 -64q43 0 133 95q4 4 9.5 4t9.5 -7.5t0 -13.5q-72 -82 -126 -120.5t-106 -38.5zM545 922
q-10 0 -10 4l83 557q2 10 26 -3.5t44.5 -34t18.5 -28.5l-150 -491q-2 -4 -12 -4z" />
    <glyph glyph-name="Ldot" unicode="&#x13f;" horiz-adv-x="1015" 
d="M20 12.5q0 12.5 5 12.5q66 0 98.5 10t47.5 39.5t28 91.5l168 948q6 37 6 74t-27 52t-102 15q-6 0 -6 12.5t6 12.5l82 -2q74 -4 121 -4t124 4l86 2q6 0 6.5 -12.5t-6.5 -12.5q-66 0 -97.5 -11t-47.5 -40.5t-29 -91.5l-164 -938q-8 -53 -8 -65q0 -43 27 -57.5t96 -14.5h205
q115 0 189.5 70.5t123.5 203.5q0 4 6.5 4t12.5 -3t4 -5q-45 -160 -64 -276q-8 -31 -32 -31h-854q-5 0 -5 12.5zM872 752q86 0 86 -84q0 -41 -22.5 -63.5t-63.5 -22.5t-64.5 22.5t-23.5 62.5t23.5 62.5t64.5 22.5z" />
    <glyph glyph-name="ldot" unicode="&#x140;" horiz-adv-x="485" 
d="M610 727q0 -86 -84 -86q-41 0 -64.5 22.5t-23.5 62.5t23.5 61.5t63.5 21.5t62.5 -21.5t22.5 -60.5zM186 -18q-73 0 -73 96q0 41 12 104l203 1086q4 16 4 45q0 51 -41 51q-33 0 -98 -33h-3q-10 0 -13 11.5t5 13.5l264 129h5q8 0 14 -6t4 -11l-238 -1286q-6 -33 -6 -55
q0 -63 41 -64q43 0 133 95q4 4 9.5 4t9.5 -7.5t0 -13.5q-72 -82 -126 -120.5t-106 -38.5z" />
    <glyph glyph-name="Lslash" unicode="&#x141;" horiz-adv-x="1015" 
d="M958.5 315q6.5 0 12.5 -3t4 -5q-45 -160 -64 -276q-8 -31 -32 -31h-854q-4 0 -4.5 12.5t4.5 12.5q66 0 98.5 10t47.5 39.5t28 91.5l69 393l-116 -67h-2q-8 0 -16.5 15t-2.5 17l145 84l91 506q6 37 6 74t-27 52t-102 15q-6 0 -6 12.5t6 12.5l82 -2q74 -4 121 -4t124 4
l86 2q6 0 6.5 -12.5t-6.5 -12.5q-66 0 -97.5 -11t-47.5 -40.5t-29 -91.5l-75 -428l172 98h2q8 0 16 -15t0 -17l-199 -115l-80 -461q-8 -53 -8 -65q0 -43 27 -57.5t96 -14.5h205q115 0 189.5 70.5t123.5 203.5q0 4 6.5 4z" />
    <glyph glyph-name="lslash" unicode="&#x142;" horiz-adv-x="509" 
d="M199 -18q-74 0 -74 96q0 41 12 104l88 471l-119 -67h-2q-8 0 -17 16t-1 19l150 86l104 561q4 16 4 45q0 51 -41 51q-33 0 -98 -33h-2q-10 0 -13.5 11.5t5.5 13.5l264 129h4q8 0 14 -6t4 -11l-129 -694l119 68h2q8 0 17.5 -16.5t1.5 -18.5l-148 -86l-100 -539
q-6 -33 -6 -55q0 -63 41 -64q43 0 133 95q4 4 9 4t9 -7.5t0 -13.5q-72 -82 -126 -120.5t-105 -38.5z" />
    <glyph glyph-name="Nacute" unicode="&#x143;" horiz-adv-x="1333" 
d="M1194 1151q0 104 -111 104q-6 0 -6 12.5t6 12.5l64 -2q57 -4 93 -4t93 4l74 2q4 0 4 -12.5t-4 -12.5q-76 0 -118 -46t-60 -148l-193 -1081q0 -11 -13 -11t-17 11l-603 1153l-159 -916q-8 -41 -8 -90q0 -102 112 -102q4 0 4 -12.5t-4 -12.5q-43 0 -65 2l-97 2l-88 -2
q-27 -2 -73 -2q-6 0 -6.5 12.5t6.5 12.5q74 0 116.5 45t59.5 147l172 965q-57 74 -129 73q-4 0 -4 12.5t4 12.5l71 -2q25 -2 64 -2l90 4q12 0 18.5 -7t15.5 -36t27 -63l504 -977l152 864q8 41 8 90zM696 1389q-8 0 -10 9t4 13q76 37 186.5 105.5t147.5 89.5q8 6 48 -7.5
t69.5 -30t13.5 -20.5q-215 -53 -455 -157z" />
    <glyph glyph-name="nacute" unicode="&#x144;" horiz-adv-x="954" 
d="M682 817q133 0 133 -151q0 -37 -14 -119l-66 -365q-6 -31 -6 -55q0 -63 39 -64q41 0 135 95q4 4 9 4t9.5 -7.5t-1.5 -13.5q-72 -82 -125.5 -120.5t-106.5 -38.5q-70 0 -70 90q0 43 13 110l59 326q12 66 12 110q0 119 -88 119q-68 0 -140.5 -86t-136 -249.5t-104.5 -387.5
q-4 -31 -58 -30.5t-54 12.5l8 47q12 49 23 109l84 456q6 31 6 54q0 66 -41 65q-54 0 -142 -92q-2 -2 -7 -2t-9 7t0 11q137 158 238 158q37 0 53 -21.5t16 -71.5t-10 -104l-45 -256q74 215 175 338t212 123zM828 1497q23 0 22 -8l-301 -520q-2 -6 -13.5 -2t-7.5 8l191 491
q4 10 45 20.5t64 10.5z" />
    <glyph glyph-name="Ncommaaccent" unicode="&#x145;" horiz-adv-x="1333" 
d="M1194 1151q0 104 -111 104q-6 0 -6 12.5t6 12.5l64 -2q57 -4 93 -4t93 4l74 2q4 0 4 -12.5t-4 -12.5q-76 0 -118 -46t-60 -148l-193 -1081q0 -11 -13 -11t-17 11l-603 1153l-159 -916q-8 -41 -8 -90q0 -102 112 -102q4 0 4 -12.5t-4 -12.5q-43 0 -65 2l-97 2l-88 -2
q-27 -2 -73 -2q-6 0 -6.5 12.5t6.5 12.5q74 0 116.5 45t59.5 147l172 965q-57 74 -129 73q-4 0 -4 12.5t4 12.5l71 -2q25 -2 64 -2l90 4q12 0 18.5 -7t15.5 -36t27 -63l504 -977l152 864q8 41 8 90zM500 -252q0 76 97 76q46 0 75.5 -34t29.5 -91q0 -143 -163 -262l-4 -2
q-8 0 -12.5 9t1.5 13q113 79 113 193q0 25 -4 33q-18 -20 -56 -20.5t-59.5 24t-17.5 61.5z" />
    <glyph glyph-name="ncommaaccent" unicode="&#x146;" horiz-adv-x="954" 
d="M682 817q133 0 133 -151q0 -37 -14 -119l-66 -365q-6 -31 -6 -55q0 -63 39 -64q41 0 135 95q4 4 9 4t9.5 -7.5t-1.5 -13.5q-72 -82 -125.5 -120.5t-106.5 -38.5q-70 0 -70 90q0 43 13 110l59 326q12 66 12 110q0 119 -88 119q-68 0 -140.5 -86t-136 -249.5t-104.5 -387.5
q-4 -31 -58 -30.5t-54 12.5l8 47q12 49 23 109l84 456q6 31 6 54q0 66 -41 65q-54 0 -142 -92q-2 -2 -7 -2t-9 7t0 11q137 158 238 158q37 0 53 -21.5t16 -71.5t-10 -104l-45 -256q74 215 175 338t212 123zM319 -252q0 76 98 76q46 0 75.5 -34t29.5 -91q0 -143 -164 -262
l-4 -2q-8 0 -12 9t2 13q113 79 113 193q0 25 -4 33q-18 -20 -56.5 -20.5t-60 24t-17.5 61.5z" />
    <glyph glyph-name="Ncaron" unicode="&#x147;" horiz-adv-x="1333" 
d="M1194 1151q0 104 -111 104q-6 0 -6 12.5t6 12.5l64 -2q57 -4 93 -4t93 4l74 2q4 0 4 -12.5t-4 -12.5q-76 0 -118 -46t-60 -148l-193 -1081q0 -11 -13 -11t-17 11l-603 1153l-159 -916q-8 -41 -8 -90q0 -102 112 -102q4 0 4 -12.5t-4 -12.5q-43 0 -65 2l-97 2l-88 -2
q-27 -2 -73 -2q-6 0 -6.5 12.5t6.5 12.5q74 0 116.5 45t59.5 147l172 965q-57 74 -129 73q-4 0 -4 12.5t4 12.5l71 -2q25 -2 64 -2l90 4q12 0 18.5 -7t15.5 -36t27 -63l504 -977l152 864q8 41 8 90zM647 1583q0 6 5 10t10 2l172 -116l208 118h2q6 0 10.5 -6t0.5 -10
l-219 -199q-8 -8 -19.5 -8t-17.5 8l-152 199v2z" />
    <glyph glyph-name="ncaron" unicode="&#x148;" horiz-adv-x="954" 
d="M682 817q133 0 133 -151q0 -37 -14 -119l-66 -365q-6 -31 -6 -55q0 -63 39 -64q41 0 135 95q4 4 9 4t9.5 -7.5t-1.5 -13.5q-72 -82 -125.5 -120.5t-106.5 -38.5q-70 0 -70 90q0 43 13 110l59 326q12 66 12 110q0 119 -88 119q-68 0 -140.5 -86t-136 -249.5t-104.5 -387.5
q-4 -31 -58 -30.5t-54 12.5l8 47q12 49 23 109l84 456q6 31 6 54q0 66 -41 65q-54 0 -142 -92q-2 -2 -7 -2t-9 7t0 11q137 158 238 158q37 0 53 -21.5t16 -71.5t-10 -104l-45 -256q74 215 175 338t212 123zM566.5 967q-17.5 0 -17.5 10l-37 510q0 6 12.5 7t12.5 -5l65 -315
l178 321q2 2 7 2t11.5 -3t4.5 -7l-215 -510q-4 -10 -21.5 -10z" />
    <glyph glyph-name="napostrophe" unicode="&#x149;" horiz-adv-x="954" 
d="M385 1182q0 -176 -225 -340q-2 -2 -7 -2t-9.5 8t1.5 12q174 130 174 274q0 22 -6 37q-18 -20 -56 -20t-58.5 22.5t-20.5 59.5t25.5 59.5t74 22.5t78 -36t29.5 -97zM682 817q133 0 133 -151q0 -37 -14 -119l-66 -365q-6 -31 -6 -55q0 -63 39 -64q41 0 135 95q4 4 9 4
t9.5 -7.5t-1.5 -13.5q-72 -82 -125.5 -120.5t-106.5 -38.5q-70 0 -70 90q0 43 13 110l59 326q12 66 12 110q0 119 -88 119q-68 0 -140.5 -86t-136 -249.5t-104.5 -387.5q-4 -31 -58 -30.5t-54 12.5l8 47q12 49 23 109l84 456q6 31 6 54q0 66 -41 65q-54 0 -142 -92
q-2 -2 -7 -2t-9 7t0 11q137 158 238 158q37 0 53 -21.5t16 -71.5t-10 -104l-45 -256q74 215 175 338t212 123z" />
    <glyph glyph-name="Eng" unicode="&#x14a;" horiz-adv-x="1331" 
d="M1194 1151q0 104 -111 104q-6 0 -6 12.5t6 12.5l64 -2q57 -4 93 -4t93 4l74 2q4 0 4 -12.5t-4 -12.5q-76 0 -118 -46t-60 -148l-193 -1081v-3q-33 -180 -108.5 -274t-186.5 -94q-70 0 -111.5 33.5t-41.5 77t22.5 62.5t56.5 19t46 -17t19 -54t19.5 -55.5t45.5 -18.5
q142 0 202 336l-596 1141l-159 -916q-8 -41 -8 -90q0 -102 112 -102q4 0 4 -12.5t-4 -12.5q-43 0 -65 2l-97 2l-88 -2q-27 -2 -73 -2q-6 0 -6.5 12.5t6.5 12.5q74 0 116.5 45t59.5 147l172 965q-57 74 -129 73q-4 0 -4 12.5t4 12.5l71 -2q25 -2 64 -2l90 4q12 0 18.5 -7
t15.5 -36t27 -63l504 -977l152 864q8 41 8 90z" />
    <glyph glyph-name="eng" unicode="&#x14b;" horiz-adv-x="888" 
d="M682 817q133 0 133 -151q0 -37 -14 -119l-119 -625q-37 -195 -74 -296t-88 -145t-126 -44t-107.5 26.5t-27.5 59.5q10 65 69 65q27 0 38 -17t19 -47t16.5 -43t32.5 -13t45 37.5t39.5 116.5t52.5 255l119 631q12 66 12 110q0 119 -88 119q-68 0 -140.5 -86t-136 -249.5
t-104.5 -387.5q-4 -30 -58 -30t-54 12l8 47q12 49 23 109l84 456q6 31 6 54q0 66 -41 65q-54 0 -142 -92q-2 -2 -7 -2t-9 7t0 11q137 158 238 158q37 0 53 -21.5t16 -71.5t-10 -104l-45 -256q74 215 175 338t212 123z" />
    <glyph glyph-name="Omacron" unicode="&#x14c;" horiz-adv-x="1333" 
d="M1169 758.5q0 126.5 -50 244t-143 184t-220 66.5q-182 0 -310 -135q-188 -200 -188 -588q0 -122 48 -242t141.5 -189.5t222.5 -69.5q176 0 303 131t176 372q20 100 20 226.5zM127 489q-1 273 149 493q102 151 250 236t303.5 85t259 -67t157.5 -182.5t54 -260.5
q0 -80 -14 -152q-35 -195 -140.5 -346.5t-255 -235.5t-300 -84t-252.5 67t-156.5 183.5t-54.5 263.5zM625 1468q-15 0 -15 31t15 31h485q12 0 12 -31t-12 -31h-485z" />
    <glyph glyph-name="omacron" unicode="&#x14d;" horiz-adv-x="817" 
d="M647 424q0 141 -54 242.5t-148.5 101.5t-165 -77t-97.5 -208q-12 -57 -12 -121q0 -139 58.5 -239t151.5 -100q92 -1 162 75q104 114 105 326zM513 817q114 0 182.5 -85t68.5 -220q0 -191 -104 -340q-142 -201 -358 -201q-108 0 -176.5 86t-68.5 245.5t97 307.5
q135 206 359 207zM270 979q-14 0 -14 30.5t14 30.5h486q12 0 12 -30.5t-12 -30.5h-486z" />
    <glyph glyph-name="Obreve" unicode="&#x14e;" horiz-adv-x="1333" 
d="M1169 758.5q0 126.5 -50 244t-143 184t-220 66.5q-182 0 -310 -135q-188 -200 -188 -588q0 -122 48 -242t141.5 -189.5t222.5 -69.5q176 0 303 131t176 372q20 100 20 226.5zM127 489q-1 273 149 493q102 151 250 236t303.5 85t259 -67t157.5 -182.5t54 -260.5
q0 -80 -14 -152q-35 -195 -140.5 -346.5t-255 -235.5t-300 -84t-252.5 67t-156.5 183.5t-54.5 263.5zM664 1540q0 12 29.5 22.5t52 10.5t22.5 -6q4 -59 39 -95t86 -36t86 29.5t65 95.5q6 6 13.5 6t15.5 -5.5t6 -9.5q-86 -188 -233 -188q-86 0 -134 52t-48 124z" />
    <glyph glyph-name="obreve" unicode="&#x14f;" horiz-adv-x="817" 
d="M647 424q0 141 -54 242.5t-148.5 101.5t-165 -77t-97.5 -208q-12 -57 -12 -121q0 -139 58.5 -239t151.5 -100q92 -1 162 75q104 114 105 326zM513 817q114 0 182.5 -85t68.5 -220q0 -191 -104 -340q-142 -201 -358 -201q-108 0 -176.5 86t-68.5 245.5t97 307.5
q135 206 359 207zM305 1149q0 12 30 22.5t52 10.5t23 -6q4 -59 38.5 -95.5t86 -36.5t86 30t65.5 95q12 12 24.5 4t10.5 -12q-86 -188 -234 -188q-86 0 -134 52t-48 124z" />
    <glyph glyph-name="Ohungarumlaut" unicode="&#x150;" horiz-adv-x="1333" 
d="M1169 758.5q0 126.5 -50 244t-143 184t-220 66.5q-182 0 -310 -135q-188 -200 -188 -588q0 -122 48 -242t141.5 -189.5t222.5 -69.5q176 0 303 131t176 372q20 100 20 226.5zM127 489q-1 273 149 493q102 151 250 236t303.5 85t259 -67t157.5 -182.5t54 -260.5
q0 -80 -14 -152q-35 -195 -140.5 -346.5t-255 -235.5t-300 -84t-252.5 67t-156.5 183.5t-54.5 263.5zM887 1364q-8 0 -9 9t3 13q137 135 227 232q8 6 47 -4t67.5 -23.5t14.5 -19.5q-190 -86 -346 -205zM637 1364q-6 0 -8 9t4 13q152 152 227 232q6 6 45 -3t67.5 -23.5
t14.5 -20.5q-195 -88 -346 -205z" />
    <glyph glyph-name="ohungarumlaut" unicode="&#x151;" horiz-adv-x="817" 
d="M647 424q0 141 -54 242.5t-148.5 101.5t-165 -77t-97.5 -208q-12 -57 -12 -121q0 -139 58.5 -239t151.5 -100q92 -1 162 75q104 114 105 326zM513 817q114 0 182.5 -85t68.5 -220q0 -191 -104 -340q-142 -201 -358 -201q-108 0 -176.5 86t-68.5 245.5t97 307.5
q135 206 359 207zM561 948q-8 0 -11 9.5t5 13.5q76 74 227 229q8 6 47 -3t67 -23.5t13 -18.5q-176 -80 -346 -207h-2zM311 948q-8 0 -11 9.5t5 13.5q129 127 227 229q8 6 47 -3t67 -22.5t13 -19.5q-190 -90 -346 -207h-2z" />
    <glyph glyph-name="OE" unicode="&#x152;" horiz-adv-x="1652" 
d="M655 23q80 0 123 10t67.5 40.5t35.5 94.5l159 919q6 37 6 78q1 88 -152 88q-314 0 -485 -268q-130 -203 -133 -483q0 -213 100.5 -346t278.5 -133zM127 500q0 51 10 118q33 197 144.5 348.5t267.5 234.5t321 83q76 0 121 -2l146 -2h518q16 0 12 -18l-39 -256
q-2 -6 -14 -5.5t-10 12t2 44.5q0 88 -40 139t-112 51h-111q-68 0 -100.5 -10t-47.5 -36.5t-26 -88.5l-75 -426h231q80 0 118 33t52 112q2 8 14.5 8.5t10.5 -10.5l-60 -354q-2 -8 -14 -7t-10 9q6 35 6 77q0 91 -131 91h-224l-83 -471q-6 -37 -6.5 -71.5t27.5 -50t105 -15.5
h156q76 0 140.5 72.5t109.5 197.5q2 2 14 2t11 -8q-37 -104 -64 -270q-4 -18 -11 -24.5t-24 -6.5h-538l-254 -8q-166 0 -289 64.5t-188.5 180t-65.5 263.5z" />
    <glyph glyph-name="oe" unicode="&#x153;" horiz-adv-x="1253" 
d="M1098 692q0 70 -93 70t-157 -82t-88 -211q141 23 228 66t106 129q4 20 4 28zM431 768q-91 0 -159 -79q-102 -117 -102 -329q0 -141 53 -239t145 -98q90 -1 158 75q97 108 101 328q0 141 -52.5 241.5t-143.5 100.5zM633 160q-139 -189 -345 -189q-104 0 -168.5 86
t-64.5 224q-1 187 93 331q62 96 152.5 150.5t189 54.5t161 -57.5t80.5 -155.5q70 96 165 154.5t181 58.5q158 0 158 -90q0 -98 -150.5 -177t-330.5 -112q-10 -68 -11 -114q0 -127 55.5 -203t166 -76t200.5 68h2q6 0 11.5 -6.5t1.5 -10.5q-145 -121 -299 -121
q-100 0 -162 50.5t-86 134.5z" />
    <glyph glyph-name="Racute" unicode="&#x154;" horiz-adv-x="1257" 
d="M530 698q133 0 202 61.5t93 201.5q8 47 9 92q0 106 -49.5 155t-118 49t-92.5 -8q-47 -16 -68 -139l-72 -405q45 -7 96 -7zM692 1286q277 0 277 -208q0 -104 -72 -205t-182 -162q115 -264 194.5 -410.5t149 -211t145.5 -64.5q8 0 8 -12.5t-8 -12.5h-221q-49 0 -146.5 177
t-220.5 493q-84 -26 -190 -15l-88 -489q-8 -53 -8 -68q0 -43 28.5 -58t108.5 -15q8 0 8 -12.5t-6 -12.5q-57 0 -90 2l-127 2l-129 -2q-33 -2 -92 -2q-8 0 -8 12.5t8 12.5q70 0 105.5 11t54 39.5t30.5 90.5l168 948q8 53 8 66q0 45 -29.5 60t-109.5 15q-8 0 -8 12.5t8 12.5
l92 -2q78 -4 123 -4zM547 1389q-8 0 -10 9t4 13q76 37 186.5 105.5t146.5 89.5q8 6 48.5 -7.5t70 -30t13.5 -20.5q-215 -53 -455 -157z" />
    <glyph glyph-name="racute" unicode="&#x155;" horiz-adv-x="696" 
d="M705 715q0 -35 -19.5 -53.5t-46.5 -18.5t-39 9.5t-31 34t-37 24.5q-45 0 -107.5 -119t-118.5 -285t-79 -293q-4 -30 -57 -30t-53 12l98 534q10 53 10 105q0 92 -47 92t-125 -74l-4 -2q-6 0 -10 7.5t-2 11.5q125 139 221 139q41 0 60.5 -25.5t19.5 -86t-19 -162.5
l-40 -236q68 213 151.5 361.5t161.5 148.5q41 0 77 -29.5t36 -64.5zM703.5 1497q23.5 0 21.5 -8l-301 -520q-2 -6 -13.5 -2t-7.5 8l191 491q4 10 45 20.5t64.5 10.5z" />
    <glyph glyph-name="Rcommaaccent" unicode="&#x156;" horiz-adv-x="1257" 
d="M530 698q133 0 202 61.5t93 201.5q8 47 9 92q0 106 -49.5 155t-118 49t-92.5 -8q-47 -16 -68 -139l-72 -405q45 -7 96 -7zM692 1286q277 0 277 -208q0 -104 -72 -205t-182 -162q115 -264 194.5 -410.5t149 -211t145.5 -64.5q8 0 8 -12.5t-8 -12.5h-221q-49 0 -146.5 177
t-220.5 493q-84 -26 -190 -15l-88 -489q-8 -53 -8 -68q0 -43 28.5 -58t108.5 -15q8 0 8 -12.5t-6 -12.5q-57 0 -90 2l-127 2l-129 -2q-33 -2 -92 -2q-8 0 -8 12.5t8 12.5q70 0 105.5 11t54 39.5t30.5 90.5l168 948q8 53 8 66q0 45 -29.5 60t-109.5 15q-8 0 -8 12.5t8 12.5
l92 -2q78 -4 123 -4zM496 -252q0 76 97 76q46 0 75.5 -34t29.5 -91q0 -143 -163 -262l-5 -2q-8 0 -12 9t2 13q113 79 113 193q0 25 -4 33q-18 -20 -56.5 -20.5t-59.5 24t-17 61.5z" />
    <glyph glyph-name="rcommaaccent" unicode="&#x157;" horiz-adv-x="696" 
d="M705 715q0 -35 -19.5 -53.5t-46.5 -18.5t-39 9.5t-31 34t-37 24.5q-45 0 -107.5 -119t-118.5 -285t-79 -293q-4 -30 -57 -30t-53 12l98 534q10 53 10 105q0 92 -47 92t-125 -74l-4 -2q-6 0 -10 7.5t-2 11.5q125 139 221 139q41 0 60.5 -25.5t19.5 -86t-19 -162.5
l-40 -236q68 213 151.5 361.5t161.5 148.5q41 0 77 -29.5t36 -64.5zM51 -252q-1 76 97 76q46 0 76 -34t30 -91q0 -143 -164 -262l-4 -2q-8 0 -12 9t2 13q112 79 112 193q0 25 -4 33q-18 -20 -56 -20.5t-59.5 24t-17.5 61.5z" />
    <glyph glyph-name="Rcaron" unicode="&#x158;" horiz-adv-x="1257" 
d="M530 698q133 0 202 61.5t93 201.5q8 47 9 92q0 106 -49.5 155t-118 49t-92.5 -8q-47 -16 -68 -139l-72 -405q45 -7 96 -7zM692 1286q277 0 277 -208q0 -104 -72 -205t-182 -162q115 -264 194.5 -410.5t149 -211t145.5 -64.5q8 0 8 -12.5t-8 -12.5h-221q-49 0 -146.5 177
t-220.5 493q-84 -26 -190 -15l-88 -489q-8 -53 -8 -68q0 -43 28.5 -58t108.5 -15q8 0 8 -12.5t-6 -12.5q-57 0 -90 2l-127 2l-129 -2q-33 -2 -92 -2q-8 0 -8 12.5t8 12.5q70 0 105.5 11t54 39.5t30.5 90.5l168 948q8 53 8 66q0 45 -29.5 60t-109.5 15q-8 0 -8 12.5t8 12.5
l92 -2q78 -4 123 -4zM498 1583q0 6 5 10t9 2l172 -116l209 118h2q6 0 10 -6t0 -10l-219 -199q-8 -8 -19 -8t-18 8l-151 199v2z" />
    <glyph glyph-name="rcaron" unicode="&#x159;" horiz-adv-x="696" 
d="M705 715q0 -35 -19.5 -53.5t-46.5 -18.5t-39 9.5t-31 34t-37 24.5q-45 0 -107.5 -119t-118.5 -285t-79 -293q-4 -30 -57 -30t-53 12l98 534q10 53 10 105q0 92 -47 92t-125 -74l-4 -2q-6 0 -10 7.5t-2 11.5q125 139 221 139q41 0 60.5 -25.5t19.5 -86t-19 -162.5
l-40 -236q68 213 151.5 361.5t161.5 148.5q41 0 77 -29.5t36 -64.5zM441.5 967q-17.5 0 -17.5 10l-37 510q0 6 12.5 7t12.5 -5l65 -315l178 321q2 2 7.5 2t11.5 -3t4 -7l-215 -510q-4 -10 -21.5 -10z" />
    <glyph glyph-name="Sacute" unicode="&#x15a;" horiz-adv-x="946" 
d="M426 8q100 0 176 58q99 76 105 241q0 102 -58.5 169t-169.5 142q-76 56 -120 94q-105 92 -105 218.5t89 228.5q125 144 341 144q102 0 213 -50q27 -14 25 -34l-27 -228q0 -8 -11.5 -8t-11.5 8q-20 283 -231 283q-86 0 -143.5 -44t-85 -109.5t-27.5 -130.5t29.5 -114
t71.5 -84.5t139.5 -101.5t159 -136.5t61.5 -174.5q0 -181 -154 -305q-123 -98 -317 -99q-143 0 -266 70q-16 10 -13 39l29 270q0 10 11 10.5t14 -10.5q2 -147 70.5 -246.5t205.5 -99.5zM541 1389q-8 0 -10.5 9t4.5 13q76 37 186.5 105.5t146.5 89.5q8 6 48 -7.5t70 -30
t13 -20.5q-213 -52 -454 -157z" />
    <glyph glyph-name="sacute" unicode="&#x15b;" horiz-adv-x="618" 
d="M20 86q0 41 19.5 58.5t41 17.5t34 -13.5t33 -47t46 -56t74.5 -22.5q113 0 131 124q2 10 2 27q0 59 -32.5 102t-101.5 99.5t-102.5 98.5t-33.5 106.5t41 118t104.5 83t134.5 29.5t120 -29.5t40 -72.5q-2 -27 -20.5 -41.5t-42 -14.5t-38.5 12.5t-35 40t-42 44t-65 16.5
t-73 -27.5t-30 -82t33 -97.5t101.5 -102t102.5 -105.5t34 -108.5t-39 -125t-105.5 -102t-142.5 -39t-132.5 34t-56.5 75zM662.5 1497q23.5 0 21.5 -8l-301 -520q-2 -6 -13.5 -2t-7.5 8l191 491q4 10 45 20.5t64.5 10.5z" />
    <glyph glyph-name="Scircumflex" unicode="&#x15c;" horiz-adv-x="946" 
d="M426 8q100 0 176 58q99 76 105 241q0 102 -58.5 169t-169.5 142q-76 56 -120 94q-105 92 -105 218.5t89 228.5q125 144 341 144q102 0 213 -50q27 -14 25 -34l-27 -228q0 -8 -11.5 -8t-11.5 8q-20 283 -231 283q-86 0 -143.5 -44t-85 -109.5t-27.5 -130.5t29.5 -114
t71.5 -84.5t139.5 -101.5t159 -136.5t61.5 -174.5q0 -181 -154 -305q-123 -98 -317 -99q-143 0 -266 70q-16 10 -13 39l29 270q0 10 11 10.5t14 -10.5q2 -147 70.5 -246.5t205.5 -99.5zM471 1352q-6 0 -10 5t0 9l219 199q10 10 19 10t20 -10l149 -199l2 -4q0 -4 -6 -8
t-10 -2l-174 116l-207 -116h-2z" />
    <glyph glyph-name="scircumflex" unicode="&#x15d;" horiz-adv-x="618" 
d="M20 86q0 41 19.5 58.5t41 17.5t34 -13.5t33 -47t46 -56t74.5 -22.5q113 0 131 124q2 10 2 27q0 59 -32.5 102t-101.5 99.5t-102.5 98.5t-33.5 106.5t41 118t104.5 83t134.5 29.5t120 -29.5t40 -72.5q-2 -27 -20.5 -41.5t-42 -14.5t-38.5 12.5t-35 40t-42 44t-65 16.5
t-73 -27.5t-30 -82t33 -97.5t101.5 -102t102.5 -105.5t34 -108.5t-39 -125t-105.5 -102t-142.5 -39t-132.5 34t-56.5 75zM257 969q-5 0 -11 3t-4 7l215 510q6 10 22.5 10t16.5 -10l36 -510q0 -6 -12 -7t-12 5l-66 315l-178 -321q-2 -2 -7 -2z" />
    <glyph glyph-name="Scedilla" unicode="&#x15e;" horiz-adv-x="946" 
d="M225 -483q0 59 60 59q23 0 35 -13.5t26 -39t23.5 -36.5t27.5 -11q59 0 74 75q8 66 -76 166q-57 68 -10 160l49 100q-18 -2 -59 -2q-143 0 -266 70q-16 10 -13 39l29 270q0 10 11 10.5t14 -10.5q2 -147 70.5 -246.5t205.5 -99.5q100 0 176 58q99 76 105 241
q0 102 -58.5 169t-169.5 142q-76 56 -120 94q-105 92 -105 218.5t89 228.5q125 144 341 144q102 0 213 -50q27 -14 25 -34l-27 -228q0 -8 -11.5 -8t-11.5 8q-20 283 -231 283q-86 0 -143.5 -44t-85 -109.5t-27.5 -130.5t29.5 -114t71.5 -84.5t139.5 -101.5t159 -136.5
t61.5 -174.5q0 -161 -126 -281q-99 -94 -257 -116q-35 -86 -9 -140q12 -24 33 -55q66 -86 66 -155.5t-62.5 -132t-150.5 -62.5q-47 0 -81 21.5t-34 58.5z" />
    <glyph glyph-name="scedilla" unicode="&#x15f;" horiz-adv-x="618" 
d="M12 -483q0 59 60 59q23 0 35 -13.5t26 -39t23.5 -36.5t27.5 -11q59 0 74 75q8 66 -76 166q-57 68 -10 160l49 100h-14q-74 0 -130.5 34t-56.5 75t19.5 58.5t41 17.5t34 -13.5t33 -47t46 -56t74.5 -22.5q113 0 131 124q2 10 2 27q0 59 -32.5 102t-101.5 99.5t-102.5 98.5
t-33.5 106.5t41 118t104.5 83t134 29.5t120 -29.5t40.5 -72.5q-2 -27 -20.5 -41.5t-42 -14.5t-38.5 12.5t-35 40t-42 44t-65 16.5t-73 -27.5t-30 -82t33 -97.5t101.5 -102t102.5 -105.5t34 -105.5t-33 -116.5t-89.5 -97.5t-123.5 -50q-36 -86 -10 -140q12 -24 34 -55
q66 -85 66 -155t-62.5 -132.5t-150.5 -62.5q-47 0 -81 21.5t-34 58.5z" />
    <glyph glyph-name="Scaron" unicode="&#x160;" horiz-adv-x="946" 
d="M426 8q100 0 176 58q99 76 105 241q0 102 -58.5 169t-169.5 142q-76 56 -120 94q-105 92 -105 218.5t89 228.5q125 144 341 144q102 0 213 -50q27 -14 25 -34l-27 -228q0 -8 -11.5 -8t-11.5 8q-20 283 -231 283q-86 0 -143.5 -44t-85 -109.5t-27.5 -130.5t29.5 -114
t71.5 -84.5t139.5 -101.5t159 -136.5t61.5 -174.5q0 -181 -154 -305q-123 -98 -317 -99q-143 0 -266 70q-16 10 -13 39l29 270q0 10 11 10.5t14 -10.5q2 -147 70.5 -246.5t205.5 -99.5zM492 1583q0 6 5 10t9 2l172 -116l209 118h2q6 0 10 -6t0 -10l-219 -199q-8 -8 -19.5 -8
t-17.5 8l-151 199v2z" />
    <glyph glyph-name="scaron" unicode="&#x161;" horiz-adv-x="618" 
d="M20 86q0 41 19.5 58.5t41 17.5t34 -13.5t33 -47t46 -56t74.5 -22.5q113 0 131 124q2 10 2 27q0 59 -32.5 102t-101.5 99.5t-102.5 98.5t-33.5 106.5t41 118t104.5 83t134.5 29.5t120 -29.5t40 -72.5q-2 -27 -20.5 -41.5t-42 -14.5t-38.5 12.5t-35 40t-42 44t-65 16.5
t-73 -27.5t-30 -82t33 -97.5t101.5 -102t102.5 -105.5t34 -108.5t-39 -125t-105.5 -102t-142.5 -39t-132.5 34t-56.5 75zM400.5 967q-17.5 0 -17.5 10l-37 510q0 6 12.5 7t12.5 -5l65 -315l178 321q2 2 7.5 2t11.5 -3t4 -7l-215 -510q-4 -10 -21.5 -10z" />
    <glyph glyph-name="uni0162" unicode="&#x162;" horiz-adv-x="1132" 
d="M272 -483q0 59 60 59q23 0 35 -13.5t26 -39t23.5 -36.5t27.5 -11q59 0 74 75q8 66 -76 166q-57 68 -10 160l64 127l-121 -2q-31 -2 -86 -2q-4 0 -4 12.5t4 12.5q70 0 104.5 10t51 39.5t28.5 91.5l168 948q6 37 6 70t-23.5 47t-86.5 14h-50q-121 0 -191.5 -68.5
t-115.5 -226.5q0 -2 -13 -2t-11 8q53 168 90 369q2 6 14 5t10 -7q-6 -43 80 -43q152 -6 315.5 -6t290.5 4l129 2q61 0 92 10t44 41q4 6 14 5t8 -9q-16 -55 -45 -187t-37 -184q-2 -8 -13 -7t-9 9q12 61 12 111q0 92 -48 134t-153 42h-47q-53 0 -80.5 -11t-41 -39t-23.5 -85
l-166 -944q-6 -37 -6 -74t29.5 -52t113.5 -15q4 0 4 -12.5t-4 -12.5q-53 0 -82 2l-123 2q-27 -68 -26.5 -118t52.5 -118q50 -66 50 -136t-62.5 -132.5t-150.5 -62.5q-47 0 -81 21.5t-34 58.5z" />
    <glyph glyph-name="uni0163" unicode="&#x163;" horiz-adv-x="604" 
d="M133 739q-6 0 -6 13.5t8 13.5q70 0 122 43t71 113q0 6 17 6t15 -8l-26 -150q100 4 190 10l70 4q14 0 14 -15t-22.5 -43t-37.5 -28t-84 10.5t-138 12.5l-93 -508q-6 -33 -6 -61q0 -98 101 -99q53 0 96 22.5t100 67.5l4 2q6 0 11.5 -7t1.5 -11q-155 -136 -265 -150
q-18 -49 -18 -90t56 -113t55.5 -142t-63 -132.5t-150.5 -62.5q-47 0 -81 21.5t-34 54.5q0 63 59 63q23 0 35 -13.5t29 -39.5q12 -25 21.5 -36t27.5 -11q59 0 74 75q8 66 -76 166q-31 37 -31 79t21 81l47 98q-59 0 -98 31t-39 98q0 12 4 46l88 477q8 35 8 64.5t-16.5 38.5
t-61.5 9z" />
    <glyph glyph-name="Tcaron" unicode="&#x164;" horiz-adv-x="1132" 
d="M285 12.5q0 12.5 4 12.5q70 0 104.5 10t51 39.5t28.5 91.5l168 948q6 37 6 70t-23.5 47t-86.5 14h-50q-121 0 -191.5 -68.5t-115.5 -226.5q0 -2 -13 -2t-11 8q53 168 90 369q2 6 14 5t10 -7q-6 -43 80 -43q152 -6 315.5 -6t290.5 4l129 2q61 0 92 10t44 41q4 6 14 5t8 -9
q-16 -55 -45 -187t-37 -184q-2 -8 -13 -7t-9 9q12 61 12 111q0 92 -48 134t-153 42h-47q-53 0 -80.5 -11t-41 -39t-23.5 -85l-166 -944q-6 -37 -6 -74t29.5 -52t113.5 -15q4 0 4 -12.5t-4 -12.5q-55 0 -88 2l-133 2l-127 -2q-33 -2 -92 -2q-4 0 -4 12.5zM567 1583
q0 6 5.5 10t9.5 2l172 -116l209 118h2q6 0 10 -6t0 -10l-219 -199q-8 -8 -19.5 -8t-17.5 8l-152 199v2z" />
    <glyph glyph-name="tcaron" unicode="&#x165;" horiz-adv-x="604" 
d="M133 739q-6 0 -6 13.5t8 13.5q70 0 122 43t71 113q0 6 17 6t15 -8l-26 -150q100 4 190 10l70 4q14 0 14 -15t-22.5 -43t-37.5 -28t-84 10.5t-138 12.5l-93 -508q-6 -33 -6 -61q0 -98 101 -99q53 0 96 22.5t100 67.5l4 2q6 0 11.5 -7t1.5 -11q-175 -152 -291 -152
q-62 0 -100.5 31t-38.5 98q0 12 4 46l88 477q8 35 8 64.5t-16.5 38.5t-61.5 9zM549 1475q2 10 25.5 -3.5t44 -34t18.5 -28.5l-150 -491q-2 -4 -12 -4.5t-10 4.5z" />
    <glyph glyph-name="Tbar" unicode="&#x166;" horiz-adv-x="1132" 
d="M889 682q10 0 10 -21.5t-10 -21.5h-213l-84 -473q-6 -37 -6 -74t29.5 -52t113.5 -15q4 0 4 -12.5t-4 -12.5q-55 0 -88 2l-133 2l-127 -2q-33 -2 -92 -2q-4 0 -4 12.5t4 12.5q70 0 104.5 10t51 39.5t28.5 91.5l84 473h-205q-8 0 -8 21.5t8 21.5h213l76 432q6 37 6 70
t-23.5 47t-86.5 14h-50q-121 0 -191.5 -68.5t-115.5 -226.5q0 -2 -13 -2t-11 8q53 168 90 369q2 6 14 5t10 -7q-6 -43 80 -43q152 -6 315.5 -6t290.5 4l129 2q61 0 92 10t44 41q4 6 14 5t8 -9q-16 -55 -45 -187t-37 -184q-2 -8 -13 -7t-9 9q12 61 12 111q0 92 -48 134
t-153 42h-47q-53 0 -80.5 -11t-41 -39t-23.5 -85l-76 -428h207z" />
    <glyph glyph-name="tbar" unicode="&#x167;" horiz-adv-x="602" 
d="M133 739q-6 0 -6 13.5t8 13.5q70 0 122 43t71 113q0 6 17 6t15 -8l-26 -150q100 4 190 10l70 4q14 0 14 -15t-22.5 -43t-37.5 -28t-84 10.5t-138 12.5l-47 -256h229q8 0 8 -19.5t-8 -19.5h-236l-39 -213q-6 -33 -6 -61q0 -98 101 -99q53 0 96 22.5t100 67.5l4 2
q6 0 11.5 -7t1.5 -11q-175 -152 -291 -152q-62 0 -100.5 31t-38.5 98q0 12 4 46l51 276h-70q-8 0 -8 19.5t8 19.5h76l31 162q8 35 8 64.5t-16.5 38.5t-61.5 9z" />
    <glyph glyph-name="Utilde" unicode="&#x168;" horiz-adv-x="1265" 
d="M317 367q1 -330 311 -330q154 0 269 113.5t150 312.5l106 596q6 34 6 63q0 133 -131 133q-6 0 -6 12.5t6 12.5l84 -2q61 -4 97 -4t98 4l73 2q8 0 7 -12.5t-7 -12.5q-150 0 -184 -202l-104 -594q-41 -229 -184.5 -357.5t-332 -128.5t-287 96.5t-98.5 268.5q0 47 11 115
l116 665q8 53 9 66q0 43 -29 57t-109 14q-8 0 -7 12.5t7 12.5l93 -2q78 -4 126.5 -4t131.5 4l82 2q8 0 7 -12.5t-7 -12.5q-125 0 -157 -57q-18 -31 -28 -92l-104 -590q-14 -78 -15 -149zM606 1470q-6 0 -10 5.5t-2 9.5q96 129 180 129q35 0 114.5 -25.5t128 -25.5t70 13
t50.5 42h2q6 0 10 -5t2 -9q-57 -76 -92 -101.5t-74 -25.5t-79 10l-48 12q-84 27 -131 27t-70.5 -13.5t-48.5 -42.5h-2z" />
    <glyph glyph-name="utilde" unicode="&#x169;" horiz-adv-x="952" 
d="M899 158q6 0 10 -7.5t0 -11.5q-138 -157 -237 -157q-37 0 -53.5 21.5t-16.5 71.5t10 101l45 258q-74 -215 -175 -338t-212 -123q-135 0 -135 152q0 55 15 119l73 364q6 35 6 56q0 63 -40 63t-134 -94q-4 -4 -9 -4t-9 7t2 13q72 82 126 121t105 39q72 0 72 -92
q0 -45 -14 -109l-66 -325q-14 -76 -14 -111q0 -119 90 -119q68 0 140.5 86t136 250t104.5 387q4 31 58 31t54 -12l-8 -47q-12 -49 -22 -109l-84 -457q-6 -31 -6 -55q0 -66 41 -66q48 0 139 95q2 2 8 2zM291 981q-4 0 -9.5 5t-2.5 9q96 129 180 129q35 0 117 -25.5t128 -25.5
t67.5 13.5t49.5 41.5h2q6 0 10.5 -5t2.5 -9q-57 -76 -92 -101.5t-74 -25.5t-79 10.5t-86 25t-93.5 14t-65.5 -10.5t-32 -24l-21 -21h-2z" />
    <glyph glyph-name="Umacron" unicode="&#x16a;" horiz-adv-x="1265" 
d="M317 367q1 -330 311 -330q154 0 269 113.5t150 312.5l106 596q6 34 6 63q0 133 -131 133q-6 0 -6 12.5t6 12.5l84 -2q61 -4 97 -4t98 4l73 2q8 0 7 -12.5t-7 -12.5q-150 0 -184 -202l-104 -594q-41 -229 -184.5 -357.5t-332 -128.5t-287 96.5t-98.5 268.5q0 47 11 115
l116 665q8 53 9 66q0 43 -29 57t-109 14q-8 0 -7 12.5t7 12.5l93 -2q78 -4 126.5 -4t131.5 4l82 2q8 0 7 -12.5t-7 -12.5q-125 0 -157 -57q-18 -31 -28 -92l-104 -590q-14 -78 -15 -149zM1098 1489q0 -29 -15 -29h-514q-12 0 -12 29t12 29h514q15 0 15 -29z" />
    </font>
</defs>
</svg>
