<?xml version="1.0" standalone="no"?>
<!DOCTYPE svg PUBLIC "-//W3C//DTD SVG 1.1//EN" "http://www.w3.org/Graphics/SVG/1.1/DTD/svg11.dtd" >
<svg xmlns="http://www.w3.org/2000/svg">
<metadata>
Created by FontPrep 20130207 at Wed Mar 25 10:59:10 2015
 By Bradley Gorman
(c) 1997, 2000 Adobe Systems Incorporated. All rights reserved.
</metadata>
<defs>
<font id="1f106c2e2502195fcad5f3b08b9f1ed9" horiz-adv-x='1024' >
  <font-face 
    font-family="ChaparralPro-Bold"
    font-weight="700"
    font-stretch="normal"
    units-per-em="2048"
    panose-1="2 6 5 3 4 5 5 2 2 3"
    ascent="1516"
    descent="-532"
    x-height="903"
    cap-height="1331"
    bbox="-346 -713 2462 1853.01"
    underline-thickness="110"
    underline-position="-94"
    unicode-range="U+0020-FB04"
  />
<missing-glyph horiz-adv-x="1024" 
d="M102 1237v-1042l349 520zM164 102h696l-348 523zM573 715l349 -520v1042zM512 807l348 522h-696zM0 0v1432h1024v-1432h-1024z" />
    <glyph glyph-name="T_h" unicode="Th" horiz-adv-x="2277" 
d="M457 190v955q-70 0 -142 -10q-31 -4 -39 -39l-38 -197q-168 12 -215 19q8 139 24 413l195 -2h401q416 0 471 2h430q0 -246 -6 -510l10 -2q146 70 200 87q54 18 116 18t133 -52t105 -110q34 -59 34 -158q0 -6 -6 -430l104 -4q0 -115 -2 -168h-250l-264 -2q0 57 4 168l72 6
q6 0 6 24v285q0 131 -22 169t-86 38q-62 0 -150 -59q-4 -250 -4 -457l94 -4q0 -115 -4 -168h-268l-262 -2l2 168l100 6q6 0 6 8q4 586 4 912q0 41 -61 45q-33 4 -342 4l-4 -961l147 -6q0 -119 -2 -176l-317 2l-322 -2q0 117 2 176l140 6q6 0 6 8z" />
    <glyph glyph-name="Tcaron_h" unicode="&#x164;h" horiz-adv-x="2277" 
d="M768 1640q207 127 254 154q45 -45 84 -106q-76 -57 -295 -234q-61 0 -90 2q-188 156 -291 236q47 66 82 100q172 -101 256 -152zM457 190v955q-70 0 -142 -10q-31 -4 -39 -39l-38 -197q-168 12 -215 19q8 139 24 413l195 -2h401q416 0 471 2h430q0 -246 -6 -510l10 -2
q146 70 200 87q54 18 116 18t133 -52t105 -110q34 -59 34 -158q0 -6 -6 -430l104 -4q0 -115 -2 -168h-250l-264 -2q0 57 4 168l72 6q6 0 6 24v285q0 131 -22 169t-86 38q-62 0 -150 -59q-4 -250 -4 -457l94 -4q0 -115 -4 -168h-268l-262 -2l2 168l100 6q6 0 6 8q4 586 4 912
q0 41 -61 45q-33 4 -342 4l-4 -961l147 -6q0 -119 -2 -176l-317 2l-322 -2q0 117 2 176l140 6q6 0 6 8z" />
    <glyph glyph-name="Tcommaaccent_h" unicode="&#x162;h" horiz-adv-x="2277" 
d="M610 -346q0 40 -32 66t-72 34q-6 78 35 132t105 53q64 1 114 -57q51 -58 51 -150t-70 -200t-190 -171l-76 90q135 100 135 203zM457 190v955q-70 0 -142 -10q-31 -4 -39 -39l-38 -197q-168 12 -215 19q8 139 24 413l195 -2h401q416 0 471 2h430q0 -246 -6 -510l10 -2
q146 70 200 87q54 18 116 18t133 -52t105 -110q34 -59 34 -158q0 -6 -6 -430l104 -4q0 -115 -2 -168h-250l-264 -2q0 57 4 168l72 6q6 0 6 24v285q0 131 -22 169t-86 38q-62 0 -150 -59q-4 -250 -4 -457l94 -4q0 -115 -4 -168h-268l-262 -2l2 168l100 6q6 0 6 8q4 586 4 912
q0 41 -61 45q-33 4 -342 4l-4 -961l147 -6q0 -119 -2 -176l-317 2l-322 -2q0 117 2 176l140 6q6 0 6 8z" />
    <glyph glyph-name="f_f_j" unicode="ffj" horiz-adv-x="1953" 
d="M176 184q0 354 -2 523h-141q0 74 4 180q74 4 121 4q12 2 12 16q0 115 27 193t92 147q154 156 352 156q135 0 205 -39q0 -51 -35 -129t-66 -100q-96 55 -153 55t-76 -49t-14 -248h340q10 0 10 16q0 139 29 213t119 156t172 110q83 28 198 27q213 0 340 -65q0 -52 -41 -134
t-80 -110q-174 98 -293 98q-63 0 -86 -32q-22 -32 -28 -84t0 -195q227 0 367 8t211 12t77 7q4 0 4 -7l-2 -768q0 -171 -57 -293q-56 -122 -142 -228t-178 -152q-51 0 -125 57t-77 100q152 78 188 146q66 113 65 389v541q-53 2 -155 2h-178v-533l104 -4q0 -113 -2 -170
l-266 2l-268 -2q0 113 2 168l100 6q8 0 8 10q0 354 -2 523h-356v-533l118 -4q0 -113 -2 -168h-280l-270 -2q0 113 2 168l100 6q8 0 8 10z" />
    <glyph glyph-name="f_j" unicode="fj" horiz-adv-x="1284" 
d="M172 909q0 139 29 213t119 156t172 110q83 28 200 27q207 0 342 -65q0 -52 -41 -134t-80 -110q-184 98 -295 98q-62 0 -84 -32t-27 -82t1 -195q262 0 384 7t200 11l75 7q4 0 4 -7l-2 -768q0 -171 -57 -293t-142 -228t-177 -152q-49 0 -123 57t-78 100q147 76 186 146
q66 115 64 389l-4 543q-53 2 -148 2h-184v-535l98 -4q0 -113 -2 -168h-266l-268 -2q0 113 2 168l100 6q8 0 8 10q0 354 -2 525h-141l2 180l125 4q10 0 10 16z" />
    <glyph glyph-name="f_f" unicode="ff" horiz-adv-x="1468" 
d="M172 909q0 115 26 193t93 145q153 156 354 156q137 0 203 -37q0 -57 -34 -131t-66 -94q-90 49 -150 49t-76 -47q-18 -47 -14 -248h336q12 0 12 14q-2 133 24 206t95 145q154 156 352 155q131 0 221 -37q0 -57 -34 -133t-66 -96q-8 1 -68 27t-111 26q-49 0 -63 -37
t-14 -270h260q0 -100 -6 -186h-254l-2 -533l184 -6l-2 -168h-352l-268 -2q0 113 2 168l100 6q8 4 8 10q0 356 -2 525h-354v-533l112 -6q0 -113 -2 -168h-280l-268 -2q0 113 2 168l100 6q8 4 8 10q0 356 -2 525h-141l2 180q53 0 123 4q12 4 12 16z" />
    <glyph glyph-name="f_f_i" unicode="ffi" horiz-adv-x="1988" 
d="M176 184q0 354 -2 523h-141q0 74 4 180q74 4 121 4q12 2 12 16q0 115 27 193t92 147q154 156 352 156q135 0 205 -39q0 -51 -35 -129t-66 -100q-96 55 -153 55t-76 -49t-14 -248h340q10 0 10 16q0 139 29 213t119 156t172 110q83 28 198 27q213 0 340 -65q0 -52 -41 -134
t-80 -110q-174 98 -293 98q-63 0 -86 -32q-22 -32 -28 -84t0 -195q227 0 367 8t211 12t77 7q4 0 4 -7q0 -532 -2 -739l113 -4v-168h-279l-252 -2q0 115 2 168l88 6q6 0 7 8v523q-37 2 -160 2h-178v-533l104 -4q0 -113 -2 -170l-266 2l-268 -2q0 113 2 168l100 6q8 0 8 10
q0 354 -2 523h-356v-533l118 -4q0 -113 -2 -168h-280l-270 -2q0 113 2 168l100 6q8 0 8 10z" />
    <glyph glyph-name="f_f_l" unicode="ffl" horiz-adv-x="2002" 
d="M1307 1229q-31 1 -62 -15t-41 -36q-29 -49 -26 -289l360 2v311q-79 27 -231 27zM172 909q0 217 119 338q154 156 352 156q125 0 203 -37q0 -49 -35 -127t-66 -98q-102 51 -157 51t-70 -41q-20 -47 -16 -256h338q12 0 12 14q0 141 28 217t109 150q100 86 189 112t218 27
q130 0 264 -19t195 -44q6 -4 7 -17q0 -550 -9 -1159l117 -6v-168h-278l-256 -2v168l94 6q8 0 8 10v523q-129 2 -360 2l-2 -533l112 -6q0 -113 -2 -170l-270 2l-268 -2q0 113 2 168l100 6q8 4 8 10q0 356 -2 525h-354l-2 -533l121 -6q0 -57 -5 -168h-280l-268 -2q0 113 2 168
l100 6q8 4 8 10q0 356 -2 525h-141l2 180q53 0 123 4q12 4 12 16z" />
    <glyph glyph-name="f_i" unicode="fi" horiz-adv-x="1318" 
d="M172 909q0 139 29 213t119 156t172 110q83 28 200 27q207 0 342 -65q0 -52 -42 -134t-81 -110q-180 98 -295 98q-60 0 -82 -32t-27 -82t1 -195q260 0 383 7q124 7 201 11l75 7q4 0 4 -7q0 -532 -2 -739l113 -4v-168h-283l-254 -2q0 115 3 168l86 6q6 0 6 8v525
q-33 2 -154 2h-180v-535l98 -4q0 -113 -2 -168h-266l-268 -2q0 113 2 168l100 6q8 0 8 10q0 354 -2 525h-141l2 180l125 4q10 0 10 16z" />
    <glyph glyph-name="f_l" unicode="fl" horiz-adv-x="1333" 
d="M633 1229q-82 0 -107 -43q-29 -45 -24 -295l358 2v307q-96 29 -227 29zM178 184q0 354 -2 523h-141q0 127 2 182q85 0 123 4q12 0 12 16q0 143 28 218t109 149q101 86 185 113t214 27t269 -20q139 -19 205 -46q8 -8 8 -17l-8 -1157l118 -6l-2 -168h-284l-256 -2
q0 117 2 168l92 6q8 4 8 12v521h-358l-2 -531l108 -6q0 -111 -2 -168h-270l-268 -2q0 113 2 168l100 8q8 0 8 8z" />
    <glyph glyph-name="uni021A_h" unicode="&#x21a;h" horiz-adv-x="2277" 
d="M610 -346q0 40 -32 66t-72 34q-6 78 35 132t105 53q64 1 114 -57q51 -58 51 -150t-70 -200t-190 -171q-8 11 -76 90q135 98 135 203zM457 188v957q-70 0 -142 -10q-31 -4 -39 -39l-38 -197q-168 12 -215 19q8 139 24 413l195 -2h401q416 0 471 2h430q0 -246 -6 -510
l10 -2q146 70 200 87q54 18 116 18t133 -52t105 -112q34 -61 34 -156q0 -6 -6 -430l104 -4q0 -115 -2 -168h-250q-104 0 -264 -4q0 59 4 170l72 6q6 0 6 24v285q0 131 -22 169t-82 38q-59 0 -154 -59q-4 -250 -4 -457l94 -4q0 -115 -4 -168h-268l-262 -2l2 168l100 6
q6 0 6 8q4 586 4 912q0 41 -61 45q-33 4 -342 4l-4 -961l147 -6q0 -119 -2 -176l-317 2l-322 -2q0 117 2 176l140 4q6 4 6 8z" />
    <glyph glyph-name=".notdef" horiz-adv-x="1024" 
d="M102 1237v-1042l349 520zM164 102h696l-348 523zM573 715l349 -520v1042zM512 807l348 522h-696zM0 0v1432h1024v-1432h-1024z" />
    <glyph glyph-name=".null" horiz-adv-x="0" 
 />
    <glyph glyph-name="nonmarkingreturn" horiz-adv-x="681" 
 />
    <glyph glyph-name="space" unicode=" " horiz-adv-x="460" 
 />
    <glyph glyph-name="exclam" unicode="!" horiz-adv-x="643" 
d="M328 307q76 0 121 -47t45 -119q0 -73 -48 -117t-123 -44t-123 44t-48 116t50 119q50 48 126 48zM514 1337q2 -2 -3 -46t-42 -395t-47 -443q-28 -11 -100 -19t-101 -8q-6 42 -44 366t-68 490q61 14 209 34t196 21z" />
    <glyph glyph-name="quotedbl" unicode="&#x22;" horiz-adv-x="907" 
d="M788 1432q-39 -469 -45 -641q-74 -18 -145 -19q-37 401 -66 625q43 13 135 25t121 10zM383 1432q-45 -639 -45 -641q-74 -18 -145 -19q-37 406 -66 623q45 15 136 27t120 10z" />
    <glyph glyph-name="numbersign" unicode="#" horiz-adv-x="1153" 
d="M702 825h-200q-29 -184 -41 -272h201q15 110 40 272zM109 827q0 59 8 158l231 2q12 70 33 196q20 126 22 138q63 4 187 4q-13 -70 -60 -336h199q32 221 53 332h189q-8 -51 -30 -166t-30 -166q133 0 193 4q2 -78 -8 -168h-215q-33 -215 -43 -272h206q4 -84 -8 -162
l-227 -2q-11 -53 -31 -175t-30 -177q-117 -4 -170 -2q16 96 57 354l-203 -2q-25 -131 -63 -350q-66 -6 -168 -2q18 119 55 352l-201 -2q-2 53 8 170h220q6 39 41 272h-215z" />
    <glyph glyph-name="dollar" unicode="$" horiz-adv-x="1153" 
d="M776 365q0 106 -155 141q0 -67 -9 -283q80 0 122 38t42 104zM395 963q0 -53 35 -81t123 -51l8 263q-82 -2 -121 -39q-45 -38 -45 -92zM123 888q0 179 149 283q117 82 295 97q4 66 4 190q78 16 160 19q-4 -131 -8 -205q174 0 281 -62q0 -44 -34 -116t-69 -99
q-111 80 -186 97q-2 -72 -10 -295q173 -49 255 -129t82 -232t-110 -258q-125 -109 -322 -123q-4 -119 -8 -196q-78 -10 -151 -13q6 102 6 203q-211 0 -361 80q2 35 41 110t76 103q150 -102 250 -119q0 94 8 318q-67 29 -95 40t-80 37t-75 51q-23 23 -51 59q-48 60 -47 160z
" />
    <glyph glyph-name="percent" unicode="%" horiz-adv-x="1748" 
d="M1331 598q-35 0 -69 -36t-33 -215q0 -179 33 -216q22 -29 58 -29t58 25q39 45 39 217t-33 221q-18 33 -53 33zM1667 365q0 -103 -39 -189q-90 -197 -309 -199q-127 0 -209 58q-53 39 -92 119t-39 176t39 185q91 208 325 208q135 0 211 -70q113 -98 113 -288zM435 1210
q-103 0 -103 -250q0 -173 37 -215q25 -31 59 -31t55 27q37 45 37 215t-24 212t-61 42zM772 985q0 -221 -149 -330q-84 -65 -208 -65t-208 63q-127 94 -127 312q0 98 38 179q90 193 337 191q434 -4 829 21q23 -33 68 -111q-292 -447 -846 -1317q-84 41 -141 78
q480 738 753 1200l-10 6q-225 0 -408 5q72 -72 72 -232z" />
    <glyph glyph-name="ampersand" unicode="&#x26;" horiz-adv-x="1576" 
d="M652 176q118 0 204 66q-264 268 -389 358q-74 -68 -74 -184t80 -185q61 -55 179 -55zM475 1044q0 -102 160 -215q92 80 92 195q0 80 -41 119q-29 33 -84 33t-91 -36t-36 -96zM535 -20q-190 0 -299 61q-186 104 -187 297q0 117 77 217t204 158v8q-160 125 -160 261
t100 235q123 123 355 122q182 0 282 -84q100 -76 101 -196q-1 -197 -234 -324v-8q170 -131 303 -274q33 33 59 103t26 102t-13 32l-86 6q0 55 4 154h252l219 2q4 -80 0 -156l-106 -8q-82 -233 -222 -373q90 -81 123 -115t66 -34l135 -2q0 -111 -2 -162q-94 -6 -432 -22
q-106 119 -117 129q-182 -129 -448 -129z" />
    <glyph glyph-name="quotesingle" unicode="'" horiz-adv-x="493" 
d="M377 1432q-39 -469 -45 -641q-74 -18 -146 -19q-37 391 -65 625q45 13 135 25t121 10z" />
    <glyph glyph-name="parenleft" unicode="(" horiz-adv-x="831" 
d="M471 558q0 -268 80 -464t233 -368q-53 -53 -104 -91q-108 84 -188 164t-158 191q-162 231 -162 542q0 312 152 561t376 388q37 -41 84 -105q-150 -133 -232 -342q-82 -208 -81 -476z" />
    <glyph glyph-name="parenright" unicode=")" horiz-adv-x="831" 
d="M659 592q0 -309 -147 -551t-375 -406q-51 49 -96 103q319 315 319 835q0 268 -76 463q-77 195 -233 353q33 35 96 90q512 -342 512 -887z" />
    <glyph glyph-name="asterisk" unicode="*" horiz-adv-x="835" 
d="M418 1434q47 0 67 -2q-8 -184 -12 -279q147 115 221 170q35 -45 76 -113q-25 -16 -113 -72t-137 -89q168 -106 250 -162q-18 -27 -78 -111q-102 82 -217 168q4 -90 8 -274q-43 -4 -137 0q6 92 14 276q-138 -101 -223 -168q-37 45 -76 113q41 27 126 80t128 80l-254 159
q55 82 78 111q63 -47 219 -166l-12 277q25 2 72 2z" />
    <glyph glyph-name="plus" unicode="+" horiz-adv-x="1153" 
d="M487 4q0 242 -2 393h-358q6 99 6 183q215 0 354 2v192q0 127 -2 182q131 8 203 9q-2 -117 -6 -379q250 0 348 4q0 -113 -8 -195h-342q-2 -137 -2 -385q-88 -6 -191 -6z" />
    <glyph glyph-name="comma" unicode="," horiz-adv-x="608" 
d="M279 324q79 0 144 -71t64 -165q0 -139 -87 -272t-236 -213q-66 74 -94 110q168 125 168 254q0 49 -40 82t-94 45q-6 98 45 164t130 66z" />
    <glyph glyph-name="hyphen" unicode="-" horiz-adv-x="768" 
d="M82 590q328 0 610 6q0 -111 -8 -193h-315q-158 0 -293 3z" />
    <glyph glyph-name="period" unicode="." horiz-adv-x="608" 
d="M129 148q0 72 50 122t130 49q80 0 126 -48q46 -49 46 -123t-50 -121t-123 -47t-126 48t-53 120z" />
    <glyph glyph-name="slash" unicode="/" horiz-adv-x="835" 
d="M182 -133q-139 45 -182 61q211 495 394 938t231 555q100 -25 204 -63q-51 -117 -170 -388t-185 -430t-292 -673z" />
    <glyph glyph-name="zero" unicode="0" horiz-adv-x="1153" 
d="M721 652q0 374 -43 450t-93 76t-82 -48t-49 -195q-17 -148 -18 -310q0 -330 49 -420q35 -66 91 -66t90 54q55 85 55 459zM1077 668q0 -383 -205 -578q-117 -110 -303 -110t-301 98q-190 172 -190 524q0 414 203 610q129 127 325 127t305 -118q166 -170 166 -553z" />
    <glyph glyph-name="one" unicode="1" horiz-adv-x="1153" 
d="M444 190v807q-131 -16 -315 -41q-18 104 -27 170q157 43 412 134q256 92 264 92t8 -11l-8 -1163l283 -6q0 -63 -4 -170h-459l-455 -2q0 115 4 172l287 6q10 0 10 12z" />
    <glyph glyph-name="two" unicode="2" horiz-adv-x="1153" 
d="M690 912q0 112 -47 171q-41 57 -126 57q-124 1 -146 -55l-47 -204q-104 10 -211 22q6 131 22 367q176 70 417 70t369 -110t128 -284q0 -203 -201 -417q-129 -138 -359 -293v-9q202 0 572 19l4 -4q0 -111 -14 -244l-666 2h-260q-33 90 -55 178q199 145 303 246
q154 143 235 259q82 117 82 229z" />
    <glyph glyph-name="three" unicode="3" horiz-adv-x="1153" 
d="M1030 1034q0 -112 -76 -194t-202 -117v-12q150 -27 230 -119t79 -201q0 -178 -172 -305q-141 -106 -477 -106q-176 0 -279 22q-25 174 -43 354q98 18 213 35l47 -192q2 -10 15 -19q37 -18 88 -18q123 0 182 53t59 149t-78 154t-202 60h-117q-4 123 -4 190q217 2 304 62
t87 167q0 70 -43 115t-130 45t-130 -31q-6 -4 -10 -18l-41 -182q-123 8 -207 20q8 224 16 328q170 66 409 66t349 -76q133 -90 133 -230z" />
    <glyph glyph-name="four" unicode="4" horiz-adv-x="1153" 
d="M598 1004h-12q-130 -185 -293 -451q-2 -4 0 -8t4 -4q92 -4 299 -4zM596 178v154q-59 -2 -490 -2q-49 106 -81 213q317 458 581 786q145 0 309 -10l-4 -780l203 2q0 -100 -6 -199l-199 2q0 -121 -2 -176l121 -6q0 -106 -2 -160h-303l-320 -2q0 111 3 162l182 6q8 0 8 10z
" />
    <glyph glyph-name="five" unicode="5" horiz-adv-x="1153" 
d="M1044 469q0 -123 -53 -221q-146 -270 -573 -268q-168 0 -268 18q-16 113 -46 342q123 27 205 37l51 -187q2 -14 27 -25t70 -11q109 0 175 59t66 175t-83 177t-230 62q-80 0 -197 -6l-41 38q35 334 82 662h389q248 0 400 2q0 -127 -17 -254q-213 0 -569 6
q-25 -143 -37 -211q35 6 150 6q231 0 365 -112t134 -289z" />
    <glyph glyph-name="six" unicode="6" horiz-adv-x="1153" 
d="M606 137q137 0 135 258q0 57 -17 117t-47 96q-30 35 -78 35q-48 1 -94 -21t-65 -55q-8 -242 52 -352q40 -78 114 -78zM716 842q146 0 245 -94q51 -50 85 -130t33 -147q0 -227 -159 -381q-113 -110 -324 -110t-320 94q-193 160 -192 477q0 371 176 580t485 208
q115 0 197 -20q27 -195 39 -322q-20 -4 -201 -36l-43 157q-4 16 -12 23q-25 12 -68 12q-92 0 -145 -86q-68 -115 -78 -295h10q126 70 272 70z" />
    <glyph glyph-name="seven" unicode="7" horiz-adv-x="1153" 
d="M592 1059h-115q-54 0 -102 -8q-25 -6 -39 -41l-49 -156q-127 18 -203 37q14 109 66 432q63 0 194 -4h698q35 -94 66 -232q-350 -537 -420 -833q-14 -59 -14 -248q-82 -14 -336 -14q-4 174 31 270q98 242 434 785v10z" />
    <glyph glyph-name="eight" unicode="8" horiz-adv-x="1153" 
d="M750 322q0 139 -256 245q-90 -88 -90 -227t98 -182q41 -18 78 -19q80 0 127 49q43 50 43 134zM733 1012q0 72 -36 118q-37 46 -105 48q-68 0 -112 -40t-44 -110t52 -120t167 -97q78 78 78 201zM558 -20q-226 0 -343 75q-143 92 -143 248q0 106 71 196q72 89 183 148v10
q-197 117 -197 320q0 86 45 158t109 114q131 90 329 90t299 -82q113 -86 113 -221q0 -178 -197 -299v-8q117 -59 184 -150t66 -190q0 -186 -164 -313q-129 -96 -355 -96z" />
    <glyph glyph-name="nine" unicode="9" horiz-adv-x="1153" 
d="M549 1182q-133 0 -133 -267q0 -133 51 -198q37 -45 115 -45t131 65q1 125 -13 227t-34 140q-37 78 -117 78zM467 485q-164 0 -268 99q-119 123 -119 288q0 213 162 355q134 113 330 113t307 -101q82 -74 135 -203q53 -128 53 -312t-52 -340t-141 -245
q-162 -160 -444 -159q-145 0 -233 18l-56 313q70 20 195 45l57 -172q4 -16 17 -20q33 -18 90 -19q104 0 155 88q60 109 64 320h-8q-135 -68 -244 -68z" />
    <glyph glyph-name="colon" unicode=":" horiz-adv-x="608" 
d="M311 315q80 0 125 -47q45 -46 45 -120t-49 -121t-123 -47t-125 47t-51 119t49 120q49 49 129 49zM133 747q0 71 49 121t129 50t125 -48t45 -122t-49 -120t-123 -46t-125 47t-51 118z" />
    <glyph glyph-name="semicolon" unicode=";" horiz-adv-x="608" 
d="M279 326q79 0 144 -72t64 -164q0 -139 -87 -273t-236 -212q-66 74 -94 110q168 125 168 254q0 49 -40 82t-94 45q-6 96 45 163t130 67zM131 747q0 71 49 121t128 50t125 -48t46 -122t-49 -120t-123 -46t-125 47t-51 118z" />
    <glyph glyph-name="less" unicode="&#x3c;" horiz-adv-x="1153" 
d="M453 502q101 -86 475 -396q-45 -70 -105 -131q-349 252 -606 447q-6 72 -6 156q459 322 614 428q47 -49 99 -138q-102 -80 -261 -202t-210 -164z" />
    <glyph glyph-name="equal" unicode="=" horiz-adv-x="1153" 
d="M133 393l897 -2q0 -96 -6 -184q-418 0 -897 -8q0 102 6 194zM1024 590l-897 2q0 96 6 184q397 0 897 8q0 -102 -6 -194z" />
    <glyph glyph-name="greater" unicode="&#x3e;" horiz-adv-x="1153" 
d="M668 496q-174 141 -467 372q51 84 98 138q279 -195 604 -431q6 -74 6 -155q-33 -25 -616 -445q-39 41 -105 134q449 362 480 387z" />
    <glyph glyph-name="question" unicode="?" horiz-adv-x="1003" 
d="M443 297q75 0 121 -45t46 -116q0 -72 -48 -114t-122 -42t-123 43t-49 111t50 115q50 48 125 48zM936 1038q0 -146 -88 -241q-88 -96 -270 -191q-33 -18 -33 -39q0 -51 8 -123q-88 -33 -217 -38q-26 40 -52 108t-28 121q176 121 241 193t64 173q0 66 -39 106t-94 40
t-88 -25q-12 -8 -14 -20l-47 -170q-119 10 -213 24q4 55 11 167t11 161q61 29 179 48t235 20q198 0 316 -84t118 -230z" />
    <glyph glyph-name="at" unicode="@" horiz-adv-x="1425" 
d="M588 381q0 -37 30 -37t85 49q53 49 69 86t45 160q-23 35 -74 35q-61 0 -108 -110t-47 -183zM987 299q68 0 135 59q84 90 84 224q0 172 -116 290t-336 119q-221 -1 -377 -159t-156 -422q0 -214 128 -318q129 -104 291 -104t290 75q41 -51 45 -86q-135 -90 -359 -90
t-380 130q-158 130 -158 374q0 307 204 504t506 197q250 0 403 -136t152 -350q0 -110 -45 -196t-108 -136t-140 -74t-223 -24q-16 0 -40 14t-29 27q0 10 14 96l-10 6q-57 -55 -132 -99t-112 -44t-92 33t-74 70q-6 19 -6 77t34 161t119 197t186 95q101 0 171 -55h6l35 57
q61 -12 184 -45q-8 -31 -57 -247t-46 -218t9 -2z" />
    <glyph glyph-name="A" unicode="A" horiz-adv-x="1306" 
d="M451 498h284q-109 370 -139 465h-10q-27 -86 -75 -244t-65 -209q-4 -12 5 -12zM-18 0q0 117 2 172l94 6q8 0 12 10q148 390 428 1149q55 6 281 6q66 -190 206 -608t187 -555l104 -8l-2 -172h-577l2 174l100 6q12 0 8 10q-2 4 -17 56t-24 71q-2 10 -14 11l-379 -4
q-4 -23 -17 -74t-18 -72l113 -6q0 -115 -2 -172h-487z" />
    <glyph glyph-name="B" unicode="B" horiz-adv-x="1306" 
d="M608 596q-49 0 -55 -2l-2 -379q-4 -55 93 -55t163 55q65 55 65 151t-74 162q-74 68 -190 68zM606 758q98 0 160 57q61 57 61 147t-57 150q-57 61 -125 61t-88 -6l-2 -407q6 -2 51 -2zM94 0q0 115 2 168l111 6q8 0 8 10v967l-119 6q0 115 2 170q307 6 429 6q123 0 185 -2
q176 -6 261 -45q86 -40 137 -112t51 -160q-1 -88 -67 -167t-170 -118v-16q133 -23 221 -113t88 -217q0 -168 -153 -277t-410 -108l-289 2h-287z" />
    <glyph glyph-name="C" unicode="C" horiz-adv-x="1251" 
d="M88 586q0 383 285 606q205 162 501 162q188 0 271 -31q18 -186 33 -418q-127 -18 -217 -28l-48 215q-4 18 -14 22q-33 27 -94 27q-115 0 -197 -84q-139 -145 -139 -403t119 -365q90 -84 239 -84q68 0 167 18t153 39q18 -78 35 -190q-98 -39 -222 -66t-202 -26
q-272 0 -439 120q-102 76 -166 203q-65 127 -65 283z" />
    <glyph glyph-name="D" unicode="D" horiz-adv-x="1456" 
d="M614 162q145 0 246 90q131 121 131 402t-151 427q-88 86 -209 86q-44 0 -62 -8l-6 -954q0 -43 51 -43zM614 1333q286 0 434 -82t234 -225q86 -144 86 -328t-84 -343t-217 -246q-160 -111 -446 -111l-240 2h-279v170l107 8q6 0 6 8l2 963l-119 4l2 174q227 6 514 6z" />
    <glyph glyph-name="E" unicode="E" horiz-adv-x="1189" 
d="M973 879q-4 -132 -4 -414q-178 -6 -193 -6l-8 82q-6 43 -33 43q-115 4 -174 4v-363q1 -29 19 -37t105 -8t144 13q29 8 39 38l60 164q61 -8 200 -37q-55 -270 -75 -360l-672 2l-281 -2l2 174l107 6q8 0 8 8v963l-117 4q0 121 2 176h951q12 -176 18 -362q-193 -20 -199 -21
l-32 156q-6 31 -41 35q-86 12 -215 12h-21v-387q120 0 178 4q23 0 27 39l12 76q70 2 193 -2z" />
    <glyph glyph-name="F" unicode="F" horiz-adv-x="1134" 
d="M215 186v965l-117 4q0 119 2 174h271l479 2l203 2q20 -254 26 -383q-47 -6 -200 -24l-39 176q-6 31 -41 35q-99 14 -165 14t-71 -2l-2 -440q129 0 175 1t52 9q8 8 13 31l12 84q66 0 193 -5q-4 -139 -5 -219l-2 -211q-123 -4 -190 -4l-10 94q-2 39 -47 39q-94 6 -191 7
l-2 -353l221 -6q0 -119 -2 -176l-395 2l-283 -2q0 119 2 172l105 6q8 0 8 8z" />
    <glyph glyph-name="G" unicode="G" horiz-adv-x="1392" 
d="M838 1155q-123 -1 -203 -73q-162 -147 -162 -437q0 -250 113 -373q100 -117 254 -116q45 0 49 24l-2 279l-160 4q0 70 4 180h600q0 -66 -4 -180l-84 -4q-10 -4 -10 -8l-6 -398q-125 -74 -398 -73q-334 0 -516 141q-227 182 -227 491q0 377 307 598q201 141 512 142
q209 0 307 -49q16 -221 23 -406q-111 -15 -217 -23l-45 218q-4 18 -12 24q-47 39 -123 39z" />
    <glyph glyph-name="H" unicode="H" horiz-adv-x="1554" 
d="M215 190v959l-113 6q0 119 2 174h588q0 -119 -2 -174l-119 -6q-4 0 -4 -10l-2 -357q0 -6 4 -6l420 -2v375l-125 6l2 174h586q0 -121 -2 -174l-100 -6q-6 0 -7 -8l-6 -959l113 -6q-4 -58 -4 -176l-281 2l-315 -2q0 121 2 176l131 6q6 0 6 8v388q0 8 -6 8l-418 -4l-4 -400
l129 -6q0 -119 -2 -176l-299 2l-289 -2l2 176l105 6q8 0 8 8z" />
    <glyph glyph-name="I" unicode="I" horiz-adv-x="780" 
d="M215 190v961l-125 6v174l309 -2l303 2q0 -119 -2 -174l-127 -6q-4 0 -4 -10l-6 -959l137 -6q0 -119 -2 -176l-309 2l-301 -2q0 119 2 176l119 6q6 0 6 8z" />
    <glyph glyph-name="J" unicode="J" horiz-adv-x="1107" 
d="M934 1145q0 -506 -4 -647q-6 -260 -127 -383q-154 -164 -447 -164q-152 0 -264 24q-37 240 -59 394q102 27 203 45l65 -213q2 -10 18 -23q41 -28 115 -28t113 56t39 264t-4 683l-217 6q0 117 2 170h684q0 -117 -2 -170l-109 -6q-6 0 -6 -8z" />
    <glyph glyph-name="K" unicode="K" horiz-adv-x="1386" 
d="M639 590q-57 0 -76 -2l-2 -406l115 -6q0 -119 -2 -176l-285 2l-289 -2q0 119 2 176l105 6q6 0 6 6l2 963l-113 6q0 63 4 174l293 -2l279 2q0 -119 -4 -176l-103 -4q-4 0 -4 -10l-2 -387q12 0 94 10q104 109 297 373q10 12 -8 12l-96 4q0 119 2 176h303l201 2
q0 -119 -2 -176l-78 -4q-197 -219 -365 -395v-15q103 -72 191 -261t113 -232q29 -59 71 -62l103 -10q0 -66 -5 -172q-172 -6 -434 -6q-63 96 -157 344t-156 248z" />
    <glyph glyph-name="L" unicode="L" horiz-adv-x="1138" 
d="M215 186v965l-113 4q0 119 2 172h291l307 2q0 -63 -4 -174l-129 -6q-6 0 -6 -8l-4 -922q0 -31 13 -38t94 -7t149 14q25 6 37 39l70 211q106 -18 204 -41q-43 -215 -86 -401q-201 4 -659 4l-283 -2q0 119 2 174l105 4q10 0 10 10z" />
    <glyph glyph-name="M" unicode="M" horiz-adv-x="1792" 
d="M1690 1329q0 -66 -4 -184l-101 -6q-6 0 -6 -11q0 -336 4 -950l113 -6q0 -117 -2 -172h-545q0 119 2 172l117 6q6 0 6 8q-4 459 -8 688h-17q-131 -375 -315 -796q-57 -4 -178 -4q-154 365 -307 827h-19q-4 -221 -12 -721l141 -8q0 -117 -2 -172h-473q0 119 2 172l104 6
q8 2 9 8q8 600 8 953l-113 6q0 70 4 184h512q98 -260 291 -835h17q229 648 296 835h476z" />
    <glyph glyph-name="N" unicode="N" horiz-adv-x="1464" 
d="M1063 440q0 399 -6 711l-148 4q0 121 2 174h267l219 2q0 -117 -4 -174l-90 -6q-6 0 -7 -10l-10 -1121q-78 -39 -248 -38q-297 356 -602 809h-14q0 -405 -4 -609l151 -6q0 -61 -4 -176l-293 2l-192 -2q0 119 2 176l100 4q8 2 8 8l-2 963l-118 4q0 119 2 174h393
q180 -258 588 -889h10z" />
    <glyph glyph-name="O" unicode="O" horiz-adv-x="1505" 
d="M763 154q110 0 175 82q96 131 96 396t-84 427q-57 119 -177 119t-193 -86q-104 -133 -104 -428t102 -418q75 -92 185 -92zM717 -20q-133 0 -250 45t-195 122q-184 190 -184 506q0 195 85 352t218 236q175 111 393 111t373 -101q119 -73 190 -223t71 -318t-55 -314
q-54 -146 -157 -240q-188 -176 -489 -176z" />
    <glyph glyph-name="P" unicode="P" horiz-adv-x="1245" 
d="M632 633q77 0 134 53q68 68 68 195t-60 207t-149 79q-54 0 -66 -6l-4 -508q0 -20 77 -20zM215 184v967l-111 4q0 119 2 172q220 6 452 6t351 -37q119 -36 195 -148t76 -238t-68 -230q-108 -165 -324 -205q-86 -16 -152 -16t-81 2l-2 -285l186 -6q0 -115 -2 -170l-368 2
l-263 -2q0 63 5 170l96 6q8 0 8 8z" />
    <glyph glyph-name="Q" unicode="Q" horiz-adv-x="1505" 
d="M475 652q0 -154 25 -248t78 -160q80 -88 190 -88t166 80q98 131 98 405t-86 424q-61 113 -173 113t-191 -82q-49 -55 -78 -172q-29 -118 -29 -272zM1018 25q220 -142 382 -142q86 0 173 15q12 -76 20 -191q-197 -69 -297 -69t-161 32q-188 96 -408 310h-20
q-123 0 -243 47t-202 131q-174 173 -174 497q0 193 84 347q192 350 623 350q396 0 552 -325q71 -147 71 -323t-60 -318t-158 -231t-182 -120v-10z" />
    <glyph glyph-name="R" unicode="R" horiz-adv-x="1302" 
d="M602 678q102 0 162 63q59 63 59 170t-59 182t-141 74q-48 0 -66 -6l-4 -481q8 -2 49 -2zM577 1333q185 -1 310 -29t207 -126t82 -213t-71 -207t-185 -140v-10q71 -31 131 -144t75 -150q15 -36 19 -44t6 -14q31 -70 61 -72l99 -12v-170h-152l-256 -4q-45 80 -192 424
q-37 88 -109 88q-37 0 -49 -4l-2 -330l111 -6l-3 -168h-292l-258 -2v170l102 6q4 0 4 8l2 967l-111 4q2 59 3 174q283 4 468 4z" />
    <glyph glyph-name="S" unicode="S" horiz-adv-x="1101" 
d="M492 178q88 0 138 40t50 112t-40 102t-171 80q-367 137 -367 403q0 181 142 309t434 128q190 0 272 -39q20 -201 29 -373q-53 -8 -209 -27l-45 191q-2 10 -8 16q-41 31 -112 31t-121 -40t-50 -114q0 -73 42 -105t205 -87t247 -147t84 -234q0 -207 -150 -326t-436 -118
q-201 0 -313 40q-14 111 -45 381q115 25 215 37l57 -202q6 -16 12 -19q51 -39 140 -39z" />
    <glyph glyph-name="T" unicode="T" horiz-adv-x="1261" 
d="M457 190v955q-70 0 -142 -10q-31 -4 -39 -39l-38 -199q-159 12 -215 18q16 279 24 416l195 -2h401q328 0 383 2h195q16 -268 18 -413q-211 -20 -217 -21l-33 197q-6 35 -45 42t-137 7l-4 -961l147 -6q0 -119 -2 -176l-317 2l-322 -2q0 117 2 176l140 6q6 0 6 8z" />
    <glyph glyph-name="U" unicode="U" horiz-adv-x="1386" 
d="M981 561q0 416 -4 584q0 4 -8 8l-144 4l2 174l273 -2l243 2l-2 -174l-98 -6l-4 -557q-2 -326 -152 -475q-135 -139 -387 -139t-394 130t-142 418v613q0 12 -10 12l-91 6q0 117 3 172l282 -2l318 2q0 -119 -4 -174l-140 -4l-4 -618q-4 -347 238 -347q94 0 160 75t65 298z
" />
    <glyph glyph-name="V" unicode="V" horiz-adv-x="1366" 
d="M528 1149q40 -192 205 -811h15q24 68 66 210l76 257q79 268 91 334q0 10 -6 10l-119 4v176h307l199 2q4 -86 0 -176l-107 -4q-304 -824 -452 -1167q-20 -4 -287 -4q-220 594 -391 1165q0 4 -10 8l-101 4l2 172h277l377 2l-2 -176z" />
    <glyph glyph-name="W" unicode="W" horiz-adv-x="1845" 
d="M647 1329q0 -119 -2 -174l-143 -6q12 -147 28 -275t28 -220q10 -92 20 -167q10 -76 18 -145h16q41 139 238 901q72 12 268 6q141 -552 221 -905h19q49 303 59 373l25 170q23 170 33 252q4 10 -7 10l-133 4q0 121 2 174l320 2l190 2q0 -121 -2 -176l-96 -6
q-96 -362 -133 -505q-37 -144 -184 -660q-33 -4 -291 -4q-137 428 -219 727h-11q-139 -434 -241 -723q-39 -4 -289 -4q-182 786 -254 1163q-2 8 -10 8l-101 4q0 119 2 174h629z" />
    <glyph glyph-name="X" unicode="X" horiz-adv-x="1349" 
d="M197 2q-143 0 -207 -2q0 119 2 174l98 6q8 0 19 10q61 70 124 144t140 161q76 87 121 140v14q-23 29 -359 496q-6 6 -12 6l-105 4q0 121 2 174h277l365 2q0 -119 -3 -174l-112 -8q100 -164 180 -287h14q100 133 185 277q4 10 -8 10l-101 4q0 123 2 176h309l191 2
q0 -119 -2 -174l-94 -8q-141 -174 -371 -432v-12q96 -124 226 -302t165 -225l98 -4q0 -117 -2 -172h-268l-379 -2q0 121 2 176l113 4q18 4 8 15q-188 285 -194 290h-13q-113 -150 -213 -303l121 -6q0 -119 -2 -174h-317z" />
    <glyph glyph-name="Y" unicode="Y" horiz-adv-x="1275" 
d="M627 2l-316 -2q0 61 4 176l129 6q8 0 9 11v305q-61 102 -344 643q0 10 -11 10l-82 6q0 119 2 172h258l361 2q0 -119 -2 -174l-123 -8q92 -225 197 -451h10q121 223 209 441q4 10 -6 10l-111 4q0 119 2 176h291l182 2q0 -119 -2 -176l-90 -6q-250 -430 -393 -649l-2 -318
l151 -6q0 -61 -4 -176z" />
    <glyph glyph-name="Z" unicode="Z" horiz-adv-x="1239" 
d="M627 1130q-166 0 -197 -10t-45 -49l-72 -205q-154 30 -215 43q31 182 78 426l217 -4l697 -2q35 -102 63 -233q-338 -455 -698 -889l4 -8q274 0 375 24q47 14 63 62l64 180q94 -16 219 -43q-51 -236 -99 -424l-335 2h-631q-27 55 -66 164q137 184 705 958l-4 8h-123z" />
    <glyph glyph-name="bracketleft" unicode="[" horiz-adv-x="835" 
d="M248 1440l500 14q4 -84 -3 -151l-206 -11q-18 0 -19 -20l-6 -1465l234 -10q0 -57 -5 -151q-327 8 -495 10v1784z" />
    <glyph glyph-name="backslash" unicode="\" horiz-adv-x="835" 
d="M645 -137q-529 1250 -633 1485q156 68 203 82q39 -94 215 -529t397 -956q-125 -62 -182 -82z" />
    <glyph glyph-name="bracketright" unicode="]" horiz-adv-x="835" 
d="M317 1272q0 18 -18 20l-205 11q-6 66 -2 149q164 -4 500 -12l-8 -1784q-172 -2 -494 -10q-4 47 -4 151l231 10v1465z" />
    <glyph glyph-name="asciicircum" unicode="^" horiz-adv-x="1153" 
d="M98 666q162 254 420 637q39 2 135 2q279 -430 412 -639q-41 -37 -143 -109q-195 276 -342 479q-143 -207 -338 -475q-109 76 -144 105z" />
    <glyph glyph-name="underscore" unicode="_" horiz-adv-x="1024" 
d="M0 -150h1024v-110h-1024v110z" />
    <glyph glyph-name="grave" unicode="`" horiz-adv-x="921" 
d="M356 1419l310 -309q-41 -49 -97 -104q-258 197 -348 260q59 75 135 153z" />
    <glyph glyph-name="a" unicode="a" horiz-adv-x="1069" 
d="M371 264q1 -44 31 -66t77 -22t123 45q4 4 4 12v142q-12 2 -43 2q-96 0 -144 -35t-48 -78zM326 -20q-102 0 -192 74q-89 74 -89 171q0 99 121 201t340 102h98q10 162 -125 162q-88 0 -258 -115q-43 49 -106 146q248 203 495 203q121 0 217 -90t97 -218q0 -242 -2 -334
t-1 -96t9 -2l108 4v-168q-33 -12 -133 -26t-209 -14q-23 20 -78 90h-10q-180 -90 -282 -90z" />
    <glyph glyph-name="b" unicode="b" horiz-adv-x="1140" 
d="M729 451q-1 247 -131 247q-60 0 -143 -57l-2 -405q0 -37 41 -60t84 -22q151 0 151 297zM1079 540q0 -329 -219 -493q-94 -68 -272 -67q-113 0 -217 55l-72 -78l-186 29q10 133 10 250v968l-135 6q0 63 4 170q49 4 169 18t294 34q6 0 6 -7l-8 -596l8 -2q141 66 192 81
t115 16q123 0 217 -117t94 -267z" />
    <glyph glyph-name="c" unicode="c" horiz-adv-x="903" 
d="M408 434q0 -123 63 -196q41 -50 139 -50t236 56q31 -113 39 -164q-93 -49 -199 -75t-180 -25q-193 0 -319 112t-126 299q0 223 164 378t428 155q145 0 228 -52q0 -47 -37 -129t-68 -98q-4 2 -24 10q-20 9 -40 17q-74 32 -149 35q-155 0 -155 -273z" />
    <glyph glyph-name="d" unicode="d" horiz-adv-x="1165" 
d="M686 264q0 299 2 432q-68 29 -130 29t-95 -55q-49 -78 -49 -220t38 -201q70 -107 226 -22q8 6 8 37zM426 -20q-141 0 -240 98q-125 121 -125 315q0 238 158 408q53 59 132 91t161 32t166 -27l14 6q-2 74 -6 299l-154 4v172l486 54q6 0 6 -7l-8 -1222q0 -20 12 -21l105 6
q2 -51 2 -168q-27 -10 -139 -25t-205 -15q-41 31 -74 92h-15q-195 -92 -276 -92z" />
    <glyph glyph-name="e" unicode="e" horiz-adv-x="1021" 
d="M540 752q-64 0 -100 -56q-39 -66 -37 -161q113 0 232 4q18 0 18 22q0 82 -24 129q-25 62 -89 62zM61 409q1 215 145 365t372 150q180 0 278 -109q104 -125 105 -319q-1 -20 -49 -68t-62 -51q-55 -6 -447 -6q13 -181 207 -183q135 0 289 58q25 -80 39 -170
q-88 -41 -205 -69t-192 -27q-213 0 -347 107t-133 322z" />
    <glyph glyph-name="f" unicode="f" horiz-adv-x="784" 
d="M178 184q0 356 -2 525h-141l2 180q53 0 123 4q12 4 12 16q0 133 26 206t93 145q154 156 352 155q133 0 223 -37q0 -57 -34 -133t-66 -96q-8 1 -68 27q-60 27 -112 26q-51 0 -64 -35q-14 -45 -14 -272l260 2q0 -102 -6 -190h-254l-2 -531l184 -6l-2 -168h-352l-268 -2
q0 113 2 168l100 6q8 4 8 10z" />
    <glyph glyph-name="g" unicode="g" horiz-adv-x="1101" 
d="M342 -258q0 -115 204 -115q96 0 154 39q60 35 60 107q0 41 -29 56t-101 20t-142 11q-71 6 -91 7q-55 -68 -55 -125zM399 578q0 -211 125 -211q119 0 119 223q0 188 -119 188q-55 0 -90 -53t-35 -147zM971 573q0 -127 -92 -225q-133 -137 -412 -127q-43 -37 -43 -69
t37 -40q37 -10 187 -14t218 -17t123 -52t75 -78t21 -127t-71 -170t-210 -132t-348 -50t-332 63t-122 180q0 33 48 67t116 76t74 46v12q-76 31 -116 70t-40 116q0 16 29 36t172 100v14q-86 39 -153 114t-66 183q0 162 139 268t338 107q127 0 179 -12t66 -13q182 12 306 16
q8 -76 4 -184l-166 -2l-4 -8q43 -57 43 -148z" />
    <glyph glyph-name="h" unicode="h" horiz-adv-x="1222" 
d="M928 2q-104 0 -264 -4l2 170l73 6q6 0 6 24v285q1 131 -21 169t-86 38t-153 -59q0 -205 -4 -455l97 -6q0 -115 -5 -168h-270l-260 -2q0 117 2 170l98 4q6 2 7 10l2 1018l-132 4l3 172q86 7 462 54q6 0 7 -9l-9 -602l11 -2q147 70 200 87q54 18 116 18t132 -52t105 -110
q35 -59 34 -158q0 -6 -6 -430l105 -4q0 -115 -2 -168h-250z" />
    <glyph glyph-name="i" unicode="i" horiz-adv-x="653" 
d="M174 182v506l-131 4q0 66 4 176q101 9 277 32t182 24q4 0 4 -6q-6 -670 -6 -742l112 -6v-168h-282l-279 -2q0 115 2 168l109 6q8 0 8 8zM323 1393q83 1 131 -49t48 -124t-56 -126t-130 -52q-75 0 -129 52t-54 125q-1 72 53 123t137 51z" />
    <glyph glyph-name="j" unicode="j" horiz-adv-x="608" 
d="M8 688l4 176q255 28 482 60q4 0 4 -6l-2 -771q0 -102 -12 -161q-12 -60 -57 -158q-46 -98 -131 -204t-177 -152q-51 0 -125 57t-78 100q150 74 188 146q63 117 62 389l-4 520zM297 1401q84 0 130 -49t46 -124t-54 -127t-130 -52t-131 52q-56 52 -56 124t56 124t139 52z
" />
    <glyph glyph-name="k" unicode="k" horiz-adv-x="1169" 
d="M1122 903q0 -117 -2 -170l-76 -6q-184 -154 -225 -186v-13q93 -62 143 -180t68 -153q12 -18 31 -19l104 -4q0 -117 -4 -170q-350 0 -407 -4q-23 44 -83 226t-106 182q-51 0 -80 -3l-2 -229l74 -6q0 -113 -2 -166h-250l-264 -2q0 61 4 168l100 6q6 0 7 8l2 1018l-131 4
l2 170q459 58 463 58t4 -9q0 -219 -5 -858q56 0 107 6q84 76 143 146q6 8 -4 8l-76 4q0 117 2 170l287 2q55 2 176 2z" />
    <glyph glyph-name="l" unicode="l" horiz-adv-x="632" 
d="M489 1423q0 -397 -8 -1249l119 -4l-2 -168h-285l-280 -2l2 168l110 6q6 0 7 10v1014l-140 8q0 63 4 170q45 4 161 18t207 26q91 11 99 12q6 0 6 -9z" />
    <glyph glyph-name="m" unicode="m" horiz-adv-x="1763" 
d="M176 186v504l-123 6q0 59 4 166q41 4 143 20t184 27q83 13 88 13t11 -45t13 -76l6 -2q141 84 192 104t115 21q109 0 209 -133h10q150 85 204 107t114 22q119 0 210 -117q63 -82 64 -182q0 -51 -6 -445l106 -4q0 -59 -4 -170h-252l-252 -2v170l72 6q8 0 8 8v353
q0 72 -14 100q-22 45 -84 45t-139 -51l-4 -455l82 -4q0 -115 -3 -170h-256l-217 -2v170l74 6q8 2 8 10v371q0 63 -15 96q-16 33 -74 33t-146 -59q-4 -242 -4 -451l84 -4q0 -115 -2 -170h-265l-251 -2q0 119 2 172l102 4q6 0 6 10z" />
    <glyph glyph-name="n" unicode="n" horiz-adv-x="1247" 
d="M840 924q66 0 126 -45q140 -108 140 -275q0 -166 -8 -428l102 -6q0 -115 -2 -168h-264l-256 -2l2 168l82 6q8 0 8 8v277q0 145 -20 183t-84 38t-154 -72q-6 -362 -6 -432l88 -6q0 -115 -2 -168h-256l-270 -2l2 168l100 6q8 0 8 8v508l-129 4l2 168q55 2 234 31
q178 29 182 29t6 -16t27 -118l10 -2q146 90 206 114t126 24z" />
    <glyph glyph-name="o" unicode="o" horiz-adv-x="1118" 
d="M563 139q137 0 137 294q0 182 -36 265q-32 64 -94 64q-150 1 -150 -311t143 -312zM1057 469q-1 -131 -63 -241t-170 -179t-302 -69t-309 98q-152 129 -152 348q0 254 197 399q132 99 312 99q318 1 436 -226q51 -98 51 -229z" />
    <glyph glyph-name="p" unicode="p" horiz-adv-x="1171" 
d="M760 442q0 140 -34 192t-90 52t-149 -57q-4 -229 -4 -393q0 -29 44 -51t81 -21q152 0 152 278zM643 -481q-436 0 -600 -4q0 113 2 168l98 8q8 0 9 10l2 989l-129 2q0 61 4 168q41 6 143 22q245 40 272 44q5 1 14 -50t13 -69l12 -2q156 82 203 100t113 19q127 0 220 -123
t92 -269t-58 -277q-57 -130 -162 -210q-33 -25 -97 -45t-149 -20q-84 0 -153 28l-15 -4q2 -102 2 -311l166 -6q0 -115 -2 -168z" />
    <glyph glyph-name="q" unicode="q" horiz-adv-x="1138" 
d="M564 725q-66 0 -99 -55q-51 -84 -51 -224t39 -199t96 -59t129 35q10 6 10 37v432q-58 33 -124 33zM61 387q0 238 158 412q115 125 305 125q98 0 228 -45l110 73q86 -12 170 -34q-6 -57 -10 -220q-10 -784 -8 -1003l110 -2q0 -88 -6 -170l-276 -2l-316 -6q0 115 4 170
l152 10q8 0 8 10l4 352h-16q-166 -78 -256 -77q-135 0 -236 94q-125 115 -125 313z" />
    <glyph glyph-name="r" unicode="r" horiz-adv-x="933" 
d="M174 180v516l-121 4q0 66 4 168q39 4 139 18t183 26q82 12 86 12t10 -89l12 -178l15 -2q92 175 144 223t128 48t152 -29q0 -68 -34 -168t-63 -127q-6 0 -43 9q-103 26 -150 -11q-48 -36 -90 -116t-42 -197q-2 -35 -2 -113l170 -6q0 -59 -4 -166h-312l-288 -2q0 115 2 166
l96 6q8 0 8 8z" />
    <glyph glyph-name="s" unicode="s" horiz-adv-x="915" 
d="M518 748q-115 0 -115 -89q0 -33 33 -48t158 -50t187 -92q63 -57 63 -157q1 -191 -180 -281q-108 -51 -288 -51t-288 32q-10 82 -33 281q109 23 181 33l32 -117q4 -14 17 -23q51 -30 109 -30t83 10q45 22 45 64t-29 60q-30 17 -135 46q-274 80 -274 272q0 86 52 154
q123 160 417 162q176 0 246 -29q20 -172 28 -272q-88 -16 -184 -29l-31 108q-4 18 -14 23q-31 23 -80 23z" />
    <glyph glyph-name="t" unicode="t" horiz-adv-x="868" 
d="M500 287q0 -41 28 -67t66 -25q104 0 223 30q12 -68 25 -172q-191 -73 -445 -73q-90 0 -157 61q-45 39 -59 75q-13 36 -13 87l2 237l2 269h-143q0 88 6 174q99 10 123 10t24 16q8 136 15 170q86 42 193 76q106 35 112 35t6 -8q-6 -69 -6 -287l315 2q0 -111 -8 -192l-307 2
v-170q-2 -84 -2 -250z" />
    <glyph glyph-name="u" unicode="u" horiz-adv-x="1165" 
d="M1020 903q4 0 4 -8q-6 -651 -6 -681t8 -30l115 4q0 -115 -2 -170q-18 -10 -131 -24t-203 -14q-43 30 -96 102h-9q-121 -68 -173 -85q-51 -17 -131 -17t-174 97q-93 97 -93 191l2 451l-90 4l2 168q315 14 416 14q6 0 6 -8q-6 -430 -6 -519q-1 -89 25 -130t86 -41t118 43
v467l-100 4l2 174q311 8 430 8z" />
    <glyph glyph-name="v" unicode="v" horiz-adv-x="1060" 
d="M547 903q0 -117 -2 -174l-88 -4q26 -132 121 -465h14q14 45 39 120t59 201t34 134q1 8 -7 8l-66 4q0 123 2 174h234l178 2q0 -61 -4 -172l-78 -4q-210 -499 -330 -745q-59 -2 -297 -2q-158 426 -258 737q0 4 -12 8l-80 4q0 120 4 174h537z" />
    <glyph glyph-name="w" unicode="w" horiz-adv-x="1519" 
d="M551 903q0 -117 -2 -176l-117 -4q2 -14 12 -109t54 -356l14 -4q53 190 172 557q39 6 270 6q88 -342 142 -571h16q51 251 86 469q0 8 -8 8l-94 4q0 68 4 174h264l162 2q0 -61 -4 -172l-76 -4q-84 -266 -254 -743q-127 -4 -303 -4q-92 313 -129 442h-12q-66 -176 -173 -438
q-139 -4 -294 -4q-57 217 -103 405q-49 188 -82 330q-4 8 -14 8l-72 6l2 174h539z" />
    <glyph glyph-name="x" unicode="x" horiz-adv-x="1095" 
d="M426 87q0 -58 -2 -87h-418q0 117 2 170l74 6q12 0 24 8q121 117 259 240v16q-199 227 -244 277q-6 4 -15 8l-73 4q0 121 2 174h545q0 -119 -2 -174l-76 -4q90 -115 116 -141h17q43 47 106 131q4 8 -4 8l-55 4l2 174h217l172 2q0 -61 -4 -172l-63 -4q-165 -165 -263 -256
v-12q45 -51 129 -149t115 -132l86 -6q0 -117 -2 -172h-543l2 172l60 4q14 4 8 14q-41 55 -104 121h-17q-31 -35 -112 -135l63 -4q-2 -27 -2 -85z" />
    <glyph glyph-name="y" unicode="y" horiz-adv-x="1052" 
d="M549 903q0 -119 -2 -174l-94 -4q23 -76 49 -162t56 -170t42 -121h12q71 223 113 441q0 10 -8 10l-70 4q0 123 2 174h234l174 2q0 -61 -4 -172l-74 -4q-113 -291 -172 -436q-173 -425 -289 -607t-172 -212q-51 0 -148 66t-98 106q80 45 148 108q115 104 151 197
q-220 540 -299 768q-2 2 -12 8l-78 4q0 68 4 174h535z" />
    <glyph glyph-name="z" unicode="z" horiz-adv-x="1024" 
d="M373 731q-41 0 -54 -31l-61 -161q-90 12 -188 32l67 332h41l184 -2q162 -2 535 -2q37 -113 55 -219q-78 -92 -518 -502l4 -8l219 4q59 4 72 39l68 160q61 -10 180 -41q-31 -137 -82 -332h-807q-27 72 -51 154q102 111 547 567l-2 10h-209z" />
    <glyph glyph-name="braceleft" unicode="{" horiz-adv-x="835" 
d="M559 340q1 -74 -21 -198q-22 -122 -22 -212t48 -136t175 -46q4 -94 2 -145q-221 0 -358 90t-137 256q0 84 29 210q30 126 30 171t-5 65q-14 55 -74 70q-36 8 -93 8q-2 47 -2 150q109 1 141 33t31 86q0 54 -27 164t-28 192q0 176 129 270t371 94q4 -82 -3 -145
q-139 0 -182 -50q-43 -49 -43 -133t20 -198t21 -160q0 -174 -190 -215v-16q80 -15 134 -73t54 -132z" />
    <glyph glyph-name="bar" unicode="|" horiz-adv-x="1153" 
d="M483 1536h189v-2048h-189v2048z" />
    <glyph glyph-name="braceright" unicode="}" horiz-adv-x="835" 
d="M279 770q0 51 21 166q49 255 -21 335q-41 46 -183 46q-6 63 -2 145q498 0 498 -364q2 -82 -27 -194t-29 -148t5 -54q11 -52 72 -70q36 -9 94 -9q0 -102 -2 -150q-109 2 -141 -31t-32 -95t29 -188t29 -210q0 -164 -137 -255t-359 -91q-4 49 0 145q125 0 175 47t50 136
t-20 210t-20 197t54 134t134 73v16q-188 41 -188 209z" />
    <glyph glyph-name="asciitilde" unicode="~" horiz-adv-x="1153" 
d="M956 418q-74 -96 -172 -96t-289 95q-72 34 -114 35q-43 1 -72 -35t-30 -98q-41 -4 -158 0q2 147 77 243t172 97t232 -65t174 -66t68 36t28 98q25 2 53 2l105 -2q0 -148 -74 -244z" />
    <glyph glyph-name="uni00A0" unicode="&#xa0;" horiz-adv-x="460" 
 />
    <glyph glyph-name="exclamdown" unicode="&#xa1;" horiz-adv-x="643" 
d="M309 598q-76 0 -122 47t-46 117t50 116t123 46t122 -45t49 -115t-50 -118t-126 -48zM121 -430v2q17 172 92 879q29 10 101 18t102 8q2 -16 22 -194q20 -179 53 -415t35 -245q-58 -13 -208 -33t-197 -20z" />
    <glyph glyph-name="cent" unicode="&#xa2;" horiz-adv-x="1153" 
d="M440 657q0 -195 164 -241q0 240 6 516q-72 -14 -121 -92t-49 -183zM125 620q0 181 128 325t363 179v211q80 14 172 21q-4 -74 -4 -223h17q141 0 239 -50q0 -49 -28 -128t-60 -97q-125 66 -178 72q-8 -334 -10 -514q96 2 227 49q10 -31 43 -150q-131 -63 -266 -82
q-4 -168 -4 -245q-81 -6 -162 -15q0 160 2 246q-133 0 -228 40q-94 40 -142 83q-109 97 -109 278z" />
    <glyph glyph-name="sterling" unicode="&#xa3;" horiz-adv-x="1153" 
d="M281 440q0 66 -9 113h-194q0 63 4 174h145q6 0 6 8q-33 127 -33 210t43 162q42 79 117 128q154 104 381 104q111 0 230 -34q20 -254 28 -367q-150 -20 -200 -25l-47 201q-4 18 -18 26t-66 9q-51 0 -87 -43t-36 -124t28 -245q137 0 318 4q2 -68 -6 -190q-184 0 -285 2
l2 -74q0 -156 -141 -274q-18 -17 -12 -19t18 -2q289 0 326 17q31 6 43 45l65 200q100 -18 203 -45q-29 -139 -86 -405q-147 4 -658 4l-333 -2q0 59 4 186l153 6q14 0 27 9q70 76 70 241z" />
    <glyph glyph-name="currency" unicode="&#xa4;" horiz-adv-x="1153" 
d="M585 901q-95 0 -155 -51q-94 -84 -94 -217t82 -211q58 -53 156 -53t161 47q96 74 96 223t-100 223q-51 39 -146 39zM597 1067q126 0 194 -33q72 86 153 195q74 -55 129 -115q-59 -74 -145 -176q53 -47 84 -125q66 -165 -5 -333q-36 -83 -100 -134l168 -196
q-84 -76 -127 -105l-176 201q-74 -41 -198 -41t-197 35l-182 -201q-66 49 -119 108q45 55 164 191q-115 98 -115 283q0 81 35 163t94 136q-123 151 -152 184q49 49 127 115q86 -104 160 -199q82 47 208 47z" />
    <glyph glyph-name="yen" unicode="&#xa5;" horiz-adv-x="1153" 
d="M416 188v95l-295 -2q0 55 4 137l291 -2v106h-293q0 86 4 129h250q-193 330 -271 467q-8 12 -22 12l-61 5q0 117 2 165h227l326 3q0 -113 -3 -168l-114 -7q45 -109 186 -415h15q113 240 182 401q4 12 -10 12l-103 7q0 113 2 167h254l154 3q0 -115 -2 -168l-70 -5
q-156 -272 -278 -471q144 0 231 3q4 -80 -2 -142h-299v-102h301q0 -88 -2 -133l-299 -2l-2 -107l168 -8q0 -53 -4 -168l-316 2l-311 -2q0 61 4 168l146 6q10 0 10 14z" />
    <glyph glyph-name="brokenbar" unicode="&#xa6;" horiz-adv-x="1153" 
d="M483 358h189v-716h-189v716zM483 1382h189v-716h-189v716z" />
    <glyph glyph-name="section" unicode="&#xa7;" horiz-adv-x="974" 
d="M301 582q0 -58 11 -88t47 -62q36 -31 144 -99q108 -67 136 -87q31 51 31 122q0 70 -38 114t-83 75t-105 71t-96 68q-47 -56 -47 -114zM895 455q0 -176 -125 -318q57 -61 57 -186q0 -160 -126 -266t-298 -107q-219 0 -370 105q14 53 60 109t97 75q127 -109 240 -109
q63 0 98 35t35 91t-21 78l-30 30q-13 13 -83 54q-71 42 -91 54q-131 80 -195 163q-63 83 -63 208q0 180 139 326q-68 80 -67 194q0 145 129 245t321 101q192 0 309 -92q-8 -47 -50 -103t-95 -79q-40 37 -104 67t-124 29q-60 0 -92 -36t-32 -73t8 -57q13 -33 63 -63t150 -86
q260 -153 260 -389z" />
    <glyph glyph-name="dieresis" unicode="&#xa8;" horiz-adv-x="921" 
d="M530 1168q0 52 34 88q34 34 92 34t92 -37t34 -87t-38 -85t-91 -35t-88 36q-35 34 -35 86zM266 1290q57 0 91 -35t34 -87t-36 -86q-36 -36 -89 -36t-90 36q-37 34 -37 84t35 87t92 37z" />
    <glyph glyph-name="copyright" unicode="&#xa9;" horiz-adv-x="1550" 
d="M887 879q-1 30 -59 30t-99 -41q-80 -80 -80 -208q-1 -128 55 -180t150 -52t174 33q16 -90 21 -117q-123 -59 -265 -59t-231 67q-133 98 -133 260q0 211 160 338q119 90 286 90q111 0 160 -16q12 -123 18 -252q-12 -2 -129 -18zM1327 672q-1 244 -155 410t-394 165
q-240 0 -396 -172t-157 -416q0 -243 155 -409q154 -166 394 -166t396 172t157 416zM90 656q0 288 204 492t493 204q290 0 483 -194q192 -194 192 -482t-202 -493q-202 -203 -494 -203t-484 194t-192 482z" />
    <glyph glyph-name="ordfeminine" unicode="&#xaa;" horiz-adv-x="837" 
d="M414 901q-50 1 -88 -27t-37 -63t25 -51t72 -16t79 32q4 4 4 10v113q-5 2 -55 2zM47 778q0 78 89 158t249 80h82q4 125 -92 125q-86 0 -201 -90q-39 49 -80 112q188 156 379 156q88 0 164 -70t76 -166l-2 -323q0 -12 6 -12l84 4q0 -88 -2 -129q-135 -31 -262 -31
q-29 18 -58 67h-8q-216 -128 -357 -13q-67 54 -67 132z" />
    <glyph glyph-name="guillemotleft" unicode="&#xab;" horiz-adv-x="991" 
d="M915 760q-117 -201 -182 -307l187 -308q-29 -33 -91 -88q-57 57 -163 168t-162 166q-4 39 -4 119q181 188 323 338q41 -33 92 -88zM348 455q78 -129 195 -322q-25 -27 -99 -90q-41 41 -156 159q-116 118 -182 181q-4 43 -4 137q59 57 344 342q47 -35 97 -92
q-41 -65 -195 -315z" />
    <glyph glyph-name="logicalnot" unicode="&#xac;" horiz-adv-x="1153" 
d="M836 23v385l-715 2q0 83 6 182q129 2 442 4t445 4q12 0 12 -8l-6 -563q-90 -6 -184 -6z" />
    <glyph glyph-name="uni00AD" unicode="&#xad;" horiz-adv-x="768" 
d="M82 590q328 0 610 6q0 -111 -8 -193h-315q-158 0 -293 3z" />
    <glyph glyph-name="registered" unicode="&#xae;" horiz-adv-x="1036" 
d="M481 1081v-143h15q36 0 60 19t24 55t-24 52q-24 17 -58 17h-17zM346 1079h-37v72q63 2 161 2t144 -11t73 -41q26 -30 26 -67q0 -82 -88 -119v-12q29 -12 75 -104q12 -20 23 -21l31 -2v-69h-156q-33 66 -61 139q-8 23 -41 22h-15v-90l37 -2v-69h-209v69l37 2v301z
M518 1274q-148 0 -244 -100q-94 -100 -94 -250t93 -247t241 -97t245 101q95 101 95 250t-94 246t-242 97zM525 1352q185 0 304 -119t119 -299t-127 -306t-311 -126t-303 118t-119 299t126 307t311 126z" />
    <glyph glyph-name="macron" unicode="&#xaf;" horiz-adv-x="921" 
d="M707 1075l-488 2q-6 59 -2 144q332 4 490 4q4 -76 0 -150z" />
    <glyph glyph-name="degree" unicode="&#xb0;" horiz-adv-x="786" 
d="M395 1212q-49 0 -82 -42t-33 -106t34 -102t85 -38t80 39t29 104q0 145 -113 145zM393 1339h4q131 -1 211 -75t80 -192t-86 -196t-210 -79t-208 71t-84 190t85 200t208 81z" />
    <glyph glyph-name="plusminus" unicode="&#xb1;" horiz-adv-x="1153" 
d="M135 184l895 -2q0 -88 -6 -178l-897 -8q0 74 8 188zM492 279v270h-359q0 96 6 182q79 0 353 4l-3 305q123 8 195 9q0 -63 -4 -310q256 0 354 4q2 -70 -6 -196h-350l-2 -260q-111 -8 -184 -8z" />
    <glyph glyph-name="twosuperior" unicode="&#xb2;" 
d="M258 1044q186 154 186 258t-86 105q-41 0 -67 -21q-6 -2 -6 -12l-27 -121q-61 2 -149 11q8 178 10 233q115 45 273 45t229 -65q69 -66 69 -164q0 -152 -225 -301q-31 -23 -80 -45v-11l313 13q2 -1 2 -33t-8 -131l-407 2h-172q-16 47 -31 115q113 72 176 122z" />
    <glyph glyph-name="threesuperior" unicode="&#xb3;" 
d="M400 1540q158 0 222 -51t64 -119q0 -127 -156 -168v-10q82 -12 126 -62t44 -110q0 -106 -92 -166t-284 -61q-117 0 -207 16q-12 80 -23 221q49 11 158 23l24 -115q11 -22 65 -22q54 -1 82 24t28 64q0 106 -158 106h-72q-4 84 -2 123q135 -2 180 27t45 88q0 69 -82 69
q-41 0 -67 -18q-6 -2 -6 -10l-23 -103l-153 10q4 133 8 205q121 39 279 39z" />
    <glyph glyph-name="acute" unicode="&#xb4;" horiz-adv-x="921" 
d="M266 1110l322 309q68 -68 135 -155l-365 -260q-51 55 -92 106z" />
    <glyph glyph-name="mu" unicode="&#xb5;" horiz-adv-x="1165" 
d="M121 135q0 367 4 690q63 33 163 57t163 23q6 0 6 -8q-4 -299 -4 -451q-1 -152 27 -197q28 -44 80 -44q52 -1 90 29t38 79v512q64 33 166 56t164 22q4 0 4 -8l-4 -590q0 -117 42 -117t103 17q18 -109 23 -162q-44 -25 -150 -44t-211 -19q-41 27 -108 116h-12
q-113 -115 -197 -114q-47 0 -92 41l-10 -5l16 -452q-46 -32 -150 -54t-157 -20q6 276 6 643z" />
    <glyph glyph-name="paragraph" unicode="&#xb6;" horiz-adv-x="1300" 
d="M537 350q-86 0 -183 45q-266 127 -266 420q0 162 82 274t201 168q139 76 481 76q150 0 395 -8q2 -49 2 -174l-143 2l-8 -1454q-84 -23 -183 -33l-4 1491h-135l-6 -1464q-86 -25 -188 -35l-2 692h-43z" />
    <glyph glyph-name="periodcentered" unicode="&#xb7;" horiz-adv-x="608" 
d="M307 702q80 0 126 -49t46 -123t-50 -120q-50 -48 -124 -48t-126 48t-52 120q0 70 50 121t130 51z" />
    <glyph glyph-name="cedilla" unicode="&#xb8;" horiz-adv-x="921" 
d="M641 -301q0 -95 -89 -157t-257 -62q-8 45 -12 117q172 6 172 100q0 25 -27 55t-98 23l-25 69l193 162h172l-172 -145q61 -11 102 -55t41 -107z" />
    <glyph glyph-name="onesuperior" unicode="&#xb9;" 
d="M555 1544l-2 -614l168 -2q0 -82 -2 -119h-270l-316 -2q0 80 2 121l184 2q4 0 5 8v389q-53 -6 -191 -24q-14 102 -18 120q63 16 242 72t196 55q2 0 2 -6z" />
    <glyph glyph-name="ordmasculine" unicode="&#xba;" horiz-adv-x="854" 
d="M434 1194q-117 0 -117 -233q0 -145 32 -195t81 -49q49 0 78 43q29 44 29 190t-27 195t-76 49zM795 970q0 -100 -42 -184t-121 -139q-80 -55 -230 -55t-234 82q-109 102 -109 262q0 197 142 305q97 78 237 78t224 -62q59 -39 96 -113t37 -174z" />
    <glyph glyph-name="guillemotright" unicode="&#xbb;" horiz-adv-x="991" 
d="M645 453q-94 158 -194 317q35 37 98 92q117 -119 342 -344q0 -49 -4 -135q-164 -168 -340 -340q-74 63 -98 90q69 111 196 320zM164 57l-90 88q127 206 188 308q-104 171 -182 307q51 55 92 88q121 -127 324 -338q0 -45 -4 -119l-104 -104q-54 -55 -120 -123t-104 -107z
" />
    <glyph glyph-name="onequarter" unicode="&#xbc;" horiz-adv-x="1824" 
d="M1198 303h182l2 256h-14q-25 -35 -65 -86t-111 -156q-8 -14 6 -14zM1708 303q0 -82 -4 -129h-127v-72l86 -2q0 -68 -2 -98h-215l-223 -2v100l151 2q6 0 6 7v57h-317q-37 74 -57 135q25 31 126 164t216 264q6 0 233 -6l-2 -420h129zM1436 1276q-401 -656 -818 -1313
q-58 29 -137 78q397 628 564 909t243 408q92 -41 148 -82zM156 600q0 80 2 121l184 2q4 0 4 6v391q-40 -2 -102 -12l-88 -14q-8 66 -19 123q63 16 243 72t188 55q9 -1 10 -7l-3 -614l168 -2q0 -82 -2 -121h-585z" />
    <glyph glyph-name="onehalf" unicode="&#xbd;" horiz-adv-x="1824" 
d="M1412 733q158 1 228 -65t70 -164q0 -150 -225 -299q-31 -23 -80 -45v-10l313 12q2 0 2 -32t-8 -130h-579q-14 43 -31 113q113 72 176 123q186 154 186 258t-86 104q-41 0 -57 -12t-16 -21l-27 -121q-16 0 -150 13l11 231q115 45 273 45zM594 -37q-72 36 -135 78
q23 35 229 365t352 578q147 248 224 374q86 -37 147 -82q-90 -150 -248 -406q-159 -256 -193 -312t-176 -280t-200 -315zM133 600q0 80 2 121l184 2q4 0 5 6v391q-31 -2 -191 -26q-10 66 -18 123q63 16 243 72t188 55q9 -1 9 -7l-2 -614l168 -2q0 -82 -2 -121h-586z" />
    <glyph glyph-name="threequarters" unicode="&#xbe;" horiz-adv-x="1824" 
d="M1178 303h182l2 256h-14q-25 -35 -65 -85t-112 -157q-8 -14 7 -14zM1688 303q0 -82 -5 -129h-127v-72l86 -2q0 -68 -2 -98h-215l-223 -2v100l152 2q6 0 6 7v57h-318q-37 74 -57 135q25 31 132 172t210 256q6 0 234 -6l-2 -420h129zM1415 1276q-427 -698 -817 -1313
q-58 29 -137 78q467 734 807 1317q92 -41 147 -82zM472 1333q158 0 222 -51t64 -119q0 -127 -154 -168v-10q82 -12 126 -62t44 -110q0 -107 -92 -167t-254 -60t-240 16q-12 80 -22 221q56 11 158 23l24 -115q7 -22 62 -22t82 20q33 29 32 68q0 106 -159 106h-72
q-4 84 -2 123q135 -2 180 27t45 88q0 69 -82 69q-41 0 -57 -11t-17 -17l-22 -103l-154 11q4 133 9 204q121 39 279 39z" />
    <glyph glyph-name="questiondown" unicode="&#xbf;" horiz-adv-x="1003" 
d="M59 -136q0 146 88 241t273 190q33 23 33 39q0 55 -9 123q82 35 218 41q26 -39 52 -109t27 -123q-177 -122 -241 -194t-65 -155t38 -123t94 -40t88 25q12 8 15 22l47 168q123 -10 213 -24q-12 -225 -23 -326q-61 -29 -178 -49t-235 -21q-197 0 -316 84q-119 85 -119 231z
M552 606q-75 0 -121 45t-46 114t51 114t122 45t121 -42t50 -110t-51 -117t-126 -49z" />
    <glyph glyph-name="Agrave" unicode="&#xc0;" horiz-adv-x="1306" 
d="M477 1812q162 -115 365 -260q-43 -74 -78 -118q-129 66 -404 202q66 113 117 176zM451 498h284q-109 370 -139 465h-10q-27 -86 -75 -244t-65 -209q-4 -12 5 -12zM-18 0q0 117 2 172l94 6q8 0 12 10q148 390 428 1149q55 6 281 6q66 -190 206 -608t187 -555l104 -8
l-2 -172h-577l2 174l100 6q12 0 8 10q-2 4 -17 56t-24 71q-2 10 -14 11l-379 -4q-4 -23 -17 -74t-18 -72l113 -6q0 -115 -2 -172h-487z" />
    <glyph glyph-name="Aacute" unicode="&#xc1;" horiz-adv-x="1306" 
d="M813 1810q51 -61 115 -176q-121 -61 -404 -202q-53 80 -75 118q315 227 364 260zM451 498h284q-109 370 -139 465h-10q-27 -86 -75 -244t-65 -209q-4 -12 5 -12zM-18 0q0 117 2 172l94 6q8 0 12 10q148 390 428 1149q55 6 281 6q66 -190 206 -608t187 -555l104 -8
l-2 -172h-577l2 174l100 6q12 0 8 10q-2 4 -17 56t-24 71q-2 10 -14 11l-379 -4q-4 -23 -17 -74t-18 -72l113 -6q0 -115 -2 -172h-487z" />
    <glyph glyph-name="Acircumflex" unicode="&#xc2;" horiz-adv-x="1306" 
d="M920 1442l-254 153l-254 -151q-23 23 -82 100q145 115 291 234q61 4 90 2q41 -31 152 -120t143 -114q-25 -39 -86 -104zM451 498h284q-109 370 -139 465h-10q-27 -86 -75 -244t-65 -209q-4 -12 5 -12zM-18 0q0 117 2 172l94 6q8 0 12 10q148 390 428 1149q55 6 281 6
q66 -190 206 -608t187 -555l104 -8l-2 -172h-577l2 174l100 6q12 0 8 10q-2 4 -17 56t-24 71q-2 10 -14 11l-379 -4q-4 -23 -17 -74t-18 -72l113 -6q0 -115 -2 -172h-487z" />
    <glyph glyph-name="Atilde" unicode="&#xc3;" horiz-adv-x="1306" 
d="M522 1735q54 -1 150 -51t126 -50t54 27t25 68q39 4 118 0q-6 -117 -56 -192t-146 -75q-53 0 -145 50t-126 51q-36 0 -58 -26t-26 -69q-39 -4 -119 0q5 109 61 188t142 79zM451 498h284q-109 370 -139 465h-10q-27 -86 -75 -244t-65 -209q-4 -12 5 -12zM-18 0q0 117 2 172
l94 6q8 0 12 10q148 390 428 1149q55 6 281 6q66 -190 206 -608t187 -555l104 -8l-2 -172h-577l2 174l100 6q12 0 8 10q-2 4 -17 56t-24 71q-2 10 -14 11l-379 -4q-4 -23 -17 -74t-18 -72l113 -6q0 -115 -2 -172h-487z" />
    <glyph glyph-name="Adieresis" unicode="&#xc4;" horiz-adv-x="1306" 
d="M878 1706q58 0 94 -38t36 -88t-38 -86t-93 -36t-92 35q-35 35 -35 88t34 89q36 36 94 36zM457 1706q59 0 93 -36t34 -89t-36 -88t-91 -35t-93 36t-38 86t35 88q37 38 96 38zM451 498h284q-109 370 -139 465h-10q-27 -86 -75 -244t-65 -209q-4 -12 5 -12zM-18 0
q0 117 2 172l94 6q8 0 12 10q148 390 428 1149q55 6 281 6q66 -190 206 -608t187 -555l104 -8l-2 -172h-577l2 174l100 6q12 0 8 10q-2 4 -17 56t-24 71q-2 10 -14 11l-379 -4q-4 -23 -17 -74t-18 -72l113 -6q0 -115 -2 -172h-487z" />
    <glyph glyph-name="Aring" unicode="&#xc5;" horiz-adv-x="1306" 
d="M656 1749q-44 0 -74 -33t-31 -79q0 -45 31 -75q32 -30 76 -30t71 30t27 78t-28 79q-28 30 -72 30zM399 1631q1 91 75 157t184 65q110 0 181 -59q71 -60 71 -152t-76 -153q-74 -61 -182 -61t-180 56t-73 147zM451 498h284q-109 370 -139 465h-10q-27 -86 -75 -244
t-65 -209q-4 -12 5 -12zM-18 0q0 117 2 172l94 6q8 0 12 10q148 390 428 1149q55 6 281 6q66 -190 206 -608t187 -555l104 -8l-2 -172h-577l2 174l100 6q12 0 8 10q-2 4 -17 56t-24 71q-2 10 -14 11l-379 -4q-4 -23 -17 -74t-18 -72l113 -6q0 -115 -2 -172h-487z" />
    <glyph glyph-name="AE" unicode="&#xc6;" horiz-adv-x="1855" 
d="M897 1157h-10q-111 -180 -269 -473q-6 -12 7 -12l272 2v483zM1655 823q-4 -132 -4 -383q-92 -6 -193 -6l-10 58q-2 37 -31 36q-57 2 -176 2v-305q-1 -29 19 -38t104 -9t145 15q27 6 39 38l45 129q115 -16 201 -36q-18 -100 -59 -326q-104 2 -674 2h-316q0 91 3 172l141 4
q8 0 8 10v310q0 10 -14 10l-357 -6q-98 -199 -153 -322l131 -6q0 -115 -2 -172l-326 2l-201 -2q0 115 2 172l113 10q8 0 14 11q634 1092 648 1114t24 22h959q12 -176 18 -362q-193 -20 -199 -21l-32 156q-6 31 -41 35q-86 12 -217 12h-19l-4 -444q78 2 178 6q25 0 31 39
l12 75q70 2 193 -2z" />
    <glyph glyph-name="Ccedilla" unicode="&#xc7;" horiz-adv-x="1251" 
d="M696 -18q-214 0 -390 128q-90 64 -153 192q-65 128 -65 282q0 385 285 608q205 162 501 162q188 0 271 -31q18 -186 33 -418q-133 -20 -217 -28l-48 215q-4 18 -14 22q-33 27 -94 27q-117 0 -195 -84q-141 -145 -141 -403t119 -365q90 -84 239 -84q68 0 171 16t149 33
q18 -80 35 -193q-119 -45 -281 -69l-153 -142q164 -16 163 -155q0 -96 -99 -164t-265 -68q-10 41 -19 115q182 8 183 98q0 86 -136 84l-28 72l170 150h-21z" />
    <glyph glyph-name="Egrave" unicode="&#xc8;" horiz-adv-x="1189" 
d="M741 1432l-405 202q58 98 117 176q162 -115 364 -260q-35 -66 -76 -118zM973 879q-4 -132 -4 -414q-178 -6 -193 -6l-8 82q-6 43 -33 43q-115 4 -174 4v-363q1 -29 19 -37t105 -8t144 13q29 8 39 38l60 164q61 -8 200 -37q-55 -270 -75 -360l-672 2l-281 -2l2 174l107 6
q8 0 8 8v963l-117 4q0 121 2 176h951q12 -176 18 -362q-193 -20 -199 -21l-32 156q-6 31 -41 35q-86 12 -215 12h-21v-387q120 0 178 4q23 0 27 39l12 76q70 2 193 -2z" />
    <glyph glyph-name="Eacute" unicode="&#xc9;" horiz-adv-x="1189" 
d="M791 1810q57 -74 112 -176q-158 -82 -401 -202q-43 57 -78 116q82 59 367 262zM973 879q-4 -132 -4 -414q-178 -6 -193 -6l-8 82q-6 43 -33 43q-115 4 -174 4v-363q1 -29 19 -37t105 -8t144 13q29 8 39 38l60 164q61 -8 200 -37q-55 -270 -75 -360l-672 2l-281 -2l2 174
l107 6q8 0 8 8v963l-117 4q0 121 2 176h951q12 -176 18 -362q-193 -20 -199 -21l-32 156q-6 31 -41 35q-86 12 -215 12h-21v-387q120 0 178 4q23 0 27 39l12 76q70 2 193 -2z" />
    <glyph glyph-name="Ecircumflex" unicode="&#xca;" horiz-adv-x="1189" 
d="M602 1593l-256 -151q-49 55 -80 100q201 162 291 236h90q98 -76 293 -234q-29 -45 -84 -104zM973 879q-4 -132 -4 -414q-178 -6 -193 -6l-8 82q-6 43 -33 43q-115 4 -174 4v-363q1 -29 19 -37t105 -8t144 13q29 8 39 38l60 164q61 -8 200 -37q-55 -270 -75 -360l-672 2
l-281 -2l2 174l107 6q8 0 8 8v963l-117 4q0 121 2 176h951q12 -176 18 -362q-193 -20 -199 -21l-32 156q-6 31 -41 35q-86 12 -215 12h-21v-387q120 0 178 4q23 0 27 39l12 76q70 2 193 -2z" />
    <glyph glyph-name="Edieresis" unicode="&#xcb;" horiz-adv-x="1189" 
d="M804 1706q58 0 94 -38t36 -88t-38 -86t-93 -36t-91 35t-36 88t35 89t93 36zM383 1706q59 0 93 -36t34 -89t-36 -88t-91 -35t-93 36t-38 86t36 88t95 38zM973 879q-4 -132 -4 -414q-178 -6 -193 -6l-8 82q-6 43 -33 43q-115 4 -174 4v-363q1 -29 19 -37t105 -8t144 13
q29 8 39 38l60 164q61 -8 200 -37q-55 -270 -75 -360l-672 2l-281 -2l2 174l107 6q8 0 8 8v963l-117 4q0 121 2 176h951q12 -176 18 -362q-193 -20 -199 -21l-32 156q-6 31 -41 35q-86 12 -215 12h-21v-387q120 0 178 4q23 0 27 39l12 76q70 2 193 -2z" />
    <glyph glyph-name="Igrave" unicode="&#xcc;" horiz-adv-x="780" 
d="M498 1434l-406 202q66 110 115 176q193 -135 366 -262q-37 -68 -75 -116zM215 190v961l-125 6v174l309 -2l303 2q0 -119 -2 -174l-127 -6q-4 0 -4 -10l-6 -959l137 -6q0 -119 -2 -176l-309 2l-301 -2q0 119 2 176l119 6q6 0 6 8z" />
    <glyph glyph-name="Iacute" unicode="&#xcd;" horiz-adv-x="780" 
d="M584 1810q57 -70 114 -176q-121 -61 -403 -202q-35 49 -76 118q74 53 365 260zM215 190v961l-125 6v174l309 -2l303 2q0 -119 -2 -174l-127 -6q-4 0 -4 -10l-6 -959l137 -6q0 -119 -2 -176l-309 2l-301 -2q0 119 2 176l119 6q6 0 6 8z" />
    <glyph glyph-name="Icircumflex" unicode="&#xce;" horiz-adv-x="780" 
d="M659 1442q-30 19 -253 151q-172 -100 -259 -149q-3 3 -79 98q143 117 292 236q27 2 91 2l292 -234q-23 -39 -84 -104zM215 190v961l-125 6v174l309 -2l303 2q0 -119 -2 -174l-127 -6q-4 0 -4 -10l-6 -959l137 -6q0 -119 -2 -176l-309 2l-301 -2q0 119 2 176l119 6
q6 0 6 8z" />
    <glyph glyph-name="Idieresis" unicode="&#xcf;" horiz-adv-x="780" 
d="M615 1706q59 0 95 -38t36 -88t-38 -86t-94 -36t-91 35q-36 35 -36 88t35 89t93 36zM195 1706q59 0 93 -36t34 -89t-36 -88t-92 -35t-93 36q-38 36 -38 86t36 88q37 38 96 38zM215 190v961l-125 6v174l309 -2l303 2q0 -119 -2 -174l-127 -6q-4 0 -4 -10l-6 -959l137 -6
q0 -119 -2 -176l-309 2l-301 -2q0 119 2 176l119 6q6 0 6 8z" />
    <glyph glyph-name="Eth" unicode="&#xd0;" horiz-adv-x="1495" 
d="M649 162q158 0 252 90q131 129 131 385q0 158 -34 257t-107 177q-94 96 -223 96q-39 0 -62 -8l-4 -403q94 0 250 4q0 -94 -10 -197h-240l-2 -360q0 -41 49 -41zM139 0q0 117 2 170l105 8q8 0 8 8v379h-148q0 19 2 59t2 70q1 30 3 58q47 2 141 2l2 395l-119 4q0 117 2 174
q227 6 520 6t463 -100q119 -70 202 -212t83 -298q0 -412 -301 -614q-154 -111 -451 -111l-235 2h-281z" />
    <glyph glyph-name="Ntilde" unicode="&#xd1;" horiz-adv-x="1464" 
d="M631 1735q53 -1 149 -51t126 -50t54 27t25 68q39 4 119 0q-6 -117 -56 -192t-147 -75q-55 0 -144 50t-124 51q-35 0 -58 -26t-26 -69q-39 -4 -119 0q4 109 60 188q57 79 141 79zM1063 440q0 399 -6 711l-148 4q0 121 2 174h267l219 2q0 -117 -4 -174l-90 -6q-6 0 -7 -10
l-10 -1121q-78 -39 -248 -38q-297 356 -602 809h-14q0 -405 -4 -609l151 -6q0 -61 -4 -176l-293 2l-192 -2q0 119 2 176l100 4q8 2 8 8l-2 963l-118 4q0 119 2 174h393q180 -258 588 -889h10z" />
    <glyph glyph-name="Ograve" unicode="&#xd2;" horiz-adv-x="1505" 
d="M614 1815q193 -135 367 -263q-37 -68 -76 -116q-209 100 -405 202q65 111 114 177zM763 154q110 0 175 82q96 131 96 396t-84 427q-57 119 -177 119t-193 -86q-104 -133 -104 -428t102 -418q75 -92 185 -92zM717 -20q-133 0 -250 45t-195 122q-184 190 -184 506
q0 195 85 352t218 236q175 111 393 111t373 -101q119 -73 190 -223t71 -318t-55 -314q-54 -146 -157 -240q-188 -176 -489 -176z" />
    <glyph glyph-name="Oacute" unicode="&#xd3;" horiz-adv-x="1505" 
d="M983 1812q49 -66 115 -176l-404 -202q-45 63 -78 118q19 14 367 260zM763 154q110 0 175 82q96 131 96 396t-84 427q-57 119 -177 119t-193 -86q-104 -133 -104 -428t102 -418q75 -92 185 -92zM717 -20q-133 0 -250 45t-195 122q-184 190 -184 506q0 195 85 352t218 236
q175 111 393 111t373 -101q119 -73 190 -223t71 -318t-55 -314q-54 -146 -157 -240q-188 -176 -489 -176z" />
    <glyph glyph-name="Ocircumflex" unicode="&#xd4;" horiz-adv-x="1505" 
d="M1042 1442l-254 153l-256 -151q-49 55 -79 100q262 213 290 236q27 2 91 2q145 -116 294 -234q-18 -29 -86 -106zM763 154q110 0 175 82q96 131 96 396t-84 427q-57 119 -177 119t-193 -86q-104 -133 -104 -428t102 -418q75 -92 185 -92zM717 -20q-133 0 -250 45
t-195 122q-184 190 -184 506q0 195 85 352t218 236q175 111 393 111t373 -101q119 -73 190 -223t71 -318t-55 -314q-54 -146 -157 -240q-188 -176 -489 -176z" />
    <glyph glyph-name="Otilde" unicode="&#xd5;" horiz-adv-x="1505" 
d="M651 1735q53 -1 149 -51t127 -50q29 0 53 27t26 68q39 4 118 0q-6 -117 -56 -192t-146 -75q-52 0 -142 50t-127 51q-37 0 -59 -26t-27 -69q-39 -4 -118 0q4 109 60 188t142 79zM763 154q110 0 175 82q96 131 96 396t-84 427q-57 119 -177 119t-193 -86
q-104 -133 -104 -428t102 -418q75 -92 185 -92zM717 -20q-133 0 -250 45t-195 122q-184 190 -184 506q0 195 85 352t218 236q175 111 393 111t373 -101q119 -73 190 -223t71 -318t-55 -314q-54 -146 -157 -240q-188 -176 -489 -176z" />
    <glyph glyph-name="Odieresis" unicode="&#xd6;" horiz-adv-x="1505" 
d="M998 1706q58 0 94 -38t36 -88t-38 -86t-92 -36q-56 0 -92 35t-36 88t35 89t93 36zM578 1706q59 0 93 -36t34 -89t-36 -88q-35 -35 -91 -35t-94 36t-38 86t36 88q37 38 96 38zM763 154q110 0 175 82q96 131 96 396t-84 427q-57 119 -177 119t-193 -86q-104 -133 -104 -428
t102 -418q75 -92 185 -92zM717 -20q-133 0 -250 45t-195 122q-184 190 -184 506q0 195 85 352t218 236q175 111 393 111t373 -101q119 -73 190 -223t71 -318t-55 -314q-54 -146 -157 -240q-188 -176 -489 -176z" />
    <glyph glyph-name="multiply" unicode="&#xd7;" horiz-adv-x="1153" 
d="M575 629q279 292 293 307q90 -78 146 -141l-305 -306q242 -254 325 -344q-49 -55 -127 -125q-176 180 -332 336l-335 -336q-78 70 -127 125q307 321 329 344l-292 295q35 39 143 144q51 -53 282 -299z" />
    <glyph glyph-name="Oslash" unicode="&#xd8;" horiz-adv-x="1505" 
d="M762 154q119 0 186 84q111 139 111 438q0 127 -10 190q-162 -190 -248 -286q-70 -74 -269 -289q32 -57 96 -97t134 -40zM772 1178q-125 0 -197 -86q-125 -147 -124 -465q0 -119 8 -185q102 124 235 272t285 324q-23 60 -78 100t-129 40zM86 659q0 188 85 343t218 239
q178 111 418 111q186 0 348 -99q101 110 137 154q51 -37 146 -131q-59 -59 -146 -158q57 -76 93 -190t36 -250q0 -134 -56 -281t-159 -243q-182 -174 -487 -174q-215 0 -371 104q-123 -127 -180 -184q-18 14 -125 114l180 193q-137 166 -137 452z" />
    <glyph glyph-name="Ugrave" unicode="&#xd9;" horiz-adv-x="1386" 
d="M883 1434l-406 202q58 98 117 176q348 -246 367 -260q-31 -57 -78 -118zM981 561q0 416 -4 584q0 4 -8 8l-144 4l2 174l273 -2l243 2l-2 -174l-98 -6l-4 -557q-2 -326 -152 -475q-135 -139 -387 -139t-394 130t-142 418v613q0 12 -10 12l-91 6q0 117 3 172l282 -2l318 2
q0 -119 -4 -174l-140 -4l-4 -618q-4 -347 238 -347q94 0 160 75t65 298z" />
    <glyph glyph-name="Uacute" unicode="&#xda;" horiz-adv-x="1386" 
d="M924 1810q45 -55 114 -176l-405 -202q-35 49 -76 118q263 188 367 260zM981 561q0 416 -4 584q0 4 -8 8l-144 4l2 174l273 -2l243 2l-2 -174l-98 -6l-4 -557q-2 -326 -152 -475q-135 -139 -387 -139t-394 130t-142 418v613q0 12 -10 12l-91 6q0 117 3 172l282 -2l318 2
q0 -119 -4 -174l-140 -4l-4 -618q-4 -347 238 -347q94 0 160 75t65 298z" />
    <glyph glyph-name="Ucircumflex" unicode="&#xdb;" horiz-adv-x="1386" 
d="M1001 1442q-126 83 -253 153l-256 -151q-37 41 -80 100q188 152 290 234q59 4 91 2q41 -31 149 -118t145 -116q-31 -49 -86 -104zM981 561q0 416 -4 584q0 4 -8 8l-144 4l2 174l273 -2l243 2l-2 -174l-98 -6l-4 -557q-2 -326 -152 -475q-135 -139 -387 -139t-394 130
t-142 418v613q0 12 -10 12l-91 6q0 117 3 172l282 -2l318 2q0 -119 -4 -174l-140 -4l-4 -618q-4 -347 238 -347q94 0 160 75t65 298z" />
    <glyph glyph-name="Udieresis" unicode="&#xdc;" horiz-adv-x="1386" 
d="M960 1706q58 0 94 -38t36 -88t-38 -86t-93 -36t-92 35q-36 35 -36 88t35 89q36 36 94 36zM539 1706q59 0 93 -36t34 -89t-36 -88t-91 -35t-94 36q-37 36 -37 86t35 88q37 38 96 38zM981 561q0 416 -4 584q0 4 -8 8l-144 4l2 174l273 -2l243 2l-2 -174l-98 -6l-4 -557
q-2 -326 -152 -475q-135 -139 -387 -139t-394 130t-142 418v613q0 12 -10 12l-91 6q0 117 3 172l282 -2l318 2q0 -119 -4 -174l-140 -4l-4 -618q-4 -347 238 -347q94 0 160 75t65 298z" />
    <glyph glyph-name="Yacute" unicode="&#xdd;" horiz-adv-x="1275" 
d="M907 1810q51 -63 113 -176q-121 -61 -404 -202q-35 49 -75 118q294 211 366 260zM627 2l-316 -2q0 61 4 176l129 6q8 0 9 11v305q-61 102 -344 643q0 10 -11 10l-82 6q0 119 2 172h258l361 2q0 -119 -2 -174l-123 -8q92 -225 197 -451h10q121 223 209 441q4 10 -6 10
l-111 4q0 119 2 176h291l182 2q0 -119 -2 -176l-90 -6q-250 -430 -393 -649l-2 -318l151 -6q0 -61 -4 -176z" />
    <glyph glyph-name="Thorn" unicode="&#xde;" horiz-adv-x="1277" 
d="M642 453q89 0 153 50t63 177q-2 90 -61 150t-156 61q-55 0 -86 -6l-2 -416q0 -16 89 -16zM702 1329q0 -111 -2 -162l-135 -6q-8 0 -8 -8v-92h84q188 0 304 -33t191 -124q74 -91 74 -210t-68 -214q-143 -201 -499 -201h-92v-105l168 -6q0 -113 -2 -168h-613l2 170l101 6
q8 0 8 8l2 967l-113 6q0 117 2 172h596z" />
    <glyph glyph-name="germandbls" unicode="&#xdf;" horiz-adv-x="1409" 
d="M772 1417q158 0 264 -88q135 -113 115 -340q-8 -6 -60 -42t-77 -56q-66 -57 -65 -105t30 -70q48 -37 118 -60q142 -47 198 -121t57 -179q0 -195 -164 -301q-113 -76 -316 -75q-104 0 -206 22q-6 43 -35 281q82 18 168 34l32 -120q2 -7 26 -23t64 -16q41 0 75 26t34 80
q0 55 -29 82t-139 72q-197 80 -196 268q0 61 33 109t80 103q48 54 61 73q10 137 -66 205q-53 43 -118 43q-66 0 -98 -35t-41 -90t-11 -189l-2 -731l31 -4q0 -111 -3 -168h-196l-268 -2q0 113 2 168l100 6q8 0 8 10q0 354 -2 525h-141l2 180l123 4q12 0 12 16q2 143 47 233
t154 158q188 117 399 117z" />
    <glyph glyph-name="agrave" unicode="&#xe0;" horiz-adv-x="1069" 
d="M426 1421l309 -309q-41 -49 -96 -104q-324 242 -348 260q59 75 135 153zM371 264q1 -44 31 -66t77 -22t123 45q4 4 4 12v142q-12 2 -43 2q-96 0 -144 -35t-48 -78zM326 -20q-102 0 -192 74q-89 74 -89 171q0 99 121 201t340 102h98q10 162 -125 162q-88 0 -258 -115
q-43 49 -106 146q248 203 495 203q121 0 217 -90t97 -218q0 -242 -2 -334t-1 -96t9 -2l108 4v-168q-33 -12 -133 -26t-209 -14q-23 20 -78 90h-10q-180 -90 -282 -90z" />
    <glyph glyph-name="aacute" unicode="&#xe1;" horiz-adv-x="1069" 
d="M422 1112l321 309q61 -59 138 -153q-274 -199 -367 -262q-66 76 -92 106zM371 264q1 -44 31 -66t77 -22t123 45q4 4 4 12v142q-12 2 -43 2q-96 0 -144 -35t-48 -78zM326 -20q-102 0 -192 74q-89 74 -89 171q0 99 121 201t340 102h98q10 162 -125 162q-88 0 -258 -115
q-43 49 -106 146q248 203 495 203q121 0 217 -90t97 -218q0 -242 -2 -334t-1 -96t9 -2l108 4v-168q-33 -12 -133 -26t-209 -14q-23 20 -78 90h-10q-180 -90 -282 -90z" />
    <glyph glyph-name="acircumflex" unicode="&#xe2;" horiz-adv-x="1069" 
d="M629 1386l250 -288q-45 -49 -97 -90q-69 65 -219 198l-211 -194q-53 39 -102 86q35 39 248 286q41 2 131 2zM371 264q1 -44 31 -66t77 -22t123 45q4 4 4 12v142q-12 2 -43 2q-96 0 -144 -35t-48 -78zM326 -20q-102 0 -192 74q-89 74 -89 171q0 99 121 201t340 102h98
q10 162 -125 162q-88 0 -258 -115q-43 49 -106 146q248 203 495 203q121 0 217 -90t97 -218q0 -242 -2 -334t-1 -96t9 -2l108 4v-168q-33 -12 -133 -26t-209 -14q-23 20 -78 90h-10q-180 -90 -282 -90z" />
    <glyph glyph-name="atilde" unicode="&#xe3;" horiz-adv-x="1069" 
d="M414 1313q41 1 65 -13q25 -14 53 -29t41 -28q72 -43 107 -43q59 0 74 103q61 4 114 0q-8 -121 -57 -194t-137 -73q-52 0 -202 100q-27 15 -56 15q-63 0 -80 -104q-43 -4 -117 0q13 119 61 193t134 73zM371 264q1 -44 31 -66t77 -22t123 45q4 4 4 12v142q-12 2 -43 2
q-96 0 -144 -35t-48 -78zM326 -20q-102 0 -192 74q-89 74 -89 171q0 99 121 201t340 102h98q10 162 -125 162q-88 0 -258 -115q-43 49 -106 146q248 203 495 203q121 0 217 -90t97 -218q0 -242 -2 -334t-1 -96t9 -2l108 4v-168q-33 -12 -133 -26t-209 -14q-23 20 -78 90h-10
q-180 -90 -282 -90z" />
    <glyph glyph-name="adieresis" unicode="&#xe4;" horiz-adv-x="1069" 
d="M747 1290q58 0 92 -37q33 -37 33 -87t-38 -85t-90 -35q-53 0 -89 35q-35 35 -35 87t35 88q34 34 92 34zM356 1290q57 0 91 -35t34 -87t-36 -86q-36 -36 -89 -36t-90 36q-37 34 -37 84t35 87t92 37zM371 264q1 -44 31 -66t77 -22t123 45q4 4 4 12v142q-12 2 -43 2
q-96 0 -144 -35t-48 -78zM326 -20q-102 0 -192 74q-89 74 -89 171q0 99 121 201t340 102h98q10 162 -125 162q-88 0 -258 -115q-43 49 -106 146q248 203 495 203q121 0 217 -90t97 -218q0 -242 -2 -334t-1 -96t9 -2l108 4v-168q-33 -12 -133 -26t-209 -14q-23 20 -78 90h-10
q-180 -90 -282 -90z" />
    <glyph glyph-name="aring" unicode="&#xe5;" horiz-adv-x="1069" 
d="M571 1341q-43 1 -71 -27t-27 -74q0 -46 29 -75q30 -29 72 -29t68 30q26 28 26 77q-1 98 -97 98zM574 1446q106 0 174 -55t68 -147t-73 -151q-72 -61 -175 -61t-174 56q-70 56 -70 145t72 151t178 62zM371 264q1 -44 31 -66t77 -22t123 45q4 4 4 12v142q-12 2 -43 2
q-96 0 -144 -35t-48 -78zM326 -20q-102 0 -192 74q-89 74 -89 171q0 99 121 201t340 102h98q10 162 -123 162q-92 0 -258 -115q-45 49 -108 146q248 203 495 203q121 0 217 -90t97 -218q0 -242 -2 -334t-1 -96t9 -2l108 4v-168q-33 -12 -133 -26t-209 -14q-23 20 -78 90h-10
q-180 -90 -282 -90z" />
    <glyph glyph-name="ae" unicode="&#xe6;" horiz-adv-x="1556" 
d="M373 264q-1 -46 31 -70t72 -24t85 17t66 36q6 10 4 17q-16 43 -27 135q-8 2 -33 2q-98 0 -148 -34t-50 -79zM1072 752q-58 0 -97 -54t-39 -163q115 0 233 4q18 0 19 24q0 73 -29 131t-87 58zM45 222q0 98 121 202t340 104h94q0 164 -119 164q-86 0 -258 -114
q-53 61 -108 145q244 201 456 201q156 0 222 -150h12q104 150 313 150q174 0 271 -107q106 -127 106 -319q-2 -20 -49 -68t-62 -51q-90 -10 -448 -6q13 -183 213 -185q131 0 285 58q25 -80 39 -170q-86 -41 -203 -69t-195 -27q-235 -1 -370 124h-17q-92 -57 -196 -91
q-104 -33 -186 -33t-171 72q-90 72 -90 170z" />
    <glyph glyph-name="ccedilla" unicode="&#xe7;" horiz-adv-x="903" 
d="M459 -18q-126 0 -251 93q-62 46 -105 128q-42 82 -42 186q0 225 164 380t428 155q145 0 228 -52q0 -47 -37 -129t-68 -98q-4 2 -24 10q-20 9 -40 17q-74 32 -149 35q-155 0 -155 -273q0 -123 63 -196q41 -50 142 -50t233 48q31 -113 39 -164q-102 -53 -226 -74l-161 -139
q61 -9 102 -53t41 -107q0 -95 -89 -157t-257 -62q-8 45 -12 117q172 6 172 88q0 39 -27 67t-98 21l-25 71l164 138h-10z" />
    <glyph glyph-name="egrave" unicode="&#xe8;" horiz-adv-x="1021" 
d="M463 1421l307 -309q-14 -16 -96 -104q-330 246 -348 260q65 81 137 153zM540 752q-64 0 -100 -56q-39 -66 -37 -161q113 0 232 4q18 0 18 22q0 82 -24 129q-25 62 -89 62zM61 409q1 215 145 365t372 150q180 0 278 -109q104 -125 105 -319q-1 -20 -49 -68t-62 -51
q-55 -6 -447 -6q13 -181 207 -183q135 0 289 58q25 -80 39 -170q-88 -41 -205 -69t-192 -27q-213 0 -347 107t-133 322z" />
    <glyph glyph-name="eacute" unicode="&#xe9;" horiz-adv-x="1021" 
d="M383 1112l319 309q61 -59 138 -153q-299 -215 -365 -262q-51 55 -92 106zM540 752q-64 0 -100 -56q-39 -66 -37 -161q113 0 232 4q18 0 18 22q0 82 -24 129q-25 62 -89 62zM61 409q1 215 145 365t372 150q180 0 278 -109q104 -125 105 -319q-1 -20 -49 -68t-62 -51
q-55 -6 -447 -6q13 -181 207 -183q135 0 289 58q25 -80 39 -170q-88 -41 -205 -69t-192 -27q-213 0 -347 107t-133 322z" />
    <glyph glyph-name="ecircumflex" unicode="&#xea;" horiz-adv-x="1021" 
d="M637 1386l250 -288q-45 -49 -96 -90q-70 65 -220 198l-209 -194q-53 39 -102 86q43 49 127 147t121 139q41 2 129 2zM540 752q-64 0 -100 -56q-39 -66 -37 -161q113 0 232 4q18 0 18 22q0 82 -24 129q-25 62 -89 62zM61 409q1 215 145 365t372 150q180 0 278 -109
q104 -125 105 -319q-1 -20 -49 -68t-62 -51q-55 -6 -447 -6q13 -181 207 -183q135 0 289 58q25 -80 39 -170q-88 -41 -205 -69t-192 -27q-213 0 -347 107t-133 322z" />
    <glyph glyph-name="edieresis" unicode="&#xeb;" horiz-adv-x="1021" 
d="M637 1168q0 52 34 88q34 34 92 34t92 -37t34 -87t-38 -85t-91 -35t-88 36q-35 34 -35 86zM373 1290q57 0 91 -35t34 -87t-36 -86q-36 -36 -89 -36t-90 36q-37 34 -37 84t35 87t92 37zM540 752q-64 0 -100 -56q-39 -66 -37 -161q113 0 232 4q18 0 18 22q0 82 -24 129
q-25 62 -89 62zM61 409q1 215 145 365t372 150q180 0 278 -109q104 -125 105 -319q-1 -20 -49 -68t-62 -51q-55 -6 -447 -6q13 -181 209 -183q131 0 289 58q29 -106 39 -170q-88 -41 -205 -69t-192 -27q-215 0 -349 107t-133 322z" />
    <glyph glyph-name="igrave" unicode="&#xec;" horiz-adv-x="653" 
d="M207 1421l309 -309q-41 -49 -96 -104q-330 246 -348 260q45 59 135 153zM174 182v506l-131 4q0 66 4 176q101 9 277 32t182 24q4 0 4 -6q-6 -670 -6 -742l112 -6v-168h-282l-279 -2q0 115 2 168l109 6q8 0 8 8z" />
    <glyph glyph-name="iacute" unicode="&#xed;" horiz-adv-x="653" 
d="M471 1421q61 -61 135 -153q-299 -215 -364 -262q-45 47 -95 106q80 73 324 309zM174 182v506l-131 4q0 66 4 176q101 9 277 32t182 24q4 0 4 -6q-6 -670 -6 -742l112 -6v-168h-282l-279 -2q0 115 2 168l109 6q8 0 8 8z" />
    <glyph glyph-name="icircumflex" unicode="&#xee;" horiz-adv-x="653" 
d="M403 1386l250 -288q-35 -41 -96 -90q-121 112 -219 198q-140 -127 -209 -196q-45 35 -102 88q18 20 110 128t137 158q41 2 129 2zM174 182v506l-131 4q0 66 4 176q101 9 277 32t182 24q4 0 4 -6q-6 -670 -6 -742l112 -6v-168h-282l-279 -2q0 115 2 168l109 6q8 0 8 8z
" />
    <glyph glyph-name="idieresis" unicode="&#xef;" horiz-adv-x="653" 
d="M395 1168q0 52 34 88q34 34 92 34t92 -37t34 -87t-37 -85t-91 -35t-89 36q-35 34 -35 86zM131 1290q57 0 91 -35t34 -87t-36 -86q-36 -36 -89 -36t-90 36q-37 34 -37 84t35 87t92 37zM174 182v506l-131 4q0 66 4 176q101 9 277 32t182 24q4 0 4 -6q-6 -670 -6 -742
l112 -6v-168h-282l-279 -2q0 115 2 168l109 6q8 0 8 8z" />
    <glyph glyph-name="eth" unicode="&#xf0;" horiz-adv-x="1107" 
d="M548 135q54 0 93 53q55 86 55 276t-32 225q-32 36 -106 36q-75 0 -107 -59q-41 -80 -41 -247q0 -284 138 -284zM1034 625q0 -360 -184 -529q-123 -117 -336 -116q-172 0 -276 73q-176 123 -176 349t161 374q123 111 295 111q109 0 150 -33l12 8q-45 145 -135 244
q-127 -94 -193 -143q-37 41 -86 108q27 21 79 61t79 60q-86 66 -250 90q10 70 35 156q221 -6 393 -97q81 58 207 158q53 -61 90 -117q-29 -20 -82 -60t-82 -60q129 -96 214 -272t85 -365z" />
    <glyph glyph-name="ntilde" unicode="&#xf1;" horiz-adv-x="1247" 
d="M508 1313q40 1 65 -13q70 -38 95 -57q72 -43 106 -43q59 0 74 103q61 4 115 0q-7 -121 -57 -194t-138 -73q-54 0 -204 100q-27 15 -56 15q-61 0 -80 -104q-43 -4 -117 0q13 119 61 193t136 73zM840 924q66 0 126 -45q140 -108 140 -275q0 -166 -8 -428l102 -6
q0 -115 -2 -168h-264l-256 -2l2 168l82 6q8 0 8 8v277q0 145 -20 183t-84 38t-154 -72q-6 -362 -6 -432l88 -6q0 -115 -2 -168h-256l-270 -2l2 168l100 6q8 0 8 8v508l-129 4l2 168q55 2 234 31q178 29 182 29t6 -16t27 -118l10 -2q146 90 206 114t126 24z" />
    <glyph glyph-name="ograve" unicode="&#xf2;" horiz-adv-x="1118" 
d="M461 1421l309 -309q-14 -16 -96 -104q-330 246 -348 260q59 75 135 153zM563 139q137 0 137 294q0 182 -36 265q-32 64 -94 64q-150 1 -150 -311t143 -312zM1057 469q-1 -131 -63 -241t-170 -179t-302 -69t-309 98q-152 129 -152 348q0 254 197 399q132 99 312 99
q318 1 436 -226q51 -98 51 -229z" />
    <glyph glyph-name="oacute" unicode="&#xf3;" horiz-adv-x="1118" 
d="M383 1112l319 309q61 -59 138 -153q-299 -215 -365 -262q-31 33 -92 106zM563 139q137 0 137 294q0 182 -36 265q-32 64 -94 64q-150 1 -150 -311t143 -312zM1057 469q-1 -131 -63 -241t-170 -179t-302 -69t-309 98q-152 129 -152 348q0 254 197 399q132 99 312 99
q318 1 436 -226q51 -98 51 -229z" />
    <glyph glyph-name="ocircumflex" unicode="&#xf4;" horiz-adv-x="1118" 
d="M643 1386l250 -288q-45 -49 -96 -90q-69 65 -219 198l-209 -194q-53 39 -103 86q43 49 127 147t121 139q41 2 129 2zM563 139q137 0 137 294q0 182 -36 265q-32 64 -94 64q-150 1 -150 -311t143 -312zM1057 469q-1 -131 -63 -241t-170 -179t-302 -69t-309 98
q-152 129 -152 348q0 254 197 399q132 99 312 99q318 1 436 -226q51 -98 51 -229z" />
    <glyph glyph-name="otilde" unicode="&#xf5;" horiz-adv-x="1118" 
d="M457 1313q45 1 69 -13q23 -14 58 -34l34 -23q68 -43 105 -43q59 0 74 103q61 4 114 0q-8 -121 -57 -194t-137 -73q-54 0 -204 100q-27 15 -56 15q-63 0 -80 -104q-43 -4 -117 0q12 119 60 193t137 73zM563 139q137 0 137 294q0 182 -36 265q-32 64 -94 64
q-150 1 -150 -311t143 -312zM1057 469q-1 -131 -63 -241t-170 -179t-302 -69t-309 98q-152 129 -152 348q0 254 197 399q132 99 312 99q318 1 436 -226q51 -98 51 -229z" />
    <glyph glyph-name="odieresis" unicode="&#xf6;" horiz-adv-x="1118" 
d="M649 1168q0 52 34 88q34 34 92 34t92 -37t34 -87t-38 -85t-91 -35t-88 36q-35 34 -35 86zM385 1290q57 0 91 -35t34 -87t-36 -86q-36 -36 -89 -36t-90 36q-37 34 -37 84t35 87t92 37zM563 139q137 0 137 294q0 182 -36 265q-32 64 -94 64q-150 1 -150 -311t143 -312z
M1057 469q-1 -131 -63 -241t-170 -179t-302 -69t-309 98q-152 129 -152 348q0 254 197 399q132 99 312 99q318 1 436 -226q51 -98 51 -229z" />
    <glyph glyph-name="divide" unicode="&#xf7;" horiz-adv-x="1153" 
d="M436 120q0 66 43 108t103 42t98 -42q39 -42 39 -107t-38 -105t-99 -41q-61 0 -104 40q-42 39 -42 105zM133 582l897 8q0 -103 -6 -193l-897 2q0 4 6 183zM721 864q0 -66 -40 -106q-41 -40 -101 -41q-60 1 -101 41t-41 107t41 107t103 40t100 -41q39 -41 39 -107z" />
    <glyph glyph-name="oslash" unicode="&#xf8;" horiz-adv-x="1118" 
d="M560 139q72 0 108 49q63 94 63 261q0 25 -4 86q-90 -111 -274 -332q35 -64 107 -64zM571 762q-76 0 -110 -53q-72 -104 -72 -260q0 -63 4 -97q264 322 281 342q-27 68 -103 68zM958 768q99 -108 99 -318q1 -110 -61 -221t-158 -172q-126 -77 -284 -77t-253 47
q-106 -115 -156 -164q-57 51 -114 112q74 78 135 150q-104 113 -105 301q0 117 51 220q50 103 132 167q137 111 350 111q119 0 221 -47l121 139q45 -31 139 -121q-14 -14 -117 -127z" />
    <glyph glyph-name="ugrave" unicode="&#xf9;" horiz-adv-x="1165" 
d="M453 1419q49 -47 311 -309q-41 -49 -96 -104q-287 215 -351 260q60 75 136 153zM1020 903q4 0 4 -8q-6 -651 -6 -681t8 -30l115 4q0 -115 -2 -170q-18 -10 -131 -24t-203 -14q-43 30 -96 102h-9q-121 -68 -173 -85q-51 -17 -131 -17t-174 97q-93 97 -93 191l2 451l-90 4
l2 168q315 14 416 14q6 0 6 -8q-6 -430 -6 -519q-1 -89 25 -130t86 -41t118 43v467l-100 4l2 174q311 8 430 8z" />
    <glyph glyph-name="uacute" unicode="&#xfa;" horiz-adv-x="1165" 
d="M502 1004q-58 58 -94 106q79 73 323 309q53 -51 135 -153q-223 -164 -364 -262zM1020 903q4 0 4 -8q-6 -651 -6 -681t8 -30l115 4q0 -115 -2 -170q-18 -10 -131 -24t-203 -14q-43 30 -96 102h-9q-121 -68 -173 -85q-51 -17 -131 -17t-174 97q-93 97 -93 191l2 451l-90 4
l2 168q315 14 416 14q6 0 6 -8q-6 -430 -6 -519q-1 -89 25 -130t86 -41t118 43v467l-100 4l2 174q311 8 430 8z" />
    <glyph glyph-name="ucircumflex" unicode="&#xfb;" horiz-adv-x="1165" 
d="M797 1008l-219 198q-25 -23 -211 -196q-57 43 -103 88q43 49 127 147t121 139q41 2 131 2q47 -53 250 -290q-49 -53 -96 -88zM1020 903q4 0 4 -8q-6 -651 -6 -681t8 -30l115 4q0 -115 -2 -170q-18 -10 -131 -24t-203 -14q-43 30 -96 102h-9q-121 -68 -173 -85
q-51 -17 -131 -17t-174 97q-93 97 -93 191l2 451l-90 4l2 168q315 14 416 14q6 0 6 -8q-6 -430 -6 -519q-1 -89 25 -130t86 -41t118 43v467l-100 4l2 174q311 8 430 8z" />
    <glyph glyph-name="udieresis" unicode="&#xfc;" horiz-adv-x="1165" 
d="M635 1168q0 52 34 88q34 34 92 34t92 -37t34 -87t-38 -85t-91 -35t-88 36q-35 34 -35 86zM371 1290q57 0 91 -35t34 -87t-36 -86q-36 -36 -89 -36t-90 36q-37 34 -37 84t35 87t92 37zM1020 903q4 0 4 -8q-6 -651 -6 -681t8 -30l115 4q0 -115 -2 -170q-18 -10 -131 -24
t-203 -14q-43 30 -96 102h-9q-121 -68 -173 -85q-51 -17 -131 -17t-174 97q-93 97 -93 191l2 451l-90 4l2 168q315 14 416 14q6 0 6 -8q-6 -430 -6 -519q-1 -89 25 -130t86 -41t118 43v467l-100 4l2 174q311 8 430 8z" />
    <glyph glyph-name="yacute" unicode="&#xfd;" horiz-adv-x="1052" 
d="M426 1112l322 309q61 -59 137 -153q-274 -199 -367 -262q-66 76 -92 106zM549 903q0 -119 -2 -174l-94 -4q23 -76 49 -162t56 -170t42 -121h12q71 223 113 441q0 10 -8 10l-70 4q0 123 2 174h234l174 2q0 -61 -4 -172l-74 -4q-113 -291 -172 -436q-173 -425 -289 -607
t-172 -212q-51 0 -148 66t-98 106q80 45 148 108q115 104 151 197q-220 540 -299 768q-2 2 -12 8l-78 4q0 68 4 174h535z" />
    <glyph glyph-name="thorn" unicode="&#xfe;" horiz-adv-x="1153" 
d="M741 438q0 144 -30 195q-35 51 -95 51t-147 -55q-4 -233 -4 -393q0 -29 44 -51t83 -21q68 0 102 51q47 79 47 223zM625 -487q-463 0 -600 -5q0 115 2 168l98 9q8 0 8 10v1384l-135 4q2 53 2 170q66 6 465 56q6 0 6 -6l-8 -496l10 -2q133 75 189 97t124 22q123 0 214 -121
q92 -121 92 -276t-52 -270t-168 -210q-82 -67 -242 -67q-86 0 -159 28l-12 -4v-317l170 -6q0 -61 -4 -168z" />
    <glyph glyph-name="ydieresis" unicode="&#xff;" horiz-adv-x="1052" 
d="M635 1168q0 52 34 88q34 34 92 34t92 -37t34 -87t-38 -85t-91 -35t-88 36q-35 34 -35 86zM371 1290q57 0 91 -35t34 -87t-36 -86q-36 -36 -89 -36t-90 36q-37 34 -37 84t35 87t92 37zM549 903q0 -119 -2 -174l-94 -4q23 -76 49 -162t56 -170t42 -121h12q71 223 113 441
q0 10 -8 10l-70 4q0 123 2 174h234l174 2q0 -61 -4 -172l-74 -4q-113 -291 -172 -436q-173 -425 -289 -607t-172 -212q-51 0 -148 66t-98 106q80 45 148 108q115 104 151 197q-220 540 -299 768q-2 2 -12 8l-78 4q0 68 4 174h535z" />
    <glyph glyph-name="Amacron" unicode="&#x100;" horiz-adv-x="1306" 
d="M922 1503l-553 2q-6 59 -2 144q174 0 555 4q4 -76 0 -150zM451 498h284q-109 370 -139 465h-10q-27 -86 -75 -244t-65 -209q-4 -12 5 -12zM-18 0q0 117 2 172l94 6q8 0 12 10q148 390 428 1149q55 6 281 6q66 -190 206 -608t187 -555l104 -8l-2 -172h-577l2 174l100 6
q12 0 8 10q-2 4 -17 56t-24 71q-2 10 -14 11l-379 -4q-4 -23 -17 -74t-18 -72l113 -6q0 -115 -2 -172h-487z" />
    <glyph glyph-name="amacron" unicode="&#x101;" horiz-adv-x="1069" 
d="M780 1075l-487 2q-6 59 -2 144q331 4 489 4q4 -76 0 -150zM371 264q1 -44 31 -66t77 -22t123 45q4 4 4 12v142q-12 2 -43 2q-96 0 -144 -35t-48 -78zM326 -20q-102 0 -192 74q-89 74 -89 171q0 99 121 201t340 102h98q10 162 -125 162q-88 0 -258 -115q-43 49 -106 146
q248 203 495 203q121 0 217 -90t97 -218q0 -242 -2 -334t-1 -96t9 -2l108 4v-168q-33 -12 -133 -26t-209 -14q-23 20 -78 90h-10q-180 -90 -282 -90z" />
    <glyph glyph-name="Abreve" unicode="&#x102;" horiz-adv-x="1306" 
d="M641 1503q-123 0 -215 72t-107 176q80 25 134 33q16 -57 73 -92q58 -35 120 -35t118 37q55 37 67 84q72 -6 136 -25q-15 -100 -109 -175t-217 -75zM451 498h284q-109 370 -139 465h-10q-27 -86 -75 -244t-65 -209q-4 -12 5 -12zM-18 0q0 117 2 172l94 6q8 0 12 10
q148 390 428 1149q55 6 281 6q66 -190 206 -608t187 -555l104 -8l-2 -172h-577l2 174l100 6q12 0 8 10q-2 4 -17 56t-24 71q-2 10 -14 11l-379 -4q-4 -23 -17 -74t-18 -72l113 -6q0 -115 -2 -172h-487z" />
    <glyph glyph-name="abreve" unicode="&#x103;" horiz-adv-x="1069" 
d="M534 1040q-116 0 -198 71t-94 175q74 25 133 33q14 -57 60 -92q47 -35 105 -35t101 36t53 85q76 -6 135 -25q-12 -100 -96 -174t-199 -74zM371 264q1 -44 31 -66t77 -22t123 45q4 4 4 12v142q-12 2 -43 2q-96 0 -144 -35t-48 -78zM326 -20q-102 0 -192 74q-89 74 -89 171
q0 99 121 201t340 102h98q10 162 -125 162q-88 0 -258 -115q-43 49 -106 146q248 203 495 203q121 0 217 -90t97 -218q0 -242 -2 -334t-1 -96t9 -2l108 4v-168q-33 -12 -133 -26t-209 -14q-23 20 -78 90h-10q-180 -90 -282 -90z" />
    <glyph glyph-name="Aogonek" unicode="&#x104;" horiz-adv-x="1306" 
d="M815 -238q0 -52 35 -80t70 -28t100 18q20 -74 27 -106q-74 -41 -175 -41t-179 52q-77 53 -77 137t58 158t168 128h-125l2 174l100 6q12 0 8 10q-2 4 -17 56t-24 71q-2 10 -14 11l-379 -4q-4 -23 -17 -74t-18 -72l113 -6q0 -115 -2 -172h-487q0 117 2 172l94 6q8 0 12 10
q148 390 428 1149q127 6 281 6q66 -190 206 -608t187 -555l104 -8l-2 -172h-346q-133 -113 -133 -238zM451 498h284q-109 370 -139 465h-10q-27 -86 -75 -244t-65 -209q-4 -12 5 -12z" />
    <glyph glyph-name="aogonek" unicode="&#x105;" horiz-adv-x="1069" 
d="M481 -292q-1 79 55 151t160 121q-23 20 -78 90h-10q-180 -90 -282 -90t-192 74q-89 74 -89 171q0 99 121 201t340 102h98q10 162 -125 162q-88 0 -258 -115q-43 49 -106 146q248 203 495 203q121 0 217 -90t97 -218q0 -180 -2 -304t-1 -126q1 -4 9 -2l108 4v-168
q-8 -4 -100 -18t-147 -33q-123 -72 -123 -213q0 -53 32 -79q52 -43 164 -9q23 -82 27 -102q-72 -39 -166 -39t-169 51t-75 130zM371 264q1 -44 31 -66t77 -22t123 45q4 4 4 12v142q-12 2 -43 2q-96 0 -144 -35t-48 -78z" />
    <glyph glyph-name="Cacute" unicode="&#x106;" horiz-adv-x="1251" 
d="M958 1827q57 -74 113 -176q-303 -154 -403 -203q-35 49 -76 119q233 168 366 260zM88 586q0 383 285 606q205 162 501 162q188 0 271 -31q18 -186 33 -418q-127 -18 -217 -28l-48 215q-4 18 -14 22q-33 27 -94 27q-115 0 -197 -84q-139 -145 -139 -403t119 -365
q90 -84 239 -84q68 0 167 18t153 39q18 -78 35 -190q-98 -39 -222 -66t-202 -26q-272 0 -439 120q-102 76 -166 203q-65 127 -65 283z" />
    <glyph glyph-name="cacute" unicode="&#x107;" horiz-adv-x="903" 
d="M422 1112l321 309q68 -68 136 -155l-365 -260q-51 55 -92 106zM408 434q0 -123 63 -196q41 -50 139 -50t236 56q31 -113 39 -164q-93 -49 -199 -75t-180 -25q-193 0 -319 112t-126 299q0 223 164 378t428 155q145 0 228 -52q0 -47 -37 -129t-68 -98q-4 2 -24 10
q-20 9 -40 17q-74 32 -149 35q-155 0 -155 -273z" />
    <glyph glyph-name="Ccaron" unicode="&#x10c;" horiz-adv-x="1251" 
d="M483 1794q240 -141 258 -152q160 100 252 154q45 -45 84 -106l-295 -234q-61 0 -88 2q-90 74 -291 236q41 61 80 100zM88 586q0 383 285 606q205 162 501 162q188 0 271 -31q18 -186 33 -418q-127 -18 -217 -28l-48 215q-4 18 -14 22q-33 27 -94 27q-115 0 -197 -84
q-139 -145 -139 -403t119 -365q90 -84 239 -84q68 0 167 18t153 39q18 -78 35 -190q-98 -39 -222 -66t-202 -26q-272 0 -439 120q-102 76 -166 203q-65 127 -65 283z" />
    <glyph glyph-name="ccaron" unicode="&#x10d;" horiz-adv-x="903" 
d="M879 1319l-250 -289q-90 0 -131 2q-123 147 -248 287q49 49 104 88q156 -146 211 -197l217 199q51 -39 97 -90zM408 434q0 -123 63 -196q41 -50 139 -50t236 56q31 -113 39 -164q-93 -49 -199 -75t-180 -25q-193 0 -319 112t-126 299q0 223 164 378t428 155
q145 0 228 -52q0 -47 -37 -129t-68 -98q-4 2 -24 10q-20 9 -40 17q-74 32 -149 35q-155 0 -155 -273z" />
    <glyph glyph-name="Dcaron" unicode="&#x10e;" horiz-adv-x="1456" 
d="M934 1690q-195 -153 -295 -234q-61 0 -88 2q-90 74 -291 236q33 45 80 100q53 -33 258 -152q31 18 252 154q35 -35 84 -106zM614 162q145 0 246 90q131 121 131 402t-151 427q-88 86 -209 86q-44 0 -62 -8l-6 -954q0 -43 51 -43zM614 1333q286 0 434 -82t234 -225
q86 -144 86 -328t-84 -343t-217 -246q-160 -111 -446 -111l-240 2h-279v170l107 8q6 0 6 8l2 963l-119 4l2 174q227 6 514 6z" />
    <glyph glyph-name="dcaron" unicode="&#x10f;" horiz-adv-x="1411" 
d="M1241 1169q0 70 -106 93q-6 72 36 120q41 48 105 48t115 -52t51 -136t-70 -182t-190 -159l-76 82q135 92 135 186zM563 725q-149 0 -149 -295q0 -123 38 -181q70 -107 226 -22q8 6 8 35q0 301 2 434q-68 29 -125 29zM426 -20q-141 0 -240 98q-125 121 -125 315
q0 233 158 408q53 59 132 91t156 32t171 -25l14 6q-2 92 -6 297l-154 4v172l486 54q6 0 6 -7l-8 -1222q0 -20 12 -21l105 6q2 -51 2 -168q-27 -10 -139 -25t-205 -15q-41 31 -74 92h-15q-195 -92 -276 -92z" />
    <glyph glyph-name="Dcroat" unicode="&#x110;" horiz-adv-x="1495" 
d="M649 162q158 0 252 90q131 129 131 385q0 158 -34 257t-107 177q-94 96 -223 96q-39 0 -62 -8l-4 -403q94 0 250 4q0 -94 -10 -197h-240l-2 -360q0 -41 49 -41zM139 0q0 117 2 170l105 8q8 0 8 8v379h-148q0 19 2 59t2 70q1 30 3 58q47 2 141 2l2 395l-119 4q0 117 2 174
q227 6 520 6t463 -100q119 -70 202 -212t83 -298q0 -412 -301 -614q-154 -111 -451 -111l-235 2h-281z" />
    <glyph glyph-name="dcroat" unicode="&#x111;" horiz-adv-x="1165" 
d="M426 -20q-141 0 -240 98q-125 121 -125 315q0 233 158 408q53 59 132 91t160 32t169 -27l12 6q0 72 -2 109h-207q0 66 6 123l199 2v65l-156 4q0 117 3 172q57 4 266 29t217 25t8 -7l-2 -284l109 2q0 -72 -7 -133h-104q-4 -549 -4 -807q0 -20 12 -21l105 6l2 -168
q-27 -10 -139 -25t-205 -15q-39 29 -76 92h-15q-193 -92 -276 -92zM414 450q0 -142 41 -206q75 -97 223 -17q10 6 10 35v434q-68 29 -130 29t-95 -55q-49 -78 -49 -220z" />
    <glyph glyph-name="Emacron" unicode="&#x112;" horiz-adv-x="1189" 
d="M848 1503l-553 2q-6 59 -2 144q174 0 555 4q4 -76 0 -150zM973 879q-4 -132 -4 -414q-178 -6 -193 -6l-8 82q-6 43 -33 43q-115 4 -174 4v-363q1 -29 19 -37t105 -8t144 13q29 8 39 38l60 164q61 -8 200 -37q-55 -270 -75 -360l-672 2l-281 -2l2 174l107 6q8 0 8 8v963
l-117 4q0 121 2 176h951q12 -176 18 -362q-193 -20 -199 -21l-32 156q-6 31 -41 35q-86 12 -215 12h-21v-387q120 0 178 4q23 0 27 39l12 76q70 2 193 -2z" />
    <glyph glyph-name="emacron" unicode="&#x113;" horiz-adv-x="1021" 
d="M786 1069l-487 2q-6 59 -2 143q331 5 489 5q4 -76 0 -150zM540 752q-64 0 -100 -56q-39 -66 -37 -161q113 0 232 4q18 0 18 22q0 82 -24 129q-25 62 -89 62zM61 409q1 215 145 365t372 150q180 0 278 -109q104 -125 105 -319q-1 -20 -49 -68t-62 -51q-55 -6 -447 -6
q13 -181 207 -183q135 0 289 58q25 -80 39 -170q-88 -41 -205 -69t-192 -27q-213 0 -347 107t-133 322z" />
    <glyph glyph-name="Edotaccent" unicode="&#x116;" horiz-adv-x="1189" 
d="M434 1591q0 55 40 95t104 40t101 -38q38 -38 38 -96t-40 -97q-39 -39 -99 -39t-102 40t-42 95zM973 879q-4 -132 -4 -414q-178 -6 -193 -6l-8 82q-6 43 -33 43q-115 4 -174 4v-363q1 -29 19 -37t105 -8t144 13q29 8 39 38l60 164q61 -8 200 -37q-55 -270 -75 -360l-672 2
l-281 -2l2 174l107 6q8 0 8 8v963l-117 4q0 121 2 176h951q12 -176 18 -362q-193 -20 -199 -21l-32 156q-6 31 -41 35q-86 12 -215 12h-21v-387q120 0 178 4q23 0 27 39l12 76q70 2 193 -2z" />
    <glyph glyph-name="edotaccent" unicode="&#x117;" horiz-adv-x="1021" 
d="M412 1194q0 55 38 94t102 39t101 -38t37 -95t-39 -95t-98 -38t-100 39t-41 94zM540 752q-64 0 -100 -56q-39 -66 -37 -161q113 0 232 4q18 0 18 22q0 82 -24 129q-25 62 -89 62zM61 409q1 215 145 365t372 150q180 0 278 -109q104 -125 105 -319q-1 -20 -49 -68t-62 -51
q-55 -6 -447 -6q13 -181 207 -183q135 0 289 58q25 -80 39 -170q-88 -41 -205 -69t-192 -27q-213 0 -347 107t-133 322z" />
    <glyph glyph-name="Eogonek" unicode="&#x118;" horiz-adv-x="1189" 
d="M973 879q-4 -132 -4 -414q-178 -6 -193 -6l-8 82q-8 43 -33 43q-115 4 -174 4v-361q1 -31 19 -39t100 -8t149 15q27 6 39 38l60 162q117 -16 200 -37q-25 -133 -75 -358q-53 -43 -99 -113t-45 -124q0 -54 36 -84q36 -29 72 -29t101 18q14 -45 27 -106q-74 -41 -175 -41
t-178 52t-77 136t60 161t173 130l-567 2l-281 -2l2 174l107 4q8 0 8 8v963l-117 4q0 123 2 176h748q72 2 203 2q12 -182 18 -364q-193 -20 -199 -21l-32 156q-8 33 -41 35q-99 14 -163 14t-73 -2v-387q120 0 178 4q23 0 27 39l12 76q70 2 193 -2z" />
    <glyph glyph-name="eogonek" unicode="&#x119;" horiz-adv-x="1021" 
d="M713 -180q1 -51 33 -79t70 -28t91 17q16 -51 27 -103q-72 -39 -166 -39t-168 52t-74 147q0 96 136 205q-111 -12 -119 -12q-215 0 -347 106t-132 322t144 366t372 150q180 0 278 -109q104 -125 105 -319q-1 -20 -49 -68t-62 -51q-129 -6 -446 -6q13 -181 208 -183
q133 0 287 58q20 -66 41 -170q-92 -39 -123 -58q-106 -66 -106 -198zM653 561q0 191 -116 191q-61 0 -97 -56q-39 -66 -37 -161q96 0 232 4q18 0 18 22z" />
    <glyph glyph-name="Ecaron" unicode="&#x11a;" horiz-adv-x="1189" 
d="M328 1792q214 -130 258 -154q122 74 250 156q35 -33 84 -106l-293 -234q-61 0 -88 2q-90 74 -291 236q35 51 80 100zM973 879q-4 -132 -4 -414q-178 -6 -193 -6l-8 82q-6 43 -33 43q-115 4 -174 4v-363q1 -29 19 -37t105 -8t144 13q29 8 39 38l60 164q61 -8 200 -37
q-55 -270 -75 -360l-672 2l-281 -2l2 174l107 6q8 0 8 8v963l-117 4q0 121 2 176h951q12 -176 18 -362q-193 -20 -199 -21l-32 156q-6 31 -41 35q-86 12 -215 12h-21v-387q120 0 178 4q23 0 27 39l12 76q70 2 193 -2z" />
    <glyph glyph-name="ecaron" unicode="&#x11b;" horiz-adv-x="1021" 
d="M563 1210l215 199q51 -39 96 -90q-61 -72 -247 -289q-90 0 -131 2q-160 190 -246 287q53 53 102 88q156 -146 211 -197zM540 752q-64 0 -100 -56q-39 -66 -37 -161q113 0 232 4q18 0 18 22q0 82 -24 129q-25 62 -89 62zM61 409q1 215 145 365t372 150q180 0 278 -109
q104 -125 105 -319q-1 -20 -49 -68t-62 -51q-55 -6 -447 -6q13 -181 207 -183q135 0 289 58q25 -80 39 -170q-88 -41 -205 -69t-192 -27q-213 0 -347 107t-133 322z" />
    <glyph glyph-name="Gbreve" unicode="&#x11e;" horiz-adv-x="1392" 
d="M778 1452q-123 0 -216 72t-107 176q80 25 133 33q16 -57 74 -93t122 -34q64 0 119 36t68 84q74 -6 135 -24q-16 -100 -110 -175t-218 -75zM838 1155q-123 -1 -203 -73q-162 -147 -162 -437q0 -250 113 -373q100 -117 254 -116q45 0 49 24l-2 279l-160 4q0 70 4 180h600
q0 -66 -4 -180l-84 -4q-10 -4 -10 -8l-6 -398q-125 -74 -398 -73q-334 0 -516 141q-227 182 -227 491q0 377 307 598q201 141 512 142q209 0 307 -49q16 -221 23 -406q-111 -15 -217 -23l-45 218q-4 18 -12 24q-47 39 -123 39z" />
    <glyph glyph-name="gbreve" unicode="&#x11f;" horiz-adv-x="1101" 
d="M571 1040q-115 0 -199 71t-93 175q76 25 133 33q14 -57 60 -92t104 -35t102 36q43 36 55 85q76 -6 133 -25q-12 -100 -96 -174t-199 -74zM342 -258q0 -115 204 -115q96 0 154 39q60 35 60 107q0 41 -29 56t-101 20t-142 11q-71 6 -91 7q-55 -68 -55 -125zM399 578
q0 -211 125 -211q119 0 119 223q0 188 -119 188q-55 0 -90 -53t-35 -147zM971 573q0 -127 -92 -225q-133 -137 -412 -127q-43 -37 -43 -69t37 -40q37 -10 187 -14t218 -17t123 -52t75 -78t21 -127t-71 -170t-210 -132t-348 -50t-332 63t-122 180q0 33 48 67t116 76t74 46v12
q-76 31 -116 70t-40 116q0 16 29 36t172 100v14q-86 39 -153 114t-66 183q0 162 139 268t338 107q127 0 179 -12t66 -13q182 12 306 16q8 -76 4 -184l-166 -2l-4 -8q43 -57 43 -148z" />
    <glyph glyph-name="Gcommaaccent" unicode="&#x122;" horiz-adv-x="1392" 
d="M798 -100q64 0 114 -58t51 -131q0 -111 -70 -219t-191 -170q-68 78 -75 90q135 98 135 203q0 39 -32 66t-73 34q-7 77 35 131t106 54zM838 1155q-123 -1 -203 -73q-162 -147 -162 -437q0 -250 113 -373q100 -117 254 -116q45 0 49 24l-2 279l-160 4q0 70 4 180h600
q0 -66 -4 -180l-84 -4q-10 -4 -10 -8l-6 -398q-125 -74 -398 -73q-334 0 -516 141q-227 182 -227 491q0 377 307 598q201 141 512 142q209 0 307 -49q16 -221 23 -406q-111 -15 -217 -23l-45 218q-4 18 -12 24q-47 39 -123 39z" />
    <glyph glyph-name="gcommaaccent" unicode="&#x123;" horiz-adv-x="1101" 
d="M574 1053q-64 0 -116 52q-50 52 -50 138t69 184q70 98 191 156q63 -63 75 -82q-135 -92 -135 -186q0 -37 33 -62t74 -32q7 -72 -35 -120t-106 -48zM342 -258q0 -115 204 -115q96 0 154 39q60 35 60 107q0 41 -29 56t-101 20t-142 11q-71 6 -91 7q-55 -68 -55 -125z
M399 578q0 -211 125 -211q119 0 119 223q0 188 -119 188q-55 0 -90 -53t-35 -147zM971 573q0 -127 -92 -225q-133 -137 -412 -127q-43 -37 -43 -69t37 -40q37 -10 187 -14t218 -17t123 -52t75 -78t21 -127t-71 -170t-210 -132t-348 -50t-332 63t-122 180q0 33 48 67t116 76
t74 46v12q-76 31 -116 70t-40 116q0 16 29 36t172 100v14q-86 39 -153 114t-66 183q0 162 139 268t338 107q127 0 179 -12t66 -13q182 12 306 16q8 -76 4 -184l-166 -2l-4 -8q43 -57 43 -148z" />
    <glyph glyph-name="Imacron" unicode="&#x12a;" horiz-adv-x="780" 
d="M672 1503l-553 2q-6 59 -2 144q174 0 555 4q4 -76 0 -150zM215 190v961l-125 6v174l309 -2l303 2q0 -119 -2 -174l-127 -6q-4 0 -4 -10l-6 -959l137 -6q0 -119 -2 -176l-309 2l-301 -2q0 119 2 176l119 6q6 0 6 8z" />
    <glyph glyph-name="imacron" unicode="&#x12b;" horiz-adv-x="653" 
d="M573 1075l-487 2q-6 59 -2 144q331 4 489 4q4 -76 0 -150zM174 182v506l-131 4q0 66 4 176q101 9 277 32t182 24q4 0 4 -6q-6 -670 -6 -742l112 -6v-168h-282l-279 -2q0 115 2 168l109 6q8 0 8 8z" />
    <glyph glyph-name="Iogonek" unicode="&#x12e;" horiz-adv-x="780" 
d="M387 -206q0 -60 28 -99t75 -39t110 18q14 -45 27 -106q-74 -41 -178 -41t-179 52q-73 53 -73 137t56 158t165 128l-330 -2l2 176l119 6q6 0 6 8v961l-125 6v174l309 -2l303 2q0 -119 -2 -174l-127 -6q-4 0 -4 -10l-6 -959l137 -6q0 -119 -2 -176q-150 0 -200 -17t-81 -73
q-30 -56 -30 -116z" />
    <glyph glyph-name="iogonek" unicode="&#x12f;" horiz-adv-x="653" 
d="M141 -254q1 63 53 133t150 121h-289q0 115 2 166l109 6q8 0 8 10v504l-131 6q0 66 4 176q52 2 253 29q200 26 206 27q4 0 4 -6q-6 -670 -6 -744l112 -6v-168q-113 10 -182 -24t-89 -76q-19 -42 -19 -102t34 -91t71 -31q38 0 91 17q16 -51 27 -103q-72 -39 -166 -39
q-94 -1 -168 51t-74 144zM323 1393q83 1 131 -49t48 -124t-56 -126t-130 -52q-75 0 -129 52t-54 125q-1 72 53 123t137 51z" />
    <glyph glyph-name="Idotaccent" unicode="&#x130;" horiz-adv-x="780" 
d="M254 1591q0 55 40 95t102 40q64 0 103 -38q38 -38 38 -96t-40 -97q-39 -39 -99 -39t-102 40t-42 95zM215 190v961l-125 6v174l309 -2l303 2q0 -119 -2 -174l-127 -6q-4 0 -4 -10l-6 -959l137 -6q0 -119 -2 -176l-309 2l-301 -2q0 119 2 176l119 6q6 0 6 8z" />
    <glyph glyph-name="dotlessi" unicode="&#x131;" horiz-adv-x="653" 
d="M174 182v506l-131 4q0 66 4 176q101 9 277 32t182 24q4 0 4 -6q-6 -670 -6 -742l112 -6v-168h-282l-279 -2q0 115 2 168l109 6q8 0 8 8z" />
    <glyph glyph-name="Kcommaaccent" unicode="&#x136;" horiz-adv-x="1386" 
d="M696 -61q64 1 115 -57t51 -150t-70 -200t-190 -171q-41 45 -78 90q137 96 138 203q0 40 -33 66t-74 34q-6 78 35 132q42 54 106 53zM639 590q-57 0 -76 -2l-2 -406l115 -6q0 -119 -2 -176l-285 2l-289 -2q0 119 2 176l105 6q6 0 6 6l2 963l-113 6q0 63 4 174l293 -2
l279 2q0 -119 -4 -176l-103 -4q-4 0 -4 -10l-2 -387q12 0 94 10q104 109 297 373q10 12 -8 12l-96 4q0 119 2 176h303l201 2q0 -119 -2 -176l-78 -4q-197 -219 -365 -395v-15q103 -72 191 -261t113 -232q29 -59 71 -62l103 -10q0 -66 -5 -172q-172 -6 -434 -6
q-63 96 -157 344t-156 248z" />
    <glyph glyph-name="kcommaaccent" unicode="&#x137;" horiz-adv-x="1169" 
d="M588 -106q64 0 114 -52t52 -121q0 -104 -70 -202t-190 -158q-74 78 -76 82q135 92 135 188q0 37 -33 62t-74 33q-6 72 36 120t106 48zM1122 903q0 -117 -2 -170l-76 -6q-184 -154 -225 -186v-13q93 -62 143 -180t68 -153q12 -18 31 -19l104 -4q0 -117 -4 -170
q-350 0 -407 -4q-23 44 -83 226t-106 182q-51 0 -80 -3l-2 -229l74 -6q0 -113 -2 -166h-250l-264 -2q0 61 4 168l100 6q6 0 7 8l2 1018l-131 4l2 170q459 58 463 58t4 -9q0 -219 -5 -858q56 0 107 6q84 76 143 146q6 8 -4 8l-76 4q0 117 2 170l287 2q55 2 176 2z" />
    <glyph glyph-name="Lacute" unicode="&#x139;" horiz-adv-x="1138" 
d="M702 1632q-61 -31 -403 -202q-49 72 -78 118q82 59 367 262q53 -66 114 -178zM215 186v965l-113 4q0 119 2 172h291l307 2q0 -63 -4 -174l-129 -6q-6 0 -6 -8l-4 -922q0 -31 13 -38t94 -7t149 14q25 6 37 39l70 211q106 -18 204 -41q-43 -215 -86 -401q-201 4 -659 4
l-283 -2q0 119 2 174l105 4q10 0 10 10z" />
    <glyph glyph-name="lacute" unicode="&#x13a;" horiz-adv-x="632" 
d="M436 1851q49 -66 115 -176q-303 -154 -404 -202q-29 39 -75 116q137 100 364 262zM489 1423q0 -397 -8 -1249l119 -4l-2 -168h-285l-280 -2l2 168l110 6q6 0 7 10v1014l-140 8q0 63 4 170q45 4 161 18t207 26q91 11 99 12q6 0 6 -9z" />
    <glyph glyph-name="Lcommaaccent" unicode="&#x13b;" horiz-adv-x="1138" 
d="M614 -109q64 0 115 -57q51 -58 51 -150t-70 -200t-190 -170q-68 78 -76 90q135 98 136 203q0 39 -33 65t-74 35q-6 78 35 131q42 53 106 53zM98 0q0 117 2 172l105 4q10 0 10 10v965l-113 4q0 119 2 172h291l307 2q0 -63 -4 -174l-129 -6q-6 0 -6 -8l-4 -922
q0 -31 13 -38t85 -7t158 12q25 6 37 41l70 209q68 -10 204 -41q-41 -207 -86 -397l-659 2h-283z" />
    <glyph glyph-name="lcommaaccent" unicode="&#x13c;" horiz-adv-x="632" 
d="M328 -106q64 0 114 -52t52 -121q0 -104 -70 -202t-191 -158q-12 14 -37 41q-26 27 -38 41q135 92 135 188q0 37 -32 61t-73 34q-6 72 36 120q40 48 104 48zM489 1423q0 -397 -8 -1249l119 -4l-2 -168h-285l-280 -2l2 168l110 6q6 0 7 10v1014l-140 8q0 63 4 170
q45 4 161 18t207 26q91 11 99 12q6 0 6 -9z" />
    <glyph glyph-name="Lcaron" unicode="&#x13d;" horiz-adv-x="1138" 
d="M950 1323q58 0 106 -52t48 -137q0 -84 -65 -184t-177 -159q-66 76 -69 81q125 90 125 187q0 35 -36 63t-61 31q-6 72 32 121t97 49zM215 186v965l-113 4q0 119 2 172h291l307 2q0 -63 -4 -174l-129 -6q-6 0 -6 -8l-4 -922q0 -31 13 -38t94 -7t149 14q25 6 37 39l70 211
q106 -18 204 -41q-43 -215 -86 -401q-201 4 -659 4l-283 -2q0 119 2 174l105 4q10 0 10 10z" />
    <glyph glyph-name="lcaron" unicode="&#x13e;" horiz-adv-x="876" 
d="M742 1432q64 0 114 -52q51 -52 51 -138q0 -84 -69 -183q-70 -98 -191 -158q-74 80 -76 82q135 92 136 186q0 37 -33 62t-74 33q-6 72 36 120t106 48zM489 1423q0 -389 -8 -1249l119 -4l-2 -168h-285l-280 -2l2 168l110 6q6 0 7 10v1016l-140 6q0 63 4 170q45 4 161 18
t207 26q91 11 99 12q6 0 6 -9z" />
    <glyph glyph-name="Lslash" unicode="&#x141;" horiz-adv-x="1179" 
d="M703 174q77 0 151 12q27 6 39 41l72 211q106 -18 204 -41q-43 -215 -86 -401q-205 4 -659 4l-283 -2q0 119 2 174l105 4q8 0 8 8l2 330q-70 -33 -131 -53q-33 72 -61 153l192 88v449l-113 4q0 119 2 172h291l305 2q0 -119 -2 -174l-129 -6q-6 0 -6 -8l-2 -283
q156 70 234 107q43 -98 63 -181q-59 -25 -299 -125l-2 -440q0 -31 13 -38t90 -7z" />
    <glyph glyph-name="lslash" unicode="&#x142;" horiz-adv-x="749" 
d="M207 184v330q-16 -8 -133 -63q-29 57 -66 159q166 84 199 101v487l-139 8q0 63 4 170q45 4 222 26t245 30q6 0 6 -9q0 -344 -2 -544q55 27 153 75q29 -61 66 -178q-105 -48 -221 -106l-2 -496l116 -4q0 -115 -2 -168h-284l-281 -2l2 168l109 6q8 0 8 10z" />
    <glyph glyph-name="Nacute" unicode="&#x143;" horiz-adv-x="1464" 
d="M862 1780q49 -66 115 -176l-406 -203q-35 49 -75 119q233 168 366 260zM1063 440q0 399 -6 711l-148 4q0 121 2 174h267l219 2q0 -117 -4 -174l-90 -6q-6 0 -7 -10l-10 -1121q-78 -39 -248 -38q-297 356 -602 809h-14q0 -405 -4 -609l151 -6q0 -61 -4 -176l-293 2
l-192 -2q0 119 2 176l100 4q8 2 8 8l-2 963l-118 4q0 119 2 174h393q180 -258 588 -889h10z" />
    <glyph glyph-name="nacute" unicode="&#x144;" horiz-adv-x="1247" 
d="M471 1112l322 309q66 -63 137 -155q-175 -125 -367 -260q-51 55 -92 106zM840 924q66 0 126 -45q140 -108 140 -275q0 -166 -8 -428l102 -6q0 -115 -2 -168h-264l-256 -2l2 168l82 6q8 0 8 8v277q0 145 -20 183t-84 38t-154 -72q-6 -362 -6 -432l88 -6q0 -115 -2 -168
h-256l-270 -2l2 168l100 6q8 0 8 8v508l-129 4l2 168q55 2 234 31q178 29 182 29t6 -16t27 -118l10 -2q146 90 206 114t126 24z" />
    <glyph glyph-name="Ncommaaccent" unicode="&#x145;" horiz-adv-x="1464" 
d="M713 -344q0 38 -33 66t-72 36q-8 76 34 130t106 53t114 -57q51 -56 51 -150q1 -94 -69 -199q-70 -106 -191 -170l-75 88q135 100 135 203zM1063 440q0 399 -6 711l-148 4q0 121 2 174h267l219 2q0 -117 -4 -174l-90 -6q-6 0 -7 -10l-10 -1121q-78 -39 -248 -38
q-297 356 -602 809h-14q0 -405 -4 -609l151 -6q0 -61 -4 -176l-293 2l-192 -2q0 119 2 176l100 4q8 2 8 8l-2 963l-118 4q0 119 2 174h393q180 -258 588 -889h10z" />
    <glyph glyph-name="ncommaaccent" unicode="&#x146;" horiz-adv-x="1247" 
d="M628 -106q64 0 114 -52t51 -121q0 -104 -70 -202t-191 -158q-74 78 -75 82q135 92 135 188q0 37 -33 62t-74 33q-5 72 37 120t106 48zM840 924q66 0 126 -45q140 -108 140 -275q0 -166 -8 -428l102 -6q0 -115 -2 -168h-264l-256 -2l2 168l82 6q8 0 8 8v277q0 145 -20 183
t-84 38t-154 -72q-6 -362 -6 -432l88 -6q0 -115 -2 -168h-256l-270 -2l2 168l100 6q8 0 8 8v508l-129 4l2 168q55 2 234 31q178 29 182 29t6 -16t27 -118l10 -2q146 90 206 114t126 24z" />
    <glyph glyph-name="Ncaron" unicode="&#x147;" horiz-adv-x="1464" 
d="M1042 1688q-229 -175 -294 -232h-91q-90 74 -290 236q31 45 79 102q249 -148 259 -154q207 127 253 154q45 -45 84 -106zM1063 440q0 399 -6 711l-148 4q0 121 2 174h267l219 2q0 -117 -4 -174l-90 -6q-6 0 -7 -10l-10 -1121q-78 -39 -248 -38q-297 356 -602 809h-14
q0 -405 -4 -609l151 -6q0 -61 -4 -176l-293 2l-192 -2q0 119 2 176l100 4q8 2 8 8l-2 963l-118 4q0 119 2 174h393q180 -258 588 -889h10z" />
    <glyph glyph-name="ncaron" unicode="&#x148;" horiz-adv-x="1247" 
d="M938 1319q-112 -128 -250 -289q-88 0 -129 2q-242 279 -248 287q45 45 103 88q156 -146 211 -197l217 199q51 -39 96 -90zM840 924q66 0 126 -45q140 -108 140 -275q0 -166 -8 -428l102 -6q0 -115 -2 -168h-264l-256 -2l2 168l82 6q8 0 8 8v277q0 145 -20 183t-84 38
t-154 -72q-6 -362 -6 -432l88 -6q0 -115 -2 -168h-256l-270 -2l2 168l100 6q8 0 8 8v508l-129 4l2 168q55 2 234 31q178 29 182 29t6 -16t27 -118l10 -2q146 90 206 114t126 24z" />
    <glyph glyph-name="Omacron" unicode="&#x14c;" horiz-adv-x="1505" 
d="M1026 1503l-553 2q-6 59 -2 144q174 0 555 4q4 -76 0 -150zM763 154q110 0 175 82q96 131 96 396t-84 427q-57 119 -177 119t-193 -86q-104 -133 -104 -428t102 -418q75 -92 185 -92zM717 -20q-133 0 -250 45t-195 122q-184 190 -184 506q0 195 85 352t218 236
q175 111 393 111t373 -101q119 -73 190 -223t71 -318t-55 -314q-54 -146 -157 -240q-188 -176 -489 -176z" />
    <glyph glyph-name="omacron" unicode="&#x14d;" horiz-adv-x="1118" 
d="M825 1075l-487 2q-6 59 -2 144q331 4 489 4q4 -76 0 -150zM563 139q137 0 137 294q0 182 -36 265q-32 64 -94 64q-150 1 -150 -311t143 -312zM1057 469q-1 -131 -63 -241t-170 -179t-302 -69t-309 98q-152 129 -152 348q0 254 197 399q132 99 312 99q318 1 436 -226
q51 -98 51 -229z" />
    <glyph glyph-name="Ohungarumlaut" unicode="&#x150;" horiz-adv-x="1505" 
d="M1184 1704q-189 -136 -340 -242q-72 84 -82 97q215 188 315 274q45 -41 107 -129zM500 1475l-84 96q26 22 325 272q45 -41 103 -131q-211 -147 -344 -237zM763 154q110 0 175 82q96 131 96 396t-84 427q-57 119 -177 119t-193 -86q-104 -133 -104 -428t102 -418
q75 -92 185 -92zM717 -20q-133 0 -250 45t-195 122q-184 190 -184 506q0 195 85 352t218 236q175 111 393 111t373 -101q119 -73 190 -223t71 -318t-55 -314q-54 -146 -157 -240q-188 -176 -489 -176z" />
    <glyph glyph-name="ohungarumlaut" unicode="&#x151;" horiz-adv-x="1118" 
d="M627 1112l276 281q51 -43 115 -123q-160 -133 -303 -248q-76 76 -88 90zM682 1280q-181 -148 -307 -246q-31 29 -92 90q180 173 286 279q41 -33 113 -123zM563 139q137 0 137 294q0 182 -36 265q-32 64 -94 64q-150 1 -150 -311t143 -312zM1057 469q-1 -131 -63 -241
t-170 -179t-302 -69t-309 98q-152 129 -152 348q0 254 197 399q132 99 312 99q318 1 436 -226q51 -98 51 -229z" />
    <glyph glyph-name="OE" unicode="&#x152;" horiz-adv-x="1968" 
d="M475 676q0 -162 22 -259t85 -180t182 -83q76 0 138 44t93 128v698q-27 74 -90 114t-135 40q-119 0 -190 -86q-105 -133 -105 -416zM88 649q0 178 71 337t199 257q150 109 350 109t298 -107v84h825q16 -233 20 -362q-193 -20 -198 -21l-35 156q-6 31 -41 35
q-86 12 -215 12h-19l-2 -387q119 0 177 4q25 0 30 39l13 76q70 2 190 -2l-4 -414q-178 -6 -191 -6l-10 84q-6 41 -33 41q-115 4 -174 4v-363q1 -29 19 -37t108 -8t130 10q39 10 51 43l59 160q78 -12 201 -37q-25 -133 -76 -358l-666 2l-161 -2v108q-117 -126 -340 -126
t-371 135q-205 190 -205 534z" />
    <glyph glyph-name="oe" unicode="&#x153;" horiz-adv-x="1648" 
d="M1165 752q-57 0 -94 -58t-37 -159q117 0 219 4q23 0 23 24q0 76 -25 125q-29 64 -86 64zM571 762q-151 0 -151 -312t142 -311q58 0 95 47q43 66 43 250t-36 262q-27 63 -93 64zM523 -20q-200 0 -312 96q-150 131 -150 352q0 119 51 222q50 103 134 171q131 102 321 103
q96 0 176 -46t119 -116h15q117 162 333 162q180 0 278 -118t99 -312q-2 -23 -48 -68t-64 -47q-129 -10 -441 -6q13 -183 209 -185q129 0 283 58q25 -80 39 -170q-86 -41 -203 -69t-195 -27q-219 0 -313 143h-14q-117 -143 -317 -143z" />
    <glyph glyph-name="Racute" unicode="&#x154;" horiz-adv-x="1302" 
d="M928 1636l-404 -202q-29 41 -75 116q137 100 364 262q49 -66 115 -176zM602 678q102 0 162 63q59 63 59 170t-59 182t-141 74q-48 0 -66 -6l-4 -481q8 -2 49 -2zM577 1333q185 -1 310 -29t207 -126t82 -213t-71 -207t-185 -140v-10q71 -31 131 -144t75 -150
q15 -36 19 -44t6 -14q31 -70 61 -72l99 -12v-170h-152l-256 -4q-45 80 -192 424q-37 88 -109 88q-37 0 -49 -4l-2 -330l111 -6l-3 -168h-292l-258 -2v170l102 6q4 0 4 8l2 967l-111 4q2 59 3 174q283 4 468 4z" />
    <glyph glyph-name="racute" unicode="&#x155;" horiz-adv-x="933" 
d="M352 1147l322 307q61 -59 137 -154l-365 -260q-45 47 -94 107zM174 180v516l-121 4q0 66 4 168q39 4 139 18t183 26q82 12 86 12t10 -89l12 -178l15 -2q92 175 144 223t128 48t152 -29q0 -68 -34 -168t-63 -127q-6 0 -43 9q-103 26 -150 -11q-48 -36 -90 -116t-42 -197
q-2 -35 -2 -113l170 -6q0 -59 -4 -166h-312l-288 -2q0 115 2 166l96 6q8 0 8 8z" />
    <glyph glyph-name="Rcommaaccent" unicode="&#x156;" horiz-adv-x="1302" 
d="M649 -344q0 38 -33 66t-71 36q-6 78 35 130q40 52 104 53q64 -1 115 -57t51 -150t-70 -199q-70 -106 -190 -170l-76 88q135 100 135 203zM602 678q102 0 162 63q59 63 59 170t-59 182t-141 74q-48 0 -66 -6l-4 -481q8 -2 49 -2zM577 1333q185 -1 310 -29t207 -126
t82 -213t-71 -207t-185 -140v-10q71 -31 131 -144t75 -150q15 -36 19 -44t6 -14q31 -70 61 -72l99 -12v-170h-152l-256 -4q-45 80 -192 424q-37 88 -109 88q-37 0 -49 -4l-2 -330l111 -6l-3 -168h-292l-258 -2v170l102 6q4 0 4 8l2 967l-111 4q2 59 3 174q283 4 468 4z" />
    <glyph glyph-name="rcommaaccent" unicode="&#x157;" horiz-adv-x="933" 
d="M418 -106q64 0 114 -52t52 -121q0 -104 -70 -202t-190 -158q-12 14 -38 41t-38 41q135 92 135 188q0 37 -32 61t-72 34q-6 72 35 120q40 48 104 48zM174 180v516l-121 4q0 66 4 168q39 4 139 18t183 26q82 12 86 12t10 -89l12 -178l15 -2q92 175 144 223t128 48t152 -29
q0 -68 -34 -168t-63 -127q-6 0 -43 9q-103 26 -150 -11q-48 -36 -90 -116t-42 -197q-2 -35 -2 -113l170 -6q0 -59 -4 -166h-312l-288 -2q0 115 2 166l96 6q8 0 8 8z" />
    <glyph glyph-name="Rcaron" unicode="&#x158;" horiz-adv-x="1302" 
d="M961 1690q-15 -12 -293 -234q-63 0 -90 2q-188 156 -291 236q39 55 82 100l256 -154q123 76 252 156q45 -45 84 -106zM602 678q102 0 162 63q59 63 59 170t-59 182t-141 74q-48 0 -66 -6l-4 -481q8 -2 49 -2zM577 1333q185 -1 310 -29t207 -126t82 -213t-71 -207
t-185 -140v-10q71 -31 131 -144t75 -150q15 -36 19 -44t6 -14q31 -70 61 -72l99 -12v-170h-152l-256 -4q-45 80 -192 424q-37 88 -109 88q-37 0 -49 -4l-2 -330l111 -6l-3 -168h-292l-258 -2v170l102 6q4 0 4 8l2 967l-111 4q2 59 3 174q283 4 468 4z" />
    <glyph glyph-name="rcaron" unicode="&#x159;" horiz-adv-x="933" 
d="M817 1319l-250 -289q-90 0 -131 2q-90 106 -246 287q53 53 103 88q64 -62 211 -197l215 199q51 -37 98 -90zM174 180v516l-121 4q0 66 4 168q39 4 139 18t183 26q82 12 86 12t10 -89l12 -178l15 -2q92 175 144 223t128 48t152 -29q0 -68 -34 -168t-63 -127q-6 0 -43 9
q-103 26 -150 -11q-48 -36 -90 -116t-42 -197q-2 -35 -2 -113l170 -6q0 -59 -4 -166h-312l-288 -2q0 115 2 166l96 6q8 0 8 8z" />
    <glyph glyph-name="Sacute" unicode="&#x15a;" horiz-adv-x="1101" 
d="M758 1833q57 -74 112 -176q-121 -61 -403 -203q-45 63 -78 119q242 170 369 260zM492 178q88 0 138 40t50 112t-40 102t-171 80q-367 137 -367 403q0 181 142 309t434 128q190 0 272 -39q20 -201 29 -373q-53 -8 -209 -27l-45 191q-2 10 -8 16q-41 31 -112 31t-121 -40
t-50 -114q0 -73 42 -105t205 -87t247 -147t84 -234q0 -207 -150 -326t-436 -118q-201 0 -313 40q-14 111 -45 381q115 25 215 37l57 -202q6 -16 12 -19q51 -39 140 -39z" />
    <glyph glyph-name="sacute" unicode="&#x15b;" horiz-adv-x="915" 
d="M803 1266l-365 -260q-45 47 -94 106q80 73 324 309q68 -68 135 -155zM518 748q-115 0 -115 -89q0 -33 33 -48t158 -50t187 -92q63 -57 63 -157q1 -191 -180 -281q-108 -51 -288 -51t-288 32q-10 82 -33 281q109 23 181 33l32 -117q4 -14 17 -23q51 -30 109 -30t83 10
q45 22 45 64t-29 60q-30 17 -135 46q-274 80 -274 272q0 86 52 154q123 160 417 162q176 0 246 -29q20 -172 28 -272q-88 -16 -184 -29l-31 108q-4 18 -14 23q-31 23 -80 23z" />
    <glyph glyph-name="Scedilla" unicode="&#x15e;" horiz-adv-x="1101" 
d="M422 -331q0 87 -135 85l-29 72l172 154q-205 0 -317 40q-14 111 -45 381q115 25 215 37l57 -202q6 -16 12 -19q51 -39 140 -39q88 0 138 40t50 112t-40 102t-171 80q-367 137 -367 403q0 181 142 309t434 128q190 0 272 -39q20 -201 29 -373q-53 -8 -209 -27l-45 191
q-2 10 -8 16q-41 31 -112 31t-121 -40t-50 -114q0 -73 42 -105t205 -87t247 -147t84 -234q0 -207 -152 -328q-98 -76 -244 -102l-157 -150q80 -8 122 -48t42 -105q1 -96 -99 -164t-266 -68q-12 55 -16 115q180 8 180 95z" />
    <glyph glyph-name="scedilla" unicode="&#x15f;" horiz-adv-x="915" 
d="M522 230q0 42 -29 60q-30 17 -135 46q-274 80 -274 272q0 86 52 154q123 160 417 162q176 0 246 -29q20 -172 28 -272l-184 -29l-31 108q-4 18 -14 23q-31 23 -82 23q-113 0 -113 -86q0 -34 33 -50t158 -51t187 -92q63 -57 63 -157q1 -196 -180 -281q-45 -18 -91 -29
l-159 -137q61 -10 102 -54t41 -106q0 -95 -89 -157t-257 -62q-8 47 -12 117q172 6 172 98q0 25 -25 53t-100 25l-25 69l156 132h-31q-170 4 -256 32q-14 88 -35 281q109 23 183 33l30 -117q4 -14 17 -23q51 -30 109 -30t83 10q45 22 45 64z" />
    <glyph glyph-name="Scaron" unicode="&#x160;" horiz-adv-x="1101" 
d="M602 1642q207 127 254 154q35 -35 84 -106q-76 -57 -295 -234q-61 0 -90 2q-188 156 -291 236q47 66 82 100q172 -101 256 -152zM492 178q88 0 138 40t50 112t-40 102t-171 80q-367 137 -367 403q0 181 142 309t434 128q190 0 272 -39q20 -201 29 -373q-53 -8 -209 -27
l-45 191q-2 10 -8 16q-41 31 -112 31t-121 -40t-50 -114q0 -73 42 -105t205 -87t247 -147t84 -234q0 -207 -150 -326t-436 -118q-201 0 -313 40q-14 111 -45 381q115 25 215 37l57 -202q6 -16 12 -19q51 -39 140 -39z" />
    <glyph glyph-name="scaron" unicode="&#x161;" horiz-adv-x="915" 
d="M811 1319l-250 -289q-90 0 -131 2q-242 279 -248 287q45 45 103 88q145 -138 213 -197q57 51 215 199q41 -29 98 -90zM518 748q-115 0 -115 -89q0 -33 33 -48t158 -50t187 -92q63 -57 63 -157q1 -191 -180 -281q-108 -51 -288 -51t-288 32q-10 82 -33 281q109 23 181 33
l32 -117q4 -14 17 -23q51 -30 109 -30t83 10q45 22 45 64t-29 60q-30 17 -135 46q-274 80 -274 272q0 86 52 154q123 160 417 162q176 0 246 -29q20 -172 28 -272q-88 -16 -184 -29l-31 108q-4 18 -14 23q-31 23 -80 23z" />
    <glyph glyph-name="Tcommaaccent" unicode="&#x162;" horiz-adv-x="1261" 
d="M620 -61q64 1 115 -57t51 -150t-70 -200t-190 -171q-68 78 -75 90q135 98 135 203q0 40 -32 66t-73 34q-6 78 35 132q40 54 104 53zM457 190v955q-70 0 -142 -10q-31 -4 -39 -39l-38 -199q-159 12 -215 18q16 279 24 416l195 -2h401q328 0 383 2h195q16 -268 18 -413
q-211 -20 -217 -21l-33 197q-6 35 -45 42t-137 7l-4 -961l147 -6q0 -119 -2 -176l-317 2l-322 -2q0 117 2 176l140 6q6 0 6 8z" />
    <glyph glyph-name="tcommaaccent" unicode="&#x163;" horiz-adv-x="868" 
d="M478 -111q64 0 114 -52q51 -52 51 -138t-70 -184t-190 -158q-12 14 -38 41t-38 41q135 92 135 186q0 37 -31 61q-32 24 -73 33q-6 72 35 121t105 49zM500 287q0 -41 28 -67t66 -25q104 0 223 30q12 -68 25 -172q-191 -73 -445 -73q-90 0 -157 61q-45 39 -59 75
q-13 36 -13 87l2 237l2 269h-143q0 88 6 174q99 10 123 10t24 16q8 136 15 170q86 42 193 76q106 35 112 35t6 -8q-6 -69 -6 -287l315 2q0 -111 -8 -192l-307 2v-170q-2 -84 -2 -250z" />
    <glyph glyph-name="Tcaron" unicode="&#x164;" horiz-adv-x="1261" 
d="M651 1640q207 127 254 154q45 -45 84 -106q-76 -57 -295 -234q-61 0 -88 2q-90 74 -291 236q41 61 80 100q172 -101 256 -152zM457 190v955q-70 0 -142 -10q-31 -4 -39 -39l-38 -199q-159 12 -215 18q16 279 24 416l195 -2h401q328 0 383 2h195q16 -268 18 -413
q-211 -20 -217 -21l-33 197q-6 35 -45 42t-137 7l-4 -961l147 -6q0 -119 -2 -176l-317 2l-322 -2q0 117 2 176l140 6q6 0 6 8z" />
    <glyph glyph-name="tcaron" unicode="&#x165;" horiz-adv-x="868" 
d="M740 1507q64 0 114 -52q51 -52 51 -138q1 -86 -69 -184t-191 -158q-42 48 -76 82q135 90 136 188q0 37 -32 61t-73 33q-6 72 35 120t105 48zM500 287q0 -41 28 -67t66 -25q104 0 223 30q12 -68 25 -172q-191 -73 -445 -73q-90 0 -157 61q-45 39 -59 75q-13 36 -13 87
l2 237l2 269h-143q0 88 6 174q99 10 123 10t24 16q8 136 15 170q86 42 193 76q106 35 112 35t6 -8q-6 -69 -6 -287l315 2q0 -111 -8 -192l-307 2v-170q-2 -84 -2 -250z" />
    <glyph glyph-name="Umacron" unicode="&#x16a;" horiz-adv-x="1386" 
d="M1004 1503l-551 2q-6 59 -2 144q176 0 553 4q4 -76 0 -150zM981 561q0 416 -4 584q0 4 -8 8l-144 4q0 119 2 174l273 -2l243 2l-2 -174l-98 -6l-4 -557q-2 -326 -152 -475q-135 -139 -387 -139t-394 130t-142 418v613q0 12 -10 12l-91 6q0 117 3 172l282 -2l318 2
q0 -119 -2 -174l-142 -4l-4 -618q-4 -347 238 -347q94 0 160 75t65 298z" />
    <glyph glyph-name="umacron" unicode="&#x16b;" horiz-adv-x="1165" 
d="M848 1096l-490 2q-4 68 0 143q332 4 490 4q4 -76 0 -149zM1020 903q4 0 4 -8q-6 -651 -6 -681t8 -30l115 4q0 -115 -2 -170q-18 -10 -131 -24t-203 -14q-43 30 -96 102h-9q-121 -68 -173 -85q-51 -17 -131 -17t-174 97q-93 97 -93 191l2 451l-90 4l2 168q315 14 416 14
q6 0 6 -8q-6 -430 -6 -519q-1 -89 25 -130t86 -41t118 43v467l-100 4l2 174q303 8 430 8z" />
    <glyph glyph-name="Uring" unicode="&#x16e;" horiz-adv-x="1386" 
d="M725 1749q-43 0 -74 -33t-31 -79q0 -45 32 -75q30 -30 74 -30t71 30t27 78t-28 79q-28 30 -71 30zM469 1631q-1 91 73 157t184 65q110 0 180 -59q70 -60 71 -152q0 -92 -74 -153q-73 -61 -181 -61t-180 56t-73 147zM981 561q0 416 -4 584q0 4 -8 8l-144 4l2 174l273 -2
l243 2l-2 -174l-98 -6l-4 -557q-2 -326 -152 -475q-135 -139 -387 -139t-394 130t-142 418v613q0 12 -10 12l-91 6q0 117 3 172l282 -2l318 2q0 -119 -4 -174l-140 -4l-4 -618q-4 -347 238 -347q94 0 160 75t65 298z" />
    <glyph glyph-name="uring" unicode="&#x16f;" horiz-adv-x="1165" 
d="M563 1341q-43 1 -71 -27t-27 -74q0 -46 29 -75q30 -29 72 -29t68 30q26 28 25 77q0 98 -96 98zM315 1233q0 89 73 151t178 62t173 -55t68 -147t-72 -151q-72 -61 -175 -61t-174 56t-71 145zM1020 903q4 0 4 -8q-6 -651 -6 -681t8 -30l115 4q0 -115 -2 -170
q-18 -10 -131 -24t-203 -14q-43 30 -96 102h-9q-121 -68 -173 -85q-51 -17 -131 -17t-174 97q-93 97 -93 191l2 451l-90 4l2 168q315 14 416 14q6 0 6 -8q-6 -430 -6 -519q-1 -89 25 -130t86 -41t118 43v467l-100 4l2 174q311 8 430 8z" />
    <glyph glyph-name="Uhungarumlaut" unicode="&#x170;" horiz-adv-x="1386" 
d="M1051 1833q39 -39 106 -129q-115 -82 -340 -242q-39 39 -84 94q138 119 318 277zM387 1569q52 44 326 274q47 -45 104 -131q-153 -107 -344 -237q-33 33 -86 94zM981 561q0 416 -4 584q0 4 -8 8l-144 4l2 174l273 -2l243 2l-2 -174l-98 -6l-4 -557q-2 -326 -152 -475
q-135 -139 -387 -139t-394 130t-142 418v613q0 12 -10 12l-91 6q0 117 3 172l282 -2l318 2q0 -119 -4 -174l-140 -4l-4 -618q-4 -347 238 -347q94 0 160 75t65 298z" />
    <glyph glyph-name="uhungarumlaut" unicode="&#x171;" horiz-adv-x="1165" 
d="M631 1112l276 281q37 -31 115 -123q-195 -164 -303 -248q-51 47 -88 90zM571 1403q47 -37 115 -123q-219 -174 -311 -246q-61 57 -90 90q75 72 286 279zM1020 903q4 0 4 -8q-6 -651 -6 -681t8 -30l115 4q0 -115 -2 -170q-18 -10 -131 -24t-203 -14q-43 30 -96 102h-9
q-121 -68 -173 -85q-51 -17 -131 -17t-174 97q-93 97 -93 191l2 451l-90 4l2 168q315 14 416 14q6 0 6 -8q-6 -430 -6 -519q-1 -89 25 -130t86 -41t118 43v467l-100 4l2 174q311 8 430 8z" />
    <glyph glyph-name="Uogonek" unicode="&#x172;" horiz-adv-x="1386" 
d="M680 -236q0 -61 37 -93q37 -31 70 -31t98 18q20 -74 26 -107q-74 -41 -175 -41t-178 53q-77 52 -77 136q0 181 205 281q-127 4 -213 32t-164 94q-145 127 -145 422v615q0 12 -10 12l-91 4q0 117 3 172l282 -2l318 2q0 -119 -4 -174l-140 -4l-4 -618q-4 -347 238 -347
q94 0 160 75t65 298q0 418 -4 584q0 8 -8 8l-144 4l2 174l273 -2l243 2l-2 -174l-98 -4l-4 -559q-2 -326 -152 -475q-94 -98 -262 -142q-73 -20 -109 -86t-36 -127z" />
    <glyph glyph-name="uogonek" unicode="&#x173;" horiz-adv-x="1165" 
d="M1018 214q0 -30 8 -30l115 4q0 -117 -2 -172q-6 -2 -85 -16t-122 -25q-76 -18 -113 -81q-37 -64 -37 -114t32 -88t73 -38t94 16q16 -51 27 -102q-72 -39 -166 -39q-94 -1 -168 51t-74 131q0 167 207 269h-2q-43 31 -96 102h-9q-121 -68 -173 -85q-51 -17 -131 -17
t-174 97q-93 97 -93 191l2 451l-90 4l2 168q55 2 206 7t210 7q6 0 6 -8q-6 -430 -6 -519q-1 -89 25 -130t86 -41t118 43v467l-100 4l2 174l430 8q4 0 4 -8q-6 -651 -6 -681z" />
    <glyph glyph-name="Ydieresis" unicode="&#x178;" horiz-adv-x="1275" 
d="M925 1706q58 0 94 -38t36 -88t-38 -86t-93 -36t-91 35t-36 88t34 89q36 36 94 36zM504 1706q59 0 93 -36t34 -89t-36 -88t-91 -35t-93 36t-38 86t36 88t95 38zM627 2l-316 -2q0 61 4 176l129 6q8 0 9 11v305q-61 102 -344 643q0 10 -11 10l-82 6q0 119 2 172h258l361 2
q0 -119 -2 -174l-123 -8q92 -225 197 -451h10q121 223 209 441q4 10 -6 10l-111 4q0 119 2 176h291l182 2q0 -119 -2 -176l-90 -6q-250 -430 -393 -649l-2 -318l151 -6q0 -61 -4 -176z" />
    <glyph glyph-name="Zacute" unicode="&#x179;" horiz-adv-x="1239" 
d="M911 1634q-163 -86 -403 -202q-35 49 -76 118q74 53 365 260q63 -84 114 -176zM627 1130q-166 0 -197 -10t-45 -49l-72 -205q-154 30 -215 43q31 182 78 426l217 -4l697 -2q35 -102 63 -233q-338 -455 -698 -889l4 -8q274 0 375 24q47 14 63 62l64 180q94 -16 219 -43
q-51 -236 -99 -424l-335 2h-631q-27 55 -66 164q137 184 705 958l-4 8h-123z" />
    <glyph glyph-name="zacute" unicode="&#x17a;" horiz-adv-x="1024" 
d="M350 1110q124 124 322 309q61 -61 135 -153q-297 -215 -365 -260q-31 31 -92 104zM373 731q-41 0 -54 -31l-61 -161q-90 12 -188 32l67 332h41l184 -2q162 -2 535 -2q37 -113 55 -219q-78 -92 -518 -502l4 -8l219 4q59 4 72 39l68 160q61 -10 180 -41q-31 -137 -82 -332
h-807q-27 72 -51 154q102 111 547 567l-2 10h-209z" />
    <glyph glyph-name="Zdotaccent" unicode="&#x17b;" horiz-adv-x="1239" 
d="M471 1597q-1 55 39 95t104 41q64 0 102 -39t38 -96q0 -56 -40 -96t-100 -40t-101 40q-42 40 -42 95zM627 1130q-164 0 -196 -10t-46 -49l-72 -205q-72 13 -213 43q49 287 78 426l215 -4l697 -2q43 -125 63 -233q-370 -500 -698 -889l4 -8q274 0 375 24q47 14 63 62
l66 180q86 -14 217 -43q-43 -195 -97 -424l-334 2h-634q-37 82 -66 164q248 332 707 958l-4 8h-125z" />
    <glyph glyph-name="zdotaccent" unicode="&#x17c;" horiz-adv-x="1024" 
d="M373 1194q1 55 39 94t102 39t100 -38q37 -38 37 -95t-39 -95t-98 -38t-100 39t-41 94zM371 731q-41 0 -54 -31l-59 -161q-94 12 -188 32q35 182 67 332h40l185 -2q160 -2 535 -2q35 -115 55 -219q-70 -84 -264 -263t-254 -239l2 -8l221 4q57 4 72 39l66 160
q68 -12 182 -41q-57 -236 -84 -332h-807q-27 72 -51 154q59 66 549 567l-4 10h-209z" />
    <glyph glyph-name="Zcaron" unicode="&#x17d;" horiz-adv-x="1239" 
d="M672 1640q160 100 252 154q45 -45 84 -106q-188 -150 -293 -234q-63 0 -90 2q-188 156 -291 236q47 66 82 100q172 -101 256 -152zM627 1130q-166 0 -197 -10t-45 -49l-72 -205q-154 30 -215 43q31 182 78 426l217 -4l697 -2q35 -102 63 -233q-338 -455 -698 -889l4 -8
q274 0 375 24q47 14 63 62l64 180q94 -16 219 -43q-51 -236 -99 -424l-335 2h-631q-27 55 -66 164q137 184 705 958l-4 8h-123z" />
    <glyph glyph-name="zcaron" unicode="&#x17e;" horiz-adv-x="1024" 
d="M307 1407q103 -103 211 -199q187 176 215 201q41 -29 98 -90l-249 -289q-90 0 -131 2q-123 147 -248 287q49 49 104 88zM373 731q-41 0 -54 -31l-61 -161q-90 12 -188 32l67 332h41l184 -2q162 -2 535 -2q37 -113 55 -219q-78 -92 -518 -502l4 -8l219 4q59 4 72 39
l68 160q61 -10 180 -41q-31 -137 -82 -332h-807q-27 72 -51 154q102 111 547 567l-2 10h-209z" />
    <glyph glyph-name="florin" unicode="&#x192;" horiz-adv-x="1153" 
d="M958 1339q113 0 201 -32q0 -39 -38 -124t-70 -112q-141 47 -201 47t-84 -45q-27 -57 -39 -293h342q0 -96 -6 -186h-344q-2 -29 -15 -275t-38 -354q-41 -173 -200 -283t-310 -110q-111 0 -176 27q0 31 36 109t62 104q84 -31 158 -31q123 0 138 200t23 613h-241q0 14 6 180
q180 4 229 4q12 0 12 17q8 164 44 252t124 157q170 135 387 135z" />
    <glyph glyph-name="Scommaaccent" unicode="&#x218;" horiz-adv-x="1101" 
d="M538 -100q64 0 116 -58q50 -58 51 -131q0 -111 -70 -219t-191 -170q-47 49 -75 90q135 98 135 203q0 39 -33 66t-74 34q-7 77 35 131t106 54zM492 178q88 0 138 40t50 112t-40 102t-171 80q-367 137 -367 403q0 181 142 309t434 128q190 0 272 -39q20 -201 29 -373
q-53 -8 -209 -27l-45 191q-2 10 -8 16q-41 31 -112 31t-121 -40t-50 -114q0 -73 42 -105t205 -87t247 -147t84 -234q0 -207 -150 -326t-436 -118q-201 0 -313 40q-14 111 -45 381q115 25 215 37l57 -202q6 -16 12 -19q51 -39 140 -39z" />
    <glyph glyph-name="scommaaccent" unicode="&#x219;" horiz-adv-x="915" 
d="M462 -137q64 0 114 -52t51 -120q0 -105 -70 -203t-190 -156l-31 33q-31 33 -45 49q135 92 135 187q0 37 -32 61t-72 33q-6 72 34 120q42 48 106 48zM518 748q-115 0 -115 -89q0 -33 33 -48t158 -50t187 -92q63 -57 63 -157q1 -191 -180 -281q-110 -51 -288 -51t-288 32
q-10 82 -33 281q109 23 181 33l32 -117q4 -14 17 -23q51 -30 109 -30t83 10q45 22 45 64t-29 60q-30 17 -135 46q-274 80 -274 272q0 86 52 154q123 160 417 162q176 0 246 -29q20 -172 28 -272q-88 -16 -184 -29l-31 108q-4 18 -14 23q-31 23 -80 23z" />
    <glyph glyph-name="uni021A" unicode="&#x21a;" horiz-adv-x="1261" 
d="M620 -61q64 1 115 -57t51 -150t-70 -200t-190 -171q-68 78 -75 90q135 98 135 203q0 40 -32 66t-73 34q-6 78 35 132q40 54 104 53zM457 190v955q-70 0 -142 -10q-31 -4 -39 -39l-38 -199q-159 12 -215 18q16 279 24 416l195 -2h401q328 0 383 2h195q16 -268 18 -413
q-211 -20 -217 -21l-33 197q-6 35 -45 42t-137 7l-4 -961l147 -6q0 -119 -2 -176l-317 2l-322 -2q0 117 2 176l140 6q6 0 6 8z" />
    <glyph glyph-name="uni021B" unicode="&#x21b;" horiz-adv-x="868" 
d="M478 -111q64 0 114 -52q51 -52 51 -138t-70 -184t-190 -158q-12 14 -37 41t-37 41q133 90 133 186q0 37 -31 61q-32 24 -73 33q-6 72 35 121t105 49zM29 709q0 90 6 172q83 8 129 11q18 2 19 26q5 115 14 161q86 42 193 76q106 35 112 35t3 -46t-3 -249q104 2 315 2
q0 -111 -8 -192q-119 0 -307 4v-172q-2 -84 -2 -250q0 -41 28 -67t66 -25q104 0 223 30q12 -68 25 -172q-191 -73 -443 -73h-4q-88 0 -155 61q-45 39 -59 75q-13 36 -13 87l2 237l2 269h-143z" />
    <glyph glyph-name="circumflex" unicode="&#x2c6;" horiz-adv-x="921" 
d="M678 1008l-217 198q-25 -23 -211 -196q-57 43 -103 88q43 49 127 147t121 139q41 2 129 2l250 -290q-49 -53 -96 -88z" />
    <glyph glyph-name="caron" unicode="&#x2c7;" horiz-adv-x="921" 
d="M461 1208l217 201q51 -39 96 -90q-35 -39 -124 -143t-126 -146q-41 -2 -129 2q-242 279 -248 287q45 45 103 88q82 -78 211 -199z" />
    <glyph glyph-name="uni02C9" unicode="&#x2c9;" horiz-adv-x="921" 
d="M707 1075l-488 2q-6 59 -2 144q332 4 490 4q4 -76 0 -150z" />
    <glyph glyph-name="breve" unicode="&#x2d8;" horiz-adv-x="921" 
d="M461 1040q-115 0 -198 71t-95 175q74 25 133 33q14 -57 60 -92q47 -35 105 -35t100 36t55 85q76 -6 135 -25q-12 -100 -96 -174t-199 -74z" />
    <glyph glyph-name="dotaccent" unicode="&#x2d9;" horiz-adv-x="921" 
d="M462 1333q64 0 101 -38t37 -95t-39 -95t-98 -38t-101 39q-40 39 -40 94t38 94t102 39z" />
    <glyph glyph-name="ring" unicode="&#x2da;" horiz-adv-x="921" 
d="M463 1341q-43 1 -71 -27t-28 -74t30 -75q28 -29 72 -29t70 30q26 28 25 77q0 98 -98 98zM215 1233q0 89 74 151t179 62t173 -55t68 -147t-72 -151q-72 -61 -176 -61t-175 56t-71 145z" />
    <glyph glyph-name="ogonek" unicode="&#x2db;" horiz-adv-x="921" 
d="M424 -258q0 80 56 153t165 121h100q-135 -106 -135 -227q0 -49 33 -77t71 -28t91 17q16 -51 26 -102q-71 -39 -165 -39t-168 51t-74 131z" />
    <glyph glyph-name="tilde" unicode="&#x2dc;" horiz-adv-x="921" 
d="M334 1313q43 1 67 -13q91 -52 126 -76t71 -24q59 0 74 103q61 4 114 0q-8 -121 -57 -194t-137 -73q-52 0 -202 100q-27 15 -56 15q-63 0 -80 -104q-43 -4 -117 0q13 119 61 193t136 73z" />
    <glyph glyph-name="hungarumlaut" unicode="&#x2dd;" horiz-adv-x="921" 
d="M467 1112l276 281q51 -43 115 -123q-195 -164 -303 -248q-76 76 -88 90zM408 1403q47 -37 114 -123q-205 -164 -309 -246l-28 28q-15 16 -33 34t-29 28q135 129 285 279z" />
    <glyph glyph-name="pi" unicode="&#x3c0;" horiz-adv-x="1230" 
d="M1055 733v-424q0 -203 22 -309h-323q-33 55 -33 287v446h-193q-2 -184 -30 -404t-70 -329h-322q43 150 72 367t25 366h-88q-37 -2 -82 -10l-33 195q74 68 367 67h835l-33 -252h-114z" />
    <glyph glyph-name="uni2010" unicode="&#x2010;" horiz-adv-x="768" 
d="M82 590q328 0 610 6q0 -111 -8 -193h-315q-158 0 -293 3z" />
    <glyph glyph-name="figuredash" unicode="&#x2012;" horiz-adv-x="1153" 
d="M96 700q357 -4 977 7q0 -78 -8 -193h-453l-530 2q0 98 6 184h8z" />
    <glyph glyph-name="endash" unicode="&#x2013;" horiz-adv-x="1024" 
d="M84 590q300 -4 864 6q0 -78 -8 -193h-393q-262 0 -469 3q0 98 6 184z" />
    <glyph glyph-name="emdash" unicode="&#x2014;" horiz-adv-x="2048" 
d="M84 590q576 -4 1888 6q0 -113 -8 -193h-917q-688 0 -969 3q0 79 6 184z" />
    <glyph glyph-name="quoteleft" unicode="&#x2018;" horiz-adv-x="567" 
d="M308 780q-79 0 -139 71t-60 157q0 135 90 271t223 200q37 -37 90 -111q-158 -115 -158 -235q0 -78 87 -109q17 -6 44 -14q2 -102 -48 -166t-129 -64z" />
    <glyph glyph-name="quoteright" unicode="&#x2019;" horiz-adv-x="567" 
d="M269 1432q81 0 141 -69t59 -155q0 -137 -90 -275t-225 -200q-66 80 -88 113q158 113 157 235q0 88 -127 131q-6 96 43 158t130 62z" />
    <glyph glyph-name="quotesinglbase" unicode="&#x201a;" horiz-adv-x="575" 
d="M282 326q81 0 140 -69t59 -155q0 -137 -90 -274t-225 -199q-68 80 -88 111q158 113 158 235q0 92 -127 131q-6 96 43 158t130 62z" />
    <glyph glyph-name="quotedblleft" unicode="&#x201c;" horiz-adv-x="983" 
d="M739 848q-76 0 -131 63t-55 144q0 129 85 256t210 184q37 -41 82 -106q-147 -106 -148 -215q0 -37 23 -63t41 -34t53 -18q10 -91 -37 -151t-123 -60zM295 848q-76 0 -131 63t-55 144q0 129 85 256t209 184q55 -61 84 -106q-150 -106 -149 -215q0 -37 22 -62t42 -34
q22 -9 55 -19q14 -87 -36 -149t-126 -62z" />
    <glyph glyph-name="quotedblright" unicode="&#x201d;" horiz-adv-x="983" 
d="M700 1432q76 0 130 -64t55 -145q0 -129 -83 -256t-206 -185q-29 33 -86 107q147 109 147 217q0 80 -118 119q-7 91 39 149t122 58zM258 1432q76 0 130 -64t54 -145q0 -129 -83 -256t-209 -185q-55 61 -84 107q147 104 147 217q0 78 -117 121q-8 85 39 145t123 60z" />
    <glyph glyph-name="quotedblbase" unicode="&#x201e;" horiz-adv-x="991" 
d="M713 309q76 0 130 -63t54 -146q0 -127 -83 -254t-206 -186q-57 70 -86 107q147 109 148 217q0 80 -119 118q-6 92 40 150t122 57zM270 309q76 0 130 -63t55 -146q0 -127 -83 -254t-210 -186q-55 61 -84 107q147 104 147 217q0 78 -116 120q-8 86 38 146q47 59 123 59z
" />
    <glyph glyph-name="dagger" unicode="&#x2020;" horiz-adv-x="1165" 
d="M731 1341v-6q-5 -122 -12 -432h346q2 -80 -8 -207l-342 2q-18 -575 -31 -1093q-26 -17 -106 -29t-109 -12l-43 1136h-336q0 111 6 197l312 4q12 0 12 17q-2 68 -12 331q66 33 172 63t151 29z" />
    <glyph glyph-name="daggerdbl" unicode="&#x2021;" horiz-adv-x="1165" 
d="M731 1341q0 -4 2 -6q-8 -176 -16 -430q238 0 356 2q0 -92 -10 -209h-348q-8 -229 -10 -387l358 -2q0 -109 -8 -198h-361q-4 -105 -7 -283t-5 -227q-30 -13 -106 -25t-107 -12l-20 545q-35 0 -355 -5q0 119 8 211l324 -2q12 0 12 17q-8 272 -8 368h-344q4 117 6 201l318 4
q12 0 12 17q-6 102 -14 327q38 29 156 61t167 33z" />
    <glyph glyph-name="bullet" unicode="&#x2022;" horiz-adv-x="862" 
d="M439 825q132 0 206 -88t74 -208q0 -121 -81 -207t-204 -86t-206 78t-83 202q0 125 81 217t213 92z" />
    <glyph glyph-name="onedotenleader" unicode="&#x2024;" horiz-adv-x="649" 
d="M150 148q0 72 50 122t130 49q80 0 126 -48q46 -49 46 -123t-50 -121t-123 -47t-126 48t-53 120z" />
    <glyph glyph-name="twodotenleader" unicode="&#x2025;" horiz-adv-x="1300" 
d="M799 148q0 72 50 122t130 49q80 0 126 -48q46 -49 46 -123t-50 -121t-123 -47t-126 48t-53 120zM150 148q0 72 50 122t130 49q80 0 126 -48q46 -49 46 -123t-50 -121t-123 -47t-126 48t-53 120z" />
    <glyph glyph-name="ellipsis" unicode="&#x2026;" horiz-adv-x="1949" 
d="M1448 148q0 72 50 122t130 49q80 0 126 -48q46 -49 46 -123t-50 -121t-123 -47t-126 48t-53 120zM799 148q0 72 50 122t130 49q80 0 126 -48q46 -49 46 -123t-50 -121t-123 -47t-126 48t-53 120zM150 148q0 72 50 122t130 49q80 0 126 -48q46 -49 46 -123t-50 -121
t-123 -47t-126 48t-53 120z" />
    <glyph glyph-name="perthousand" unicode="&#x2030;" horiz-adv-x="2543" 
d="M2128 598q-35 0 -68 -36q-32 -36 -32 -215t28 -212t63 -33q36 0 56 25q39 45 39 217t-33 221q-18 33 -53 33zM1331 598q-35 0 -69 -36t-33 -215q0 -179 33 -216q22 -29 58 -29t58 25q39 45 39 217t-33 221q-18 33 -53 33zM2462 352q0 -202 -140 -311q-84 -63 -208 -63
t-207 57q-53 39 -92 119t-39 176t39 185q91 208 324 208q134 0 210 -70q113 -99 113 -301zM1667 365q0 -103 -39 -189q-90 -197 -309 -199q-127 0 -209 58q-53 39 -92 119t-39 176t39 185q91 208 325 208q135 0 211 -70q113 -98 113 -288zM435 1210q-103 0 -103 -250
q0 -173 37 -215q25 -31 59 -31t55 27q37 45 37 215t-24 212t-61 42zM772 985q0 -221 -149 -330q-84 -65 -208 -65t-208 63q-127 94 -127 312q0 98 38 179q90 193 335 191q438 -4 831 21q31 -45 66 -111l-844 -1317q-72 35 -141 78q153 234 403 632t350 568l-10 6
q-223 0 -408 5q72 -72 72 -232z" />
    <glyph glyph-name="guilsinglleft" unicode="&#x2039;" horiz-adv-x="614" 
d="M102 516q224 224 342 338q23 -14 99 -86q-113 -184 -195 -317q127 -213 195 -324q-37 -37 -103 -86q-233 238 -334 338q-4 43 -4 137z" />
    <glyph glyph-name="guilsinglright" unicode="&#x203a;" horiz-adv-x="614" 
d="M268 453q-66 113 -192 317q51 51 100 88q223 -223 338 -340q0 -51 -4 -137q-22 -23 -144 -147t-192 -195q-47 37 -100 88q120 197 194 326z" />
    <glyph glyph-name="fraction" unicode="&#x2044;" horiz-adv-x="262" 
d="M-209 -37q-58 29 -137 78q222 354 369 584q68 111 215 359t223 374q92 -41 147 -82q-92 -152 -254 -413t-240 -390t-323 -510z" />
    <glyph glyph-name="zero.superior" unicode="&#x2070;" 
d="M402 1425q-36 0 -56 -36q-31 -57 -31 -233t31 -220q18 -27 51 -27t47 21q39 45 39 224t-28 237q-17 34 -53 34zM727 1160q0 -198 -119 -296q-82 -70 -217 -70t-213 70q-108 94 -108 291t120 307q78 78 222 78t219 -80q96 -102 96 -300z" />
    <glyph glyph-name="four.superior" unicode="&#x2074;" 
d="M233 1110h183l2 256h-15q-25 -35 -65 -86t-111 -156q-8 -14 6 -14zM743 1110q0 -82 -4 -129h-127v-70l86 -4q0 -66 -2 -98h-438v98l152 4q6 0 6 7v55h-318q-37 74 -57 135q25 31 132 172t210 256q6 0 233 -6l-2 -420h129z" />
    <glyph glyph-name="five.superior" unicode="&#x2075;" 
d="M406 1280q136 0 212 -61t76 -156q0 -135 -106 -205q-90 -63 -250 -63t-215 14q-14 100 -29 215q80 18 154 27l28 -113q2 -4 11 -12q20 -10 66 -10t77 24q31 31 31 78q0 113 -176 112q-99 0 -140 -4l-22 23q12 160 45 379h512q0 -57 -8 -156l-346 2q-16 -88 -19 -98
q35 4 99 4z" />
    <glyph glyph-name="six.superior" unicode="&#x2076;" 
d="M485 1022q0 115 -77 117q-43 0 -84 -37q-4 -199 90 -199q41 0 56 28t15 91zM496 1268q98 0 160 -63q63 -63 63 -146q0 -121 -85 -193q-84 -72 -230 -72t-220 66q-102 84 -102 268t117 310q102 102 299 102q84 0 147 -14q16 -121 21 -191q-115 -20 -152 -24l-25 86
q-3 20 -45 20q-99 0 -122 -188h8q68 39 166 39z" />
    <glyph glyph-name="seven.superior" unicode="&#x2077;" 
d="M510 1362q-209 0 -222 -4t-20 -21l-30 -94q-147 25 -152 27q8 70 37 260l131 -2h430q27 -63 45 -148q-205 -303 -235 -436q-12 -47 -13 -137q-109 -8 -235 -8q-2 86 22 149q45 119 242 408v6z" />
    <glyph glyph-name="eight.superior" unicode="&#x2078;" 
d="M403 903q97 0 97 84q0 37 -33 62t-113 53q-55 -38 -55 -94q0 -106 104 -105zM489 1350q0 80 -88 80t-88 -74q0 -28 27 -50t96 -46q53 33 53 90zM721 1022q0 -92 -66 -152q-92 -78 -264 -78t-245 53q-73 52 -72 134q0 57 42 105t113 77v4q-125 63 -125 165t82 156t229 54
t211 -48t64 -120q0 -109 -127 -166v-8q74 -23 116 -70t42 -106z" />
    <glyph glyph-name="nine.superior" unicode="&#x2079;" 
d="M377 1432q-70 0 -70 -123q-1 -59 23 -89t62 -28q38 0 75 31q2 119 -31 178q-18 31 -59 31zM301 1065q-98 0 -158 59q-69 61 -69 164q0 104 87 178t230 74t217 -67q102 -90 102 -279t-122 -305q-102 -96 -287 -96q-106 0 -172 16q-23 133 -33 184q102 25 152 33l31 -84
q7 -25 60 -26q52 -1 77 32q47 52 53 158h-4q-66 -41 -164 -41z" />
    <glyph glyph-name="parenleft.superior" unicode="&#x207d;" horiz-adv-x="608" 
d="M162 1122q0 178 93 318t226 215q33 -27 70 -76q-172 -152 -172 -442q0 -153 43 -261t127 -204q-37 -41 -78 -70q-228 164 -285 346q-24 80 -24 174z" />
    <glyph glyph-name="parenright.superior" unicode="&#x207e;" horiz-adv-x="608" 
d="M453 1147q-1 -179 -91 -317t-225 -228q-49 45 -76 72q175 184 175 462t-168 449q43 43 77 70q308 -199 308 -508z" />
    <glyph glyph-name="n.superior" unicode="&#x207f;" horiz-adv-x="962" 
d="M358 1315q4 0 9 -40t12 -63l8 -2q117 70 161 88t94 18t94 -34q108 -86 108 -221q0 -14 -6 -328l77 -4l-2 -129h-387v127l64 4q6 0 6 6v221q0 113 -16 142q-16 28 -64 28t-127 -55l-2 -340l68 -6q0 -86 -2 -127h-394l2 127l76 4q8 0 8 6l-2 402l-98 4q0 88 2 127
q75 5 191 25t120 20z" />
    <glyph glyph-name="zero.inferior" unicode="&#x2080;" 
d="M402 373q-36 0 -62 -47q-26 -48 -25 -224q0 -176 31 -221q18 -27 51 -27t47 21q39 45 39 225t-28 238q-17 35 -53 35zM727 108q0 -200 -119 -298q-82 -70 -217 -70t-213 70q-108 94 -108 292t120 308q78 78 222 78t219 -80q96 -100 96 -300z" />
    <glyph glyph-name="one.inferior" unicode="&#x2081;" 
d="M133 -246q0 80 2 121l184 2q4 0 5 6v391q-53 -6 -191 -24q-14 102 -18 121q63 15 242 71t196 56q2 0 2 -6l-2 -615l168 -2q0 -82 -2 -121h-586z" />
    <glyph glyph-name="two.inferior" unicode="&#x2082;" 
d="M444 254q0 43 -21 71q-21 27 -63 27t-59 -12q-16 -12 -16 -21l-27 -120q-16 0 -149 12q8 172 10 231q115 45 273 45t229 -65q69 -66 69 -164q0 -150 -225 -299q-31 -23 -80 -45v-10l313 12q2 0 2 -32t-8 -132l-407 2h-172q-14 43 -31 113q113 72 176 123q186 154 186 264
z" />
    <glyph glyph-name="three.inferior" unicode="&#x2083;" 
d="M444 295q0 68 -82 70q-41 0 -67 -19q-6 -2 -6 -10l-23 -105q-102 8 -153 11q4 137 8 207q121 39 279 39t222 -52q64 -51 64 -119q0 -129 -156 -170v-10q82 -12 126 -62t44 -110q0 -105 -92 -165t-252 -60t-239 16q-10 78 -23 219q49 11 158 23l24 -113q7 -22 63 -22
q56 1 84 25t28 61q0 106 -158 106h-72q-4 84 -2 123q135 -2 180 27t45 90z" />
    <glyph glyph-name="four.inferior" unicode="&#x2084;" 
d="M418 313h-15q-25 -35 -59 -79t-66 -88q-30 -44 -51 -74q-8 -14 6 -15h183zM743 57q0 -82 -4 -129h-127v-71l86 -2q0 -68 -2 -101h-438v99l152 4q6 0 6 6v57h-318q-37 74 -57 135q25 31 127 166t215 262q6 0 233 -6l-2 -420h129z" />
    <glyph glyph-name="five.inferior" unicode="&#x2085;" 
d="M406 227q136 0 212 -61t76 -156q0 -137 -106 -207q-90 -63 -252 -63t-213 16q-14 100 -29 215q57 12 154 25l28 -113q7 -22 66 -22q59 -1 89 27t30 75q0 115 -176 115q-99 0 -140 -4l-22 22q12 160 45 379h512q0 -57 -8 -156l-346 3q-16 -88 -19 -99q35 4 99 4z" />
    <glyph glyph-name="six.inferior" unicode="&#x2086;" 
d="M485 -31q0 117 -77 117q-41 0 -84 -37q-2 -109 30 -168q21 -33 61 -33t55 29t15 92zM496 215q98 -1 160 -63q63 -62 63 -146q0 -123 -85 -195q-84 -71 -230 -71t-220 65q-102 83 -102 269t117 311q102 102 299 102q84 0 147 -14q16 -121 21 -190q-115 -20 -152 -25
l-25 86q-3 19 -45 20q-99 2 -122 -188h8q68 39 166 39z" />
    <glyph glyph-name="seven.inferior" unicode="&#x2087;" 
d="M510 309q-209 0 -222 -4t-20 -20l-30 -95q-147 25 -152 27q8 70 37 260l131 -2h430q27 -63 45 -147q-205 -303 -235 -437q-12 -47 -13 -137q-109 -8 -235 -8q-2 86 22 150q45 118 242 407v6z" />
    <glyph glyph-name="eight.inferior" unicode="&#x2088;" 
d="M403 -150q97 0 97 84q0 37 -33 62t-113 53q-55 -37 -55 -93t29 -81t75 -25zM489 297q0 80 -88 80t-88 -74q0 -29 27 -51t96 -45q53 33 53 90zM721 -31q0 -92 -66 -151q-92 -78 -266 -78t-245 52t-70 134q0 58 42 106t113 74v7q-125 63 -125 165t86 156q78 53 225 53
t211 -48t64 -120q0 -108 -127 -165v-9q74 -23 116 -69t42 -107z" />
    <glyph glyph-name="nine.inferior" unicode="&#x2089;" 
d="M307 256q-1 -59 23 -88t62 -29t75 31q4 207 -86 207q-74 0 -74 -121zM301 12q-98 0 -158 60q-69 60 -69 162t87 177t230 75t217 -68q102 -90 102 -278t-122 -304q-102 -96 -287 -96q-106 0 -172 16q-6 32 -17 96t-16 89q102 25 152 32l31 -84q7 -26 61 -26q53 0 76 31
q47 50 53 159h-4q-66 -41 -164 -41z" />
    <glyph glyph-name="parenleft.inferior" unicode="&#x208d;" horiz-adv-x="608" 
d="M162 70q0 178 93 317t226 215q33 -27 70 -76q-172 -152 -172 -442q0 -154 43 -262t127 -203q-37 -41 -78 -70q-229 165 -285 347q-24 80 -24 174z" />
    <glyph glyph-name="parenright.inferior" unicode="&#x208e;" horiz-adv-x="608" 
d="M453 94q-1 -180 -91 -317t-225 -228q-49 45 -76 72q175 183 175 461t-168 450q43 43 77 70q308 -199 308 -508z" />
    <glyph glyph-name="colonmonetary" unicode="&#x20a1;" horiz-adv-x="1163" 
d="M375 651q0 -254 129 -340l51 733q-78 -41 -129 -146t-51 -247zM735 248l60 831q-55 8 -121 0l-62 -817q53 -12 123 -14zM834 61l-19 -223q-33 -4 -110 -8l14 221q-61 -2 -125 4l-16 -217q-31 -4 -113 -8l18 242q-213 51 -317 195t-105 323q-1 242 133 420t373 239l15 228
q78 12 129 12l-19 -219q39 4 115 4l12 201q68 14 129 14l-18 -225q135 -4 235 -66q-2 -53 -37 -123t-71 -100q-80 61 -150 76l-59 -799q135 14 227 43q14 -51 33 -170q-112 -41 -274 -64z" />
    <glyph glyph-name="Euro" unicode="&#x20ac;" horiz-adv-x="1153" 
d="M-2 651v113l117 -2q57 254 260 416q209 161 495 161q140 0 226 -28q18 -205 30 -416q-125 -18 -213 -29l-47 213q-4 16 -12 23q-39 27 -74 26q-90 0 -172 -84q-102 -109 -129 -280l305 -2v-113l-313 2v-12q0 -68 8 -119h305v-106l-276 2q45 -145 187 -192q67 -22 114 -21
q145 0 287 57q25 -90 34 -190q-227 -90 -389 -90q-256 0 -417 120q-156 113 -203 316l-123 -2v106h100l-2 60q0 18 4 71h-102z" />
    <glyph glyph-name="uni2113" unicode="&#x2113;" horiz-adv-x="1134" 
d="M535 961v-244q164 182 163 350q0 137 -73 137q-90 1 -90 -243zM223 915q-1 248 105 373t270 125t252 -92t88 -254t-96 -307t-307 -324v-28q1 -78 41 -121t110 -43q115 0 240 147l145 -143q-164 -272 -465 -272t-373 270q0 8 -10 18q-33 -23 -90 -55l-82 166
q59 37 172 117v423z" />
    <glyph glyph-name="trademark" unicode="&#x2122;" horiz-adv-x="1361" 
d="M1284 809h-227v90l37 2v229h-11q-53 -174 -96 -292h-92q-57 168 -94 297h-13v-234l39 -2v-90h-209v90l56 2q4 100 4 332l-57 2q0 66 2 96l249 -2q6 -27 36 -135t42 -156h11q57 197 86 291l235 2v-96l-57 -2q2 -100 2 -332l57 -2v-90zM461 901v-92h-279v92l60 2v334
q-45 0 -62 -8l-14 -99l-103 9q4 74 9 192l258 -2l243 2q8 -119 11 -192q-51 0 -105 -9l-16 101q-16 6 -57 6l-3 -336h58z" />
    <glyph glyph-name="Omega" unicode="&#x2126;" horiz-adv-x="1499" 
d="M1432 252v-252h-611v193q242 188 242 501q0 170 -84 284t-223 114q-138 0 -228 -113t-90 -277t70 -305t172 -204v-193h-614v252h256v12q-96 76 -164 197t-68 276q0 259 188 439t485 180q298 0 472 -178t174 -418q0 -293 -238 -496v-12h261z" />
    <glyph glyph-name="estimated" unicode="&#x212e;" horiz-adv-x="1705" 
d="M1337 690v377q0 25 -20 45q-195 195 -466 195t-464 -199q-18 -18 -18 -49v-369q0 -10 10 -10h948q10 0 10 10zM1618 641h-1239q-10 0 -10 -10l2 -371q0 -29 16 -45q190 -203 481 -203t488 228h110q-106 -125 -265 -197t-343 -72q-319 0 -545 201q-225 202 -225 486
t224 487t540 203t542 -203q224 -203 224 -488v-16z" />
    <glyph glyph-name="onethird" unicode="&#x2153;" horiz-adv-x="1824" 
d="M1454 541q0 69 -82 69q-41 0 -67 -18q-6 -2 -7 -10l-22 -105q-102 8 -154 10q4 137 8 207q121 39 279 39q159 0 223 -51t64 -119q0 -129 -154 -170v-10q82 -12 126 -62t44 -110q0 -107 -90 -167t-289 -60q-129 0 -207 16q-12 80 -22 221q49 11 158 23l24 -115
q7 -22 62 -22q55 -1 85 24t29 64q0 106 -159 106h-72q-4 84 -2 123q135 -2 180 27t45 90zM1395 1276q-494 -804 -817 -1313q-63 32 -138 78q283 436 507 813t300 504q92 -41 148 -82zM115 600q0 80 2 121l184 2q4 0 4 6v391q-41 -2 -102 -12l-88 -14q-8 66 -19 123
q63 16 243 72t189 55t9 -7l-2 -614l167 -2q0 -82 -2 -121h-585z" />
    <glyph glyph-name="twothirds" unicode="&#x2154;" horiz-adv-x="1824" 
d="M1479 195q0 106 -158 106h-72q-4 84 -2 123q133 -2 178 27t45 90q0 69 -79 69q-45 0 -68 -18q-6 -2 -6 -10l-23 -105q-102 8 -153 10q4 137 8 207q121 39 277 39t222 -51q64 -51 64 -119q0 -129 -153 -170v-10q81 -12 125 -62t45 -110q-1 -107 -91 -167t-252 -60t-241 16
q-12 80 -23 221q49 11 158 23l25 -115q7 -21 63 -22q55 -1 83 24t28 64zM594 -37q-58 29 -137 78q109 168 368 584q236 391 441 733q84 -39 147 -82q-375 -614 -569 -918q-193 -303 -250 -395zM444 1100q0 43 -21 71q-21 27 -63 27t-69 -20q-6 -2 -6 -13l-27 -121
q-16 0 -149 13q8 172 10 231q115 45 273 45t229 -65q69 -66 69 -164q0 -150 -225 -299q-31 -23 -80 -45v-10l313 12q2 0 2 -32t-8 -132l-407 2h-172q-14 43 -31 113q113 72 176 123q186 154 186 264z" />
    <glyph glyph-name="oneeighth" unicode="&#x215b;" horiz-adv-x="1824" 
d="M1411 94q96 0 96 84q0 37 -32 62q-33 25 -113 53q-55 -37 -55 -93q0 -106 104 -106zM1497 541q0 80 -88 80t-88 -74q0 -29 27 -51t96 -45q53 33 53 90zM1729 213q0 -92 -66 -152q-92 -77 -266 -77t-246 53q-70 47 -70 133q0 57 42 105t114 75v6q-125 62 -125 162t86 160
q84 53 228 53t207 -48q64 -48 65 -120q0 -109 -127 -166v-8q74 -23 116 -70t42 -106zM1403 1276q-494 -804 -817 -1313q-70 35 -137 78q380 601 555 896q175 294 251 421q92 -41 148 -82zM123 600q0 80 2 121l184 2q4 0 4 6v391q-41 -2 -102 -12l-88 -14q-8 66 -19 123
q63 16 243 72t189 55t9 -7l-2 -614l168 -2q0 -82 -2 -121h-586z" />
    <glyph glyph-name="threeeighths" unicode="&#x215c;" horiz-adv-x="1824" 
d="M1393 94q96 0 96 84q0 37 -33 62t-113 53q-57 -37 -57 -107q0 -43 31 -67q25 -25 76 -25zM1391 621q-88 0 -88 -74q1 -29 27 -51t95 -45q53 33 54 90q0 80 -88 80zM1710 198q0 -77 -65 -137q-91 -77 -267 -77t-248 53q-70 47 -69 133q0 57 43 105t115 75v6
q-125 62 -125 162t86 160q84 53 228 53t207 -48q64 -48 64 -120q0 -109 -127 -166v-6q158 -49 158 -193zM567 -37q-72 36 -135 78q23 35 367 584q68 111 215 359t223 374q92 -41 147 -82q-254 -412 -446 -729q-37 -58 -371 -584zM438 1333q156 0 220 -51t65 -119
q0 -127 -154 -168v-10q82 -12 126 -62t44 -110q0 -107 -92 -167t-253 -60t-238 16q-12 80 -23 221q107 17 158 23l24 -115q7 -22 63 -22q56 1 84 25t27 63q0 106 -157 106h-72q-4 84 -2 123q133 -2 178 27t45 88q0 69 -80 69q-45 0 -59 -11t-14 -17l-23 -103l-153 11
q4 133 8 204q122 39 278 39z" />
    <glyph glyph-name="fiveeighths" unicode="&#x215d;" horiz-adv-x="1824" 
d="M1384 94q97 0 97 84q0 37 -33 62t-113 53q-57 -37 -57 -107q0 -43 31 -67q25 -25 75 -25zM1468 541q0 80 -88 80t-88 -74q0 -29 27 -51t96 -45q53 33 53 90zM1083 518q0 100 86 160q84 53 228 53t208 -48t64 -120q0 -109 -127 -166v-8q74 -23 116 -70t44 -106
q0 -92 -66 -152q-92 -77 -267 -77t-247 53q-70 47 -69 133q0 57 42 105t113 75v6q-125 62 -125 162zM559 -37q-58 29 -137 78q281 440 527 848q245 409 280 469q92 -41 147 -82q-511 -832 -817 -1313zM453 1073q135 0 212 -61t76 -156q0 -137 -106 -207q-90 -63 -252 -63
t-213 16q-14 100 -29 215q57 12 154 25l29 -113q7 -22 66 -22q58 -1 88 27t30 75q0 115 -176 115q-98 0 -139 -4l-23 22q12 160 45 379h512q0 -57 -8 -156l-346 2q-16 -88 -19 -98q35 4 99 4z" />
    <glyph glyph-name="seveneighths" unicode="&#x215e;" horiz-adv-x="1824" 
d="M1303 94q96 0 96 84q0 37 -33 62t-113 53q-57 -37 -57 -107q0 -43 31 -67q25 -25 76 -25zM1300 621q-88 0 -88 -74q0 -29 27 -49t96 -47q53 37 54 90q-1 80 -89 80zM1620 213q0 -92 -66 -152q-92 -77 -267 -77t-247 53q-70 47 -69 133q0 57 43 105t114 77v6
q-124 60 -124 160t86 160q84 53 228 53t207 -48q64 -48 64 -120q0 -105 -127 -166v-6q158 -53 158 -178zM342 41q400 626 805 1317q82 -37 149 -82q-375 -613 -819 -1313q-72 36 -135 78zM174 1323l131 -2h430q27 -63 45 -147q-205 -307 -235 -439q-12 -45 -13 -135
q-109 -8 -235 -8q-2 88 22 147q45 119 242 412v4q-201 2 -217 -2t-25 -23l-30 -94q-147 25 -152 27q8 63 37 260z" />
    <glyph glyph-name="partialdiff" unicode="&#x2202;" horiz-adv-x="1200" 
d="M564 674q-79 0 -131 -71t-52 -167t44 -146t112 -50h2q82 0 141 90t72 205q-12 53 -60 96t-128 43zM43 440q0 211 126 348t329 138q90 0 169 -45t119 -93h2v25q0 170 -90 284t-240 114t-276 -68l-90 215q188 113 406 112q274 0 457 -190t184 -516q1 -188 -53 -341
t-144 -248q-186 -196 -444 -198q-111 1 -201 45t-143 114q-111 146 -111 304z" />
    <glyph glyph-name="Delta" unicode="&#x2206;" horiz-adv-x="1302" 
d="M389 268h502l-166 520q-47 154 -80 293h-18q-2 -5 -29 -115t-43 -161zM29 0v162l420 1177h415l410 -1175v-164h-1245z" />
    <glyph glyph-name="product" unicode="&#x220f;" horiz-adv-x="1394" 
d="M1163 1057v-1202h-307v1202h-317v-1202h-308v1202h-186v272h1305v-272h-187z" />
    <glyph glyph-name="summation" unicode="&#x2211;" horiz-adv-x="1112" 
d="M39 -143v184l422 545l-400 528v215h986v-272h-558v-15l326 -442l-346 -459v-14h627v-270h-1057z" />
    <glyph glyph-name="minus" unicode="&#x2212;" horiz-adv-x="1153" 
d="M133 580l897 8q0 -74 -8 -193l-895 2q0 4 6 183z" />
    <glyph glyph-name="uni2215" unicode="&#x2215;" horiz-adv-x="262" 
d="M-209 -37q-58 29 -137 78q222 354 369 584q68 111 215 359t223 374q92 -41 147 -82q-92 -152 -254 -413t-240 -390t-323 -510z" />
    <glyph glyph-name="uni2219" unicode="&#x2219;" horiz-adv-x="608" 
d="M307 702q80 0 126 -49t46 -123t-50 -120q-50 -48 -124 -48t-126 48t-52 120q0 70 50 121t130 51z" />
    <glyph glyph-name="radical" unicode="&#x221a;" horiz-adv-x="1222" 
d="M1274 1729l-465 -1881h-234l-323 832l-164 -64l-53 152l385 158l207 -580q8 -20 53 -178h2q23 119 39 186l321 1375h232z" />
    <glyph glyph-name="infinity" unicode="&#x221e;" horiz-adv-x="1552" 
d="M399 395q48 0 94 27q45 26 69 48t73 71q-33 35 -74 73q-82 74 -144 74q-63 0 -105 -43t-42 -104t40 -104q41 -42 89 -42zM1143 395q57 0 98 44q41 43 41 105t-39 103t-88 41t-94 -26t-71 -48q-26 -23 -72 -69q6 -6 64 -65t96 -72t65 -13zM1145 186q-70 0 -143 36
q-72 36 -116 72t-112 101q-42 -42 -60 -57q-18 -16 -46 -41t-39 -31q-12 -6 -39 -24q-84 -56 -201 -56q-152 0 -246 102t-94 252t98 254t259 103q70 0 144 -36q74 -35 117 -71q44 -36 111 -102q4 4 35 33t37 35t34 30t40 31t39 25t45 24l54 18t101 13q152 0 246 -100
q94 -101 94 -251t-99 -255t-259 -105z" />
    <glyph glyph-name="integral" unicode="&#x222b;" horiz-adv-x="806" 
d="M651 1421q-65 -1 -99 -63t-34 -250t16 -462q16 -273 16 -484q1 -211 -63 -334q-86 -170 -284 -170q-98 0 -152 27l37 206q27 -10 80 -10t84 43q47 62 47 252t-16 473t-17 445q0 297 127 440q92 94 242 94q74 0 123 -16l-33 -201q-37 10 -74 10z" />
    <glyph glyph-name="approxequal" unicode="&#x2248;" horiz-adv-x="1153" 
d="M774 156q-81 0 -207 63q-12 4 -66 31t-138 28t-177 -110l-96 121q49 74 125 122q77 48 143 48q132 0 234 -64q61 -31 97 -45t85 -14q107 0 189 113l104 -109q-111 -184 -293 -184zM941 590q-75 -49 -157 -49t-190 49q-110 49 -146 60t-71 12q-104 0 -191 -113l-98 119
q121 174 293 174q72 0 134 -30q127 -60 173 -75q45 -16 86 -16q98 0 182 113l109 -115q-49 -80 -124 -129z" />
    <glyph glyph-name="notequal" unicode="&#x2260;" horiz-adv-x="1153" 
d="M1028 389q0 -94 -6 -182q-113 0 -449 -4q-33 -90 -61 -172q-90 31 -172 67q4 8 16 44t21 61q-178 0 -252 -4q0 104 6 192h313q8 20 70 201q-147 2 -389 2q0 4 6 182q106 0 451 4q18 49 61 178q109 -41 178 -73q-29 -80 -39 -105q174 0 248 4q0 -70 -8 -192h-307l-74 -201
q145 -2 387 -2z" />
    <glyph glyph-name="lessequal" unicode="&#x2264;" horiz-adv-x="1153" 
d="M143 178l879 -2q0 -6 -6 -172q-770 0 -881 -8q0 164 8 182zM473 807q39 -37 244 -206t229 -189q-53 -80 -104 -131q-186 135 -606 444q-6 84 -5 156q196 135 360 251t255 179q55 -66 96 -140q-29 -23 -128 -99q-100 -76 -208 -162q-108 -85 -133 -103z" />
    <glyph glyph-name="greaterequal" unicode="&#x2265;" horiz-adv-x="1153" 
d="M1014 -4l-879 2q0 154 6 172q389 0 881 8q0 -68 -8 -182zM690 799q-38 35 -240 195t-225 180q35 59 99 137q440 -311 604 -432q4 -47 4 -156q-356 -258 -615 -442q-61 66 -104 133q276 215 477 385z" />
    <glyph glyph-name="lozenge" unicode="&#x25ca;" horiz-adv-x="1196" 
d="M842 649l-215 436q-23 41 -31 66h-4q-23 -51 -31 -66l-209 -421l217 -433q14 -35 29 -65h6q12 25 29 65zM1118 657l-393 -739h-256l-391 739l391 740h256z" />
    <glyph glyph-name="Euro.fitted" unicode="&#xe000;" horiz-adv-x="1220" 
d="M27 651v113l116 -2q57 256 259 417t493 160q176 0 262 -28q18 -182 33 -416q-125 -18 -213 -29l-47 213q-11 51 -115 50q-103 -1 -180 -85q-102 -109 -127 -280l342 -2v-113l-352 2v-12q0 -41 8 -119h344v-106l-315 2q25 -78 79 -131q90 -82 234 -82q66 0 163 18t148 39
q20 -84 35 -190q-96 -37 -217 -64t-197 -26q-266 0 -425 116t-205 320l-123 -2v106h102q-4 42 -4 60t4 71h-102z" />
    <glyph glyph-name="Euro.oldstyle" unicode="&#xe001;" horiz-adv-x="1173" 
d="M457 496q0 -46 12 -88h330v-95h-291q27 -43 51 -61q70 -59 194 -59t279 45q12 -55 35 -185q-207 -74 -387 -73q-240 0 -383 102q-125 82 -172 231l-107 -2v97h82q-2 18 -2 55v33h-80v94h91q45 227 229 368q182 133 438 134q174 0 258 -25q18 -172 31 -362
q-84 -12 -209 -27l-45 178q-4 16 -12 23q-29 14 -72 14q-94 0 -164 -70q-88 -84 -102 -233l350 2v-96h-354z" />
    <glyph glyph-name="cent.fitted" unicode="&#xe005;" horiz-adv-x="1056" 
d="M385 657q0 -195 164 -241q0 240 6 516q-72 -14 -121 -92t-49 -183zM70 620q0 181 128 325t363 179v211q80 14 172 21q-4 -74 -4 -223h16q141 0 240 -50q0 -49 -29 -128t-59 -97q-125 66 -178 72q-8 -334 -10 -514q96 2 227 49q10 -31 43 -150q-131 -63 -266 -82
q-4 -168 -4 -245q-81 -6 -162 -15q0 160 2 246q-133 0 -228 40q-94 40 -142 83q-109 97 -109 278z" />
    <glyph glyph-name="degree.oldstyle" unicode="&#xe006;" horiz-adv-x="786" 
d="M395 1153q-49 0 -82 -43q-33 -42 -33 -106t34 -103t85 -39t80 40t29 104q0 147 -113 147zM393 1280h4q131 0 211 -75t80 -193t-85 -198q-85 -79 -210 -79t-209 73t-84 191q0 117 85 199t208 82z" />
    <glyph glyph-name="dollar.fitted" unicode="&#xe007;" horiz-adv-x="1083" 
d="M748 365q0 106 -156 141q0 -91 -8 -283q80 0 122 38t42 104zM367 963q1 -53 35 -81t122 -51l8 263q-82 -2 -120 -39q-45 -38 -45 -92zM94 888q0 180 150 283q117 82 295 97q4 66 4 190q78 16 159 19q-4 -131 -8 -205q174 0 281 -62q0 -44 -34 -116t-69 -99
q-111 80 -186 97q-2 -72 -10 -295q172 -49 255 -129t83 -232t-111 -258q-125 -109 -321 -123q-4 -119 -9 -196q-78 -10 -151 -13q6 102 6 203q-211 0 -360 80q2 35 41 110t75 103q150 -102 250 -119q0 94 8 318q-68 29 -139 57t-102 62q-31 32 -59 68q-48 60 -48 160z" />
    <glyph glyph-name="florin.fitted" unicode="&#xe00a;" horiz-adv-x="1052" 
d="M891 1339q113 0 201 -32q0 -39 -38 -124t-71 -112q-141 47 -201 47t-84 -45q-27 -57 -39 -293h342q0 -96 -6 -186h-344q-2 -29 -15 -280t-38 -349q-41 -173 -200 -283t-310 -110q-111 0 -176 27q0 31 36 109t62 104q84 -31 158 -31q123 0 138 200t24 613h-242q0 14 6 180
q180 4 230 4q12 0 12 17q8 164 44 252t124 157q170 135 387 135z" />
    <glyph glyph-name="florin.oldstyle" unicode="&#xe00b;" horiz-adv-x="989" 
d="M130 -360q-124 0 -179 20q0 39 33 106t59 93q72 -27 133 -27q102 0 116 171t13 462h-196q0 61 4 168q147 4 190 4q8 0 10 14q6 125 42 196t117 135t156 88q76 22 182 22t177 -27q0 -39 -37 -115t-69 -98q-109 39 -164 39t-73 -42t-28 -212l281 2q0 -90 -6 -174h-285
q-18 -359 -49 -497t-167 -233t-260 -95z" />
    <glyph glyph-name="numbersign.oldstyle" unicode="&#xe00c;" horiz-adv-x="1159" 
d="M506 629q-12 -90 -41 -271h211q19 142 39 271h-209zM1055 358q0 -84 -8 -157h-226q-29 -178 -51 -297q-117 -4 -168 -2q8 53 47 297h-213q-23 -129 -53 -295q-61 -6 -166 -2q8 41 47 295h-201q-2 51 9 165q66 -2 217 -2q14 90 39 271h-213q0 76 10 153h227q8 44 24 138
t23 141q63 6 187 6q-18 -92 -51 -285q70 2 204 2q16 92 45 277q57 2 189 2q-41 -221 -51 -279q137 0 190 2q0 -100 -8 -159h-213q-12 -90 -41 -271h205z" />
    <glyph glyph-name="bullet.001" unicode="&#xe00d;" horiz-adv-x="2048" 
d="M778 -197l2 340q345 0 482 -4q6 -377 2 -493q-322 -4 -484 0q-2 68 -2 157zM1845 723q0 -371 -2 -496q-242 -6 -481 0q-6 258 0 498q86 2 267 0t216 -2zM684 723q4 -70 3 -243t1 -249q-193 -10 -487 -6q-6 207 2 496q139 6 481 2zM778 803v493q138 8 482 4q4 -80 5 -260
t3 -233q-102 -4 -490 -4z" />
    <glyph glyph-name="bullet.002" unicode="&#xe00e;" horiz-adv-x="2048" 
d="M719 53l8 21q543 0 606 -2q-123 -334 -264 -625h-65q-111 205 -285 606zM0 436v51q276 145 625 293q4 -170 4 -643q-443 197 -629 299zM2044 504q0 -41 -2 -62q-373 -199 -612 -295q-2 51 -3 639q410 -161 617 -282zM1055 1503q156 -307 274 -614q0 -2 -8 -15
q-233 -8 -602 -4q82 223 280 633h56z" />
    <glyph glyph-name="bullet.003" unicode="&#xe00f;" horiz-adv-x="2048" 
d="M1849 133q0 -238 -8 -491q-174 -2 -487 2q0 340 4 491q212 6 491 -2zM684 137q6 -199 2 -493q-143 -6 -487 0q-10 250 0 489q192 8 485 4zM1266 717q4 -279 4 -492q-254 -6 -494 0q-4 106 2 494q347 0 488 -2zM1847 1300q0 -201 -4 -491q-272 -4 -489 0q-2 174 2 496
q208 3 491 -5zM197 807l-2 491q190 10 489 2q2 -72 3 -242t3 -243q-164 -8 -493 -8z" />
    <glyph glyph-name="bullet.004" unicode="&#xe010;" horiz-adv-x="2048" 
d="M334 125h344q2 -35 2 -354q-229 -4 -346 -2q-4 229 0 356zM1603 -219l-233 2v348q94 4 342 4q4 -115 4 -352q-55 -2 -113 -2zM1202 317q-12 -389 -4 -698q492 -12 682 -8q4 477 0 696q-477 12 -678 10zM1067 463q342 2 946 -2q4 -541 0 -996q-412 -6 -948 3q-8 520 2 995
zM1360 1161q51 2 344 2q4 -94 4 -354q-219 -8 -346 0q-2 55 -2 352zM334 1159q68 4 340 4q4 -98 4 -352q-106 -4 -344 0q-4 182 0 348zM166 1333q-6 -539 2 -696q164 -8 682 6q2 147 -10 694q-70 2 -674 -4zM31 483v998q428 6 944 2q18 -449 2 -996q-180 -4 -946 -4z" />
    <glyph glyph-name="bullet.005" unicode="&#xe011;" horiz-adv-x="1875" 
d="M1323 -20q-190 0 -297 -5q0 -205 8 -301l6 -2q244 6 289 9q0 164 -6 299zM887 119q381 0 579 -2v-572q-251 -6 -575 -2q-4 360 -4 576zM840 1276q-228 -8 -297 -8q6 -229 10 -297q201 -4 293 2q0 168 -6 303zM410 836v571q371 4 575 2q2 -84 2 -282v-287q-126 -4 -577 -4
zM1264 410q-667 0 -940 -7q-6 -176 0 -862q-86 -4 -138 -2l-14 10q2 215 2 544v444l14 8q981 0 1368 8q4 618 -2 860q96 4 152 0q-2 -395 -2 -993l-16 -10h-424z" />
    <glyph glyph-name="bullet.006" unicode="&#xe012;" horiz-adv-x="2048" 
d="M1415 72l-10 815q-274 6 -770 6l-2 -503q0 -151 2 -314q414 -10 780 -4zM2036 885q-278 0 -482 -6v-174h478v-138q-145 -4 -478 -4v-172q328 0 478 -4v-133q-139 -2 -478 -2v-168l478 -4v-135q-147 -2 -484 -2v-480l-137 2l-6 461q-51 -2 -166 -2v-459q-18 -2 -135 -2
v463h-166v-463l-137 2l-2 459h-160q-6 -252 -6 -459h-135q-2 66 -2 241v235q-330 0 -480 2q-2 43 -2 135q258 0 480 6q-2 61 -2 172l-476 -2v133q399 6 476 6v174q-64 2 -234 2h-242q-2 25 -2 138h478v172l-476 4q-2 23 -2 135l482 2v467l135 2q4 -122 4 -457q51 2 168 2
v451q43 2 133 2q6 -332 6 -453h162q4 144 4 453q20 2 44 2l89 -2q4 -102 4 -453l164 -2q0 225 4 455h135v-465q132 -4 484 -4q4 -86 4 -133z" />
    <glyph glyph-name="bullet.007" unicode="&#xe013;" horiz-adv-x="2048" 
d="M1217 -295l10 -16q399 6 567 14q4 133 13 595t16 665l-17 2q-329 -666 -589 -1260zM102 -440v1820l21 13q504 10 731 0q0 -1078 2 -1809l-18 -22q-63 -2 -736 -2zM1946 -442q-137 0 -460 -1t-462 1l-18 28q549 1174 899 1852l37 4q4 -240 4 -1884z" />
    <glyph glyph-name="bullet.008" unicode="&#xe014;" horiz-adv-x="2048" 
d="M1239 1262l-10 -13q236 -563 577 -1255l15 2q-2 262 -29 1259q-111 7 -553 7zM1942 -487l-37 2q-358 696 -897 1853q8 20 12 29q139 2 463 1t461 -1q6 -1440 -2 -1884zM102 1395q673 0 736 -2l18 -19v-1814q-164 -4 -733 0l-19 12q-2 440 -2 1823z" />
    <glyph glyph-name="bullet.009" unicode="&#xe015;" horiz-adv-x="2048" 
d="M813 -319l10 16q-190 449 -575 1255h-17q11 -988 17 -1259q172 -8 565 -12zM1192 1391q90 0 366 1t369 -1l17 -13q2 -440 2 -1822h-736l-20 16q2 729 2 1819zM1040 -420l-12 -29q-139 -2 -463 -1t-461 1q-6 1440 2 1883l37 -2q354 -693 897 -1852z" />
    <glyph glyph-name="bullet.010" unicode="&#xe016;" horiz-adv-x="2048" 
d="M821 1241l-8 16q-399 6 -557 0q-10 -256 -20 -1263l16 -2q405 866 569 1249zM1946 1393l-2 -1825l-19 -12q-596 0 -733 4v1814l16 19q90 -2 217 -2zM1028 1395l14 -29q-582 -1239 -897 -1851l-36 -2q-6 559 -3 1882h922z" />
    <glyph glyph-name="bullet.011" unicode="&#xe017;" horiz-adv-x="1761" 
d="M901 451l211 -568q126 0 297 6q8 565 8 1143q-612 -4 -1065 -12q-8 -1106 -8 -1135q193 -4 324 -4q203 537 215 570h18zM1157 -264l135 -369l-12 -14q-678 0 -799 2l-12 8q70 195 141 371q-287 0 -411 2v1435q639 6 1362 5q6 -999 4 -1438q-135 -2 -408 -2z" />
    <glyph glyph-name="bullet.012" unicode="&#xe018;" horiz-adv-x="1761" 
d="M870 375l21 -2q215 766 283 1030q-233 10 -592 6l-9 -12q254 -887 297 -1022zM1559 1155q0 -1044 -3 -1407q-782 -4 -1349 -2q0 1229 2 1407q102 2 293 2q-113 342 -125 379l12 12l668 2q172 0 293 -2l6 -14q-26 -111 -103 -377h306z" />
    <glyph glyph-name="bullet.013" unicode="&#xe019;" horiz-adv-x="2048" 
d="M1726 1022l-1052 8q-4 -238 -2 -364q207 -78 522 -211l2 -19q-254 -106 -522 -209q0 -104 4 -338q391 -8 1059 -8q-4 791 -11 1141zM522 1176l977 2q211 0 379 -2q6 -684 4 -1440q-360 -4 -1356 -4q-2 80 -2 448q-145 -59 -340 -133l-14 10q-4 451 2 797l8 10
q47 -18 164 -66t178 -73v451z" />
    <glyph glyph-name="bullet.014" unicode="&#xe01a;" horiz-adv-x="2048" 
d="M739 465l-2 -21q696 -201 992 -282q4 401 0 590l-11 12q-59 -18 -429 -129t-550 -170zM1518 -246q-1008 0 -1334 4q-8 702 -2 1393l862 2q242 0 472 -2q2 -115 2 -311q289 102 335 118l13 -10q4 -634 0 -962l-15 -6q-125 41 -333 98q2 -4 1 -162t-1 -162z" />
    <glyph glyph-name="bullet.015" unicode="&#xe01b;" horiz-adv-x="2048" 
d="M0 -549v318q135 0 841 -3t1207 5v-320h-2048zM0 115v1384h2048v-1372l-14 2q-72 90 -303 342h-15q-113 -115 -307 -336h-10q-143 201 -330 438h-12q-2 -2 -352 -423l-17 -3q-199 238 -315 361h-21q-111 -125 -338 -393h-14z" />
    <glyph glyph-name="bullet.016" unicode="&#xe01c;" horiz-adv-x="806" 
d="M377 145l39 -2q119 -193 346 -608l-10 -16q-633 0 -705 2q174 352 330 624zM197 471q0 89 59 151t141 62t135 -59q54 -59 54 -147t-51 -150t-137 -62t-143 58q-58 58 -58 147zM424 809h-43q-127 211 -344 608l10 17q596 0 705 -2q-125 -261 -328 -623z" />
    <glyph glyph-name="bullet.017" unicode="&#xe01d;" horiz-adv-x="2048" 
d="M1208 472q0 -87 -49 -142q-49 -56 -133 -56t-135 56t-51 138q0 83 52 144q52 62 131 62t132 -58t53 -144zM696 494v-39q-344 -209 -594 -351l-16 11q0 641 2 712q293 -149 608 -333zM1352 446l2 46q135 84 592 346l16 -11q0 -641 -2 -712q-387 202 -608 331z" />
    <glyph glyph-name="bullet.018" unicode="&#xe01e;" horiz-adv-x="1175" 
d="M182 647l-182 -2v68q328 4 514 2q130 -88 234 -181t231 -229q137 0 197 2v-67q-311 -4 -514 -2q-84 47 -251 192t-229 217z" />
    <glyph glyph-name="bullet.019" unicode="&#xe01f;" horiz-adv-x="1175" 
d="M0 305h197q127 135 230 229t235 181q186 2 514 -2v-66l-183 2q-61 -72 -228 -218t-251 -193q-201 -2 -514 2v65z" />
    <glyph glyph-name="bullet.020" unicode="&#xe020;" horiz-adv-x="2011" 
d="M971 0h-312l-6 10q0 94 30 182t77 140q47 51 101 81t145 29q164 0 242 -125t87 -313q-70 -4 -364 -4zM1577 0v8q203 113 319 176q15 -41 21 -176l-6 -8h-334zM1014 594q-117 0 -199 -35t-158 -115q-129 -172 -141 -362h-10q-330 238 -377 272l2 6q252 49 416 78v4
q-96 276 -141 424l4 11q156 -72 413 -199h4q98 266 160 428h14q102 -225 187 -430q180 92 401 198l6 -8q-29 -104 -129 -428v-2q145 -39 379 -106v-11q-153 -98 -362 -217h-10q-23 211 -150 365q-117 127 -309 127zM1704 774l6 6q57 -70 94 -164t47 -159q-74 20 -221 67
q27 96 74 250zM1468 969l-4 -8q-106 -55 -213 -107q-4 12 -41 104t-53 140q84 -6 173 -45t138 -84zM838 1102l6 -6q-29 -92 -80 -240q-106 49 -240 121q40 43 138 83t176 42zM295 788h6l42 -135q28 -90 38 -121q-8 -2 -219 -36q8 57 48 149t85 143zM98 190l8 7
q213 -133 300 -191l-3 -6q-51 -2 -161 -1t-154 1q-13 98 10 190z" />
    <glyph glyph-name="bullet.021" unicode="&#xe021;" horiz-adv-x="1814" 
d="M988 2q-522 0 -843 6q-31 43 -30 189q123 -31 614 -45l2 4q-383 365 -547 585q4 45 34 95t63 65q75 -117 269 -338t271 -282h4q0 170 -22 950q27 25 84 39t102 6q-4 -115 -10 -498t-2 -514l4 -2q106 113 267 316t235 321q23 2 61 -49t47 -105q-67 -104 -225 -283
t-287 -306l2 -4q133 2 357 17t252 28q6 -51 -3 -115t-26 -78q-151 -2 -673 -2z" />
    <glyph glyph-name="bullet.022" unicode="&#xe022;" horiz-adv-x="2048" 
d="M516 731l-8 -2q-152 -289 -336 -663l6 -7q213 -4 645 4l4 7q-118 270 -311 661zM1212 891l-6 -6q268 -520 344 -666h11q195 399 311 666l-4 6q-185 10 -656 0zM524 1006h15q250 -557 465 -1053l-7 -8q-602 -6 -999 2q-8 4 -10 8q260 535 536 1051zM1024 993l10 11
q494 8 1006 4l6 -9q-178 -418 -473 -1052h-14q-355 657 -535 1046z" />
    <glyph glyph-name="bullet.023" unicode="&#xe023;" horiz-adv-x="2048" 
d="M1001 -70l-10 -18q-254 -4 -964 2l-13 20q254 459 494 836h16q221 -371 477 -840zM1559 172l-17 -2q-217 344 -500 844l11 18q86 2 972 2l9 -20q-295 -545 -475 -842z" />
    <glyph glyph-name="bullet.024" unicode="&#xe024;" horiz-adv-x="1376" 
d="M627 -53l-6 -23q-84 -2 -598 -2l-7 23q131 207 287 438l23 2q123 -176 301 -438zM1040 555h-22q-190 283 -291 436l4 23q262 6 598 2l8 -23q-117 -178 -297 -438zM1376 383q-250 -347 -350 -481l-25 2q-305 422 -677 899q-217 -281 -324 -420v203q131 180 317 438h25
q596 -791 674 -893h18q39 51 342 455v-203z" />
    <glyph glyph-name="bullet.025" unicode="&#xe025;" horiz-adv-x="2048" 
d="M1257 350l3 4q-74 209 -146 381h-6q-223 -289 -248 -321l2 -6q178 -33 395 -58zM1380 248l-6 -6q-162 23 -657 102l-4 10q227 315 438 574l6 2q106 -307 223 -682zM623 74q197 0 821 -13l10 5q129 281 301 679l-4 15q-575 266 -1124 504l-9 -9q-2 -203 5 -1181zM1522 -47
l-13 -10q-669 0 -1005 4l-12 6q-2 498 2 1515l12 5q1030 -477 1421 -670l2 -17q-274 -573 -407 -833z" />
    <glyph glyph-name="bullet.026" unicode="&#xe026;" horiz-adv-x="2048" 
d="M750 582v-7q223 -182 325 -264l6 2q29 211 41 426l-4 2zM557 616l-2 7q270 102 670 239l6 -6q-39 -375 -88 -690l-8 -4q-170 122 -578 454zM1427 74q0 40 11 821l-4 10q-295 137 -676 301l-15 -4q-204 -438 -505 -1124l8 -8q203 -2 1181 4zM33 -55l-4 12
q477 1030 669 1421l17 2q520 -248 833 -407l11 -12q0 -726 -5 -1006l-8 -12q-495 -2 -1513 2z" />
    <glyph glyph-name="bullet.027" unicode="&#xe027;" horiz-adv-x="2048" 
d="M924 217l4 -2q238 92 366 154v6q-190 162 -321 264l-6 -2q-16 -121 -43 -420zM821 96l-6 6q47 385 90 682l10 4q268 -190 572 -454l2 -6q-258 -99 -668 -232zM621 877q0 -36 -11 -822l4 -10q289 -133 676 -301l15 4q195 418 505 1124l-8 9q-203 2 -1181 -4zM500 -23
l-11 13q0 727 5 1005l8 13q496 2 1513 -2l4 -13q-463 -997 -669 -1421l-17 -2q-436 206 -833 407z" />
    <glyph glyph-name="bullet.028" unicode="&#xe028;" horiz-adv-x="2048" 
d="M784 600l-2 -4q94 -285 136 -393h6q117 145 266 336l-2 6q-171 26 -404 55zM664 700l6 7q281 -35 663 -101l4 -10q-109 -156 -448 -578l-6 -2q-149 446 -219 684zM1425 877q-106 0 -821 10l-10 -4q-119 -252 -301 -676l4 -14q545 -254 1124 -506l9 8q2 203 -5 1182z
M526 997l13 11q669 0 1005 -4l12 -7q2 -498 -2 -1515l-12 -4q-997 463 -1421 669l-2 17q229 483 407 833z" />
    <glyph glyph-name="bullet.029" unicode="&#xe029;" horiz-adv-x="2048" 
d="M1456 635q141 176 201 246q63 -55 203 -187q-147 -188 -203 -256q-140 136 -201 197zM477 1470q414 -324 504 -393v-26q-125 -143 -397 -478l2 -24q352 -338 665 -623h-202q-91 86 -283 259t-289 264q-4 109 0 215q250 301 305 368l-2 19q-123 104 -303 249q-4 86 0 170z
M1587 1161l-2 -26q-384 -461 -436 -531q240 -244 516 -493h18q78 98 221 284q142 186 144 191v-203q-340 -461 -350 -475l-31 2q-225 219 -715 678q303 358 447 540q-93 72 -271 207t-215 164h203q207 -150 471 -338z" />
    <glyph glyph-name="bullet.030" unicode="&#xe02a;" horiz-adv-x="2048" 
d="M594 635q-30 -31 -98 -97t-103 -100q-55 68 -203 256q170 160 201 187q64 -74 203 -246zM1462 549l2 24q-244 303 -397 478l2 26q160 121 502 396q4 -84 0 -170q-129 -106 -303 -252v-19q109 -137 303 -368q4 -106 0 -215q-95 -89 -287 -263t-285 -260q-98 -2 -200 0
q331 301 663 623zM463 1161q299 225 450 338h205q-268 -209 -467 -371q117 -150 445 -540q-506 -478 -715 -678l-31 -2q-258 352 -350 475v203l367 -475h18q283 256 514 493q-336 414 -436 531v26z" />
    <glyph glyph-name="bullet.031" unicode="&#xe02b;" horiz-adv-x="2048" 
d="M1657 70l-203 245q66 68 201 195q135 -162 203 -254q-137 -129 -201 -186zM586 399l-2 -24q262 -324 397 -475l-2 -27q-127 -94 -502 -395q-4 84 0 170q129 106 303 252v18q-109 137 -303 369q-4 109 0 215l572 522q102 2 200 0q-268 -240 -663 -625zM1149 346l436 -530
v-27q-453 -326 -469 -338h-205q360 272 486 371q-184 236 -445 538q44 41 308 291t407 389l31 2q257 -336 350 -456v-205q-248 317 -367 461h-18q-264 -240 -514 -496z" />
    <glyph glyph-name="bullet.032" unicode="&#xe02c;" horiz-adv-x="2048" 
d="M592 315q-131 -164 -201 -245q-131 119 -203 186q33 45 203 254q105 -97 201 -195zM1464 375l-2 24q-358 352 -665 625q2 0 101 1t101 -1q126 -117 318 -291q191 -173 254 -231q4 -106 0 -215q-250 -301 -305 -369l2 -18q74 -63 303 -252q4 -86 0 -170q-371 297 -504 395
v27q88 100 397 475zM0 586l350 456l31 -2q143 -139 400 -382t315 -298q-246 -287 -447 -538q119 -95 467 -371h-203q-137 104 -452 338l2 27q88 104 231 280t205 250q-256 262 -516 496h-18q-90 -111 -365 -461v205z" />
    <glyph glyph-name="bullet.033" unicode="&#xe02d;" horiz-adv-x="2048" 
d="M1130 956l-14 5q-303 -334 -518 -611l4 -12q326 -98 721 -188l8 10q-84 376 -201 796zM1391 -84l-623 -4q-154 0 -301 4q-8 1049 2 1524l20 8q713 -356 1334 -725v-31q-121 -240 -432 -776z" />
    <glyph glyph-name="bullet.034" unicode="&#xe02e;" horiz-adv-x="2048" 
d="M528 612l-2 -14q252 -256 578 -547l14 4q98 348 191 758l-11 10q-395 -98 -770 -211zM1585 840l4 -621q0 -154 -4 -301q-983 -12 -1526 0l-8 23q418 811 727 1331l29 2q301 -154 778 -434z" />
    <glyph glyph-name="bullet.035" unicode="&#xe02f;" horiz-adv-x="2048" 
d="M1505 371l2 12q-276 260 -608 520l-14 -4q-66 -311 -127 -754l10 -10q325 93 737 236zM463 111l-4 621q0 155 4 302q1049 8 1526 -2l8 -20q-395 -781 -725 -1334l-31 -2q-246 127 -778 435z" />
    <glyph glyph-name="bullet.036" unicode="&#xe030;" horiz-adv-x="2048" 
d="M887 -20l14 -5q270 270 547 576l-4 12q-252 86 -737 219l-11 -10q60 -280 191 -792zM657 1034l622 4q155 0 302 -4q8 -1044 -2 -1523l-20 -9q-746 379 -1334 725l-2 31q133 256 434 776z" />
    <glyph glyph-name="sterling.fitted" unicode="&#xe031;" horiz-adv-x="1193" 
d="M104 553q0 63 5 174h145q6 0 6 8q-33 127 -33 210t42 162t118 128q154 104 381 104q109 0 231 -34q20 -248 27 -367q-150 -20 -201 -25l-47 201q-4 18 -18 26t-66 9q-52 0 -87 -43q-36 -43 -36 -124t29 -245q135 0 320 4q2 -68 -7 -190q-184 0 -284 2l2 -74
q0 -156 -142 -274q-18 -17 -12 -19t19 -2q289 0 325 17q31 6 43 45l66 200q100 -18 203 -45q-29 -139 -86 -405q-147 4 -658 4l-334 -2q0 59 4 186l154 6q14 0 27 9q70 76 69 241q0 66 -8 113h-197z" />
    <glyph glyph-name="sterling.oldstyle" unicode="&#xe032;" horiz-adv-x="1155" 
d="M299 360q0 49 -8 80h-189q0 57 4 160q150 0 150 8q-27 80 -27 150t37 136q37 65 105 105q137 92 364 93q139 0 238 -31q18 -160 31 -313q-119 -16 -191 -21l-39 154q-9 35 -85 36t-101 -32q-33 -37 -33 -105t23 -172q129 0 333 4q2 -78 -4 -172h-305l2 -59
q0 -106 -102 -191q-25 -18 4 -18q254 0 301 14q25 2 39 37l53 148q82 -10 191 -37q-37 -193 -72 -336l-592 2l-369 -2q0 119 4 172l172 6q16 0 23 6q43 55 43 178z" />
    <glyph glyph-name="yen.fitted" unicode="&#xe033;" horiz-adv-x="1159" 
d="M420 188v95l-295 -2q0 55 4 137l291 -2v106h-293q0 86 4 129h250q-193 330 -270 467q-8 12 -23 12l-61 5q0 117 2 165h227l326 3q0 -113 -2 -168l-115 -7q45 -109 186 -415h15q113 240 182 401q4 12 -10 12l-103 7q0 113 2 167h254l154 3q0 -115 -2 -168l-70 -5
q-156 -272 -278 -471q147 0 231 3q4 -80 -2 -142h-299v-102h301q0 -88 -2 -133l-299 -2l-2 -107l168 -8q0 -53 -4 -168l-316 2l-311 -2q0 61 4 168l146 6q10 0 10 14z" />
    <glyph glyph-name="yen.oldstyle" unicode="&#xe034;" horiz-adv-x="1110" 
d="M985 348q0 -74 -2 -110l-293 -2l-2 -76l170 -6l-2 -154l-303 2l-303 -2q0 106 2 154l151 6q6 0 7 10v66l-289 -3q0 43 4 117l285 -2v80h-287q0 74 4 113h231q-49 65 -133 189t-104 152t-31 29l-72 2l2 156h224l286 2q0 -102 -2 -156l-88 -6q65 -126 178 -321h11
q121 195 178 311q2 6 -10 10l-78 2q0 109 2 158h242l139 2q0 -102 -2 -158l-74 -4q-47 -71 -140 -199t-120 -167l219 2q4 -68 -2 -119h-291l-2 -78h295z" />
    <glyph glyph-name="uniF634" unicode="&#xf634;" horiz-adv-x="921" 
d="M464 -51q64 -1 114 -57q51 -56 51 -150t-70 -199q-70 -106 -190 -170q-2 2 -32 37t-44 51q135 100 135 203q0 39 -33 67t-71 36q-6 78 34 130q42 52 106 52z" />
    <glyph glyph-name="space_uni0326" unicode="&#xf6c3;" horiz-adv-x="921" 
d="M464 -96q64 0 114 -52q51 -52 51 -138t-70 -184t-190 -159q-12 14 -38 41t-38 41q135 92 135 187q0 36 -32 60t-72 34q-6 72 34 121q42 49 106 49z" />
    <glyph glyph-name="acute.cap" unicode="&#xf6c9;" horiz-adv-x="921" 
d="M776 1812q57 -70 115 -176q-121 -61 -404 -202q-35 49 -75 118q202 145 364 260z" />
    <glyph glyph-name="caron.cap" unicode="&#xf6ca;" horiz-adv-x="921" 
d="M940 1690q-15 -12 -293 -234q-63 0 -90 2q-90 74 -291 236q33 45 80 100q248 -148 258 -154q123 76 252 156q45 -45 84 -106z" />
    <glyph glyph-name="dieresis.cap" unicode="&#xf6cb;" horiz-adv-x="921" 
d="M804 1706q58 0 94 -38t36 -88t-38 -86t-93 -36t-91 35t-36 88t35 89t93 36zM383 1706q59 0 93 -36t34 -89t-36 -88t-91 -35t-93 36t-38 86t36 88t95 38z" />
    <glyph glyph-name="grave.cap" unicode="&#xf6ce;" horiz-adv-x="921" 
d="M410 1812q133 -92 366 -260q-27 -51 -76 -118l-405 202q66 110 115 176z" />
    <glyph glyph-name="hungarumlaut.cap" unicode="&#xf6cf;" horiz-adv-x="921" 
d="M913 1704q-238 -165 -340 -242q-31 31 -84 97q78 67 318 274q33 -31 106 -129zM143 1571l326 272q47 -45 104 -131q-250 -177 -344 -237q-41 41 -86 96z" />
    <glyph glyph-name="macron.cap" unicode="&#xf6d0;" horiz-adv-x="921" 
d="M874 1503l-552 2q-6 59 -3 144q174 0 555 4q4 -76 0 -150z" />
    <glyph glyph-name="R_p" unicode="&#xf6dd;" horiz-adv-x="2361" 
d="M1808 164q146 0 146 261t-114 261q-48 0 -144 -57q-4 -229 -4 -393q0 -29 40 -51t76 -21zM594 674q100 0 157 62q56 62 56 170t-55 180t-138 73q-39 0 -57 -6l-4 -477q8 -2 41 -2zM1851 -504q-434 0 -600 -4q0 115 2 168l99 8q8 0 8 10v326q-80 -2 -217 -2l-256 -4
q-39 66 -191 422q-37 86 -102 86q-29 0 -41 -4l-2 -326l102 -6q0 -113 -2 -168h-284l-258 -2v170l102 6q4 0 4 8l2 959l-111 4q2 59 3 174q279 4 457 4t304 -29q125 -29 207 -126q82 -96 82 -210q-1 -114 -71 -206t-185 -140v-10q63 -29 109 -103q45 -75 123 -247
q31 -70 61 -72l164 -8l2 514l-102 4q0 66 4 168q371 66 386 66t15 -4q4 -23 8 -63t6 -52l15 -2q143 80 196 99q198 71 325 -101q91 -123 90 -271t-58 -277q-57 -130 -153 -203q-96 -72 -208 -72t-186 28l-10 -4l-2 -334l167 -6q0 -61 -4 -168z" />
    <glyph glyph-name="cent.inferior" unicode="&#xf6df;" 
d="M295 106q0 -68 51 -98q21 -16 66 -22l2 278q-53 -6 -86 -48t-33 -110zM410 -143q-129 0 -224 57q-94 57 -94 176t87 206t237 99l2 113q57 6 110 10v-121h15q82 0 164 -32q1 -37 -19 -85t-41 -63q-90 45 -125 47l-4 -278q68 0 156 39q20 -66 31 -107q-96 -45 -187 -55
l-2 -133q-77 -5 -106 -9v136z" />
    <glyph glyph-name="cent.superior" unicode="&#xf6e0;" 
d="M295 1161q0 -68 51 -100q21 -17 66 -23l2 281q-53 -6 -86 -48t-33 -110zM410 909q-130 -1 -224 57t-94 177t87 207t237 100l2 113q57 6 110 10v-121h15q82 0 164 -33q1 -37 -19 -85t-41 -62q-90 45 -125 47l-4 -281q68 0 156 39q20 -66 31 -106q-96 -45 -187 -56l-2 -133
q-77 -4 -106 -8v135z" />
    <glyph glyph-name="comma.inferior" unicode="&#xf6e1;" horiz-adv-x="546" 
d="M420 -192q0 -96 -72 -206t-194 -177q-27 33 -80 94q141 100 141 211q0 38 -34 66t-77 38q-6 80 36 134t108 54t119 -58q53 -60 53 -156z" />
    <glyph glyph-name="comma.superior" unicode="&#xf6e2;" horiz-adv-x="546" 
d="M420 860q0 -96 -72 -205t-194 -176l-80 92q141 104 141 211q0 39 -34 67t-77 38q-6 80 36 134t108 54t119 -59q53 -60 53 -156z" />
    <glyph glyph-name="dollar.inferior" unicode="&#xf6e3;" 
d="M518 -51q0 53 -92 76l-4 -150q53 2 76 23q20 14 20 51zM371 209l6 141q-49 0 -74 -19t-25 -49t22 -46t71 -27zM702 -16q0 -94 -73 -156q-74 -57 -209 -68l-4 -116q-33 -4 -103 -9l4 123q-139 4 -243 58q0 24 24 70t47 67q92 -63 174 -74l5 162q-125 37 -180 79
q-54 42 -54 132t86 151q72 55 201 62l2 113q31 6 106 10l-4 -123q123 0 205 -39q0 -31 -20 -75t-43 -64q-91 59 -144 61l-6 -158q117 -28 173 -70t56 -136z" />
    <glyph glyph-name="dollar.superior" unicode="&#xf6e4;" 
d="M518 1001q0 58 -92 76l-4 -147q96 0 96 71zM371 1262l6 141q-49 1 -74 -19t-25 -50t22 -45t71 -27zM702 1038q0 -93 -73 -157q-76 -55 -209 -66l-4 -117q-33 -4 -103 -8l4 123q-139 4 -243 57q0 25 23 71q24 46 48 67q96 -66 174 -74l5 162q-123 35 -179 76
q-55 42 -55 132t86 152q72 55 201 62l2 112q31 6 106 10l-4 -122q123 0 205 -39q0 -31 -20 -75t-43 -65q-91 60 -144 62l-6 -156q117 -27 173 -71t56 -136z" />
    <glyph glyph-name="hyphen.inferior" unicode="&#xf6e5;" horiz-adv-x="632" 
d="M82 35q0 108 4 158q78 2 234 2t231 4q0 -86 -6 -166l-238 2h-225z" />
    <glyph glyph-name="hyphen.superior" unicode="&#xf6e6;" horiz-adv-x="632" 
d="M82 1087q0 108 4 158q78 2 234 2t231 4q0 -86 -6 -166l-238 2h-225z" />
    <glyph glyph-name="period.inferior" unicode="&#xf6e7;" horiz-adv-x="546" 
d="M276 20q66 0 104 -40t38 -101q0 -63 -41 -101t-101 -38t-104 39q-43 39 -43 98t41 101q40 42 106 42z" />
    <glyph glyph-name="period.superior" unicode="&#xf6e8;" horiz-adv-x="546" 
d="M276 1073q66 0 104 -40q38 -39 38 -101t-41 -101t-101 -39t-104 40q-43 38 -43 98t41 101q40 42 106 42z" />
    <glyph glyph-name="b.superior" unicode="&#xf6ea;" horiz-adv-x="878" 
d="M557 938q0 207 -98 207q-53 0 -117 -45q-2 -94 -2 -309q0 -27 33 -43t63 -17q121 0 121 207zM98 788v748l-104 6q0 47 4 129q35 5 119 15q85 10 151 18t72 8t6 -20t-2 -187q-2 -168 0 -260q115 51 151 63t83 11q94 0 166 -90t71 -206q0 -254 -170 -378q-68 -53 -205 -53
q-74 0 -164 43l-53 -62l-133 23q8 82 8 192z" />
    <glyph glyph-name="d.superior" unicode="&#xf6eb;" horiz-adv-x="911" 
d="M330 936q0 -184 101 -184q46 0 97 26q8 6 9 29l-2 332q-42 22 -93 22q-112 0 -112 -225zM397 1315q66 0 131 -19l7 4v228l-117 4q0 90 2 133q189 20 275 32q87 11 91 11t5 -6l-5 -942q0 -14 9 -15l79 5l3 -129q-17 -9 -103 -21t-158 -12q-30 22 -57 71h-12
q-145 -72 -209 -71q-106 0 -180 76q-96 92 -96 258t118 297q84 96 217 96z" />
    <glyph glyph-name="e.superior" unicode="&#xf6ec;" horiz-adv-x="792" 
d="M510 1040q0 146 -90 146q-51 0 -79 -47t-26 -121q137 0 179 2q16 0 16 20zM412 592q-152 0 -252 83t-99 257q0 174 127 291q110 96 254 96t220 -91t75 -251q0 -8 -36 -45t-46 -37q-43 -4 -340 -4q12 -137 164 -137q106 0 211 43q14 -45 31 -131q-157 -74 -309 -74z" />
    <glyph glyph-name="i.superior" unicode="&#xf6ed;" horiz-adv-x="507" 
d="M471 600h-418v127l84 4q6 0 6 6v400l-98 4v133l340 43q4 0 4 -4q-4 -352 -4 -580l86 -6v-127zM251 1675q60 0 96 -38t36 -94t-42 -96t-95 -40t-94 39t-41 95t40 95t100 39z" />
    <glyph glyph-name="l.superior" unicode="&#xf6ee;" horiz-adv-x="491" 
d="M369 1706q6 0 6 -8q-6 -441 -6 -965l88 -4v-129h-422q0 88 2 129l82 4q6 0 6 6v789l-107 4l2 131q33 4 118 14q85 9 155 19t76 10z" />
    <glyph glyph-name="m.superior" unicode="&#xf6ef;" horiz-adv-x="1349" 
d="M364 1315q7 0 7 -4q8 -64 8 -88l6 -2q111 63 151 79t91 16t95 -36q44 -37 58 -66h6q113 68 152 83t84 16q90 0 158 -88q47 -61 47 -142q0 -137 -4 -350l82 -2l-2 -131h-377q0 90 2 129l53 4q6 0 6 8v281q0 53 -12 76q-14 32 -60 32t-108 -36l-2 -361l63 -2q0 -88 -2 -131
h-352v129l57 4q6 4 7 8v293q0 49 -12 75t-59 26q-48 0 -122 -48l-2 -354l63 -2v-131h-385q0 90 2 129l78 4q6 0 6 8l-2 400l-92 4v125q304 45 311 45z" />
    <glyph glyph-name="r.superior" unicode="&#xf6f1;" horiz-adv-x="716" 
d="M362 1317q4 0 5 -4q4 -84 8 -201l12 -2q68 135 107 172t94 37t121 -21q0 -55 -25 -132t-47 -97l-100 14q-64 0 -127 -125q-18 -37 -23 -133v-92l129 -6q0 -84 -2 -127h-451v127l76 4q6 0 6 4v410l-92 2l2 129q74 5 189 23q114 18 118 18z" />
    <glyph glyph-name="s.superior" unicode="&#xf6f2;" horiz-adv-x="724" 
d="M309 1118q0 -29 25 -41t123 -39q98 -28 146 -72t48 -120q0 -147 -135 -213q-86 -41 -227 -41t-215 24q-4 37 -13 109q-8 72 -12 109q20 4 133 24l25 -90q2 -4 7 -9t7 -9q45 -23 94 -23q97 0 97 61q0 29 -22 43t-103 35q-215 61 -215 211q0 131 150 206q72 36 208 36
q135 0 188 -23q8 -63 21 -211l-135 -20l-25 82q-10 33 -90 34t-80 -63z" />
    <glyph glyph-name="t.superior" unicode="&#xf6f3;" horiz-adv-x="665" 
d="M303 592q-66 0 -119 48t-53 124v182l2 209h-108q0 47 4 133q29 4 102 8q8 0 10 16t5 62q3 45 6 66q73 37 147 60q74 24 78 24t2 -38t-2 -190l239 2q0 -74 -6 -145l-233 2v-19l-2 -114v-197q-1 -31 21 -50t48 -19q92 0 172 24q17 -122 19 -131q-145 -57 -332 -57z" />
    <glyph glyph-name="breve.sc" unicode="&#xf6f4;" horiz-adv-x="921" 
d="M461 1229q-115 -1 -198 69t-95 175q68 27 133 34q14 -59 60 -93q47 -34 105 -34t100 36t55 83q72 -4 135 -22q-12 -100 -96 -174t-199 -74z" />
    <glyph glyph-name="caron.sc" unicode="&#xf6f5;" horiz-adv-x="921" 
d="M461 1399l217 198q51 -39 96 -90l-130 -150q-91 -105 -120 -138q-88 0 -129 2q-242 279 -248 286q45 45 103 88q156 -145 211 -196z" />
    <glyph glyph-name="circumflex.sc" unicode="&#xf6f6;" horiz-adv-x="921" 
d="M524 1573l250 -289q-45 -49 -96 -90q-156 146 -217 201q-179 -169 -211 -197q-53 41 -103 86l248 289h129z" />
    <glyph glyph-name="dotaccent.sc" unicode="&#xf6f7;" horiz-adv-x="921" 
d="M462 1522q64 0 101 -38t37 -95t-39 -95t-98 -39q-59 0 -101 39q-40 38 -40 94t38 95t102 39z" />
    <glyph glyph-name="hungarumlaut.sc" unicode="&#xf6f8;" horiz-adv-x="921" 
d="M563 1311q179 126 320 233q33 -39 92 -139q-115 -64 -336 -197q-47 57 -76 103zM225 1221q-57 74 -75 102l327 229q47 -51 92 -139q-203 -115 -344 -192z" />
    <glyph glyph-name="lslash.sc" unicode="&#xf6f9;" horiz-adv-x="1075" 
d="M545 205q0 -25 11 -31t78 -6t134 10q20 6 29 33l63 178q66 -10 197 -35q-29 -164 -74 -356l-606 2h-262q0 109 2 168l90 2q8 0 8 8v201q-74 -29 -115 -45q-43 90 -63 151q43 18 178 74v336l-98 4q0 117 2 170h551q0 -111 -2 -170l-113 -4q-6 0 -6 -6l-2 -199l211 86
q41 -100 59 -172q-268 -103 -272 -104v-295z" />
    <glyph glyph-name="oe.sc" unicode="&#xf6fa;" horiz-adv-x="1761" 
d="M684 147q55 0 108 35q52 35 78 97v528q-47 115 -182 115q-94 0 -153 -66q-89 -98 -89 -315t80 -320q62 -74 158 -74zM1303 172q75 0 109 9t46 34l49 119q78 -12 195 -35q-35 -172 -64 -299h-751q-2 14 -4 43t-4 43q-105 -106 -297 -106t-326 112q-176 156 -176 430
q0 144 59 272t180 212t293 86q172 0 269 -91l6 68h751q14 -168 17 -307l-193 -17l-30 111q-4 27 -35 29q-123 10 -178 10h-21l-2 -268q104 0 154 4q18 0 22 31l10 47q68 2 189 -2v-170q-2 -59 -2 -164q-123 -4 -189 -4l-8 53q-8 33 -29 35q-49 2 -147 2l-2 -248
q0 -25 17 -32t92 -7z" />
    <glyph glyph-name="ogonek.sc" unicode="&#xf6fb;" horiz-adv-x="921" 
d="M733 -211q0 -49 33 -77t71 -28t91 17q16 -51 26 -102q-72 -39 -166 -39t-167 50q-74 50 -74 131t56 153t165 122h100q-135 -106 -135 -227z" />
    <glyph glyph-name="ring.sc" unicode="&#xf6fc;" horiz-adv-x="921" 
d="M461 1516q-43 0 -73 -29t-30 -74t32 -75t75 -30t72 30t28 77q0 101 -104 101zM209 1406q0 90 76 152t181 62t176 -55t71 -147t-75 -152q-75 -62 -178 -62t-177 56t-74 146z" />
    <glyph glyph-name="scaron.sc" unicode="&#xf6fd;" horiz-adv-x="1038" 
d="M864 1509l-250 -290q-90 0 -131 2q-244 283 -247 286q45 45 102 88q145 -137 213 -196q22 20 215 198q47 -35 98 -88zM428 803q0 -51 40 -76t175 -68q309 -100 309 -319q0 -166 -132 -263t-410 -97q-188 0 -297 38q-31 223 -41 322q96 19 200 33l52 -166q19 -46 125 -46
q106 1 144 33t38 76t-36 67q-36 24 -94 44t-67 22q-326 119 -325 332q0 145 118 250q127 106 416 107q164 0 260 -35q16 -131 27 -320q-154 -16 -197 -20l-41 153q-13 40 -98 39q-166 0 -166 -106z" />
    <glyph glyph-name="tilde.sc" unicode="&#xf6fe;" horiz-adv-x="921" 
d="M590 1221q-52 0 -168 81q-54 35 -88 35q-63 0 -80 -106h-117q13 121 61 195t134 73q56 0 99 -31q58 -33 63 -41q68 -43 104 -43q59 0 74 103q61 4 114 0q-8 -121 -57 -193t-139 -73z" />
    <glyph glyph-name="zcaron.sc" unicode="&#xf6ff;" horiz-adv-x="1144" 
d="M907 1507l-250 -290q-88 0 -129 2q-240 279 -247 286q53 53 102 88q156 -145 211 -196q152 139 217 198q49 -35 96 -88zM506 1069q284 0 502 2q33 -86 57 -192q-283 -332 -600 -682l2 -7q213 0 287 19q35 6 53 51l59 152q86 -14 209 -43q-39 -184 -86 -371l-583 2h-293
q-12 25 -54 135q362 457 607 737l-2 9q-219 -1 -249 -11t-40 -39l-66 -169q-195 37 -205 38q33 203 70 373q48 -4 332 -4z" />
    <glyph glyph-name="exclam.sc" unicode="&#xf721;" horiz-adv-x="616" 
d="M313 303q74 0 119 -47t45 -118q0 -70 -48 -114t-121 -44t-122 43t-49 113t51 118q51 49 125 49zM494 1092q4 0 4 -2q-10 -68 -47 -334t-48 -332q-76 -23 -194 -23q-8 40 -42 263t-69 395q154 33 396 33z" />
    <glyph glyph-name="dollar.oldstyle" unicode="&#xf724;" horiz-adv-x="989" 
d="M535 358l-7 -202q63 0 97 24q35 29 35 73q0 43 -28 67q-27 24 -97 38zM457 621l6 180q-68 0 -101 -29t-32 -63q0 -76 127 -88zM901 317q0 -131 -92 -217t-283 -98l-4 -152q-82 -10 -141 -10l6 164q-223 4 -326 70q0 33 30 91t65 95q117 -88 235 -96l4 215
q-155 45 -233 107t-78 182t113 209q94 72 268 81l2 150q84 14 147 16l-6 -166q166 0 275 -55q0 -43 -29 -103t-59 -83q-99 70 -193 80l-8 -207q307 -53 307 -273z" />
    <glyph glyph-name="ampersand.sc" unicode="&#xf726;" horiz-adv-x="1490" 
d="M608 162q110 0 166 39q-141 141 -321 268q-59 -49 -59 -131t50 -123q54 -53 164 -53zM676 829q0 107 -103 107q-51 0 -79 -24t-27 -68q0 -78 131 -162q78 63 78 147zM502 -20q-178 0 -279 53q-160 82 -160 241q0 92 69 176t179 125v7q-141 96 -141 218t100 199
q122 93 306 93t278 -64q98 -63 98 -172q0 -166 -215 -262v-8q96 -72 260 -217q23 25 43 77t21 89q0 8 -12 8l-70 4q0 102 2 151h229l205 2q2 -78 0 -153l-96 -6q-63 -176 -195 -291q60 -54 82 -70t74 -16l117 -2l-2 -162q-78 -4 -233 -12t-161 -8l-94 102
q-168 -102 -405 -102z" />
    <glyph glyph-name="zero.oldstyle" unicode="&#xf730;" horiz-adv-x="1179" 
d="M590 201q90 0 133 49q74 82 74 209t-66 207q-45 55 -130 55t-134 -49q-80 -88 -80 -217t76 -209q18 -18 56 -32t71 -13zM589 -20q-204 0 -331 92q-184 121 -184 377q0 125 57 228q147 265 492 265q201 0 321 -100q166 -133 166 -373t-190 -387q-127 -102 -331 -102z" />
    <glyph glyph-name="one.oldstyle" unicode="&#xf731;" horiz-adv-x="1040" 
d="M94 741l643 222q8 0 8 -9l-8 -774l254 -6q0 -121 -2 -172h-434l-446 -2q0 108 4 174l276 6q10 0 10 8v435l-274 -54q-27 141 -31 172z" />
    <glyph glyph-name="two.oldstyle" unicode="&#xf732;" horiz-adv-x="1044" 
d="M565 600q-1 47 -33 84t-104 37q-141 0 -254 -105q-59 53 -115 132q199 195 500 194q184 0 287 -102q82 -80 82 -202t-71 -206q-102 -120 -386 -211v-16q298 0 487 6q0 -121 -14 -213l-604 2h-246q-33 106 -45 180q201 104 295 162t158 118t63 140z" />
    <glyph glyph-name="three.oldstyle" unicode="&#xf733;" horiz-adv-x="1003" 
d="M932 29q0 -193 -157 -307t-433 -113q-207 0 -305 57q10 49 51 170q102 -43 228 -43t202 64q64 57 64 147t-70 146t-199 55q-76 0 -102 -2q-4 49 -8 172q195 4 267 59t73 150q0 61 -38 104t-114 43q-123 0 -244 -92q-47 53 -96 133q174 170 461 170q190 0 287 -100
q82 -82 82 -193t-70 -191t-176 -114v-14q141 -12 219 -102t78 -199z" />
    <glyph glyph-name="four.oldstyle" unicode="&#xf734;" horiz-adv-x="1175" 
d="M309 205q114 -8 322 -8l2 475h-10q-178 -216 -318 -453q-4 -4 -2 -9t6 -5zM1147 195q0 -100 -8 -183q-39 -2 -193 -2q-4 -193 -4 -346q-164 -14 -309 -14v352l-522 -2q-47 98 -82 199q213 317 592 737q158 0 331 -10l-4 -729q61 -2 199 -2z" />
    <glyph glyph-name="five.oldstyle" unicode="&#xf735;" horiz-adv-x="1017" 
d="M539 924q244 0 364 -2q0 -127 -8 -228q-186 -2 -504 -8q-20 -119 -33 -205q31 2 105 2q231 1 355 -109t124 -278q0 -233 -184 -366q-162 -115 -439 -115q-57 0 -142 16t-132 39q31 117 51 168q102 -39 234 -39q132 -1 204 59t72 170t-75 170q-75 58 -222 58
q-67 0 -153 -4l-37 35q29 303 76 637h344z" />
    <glyph glyph-name="six.oldstyle" unicode="&#xf736;" horiz-adv-x="1132" 
d="M586 139q135 0 135 248q0 121 -57 193q-35 47 -93 47q-92 0 -143 -84v-80q4 -152 45 -242q41 -82 113 -82zM684 823q174 1 275 -105t102 -261q0 -223 -164 -367q-133 -110 -349 -110t-342 136t-126 353q0 369 262 627q199 190 475 245q47 -82 70 -165q-182 -55 -294 -168
t-151 -258l13 -5q94 78 229 78z" />
    <glyph glyph-name="seven.oldstyle" unicode="&#xf737;" horiz-adv-x="1054" 
d="M96 926l533 -2h303q35 -90 65 -217q-256 -457 -548 -1110q-154 49 -234 88q305 717 424 985l-2 12q-342 0 -569 -8q6 133 28 252z" />
    <glyph glyph-name="eight.oldstyle" unicode="&#xf738;" horiz-adv-x="1101" 
d="M725 311q0 131 -231 226q-53 -39 -82 -99t-29 -124t39 -119q49 -61 133 -61t129 50q41 51 41 127zM420 979q0 -115 190 -197q102 72 103 187q0 65 -35 111t-105 46t-110 -39q-43 -47 -43 -108zM524 -20q-222 0 -342 84q-121 84 -121 233q0 105 76 195t201 133v10
q-213 98 -213 301q0 154 135 250q134 96 330 96t302 -82t105 -207q0 -94 -61 -168q-62 -73 -160 -118v-9q121 -49 191 -133t71 -186q2 -199 -155 -309q-137 -90 -359 -90z" />
    <glyph glyph-name="nine.oldstyle" unicode="&#xf739;" horiz-adv-x="1128" 
d="M547 778q-47 0 -80 -35q-53 -71 -53 -203t47 -180t90 -47q43 0 86 23t65 51q0 25 3 49q0 168 -46 258q-38 84 -112 84zM442 123q-158 0 -260 106q-104 106 -104 265q0 192 149 320t357 128t329 -125q141 -139 142 -383q0 -344 -248 -588q-199 -197 -526 -237
q-41 92 -62 180q250 57 361 174q96 98 125 227l-13 7q-92 -74 -250 -74z" />
    <glyph glyph-name="question.sc" unicode="&#xf73f;" horiz-adv-x="1007" 
d="M493 274q73 0 119 -42t45 -106q0 -64 -48 -106t-120 -40q-71 0 -121 40t-50 102t50 107q52 45 125 45zM942 836q0 -118 -76 -190t-233 -146q-31 -12 -31 -35q0 -43 8 -94q-86 -33 -233 -39q-25 31 -47 89q-23 58 -25 103q152 86 212 140t61 124q0 113 -119 113
q-61 0 -105 -24q-8 -4 -12 -21l-41 -141q-143 12 -205 20q8 125 19 295q162 62 384 62q223 0 333 -69t110 -187z" />
    <glyph glyph-name="grave.sc" unicode="&#xf760;" horiz-adv-x="921" 
d="M248 1554q29 -18 366 -239q-33 -61 -71 -121q-342 158 -398 180q42 84 103 180z" />
    <glyph glyph-name="a.sc" unicode="&#xf761;" horiz-adv-x="1189" 
d="M426 424h250q-29 80 -115 350h-16q-23 -63 -64 -178q-41 -116 -52 -144t-3 -28zM0 0q0 105 2 164l78 4q4 0 10 8q240 590 377 899q57 6 285 6q28 -72 156 -421t184 -492l84 -4v-164h-519l2 164l91 4q4 0 4 10q-20 60 -26 76t-15 16l-344 -2q-4 -14 -14 -42t-17 -58
l100 -4q0 -113 -2 -164h-436z" />
    <glyph glyph-name="b.sc" unicode="&#xf762;" horiz-adv-x="1179" 
d="M588 156q78 0 129 39t51 106t-57 115t-164 47h-35l-2 -262q0 -45 78 -45zM547 623q82 0 132 41t50 109q0 67 -46 105q-45 38 -101 38t-66 -5l-2 -286q8 -2 33 -2zM436 1071q178 0 232 -1q145 -3 220 -36q74 -33 118 -90t43 -129t-57 -134t-144 -95v-13q114 -16 188 -90
t74 -172q0 -137 -129 -224t-350 -87h-549q0 109 2 166l98 4q6 0 6 6v719l-106 6l2 164q174 6 352 6z" />
    <glyph glyph-name="c.sc" unicode="&#xf763;" horiz-adv-x="1142" 
d="M711 893q-94 0 -164 -68q-107 -111 -107 -300t103 -273q70 -59 194 -59t279 45q12 -55 35 -185q-207 -74 -387 -73q-384 0 -529 265q-55 101 -55 226q0 307 242 487q182 133 438 134q176 0 256 -25q25 -219 33 -362q-189 -23 -209 -25l-45 176q-4 18 -13 23
q-29 14 -71 14z" />
    <glyph glyph-name="d.sc" unicode="&#xf764;" horiz-adv-x="1298" 
d="M555 160q119 0 199 69q55 47 82 130t26 155q0 215 -123 330q-76 66 -172 65q-22 0 -45 -6l-4 -708q0 -35 37 -35zM84 0v168l96 4q6 0 6 6v717l-104 2q0 117 2 170q274 4 504 4q230 1 358 -65t200 -180t73 -264q0 -150 -71 -277t-183 -197q-141 -90 -385 -90l-242 2h-254z
" />
    <glyph glyph-name="e.sc" unicode="&#xf765;" horiz-adv-x="1087" 
d="M516 459v-248q0 -25 16 -32t90 -7t112 7t50 36l50 119q78 -12 194 -35q-18 -102 -63 -299h-881v168l94 4q8 0 8 6v717l-104 2q0 119 2 172h881q14 -168 16 -307l-193 -17l-30 111q-6 25 -35 29q-143 10 -188 10h-17l-2 -268l160 4q20 0 22 31l11 47q68 2 188 -2v-170
q-2 -59 -2 -164q-123 -4 -188 -4l-9 53q-8 35 -26 35q-57 2 -156 2z" />
    <glyph glyph-name="f.sc" unicode="&#xf766;" horiz-adv-x="1056" 
d="M182 178v719l-104 2q0 119 2 170h272l418 2q135 0 199 2q16 -158 24 -321q-66 -8 -194 -21l-35 127q-2 23 -35 29q-111 12 -160 12t-53 -2l-4 -313q115 0 166 1t53 31l10 66q66 0 189 -4l-4 -371q-61 -2 -189 -2l-8 74q-2 33 -53 35t-162 2l-2 -240l193 -6
q0 -115 -3 -170l-340 2l-282 -2v168l96 4q6 0 6 6z" />
    <glyph glyph-name="g.sc" unicode="&#xf767;" horiz-adv-x="1263" 
d="M1180 535q0 -118 -2 -173l-74 -4q-8 -4 -8 -6l-4 -309q-119 -63 -357 -63q-309 0 -463 114q-193 147 -192 398q0 311 266 485q174 115 438 115q184 0 291 -43q14 -156 21 -353l-209 -18l-41 178q-4 14 -10 21q-49 27 -95 26q-101 0 -165 -56q-64 -57 -98 -145t-34 -182
q0 -182 95 -280q80 -90 204 -90q27 0 29 20l-2 188l-141 4l2 173h549z" />
    <glyph glyph-name="h.sc" unicode="&#xf768;" horiz-adv-x="1384" 
d="M188 182v713l-102 4l2 170h547q0 -115 -2 -170l-103 -4q-6 0 -6 -6l-2 -242q0 -4 8 -4l332 -2v254l-108 4l2 170h540q0 -115 -2 -170l-90 -4q-6 0 -6 -6l-4 -713l100 -6q0 -115 -2 -170l-260 2l-291 -2q0 115 2 170l113 6q6 0 6 6v275q0 6 -6 6l-334 -2l-2 -285l113 -6
v-170l-279 2l-268 -2q0 115 2 170l94 6q6 0 6 6z" />
    <glyph glyph-name="i.sc" unicode="&#xf769;" horiz-adv-x="706" 
d="M184 182v715l-123 4q0 117 2 170l295 -2l287 2q0 -111 -2 -170l-119 -4q-4 0 -4 -8l-4 -713l127 -6q0 -115 -2 -170l-289 2l-291 -2v170l117 6q6 0 6 6z" />
    <glyph glyph-name="j.sc" unicode="&#xf76a;" horiz-adv-x="1044" 
d="M877 891q0 -408 -3 -488q-4 -205 -108 -309q-131 -135 -418 -135q-147 0 -256 25q-8 45 -59 342q74 18 196 47l64 -183q3 -10 25 -26t90 -14q68 0 104 47q35 47 35 203t-4 497l-193 6q0 115 2 166h633q0 -109 -2 -166l-100 -4q-6 0 -6 -8z" />
    <glyph glyph-name="k.sc" unicode="&#xf76b;" horiz-adv-x="1275" 
d="M90 1071l283 -2l243 2q0 -111 -2 -168l-90 -4q-2 0 -2 -8l-4 -270q53 0 92 6q88 92 215 260q12 8 -4 8l-71 4q0 117 2 168l264 2l203 2l-2 -170l-89 -6q-211 -215 -286 -289v-10q94 -55 174 -217l80 -160q20 -35 71 -41l80 -6l-2 -170l-221 -2l-186 -2q-53 80 -129 272
t-125 191l-66 -2l-2 -285l98 -6q0 -113 -2 -168l-247 2l-281 -2l2 168l92 6q6 0 6 6l2 719l-98 4q0 115 2 168z" />
    <glyph glyph-name="l.sc" unicode="&#xf76c;" horiz-adv-x="1044" 
d="M84 0q0 109 2 168l90 2q8 0 8 8v717l-98 4q0 117 2 170h551q0 -111 -2 -170l-113 -4q-6 0 -6 -6l-4 -684q0 -25 11 -31t79 -6t133 10q20 6 29 33l63 178q66 -10 197 -35q-29 -164 -74 -356l-606 2h-262z" />
    <glyph glyph-name="m.sc" unicode="&#xf76d;" horiz-adv-x="1599" 
d="M182 180q0 76 6 709l-100 4q0 123 2 178h494q123 -315 223 -653h18q102 336 230 653h458l-2 -178l-92 -4q-6 0 -6 -8q4 -218 4 -707l101 -4q0 -117 -2 -170h-506q0 113 2 170l98 4q8 0 8 6q2 197 6 516h-18q-113 -319 -254 -635q-41 -2 -180 -2q-139 309 -244 660h-20
l-2 -545l122 -4q0 -117 -2 -170h-448l2 170l94 4q8 0 8 6z" />
    <glyph glyph-name="n.sc" unicode="&#xf76e;" horiz-adv-x="1335" 
d="M186 182v717l-108 2l2 168h387q256 -352 461 -702h14q-2 195 -10 532l-129 2l2 168h244l213 2q0 -109 -2 -168l-82 -4q-6 0 -7 -8l-10 -875q-92 -37 -252 -36q-262 307 -477 651h-16v-455l133 -6q0 -59 -4 -170l-266 2l-193 -2q0 111 2 170l92 4q6 6 6 8z" />
    <glyph glyph-name="o.sc" unicode="&#xf76f;" horiz-adv-x="1339" 
d="M679 143q89 0 144 80q72 99 72 287t-59 307q-54 113 -152 113t-158 -82q-82 -114 -82 -320t82 -307q64 -78 153 -78zM656 -20q-264 0 -420 139t-156 407q0 156 73 284q160 280 558 282q211 0 352 -103q92 -67 144 -179q53 -112 53 -243t-46 -249t-133 -195
q-161 -143 -425 -143z" />
    <glyph glyph-name="p.sc" unicode="&#xf770;" horiz-adv-x="1128" 
d="M727 710q0 96 -50 147q-50 52 -130 52q-21 0 -37 -4l-2 -360q0 -19 57 -19t109 44t53 140zM184 178v719l-104 2v168q308 4 482 4t275 -32q101 -31 164 -117t63 -188t-56 -183q-57 -82 -148 -127q-132 -64 -236 -64t-116 2l-2 -190l158 -6v-166l-336 2l-246 -2
q0 111 2 166l94 6q6 0 6 6z" />
    <glyph glyph-name="q.sc" unicode="&#xf771;" horiz-adv-x="1335" 
d="M446 537q0 -240 82 -324q66 -72 157 -72t140 78q70 101 70 291q1 190 -59 306t-149 116t-150 -62q-91 -93 -91 -333zM1138 -307q-102 0 -167 28q-133 68 -342 259h-23q-221 0 -377 145q-150 145 -149 401q0 156 72 279t182 190q152 97 364 97t361 -103q92 -67 145 -181
t53 -245q0 -272 -186 -440q-92 -78 -158 -98v-9q183 -108 327 -108q74 0 151 14q16 -100 20 -170q-171 -59 -273 -59z" />
    <glyph glyph-name="r.sc" unicode="&#xf772;" horiz-adv-x="1212" 
d="M551 557q86 0 134 45t48 125t-49 131t-121 51q-35 0 -51 -6l-2 -344q6 -2 41 -2zM549 1071q159 1 271 -23t182 -102t69 -171q0 -93 -60 -168t-157 -111v-9q37 -16 71 -58t53 -80q20 -39 60 -115t64 -78l84 -11v-143q-57 -2 -166 -2l-217 -2q-49 80 -160 328
q-33 70 -94 69q-31 0 -39 -4l-2 -219l92 -6l-2 -166h-510q2 55 2 166l90 6q4 0 4 4l2 721l-98 2q0 113 2 168q299 4 459 4z" />
    <glyph glyph-name="s.sc" unicode="&#xf773;" horiz-adv-x="1038" 
d="M428 803q0 -51 40 -76t175 -68q309 -100 309 -319q0 -166 -132 -263t-410 -97q-188 0 -297 38q-31 223 -41 322q96 19 200 33l52 -166q19 -46 125 -46q106 1 144 33t38 76t-36 67q-36 24 -94 44t-67 22q-326 119 -325 332q0 145 118 250q127 106 416 107q164 0 260 -35
q16 -131 27 -320q-154 -16 -197 -20l-41 153q-13 40 -98 39q-166 0 -166 -106z" />
    <glyph glyph-name="t.sc" unicode="&#xf774;" horiz-adv-x="1204" 
d="M434 182v711q-55 0 -108 -8q-31 -6 -35 -33l-33 -168q-18 1 -207 14q6 143 23 373l196 -2h668q68 2 197 2q18 -348 18 -371q-121 -12 -209 -16l-29 168q-5 25 -41 32t-104 7l-4 -717l131 -4q0 -115 -2 -170l-293 2l-299 -2l2 170l123 4q6 0 6 8z" />
    <glyph glyph-name="u.sc" unicode="&#xf775;" horiz-adv-x="1288" 
d="M683 172q73 0 114 43q65 70 65 257t-4 421q0 6 -8 6l-121 2q0 117 2 170l264 -2l226 2q0 -111 -2 -170l-89 -4l-4 -418q-2 -266 -125 -383q-123 -116 -359 -116t-360 106t-124 340v463q0 10 -11 10l-81 4q0 115 2 168l258 -2l295 2q0 -111 -3 -170l-118 -2l-4 -455
q0 -176 71 -235q43 -37 116 -37z" />
    <glyph glyph-name="v.sc" unicode="&#xf776;" horiz-adv-x="1220" 
d="M750 1069h276l197 2q0 -109 -2 -170l-95 -2q-34 -78 -148 -357q-113 -280 -241 -556q-68 -6 -299 -6q-114 276 -218 568t-120 345q-2 6 -8 6l-88 4l2 168h598l-2 -170l-125 -4l168 -627h17q68 214 117 356t79 263q4 8 -6 8l-102 2v170z" />
    <glyph glyph-name="w.sc" unicode="&#xf777;" horiz-adv-x="1658" 
d="M604 1069q0 -109 -2 -168l-121 -4l68 -610h14q78 305 191 712q94 12 250 7q139 -535 174 -717h18l86 598q2 8 -6 8l-111 2q0 121 2 172h283l192 2q0 -111 -2 -172l-92 -2q-176 -639 -262 -913q-115 -4 -295 -4q-104 326 -160 573h-14q-59 -219 -182 -569q-115 -4 -291 -4
q-95 365 -154 629q-59 265 -61 277t-8 11l-94 4q0 117 2 170l247 -2h328z" />
    <glyph glyph-name="x.sc" unicode="&#xf778;" horiz-adv-x="1220" 
d="M610 0q0 113 2 170l80 4q17 0 2 18t-123 183h-12q-113 -156 -141 -201l86 -4q0 -115 -2 -170l-291 2l-191 -2q1 111 3 170l102 4q9 0 29 22t121 133q101 112 167 181v12q-109 133 -280 371q-4 4 -10 4l-105 4q0 119 2 168h246l330 2q0 -111 -2 -170l-80 -4
q109 -173 119 -188h12q82 113 119 180q4 8 -7 8l-71 2q0 119 2 170h284l177 2q0 -111 -2 -170l-97 -4q-172 -197 -293 -319v-11q113 -139 308 -395l100 -4q0 -115 -2 -168h-582z" />
    <glyph glyph-name="y.sc" unicode="&#xf779;" horiz-adv-x="1140" 
d="M397 184v215q-170 276 -286 490q-6 10 -13 10l-80 4l2 168h568l-2 -170l-97 -4q92 -207 146 -315h8q90 172 150 305q4 10 -7 10l-84 2q0 117 3 170h272q53 2 170 2q0 -111 -2 -170l-88 -4q-23 -33 -146 -224t-180 -276l-2 -221l129 -6q0 -115 -2 -170l-291 2l-293 -2
q0 51 4 170l115 6q6 0 6 8z" />
    <glyph glyph-name="z.sc" unicode="&#xf77a;" horiz-adv-x="1144" 
d="M506 1069q284 0 502 2q33 -86 57 -192q-283 -332 -600 -682l2 -7q213 0 287 19q35 6 53 51l59 152q86 -14 209 -43q-39 -184 -86 -371l-583 2h-293q-12 25 -54 135q362 457 607 737l-2 9q-219 -1 -249 -11t-40 -39l-66 -169q-195 37 -205 38q33 203 70 373q48 -4 332 -4z
" />
    <glyph glyph-name="exclamdown.sc" unicode="&#xf7a1;" horiz-adv-x="616" 
d="M123 -20q-4 0 -4 2q10 68 47 334t47 331q76 23 195 23q7 -35 39 -246t71 -412q-131 -32 -395 -32zM303 768q-74 0 -119 47t-45 118t48 115t121 44t122 -43t49 -113t-51 -119t-125 -49z" />
    <glyph glyph-name="cent.oldstyle" unicode="&#xf7a2;" horiz-adv-x="929" 
d="M346 441q0 -169 143 -199l5 440q-60 -18 -104 -86t-44 -155zM63 403q0 167 118 291t319 148v172q61 12 151 16l-4 -182h21q125 0 217 -49q0 -45 -29 -107t-55 -80q-92 66 -162 68l-8 -438q63 0 209 41q20 -53 34 -125q-100 -57 -241 -76l-2 -199q-74 -10 -144 -12l2 203
q-184 2 -305 82t-121 247z" />
    <glyph glyph-name="dieresis.sc" unicode="&#xf7a8;" horiz-adv-x="921" 
d="M656 1479q58 0 92 -37t34 -87t-38 -85t-91 -35t-88 35t-35 87t34 87t92 35zM266 1479q57 0 91 -35t34 -87t-36 -87t-89 -35t-90 35t-37 85t35 87t92 37z" />
    <glyph glyph-name="macron.sc" unicode="&#xf7af;" horiz-adv-x="921" 
d="M707 1264l-488 2q-6 59 -2 143q332 4 490 4q4 -76 0 -149z" />
    <glyph glyph-name="acute.sc" unicode="&#xf7b4;" horiz-adv-x="921" 
d="M309 1319l385 225q33 -51 97 -182q-330 -133 -416 -168q-41 70 -66 125z" />
    <glyph glyph-name="cedilla.sc" unicode="&#xf7b8;" horiz-adv-x="921" 
d="M795 -301q0 -95 -89 -157t-257 -62q-8 47 -13 117q172 6 172 100q0 25 -26 55t-99 23l-24 69l192 162h172l-172 -145q61 -11 103 -55t41 -107z" />
    <glyph glyph-name="questiondown.sc" unicode="&#xf7bf;" horiz-adv-x="1007" 
d="M516 -20q-222 0 -332 68t-110 187t77 191t236 145q27 14 27 46t-8 83q86 33 233 39q25 -31 47 -89t25 -103q-152 -86 -212 -140t-61 -124q0 -113 119 -113q61 0 105 25q8 4 12 20l41 141q117 -6 205 -20q-14 -254 -19 -295q-163 -61 -385 -61zM523 797q-73 0 -119 42
t-46 106q0 63 48 105t120 42t122 -41t50 -103t-51 -106q-51 -45 -124 -45z" />
    <glyph glyph-name="agrave.sc" unicode="&#xf7e0;" horiz-adv-x="1189" 
d="M418 1540q74 -47 368 -240q-33 -61 -71 -120q-342 158 -398 180q48 96 101 180zM426 424h250q-29 80 -115 350h-16q-23 -63 -64 -178q-41 -116 -52 -144t-3 -28zM0 0q0 105 2 164l78 4q4 0 10 8q240 590 377 899q57 6 285 6q28 -72 156 -421t184 -492l84 -4v-164h-519
l2 164l91 4q4 0 4 10q-20 60 -26 76t-15 16l-344 -2q-4 -14 -14 -42t-17 -58l100 -4q0 -113 -2 -164h-436z" />
    <glyph glyph-name="aacute.sc" unicode="&#xf7e1;" horiz-adv-x="1189" 
d="M442 1303l387 225q33 -51 97 -182l-416 -168q-20 31 -68 125zM426 424h250q-29 80 -115 350h-16q-23 -63 -64 -178q-41 -116 -52 -144t-3 -28zM0 0q0 105 2 164l78 4q4 0 10 8q240 590 377 899q57 6 285 6q28 -72 156 -421t184 -492l84 -4v-164h-519l2 164l91 4q4 0 4 10
q-20 60 -26 76t-15 16l-344 -2q-4 -14 -14 -42t-17 -58l100 -4q0 -113 -2 -164h-436z" />
    <glyph glyph-name="acircumflex.sc" unicode="&#xf7e2;" horiz-adv-x="1189" 
d="M297 1268l248 288h131l250 -288q-55 -59 -97 -90q-115 108 -219 200q-129 -123 -211 -198q-63 51 -102 88zM426 424h250q-29 80 -115 350h-16q-23 -63 -64 -178q-41 -116 -52 -144t-3 -28zM0 0q0 105 2 164l78 4q4 0 10 8q240 590 377 899q57 6 285 6q28 -72 156 -421
t184 -492l84 -4v-164h-519l2 164l91 4q4 0 4 10q-20 60 -26 76t-15 16l-344 -2q-4 -14 -14 -42t-17 -58l100 -4q0 -113 -2 -164h-436z" />
    <glyph glyph-name="atilde.sc" unicode="&#xf7e3;" horiz-adv-x="1189" 
d="M725 1202q-47 0 -200 102q-27 15 -56 15q-63 0 -80 -107h-117q12 121 60 195t135 74q40 0 77 -20t95 -57q58 -38 94 -38q59 0 74 104q61 4 115 0q-8 -120 -58 -194t-139 -74zM426 424h250q-56 151 -115 350h-18q-117 -332 -121 -341t4 -9zM0 0q0 105 2 164l78 4q4 0 10 8
q240 590 377 899q57 6 285 6q28 -72 156 -421t184 -492l84 -4v-164h-519l2 164l91 4q4 0 4 10q-20 60 -26 76t-15 16l-344 -2q-4 -14 -14 -42t-17 -58l100 -4q0 -113 -2 -164h-436z" />
    <glyph glyph-name="adieresis.sc" unicode="&#xf7e4;" horiz-adv-x="1189" 
d="M678 1342q0 52 34 88q34 34 92 34t92 -37t34 -87t-38 -85t-91 -35t-88 36q-35 34 -35 86zM414 1464q57 0 91 -34t34 -87q0 -51 -36 -87t-89 -36t-90 36q-37 34 -37 84t35 87t92 37zM426 424h252q-33 84 -117 350h-18q-73 -197 -119 -340q-4 -10 2 -10zM0 0q0 105 2 164
l78 4q4 0 10 8q240 590 377 899q57 6 285 6q28 -72 156 -421t184 -492l84 -4v-164h-519l2 164l91 4q4 0 4 10q-20 60 -26 76t-15 16l-344 -2q-4 -14 -14 -42t-17 -58l100 -4q0 -113 -2 -164h-436z" />
    <glyph glyph-name="aring.sc" unicode="&#xf7e5;" horiz-adv-x="1189" 
d="M715 1407q0 100 -105 100q-44 -1 -74 -29t-30 -73t32 -75t76 -30t72 30q29 30 29 77zM614 1612q106 0 178 -56t70 -146q0 -90 -75 -152t-179 -62t-178 56t-74 146t76 152t182 62zM424 424h252q-45 125 -117 350h-16q-23 -63 -121 -340q-4 -10 2 -10zM0 0q0 105 2 164
l78 4q4 0 10 8q240 590 377 899q57 6 285 6q28 -72 156 -421t184 -492l84 -4v-164h-519l2 164l91 4q4 0 4 10q-20 60 -26 76t-15 16l-344 -2q-4 -14 -14 -42t-17 -58l100 -4q0 -113 -2 -164h-436z" />
    <glyph glyph-name="ae.sc" unicode="&#xf7e6;" horiz-adv-x="1691" 
d="M809 913h-14q-47 -76 -215 -370q-2 -8 6 -8l223 -3v381zM809 178v187q0 6 -12 6l-305 -2q-47 -86 -97 -193l101 -6q0 -117 -2 -170h-496q0 106 2 170l117 8q8 0 10 8q322 543 535 875q10 10 16 10q55 -2 285 -2h612q12 -162 16 -305q-74 -8 -192 -19l-31 111
q-6 27 -35 29q-143 10 -182 10h-16v-307q111 4 151 4q16 0 23 33l10 57q129 0 188 -4v-180q-2 -49 -2 -148q-184 -6 -188 -6l-8 39q-6 35 -29 35q-49 2 -147 2v-209q0 -25 16 -32t91 -7t109 9t46 34l43 92q84 -12 194 -35q-31 -166 -57 -274l-598 2l-297 -2v170l121 4
q8 0 8 6z" />
    <glyph glyph-name="ccedilla.sc" unicode="&#xf7e7;" horiz-adv-x="1142" 
d="M621 -18q-201 0 -342 100q-87 60 -143 162t-56 227q0 307 242 487q182 133 438 134q176 0 256 -25q25 -225 31 -362q-188 -23 -209 -25l-43 176q-4 18 -13 23q-29 14 -71 14q-94 0 -164 -68q-107 -111 -107 -300t103 -273q70 -59 192 -59t281 45q23 -111 33 -183
q-102 -39 -220 -57l-161 -139q61 -9 102 -53t41 -107q0 -95 -89 -157t-257 -62q-8 47 -12 117q172 6 172 100q0 25 -27 53t-98 23l-25 71l164 138h-18z" />
    <glyph glyph-name="egrave.sc" unicode="&#xf7e8;" horiz-adv-x="1087" 
d="M395 1554q137 -86 367 -239q-31 -66 -70 -123q-260 123 -397 182q47 96 100 180zM516 459v-248q0 -25 16 -32t90 -7t112 7t50 36l50 119q78 -12 194 -35q-18 -102 -63 -299h-881v168l94 4q8 0 8 6v717l-104 2q0 119 2 172h881q14 -168 16 -307l-193 -17l-30 111
q-6 25 -35 29q-143 10 -188 10h-17l-2 -268l160 4q20 0 22 31l11 47q68 2 188 -2v-170q-2 -59 -2 -164q-123 -4 -188 -4l-9 53q-8 35 -26 35q-57 2 -156 2z" />
    <glyph glyph-name="eacute.sc" unicode="&#xf7e9;" horiz-adv-x="1087" 
d="M371 1315q170 102 385 227q37 -57 96 -184l-414 -168q-12 20 -67 125zM516 459v-248q0 -25 16 -32t90 -7t112 7t50 36l50 119q78 -12 194 -35q-18 -102 -63 -299h-881v168l94 4q8 0 8 6v717l-104 2q0 119 2 172h881q14 -168 16 -307l-193 -17l-30 111q-6 25 -35 29
q-143 10 -188 10h-17l-2 -268l160 4q20 0 22 31l11 47q68 2 188 -2v-170q-2 -59 -2 -164q-123 -4 -188 -4l-9 53q-8 35 -26 35q-57 2 -156 2z" />
    <glyph glyph-name="ecircumflex.sc" unicode="&#xf7ea;" horiz-adv-x="1087" 
d="M225 1284l248 289h129l250 -289q-45 -49 -96 -90q-115 109 -219 201l-209 -199q-45 35 -103 88zM516 459v-248q0 -25 16 -32t90 -7t112 7t50 36l50 119q78 -12 194 -35q-18 -102 -63 -299h-881v168l94 4q8 0 8 6v717l-104 2q0 119 2 172h881q14 -168 16 -307l-193 -17
l-30 111q-6 25 -35 29q-143 10 -188 10h-17l-2 -268l160 4q20 0 22 31l11 47q68 2 188 -2v-170q-2 -59 -2 -164q-123 -4 -188 -4l-9 53q-8 35 -26 35q-57 2 -156 2z" />
    <glyph glyph-name="edieresis.sc" unicode="&#xf7eb;" horiz-adv-x="1087" 
d="M742 1479q58 0 92 -37t34 -87t-38 -85t-91 -35t-88 35t-35 87t34 87t92 35zM352 1479q57 0 91 -35t34 -87t-36 -87t-89 -35t-90 35t-37 85t35 87t92 37zM516 459v-248q0 -25 16 -32t90 -7t112 7t50 36l50 119q78 -12 194 -35q-18 -102 -63 -299h-881v168l94 4q8 0 8 6
v717l-104 2q0 119 2 172h881q14 -168 16 -307l-193 -17l-30 111q-6 25 -35 29q-143 10 -188 10h-17l-2 -268l160 4q20 0 22 31l11 47q68 2 188 -2v-170q-2 -59 -2 -164q-123 -4 -188 -4l-9 53q-8 35 -26 35q-57 2 -156 2z" />
    <glyph glyph-name="igrave.sc" unicode="&#xf7ec;" horiz-adv-x="706" 
d="M168 1554q29 -18 367 -239q-33 -61 -72 -121q-342 158 -397 180q41 84 102 180zM184 182v715l-123 4q0 117 2 170l295 -2l287 2q0 -111 -2 -170l-119 -4q-4 0 -4 -8l-4 -713l127 -6q0 -115 -2 -170l-289 2l-291 -2v170l117 6q6 0 6 6z" />
    <glyph glyph-name="iacute.sc" unicode="&#xf7ed;" horiz-adv-x="706" 
d="M162 1317q168 95 385 227q33 -53 96 -184l-414 -168q-37 66 -67 125zM184 182v715l-123 4q0 117 2 170l295 -2l287 2q0 -111 -2 -170l-119 -4q-4 0 -4 -8l-4 -713l127 -6q0 -115 -2 -170l-289 2l-291 -2v170l117 6q6 0 6 6z" />
    <glyph glyph-name="icircumflex.sc" unicode="&#xf7ee;" horiz-adv-x="706" 
d="M45 1284l248 289h129q55 -59 250 -289q-45 -49 -97 -90q-156 146 -217 201q-188 -178 -211 -197q-53 41 -102 86zM184 182v715l-123 4q0 117 2 170l295 -2l287 2q0 -111 -2 -170l-119 -4q-4 0 -4 -8l-4 -713l127 -6q0 -115 -2 -170l-289 2l-291 -2v170l117 6q6 0 6 6z
" />
    <glyph glyph-name="idieresis.sc" unicode="&#xf7ef;" horiz-adv-x="706" 
d="M550 1479q58 0 92 -37t34 -87t-38 -85t-91 -35t-88 35t-35 87t34 87t92 35zM160 1479q57 0 91 -35t34 -87t-36 -87t-89 -35t-90 35t-37 85t35 87t92 37zM184 182v715l-123 4q0 117 2 170l295 -2l287 2q0 -111 -2 -170l-119 -4q-4 0 -4 -8l-4 -713l127 -6q0 -115 -2 -170
l-289 2l-291 -2v170l117 6q6 0 6 6z" />
    </font>
</defs>
</svg>
