<?xml version="1.0" standalone="no"?>
<!DOCTYPE svg PUBLIC "-//W3C//DTD SVG 1.1//EN" "http://www.w3.org/Graphics/SVG/1.1/DTD/svg11.dtd" >
<svg xmlns="http://www.w3.org/2000/svg">
<metadata>
Created by FontPrep 20130207 at Wed Mar 25 10:59:13 2015
 By Bradley Gorman
(c) 1997, 2000 Adobe Systems Incorporated. All rights reserved.
</metadata>
<defs>
<font id="6907c3c8455b0e3c9428566fec2b5b89" horiz-adv-x='1024' >
  <font-face 
    font-family="ChaparralPro-BoldIt"
    font-weight="700"
    font-style="italic"
    font-stretch="normal"
    units-per-em="2048"
    panose-1="2 6 8 3 5 5 5 9 2 3"
    ascent="1516"
    descent="-532"
    x-height="905"
    cap-height="1331"
    bbox="-397 -754 2519.01 1851"
    underline-thickness="110"
    underline-position="-94"
    slope="-10"
    unicode-range="U+0020-FB04"
  />
<missing-glyph horiz-adv-x="1024" 
d="M102 1241v-1046l349 524zM164 102h696l-348 523zM573 719l349 -524v1046zM512 811l348 522h-696zM0 0v1436h1024v-1436h-1024z" />
    <glyph glyph-name="T_h" unicode="Th" horiz-adv-x="2136" 
d="M1589 1331q29 0 23 -26q-117 -475 -150 -621l17 -6q111 129 212 186t175 60q43 -8 90 -43t66 -71t20 -85q0 -150 -129 -541q-4 -16 9 -16t112 16q8 -76 12 -157q-141 -45 -377 -45q-14 0 -47 30t-41 60q141 488 141 544q0 14 -10 26t-26 13q-70 1 -164 -119t-121 -224
t-74 -310q-102 -2 -303 -2l236 1092q4 24 -8 34t-40 11l-362 10l-168 -965l156 -8q-10 -68 -33 -174h-623q23 127 33 174l121 6q12 0 12 13l164 954q-74 0 -145 -10q-35 -4 -48 -39l-63 -199q-95 5 -197 14q33 190 80 420l187 -2h1263z" />
    <glyph glyph-name="Tcaron_h" unicode="&#x164;h" horiz-adv-x="2136" 
d="M1087 1690q-113 -77 -331 -234q-63 0 -90 2q-106 100 -252 236q43 51 92 94q122 -78 231 -152q202 106 283 154q27 -33 67 -100zM1589 1331q29 0 23 -26q-117 -475 -150 -621l17 -6q111 129 212 186t175 60q43 -8 90 -43t66 -71t20 -85q0 -150 -129 -541q-4 -16 9 -16
t112 16q8 -76 12 -157q-141 -45 -377 -45q-14 0 -47 30t-41 60q141 488 141 544q0 14 -10 26t-26 13q-70 1 -164 -119t-121 -224t-74 -310q-102 -2 -303 -2l236 1092q4 24 -8 34t-40 11l-362 10l-168 -965l156 -8q-10 -68 -33 -174h-623q23 127 33 174l121 6q12 0 12 13
l164 954q-74 0 -145 -10q-35 -4 -48 -39l-63 -199q-95 5 -197 14q33 190 80 420l187 -2h1263z" />
    <glyph glyph-name="Tcommaaccent_h" unicode="&#x162;h" horiz-adv-x="2136" 
d="M668 -244q0 -147 -104 -271t-236 -187q-49 57 -72 96q180 123 180 231q0 68 -98 101q14 98 68 147t113 49q60 0 105 -51q44 -52 44 -115zM1589 1331q29 0 23 -26q-117 -475 -150 -621l17 -6q111 129 212 186t175 60q43 -8 90 -43t66 -71t20 -85q0 -150 -129 -541
q-4 -16 9 -16t112 16q8 -76 12 -157q-141 -45 -377 -45q-14 0 -47 30t-41 60q141 488 141 544q0 14 -10 26t-26 13q-70 1 -164 -119t-121 -224t-74 -310q-102 -2 -303 -2l236 1092q4 24 -8 34t-40 11l-362 10l-168 -965l156 -8q-10 -68 -33 -174h-623q10 47 33 174l123 6
q8 0 12 13l162 954q-74 0 -145 -10q-35 -4 -48 -39l-63 -199q-32 2 -100 7t-97 7q33 190 80 420l187 -2h1263z" />
    <glyph glyph-name="f_f_j" unicode="ffj" horiz-adv-x="1845" 
d="M786 1401q78 0 127 -25q0 -41 -41 -126t-79 -109q-99 49 -145 49t-70 -35q-25 -41 -60 -260h318q10 4 12 10q27 158 59 228q33 70 123 139q178 141 393 141q147 0 295 -57q0 -39 -45 -125t-86 -111q-189 84 -267 84t-110 -42t-65 -267l301 6l246 29q18 0 54 -30t50 -54
q-118 -638 -140 -734t-48 -158t-88 -152q-64 -90 -142 -164t-131 -109t-69 -35q-35 2 -105 71t-80 116q176 55 254 139q51 55 73 124q22 70 46 208t88 557q-289 4 -340 4q-94 -543 -188 -1061q-92 -6 -283 -6q45 276 174 1065h-328q-3 -23 -73 -431t-109 -634
q-94 -4 -287 -4q100 614 170 1069h-157l30 172q82 6 142 10q18 4 20 16q29 156 58 219t120 136q176 137 383 137z" />
    <glyph glyph-name="f_j" unicode="fj" horiz-adv-x="1263" 
d="M824 1413q138 0 286 -57q0 -39 -46 -125t-87 -113q-184 84 -291 84q-66 0 -94 -37q-45 -61 -68 -270q314 0 407 13q93 12 132 20t52 8t49 -30t50 -54q-118 -637 -140 -733q-22 -97 -48 -159t-88 -152q-63 -90 -141 -164t-131 -110t-79 -35q-25 1 -95 71t-80 117
q178 55 254 139q51 55 72 124q40 125 139 761h-375q-78 -459 -183 -1065q-96 -4 -294 -4q156 983 170 1073h-156q12 84 31 168q68 6 139 10q14 0 16 16q23 153 57 221t130 144t185 108t227 31z" />
    <glyph glyph-name="f_f" unicode="ff" horiz-adv-x="1380" 
d="M791 1401q78 0 127 -25q0 -43 -42 -127t-81 -108q-97 49 -145 49q-76 0 -96 -99q-5 -26 -10 -50t-26 -146h316q12 0 16 14q31 162 60 228q30 66 118 135q178 141 391 141q84 0 156 -33q0 -43 -42 -128t-81 -109q-119 59 -170 59t-75 -36t-60 -271q190 0 270 2
q-18 -109 -39 -186h-262q-24 -141 -90 -499t-100 -560q-92 -6 -285 -6q166 999 176 1065h-325q-143 -792 -187 -1065q-92 -4 -287 -4q156 950 175 1069h-158q4 23 33 172q72 6 137 10q18 0 18 16q29 155 58 219t116 132q179 141 394 141z" />
    <glyph glyph-name="f_f_i" unicode="ffi" horiz-adv-x="1865" 
d="M788 1401q63 0 125 -25q0 -41 -41 -127t-79 -110q-81 51 -135 51t-80 -37q-25 -39 -58 -258h316q12 0 14 14q28 154 60 223q32 70 126 144t184 106t221 31q130 0 277 -57q0 -39 -45 -125t-86 -113q-189 84 -267 84t-108 -37q-35 -49 -67 -270q279 0 395 14q116 15 128 15
t46 -31q35 -31 49 -53q-123 -573 -143 -660q-4 -14 8 -14q35 0 127 20q12 -106 14 -161q-145 -43 -374 -43q-14 0 -48 32t-42 58q113 553 131 645q-90 -2 -322 -2q-29 -158 -91 -513t-97 -550q-92 -6 -283 -6q86 520 172 1065h-326q-20 -115 -82 -483t-100 -582
q-94 -4 -287 -4q100 614 170 1069h-157l30 172q82 6 142 10q18 4 20 16q29 156 58 219t120 134q174 139 385 139z" />
    <glyph glyph-name="f_f_l" unicode="ffl" horiz-adv-x="1875" 
d="M1317 1219q-70 1 -106 -51t-66 -273q217 0 323 2q37 193 60 289q-94 33 -211 33zM1430 1409q110 0 230 -25t200 -63q-23 -102 -125 -595t-113 -542q-8 -16 6 -16q45 0 156 18q12 -111 16 -166q-215 -39 -401 -38q-12 0 -47 28t-45 56q51 240 131 649h-320
q-33 -178 -192 -1063q-92 -6 -283 -6q115 674 174 1065h-328q-17 -94 -81 -469t-101 -596q-94 -4 -287 -4q104 621 170 1069h-155q2 29 31 172q78 6 141 10q16 4 18 16q27 154 56 216t116 132q178 141 391 142q76 0 130 -25q0 -41 -42 -126t-79 -105q-111 49 -151 49
t-66 -36t-62 -261h313q12 0 19 14q29 158 60 227q32 69 120 136q96 78 192 108q98 30 208 29z" />
    <glyph glyph-name="f_i" unicode="fi" horiz-adv-x="1247" 
d="M1012 166q35 0 127 20q12 -106 14 -161q-145 -43 -375 -43q-14 0 -50 34t-46 58q23 113 71 345t60 296h-317q-150 -891 -181 -1069q-96 -4 -295 -4q156 983 170 1073h-155q25 133 31 168q76 6 139 10q14 4 16 16q25 151 58 221t129 145t186 107t228 31q138 0 284 -57
q0 -39 -45 -125t-86 -113q-191 84 -275 84t-112 -37q-41 -57 -66 -270q266 0 527 29q14 0 48 -30t50 -54q-129 -600 -143 -660q-4 -14 8 -14z" />
    <glyph glyph-name="f_l" unicode="fl" horiz-adv-x="1253" 
d="M684 1214q-68 0 -104 -47q-33 -49 -64 -274q224 0 330 4q35 178 57 285q-98 32 -219 32zM804 1409q114 0 233 -25q120 -25 200 -63q-32 -142 -129 -618q-98 -475 -106 -505t4 -30q45 0 155 18q12 -111 17 -166q-215 -39 -400 -38q-12 0 -48 30t-50 56q10 55 57 283
t74 364l-317 -2q-141 -838 -183 -1067q-94 -4 -291 -4q143 903 170 1071h-153q12 94 29 170q76 6 139 10q14 0 16 14q27 156 60 226q33 69 125 143t188 104t210 29z" />
    <glyph glyph-name="uni021A_h" unicode="&#x21a;h" horiz-adv-x="2136" 
d="M668 -244q0 -147 -104 -271t-236 -187q-49 57 -72 96q180 123 180 231q0 68 -98 101q14 98 68 147t113 49q60 0 105 -51q44 -52 44 -115zM1589 1331q29 0 23 -26q-117 -475 -150 -621l17 -6q111 129 212 186t175 60q43 -8 90 -43t66 -71t20 -85q0 -150 -129 -541
q-4 -16 8 -16q35 0 113 16q8 -76 12 -157q-141 -45 -377 -45q-14 0 -47 30t-41 60q141 488 141 536q0 47 -36 47q-70 1 -164 -119t-119 -214t-76 -320q-102 -2 -303 -2l236 1092q4 24 -8 34t-40 11l-362 10l-168 -965l156 -8q-10 -68 -33 -174h-623q10 47 33 174l123 6
q8 0 12 13l162 954q-74 0 -145 -10q-35 -4 -48 -39l-63 -199q-32 2 -100 7t-97 7q33 190 80 420l187 -2h1263z" />
    <glyph glyph-name=".notdef" horiz-adv-x="1024" 
d="M102 1241v-1046l349 524zM164 102h696l-348 523zM573 719l349 -524v1046zM512 811l348 522h-696zM0 0v1436h1024v-1436h-1024z" />
    <glyph glyph-name=".null" horiz-adv-x="0" 
 />
    <glyph glyph-name="nonmarkingreturn" horiz-adv-x="681" 
 />
    <glyph glyph-name="space" unicode=" " horiz-adv-x="370" 
 />
    <glyph glyph-name="exclam" unicode="!" horiz-adv-x="614" 
d="M251 297q71 0 113 -45t42 -114q0 -70 -50 -114t-124 -44t-116 38t-42 108q0 69 53 120t124 51zM186 426l21 401q16 236 16 467q55 12 203 26t201 13q1 -2 -11 -46t-106 -396t-119 -440q-78 -25 -205 -25z" />
    <glyph glyph-name="quotedbl" unicode="&#x22;" horiz-adv-x="897" 
d="M909 1436q-137 -541 -151 -615q-53 -14 -150 -14q25 291 37 602q82 27 264 27zM506 1436q-137 -541 -152 -615q-53 -14 -149 -14q25 291 37 602q84 27 264 27z" />
    <glyph glyph-name="numbersign" unicode="#" horiz-adv-x="1130" 
d="M453 551h202l93 276h-205q-90 -274 -90 -276zM600 389l-207 -2q-106 -301 -123 -350q-68 -6 -168 -2q12 39 55 162q42 123 62 190q-41 0 -111 -1t-94 -1q16 88 37 168h225q53 162 89 276h-222q18 109 31 158h244q82 238 114 336q61 4 187 4q-8 -20 -119 -338h201
q20 61 57 174t53 160q59 2 187 2q-37 -106 -117 -336q143 4 197 4q-14 -98 -35 -166h-221l-91 -276h213q-10 -82 -32 -160l-240 -2q-78 -227 -123 -352q-113 -4 -168 -2q20 59 119 354z" />
    <glyph glyph-name="dollar" unicode="$" horiz-adv-x="1130" 
d="M709 381q0 90 -111 133q-6 -31 -26 -133t-31 -158q76 4 122 46t46 112zM422 946q0 -88 125 -121q33 180 47 267q-74 -2 -117 -35q-55 -39 -55 -111zM147 893q-1 86 53 166q124 186 423 203q6 36 17 100t15 86q82 14 162 18q-11 -56 -21 -118q-11 -62 -16 -84
q164 0 258 -50q-8 -49 -44 -112t-68 -90q-86 59 -176 75q-12 -72 -58 -307q150 -57 222 -127t71 -194q0 -78 -41 -154q-115 -213 -436 -242q-4 -16 -16 -86t-21 -108q-102 -8 -152 -10q7 33 19 97t18 97q-205 0 -325 72q8 47 45 112t74 97q137 -98 241 -109q31 152 64 328
q-150 69 -229 141t-79 199z" />
    <glyph glyph-name="percent" unicode="%" horiz-adv-x="1824" 
d="M1337 102q35 0 63 30t56 140t27 212q0 104 -62 104q-39 0 -69 -37t-54 -141t-24 -179t14 -102t49 -27zM1307 -20q-137 0 -206 88t-69 196t47 208q113 237 375 237q121 0 195 -76q73 -76 73 -204t-52 -229t-138 -161q-88 -59 -225 -59zM425 733q37 0 65 30q28 31 56 139
t28 187t-16 103q-15 24 -52 25q-37 0 -66 -37q-30 -38 -54 -142t-24 -178t13 -96q14 -31 50 -31zM1245 1206q-2 0 -477 6q45 -63 45 -172t-53 -210q-114 -218 -365 -220q-137 0 -206 88t-68 217q0 89 47 187t123 158q104 76 250 79q545 0 884 13q39 -70 66 -135
q-102 -123 -318 -380t-439 -533q-224 -275 -306 -374q-82 51 -129 90q522 637 946 1174v12z" />
    <glyph glyph-name="ampersand" unicode="&#x26;" horiz-adv-x="1497" 
d="M326 369q0 -77 55 -137t170 -60t217 76q-152 195 -344 354q-98 -98 -98 -233zM745 1044q1 52 -27 92t-85 40t-97 -42t-40 -114t50 -132q15 -19 56 -63q143 74 143 219zM-4 292q0 146 85 254t230 169l2 8q-121 121 -121 267t134 248q132 103 324 103q192 -1 279 -81
t87 -190t-72 -196q-72 -88 -209 -145v-8q150 -131 264 -281q78 74 99 201q-2 18 -8 18l-99 7q10 55 31 153h238l200 2q-8 -92 -20 -155l-90 -9q-63 -197 -240 -348q22 -29 56 -67t49 -60q15 -21 47 -20l124 -2q-10 -86 -28 -158q-23 -2 -387 -22l-101 135
q-102 -70 -199 -103t-233 -32q-205 0 -311 75q-131 91 -131 237z" />
    <glyph glyph-name="quotesingle" unicode="'" horiz-adv-x="493" 
d="M506 1436q-137 -541 -152 -615q-53 -14 -149 -14q25 291 37 602q84 27 264 27z" />
    <glyph glyph-name="parenleft" unicode="(" horiz-adv-x="806" 
d="M143 356q0 346 214 660t522 463q23 -29 61 -117q-217 -145 -358 -432t-142 -635q0 -178 43 -312t140 -257q-35 -41 -97 -88q-166 120 -274 300t-109 418z" />
    <glyph glyph-name="parenright" unicode=")" horiz-adv-x="806" 
d="M672 758q0 -344 -214 -660t-521 -460q-31 45 -64 106q219 152 359 440t143 635q0 180 -42 310t-143 255q72 78 91 95q391 -275 391 -721z" />
    <glyph glyph-name="asterisk" unicode="*" horiz-adv-x="823" 
d="M418 1155l35 279q51 2 137 -2l-55 -277l233 166q47 -70 70 -119l-279 -155l227 -164q-35 -53 -86 -109l-206 174l-33 -276q-66 -6 -137 0l53 272l-230 -160q-31 49 -67 121l278 152l-231 157q35 55 82 109z" />
    <glyph glyph-name="plus" unicode="+" horiz-adv-x="1130" 
d="M455 4q0 242 -2 393h-359q6 99 6 183q216 0 355 2l-2 374q131 8 202 9q-2 -117 -6 -379q250 0 348 4q0 -113 -8 -195h-342l-2 -385q-88 -6 -190 -6z" />
    <glyph glyph-name="comma" unicode="," horiz-adv-x="598" 
d="M412 129q0 -162 -115 -299t-264 -211q-47 57 -82 107q203 139 203 258q0 74 -109 110q17 111 75 165t126 54t117 -56t49 -128z" />
    <glyph glyph-name="hyphen" unicode="-" horiz-adv-x="731" 
d="M336 428q-35 0 -129 1t-133 1q16 111 30 172q287 0 549 6q-8 -61 -35 -180h-282z" />
    <glyph glyph-name="period" unicode="." horiz-adv-x="598" 
d="M247 305q77 0 119 -45q42 -44 42 -114t-50 -118t-124 -48q-72 0 -118 44t-46 112t50 118q50 51 127 51z" />
    <glyph glyph-name="slash" unicode="/" horiz-adv-x="860" 
d="M948 1329l-887 -1442q-41 18 -159 90q223 363 509 847q286 483 365 614q84 -45 172 -109z" />
    <glyph glyph-name="zero" unicode="0" horiz-adv-x="1130" 
d="M657 1178q-59 0 -106 -69t-101 -327t-55 -456q0 -84 13 -121q24 -59 80 -59t98 55q59 70 112 333q54 263 54 406t-13 178q-23 60 -82 60zM1079 878q0 -224 -79 -439q-79 -214 -209 -326q-150 -133 -371 -133q-143 0 -248 110q-104 110 -104 342t86 452t208 326
q88 76 166 104t179 27q186 1 279 -119t93 -344z" />
    <glyph glyph-name="one" unicode="1" horiz-adv-x="1130" 
d="M873 1352q7 0 8 -11q-33 -188 -112 -633t-93 -526l289 -6q-12 -92 -31 -176l-461 2q-59 0 -197 -1t-221 -1q31 170 33 176l258 6q8 0 14 38q48 301 134 771l-316 -28q-4 119 0 176q215 53 452 133q236 80 243 80z" />
    <glyph glyph-name="two" unicode="2" horiz-adv-x="1130" 
d="M915 -2l-641 2h-223q-23 61 -53 176q203 141 332 248q369 299 368 537q0 179 -138 179q-76 0 -128 -28q-8 -4 -14 -20l-62 -207q-199 22 -206 22q27 162 65 369q170 66 379 65q254 0 367 -124q84 -94 83 -238q0 -299 -456 -627q-92 -70 -170 -119l2 -8q16 0 543 21l4 -6
q-23 -147 -52 -242z" />
    <glyph glyph-name="three" unicode="3" horiz-adv-x="1130" 
d="M303 -20q-160 0 -254 22q-2 123 -2 365q84 14 209 24l27 -190q2 -12 12 -19q37 -18 86 -18q111 0 166 47q72 53 71 174q0 84 -66 139q-67 55 -173 56h-98q12 109 24 186q203 2 295 68t92 174q0 57 -28 98q-39 49 -118 49t-118 -27q-10 -10 -12 -18l-56 -178
q-123 8 -208 20q37 221 57 330q182 59 402 59q219 0 317 -87q98 -86 98 -208t-84 -209t-215 -122l-2 -15q133 -28 190 -112t58 -178q0 -213 -211 -336q-160 -94 -459 -94z" />
    <glyph glyph-name="four" unicode="4" horiz-adv-x="1130" 
d="M651 1026l-12 2q-20 -27 -151 -190t-226 -285q-8 -12 4 -12q90 -4 293 -4zM586 2q-41 0 -137 -1t-146 -1q5 18 15 76t16 86l153 6q9 0 11 18q12 85 26 154q-66 -2 -448 -2q-37 90 -70 207q141 170 313 364q195 225 383 426q139 0 293 -10q-31 -188 -137 -786q37 0 112 1
t89 1q-16 -90 -39 -191l-195 2q-12 -88 -32 -184l135 -6q-12 -80 -31 -160h-311z" />
    <glyph glyph-name="five" unicode="5" horiz-adv-x="1130" 
d="M637 390q0 112 -76 174t-213 63q-82 0 -178 -11l-20 27q80 319 180 680h381q238 0 366 2q-20 -125 -53 -254q-176 0 -539 6q-16 -63 -61 -215q78 4 100 4q211 0 326 -112t115 -279q1 -129 -59 -230q-156 -265 -587 -265q-166 0 -251 18q-2 52 -3 112t-3 132q-1 72 -1 110
q125 21 205 25l25 -174q6 -39 108 -39q103 0 160 51q78 63 78 175z" />
    <glyph glyph-name="six" unicode="6" horiz-adv-x="1130" 
d="M564 641q-74 0 -134 -72q-25 -113 -26 -218t16 -134q31 -78 98 -78t109 54q68 86 67 268q0 92 -28 139q-28 41 -102 41zM702 842q168 0 246 -109q74 -98 74 -225t-54 -238t-147 -184q-133 -106 -323 -106t-295 102q-133 127 -133 350q0 440 264 717q184 193 493 192
q96 0 183 -18q4 -182 -2 -332q-104 -18 -203 -26l-21 153q-4 18 -14 26t-49 9q-196 0 -262 -377h8q109 66 235 66z" />
    <glyph glyph-name="seven" unicode="7" horiz-adv-x="1130" 
d="M406 1321h645q31 -104 49 -238q-324 -436 -490 -827q-41 -102 -55 -250q-90 -14 -338 -14q23 172 74 272q133 242 506 787l-2 10q-357 2 -395 -6t-50 -41l-55 -156q-119 18 -195 37q57 229 115 430l76 -2q76 -2 115 -2z" />
    <glyph glyph-name="eight" unicode="8" horiz-adv-x="1130" 
d="M692 327q0 83 -48 140t-165 108q-63 -41 -99 -107t-36 -138q0 -123 85 -167q40 -22 73 -22q84 0 131 49q59 54 59 137zM479 1020q0 -74 44 -120t141 -95q113 72 112 209q0 112 -66 147q-30 17 -82 17t-85 -31q-64 -53 -64 -127zM1014 406q0 -201 -199 -336
q-137 -90 -347 -90t-331 88q-117 90 -117 217t90 225t224 149l2 11q-156 109 -156 278q0 109 60 191t118 116q136 86 322 86t282 -90t97 -202q0 -209 -242 -322l-2 -8q95 -53 147 -136t52 -177z" />
    <glyph glyph-name="nine" unicode="9" horiz-adv-x="1130" 
d="M571 672q86 0 144 65q23 119 23 230q1 111 -11 137q-27 78 -91 78t-106 -56q-74 -102 -74 -278t115 -176zM449 485q-154 0 -240 101q-82 90 -82 245q0 109 58 222t147 180q147 109 320 109t294 -114q121 -112 121 -354t-83 -444q-83 -201 -191 -297q-178 -154 -441 -153
q-147 0 -235 14q-2 55 -4 166t-4 166q102 20 194 28l27 -172q4 -16 20 -25t70 -10q102 0 166 89q69 90 108 317h-8q-119 -68 -237 -68z" />
    <glyph glyph-name="colon" unicode=":" horiz-adv-x="598" 
d="M246 301q76 0 118 -45t42 -114q0 -70 -50 -116t-121 -46q-73 0 -119 44t-46 112t50 116q50 49 126 49zM182 752q0 68 50 117t127 49t118 -46t41 -114q0 -70 -50 -116t-120 -46t-118 44t-48 112z" />
    <glyph glyph-name="semicolon" unicode=";" horiz-adv-x="598" 
d="M247 317q69 0 117 -56t48 -128q0 -164 -115 -301t-264 -211q-39 45 -82 109q203 137 203 258q0 74 -109 110q17 111 75 165t127 54zM182 752q0 68 50 117t127 49t118 -46t41 -114q0 -70 -50 -116t-121 -46t-118 44t-47 112z" />
    <glyph glyph-name="less" unicode="&#x3c;" horiz-adv-x="1130" 
d="M446 502q61 -52 476 -396q-45 -70 -105 -131q-349 252 -606 447q-6 72 -6 156q459 322 614 428q47 -49 99 -138q-102 -80 -262 -202t-210 -164z" />
    <glyph glyph-name="equal" unicode="=" horiz-adv-x="1130" 
d="M131 391l897 -2q0 -94 -6 -182q-418 0 -897 -8q0 104 6 192zM1022 592l-897 2q0 94 6 182q397 0 897 8q0 -104 -6 -192z" />
    <glyph glyph-name="greater" unicode="&#x3e;" horiz-adv-x="1130" 
d="M670 496q-174 141 -467 372q51 84 98 138q279 -195 604 -431q6 -74 6 -155q-33 -25 -616 -445q-39 41 -105 134q449 362 480 387z" />
    <glyph glyph-name="question" unicode="?" horiz-adv-x="960" 
d="M512 131q0 -67 -52 -109t-126 -42t-114 38t-40 103q0 66 56 115t129 49q71 0 109 -43t38 -111zM266 554q0 68 2 87q111 71 155 101q145 101 178 177q19 46 19 101t-28 91q-29 36 -99 36t-98 -45l-67 -170q-113 10 -205 24q45 207 74 328q158 68 405 68q184 0 286 -75
t105 -210q4 -135 -86 -243t-327 -214q-35 -16 -37 -41q-12 -41 -19 -125q-96 -33 -225 -38q-33 80 -33 148z" />
    <glyph glyph-name="at" unicode="@" horiz-adv-x="1427" 
d="M569 381q0 -37 31 -37t85 49q55 49 65 75t17 52q7 27 16 64t16 55q-27 35 -74 35q-68 0 -115 -119q-41 -100 -41 -174zM969 299q72 0 137 63q102 98 102 266t-101 265q-101 98 -302 98q-145 0 -267 -62q-122 -61 -196 -161q-156 -210 -156 -440q0 -174 112 -257t266 -83
t288 75q37 -53 33 -86q-145 -90 -357 -90t-349 109q-136 109 -136 313t128 408q67 104 159 187t229 135t297 53q223 0 357 -117t135 -311q0 -236 -144 -362t-395 -126q-16 0 -40 14t-30 27q0 10 15 96l-11 6q-57 -55 -132 -99t-111 -44t-92 33q-55 33 -74 70q-6 19 -6 77
t34 161t118 197q86 94 186 95q100 0 172 -55h6l35 57q61 -12 184 -45q-7 -31 -57 -247t-47 -218t10 -2z" />
    <glyph glyph-name="A" unicode="A" horiz-adv-x="1327" 
d="M756 498l-62 483h-14q-172 -356 -225 -469q-6 -12 4 -12zM1212 0h-569q4 23 13 82t16 90l112 8q10 0 11 13l-17 122q0 10 -12 11l-397 -4q-13 -25 -33 -78t-27 -66l115 -6q-14 -92 -31 -172h-487q10 68 28 172l97 6q10 4 18 15q97 177 321 591t302 557q78 4 274 5
q33 -190 101 -612t90 -554l106 -8q-14 -92 -31 -172z" />
    <glyph glyph-name="B" unicode="B" horiz-adv-x="1286" 
d="M558 162q102 0 182 60t81 177q0 70 -56 132t-157 63q-60 0 -76 -2l-69 -375q-7 -55 95 -55zM621 758q104 0 179 63t74 178q0 61 -43 115t-107 55q-64 0 -89 -4l-72 -405q10 -2 58 -2zM660 1333q304 0 405 -57q67 -39 103 -101t36 -124q0 -119 -79 -205t-201 -127l-2 -14
q122 -27 186 -104t63 -173q0 -198 -177 -314t-462 -116l-262 2h-284q6 29 14 85t14 83l107 6q14 0 14 14l172 963l-119 6q6 27 16 83q9 56 15 85q137 8 441 8z" />
    <glyph glyph-name="C" unicode="C" horiz-adv-x="1187" 
d="M844 1145q-115 0 -202 -78t-140 -216t-53 -303q0 -343 294 -343q61 0 159 19t149 40q4 -68 0 -196q-236 -88 -410 -88q-229 0 -397 139q-158 135 -158 405q0 209 100 391q240 437 756 439q180 0 266 -43q-35 -334 -45 -426q-96 -6 -190 -6l-6 206q0 20 -11 29
q-43 31 -112 31z" />
    <glyph glyph-name="D" unicode="D" horiz-adv-x="1390" 
d="M530 164q273 0 383 290q51 134 51 326t-77 289q-78 96 -182 96q-35 0 -68 -8l-168 -932q-10 -61 61 -61zM712 1333q272 0 410 -104q203 -152 203 -459q-1 -215 -109 -393q-108 -177 -271 -277t-431 -100h-522q4 23 14 82q11 59 17 88l98 6q12 4 12 14l170 959l-115 4
q6 27 18 85q11 58 17 89q217 6 489 6z" />
    <glyph glyph-name="E" unicode="E" horiz-adv-x="1167" 
d="M694 1153q-54 0 -57 -8l-68 -385q125 0 174 2t54 13q6 11 12 28l27 82q78 2 168 -4q-25 -139 -41 -213q-16 -121 -35 -209q-58 -4 -168 -4l2 80q0 33 -12 42q-13 9 -213 9l-62 -365q-4 -29 21 -38t115 -9t149 16q33 10 51 46l82 153q70 -14 172 -43q-53 -162 -123 -348
l-672 2h-280l30 172l103 4q12 0 12 12l170 963l-117 6q23 125 33 172h268l469 2h189q-31 -260 -45 -366q-41 -4 -168 -9l-10 152q0 31 -33 35q-143 10 -197 10z" />
    <glyph glyph-name="F" unicode="F" horiz-adv-x="1124" 
d="M706 1149q-60 0 -69 -2l-80 -436q131 0 185 1t63 40l24 84q117 0 175 -5q-10 -51 -43 -221q-20 -133 -37 -215q-58 -4 -174 -4l6 88q2 27 -6 38t-52 13t-172 2l-61 -350l207 -6q-23 -129 -35 -176l-369 2q-49 0 -143 -1t-133 -1q4 22 33 172l100 6q10 0 10 10l170 963
l-115 4q3 16 33 174h266l459 2q147 0 185 2q-31 -332 -39 -389q-29 -2 -90 -5t-91 -5l-8 168q0 31 -35 35q-104 12 -164 12z" />
    <glyph glyph-name="G" unicode="G" horiz-adv-x="1388" 
d="M88 514q0 234 108 416q108 180 271 282q131 82 258 111t303 29t270 -60q-24 -232 -49 -397q-87 -6 -190 -6l-6 198q0 16 -13 29q-59 47 -129 47q-141 0 -233 -79t-157 -227t-65 -314t60 -254q84 -131 240 -131q49 0 51 18l43 289l-158 4q8 61 29 180h592q-3 -9 -13 -77
t-18 -103l-90 -4q-10 -4 -10 -10l-72 -400q-116 -75 -410 -75t-453 150t-159 384z" />
    <glyph glyph-name="H" unicode="H" horiz-adv-x="1527" 
d="M565 0l-289 2q-45 0 -144 -1t-142 -1q20 119 30 176l103 6q8 0 12 11l168 958l-113 6q12 59 33 174h578q-12 -82 -31 -174l-125 -6q-6 0 -6 -10l-64 -359q0 -8 11 -8l430 -2l63 379l-127 6q18 109 33 174h571q-12 -92 -30 -174l-103 -6q-4 0 -8 -8l-174 -961l111 -6
q-16 -113 -29 -176l-274 2q-53 0 -162 -1t-154 -1q6 33 18 92q11 59 15 84l137 6q10 0 10 13l66 387q0 10 -6 10l-432 -4l-74 -406l131 -6q-8 -53 -33 -176z" />
    <glyph glyph-name="I" unicode="I" horiz-adv-x="759" 
d="M213 1331l305 -2q50 0 148 1t133 1q-18 -104 -35 -174l-119 -6q-6 0 -6 -10l-172 -959l133 -6q-14 -98 -31 -176l-295 2q-45 0 -146 -1t-146 -1q6 29 16 88t16 88l113 6q6 0 10 11l168 958l-125 6l18 87q11 58 15 87z" />
    <glyph glyph-name="J" unicode="J" horiz-adv-x="1116" 
d="M299 -41q-193 0 -283 35q0 275 4 409q113 14 195 21l33 -219q2 -10 14 -23q43 -29 98 -28q88 0 138 55t80 246q55 401 92 700l-213 6q27 157 30 170h664q-8 -51 -31 -170l-106 -6q-8 0 -8 -8q-61 -442 -95 -645q-43 -266 -176 -387q-166 -156 -436 -156z" />
    <glyph glyph-name="K" unicode="K" horiz-adv-x="1339" 
d="M1231 1329q33 0 92 1t82 1q-18 -100 -35 -176l-70 -4q-61 -61 -148 -149l-150 -150q-62 -61 -117 -117l-2 -12q100 -63 149 -249t69 -235q20 -50 56 -57l109 -8q-14 -94 -33 -170q-184 -6 -404 -6q-61 130 -106 360t-119 230q-47 0 -72 -2l-73 -404l116 -6
q-14 -82 -34 -176l-271 2q-43 0 -139 -1t-137 -1q6 29 16 88q11 59 17 88l96 6q6 0 10 8l172 961l-110 6q8 58 32 174l289 -2q47 0 136 1t120 1q-10 -76 -33 -176l-98 -4q-6 0 -6 -10l-72 -387q16 2 86 10q145 137 332 371q8 14 -6 14l-88 4l33 176h311z" />
    <glyph glyph-name="L" unicode="L" horiz-adv-x="1114" 
d="M590 176q104 0 143 10t55 50l82 200q92 -14 189 -39q-55 -199 -121 -399l-674 2h-272q4 27 16 85q13 58 17 87l98 4q12 4 12 14l168 961l-113 6l35 174h578q-18 -100 -35 -176l-123 -4q-6 0 -10 -10l-166 -920q-4 -31 6 -38q11 -7 115 -7z" />
    <glyph glyph-name="M" unicode="M" horiz-adv-x="1728" 
d="M162 1147l35 184h499q55 -319 135 -905h15q55 113 165 334t184 374q75 153 99 197h463q-14 -98 -31 -184l-98 -6q-4 0 -8 -11q-83 -510 -160 -952l117 -6q-14 -92 -31 -172h-528q14 90 31 172l114 6q6 0 11 8q80 444 135 754h-15q-276 -565 -485 -915q-98 -4 -176 -5
q-98 440 -150 932h-16q-8 -45 -143 -774l135 -6q-14 -92 -31 -172h-467q14 90 31 172l104 6q6 0 10 8q136 738 175 955z" />
    <glyph glyph-name="N" unicode="N" horiz-adv-x="1474" 
d="M1309 1329q35 0 109 1t104 1q-12 -86 -31 -172l-96 -8q-8 0 -15 -14l-198 -1119q-78 -37 -242 -36q-248 406 -457 864l-14 -2q-76 -418 -121 -662l154 -6q-23 -129 -33 -176l-295 2q-34 0 -100 -1t-92 -1q25 119 32 176l107 4q6 0 10 13l164 958l-121 4q27 158 31 174
h381q115 -231 442 -928h12q98 639 113 750l-162 4q18 109 33 174h285z" />
    <glyph glyph-name="O" unicode="O" horiz-adv-x="1466" 
d="M457 496q-1 -340 221 -340q110 0 184 79t122 249t48 356q0 334 -198 336q-64 0 -108 -22t-102 -84t-113 -233q-54 -173 -54 -341zM1401 829q0 -215 -84 -398t-221 -296q-201 -155 -471 -155t-418 172q-117 136 -117 374t119 435q235 389 672 391q203 0 329 -99
q96 -69 144 -189t47 -235z" />
    <glyph glyph-name="P" unicode="P" horiz-adv-x="1212" 
d="M598 635q98 0 148 43q108 94 108 256q0 90 -39 160t-125 69q-28 0 -65 -4l-90 -504q-2 -14 13 -17t50 -3zM676 1333q188 0 294 -43t157 -135q53 -92 53 -222t-83 -246q-165 -230 -497 -230q-80 0 -100 2l-51 -283l178 -6q-16 -102 -31 -170l-346 2q-43 0 -128 -1t-122 -1
q28 156 33 170l92 6q8 0 8 10l170 965l-110 4q6 27 16 87t16 87q263 4 451 4z" />
    <glyph glyph-name="Q" unicode="Q" horiz-adv-x="1460" 
d="M457 478q0 -173 58 -248q58 -74 167 -74q108 0 174 82t117 248t51 340t-37 253q-45 98 -162 99q-219 0 -318 -350q-50 -176 -50 -350zM594 -20q-106 0 -212 48t-169 124q-121 148 -121 376t111 422t279 298t379 104q210 0 343 -101q96 -75 142 -193t45 -231
q0 -213 -85 -393t-205 -278t-198 -121l-2 -10q200 -134 387 -134q53 0 125 15q16 -111 19 -187q-186 -70 -314 -69q-72 0 -129 33q-201 119 -379 297h-16z" />
    <glyph glyph-name="R" unicode="R" horiz-adv-x="1292" 
d="M602 676q115 0 189 73t73 209q0 84 -41 148t-118 63q-41 0 -74 -6l-88 -485q16 -2 59 -2zM571 510q-31 0 -55 -4l-61 -330l112 -6q-23 -125 -32 -170h-541q21 115 31 170l98 6q6 0 10 10l170 965l-108 4q18 111 32 172q199 6 414 6t333 -37q118 -36 173 -122t55 -202
t-86 -215t-211 -141l-2 -12q62 -31 97 -143q11 -35 25 -85t35 -119t93 -79l64 -6q-12 -80 -31 -168q-68 0 -154 -4l-233 -2q-33 66 -125 422q-27 90 -103 90z" />
    <glyph glyph-name="S" unicode="S" horiz-adv-x="1124" 
d="M680 1157q-80 0 -125 -33q-27 -16 -49 -55t-23 -79t11 -64q20 -44 120 -87q31 -13 111 -46q283 -115 283 -344t-199 -367q-151 -102 -397 -102t-357 59q6 125 23 375q113 12 186 14l33 -184q4 -20 8 -27q66 -45 165 -45t151 37q68 43 67 125q0 50 -33 95q-22 33 -184 101
q-309 139 -309 377q0 197 170 321t438 124q188 0 285 -54q-12 -180 -31 -370q-29 -2 -91 -5t-91 -5l-21 174q-4 23 -12 28q-49 37 -129 37z" />
    <glyph glyph-name="T" unicode="T" horiz-adv-x="1185" 
d="M139 1333l187 -2h776q76 2 182 2q-18 -150 -57 -420q-84 -8 -191 -12l-2 197q0 37 -30 39q-78 10 -152 10l-170 -965l156 -6q-8 -57 -33 -176l-320 2q-47 0 -150 -1t-153 -1q10 47 33 176l123 6q10 0 10 13l166 952q-76 0 -147 -10q-35 -4 -48 -39l-63 -199q-32 2 -100 7
t-97 7q33 190 80 420z" />
    <glyph glyph-name="U" unicode="U" horiz-adv-x="1378" 
d="M594 -20q-238 0 -361 124q-139 139 -88 424l109 625l-100 6q10 57 34 172l269 -2q53 0 156 1t147 1q-20 -115 -35 -172l-123 -6q-10 0 -14 -16l-107 -602q-35 -201 25 -274t158 -73t174 76q80 74 116 299q43 221 97 580q0 10 -9 10l-139 6q8 57 29 172l272 -2q43 0 123 1
t113 1q-13 -86 -31 -172l-98 -6l-101 -559q-61 -338 -219 -476q-159 -138 -397 -138z" />
    <glyph glyph-name="V" unicode="V" horiz-adv-x="1320" 
d="M401 1329q57 0 172 1t156 1q-16 -121 -29 -174l-139 -8q33 -442 74 -832h20q35 72 185 395t188 425q4 12 -6 12l-119 4q20 119 31 174l303 2q37 0 100 1t88 1q-12 -92 -30 -174l-95 -6q-34 -63 -124 -241t-260 -482q-170 -305 -254 -442q-96 -6 -283 -6
q-97 519 -174 1163q0 6 -8 10l-101 4q10 68 29 172h276z" />
    <glyph glyph-name="W" unicode="W" horiz-adv-x="1765" 
d="M1384 1329l320 2h172q-12 -86 -33 -174l-84 -6q-196 -508 -487 -1167q-33 -4 -277 -4q-53 397 -82 755h-12q-168 -373 -364 -751q-35 -4 -281 -4q-38 481 -55 1165q0 8 -11 8l-100 4l31 174h596q-6 -41 -31 -174l-139 -6q-12 -309 -14 -401t-19 -406h16q88 199 381 899
q37 6 258 6q27 -299 64 -893h12q8 23 123 361q55 172 125 420q2 10 -8 14l-133 4q18 100 32 174z" />
    <glyph glyph-name="X" unicode="X" horiz-adv-x="1292" 
d="M422 1329q59 0 171 1t155 1q-16 -111 -33 -174l-105 -8q61 -166 121 -297h14q180 221 224 283q4 14 -6 14l-95 4q14 80 33 176h311q29 0 88 1t84 1q-18 -104 -34 -174l-78 -8q-217 -225 -445 -451v-14q215 -420 258 -506l111 -4q-10 -74 -33 -172h-239q-62 0 -182 -1
t-167 -1q27 156 31 176l101 4q14 4 10 17q-70 156 -129 280h-10q-94 -111 -240 -295l115 -6q-18 -104 -35 -174h-326q-133 0 -190 -2l17 94q11 60 15 80l91 6q10 0 24 13q78 78 219 221t219 221l2 14q-176 342 -245 492q0 10 -13 10l-108 4q10 51 33 174h266z" />
    <glyph glyph-name="Y" unicode="Y" horiz-adv-x="1181" 
d="M371 1329q57 0 168 1t147 1q-18 -104 -35 -174l-108 -8q27 -127 106 -449h17q168 256 264 437q4 12 -6 12l-111 4q13 92 33 176h307q31 0 85 1t75 1q-18 -100 -35 -176l-74 -6q-186 -266 -483 -649l-57 -318l147 -6q-14 -82 -35 -176l-305 2q-47 0 -151 -1t-152 -1
q15 82 35 176l119 6q12 0 12 15l53 301q-88 233 -213 641q-6 12 -12 12l-88 6q4 23 32 172h265z" />
    <glyph glyph-name="Z" unicode="Z" horiz-adv-x="1179" 
d="M948 -2l-331 2h-594q-33 96 -54 170q482 555 828 956l-2 9q-289 1 -329 -13t-52 -43l-86 -200q-104 20 -191 41q57 215 115 415l205 -2l653 -2q35 -133 55 -254q-561 -637 -798 -872l2 -8q248 0 376 24q45 10 64 58l88 182q92 -23 186 -45q-90 -293 -135 -418z" />
    <glyph glyph-name="bracketleft" unicode="[" horiz-adv-x="815" 
d="M377 -182l231 -11q-8 -70 -26 -155q-328 4 -492 4l305 1784q330 0 494 4q-10 -90 -27 -156l-211 -10q-14 0 -18 -16z" />
    <glyph glyph-name="backslash" unicode="\" horiz-adv-x="1234" 
d="M965 -113l-873 1442q84 59 174 109q267 -451 434 -746q74 -126 215 -364t209 -351q-100 -63 -159 -90z" />
    <glyph glyph-name="bracketright" unicode="]" horiz-adv-x="815" 
d="M-70 -195l234 11l258 1452q4 12 -10 14l-207 10q6 76 22 154q170 0 498 -4l-326 -1786q-328 -4 -493 -6q4 32 24 155z" />
    <glyph glyph-name="asciicircum" unicode="^" horiz-adv-x="1130" 
d="M584 1024l-330 -469q-86 59 -152 113q73 114 420 637q39 2 135 2q279 -430 412 -639q-57 -52 -149 -115q-238 334 -336 471z" />
    <glyph glyph-name="underscore" unicode="_" horiz-adv-x="1024" 
d="M-92 -150h1024v-110h-1024v110z" />
    <glyph glyph-name="grave" unicode="`" horiz-adv-x="1087" 
d="M481 1409l303 -305q-55 -63 -96 -98q-34 28 -104 80t-129 98t-109 82q55 71 135 143z" />
    <glyph glyph-name="a" unicode="a" horiz-adv-x="1095" 
d="M573 731q-89 0 -163 -177t-74 -286q0 -68 43 -68t133 92t110 156t56 232q-29 51 -105 51zM18 248q0 90 54 242t173 293q118 141 254 141t230 -82h10l54 100q102 -25 241 -70q-102 -375 -166 -684q-4 -12 13 -12q29 0 106 19q16 -106 21 -162q-158 -51 -336 -51
q-10 0 -38 22t-38 39q4 63 16 145l-20 9q-217 -221 -369 -226q-43 6 -100 48t-80 94q-25 45 -25 135z" />
    <glyph glyph-name="b" unicode="b" horiz-adv-x="1095" 
d="M477 162h4q127 0 209 289q29 97 29 159t-47 62q-54 0 -152 -104t-129 -177q-18 -57 -41 -158q64 -71 127 -71zM440 692l15 -6q121 129 207 184t172 58q43 -6 93 -47t81 -93q30 -52 30 -105q0 -52 -18 -146t-45 -164t-61 -129t-85 -124t-127 -103t-161 -37q-137 0 -254 88
l-84 -107q-100 27 -203 59q117 487 268 1203l-168 -6q-4 57 -8 163q130 11 271 33q143 23 155 23t45 -29t47 -51q-98 -400 -170 -664z" />
    <glyph glyph-name="c" unicode="c" horiz-adv-x="878" 
d="M379 -20q-147 0 -247 86t-99 220q0 134 55 264t162 226q168 147 418 148q72 0 127 -18t67 -32q0 -51 -47 -132t-80 -95q-121 80 -182 80t-100 -53q-39 -54 -65 -146t-26 -168q0 -180 136 -180q90 0 237 45q20 -72 37 -151q-199 -94 -393 -94z" />
    <glyph glyph-name="d" unicode="d" horiz-adv-x="1095" 
d="M383 201q45 0 133 91t115 154q20 78 49 240q-41 45 -102 45q-90 0 -165 -175t-75 -286q0 -69 45 -69zM534 924q102 0 171 -58h14q39 174 69 351l-174 2v165q219 22 312 37q92 15 102 15t45 -30t49 -56q-10 -43 -114 -555t-125 -605q-2 -14 12 -14q37 0 109 19
q12 -55 24 -162q-166 -51 -348 -51q-12 0 -39 20t-37 41q0 27 12 150l-18 6q-217 -223 -369 -228q-41 4 -97 45q-112 82 -112 207t56 277t155 275q117 149 303 149z" />
    <glyph glyph-name="e" unicode="e" horiz-adv-x="983" 
d="M540 766q-42 0 -88 -56t-73 -194q245 0 247 117q0 53 -22 93t-64 40zM29 276q0 130 58 264t167 230q172 154 379 154q137 0 214 -79t81 -177q-8 -70 -43 -133t-78 -93q-158 -80 -447 -77q-6 -23 -6 -71t35 -82t92 -34q158 0 328 76q20 -68 41 -152q-250 -123 -516 -122
q-121 0 -213 83t-92 213z" />
    <glyph glyph-name="f" unicode="f" horiz-adv-x="745" 
d="M823 1413q90 0 156 -33q-2 -43 -47 -128t-84 -109q-119 59 -169 59q-49 0 -71 -31t-34 -84t-37 -192q193 0 274 2q-25 -119 -47 -186h-262q-80 -403 -215 -1065q-96 -4 -297 -4q37 197 106 551q70 354 101 518h-154q14 82 39 172q78 6 137 10q14 0 17 16q33 158 65 226
q33 68 123 135q184 143 399 143z" />
    <glyph glyph-name="g" unicode="g" horiz-adv-x="1056" 
d="M182 -291q0 -90 176 -90q113 0 188 33t75 87t-60 70q-33 7 -153 19q-121 12 -134 14q-92 -66 -92 -133zM371 406q1 -43 23 -70t59 -27q61 0 105 111t44 248q0 45 -10 75q-14 43 -68 43q-61 0 -107 -110t-46 -270zM932 -186q0 -132 -166 -238t-461 -106q-438 0 -438 208
q0 76 43 101q125 63 205 108v13q-57 30 -79 68t-22 98q0 25 25 44t164 105v14q-148 92 -148 251t121 295q58 67 158 108t210 41t150 -12q39 -12 68 -11l309 4q2 -82 0 -176q-35 -2 -97 -6t-79 -4v-12q20 -35 20 -121q0 -127 -88 -248q-55 -72 -173 -125t-289 -39
q-55 -39 -56 -68q0 -26 49 -34t172 -17l70 -4q166 -14 231 -53q41 -23 71 -72t30 -112z" />
    <glyph glyph-name="h" unicode="h" horiz-adv-x="1128" 
d="M1022 725q0 -150 -129 -541q-8 -16 7 -16t114 16q8 -76 12 -157q-141 -45 -379 -45q-12 0 -46 30t-40 60q68 229 94 340q47 172 47 196t-11 36t-25 11q-70 1 -165 -119t-120 -221q-2 -6 -33 -136t-43 -177q-100 -2 -301 -2q41 185 258 1217l-162 -9q-2 86 0 168
q202 19 408 60q12 0 47 -31t47 -55q-80 -311 -160 -666l15 -6q111 129 213 186t176 60q41 -8 88 -43q88 -66 88 -156z" />
    <glyph glyph-name="i" unicode="i" horiz-adv-x="628" 
d="M156 -18q-12 0 -50 33q-37 34 -47 59q18 90 43 205q26 115 52 243t36 174l-159 4q0 113 2 168q63 8 213 31t186 25q12 0 47 -31t49 -53q-121 -535 -143 -658q-4 -16 6 -16q35 0 131 20q6 -81 15 -159q-156 -45 -381 -45zM448 1378q82 0 123 -46t41 -118t-53 -121
q-53 -51 -128 -51t-123 50t-48 118t53 118t135 50z" />
    <glyph glyph-name="j" unicode="j" horiz-adv-x="618" 
d="M199 696l-185 2q0 110 4 168q74 8 226 31t190 27q18 0 54 -30t51 -54q-9 -41 -61 -340q-52 -300 -72 -396t-47 -158q-26 -62 -87 -154t-139 -166t-131 -110t-79 -35q-25 1 -95 69t-80 114q176 59 252 143q51 57 77 146t70 392q44 302 52 351zM399 1380q78 0 124 -47
t46 -117t-53 -121t-124 -51t-123 48t-52 118t52 120t130 50z" />
    <glyph glyph-name="k" unicode="k" horiz-adv-x="1091" 
d="M946 926q33 0 78 -73t47 -153q-111 -10 -191 -46t-169 -109v-15q104 -33 143 -204q6 -25 15 -76t16 -70q5 -14 35 -14t94 12q6 -84 4 -155q-131 -41 -395 -41q-29 49 -53 224t-68 175t-131 -109q-29 -106 -62 -270q-102 -2 -301 -2q143 670 250 1217h-160q-2 86 0 167
q97 7 247 29q151 23 163 23t44 -30t46 -56q-182 -807 -192 -848l14 -4q346 428 526 428z" />
    <glyph glyph-name="l" unicode="l" horiz-adv-x="608" 
d="M360 168q61 0 156 18q12 -102 16 -163q-176 -41 -401 -41q-12 0 -48 30t-54 56q43 207 231 1149h-184q-2 57 -2 165q180 14 301 33q121 21 131 21t45 -31t47 -55q-41 -186 -244 -1166q-8 -16 6 -16z" />
    <glyph glyph-name="m" unicode="m" horiz-adv-x="1662" 
d="M578 0q133 549 133 607t-35 61q-66 0 -159 -127t-117 -221t-70 -318q-96 -2 -289 -2q11 50 67 324t76 376l-149 -6v166l350 64q12 0 41 -23t47 -51q-10 -74 -27 -170l21 -4q103 129 205 187t170 61q41 -4 84 -36q80 -59 82 -130q0 -18 -4 -68l16 -4q96 125 189 178
t157 56q43 -4 90 -40q92 -70 92 -161q0 -117 -118 -537q-8 -12 6 -12q35 0 116 20q6 -57 15 -157q-158 -51 -375 -51q-10 0 -37 28t-39 58q129 487 129 557q0 41 -39 41q-63 0 -153 -121t-115 -221q-53 -223 -74 -322q-96 -2 -286 -2z" />
    <glyph glyph-name="n" unicode="n" horiz-adv-x="1167" 
d="M938 166q27 0 117 16q12 -102 14 -157q-145 -43 -379 -43q-14 0 -45 28t-45 53q16 66 78 289t61 251q0 54 -37 54q-68 -1 -160 -117t-120 -221q-45 -178 -78 -317q-102 -2 -301 -2q65 278 147 696l-145 -6q-2 86 0 168q95 14 221 40q127 26 137 26q11 0 47 -28t50 -50
q-7 -28 -31 -168l23 -4q102 125 207 186t178 64q43 -6 90 -39q92 -64 94 -160q0 -137 -129 -543q-6 -16 6 -16z" />
    <glyph glyph-name="o" unicode="o" horiz-adv-x="1054" 
d="M645 652q0 124 -74 124q-51 0 -92 -48t-76 -180t-35 -230t15 -142q21 -49 78 -49t90 61q33 52 63 196t31 268zM973 556q0 -142 -68 -272q-68 -128 -170 -210q-125 -94 -329 -94t-304 124q-23 29 -43 85t-20 114q0 313 207 488q156 133 360 133t301 -129q66 -97 66 -239z
" />
    <glyph glyph-name="p" unicode="p" horiz-adv-x="1128" 
d="M750 610q0 60 -48 60q-59 0 -163 -111t-119 -176q-16 -86 -29 -174q70 -51 121 -51q139 0 214 299q24 93 24 153zM373 924q10 0 44 -27t52 -55q-11 -74 -31 -178l23 -5q227 264 401 269q48 -6 102 -52q106 -89 105 -204q0 -115 -61 -303q-41 -122 -138 -245
q-114 -144 -307 -144q-106 0 -201 53q-8 -37 -102 -539q-94 -4 -293 -4q180 1063 205 1206l-152 9v165q212 27 278 41q65 13 75 13z" />
    <glyph glyph-name="q" unicode="q" horiz-adv-x="1083" 
d="M338 264q0 -27 12 -45t31 -18q47 0 135 90q88 91 111 155t57 240q-41 45 -100 45q-94 0 -170 -177t-76 -290zM20 240q0 102 56 256t173 290q118 136 256 138q138 0 232 -78h11l49 100q88 -20 235 -61q-125 -559 -239 -1178q-2 -18 12 -18q25 0 121 14q12 -68 16 -162
q-168 -49 -383 -49q-14 0 -45 28t-47 52q73 344 141 616l-14 9q-209 -215 -363 -226q-37 4 -89 38t-87 81q-35 48 -35 150z" />
    <glyph glyph-name="r" unicode="r" horiz-adv-x="892" 
d="M768 924q84 0 127 -37q0 -76 -34 -182t-62 -130q-72 27 -127 27q-56 0 -146 -104t-116 -205q-51 -233 -66 -291q-98 -2 -297 -2q3 12 61 300t78 400l-143 -6q-2 55 -2 168q135 18 242 40q106 22 115 22t44 -29t45 -51q-6 -47 -43 -221l25 -7q109 164 177 236
q69 72 122 72z" />
    <glyph glyph-name="s" unicode="s" horiz-adv-x="866" 
d="M502 754q-57 0 -88 -21q-41 -23 -41 -67q0 -49 135 -95q14 -6 22 -8q109 -43 166 -98t58 -146q0 -178 -162 -274q-111 -65 -296 -65t-280 38q12 205 19 297q49 6 153 11l21 -125q4 -18 12 -23q47 -28 112 -28q126 1 126 81q0 37 -30 60t-126 59t-163 94q-66 56 -66 154
t60 169t156 113t264 44q167 0 245 -43q-2 -27 -8 -126t-11 -149q-22 -2 -78 -5t-79 -5l-17 111q-4 20 -12 24q-35 23 -92 23z" />
    <glyph glyph-name="t" unicode="t" horiz-adv-x="839" 
d="M422 254q0 -57 82 -57t221 22q4 -96 -2 -168q-227 -70 -426 -69q-43 0 -101 42q-91 66 -93 153q-1 87 98 532h-168q16 92 35 172q86 8 159 10q14 4 19 18q25 104 45 178q172 68 301 68q6 -1 0 -31t-47 -231q49 0 146 1t140 1q-10 -68 -38 -188l-287 2q-12 -66 -37 -174
q-47 -242 -47 -281z" />
    <glyph glyph-name="u" unicode="u" horiz-adv-x="1128" 
d="M377 268q0 -47 37 -47q57 0 148 125q92 124 110 198t76 355q100 2 301 2q-31 -139 -138 -706q-3 -17 9 -17t118 19q10 -51 23 -158q-150 -57 -352 -57q-10 0 -37 22t-37 41q4 66 20 172l-22 6q-217 -246 -361 -252q-43 10 -93 43q-111 73 -109 174q0 146 100 508
l-133 -10q-8 116 -8 168l383 70q16 0 53 -35t47 -64q-135 -476 -135 -557z" />
    <glyph glyph-name="v" unicode="v" horiz-adv-x="1034" 
d="M384 924q14 0 58 -38q45 -38 64 -73q-55 -455 -72 -643q0 -21 19 -4q116 124 220 357q50 114 50 175q0 14 -16 15l-80 -2q-4 53 -9 168q256 41 293 41q15 0 59 -46t44 -57q0 -106 -86 -270q-137 -262 -312 -434q-132 -132 -157 -129q-205 0 -314 26q-16 184 29 688
l-141 -8q-9 134 -13 168q350 66 364 66z" />
    <glyph glyph-name="w" unicode="w" horiz-adv-x="1544" 
d="M424 -16q-174 0 -285 24q-6 127 -2 347t13 345l-127 -6l-13 166q324 64 337 64t56 -37t60 -72q-39 -379 -45 -612q0 -6 6 -8q19 -6 135 211q115 217 150 421q92 35 280 35q-10 -500 -2 -672q0 -10 8 -11t13 5q110 137 193 355q40 104 40 157q0 14 -16 15l-74 2
q-6 75 -6 170q264 37 268 37q19 -4 63 -43t48 -58q0 -104 -86 -273t-168 -277q-82 -109 -170 -197t-105 -88q-158 0 -264 20q-12 201 -4 361l-18 2q-109 -197 -228 -332q-45 -51 -57 -51z" />
    <glyph glyph-name="x" unicode="x" horiz-adv-x="1001" 
d="M883 928q33 0 87 -72t64 -139q-199 -70 -393 -246l-2 -12q104 -252 117 -279q4 -14 26 -14t105 12q14 -84 16 -158q-176 -41 -395 -40q-53 133 -119 319h-12q-117 -156 -131 -315q-145 -12 -316 -9q35 190 383 482l2 14q-12 27 -92 223l-153 -32q-2 8 -37 157
q319 105 335 105t57 -16q40 -16 60 -34q58 -173 78 -249h15q204 303 305 303z" />
    <glyph glyph-name="y" unicode="y" horiz-adv-x="1003" 
d="M692 700q0 18 -14 21l-84 -2q0 81 -6 168q285 33 296 33t52 -44t41 -61q0 -90 -70 -266q-69 -176 -139 -300t-186 -285q-200 -279 -381 -425q-88 -69 -117 -69q-30 0 -102 74t-78 130q185 65 309 170q59 51 84 88q-76 336 -160 760l-131 -14q-12 90 -18 166l352 80
q14 0 52 -27t59 -57q33 -293 86 -645h14q141 315 141 505z" />
    <glyph glyph-name="z" unicode="z" horiz-adv-x="962" 
d="M342 729q-43 0 -53 -33l-70 -166q-94 14 -166 31q45 193 86 344h44l190 -2q147 -2 473 -2q35 -133 51 -229q-73 -76 -275 -254t-280 -236l2 -12q54 4 211 4q59 4 78 39l80 168q121 -29 161 -41q-37 -145 -98 -340h-751q-41 96 -58 158q537 514 584 559l-2 12h-207z" />
    <glyph glyph-name="braceleft" unicode="{" horiz-adv-x="815" 
d="M500 374q0 -66 -65 -246q-65 -179 -63 -248q2 -68 49 -102q48 -34 157 -34q-6 -70 -23 -141q-207 1 -327 73t-119 207q-1 89 73 271t74 232t-32 74t-130 21q4 37 19 135q152 0 190 60q27 40 27 280t127 361q145 145 444 145q-6 -78 -24 -145q-170 0 -220 -70
q-33 -47 -46 -125t-13 -234t-60 -228q-61 -72 -182 -99l-2 -16q62 -13 104 -59t42 -112z" />
    <glyph glyph-name="bar" unicode="|" horiz-adv-x="1130" 
d="M471 1536h188v-2048h-188v2048z" />
    <glyph glyph-name="braceright" unicode="}" horiz-adv-x="815" 
d="M686 1178q0 -90 -72 -266t-72 -225q0 -48 34 -72q32 -24 131 -21q-14 -90 -23 -135q-145 2 -188 -58q-29 -41 -29 -285t-117 -360q-150 -154 -454 -153q4 41 22 145q178 0 227 82q31 49 43 121t13 250q-1 262 241 317l4 14q-150 33 -149 187q0 55 63 227t64 242
q0 70 -48 102t-153 31q6 76 25 141q206 0 322 -72t116 -212z" />
    <glyph glyph-name="asciitilde" unicode="~" horiz-adv-x="1130" 
d="M349 676q97 0 231 -66t173 -66q41 0 69 37q28 36 28 97h158q0 -148 -73 -244t-170 -96t-292 95q-74 36 -115 36q-42 0 -70 -36t-30 -97q-41 -4 -158 0q2 144 77 242t172 98z" />
    <glyph glyph-name="uni00A0" unicode="&#xa0;" horiz-adv-x="370" 
 />
    <glyph glyph-name="exclamdown" unicode="&#xa1;" horiz-adv-x="614" 
d="M329 606q-75 0 -114 43t-39 114t52 116t124 45t114 -39t42 -109t-52 -120t-127 -50zM-45 -430v2q6 26 104 394t131 487q78 25 207 24q0 -31 -22 -401q-16 -356 -15 -467q-56 -11 -204 -25t-201 -14z" />
    <glyph glyph-name="cent" unicode="&#xa2;" horiz-adv-x="1130" 
d="M438 612q0 -68 36 -124t99 -74q14 84 44 262t42 262q-89 -8 -155 -110t-66 -216zM123 579q0 183 162 353t407 198q18 104 33 205q72 12 170 21q-18 -94 -39 -221h14q111 0 230 -52q-8 -59 -47 -131t-70 -86q-96 63 -166 70q-10 -57 -28 -172t-60 -350q100 2 229 53
q14 -53 27 -152q-137 -66 -280 -86q-37 -219 -41 -241q-100 -12 -162 -15q27 141 41 246q-174 2 -297 89t-123 271z" />
    <glyph glyph-name="sterling" unicode="&#xa3;" horiz-adv-x="1130" 
d="M755 1149q-63 0 -99 -41t-52 -160q-4 -31 -8 -215q131 0 299 4q-10 -94 -33 -180q-80 2 -276 2q-2 -37 -13 -80q-37 -182 -192 -270q-22 -13 -14 -19t18 -6q334 0 373 17q35 6 47 45l76 196q86 -14 186 -39q-39 -154 -113 -407q-156 4 -428 4t-387 -1t-170 -1
q27 155 33 186l121 6q14 0 27 9q90 78 112 233q8 82 8 127q-70 2 -200 2q10 70 32 162q102 0 158 2q10 0 10 8q6 174 25 244q33 133 166 244q154 121 385 120q121 0 215 -36q-8 -164 -29 -369q-55 -6 -201 -14l-12 188q0 39 -64 39z" />
    <glyph glyph-name="currency" unicode="&#xa4;" horiz-adv-x="1130" 
d="M571 895q-94 0 -151 -49q-94 -80 -94 -212t80 -208q57 -53 153 -53t158 47q96 74 96 220t-98 218q-50 37 -144 37zM580 1057q125 0 192 -31q90 109 152 191q61 -49 125 -113l-142 -172q53 -47 83 -124t30 -160t-36 -164t-97 -132q128 -149 164 -192q-61 -59 -123 -105
q-74 86 -174 199q-74 -41 -193 -41t-196 33l-179 -197q-63 49 -116 107q98 117 161 188q-113 96 -112 277q0 81 35 161t92 131q-148 178 -150 181q72 68 125 112q55 -66 156 -194q78 45 203 45z" />
    <glyph glyph-name="yen" unicode="&#xa5;" horiz-adv-x="1130" 
d="M352 1300q59 0 169 2t155 1q-12 -84 -29 -166l-121 -9q61 -231 119 -417h10q141 240 228 403q10 14 -9 14l-108 5q16 82 29 165h282q57 2 152 2q-8 -74 -27 -167l-69 -5q-211 -291 -345 -469q131 0 209 3q-6 -61 -24 -138h-283l-18 -110h289q-10 -68 -25 -129l-285 -2
l-16 -107l158 -8q-14 -88 -31 -168l-301 2q-47 0 -151 -1t-148 -1q6 35 31 168l131 6q6 0 20 14l14 95q-45 0 -142 -1t-134 -1q16 94 24 133l275 -2l16 114h-276q8 59 22 125h238q-75 171 -193 467q-4 12 -22 12l-68 7q8 53 27 163h227z" />
    <glyph glyph-name="brokenbar" unicode="&#xa6;" horiz-adv-x="1130" 
d="M471 358h188v-716h-188v716zM471 1382h188v-716h-188v716z" />
    <glyph glyph-name="section" unicode="&#xa7;" horiz-adv-x="964" 
d="M320 610q-24 -43 -23 -77q0 -34 7 -50t10 -25q4 -8 14 -20t17 -23t36 -30q28 -19 94 -72t90 -69q70 63 70 157q0 78 -92 153q-92 74 -160 126q-39 -27 -63 -70zM881 503q1 -105 -55 -201t-156 -161q53 -70 53 -161q0 -201 -168 -320q-121 -84 -276 -84q-242 0 -367 125
q18 45 63 95t97 67q48 -45 112 -78t126 -33t104 37q39 39 39 95t-37 98q-38 42 -150 120q-112 79 -164 150q-51 72 -51 175q1 103 61 199t167 160q-63 74 -64 177q0 166 143 276q125 98 325 98t302 -112q-14 -43 -60 -92t-96 -70q-92 96 -194 96q-68 0 -107 -39t-39 -76
q0 -75 50 -115q50 -41 141 -102q96 -71 148 -145t53 -179z" />
    <glyph glyph-name="dieresis" unicode="&#xa8;" horiz-adv-x="1087" 
d="M824 1282q56 0 87 -31t31 -79t-38 -86q-38 -40 -90 -40t-84 30t-32 81t35 88t91 37zM442 1282q53 0 84 -30t31 -78t-36 -88t-90 -40t-86 32q-32 30 -32 79t38 87t91 38z" />
    <glyph glyph-name="copyright" unicode="&#xa9;" horiz-adv-x="1562" 
d="M903 879q0 30 -59 30t-101 -41q-79 -80 -79 -208t57 -180t150 -52t173 33q16 -90 21 -117q-123 -59 -267 -59t-231 67q-133 98 -133 260q0 215 160 338q119 90 287 90q113 0 161 -16q12 -123 19 -252q-12 -2 -129 -18zM793 1247q-240 0 -397 -172q-156 -172 -156 -416
q0 -243 154 -409t395 -166t397 172t155 416q0 244 -154 410t-394 165zM802 1352q290 0 482 -194t193 -482q0 -288 -203 -493q-203 -203 -494 -203q-292 0 -484 194t-192 482t204 492t494 204z" />
    <glyph glyph-name="ordfeminine" unicode="&#xaa;" horiz-adv-x="897" 
d="M532 1165q-68 0 -118 -123q-57 -127 -58 -208q0 -46 33 -46t101 64t81 109q27 104 39 165q-21 39 -78 39zM274 592q-29 0 -83 39t-76 74q-11 31 -11 105t41 187q43 131 135 227t197 95q106 0 178 -64h7l36 70q90 -23 195 -51q-70 -250 -123 -512q-2 -10 8 -10q25 0 80 12
q8 -45 16 -131q-123 -41 -264 -41q-6 0 -28 16t-31 31q0 50 12 113l-14 6q-158 -166 -275 -166z" />
    <glyph glyph-name="guillemotleft" unicode="&#xab;" horiz-adv-x="980" 
d="M731 51q-9 11 -264 326q6 68 16 137q72 63 192 171t152 136q37 -31 93 -94q-74 -96 -226 -297l150 -293q-61 -53 -113 -86zM547 739l-238 -309q98 -195 158 -305q-49 -43 -117 -88q-180 227 -276 338q8 86 18 141q61 52 180 158t183 162q37 -33 92 -97z" />
    <glyph glyph-name="logicalnot" unicode="&#xac;" horiz-adv-x="1130" 
d="M829 23v385l-714 2q0 83 6 182q129 2 443 4t444 4q12 0 12 -8l-6 -563q-89 -6 -185 -6z" />
    <glyph glyph-name="uni00AD" unicode="&#xad;" horiz-adv-x="731" 
d="M336 428q-35 0 -129 1t-133 1q16 111 30 172q287 0 549 6q-8 -61 -35 -180h-282z" />
    <glyph glyph-name="registered" unicode="&#xae;" horiz-adv-x="999" 
d="M516 1081v-143h14q86 0 86 76q0 68 -84 67h-16zM381 1079h-37v72q64 2 162 2t145 -11t73 -41t26 -67q0 -82 -88 -119v-12q29 -12 75 -104q12 -20 23 -21l31 -2v-69h-156q-33 66 -62 139q-12 23 -43 22h-14v-90l37 -2v-69h-209v69l37 2v301zM553 1274q-150 0 -244 -100
t-94 -250t93 -247t243 -97t245 101t95 250t-94 246t-244 97zM562 1352q185 0 304 -119t119 -299t-127 -306t-312 -126t-304 118t-119 299t127 307t312 126z" />
    <glyph glyph-name="macron" unicode="&#xaf;" horiz-adv-x="1087" 
d="M879 1223q-8 -68 -27 -148q-68 0 -235 1t-250 1q10 66 22 142q336 4 490 4z" />
    <glyph glyph-name="degree" unicode="&#xb0;" horiz-adv-x="786" 
d="M449 924q119 0 119 145t-111 145q-51 0 -83 -47t-32 -108t31 -98t76 -37zM750 1079q0 -117 -84 -199t-214 -83q-128 1 -210 69t-82 188t88 204t220 83t207 -73t75 -189z" />
    <glyph glyph-name="plusminus" unicode="&#xb1;" horiz-adv-x="1130" 
d="M117 184l895 -2q0 -88 -6 -178l-897 -8q0 74 8 188zM473 301v270h-358q0 96 6 183q78 0 352 4l-2 305q123 8 195 8q0 -63 -4 -309q256 0 354 4q2 -70 -6 -197h-351l-2 -260q-111 -8 -184 -8z" />
    <glyph glyph-name="twosuperior" unicode="&#xb2;" 
d="M479 1540q289 0 289 -217q0 -162 -250 -317l-74 -45l2 -9q131 4 208 10t77 3q-6 -78 -26 -158h-551q-18 55 -27 98q123 80 188 129q209 160 209 281q0 90 -78 90q-57 0 -63 -29l-39 -119q-104 8 -145 15q4 24 18 106t23 125q127 37 239 37z" />
    <glyph glyph-name="threesuperior" unicode="&#xb3;" 
d="M530 1350q0 69 -75 69q-41 0 -57 -9t-17 -15l-29 -90q-58 0 -145 12q18 117 35 190q109 35 255 35t214 -51q57 -49 57 -115t-50 -114q-50 -50 -140 -62l-3 -10q72 -12 115 -60t43 -104q0 -106 -88 -168q-84 -66 -305 -65q-115 0 -193 12q-10 175 -10 211q68 12 154 18
l24 -100q-1 -17 59 -18t89 25t29 73q0 46 -42 72t-108 26h-59q4 49 16 123q231 -4 231 115z" />
    <glyph glyph-name="acute" unicode="&#xb4;" horiz-adv-x="1087" 
d="M795 1413q63 -68 120 -153q-285 -195 -370 -254q-47 47 -88 100q182 168 338 307z" />
    <glyph glyph-name="mu" unicode="&#xb5;" horiz-adv-x="1124" 
d="M369 305q0 -66 51 -65q61 0 148 116t112 228q6 23 35 157t35 156q201 4 299 4q-119 -614 -136 -704q-2 -16 11 -17q39 0 110 21q6 -27 21 -160q-137 -59 -350 -59q-10 0 -38 22t-38 41q2 43 16 160l-18 6q-84 -109 -160 -170t-122 -61t-66 38l-17 -6q-27 -319 -39 -510
q-100 -27 -303 -26q29 188 131 778q74 399 131 641q240 6 310 6q-123 -502 -123 -596z" />
    <glyph glyph-name="paragraph" unicode="&#xb6;" horiz-adv-x="1255" 
d="M80 776q0 174 92 301t240 193t495 65q160 0 377 -8q-18 -117 -31 -174l-127 2l-247 -1470q-86 -20 -177 -27l240 1501h-131l-250 -1487q-63 -14 -180 -26l115 704q-128 0 -230 62q-186 109 -186 364z" />
    <glyph glyph-name="periodcentered" unicode="&#xb7;" horiz-adv-x="598" 
d="M300 694q77 0 119 -45t42 -115t-50 -118q-50 -47 -123 -47t-119 44q-46 43 -46 111t50 119t127 51z" />
    <glyph glyph-name="cedilla" unicode="&#xb8;" horiz-adv-x="1087" 
d="M344 -297q0 33 -30 57t-83 23q-4 10 -16 72l217 184h166l-192 -170q59 -8 93 -53t33 -95q0 -97 -97 -163t-271 -66l8 113q172 4 172 98z" />
    <glyph glyph-name="onesuperior" unicode="&#xb9;" 
d="M227 1311l-2 121q98 15 272 66q175 50 182 50t7 -6q-18 -106 -113 -614l187 -4q-10 -66 -25 -115h-588q16 74 21 115l174 4q2 0 6 6q55 311 66 391q-115 -8 -187 -14z" />
    <glyph glyph-name="ordmasculine" unicode="&#xba;" horiz-adv-x="862" 
d="M444 705q43 0 71 44q29 45 51 155t22 182t-10 90q-20 28 -52 28t-63 -35q-33 -41 -60 -141t-27 -179t13 -111q12 -32 55 -33zM848 1036q0 -119 -45 -216t-119 -150q-102 -80 -270 -80t-244 96q-53 72 -53 175t38 197t107 159q115 102 287 102q299 0 299 -283z" />
    <glyph glyph-name="guillemotright" unicode="&#xbb;" horiz-adv-x="980" 
d="M618 442q-98 195 -157 306q37 35 117 88q137 -170 276 -336q-8 -84 -18 -144q-183 -159 -363 -319q-59 55 -92 96q153 196 237 309zM233 442l-149 293q57 55 113 86q147 -176 264 -323q-6 -74 -17 -140q-70 -61 -192 -171t-152 -136q-43 37 -92 94q151 197 225 297z" />
    <glyph glyph-name="onequarter" unicode="&#xbc;" horiz-adv-x="1923" 
d="M1227 306q0 -5 8 -5l186 -2l43 248h-16q-25 -25 -65 -67q-41 -42 -79 -82t-58 -63q-20 -24 -19 -29zM1729 180l-127 2q-2 -10 -6 -39t-7 -41l88 -4q-6 -45 -16 -98h-397q6 53 18 98l107 4q4 0 7 23t9 49h-303q-27 61 -47 133q37 37 136 142t277 278q121 0 226 -6
q-37 -211 -74 -420h129q-8 -66 -20 -121zM1581 1268q-283 -360 -561 -719q-371 -463 -463 -582q-74 43 -119 80q483 611 1016 1307q80 -43 127 -86zM252 1102l-2 123q78 12 262 64q184 53 197 52q5 0 -44 -262t-65 -360l184 -2q-10 -66 -24 -117h-588q4 32 21 117l174 2
q6 0 6 6q35 215 67 391q-109 -8 -188 -14z" />
    <glyph glyph-name="onehalf" unicode="&#xbd;" horiz-adv-x="1923" 
d="M1487 733q289 0 289 -217q0 -166 -250 -317l-74 -45l2 -9q131 4 283 15q2 0 -1 -40t-24 -120h-551q-18 55 -26 98q397 247 397 410q0 90 -78 90q-57 0 -63 -29l-39 -118q-104 8 -146 14q28 163 41 231q127 37 240 37zM1534 1268q-106 -135 -336 -431t-688 -870
q-84 51 -119 78q381 477 1018 1309q80 -47 125 -86zM739 717q-9 -51 -24 -117h-590q8 47 22 117l175 2q4 1 22 111t49 286q-109 -8 -188 -14l-2 123q83 12 265 65q183 52 196 51q3 0 -46 -262t-65 -360z" />
    <glyph glyph-name="threequarters" unicode="&#xbe;" horiz-adv-x="1923" 
d="M1239 301l188 -2l43 248h-16q-24 -25 -64 -67t-79 -82t-74 -83q-8 -10 2 -14zM1735 180l-127 2q-2 -10 -6 -39t-7 -41l88 -4q-6 -45 -16 -98h-397q4 37 16 98l109 4q4 0 7 23t9 49h-303q-27 61 -47 133q37 37 130 136t284 284q121 0 225 -6q-37 -211 -74 -420h129
q-8 -66 -20 -121zM1587 1268q-303 -383 -561 -719q-371 -463 -463 -582q-84 51 -119 80q121 152 455 576q318 418 561 731q80 -43 127 -86zM582 1141q0 71 -78 71q-40 0 -56 -8t-16 -16l-29 -94q-58 0 -145 12q16 117 35 194q109 35 255 35t214 -51q57 -50 57 -116t-50 -114
t-140 -61l-2 -10q73 -12 115 -59t42 -105q0 -106 -88 -168q-84 -66 -305 -65q-131 0 -192 12q-10 170 -11 211q68 10 154 18l25 -100q0 -18 59 -18q117 0 117 98q0 47 -42 73t-108 25h-59q4 49 16 123q231 -4 232 113z" />
    <glyph glyph-name="questiondown" unicode="&#xbf;" horiz-adv-x="960" 
d="M317 -451q-182 0 -283 75q-102 75 -106 210t86 243t328 216q31 16 39 52t14 114q96 33 226 39q44 -107 30 -236q-76 -49 -145 -94t-116 -93q-70 -81 -80 -119q-9 -38 -9 -84t29 -82t100 -36t94 47l68 168q119 -10 205 -24q-41 -186 -74 -326q-154 -70 -406 -70zM586 924
q74 0 114 -38t39 -104q0 -66 -56 -115t-128 -49t-110 44q-37 44 -37 110q0 68 52 110t126 42z" />
    <glyph glyph-name="Agrave" unicode="&#xc0;" horiz-adv-x="1327" 
d="M952 1434q-133 59 -426 196q68 125 107 178q317 -211 389 -258q-41 -73 -70 -116zM756 498l-62 483h-14q-172 -356 -225 -469q-6 -12 4 -12zM1212 0h-569q4 23 13 82t16 90l112 8q10 0 11 13l-17 122q0 10 -12 11l-397 -4q-13 -25 -33 -78t-27 -66l115 -6
q-14 -92 -31 -172h-487q10 68 28 172l97 6q10 4 18 15q97 177 321 591t302 557q78 4 274 5q33 -190 101 -612t90 -554l106 -8q-14 -92 -31 -172z" />
    <glyph glyph-name="Aacute" unicode="&#xc1;" horiz-adv-x="1327" 
d="M971 1808q45 -68 98 -178q-279 -133 -422 -196q-51 82 -67 118q244 162 391 256zM756 498l-62 483h-14q-172 -356 -225 -469q-6 -12 4 -12zM1212 0h-569q4 23 13 82t16 90l112 8q10 0 11 13l-17 122q0 10 -12 11l-397 -4q-13 -25 -33 -78t-27 -66l115 -6
q-14 -92 -31 -172h-487q10 68 28 172l97 6q10 4 18 15q97 177 321 591t302 557q78 4 274 5q33 -190 101 -612t90 -554l106 -8q-14 -92 -31 -172z" />
    <glyph glyph-name="Acircumflex" unicode="&#xc2;" horiz-adv-x="1327" 
d="M831 1604q-121 -70 -280 -158q-35 39 -70 100q307 227 316 234q68 4 98 2l75 -75q50 -50 90 -91t73 -72q-27 -33 -91 -96q-16 13 -211 156zM756 498l-62 483h-14q-172 -356 -225 -469q-6 -12 4 -12zM1212 0h-569q4 23 13 82t16 90l112 8q10 0 11 13l-17 122q0 10 -12 11
l-397 -4q-13 -25 -33 -78t-27 -66l115 -6q-14 -92 -31 -172h-487q10 68 28 172l97 6q10 4 18 15q97 177 321 591t302 557q78 4 274 5q33 -190 101 -612t90 -554l106 -8q-14 -92 -31 -172z" />
    <glyph glyph-name="Atilde" unicode="&#xc3;" horiz-adv-x="1327" 
d="M690 1726q70 0 154 -50q82 -50 110 -50t55 28q28 28 31 66q59 4 117 0q-11 -108 -75 -182t-158 -74q-55 0 -129 52q-86 49 -118 49t-59 -27t-32 -65q-37 -4 -117 0q11 101 81 177t140 76zM756 498l-62 483h-14q-172 -356 -225 -469q-6 -12 4 -12zM1210 0h-567q4 23 13 82
t16 90l112 8q10 0 11 13l-17 122q0 10 -14 11l-395 -4q-13 -25 -33 -78t-27 -66l115 -6q-14 -92 -31 -172h-487q10 68 28 172l97 6q10 4 18 15q97 177 321 591t302 557q74 4 274 5q26 -164 94 -580t97 -586l106 -8q-8 -61 -33 -172z" />
    <glyph glyph-name="Adieresis" unicode="&#xc4;" horiz-adv-x="1327" 
d="M1025 1702q56 0 88 -33t32 -83t-40 -89t-95 -39t-87 31t-32 84t39 91t95 38zM608 1702q57 0 87 -32t30 -81t-37 -90t-93 -41t-90 31t-34 82t40 91t97 40zM756 498l-62 483h-14q-172 -356 -225 -469q-6 -12 4 -12zM1212 0h-569q4 23 13 82t16 90l112 8q10 0 11 13l-17 122
q0 10 -14 11l-395 -4q-8 -23 -30 -73t-30 -71l115 -6q-14 -92 -31 -172h-487q10 68 28 172l97 6q12 4 18 15q104 186 333 610q228 424 290 538q74 4 274 5q33 -190 101 -612t90 -554l106 -8q-14 -92 -31 -172z" />
    <glyph glyph-name="Aring" unicode="&#xc5;" horiz-adv-x="1327" 
d="M814 1530q42 0 74 33t32 79t-26 74t-69 29q-43 0 -75 -33t-33 -82q0 -49 27 -75q28 -25 70 -25zM812 1427q-116 -1 -182 49q-65 50 -65 145t82 161q81 66 187 66t172 -54q66 -53 66 -140t-72 -157t-188 -70zM756 498l-62 483h-14q-172 -356 -225 -469q-6 -12 4 -12z
M1212 0h-569q4 23 13 82t16 90l112 8q10 0 9 25t-13 110q-2 10 -14 11l-397 -4q-8 -23 -30 -73t-30 -71l115 -6q-14 -92 -31 -172h-487q10 68 28 172l97 6q10 4 18 15q104 186 333 610q228 424 290 538q78 4 276 5q26 -164 94 -580t97 -586l104 -8q-14 -92 -31 -172z" />
    <glyph glyph-name="AE" unicode="&#xc6;" horiz-adv-x="1818" 
d="M649 684h236l84 467h-21q-115 -168 -301 -455q-8 -12 2 -12zM1380 1153q-88 0 -90 -6l-78 -434q126 0 176 2t62 41l27 82q78 2 168 -4q-37 -206 -47 -264t-25 -132q-54 -4 -168 -4v60q-2 26 -11 34t-50 10t-160 1l-56 -316q-6 -31 17 -39t112 -8t154 17q31 10 51 43
l74 137q86 -14 174 -43q-39 -123 -117 -332l-673 2q-48 0 -144 -1t-135 -1q10 59 31 174l114 4q12 4 15 14l53 310q2 10 -12 10l-318 -4q-135 -213 -200 -328l112 -6q-14 -92 -30 -172h-502q10 76 28 172l97 6q16 6 22 15q686 983 791 1128q8 10 14 10l297 -2l457 2h188
q-14 -121 -47 -366q-45 -4 -168 -9l-8 148q0 31 -35 35q-72 14 -160 14z" />
    <glyph glyph-name="Ccedilla" unicode="&#xc7;" horiz-adv-x="1187" 
d="M612 -18q-209 0 -368 139q-158 131 -158 405q0 207 101 389t253 293q205 145 502 146q180 0 266 -43q-31 -307 -47 -426q-92 -6 -188 -6l-6 206q0 20 -11 29q-43 31 -112 31q-115 0 -202 -78t-140 -216t-53 -303t69 -255q74 -88 225 -88q61 0 159 19t149 40
q4 -100 0 -194q-86 -33 -207 -62l-215 -166q137 -34 137 -150t-117 -175t-268 -60v113q78 2 130 27t52 69q1 44 -21 65q-22 22 -91 25q-11 41 -17 78l193 148h-15z" />
    <glyph glyph-name="Egrave" unicode="&#xc8;" horiz-adv-x="1167" 
d="M559 1806q242 -151 391 -258q-40 -73 -69 -116q-133 59 -426 196q70 125 104 178zM694 1153q-54 0 -57 -8l-68 -385q125 0 174 2t54 13q6 11 12 28l27 82q78 2 168 -4q-25 -139 -41 -213q-16 -121 -35 -209q-58 -4 -168 -4l2 80q0 33 -12 42q-13 9 -213 9l-62 -365
q-4 -29 21 -38t115 -9t149 16q33 10 51 46l82 153q70 -14 172 -43q-53 -162 -123 -348l-672 2h-280l30 172l103 4q12 0 12 12l170 963l-117 6q23 125 33 172h268l469 2h189q-31 -260 -45 -366q-41 -4 -168 -9l-10 152q0 31 -33 35q-143 10 -197 10z" />
    <glyph glyph-name="Eacute" unicode="&#xc9;" horiz-adv-x="1167" 
d="M561 1550l391 256q51 -78 101 -178q-231 -111 -422 -196q-33 51 -70 118zM694 1153q-54 0 -57 -8l-68 -385q125 0 174 2t54 13q6 11 12 28l27 82q78 2 168 -4q-25 -139 -41 -213q-16 -121 -35 -209q-58 -4 -168 -4l2 80q0 33 -12 42q-13 9 -213 9l-62 -365q-4 -29 21 -38
t115 -9t149 16q33 10 51 46l82 153q70 -14 172 -43q-53 -162 -123 -348l-672 2h-280l30 172l103 4q12 0 12 12l170 963l-117 6q23 125 33 172h268l469 2h189q-31 -260 -45 -366q-41 -4 -168 -9l-10 152q0 31 -33 35q-143 10 -197 10z" />
    <glyph glyph-name="Ecircumflex" unicode="&#xca;" horiz-adv-x="1167" 
d="M954 1448q-2 2 -211 154q-121 -70 -280 -158q-43 53 -70 100q47 35 318 234q66 4 96 2q123 -119 237 -238q-45 -55 -90 -94zM694 1153q-54 0 -57 -8l-68 -385q125 0 174 2t54 13q6 11 12 28l27 82q78 2 168 -4q-25 -139 -41 -213q-16 -121 -35 -209q-58 -4 -168 -4l2 80
q0 33 -12 42q-13 9 -213 9l-62 -365q-4 -29 21 -38t115 -9t149 16q33 10 51 46l82 153q70 -14 172 -43q-53 -162 -123 -348l-672 2h-280l30 172l103 4q12 0 12 12l170 963l-117 6q23 125 33 172h268l469 2h189q-31 -260 -45 -366q-41 -4 -168 -9l-10 152q0 31 -33 35
q-143 10 -197 10z" />
    <glyph glyph-name="Edieresis" unicode="&#xcb;" horiz-adv-x="1167" 
d="M953 1702q56 0 88 -33t32 -83t-40 -89t-95 -39t-87 31t-32 84t39 91t95 38zM537 1702q57 0 87 -32t30 -81t-38 -90q-37 -41 -93 -41t-90 31t-34 82t40 91q41 40 98 40zM698 1153q-60 0 -61 -8l-68 -385q125 0 174 2t56 14q6 12 10 27l29 82q74 2 166 -4q-6 -35 -20 -107
t-30 -175q-18 -103 -26 -140q-54 -4 -168 -4l2 80q2 29 -6 39t-52 10q-44 2 -167 2l-62 -365q-4 -29 21 -38t115 -9t136 12t64 50l82 153q61 -12 174 -43q-66 -190 -125 -348l-672 2h-280q11 46 18 100q8 54 12 72l103 4q10 0 14 12l168 963l-117 6l33 172h271l469 2h186
q-12 -121 -45 -366q-45 -4 -168 -9l-8 152q0 31 -35 35q-133 10 -193 10z" />
    <glyph glyph-name="Igrave" unicode="&#xcc;" horiz-adv-x="759" 
d="M670 1432q-127 57 -424 196q49 96 104 178q317 -211 389 -258q-32 -65 -69 -116zM213 1331l305 -2q50 0 148 1t133 1q-18 -104 -35 -174l-119 -6q-6 0 -6 -10l-172 -959l133 -6q-14 -98 -31 -176l-295 2q-45 0 -146 -1t-146 -1q6 29 16 88t16 88l113 6q6 0 10 11l168 958
l-125 6l18 87q11 58 15 87z" />
    <glyph glyph-name="Iacute" unicode="&#xcd;" horiz-adv-x="759" 
d="M711 1806q51 -78 100 -178q-279 -133 -422 -196q-51 82 -67 118q190 127 389 256zM213 1331l305 -2q50 0 148 1t133 1q-7 -29 -19 -87t-16 -87l-121 -6q-4 0 -4 -10l-172 -959l133 -6q-14 -98 -31 -176l-295 2q-45 0 -146 -1t-146 -1q6 29 16 88t16 88l113 6q6 0 10 11
l168 958l-125 6l18 87q11 58 15 87z" />
    <glyph glyph-name="Icircumflex" unicode="&#xce;" horiz-adv-x="759" 
d="M549 1602q-121 -70 -281 -158q-35 39 -69 100q307 227 315 234q68 4 98 2l75 -75q50 -50 90 -91t73 -72q-27 -33 -90 -96q-16 13 -211 156zM213 1331l305 -2q50 0 148 1t133 1q-18 -104 -35 -174l-119 -6q-6 0 -6 -10l-172 -959l135 -6q-25 -139 -33 -176l-295 2
q-45 0 -146 -1t-146 -1q6 29 16 88t16 88l113 6q6 0 10 11l168 958l-125 6l18 87q11 58 15 87z" />
    <glyph glyph-name="Idieresis" unicode="&#xcf;" horiz-adv-x="759" 
d="M755 1702q56 0 88 -33q31 -33 31 -83t-40 -89t-94 -39q-56 0 -88 31t-31 84q0 53 38 91q40 38 96 38zM338 1702q57 0 87 -32t30 -81t-37 -90q-38 -41 -94 -41t-90 31t-34 82t41 91q40 40 97 40zM215 1331l305 -2q50 0 148 1t133 1q-8 -49 -37 -174l-119 -6q-6 0 -6 -10
l-172 -959l135 -6q-14 -98 -31 -176l-297 2q-45 0 -146 -1t-146 -1q20 94 34 176l111 6q6 0 12 11l166 958l-123 6q29 160 33 174z" />
    <glyph glyph-name="Eth" unicode="&#xd0;" horiz-adv-x="1390" 
d="M530 164q139 0 248 86q84 70 135 204t51 326t-77 289q-78 96 -182 96q-35 0 -68 -8l-76 -412q74 2 221 3q-14 -104 -28 -164h-222l-63 -359q-10 -61 61 -61zM712 1333q272 0 410 -104q203 -152 203 -459q-1 -215 -109 -393q-108 -177 -271 -277t-431 -100h-522
q4 23 14 82t17 88l98 6q12 4 12 14l70 396h-166q18 121 26 155l168 2l72 406l-115 4q6 27 18 85q11 58 17 89q217 6 489 6z" />
    <glyph glyph-name="Ntilde" unicode="&#xd1;" horiz-adv-x="1474" 
d="M786 1726q70 0 160 -57q74 -43 102 -43t56 28t31 66q59 4 116 0q-12 -108 -75 -182t-158 -74q-53 0 -132 50t-113 50q-35 0 -61 -27q-26 -28 -32 -67q-57 -4 -117 0q10 102 81 179q72 77 142 77zM1307 1329q37 0 111 1t104 1q-25 -143 -33 -172l-94 -8q-12 0 -15 -14
l-200 -1119q-74 -37 -242 -36q-248 406 -457 864l-12 -2q-23 -121 -63 -341t-58 -321l152 -6q-12 -90 -31 -176l-297 2q-36 0 -100 -1t-90 -1q6 29 15 87t15 89l107 4q10 0 10 13l166 958l-123 4q10 59 31 174h383q115 -231 442 -928h12q16 115 56 367q39 252 57 383l-162 4
q10 59 31 174h285z" />
    <glyph glyph-name="Ograve" unicode="&#xd2;" horiz-adv-x="1466" 
d="M1071 1434l-426 194q57 109 105 178q260 -168 391 -258q-41 -75 -70 -114zM457 496q-1 -340 221 -340q110 0 184 79t122 249t48 356q0 334 -198 336q-64 0 -108 -22t-102 -84t-113 -233q-54 -173 -54 -341zM1401 829q0 -215 -84 -398t-221 -296q-201 -155 -471 -155
t-418 172q-117 136 -117 374t119 435q235 389 672 391q203 0 329 -99q96 -69 144 -189t47 -235z" />
    <glyph glyph-name="Oacute" unicode="&#xd3;" horiz-adv-x="1466" 
d="M1196 1628q-325 -151 -422 -194q-33 45 -69 116q153 102 391 258q59 -92 100 -180zM457 496q-1 -340 221 -340q110 0 184 79t122 249t48 356q0 334 -198 336q-64 0 -108 -22t-102 -84t-113 -233q-54 -173 -54 -341zM1401 829q0 -215 -84 -398t-221 -296
q-201 -155 -471 -155t-418 172q-117 136 -117 374t119 435q235 389 672 391q203 0 329 -99q96 -69 144 -189t47 -235z" />
    <glyph glyph-name="Ocircumflex" unicode="&#xd4;" horiz-adv-x="1466" 
d="M983 1782l236 -240q-43 -53 -91 -94q-110 84 -210 154l-281 -158q-41 51 -70 102q47 35 318 234q31 2 98 2zM457 496q-1 -340 221 -340q110 0 184 79t122 249t48 356q0 334 -198 336q-64 0 -108 -22t-102 -84t-113 -233q-54 -173 -54 -341zM1401 829q0 -215 -84 -398
t-221 -296q-201 -155 -471 -155t-418 172q-117 136 -117 374t119 435q235 389 672 391q203 0 329 -99q96 -69 144 -189t47 -235z" />
    <glyph glyph-name="Otilde" unicode="&#xd5;" horiz-adv-x="1466" 
d="M779 1726q73 0 159 -57q74 -43 102 -43t55 28q28 28 31 66q59 4 117 0q-11 -108 -75 -182t-158 -74q-55 0 -129 52q-86 49 -117 49q-30 0 -58 -28t-34 -67h-117q11 102 81 179t143 77zM1032 840q0 334 -198 336q-64 0 -108 -22t-102 -84t-113 -233q-54 -172 -54 -362
q0 -319 225 -319q106 0 180 79t122 249t48 356zM1401 829q0 -215 -84 -398t-221 -296q-201 -155 -471 -155t-418 172q-117 136 -117 374t119 435q235 389 672 391q203 0 329 -99q96 -69 144 -189t47 -235z" />
    <glyph glyph-name="Odieresis" unicode="&#xd6;" horiz-adv-x="1466" 
d="M1123 1702q56 0 88 -33t32 -83t-40 -89t-95 -39t-87 31t-32 84t39 91t95 38zM707 1702q57 0 87 -32t30 -81t-38 -90q-37 -41 -93 -41t-90 31t-34 82t40 91q41 40 98 40zM1032 840q0 334 -198 336q-64 0 -108 -22t-102 -84t-113 -233q-54 -173 -54 -341t51 -250
q62 -90 170 -90t192 90q66 68 114 238t48 356zM1401 829q0 -215 -84 -398t-221 -296q-201 -155 -471 -155t-418 172q-117 136 -117 374t119 435q235 389 670 391q205 0 331 -99q96 -69 144 -189t47 -235z" />
    <glyph glyph-name="multiply" unicode="&#xd7;" horiz-adv-x="1130" 
d="M580 629q264 276 292 307q90 -78 146 -141l-305 -306q242 -254 325 -344q-49 -55 -127 -125q-176 180 -331 336l-336 -336q-78 70 -127 125q307 321 329 344l-292 295q35 39 143 144q51 -53 283 -299z" />
    <glyph glyph-name="Oslash" unicode="&#xd8;" horiz-adv-x="1466" 
d="M686 156q121 0 200 95t130 246t51 347q0 35 -4 92q-70 -88 -275 -361q-43 -53 -137 -171t-139 -173q53 -75 174 -75zM824 1178q-114 0 -199 -96t-144 -261q-59 -164 -59 -354q0 -39 4 -96q53 72 299 391t264 338q-51 78 -165 78zM889 1352q141 0 239 -60q49 61 148 181
q94 -66 147 -123q-39 -47 -141 -168q119 -146 119 -356t-84 -393t-223 -296q-195 -158 -469 -157q-162 0 -271 65q-115 -131 -168 -192q-84 55 -139 104q66 74 166 195q-123 144 -123 378t119 430t285 294t395 98z" />
    <glyph glyph-name="Ugrave" unicode="&#xd9;" horiz-adv-x="1378" 
d="M1008 1432q-238 106 -424 196q49 96 104 178q360 -240 389 -258q-24 -48 -69 -116zM594 -20q-238 0 -361 124q-139 139 -88 424l109 625l-100 6q10 57 34 172l269 -2q53 0 156 1t147 1q-20 -115 -35 -172l-123 -6q-10 0 -14 -16l-107 -602q-35 -201 25 -274t158 -73
t174 76q80 74 116 299q43 221 97 580q0 10 -9 10l-139 6q8 57 29 172l272 -2q43 0 123 1t113 1q-13 -86 -31 -172l-98 -6l-101 -559q-61 -338 -219 -476q-159 -138 -397 -138z" />
    <glyph glyph-name="Uacute" unicode="&#xda;" horiz-adv-x="1378" 
d="M674 1550l391 256q51 -78 100 -178q-231 -111 -422 -196q-33 51 -69 118zM594 -20q-238 0 -361 124q-139 139 -88 424l109 625l-100 6q10 57 34 172l269 -2q53 0 156 1t147 1q-20 -115 -35 -172l-123 -6q-10 0 -14 -16l-107 -602q-35 -201 25 -274t158 -73t174 76
q80 74 116 299q43 221 97 580q0 10 -9 10l-139 6q8 57 29 172l272 -2q43 0 123 1t113 1q-13 -86 -31 -172l-98 -6l-101 -559q-61 -338 -219 -476q-159 -138 -397 -138z" />
    <glyph glyph-name="Ucircumflex" unicode="&#xdb;" horiz-adv-x="1378" 
d="M1102 1448q-2 2 -211 154q-121 -70 -281 -158q-43 53 -69 100q47 35 317 234q66 4 96 2q123 -119 238 -238q-45 -55 -90 -94zM594 -20q-238 0 -361 124q-139 139 -88 424l109 625l-100 6q10 57 34 172l269 -2q53 0 156 1t147 1q-20 -115 -35 -172l-123 -6q-10 0 -14 -16
l-107 -602q-35 -201 25 -274t158 -73t174 76q80 74 116 299q43 221 97 580q0 10 -9 10l-139 6q8 57 29 172l272 -2q43 0 123 1t113 1q-13 -86 -31 -172l-98 -6l-101 -559q-61 -338 -219 -476q-159 -138 -397 -138z" />
    <glyph glyph-name="Udieresis" unicode="&#xdc;" horiz-adv-x="1378" 
d="M1086 1702q56 0 88 -33t32 -83t-40 -89t-95 -39t-87 31t-32 84t39 91t95 38zM670 1702q57 0 87 -32q29 -32 29 -81t-36 -90t-94 -41q-56 0 -90 31t-34 82t40 91q41 40 98 40zM594 -20q-238 0 -361 124q-139 139 -88 424l109 625l-100 6q10 57 34 172l269 -2q53 0 156 1
t147 1q-20 -115 -35 -172l-123 -6q-10 0 -14 -16l-107 -602q-35 -201 25 -274t158 -73t174 76q80 74 116 299q43 221 97 580q0 10 -9 10l-139 6q8 57 29 172l272 -2q43 0 123 1t113 1q-13 -86 -31 -172l-98 -6l-101 -559q-61 -338 -219 -476q-159 -138 -397 -138z" />
    <glyph glyph-name="Yacute" unicode="&#xdd;" horiz-adv-x="1181" 
d="M606 1550l391 256q51 -78 101 -178q-10 -5 -422 -196q-33 51 -70 118zM371 1329q57 0 168 1t147 1q-18 -104 -35 -174l-108 -8q27 -127 106 -449h17q168 256 264 437q4 12 -6 12l-111 4q13 92 33 176h307q31 0 85 1t75 1q-18 -100 -35 -176l-74 -6q-186 -266 -483 -649
l-57 -318l147 -6q-14 -82 -35 -176l-305 2q-47 0 -151 -1t-152 -1q15 82 35 176l119 6q12 0 12 15l53 301q-88 233 -213 641q-6 12 -12 12l-88 6q4 23 32 172h265z" />
    <glyph glyph-name="Thorn" unicode="&#xde;" horiz-adv-x="1202" 
d="M549 414q115 0 172 51q100 84 100 242q0 89 -43 159t-131 70q-47 0 -65 -6l-88 -496q-2 -14 11 -17t44 -3zM668 1075q475 1 475 -371q0 -122 -81 -228q-159 -209 -509 -210q-72 0 -88 2l-16 -92l174 -6q-16 -102 -31 -170l-346 2q-41 0 -125 -1t-121 -1q30 163 33 170
l90 6q8 0 8 12l168 963l-109 6q3 16 33 174h557q-10 -76 -32 -176l-119 -4q-6 0 -11 -12l-10 -64h60z" />
    <glyph glyph-name="germandbls" unicode="&#xdf;" horiz-adv-x="1335" 
d="M776 1413q170 0 279 -115q51 -55 80 -151t18 -199q-27 -18 -81 -50t-87 -52q-90 -59 -90 -127q0 -41 31 -63q30 -22 122 -58t150 -94q58 -59 59 -170q0 -172 -145 -268q-125 -86 -302 -86t-290 34q12 207 21 293q49 6 155 10l19 -120q4 -18 10 -25q35 -20 101 -20t102 30
q35 30 35 75q0 46 -25 72q-26 25 -122 67t-154 100t-60 157q0 135 156 244q57 39 94 76q12 109 -37 182q-49 63 -109 63q-111 1 -158 -163q-22 -74 -52 -258t-100 -590q-71 -406 -97 -561q-94 -4 -293 -4q90 578 178 1069h-155l30 172l140 10q12 0 12 12q29 141 73 227
t132 148q190 133 360 133z" />
    <glyph glyph-name="agrave" unicode="&#xe0;" horiz-adv-x="1095" 
d="M528 1411l303 -305q-43 -51 -96 -98q-238 184 -340 260q61 77 133 143zM573 731q-89 0 -163 -177t-74 -286q0 -68 43 -68t133 92t110 156t56 232q-29 51 -105 51zM18 248q0 90 54 242t173 293q118 141 254 141t230 -82h10l54 100q102 -25 241 -70q-102 -375 -166 -684
q-4 -12 13 -12q29 0 106 19q16 -106 21 -162q-158 -51 -336 -51q-10 0 -38 22t-38 39q4 63 16 145l-20 9q-217 -221 -369 -226q-43 6 -100 48t-80 94q-25 45 -25 135z" />
    <glyph glyph-name="aacute" unicode="&#xe1;" horiz-adv-x="1095" 
d="M895 1413q66 -66 123 -153q-285 -195 -371 -254q-49 47 -88 100q133 123 336 307zM573 731q-89 0 -163 -177t-74 -286q0 -68 43 -68t133 92t110 156t56 232q-29 51 -105 51zM18 248q0 90 54 242t173 293q118 141 254 141t230 -82h10l54 100q102 -25 241 -70
q-102 -375 -166 -684q-4 -12 13 -12q29 0 106 19q16 -106 21 -162q-158 -51 -336 -51q-10 0 -38 22t-38 39q4 63 16 145l-20 9q-217 -221 -369 -226q-43 6 -100 48t-80 94q-25 45 -25 135z" />
    <glyph glyph-name="acircumflex" unicode="&#xe2;" horiz-adv-x="1095" 
d="M784 1384q123 -182 187 -297q-55 -45 -103 -73q-160 186 -170 196l-227 -196q-39 29 -90 84q52 54 270 284q43 2 133 2zM573 731q-89 0 -163 -177t-74 -286q0 -68 43 -68t133 92t110 156t56 232q-29 51 -105 51zM18 248q0 90 54 242t173 293q118 141 254 141t230 -82h10
l54 100q102 -25 241 -70q-102 -375 -166 -684q-4 -12 13 -12q29 0 106 19q16 -106 21 -162q-158 -51 -336 -51q-10 0 -38 22t-38 39q4 63 16 145l-20 9q-217 -221 -369 -226q-43 6 -100 48t-80 94q-25 45 -25 135z" />
    <glyph glyph-name="atilde" unicode="&#xe3;" horiz-adv-x="1095" 
d="M561 1307q42 -1 69 -15l32 -16t22 -14l21 -15q80 -53 110 -53q57 0 86 106q63 2 115 0q-14 -112 -79 -188t-140 -76q-49 0 -135 58q-76 57 -113 57q-53 0 -82 -109q-43 -4 -117 0q14 111 76 188t135 77zM573 731q-89 0 -163 -177t-74 -286q0 -68 43 -68t133 92t110 156
t56 232q-29 51 -105 51zM18 248q0 90 54 242t173 293q118 141 254 141t230 -82h10l54 100q102 -25 241 -70q-102 -375 -166 -684q-4 -12 13 -12q29 0 106 19q16 -106 21 -162q-158 -51 -336 -51q-10 0 -38 22t-38 39q4 63 16 145l-20 9q-217 -221 -369 -226q-43 6 -100 48
t-80 94q-25 45 -25 135z" />
    <glyph glyph-name="adieresis" unicode="&#xe4;" horiz-adv-x="1095" 
d="M886 1282q56 0 87 -31t31 -79t-38 -86q-38 -40 -90 -40t-84 30t-32 81t35 88t91 37zM504 1282q53 0 84 -30q30 -30 30 -78t-35 -88q-37 -40 -91 -40t-86 32q-32 30 -31 79q0 49 38 87t91 38zM573 731q-89 0 -163 -177t-74 -286q0 -68 43 -68t133 92q90 91 107 148t59 240
q-29 51 -105 51zM18 248q0 90 54 242t173 293q118 141 254 141t230 -82h10l54 100q102 -25 241 -70q-94 -344 -168 -684q-4 -12 15 -12q31 0 104 19q18 -94 21 -162q-158 -51 -334 -51q-10 0 -38 22t-38 39q0 16 14 145l-20 9q-213 -221 -367 -226q-43 6 -100 48t-80 94
q-25 45 -25 135z" />
    <glyph glyph-name="aring" unicode="&#xe5;" horiz-adv-x="1095" 
d="M687 1339q-40 1 -69 -29q-28 -30 -28 -77t24 -74t62 -26q100 0 100 122q0 37 -24 61q-25 23 -65 23zM698 1440q106 0 165 -49t59 -136t-70 -155t-176 -68t-170 48t-64 142t75 156t181 62zM575 731q-87 0 -163 -177t-76 -286q0 -68 43 -67q45 0 135 91t108 148t58 240
q-33 51 -105 51zM18 248q0 90 38 198q66 185 171 317q55 71 131 116t156 45q123 0 217 -82h10l54 100q92 -23 239 -70q-84 -309 -166 -684q-4 -12 13 -12q29 0 106 19q14 -72 21 -162q-158 -51 -336 -51q-8 0 -37 22t-37 39q0 16 14 145l-20 9q-213 -221 -369 -226
q-43 6 -100 48t-80 94q-25 45 -25 135z" />
    <glyph glyph-name="ae" unicode="&#xe6;" horiz-adv-x="1540" 
d="M336 266q0 -66 43 -65q41 0 123 81t114 142q35 133 91 231q-51 76 -135 76q-84 1 -160 -179t-76 -286zM936 516q248 0 248 117q0 53 -22 93t-66 40q-43 0 -76 -45q-66 -78 -84 -205zM1036 178q154 0 330 76q20 -68 41 -152q-256 -123 -518 -122q-84 0 -155 43
q-106 64 -124 172l-14 4q-223 -219 -369 -228q-45 8 -99 45q-54 38 -82 90t-28 138t40 200t80 183q38 71 92 141t130 113t152 43t135 -23t87 -45t81 -68h14q160 135 371 136q127 0 204 -77t81 -177q-25 -145 -113 -221q-152 -84 -454 -84q-6 -23 -6 -71t34 -82
q35 -34 90 -34z" />
    <glyph glyph-name="ccedilla" unicode="&#xe7;" horiz-adv-x="878" 
d="M352 -18q-123 0 -221 86t-98 219t55 263t162 226q168 147 418 148q72 0 127 -18t67 -32q0 -51 -47 -132t-80 -93q-117 78 -180 78t-101 -53q-38 -52 -65 -144t-27 -168q0 -182 136 -182q88 0 239 45q29 -117 35 -151q-98 -45 -213 -70l-153 -135q59 -8 93 -53t33 -95
q0 -97 -97 -163t-271 -66l8 113q172 4 172 98q0 33 -30 55t-83 25q-4 11 -16 72l150 127h-13z" />
    <glyph glyph-name="egrave" unicode="&#xe8;" horiz-adv-x="983" 
d="M711 1006q-28 23 -342 260q74 90 135 143q61 -61 301 -305q-49 -59 -94 -98zM540 766q-42 0 -88 -56t-73 -194q245 0 247 117q0 53 -22 93t-64 40zM29 276q0 130 58 264t167 230q172 154 379 154q137 0 214 -79t81 -177q-8 -70 -43 -133t-78 -93q-158 -80 -447 -77
q-6 -23 -6 -71t35 -82t92 -34q158 0 328 76q20 -68 41 -152q-250 -123 -516 -122q-121 0 -213 83t-92 213z" />
    <glyph glyph-name="eacute" unicode="&#xe9;" horiz-adv-x="983" 
d="M909 1255l-368 -254q-49 47 -88 101q132 123 335 307q68 -68 121 -154zM540 766q-42 0 -88 -56t-73 -194q245 0 247 117q0 53 -22 93t-64 40zM29 276q0 130 58 264t167 230q172 154 379 154q137 0 214 -79t81 -177q-8 -70 -43 -133t-78 -93q-158 -80 -447 -77
q-6 -23 -6 -71t35 -82t92 -34q158 0 328 76q20 -68 41 -152q-250 -123 -516 -122q-121 0 -213 83t-92 213z" />
    <glyph glyph-name="ecircumflex" unicode="&#xea;" horiz-adv-x="983" 
d="M731 1382q144 -230 184 -297q-47 -41 -100 -73q-160 186 -170 196l-229 -196q-49 43 -88 84q51 55 270 284q43 2 133 2zM540 766q-42 0 -88 -56t-73 -194q245 0 247 117q0 53 -22 93t-64 40zM29 276q0 130 58 264t167 230q172 154 379 154q137 0 214 -79t81 -177
q-8 -70 -43 -133t-78 -93q-158 -80 -447 -77q-6 -23 -6 -71t35 -82t92 -34q158 0 328 76q20 -68 41 -152q-250 -123 -516 -122q-121 0 -213 83t-92 213z" />
    <glyph glyph-name="edieresis" unicode="&#xeb;" horiz-adv-x="983" 
d="M845 1280q56 0 87 -31t31 -79t-38 -86q-38 -40 -90 -40t-84 30t-32 81t35 88t91 37zM463 1280q53 0 84 -30t31 -78t-36 -88t-90 -40t-86 31t-32 80t38 87t91 38zM540 766q-42 0 -88 -56t-73 -194q245 0 247 117q0 53 -22 93t-64 40zM29 276q0 130 58 264t167 230
q172 154 379 154q137 0 214 -79t81 -177q-8 -70 -43 -133t-78 -93q-158 -80 -447 -77q-6 -23 -6 -71t35 -82t90 -34q160 0 328 76q29 -90 43 -152q-254 -123 -516 -122q-121 0 -213 83t-92 213z" />
    <glyph glyph-name="igrave" unicode="&#xec;" horiz-adv-x="628" 
d="M270 1411q106 -104 303 -305q-43 -51 -96 -98q-227 176 -342 260q65 82 135 143zM391 166q35 0 131 20q6 -53 15 -159q-156 -45 -381 -45q-14 0 -51 33q-36 34 -44 59q16 82 65 309q48 227 64 313l-157 4q-2 86 0 168q63 8 215 31t184 25q12 0 47 -31t51 -53
q-20 -100 -80 -370t-64 -286q-4 -18 5 -18z" />
    <glyph glyph-name="iacute" unicode="&#xed;" horiz-adv-x="628" 
d="M571 1413q63 -68 121 -153q-285 -195 -370 -254q-49 47 -89 100q182 168 338 307zM391 166q35 0 131 20q6 -53 15 -159q-156 -45 -381 -45q-14 0 -51 33q-36 34 -44 59q16 82 65 309q48 227 64 313l-157 4q-2 86 0 168q63 8 215 31t184 25q12 0 47 -31t51 -53
q-20 -100 -80 -370t-64 -286q-4 -18 5 -18z" />
    <glyph glyph-name="icircumflex" unicode="&#xee;" horiz-adv-x="628" 
d="M477 1384q123 -182 187 -297q-41 -37 -103 -73q-160 186 -170 196q-143 -125 -227 -196q-31 25 -90 84q209 219 270 284q43 2 133 2zM391 166q35 0 131 20q6 -53 15 -159q-156 -45 -381 -45q-14 0 -51 33q-36 34 -44 59q16 82 65 309q48 227 64 313l-157 4q-2 86 0 168
q63 8 215 31t184 25q12 0 47 -31t51 -53q-20 -100 -80 -370t-64 -286q-4 -18 5 -18z" />
    <glyph glyph-name="idieresis" unicode="&#xef;" horiz-adv-x="628" 
d="M591 1282q56 0 87 -31t31 -79t-38 -86q-38 -40 -90 -40t-84 30t-32 81t35 88t91 37zM209 1282q53 0 84 -30t31 -78t-36 -88t-90 -40t-86 32q-32 30 -32 79t38 87t91 38zM391 166q33 0 129 20q12 -106 15 -159q-152 -45 -379 -45q-14 0 -51 33q-36 34 -46 59
q78 362 129 622l-157 4v168l399 56q14 0 48 -30t50 -54q-106 -502 -145 -658q-4 -16 8 -16z" />
    <glyph glyph-name="eth" unicode="&#xf0;" horiz-adv-x="1042" 
d="M559 743q-53 1 -89 -39t-68 -164t-31 -224q0 -100 10 -130q20 -59 73 -59q54 -1 94 65t72 198t32 213t-9 91q-31 49 -84 49zM37 329q0 136 57 263t133 190q121 104 279 105q96 0 160 -49l12 6q-6 135 -72 248q-152 -68 -244 -115q-37 68 -65 139q37 16 113 52t108 51
q-102 111 -274 147q31 92 65 156q117 -10 240 -74t182 -131q90 39 232 104q43 -82 61 -147q-39 -18 -193 -86q135 -195 140 -461q2 -446 -217 -639q-125 -109 -359 -108q-193 0 -293 124q-65 89 -65 225z" />
    <glyph glyph-name="ntilde" unicode="&#xf1;" horiz-adv-x="1167" 
d="M576 1307q66 0 149 -60q84 -53 113 -53q57 0 86 106q63 2 112 0q-14 -112 -78 -188t-139 -76q-49 0 -137 60q-8 6 -30 19t-40 25t-41 11q-53 0 -82 -109q-63 -4 -118 0q15 111 77 188t128 77zM938 166q27 0 117 16q12 -102 14 -157q-145 -43 -379 -43q-14 0 -45 28
t-45 53q16 66 78 289t61 251q0 54 -37 54q-68 -1 -160 -117t-120 -221q-45 -178 -78 -317q-102 -2 -301 -2q65 278 147 696l-145 -6q-2 86 0 168q95 14 221 40q127 26 137 26q11 0 47 -28t50 -50q-7 -28 -31 -168l23 -4q102 125 207 186t178 64q43 -6 90 -39q92 -64 94 -160
q0 -137 -129 -543q-6 -16 6 -16z" />
    <glyph glyph-name="ograve" unicode="&#xf2;" horiz-adv-x="1054" 
d="M723 1006l-340 260q72 88 133 143q59 -59 303 -307q-63 -68 -96 -96zM645 652q0 124 -74 124q-51 0 -92 -48t-76 -180t-35 -230t15 -142q21 -49 78 -49t90 61q33 52 63 196t31 268zM973 556q0 -142 -68 -272q-68 -128 -170 -210q-125 -94 -329 -94t-304 124
q-23 29 -43 85t-20 114q0 313 207 488q156 133 360 133t301 -129q66 -97 66 -239z" />
    <glyph glyph-name="oacute" unicode="&#xf3;" horiz-adv-x="1054" 
d="M786 1409q63 -68 121 -154q-285 -195 -370 -254q-45 47 -88 101q181 168 337 307zM645 652q0 124 -74 124q-51 0 -92 -48t-76 -180t-35 -230t15 -142q21 -49 78 -49t90 61q33 52 63 196t31 268zM973 556q0 -142 -68 -272q-68 -128 -170 -210q-125 -94 -329 -94t-304 124
q-23 29 -43 85t-20 114q0 313 207 488q156 133 360 133t301 -129q66 -97 66 -239z" />
    <glyph glyph-name="ocircumflex" unicode="&#xf4;" horiz-adv-x="1054" 
d="M727 1382q144 -230 184 -297q-41 -37 -102 -73q-160 186 -170 196l-225 -196q-31 25 -90 84q52 54 270 284q41 2 133 2zM645 652q0 124 -74 124q-51 0 -92 -48t-76 -180t-35 -230t15 -142q21 -49 78 -49t90 61q33 52 63 196t31 268zM973 556q0 -142 -68 -272
q-68 -128 -170 -210q-125 -94 -329 -94t-304 124q-23 29 -43 85t-20 114q0 313 207 488q156 133 360 133t301 -129q66 -97 66 -239z" />
    <glyph glyph-name="otilde" unicode="&#xf5;" horiz-adv-x="1054" 
d="M770 1190q57 0 86 108q63 2 113 0q-13 -112 -77 -188t-140 -76q-48 0 -134 56q-87 56 -114 57q-53 0 -82 -109q-59 -4 -117 0q15 111 77 188t129 77q67 -1 143 -57q77 -56 116 -56zM645 652q0 124 -74 124q-51 0 -92 -48t-76 -180t-35 -230t15 -142q21 -49 78 -49t90 61
q33 52 63 196t31 268zM973 556q0 -142 -68 -272q-68 -128 -170 -210q-125 -94 -329 -94t-304 124q-23 29 -43 85t-20 114q0 313 207 488q156 133 360 133t301 -129q66 -97 66 -239z" />
    <glyph glyph-name="odieresis" unicode="&#xf6;" horiz-adv-x="1054" 
d="M849 1280q56 0 87 -31t31 -79t-38 -86q-38 -40 -90 -40t-84 30t-32 81t35 88t91 37zM467 1280q53 0 84 -30t31 -78t-36 -88t-90 -40t-86 31t-32 80t38 87t91 38zM645 652q0 124 -74 124q-51 0 -92 -48t-76 -180t-35 -230t15 -142q21 -49 78 -49t90 61q33 52 63 196
t31 268zM973 556q0 -142 -68 -272q-68 -128 -170 -210q-125 -94 -329 -94t-304 124q-23 29 -43 85t-20 114q0 313 207 488q156 133 360 133t301 -129q66 -97 66 -239z" />
    <glyph glyph-name="divide" unicode="&#xf7;" horiz-adv-x="1130" 
d="M547 270q59 0 98 -42t39 -107t-38 -105t-99 -41q-61 0 -104 39q-42 40 -42 106t43 108q44 42 103 42zM98 584l897 8q0 -102 -6 -193l-897 2q0 4 6 183zM549 1014q61 0 99 -41t38 -107t-40 -106t-100 -41q-60 0 -102 40q-41 41 -41 107t42 107q43 41 104 41z" />
    <glyph glyph-name="oslash" unicode="&#xf8;" horiz-adv-x="1054" 
d="M469 127q68 0 123 74q80 109 80 303q0 16 4 49q-270 -328 -303 -371q28 -55 96 -55zM568 776q-64 0 -108 -50t-81 -154t-37 -203q0 -5 -1 -23t-1 -31l309 392q-17 69 -81 69zM41 336q0 146 58 266t153 199q147 123 350 123q104 0 186 -39q58 66 121 133q70 -51 117 -105
q-47 -51 -115 -131q61 -80 62 -207q0 -311 -232 -499q-125 -96 -309 -96q-133 0 -207 43l-141 -144q-72 55 -104 92q49 51 129 140q-68 79 -68 225z" />
    <glyph glyph-name="ugrave" unicode="&#xf9;" horiz-adv-x="1128" 
d="M485 1411q106 -104 303 -305q-43 -51 -96 -98q-227 176 -342 260q65 82 135 143zM377 268q0 -47 37 -47q57 0 148 125q92 124 110 198t76 355q100 2 301 2q-31 -139 -138 -706q-3 -17 9 -17t118 19q10 -51 23 -158q-150 -57 -352 -57q-10 0 -37 22t-37 41q4 66 20 172
l-22 6q-217 -246 -361 -252q-43 10 -93 43q-111 73 -109 174q0 146 100 508l-133 -10q-8 116 -8 168l383 70q16 0 53 -35t47 -64q-135 -476 -135 -557z" />
    <glyph glyph-name="uacute" unicode="&#xfa;" horiz-adv-x="1128" 
d="M868 1413q59 -59 121 -153q-147 -102 -371 -254q-31 31 -88 100zM377 268q0 -47 37 -47q57 0 148 125q92 124 110 198t76 355q100 2 301 2q-31 -139 -138 -706q-3 -17 9 -17t118 19q10 -51 23 -158q-150 -57 -352 -57q-10 0 -37 22t-37 41q4 66 20 172l-22 6
q-217 -246 -361 -252q-43 10 -93 43q-111 73 -109 174q0 146 100 508l-133 -10q-8 116 -8 168l383 70q16 0 53 -35t47 -64q-135 -476 -135 -557z" />
    <glyph glyph-name="ucircumflex" unicode="&#xfb;" horiz-adv-x="1128" 
d="M670 1210q-143 -125 -228 -196q-31 25 -90 84q146 155 273 284q41 2 131 2q32 -48 102 -160t84 -137q-41 -37 -102 -73q-160 186 -170 196zM377 268q0 -47 37 -47q57 0 148 125q92 124 110 198t76 355q100 2 301 2q-31 -139 -138 -706q-3 -17 9 -17t118 19
q10 -51 23 -158q-150 -57 -352 -57q-10 0 -37 22t-37 41q4 66 20 172l-22 6q-217 -246 -361 -252q-43 10 -93 43q-111 73 -109 174q0 146 100 508l-133 -10q-8 116 -8 168l383 70q16 0 53 -35t47 -64q-135 -476 -135 -557z" />
    <glyph glyph-name="udieresis" unicode="&#xfc;" horiz-adv-x="1128" 
d="M869 1282q56 0 87 -31t31 -79t-38 -86q-38 -40 -90 -40t-84 30t-32 81t35 88t91 37zM488 1282q54 0 84 -30t30 -78t-36 -88t-90 -40t-86 32q-32 30 -32 79t38 87q39 38 92 38zM377 268q0 -47 37 -47q57 0 149 125q92 124 119 230t66 323q102 2 303 2q-80 -375 -138 -706
q-3 -17 11 -17t114 19q16 -84 23 -158q-147 -57 -352 -57q-10 0 -36 22t-38 41q0 16 20 172l-20 6q-221 -246 -363 -252q-43 10 -93 43q-111 73 -109 174q0 146 100 508l-133 -10q-8 116 -8 168l383 70q16 0 53 -35t47 -64q-135 -476 -135 -557z" />
    <glyph glyph-name="yacute" unicode="&#xfd;" horiz-adv-x="1003" 
d="M795 1413q63 -68 120 -153q-285 -195 -370 -254q-47 47 -88 100q182 168 338 307zM692 700q0 18 -14 21l-84 -2q0 81 -6 168q285 33 296 33t52 -44t41 -61q0 -90 -70 -266q-69 -176 -139 -300t-186 -285q-200 -279 -381 -425q-88 -69 -117 -69q-30 0 -102 74t-78 130
q185 65 309 170q59 51 84 88q-76 336 -160 760l-131 -14q-12 90 -18 166l352 80q14 0 52 -27t59 -57q33 -293 86 -645h14q141 315 141 505z" />
    <glyph glyph-name="thorn" unicode="&#xfe;" horiz-adv-x="1120" 
d="M741 598q0 66 -45 66q-60 0 -164 -106t-118 -173q-25 -131 -31 -174q63 -53 117 -53q100 0 162 135q79 180 79 305zM456 1315q12 0 45 -27q32 -27 50 -55q-74 -407 -109 -559l15 -8q105 124 211 192t174 70q63 -8 117 -52q100 -81 102 -188q0 -135 -64 -319
q-45 -145 -156 -268q-112 -121 -252 -121t-235 53q-4 -17 -46 -243t-58 -300q-94 -4 -293 -4q215 1237 270 1604l-166 4v168q164 17 274 35q109 18 121 18z" />
    <glyph glyph-name="ydieresis" unicode="&#xff;" horiz-adv-x="1003" 
d="M818 1282q56 0 87 -31t31 -79t-38 -86q-38 -40 -90 -40t-84 30t-32 81t35 88t91 37zM436 1282q53 0 84 -30t31 -78t-36 -88t-90 -40t-86 32q-32 30 -32 79t38 87t91 38zM692 700q0 18 -14 21l-84 -2q0 81 -6 168q285 33 296 33t52 -44t41 -61q0 -90 -70 -266
q-69 -176 -139 -300t-186 -285q-200 -279 -381 -425q-88 -69 -117 -69q-30 0 -102 74t-78 130q185 65 309 170q59 51 84 88q-76 336 -160 760l-131 -14q-12 90 -18 166l352 80q14 0 52 -27t59 -57q33 -293 86 -645h14q141 315 141 505z" />
    <glyph glyph-name="Amacron" unicode="&#x100;" horiz-adv-x="1327" 
d="M1059 1503l-508 2q0 3 10 61t17 87q339 4 509 4q-10 -78 -28 -154zM756 498l-62 483h-14q-172 -356 -225 -469q-6 -12 4 -12zM1212 0h-569q4 23 13 82t16 90l112 8q10 0 11 13l-17 122q0 10 -12 11l-397 -4q-13 -25 -33 -78t-27 -66l115 -6q-14 -92 -31 -172h-487
q10 68 28 172l97 6q10 4 18 15q97 177 321 591t302 557q78 4 274 5q33 -190 101 -612t90 -554l106 -8q-14 -92 -31 -172z" />
    <glyph glyph-name="amacron" unicode="&#x101;" horiz-adv-x="1095" 
d="M918 1075l-486 2q6 68 23 142q331 4 489 4q-8 -68 -26 -148zM573 731q-89 0 -163 -177t-74 -286q0 -68 43 -68t133 92t110 156t56 232q-29 51 -105 51zM18 248q0 90 54 242t173 293q118 141 254 141t230 -82h10l54 100q102 -25 241 -70q-102 -375 -166 -684
q-4 -12 13 -12q29 0 106 19q16 -106 21 -162q-158 -51 -336 -51q-10 0 -38 22t-38 39q4 63 16 145l-20 9q-217 -221 -369 -226q-43 6 -100 48t-80 94q-25 45 -25 135z" />
    <glyph glyph-name="Abreve" unicode="&#x102;" horiz-adv-x="1327" 
d="M791 1485q-119 0 -192 75t-81 189q66 20 141 31q13 -60 55 -96t101 -35q123 0 186 125q90 -8 144 -21q-80 -268 -354 -268zM756 498l-62 483h-14q-172 -356 -225 -469q-6 -12 4 -12zM1212 0h-569q4 23 13 82t16 90l112 8q10 0 11 13l-17 122q0 10 -12 11l-397 -4
q-13 -25 -33 -78t-27 -66l115 -6q-14 -92 -31 -172h-487q10 68 28 172l97 6q10 4 18 15q97 177 321 591t302 557q78 4 274 5q33 -190 101 -612t90 -554l106 -8q-14 -92 -31 -172z" />
    <glyph glyph-name="abreve" unicode="&#x103;" horiz-adv-x="1095" 
d="M688 1040q-110 0 -177 72t-71 172q76 25 131 31q6 -57 46 -92t92 -35q102 0 155 121q74 -6 133 -23q-33 -114 -117 -180q-82 -66 -192 -66zM573 731q-89 0 -163 -177t-74 -286q0 -68 43 -68t133 92q90 91 107 148t59 240q-29 51 -105 51zM18 248q0 90 54 242t173 293
q118 141 254 141t230 -82h10l54 100q102 -25 241 -70q-102 -375 -166 -684q-4 -12 13 -12q29 0 106 19q16 -106 21 -162q-158 -51 -336 -51q-10 0 -38 22t-38 39q4 63 16 145l-22 9q-213 -221 -367 -226q-43 6 -100 48t-80 94q-25 45 -25 135z" />
    <glyph glyph-name="Aogonek" unicode="&#x104;" horiz-adv-x="1327" 
d="M772 -262q0 -45 27 -70q51 -47 166 -6l22 -111q-88 -41 -183 -41t-161 48q-66 47 -65 127q0 79 56 153t159 162h-150l31 172l110 6q10 0 9 18t-13 119q-2 10 -14 11l-397 -4q-43 -104 -60 -144l115 -6q-12 -86 -31 -172h-487q8 57 28 172l97 4q10 4 18 17q99 179 323 593
t300 553q119 6 274 7q33 -195 102 -620t89 -548l106 -6q-12 -86 -31 -172h-288q-152 -147 -152 -262zM696 981h-16q-172 -356 -225 -469q-6 -12 4 -12l299 -2q-39 295 -62 483z" />
    <glyph glyph-name="aogonek" unicode="&#x105;" horiz-adv-x="1095" 
d="M627 -246q0 -146 190 -92q8 -66 10 -98q-81 -37 -169 -37t-153 44t-65 124q0 162 238 287h-6q-10 0 -38 22t-36 39q0 14 14 147l-20 7q-213 -221 -369 -226q-43 6 -100 48t-80 94q-25 45 -25 135t38 198q66 185 171 317q55 71 131 116t156 45q123 0 217 -82h10l54 100
q109 -27 239 -70q-98 -371 -166 -682q-2 -14 22 -14t97 21q14 -74 21 -162q-29 -11 -101 -27t-108 -28q-88 -29 -130 -98t-42 -128zM575 731q-87 0 -163 -177t-76 -286q0 -66 43 -65q45 0 135 90t107 149q4 12 59 238q-33 51 -105 51z" />
    <glyph glyph-name="Cacute" unicode="&#x106;" horiz-adv-x="1187" 
d="M711 1556l389 259q51 -76 100 -181q-205 -96 -422 -194q-45 72 -67 116zM844 1145q-115 0 -202 -78t-140 -216t-53 -303q0 -343 294 -343q61 0 159 19t149 40q4 -68 0 -196q-236 -88 -410 -88q-229 0 -397 139q-158 135 -158 405q0 209 100 391q240 437 756 439
q180 0 266 -43q-35 -334 -45 -426q-96 -6 -190 -6l-6 206q0 20 -11 29q-43 31 -112 31z" />
    <glyph glyph-name="cacute" unicode="&#x107;" horiz-adv-x="878" 
d="M750 1413q59 -59 120 -153q-147 -102 -370 -254q-31 31 -88 100zM379 -20q-147 0 -247 86t-99 220q0 134 55 264t162 226q168 147 418 148q72 0 127 -18t67 -32q0 -51 -47 -132t-80 -95q-121 80 -182 80t-100 -53q-39 -54 -65 -146t-26 -168q0 -180 136 -180q90 0 237 45
q20 -72 37 -151q-199 -94 -393 -94z" />
    <glyph glyph-name="Ccaron" unicode="&#x10c;" horiz-adv-x="1187" 
d="M1204 1688q-82 -55 -332 -232q-61 0 -88 2q-145 135 -252 236q61 68 91 94q122 -78 231 -152l283 152q33 -39 67 -100zM844 1145q-115 0 -202 -78t-140 -216t-53 -303q0 -343 294 -343q61 0 159 19t149 40q4 -68 0 -196q-236 -88 -410 -88q-229 0 -397 139
q-158 135 -158 405q0 209 100 391q240 437 756 439q180 0 266 -43q-35 -334 -45 -426q-96 -6 -190 -6l-6 206q0 20 -11 29q-43 31 -112 31z" />
    <glyph glyph-name="ccaron" unicode="&#x10d;" horiz-adv-x="878" 
d="M575 1206l234 201q51 -37 92 -82q-160 -164 -289 -293q-41 -2 -129 2q-86 152 -174 303q57 43 105 70q157 -195 161 -201zM379 -20q-147 0 -247 86t-99 220q0 134 55 264t162 226q168 147 418 148q72 0 127 -18t67 -32q0 -51 -47 -132t-80 -95q-121 80 -182 80t-100 -53
q-39 -54 -65 -146t-26 -168q0 -180 136 -180q90 0 237 45q20 -72 37 -151q-199 -94 -393 -94z" />
    <glyph glyph-name="Dcaron" unicode="&#x10e;" horiz-adv-x="1390" 
d="M1161 1688q-253 -173 -330 -232q-63 0 -90 2q-106 100 -252 236q53 61 93 94q122 -78 231 -152l281 152q41 -49 67 -100zM530 164q273 0 383 290q51 134 51 326t-77 289q-78 96 -182 96q-35 0 -68 -8l-168 -932q-10 -61 61 -61zM712 1333q272 0 410 -104
q203 -152 203 -459q-1 -215 -109 -393q-108 -177 -271 -277t-431 -100h-522q4 23 14 82q11 59 17 88l98 6q12 4 12 14l170 959l-115 4q6 27 18 85q11 58 17 89q217 6 489 6z" />
    <glyph glyph-name="dcaron" unicode="&#x10f;" horiz-adv-x="1382" 
d="M1516 1288q0 -135 -94 -248t-216 -172q-27 29 -67 86q166 113 166 215q0 57 -88 91q12 88 60 133t103 45t96 -46q40 -47 40 -104zM383 201q45 0 133 91t115 154q20 78 49 240q-41 45 -102 45q-90 0 -165 -175t-75 -286q0 -69 45 -69zM534 924q102 0 171 -58h14
q47 236 67 348l-172 5q-4 84 0 165q225 23 314 37q88 15 98 15t46 -30t48 -56q-115 -580 -237 -1160q-2 -14 12 -14q35 0 109 19q16 -88 22 -164q-166 -49 -346 -49q-12 0 -39 20t-39 41q0 7 14 150l-18 6q-217 -223 -369 -228q-41 4 -97 45q-112 82 -112 207t56 277
t155 275q117 149 303 149z" />
    <glyph glyph-name="Dcroat" unicode="&#x110;" horiz-adv-x="1390" 
d="M530 164q139 0 248 86q84 70 135 204t51 326t-77 289q-78 96 -182 96q-35 0 -68 -8l-76 -412q74 2 221 3q-14 -104 -28 -164h-222l-63 -359q-10 -61 61 -61zM712 1333q272 0 410 -104q203 -152 203 -459q-1 -215 -109 -393q-108 -177 -271 -277t-431 -100h-522
q4 23 14 82t17 88l98 6q12 4 12 14l70 396h-166q18 121 26 155l168 2l72 406l-115 4q6 27 18 85q11 58 17 89q217 6 489 6z" />
    <glyph glyph-name="dcroat" unicode="&#x111;" horiz-adv-x="1095" 
d="M383 203q45 0 133 90t115 153q20 78 49 240q-41 45 -102 45q-90 0 -165 -175t-75 -286q0 -67 45 -67zM1210 1130q0 -10 -6 -108h-151q-14 -72 -170 -832q-2 -14 12 -14q35 0 109 19q16 -90 22 -162q-162 -51 -346 -51q-12 0 -39 20t-39 41q0 6 14 150l-18 6
q-217 -223 -369 -228q-41 4 -97 45q-112 82 -112 207t56 277t155 275q117 149 303 149q102 0 171 -58h14q21 104 33 158h-238q0 39 4 100q156 0 254 2q4 22 14 88l-172 3q-2 86 0 167q219 22 312 37q92 15 102 15t45 -30t49 -56q-8 -31 -45 -222q49 2 133 2z" />
    <glyph glyph-name="Emacron" unicode="&#x112;" horiz-adv-x="1167" 
d="M965 1657q-4 -57 -29 -154q-76 0 -249 1t-257 1q8 57 27 148q340 4 508 4zM694 1153q-54 0 -57 -8l-68 -385q125 0 174 2t54 13q6 11 12 28l27 82q78 2 168 -4q-25 -139 -41 -213q-16 -121 -35 -209q-58 -4 -168 -4l2 80q0 33 -12 42q-13 9 -213 9l-62 -365
q-4 -29 21 -38t115 -9t149 16q33 10 51 46l82 153q70 -14 172 -43q-53 -162 -123 -348l-672 2h-280l30 172l103 4q12 0 12 12l170 963l-117 6q23 125 33 172h268l469 2h189q-31 -260 -45 -366q-41 -4 -168 -9l-10 152q0 31 -33 35q-143 10 -197 10z" />
    <glyph glyph-name="emacron" unicode="&#x113;" horiz-adv-x="983" 
d="M889 1223q-8 -68 -27 -148q-68 0 -236 1t-251 1q12 82 24 142q336 4 490 4zM540 766q-42 0 -88 -56t-73 -194q245 0 247 117q0 53 -22 93t-64 40zM29 276q0 130 58 264t167 230q172 154 379 154q137 0 214 -79t81 -177q-8 -70 -43 -133t-78 -93q-158 -80 -447 -77
q-6 -23 -6 -71t35 -82t92 -34q158 0 328 76q20 -68 41 -152q-250 -123 -516 -122q-121 0 -213 83t-92 213z" />
    <glyph glyph-name="Edotaccent" unicode="&#x116;" horiz-adv-x="1167" 
d="M553 1597q0 59 45 103q46 44 110 45q64 0 101 -36q37 -37 37 -97t-45 -105t-107 -45t-102 38q-39 38 -39 97zM655 1153q-16 0 -18 -8l-68 -385q183 0 205 5t27 15q4 10 8 23l27 82q78 2 165 -4q-4 -31 -11 -67t-15 -80l-12 -66q-5 -33 -11 -69l-13 -78t-11 -62
q-58 -4 -170 -4l2 80q2 29 -5 39t-51 10q-44 2 -167 2l-62 -365q-4 -29 21 -38t116 -9t135 12t62 50l82 153q61 -12 174 -43q-86 -250 -125 -348l-670 2h-280l30 172l103 4q12 0 12 12l170 963l-117 6q23 125 33 172h268l469 2h187q-19 -166 -29 -245t-14 -121
q-47 -4 -170 -9l-8 152q0 31 -35 35q-133 10 -234 10z" />
    <glyph glyph-name="edotaccent" unicode="&#x117;" horiz-adv-x="983" 
d="M672 1321q60 0 96 -32q35 -33 35 -89t-40 -96q-39 -40 -97 -41q-58 0 -96 35t-38 88t40 94t100 41zM540 766q-42 0 -88 -56t-73 -194q245 0 247 117q0 53 -22 93t-64 40zM29 276q0 130 58 264t167 230q172 154 379 154q137 0 214 -79t81 -177q-8 -70 -43 -133t-78 -93
q-158 -80 -447 -77q-6 -23 -6 -71t35 -82t90 -34q160 0 328 76q29 -90 43 -152q-254 -123 -516 -122q-121 0 -213 83t-92 213z" />
    <glyph glyph-name="Eogonek" unicode="&#x118;" horiz-adv-x="1167" 
d="M608 176q90 0 136 12t65 48l82 153q78 -14 174 -43q-84 -238 -127 -346q-53 -53 -94 -128t-41 -127q1 -52 27 -77q48 -46 165 -6l23 -111q-88 -41 -184 -41t-160 48q-66 47 -66 127q0 137 201 315l-541 2q-47 0 -143 -1t-137 -1q6 35 16 95t14 77l103 6q10 0 14 12
l168 961l-117 6q5 37 33 172h270l469 2h187q-12 -121 -45 -366q-45 -4 -168 -9l-8 152q0 31 -35 35q-133 10 -193 10t-61 -8l-68 -385q123 0 173 2t57 14q6 12 10 27l29 82q78 2 165 -4q-4 -31 -11 -67t-15 -80l-12 -66q-5 -33 -11 -69l-13 -78t-11 -62q-58 -4 -170 -4l2 80
q2 29 -5 39t-52 10q-45 2 -168 2l-62 -365q-4 -29 21 -37q24 -8 114 -8z" />
    <glyph glyph-name="eogonek" unicode="&#x119;" horiz-adv-x="983" 
d="M395 -236q0 129 152 236q-113 -20 -223 -20t-203 82q-92 82 -92 214q0 130 58 264t167 230q172 154 379 154q137 0 214 -79t81 -177q-8 -70 -43 -133t-78 -93q-158 -80 -447 -77q-6 -23 -6 -71t35 -82t92 -34q158 0 328 76q29 -92 41 -152q-2 -2 -39 -18t-57 -29
q-172 -109 -172 -245q0 -45 30 -69t70 -24q41 0 90 15q8 -66 10 -99q-80 -37 -169 -37t-153 44t-65 124zM540 766q-42 0 -88 -56t-73 -194q245 0 247 117q0 53 -22 93t-64 40z" />
    <glyph glyph-name="Ecaron" unicode="&#x11a;" horiz-adv-x="1167" 
d="M741 1634q70 37 281 154q41 -49 68 -100q-167 -114 -330 -232q-31 -2 -90 2q-18 18 -252 234q43 51 92 94q122 -78 231 -152zM694 1153q-54 0 -57 -8l-68 -385q125 0 174 2t54 13q6 11 12 28l27 82q78 2 168 -4q-25 -139 -41 -213q-16 -121 -35 -209q-58 -4 -168 -4l2 80
q0 33 -12 42q-13 9 -213 9l-62 -365q-4 -29 21 -38t115 -9t149 16q33 10 51 46l82 153q70 -14 172 -43q-53 -162 -123 -348l-672 2h-280l30 172l103 4q12 0 12 12l170 963l-117 6q23 125 33 172h268l469 2h189q-31 -260 -45 -366q-41 -4 -168 -9l-10 152q0 31 -33 35
q-143 10 -197 10z" />
    <glyph glyph-name="ecaron" unicode="&#x11b;" horiz-adv-x="983" 
d="M631 1206q82 70 231 201q51 -37 92 -82q-240 -246 -286 -293q-43 -2 -129 2q-86 147 -174 303q53 43 104 70q158 -195 162 -201zM540 766q-42 0 -88 -56t-73 -194q245 0 247 117q0 53 -22 93t-64 40zM29 276q0 130 58 264t167 230q172 154 379 154q137 0 214 -79t81 -177
q-8 -70 -43 -133t-78 -93q-158 -80 -447 -77q-6 -23 -6 -71t35 -82t92 -34q158 0 328 76q20 -68 41 -152q-250 -123 -516 -122q-121 0 -213 83t-92 213z" />
    <glyph glyph-name="Gbreve" unicode="&#x11e;" horiz-adv-x="1388" 
d="M1061 1774q90 -8 145 -21q-39 -127 -129 -198t-217 -71t-200 76q-73 75 -82 189q70 20 143 31q10 -60 52 -96t101 -35q128 0 187 125zM88 514q0 234 108 416q108 180 271 282q131 82 258 111t303 29t270 -60q-24 -232 -49 -397q-87 -6 -190 -6l-6 198q0 16 -13 29
q-59 47 -129 47q-141 0 -233 -79t-157 -227t-65 -314t60 -254q84 -131 240 -131q49 0 51 18l43 289l-158 4q8 61 29 180h592q-3 -9 -13 -77t-18 -103l-90 -4q-10 -4 -10 -10l-72 -400q-116 -75 -410 -75t-453 150t-159 384z" />
    <glyph glyph-name="gbreve" unicode="&#x11f;" horiz-adv-x="1056" 
d="M588 1040q-110 0 -177 72t-71 172q76 25 131 31q6 -57 46 -92t91 -35q102 0 156 121q70 -6 133 -23q-33 -114 -117 -180q-82 -66 -192 -66zM182 -291q0 -90 178 -90q111 0 186 33t75 87t-60 70q-33 7 -153 19q-121 12 -134 14q-92 -66 -92 -133zM371 406q1 -43 23 -70
t59 -27q61 0 105 111t44 248q0 45 -10 75q-14 43 -68 43q-61 0 -107 -110t-46 -270zM932 -186q0 -132 -166 -238t-461 -106q-438 0 -438 208q0 76 43 101q125 63 205 108v13q-57 30 -79 68t-22 98q0 25 25 44t164 105v14q-148 92 -148 251t121 295q58 67 158 108t210 41
t150 -12q39 -12 68 -11l309 4q2 -82 0 -176q-35 -2 -97 -6t-79 -4v-12q20 -35 20 -121q0 -127 -88 -248q-55 -72 -173 -125t-289 -39q-55 -39 -56 -68q0 -26 49 -34t172 -17l70 -4q166 -14 231 -53q41 -23 71 -72t30 -112z" />
    <glyph glyph-name="Gcommaaccent" unicode="&#x122;" horiz-adv-x="1388" 
d="M774 -295q0 -147 -103 -271t-239 -188q-53 66 -72 97q182 125 183 231q0 68 -99 100q12 98 66 148t116 49q60 1 104 -51t44 -115zM88 516q0 236 108 414q108 180 273 282q131 82 257 111t302 29t270 -60q-24 -232 -49 -397q-87 -6 -190 -6l-6 198q0 16 -13 29
q-59 47 -129 47q-141 0 -233 -79q-92 -78 -157 -228t-65 -314t60 -253q84 -131 240 -131q49 0 51 18l43 289l-158 4q8 61 29 180h592q-3 -9 -13 -77t-18 -103l-90 -4q-10 -4 -10 -10l-72 -400q-116 -75 -410 -75t-453 150t-159 386z" />
    <glyph glyph-name="gcommaaccent" unicode="&#x123;" horiz-adv-x="1056" 
d="M442 1202q0 135 94 248t216 170q37 -39 67 -86q-166 -117 -166 -213q0 -59 88 -92q-12 -88 -61 -133q-48 -45 -104 -45t-95 46t-39 105zM182 -291q0 -90 176 -90q113 0 188 33t75 87t-60 70q-33 7 -153 19q-121 12 -134 14q-92 -66 -92 -133zM371 406q1 -43 23 -70
t59 -27q61 0 105 111t44 248q0 45 -10 75q-14 43 -68 43q-61 0 -107 -110t-46 -270zM932 -186q0 -132 -166 -238t-461 -106q-438 0 -438 208q0 76 43 101q125 63 205 108v13q-57 30 -79 68t-22 98q0 25 25 44t164 105v14q-148 92 -148 251t121 295q58 67 158 108t210 41
t150 -12q39 -12 68 -11l309 4q2 -82 0 -176q-35 -2 -97 -6t-79 -4v-12q20 -35 20 -121q0 -127 -88 -248q-55 -72 -173 -125t-289 -39q-55 -39 -56 -68q0 -26 49 -34t172 -17l70 -4q166 -14 231 -53q41 -23 71 -72t30 -112z" />
    <glyph glyph-name="Imacron" unicode="&#x12a;" horiz-adv-x="759" 
d="M776 1503l-508 2q0 18 27 148q340 4 510 4q-10 -78 -29 -154zM213 1331l307 -2q48 0 146 1t133 1q-18 -104 -35 -174l-119 -6q-6 0 -6 -10l-172 -959l135 -6q-14 -104 -33 -176l-295 2q-45 0 -146 -1t-146 -1q6 29 16 88t16 88l113 6q6 0 10 11l168 958l-125 6l18 87
q11 58 15 87z" />
    <glyph glyph-name="imacron" unicode="&#x12b;" horiz-adv-x="628" 
d="M635 1223q-8 -68 -27 -148q-68 0 -234 1t-251 1q16 111 22 142q332 4 490 4zM391 166q35 0 131 20q6 -53 15 -159q-156 -45 -381 -45q-14 0 -51 33q-36 34 -44 59q16 82 65 309q48 227 64 313l-157 4q-2 86 0 168q63 8 215 31t184 25q12 0 47 -31t51 -53
q-20 -100 -80 -370t-64 -286q-4 -18 5 -18z" />
    <glyph glyph-name="Iogonek" unicode="&#x12e;" horiz-adv-x="759" 
d="M534 2h-32q-138 0 -208 -126q-38 -67 -38 -123t27 -81q52 -48 170 -6l22 -110q-88 -41 -184 -41t-164 47t-68 129q1 82 59 164t152 147q-47 0 -146 -1t-142 -1q6 29 16 88t16 88l111 6q8 0 12 11l168 958l-125 6q29 160 33 174l305 -2q50 0 148 1t133 1q-7 -29 -19 -87
t-16 -87l-121 -6q-4 0 -4 -10l-172 -959l133 -6q-14 -98 -31 -176h-12q-10 2 -23 2z" />
    <glyph glyph-name="iogonek" unicode="&#x12f;" horiz-adv-x="628" 
d="M201 -237q1 -60 31 -85q53 -43 159 -10l12 -98q-79 -37 -169 -37t-155 44t-65 124q0 158 232 283q-29 -2 -90 -2q-14 0 -51 33q-36 34 -46 59q78 362 129 622l-157 4q0 113 2 168q63 8 213 31t186 25q12 0 47 -31t49 -53q-17 -83 -78 -359q-61 -275 -65 -295t6 -20
q35 0 131 20q6 -81 15 -159l-65 -15t-97 -26q-82 -25 -128 -94t-46 -129zM448 1378q82 0 123 -46t41 -118t-53 -121q-53 -51 -128 -51t-123 50t-48 118t53 118t135 50z" />
    <glyph glyph-name="Idotaccent" unicode="&#x130;" horiz-adv-x="759" 
d="M399 1597q0 59 45 103q46 44 110 45q64 0 101 -36q37 -37 37 -97t-45 -105t-107 -45t-102 38q-39 38 -39 97zM213 1331l305 -2q50 0 148 1t133 1q-8 -49 -37 -174l-119 -6q-6 0 -6 -10l-170 -959l133 -6q-14 -98 -31 -176l-295 2q-47 0 -147 -1t-145 -1q6 29 16 88t16 88
l113 6q6 0 10 11l168 958l-125 6l18 87q11 58 15 87z" />
    <glyph glyph-name="dotlessi" unicode="&#x131;" horiz-adv-x="628" 
d="M391 166q35 0 131 20q6 -53 15 -159q-156 -45 -381 -45q-14 0 -51 33q-36 34 -44 59q16 82 65 309q48 227 64 313l-157 4q-2 86 0 168q63 8 215 31t184 25q12 0 47 -31t49 -53q-121 -535 -143 -658q-4 -16 6 -16z" />
    <glyph glyph-name="Kcommaaccent" unicode="&#x136;" horiz-adv-x="1339" 
d="M750 -244q0 -147 -102 -270t-238 -188q-49 57 -72 96q180 127 180 233q0 66 -98 99q14 98 67 147t113 49t106 -51q44 -52 44 -115zM1231 1329q31 0 90 1t82 1q-2 -10 -14 -77t-19 -99l-70 -4l-220 -220q-134 -134 -197 -196l-2 -12q100 -63 148 -243t69 -235
q21 -56 59 -63l107 -8q-14 -94 -33 -170q-178 -6 -404 -6q-61 130 -104 360t-119 230q-49 0 -72 -2l-75 -404l118 -6q-14 -82 -34 -176l-271 2q-43 0 -139 -1t-137 -1q4 29 15 88q12 59 16 88l98 6q4 0 8 8l172 961l-108 6q8 58 32 174l287 -2q47 0 136 1t120 1
q-10 -76 -33 -176l-98 -4q-4 0 -4 -10l-72 -387q23 2 84 10q145 137 332 371q12 14 -6 14l-88 4q13 92 33 176h313z" />
    <glyph glyph-name="kcommaaccent" unicode="&#x137;" horiz-adv-x="1091" 
d="M584 -229q0 -135 -94 -248t-216 -170q-27 29 -67 86q166 113 166 213q0 61 -88 90q12 90 60 135q47 45 103 45t96 -47t40 -104zM944 926q35 0 80 -73t47 -153q-111 -10 -191 -46t-169 -109v-15q104 -33 143 -204q27 -140 31 -150q5 -10 35 -10t94 12q6 -84 4 -155
q-49 -17 -170 -29t-227 -12q-29 57 -54 231q-20 168 -67 168q-41 0 -129 -109q-29 -106 -62 -270q-102 -2 -301 -2q143 670 250 1217h-160q-2 86 0 167q97 7 247 29q151 23 163 23t43 -29t47 -57q-110 -492 -192 -848l14 -4q346 428 524 428z" />
    <glyph glyph-name="Lacute" unicode="&#x139;" horiz-adv-x="1114" 
d="M397 1550l389 258q59 -92 101 -180q-133 -63 -422 -194q-37 53 -68 116zM590 176q104 0 143 10t55 50l82 200q92 -14 189 -39q-55 -199 -121 -399l-674 2h-272q4 27 16 85q13 58 17 87l98 4q12 4 12 14l168 961l-113 6l35 174h578q-18 -100 -35 -176l-123 -4
q-6 0 -10 -10l-166 -920q-4 -31 6 -38q11 -7 115 -7z" />
    <glyph glyph-name="lacute" unicode="&#x13a;" horiz-adv-x="608" 
d="M248 1593l389 258q59 -92 100 -180q-133 -63 -422 -194q-37 53 -67 116zM360 168q57 0 156 18q12 -102 16 -163q-176 -41 -401 -41q-12 0 -48 30t-54 56q43 207 231 1149h-184q-2 57 -2 165q180 14 301 33q121 21 131 21t45 -31t47 -55q-12 -62 -120 -570t-126 -596
q-4 -16 8 -16z" />
    <glyph glyph-name="Lcommaaccent" unicode="&#x13b;" horiz-adv-x="1114" 
d="M637 -274q0 -148 -103 -272t-237 -187q-49 57 -72 96q180 123 181 231q0 68 -99 101q13 98 67 147t114 49t105 -51q44 -51 44 -114zM590 176q102 0 142 11t56 49l82 200q92 -14 189 -39q-55 -199 -121 -399l-674 2h-270q27 147 33 172l96 4q12 2 14 14l166 961l-110 6
l32 174h578q-18 -100 -35 -176l-123 -4q-6 0 -10 -10l-164 -920q-6 -31 5 -38q12 -7 114 -7z" />
    <glyph glyph-name="lcommaaccent" unicode="&#x13c;" horiz-adv-x="608" 
d="M344 -270q0 -135 -93 -248t-216 -170q-27 29 -68 86q166 113 166 213q0 61 -88 90q12 90 60 135q47 45 103 45t96 -47t40 -104zM360 168q61 0 156 18q8 -53 16 -163q-176 -41 -399 -41q-12 0 -48 30t-54 56q112 541 229 1149h-182q-2 57 -2 165q177 13 298 33
q120 21 132 21t46 -30t46 -56q-41 -186 -244 -1166q-4 -16 6 -16z" />
    <glyph glyph-name="Lcaron" unicode="&#x13d;" horiz-adv-x="1114" 
d="M1233 1171q1 -147 -103 -271t-237 -187q-49 57 -72 96q180 123 180 231q0 68 -98 101q13 98 67 147t114 49t105 -51q44 -52 44 -115zM588 176q104 0 144 11t56 49l82 200q92 -14 189 -39q-55 -199 -121 -399l-674 2h-272q4 27 16 85q13 58 17 87l98 4q12 4 12 14l168 961
l-113 6l33 174h580q-18 -100 -35 -176l-123 -4q-6 0 -10 -10l-166 -920q-4 -31 6 -38q9 -7 113 -7z" />
    <glyph glyph-name="lcaron" unicode="&#x13e;" horiz-adv-x="845" 
d="M981 1282q0 -135 -93 -248t-216 -170q-27 29 -68 86q166 113 166 213q0 61 -88 90q12 89 60 135t104 46t96 -46q39 -46 39 -106zM362 168q57 0 156 18q12 -102 17 -163q-176 -41 -402 -41q-12 0 -48 30t-54 56q43 207 231 1149h-184q-2 57 -2 165q180 14 301 33
q121 21 131 21t45 -31t47 -55q-12 -62 -120 -570t-126 -596q-4 -16 8 -16z" />
    <glyph glyph-name="Lslash" unicode="&#x141;" horiz-adv-x="1116" 
d="M590 176q104 0 143 10t55 50l82 200q92 -14 189 -39q-55 -199 -121 -399l-674 2h-272q4 27 16 85t17 87l98 4q12 4 12 14l64 357q-6 -2 -136 -41q-25 86 -36 160q69 22 204 67l72 418l-113 6l35 174h578q-18 -100 -35 -176l-123 -4q-6 0 -10 -10l-51 -291q115 39 227 76
q27 -98 35 -172q-18 -6 -129 -42t-168 -57l-80 -434q-4 -31 6 -38q11 -7 115 -7z" />
    <glyph glyph-name="lslash" unicode="&#x142;" horiz-adv-x="724" 
d="M408 166q8 0 159 18q12 -106 15 -161q-190 -41 -400 -41q-12 0 -48 30t-54 56q49 236 106 520q-80 -23 -153 -45q-23 86 -31 149l111 36q74 24 108 36q80 400 90 453h-184q-2 55 -2 167q195 14 307 33t122 19t47 -31q36 -31 48 -55q-18 -89 -102 -478q184 63 190 66
q16 -55 37 -164q-127 -41 -264 -86q-87 -422 -108 -510q-2 -12 6 -12z" />
    <glyph glyph-name="Nacute" unicode="&#x143;" horiz-adv-x="1474" 
d="M1169 1626l-421 -194q-39 55 -68 118q190 127 389 256q59 -92 100 -180zM1309 1329q35 0 109 1t104 1q-12 -86 -31 -172l-96 -8q-8 0 -15 -14l-198 -1119q-78 -37 -242 -36q-248 406 -457 864l-14 -2q-76 -418 -121 -662l154 -6q-23 -129 -33 -176l-295 2q-34 0 -100 -1
t-92 -1q25 119 32 176l107 4q6 0 10 13l164 958l-121 4q27 158 31 174h381q115 -231 442 -928h12q98 639 113 750l-162 4q18 109 33 174h285z" />
    <glyph glyph-name="nacute" unicode="&#x144;" horiz-adv-x="1167" 
d="M496 1106l338 307q59 -59 120 -153q-147 -102 -370 -254q-31 31 -88 100zM938 166q27 0 117 16q12 -102 14 -157q-145 -43 -379 -43q-14 0 -45 28t-45 53q16 66 78 289t61 251q0 54 -37 54q-68 -1 -160 -117t-120 -221q-45 -178 -78 -317q-102 -2 -301 -2q65 278 147 696
l-145 -6q-2 86 0 168q95 14 221 40q127 26 137 26q11 0 47 -28t50 -50q-7 -28 -31 -168l23 -4q102 125 207 186t178 64q43 -6 90 -39q92 -64 94 -160q0 -137 -129 -543q-6 -16 6 -16z" />
    <glyph glyph-name="Ncommaaccent" unicode="&#x145;" horiz-adv-x="1474" 
d="M817 -244q0 -147 -102 -270t-238 -188q-45 53 -71 96q180 127 180 233q0 66 -99 99q13 98 67 147t114 49t105 -50q44 -50 44 -116zM1309 1329q35 0 109 1t104 1q-25 -143 -33 -172l-94 -8q-8 0 -15 -14l-198 -1119q-78 -37 -244 -36q-254 426 -455 864l-14 -2
q-76 -418 -121 -662l154 -6q-8 -57 -33 -176l-295 2q-34 0 -100 -1t-92 -1q25 119 32 176l107 4q10 0 10 13l166 958l-123 4q10 59 31 174h381q115 -231 442 -928h12q98 639 113 750l-162 4q10 59 31 174h287z" />
    <glyph glyph-name="ncommaaccent" unicode="&#x146;" horiz-adv-x="1167" 
d="M623 -229q1 -135 -93 -248t-217 -170q-41 43 -67 86q166 115 166 213q0 61 -88 90q12 90 60 135t103 45t95 -47t41 -104zM938 166q29 0 119 16q12 -150 12 -157q-141 -43 -379 -43q-14 0 -45 28t-45 53q23 94 81 301q58 208 58 250t-37 43q-68 -1 -160 -117t-118 -221
q-63 -248 -78 -317q-102 -2 -303 -2q65 278 147 696l-145 -6q-2 86 0 168q83 13 217 39q133 27 143 27q11 0 47 -28t48 -50q-10 -76 -29 -168l23 -4q102 125 206 186t177 64q45 -6 91 -39t76 -82q16 -31 17 -78q0 -137 -129 -543q-4 -16 6 -16z" />
    <glyph glyph-name="Ncaron" unicode="&#x147;" horiz-adv-x="1474" 
d="M885 1634q192 101 282 154q33 -39 68 -100q-166 -115 -332 -234q-61 0 -88 2q-145 135 -252 236q39 49 90 94q123 -78 232 -152zM1309 1329q35 0 109 1t104 1q-12 -86 -31 -172l-96 -8q-8 0 -15 -14l-198 -1119q-78 -37 -242 -36q-248 406 -457 864l-14 -2
q-76 -418 -121 -662l154 -6q-23 -129 -33 -176l-295 2q-34 0 -100 -1t-92 -1q25 119 32 176l107 4q6 0 10 13l164 958l-121 4q27 158 31 174h381q115 -231 442 -928h12q98 639 113 750l-162 4q18 109 33 174h285z" />
    <glyph glyph-name="ncaron" unicode="&#x148;" horiz-adv-x="1167" 
d="M985 1325l-289 -295q-88 0 -129 2q-72 131 -174 305q57 43 105 70q157 -195 161 -201l234 201q51 -37 92 -82zM938 166q27 0 117 16q12 -102 14 -157q-145 -43 -379 -43q-14 0 -45 28t-45 53q16 66 78 289t61 251q0 54 -37 54q-68 -1 -160 -117t-120 -221
q-45 -178 -78 -317q-102 -2 -301 -2q65 278 147 696l-145 -6q-2 86 0 168q95 14 221 40q127 26 137 26q11 0 47 -28t50 -50q-7 -28 -31 -168l23 -4q102 125 207 186t178 64q43 -6 90 -39q92 -64 94 -160q0 -137 -129 -543q-6 -16 6 -16z" />
    <glyph glyph-name="Omacron" unicode="&#x14c;" horiz-adv-x="1466" 
d="M1139 1503l-508 2q0 22 26 148q340 4 510 4q-4 -39 -28 -154zM457 496q-1 -340 221 -340q110 0 184 79t122 249t48 356q0 334 -198 336q-64 0 -108 -22t-102 -84t-113 -233q-54 -173 -54 -341zM1401 829q0 -215 -84 -398t-221 -296q-201 -155 -471 -155t-418 172
q-117 136 -117 374t119 435q235 389 672 391q203 0 329 -99q96 -69 144 -189t47 -235z" />
    <glyph glyph-name="omacron" unicode="&#x14d;" horiz-adv-x="1054" 
d="M862 1223q-8 -68 -26 -148q-68 0 -235 1t-249 1q16 111 23 142q331 4 487 4zM645 652q0 124 -74 124q-51 0 -92 -48t-76 -180t-35 -230t15 -142q21 -49 78 -49t90 61q33 52 63 196t31 268zM973 556q0 -142 -68 -272q-68 -128 -170 -210q-125 -94 -329 -94t-304 124
q-23 29 -43 85t-20 114q0 313 207 488q156 133 360 133t301 -129q66 -97 66 -239z" />
    <glyph glyph-name="Ohungarumlaut" unicode="&#x150;" horiz-adv-x="1466" 
d="M967 1561q128 86 366 241q41 -51 82 -141q-182 -102 -377 -207q-59 84 -71 107zM616 1569q64 46 363 260q37 -43 86 -137q-307 -188 -373 -230q-45 57 -76 107zM457 496q-1 -340 221 -340q110 0 184 79t122 249t48 356q0 334 -198 336q-64 0 -108 -22t-102 -84t-113 -233
q-54 -173 -54 -341zM1401 829q0 -215 -84 -398t-221 -296q-201 -155 -471 -155t-418 172q-117 136 -117 374t119 435q235 389 672 391q203 0 329 -99q96 -69 144 -189t47 -235z" />
    <glyph glyph-name="ohungarumlaut" unicode="&#x151;" horiz-adv-x="1054" 
d="M950 1393q53 -53 101 -129q-111 -80 -328 -240q-57 61 -82 92q186 171 309 277zM303 1128l315 273q49 -47 101 -129q-281 -199 -334 -238q-43 47 -82 94zM645 652q0 124 -74 124q-51 0 -92 -48t-76 -180t-35 -230t15 -142q21 -49 78 -49t90 61q33 52 63 196t31 268z
M973 556q0 -142 -68 -272q-68 -128 -170 -210q-125 -94 -329 -94t-304 124q-23 29 -43 85t-20 114q0 313 207 488q156 133 360 133t301 -129q66 -97 66 -239z" />
    <glyph glyph-name="OE" unicode="&#x152;" horiz-adv-x="1914" 
d="M457 496q0 -176 51 -256q51 -82 170 -82q74 0 132 40t93 97q106 631 127 754q-29 55 -81 89t-115 33q-125 0 -207 -100q-72 -83 -121 -241t-49 -334zM90 525q0 249 106 443q105 194 248 289q144 95 346 95t300 -125q16 70 22 104l125 -2l471 2h186q-21 -193 -45 -366
q-47 -4 -170 -9l-8 152q0 31 -35 35q-102 10 -231 10q-18 0 -21 -8l-69 -387q117 6 160 6q57 0 66 9t15 30l27 82q78 2 166 -4q-11 -61 -27 -153t-28 -165q-12 -72 -19 -104q-58 -4 -168 -4l2 80q2 29 -6 39t-52 10q-44 2 -167 2l-61 -363q-5 -29 19 -38t115 -9t137 14
t62 46l78 153q43 -8 181 -43q-66 -190 -125 -348l-664 2q-25 0 -72 -1t-67 -1q14 90 16 108q-125 -127 -328 -126q-242 0 -374 163q-111 133 -111 382z" />
    <glyph glyph-name="oe" unicode="&#x153;" horiz-adv-x="1550" 
d="M1194 635q0 53 -22 92t-64 39q-41 0 -76 -43q-61 -74 -86 -205q125 -6 199 35q49 29 49 82zM459 127q57 0 91 57q34 56 66 200t31 230q0 86 -16 127q-15 35 -63 35t-88 -47t-76 -179t-36 -234t11 -130t33 -44t47 -15zM399 -20q-193 0 -297 126q-63 80 -63 213
q0 283 205 472q150 133 342 133t268 -131h16q141 131 340 131q127 0 204 -76t81 -180q-25 -150 -111 -213q-150 -90 -456 -90q-6 -23 -6 -69t36 -82t78 -36q162 0 338 76q27 -84 45 -152q-252 -123 -479 -122q-147 0 -219 106h-14q-115 -106 -308 -106z" />
    <glyph glyph-name="Racute" unicode="&#x154;" horiz-adv-x="1292" 
d="M979 1806q57 -86 100 -178q-133 -63 -422 -194q-37 53 -67 116q45 31 389 256zM602 676q115 0 189 73t73 209q0 84 -41 148t-118 63q-41 0 -74 -6l-88 -485q16 -2 59 -2zM571 510q-31 0 -55 -4l-61 -330l112 -6q-23 -125 -32 -170h-541q21 115 31 170l98 6q6 0 10 10
l170 965l-108 4q18 111 32 172q199 6 414 6t333 -37q118 -36 173 -122t55 -202t-86 -215t-211 -141l-2 -12q62 -31 97 -143q11 -35 25 -85t35 -119t93 -79l64 -6q-12 -80 -31 -168q-68 0 -154 -4l-233 -2q-33 66 -125 422q-27 90 -103 90z" />
    <glyph glyph-name="racute" unicode="&#x155;" horiz-adv-x="892" 
d="M858 1260q-326 -226 -369 -254q-43 43 -90 100l338 307q68 -68 121 -153zM768 924q84 0 127 -37q0 -76 -34 -182t-62 -130q-72 27 -127 27q-56 0 -146 -104t-116 -205q-51 -233 -66 -291q-98 -2 -297 -2q3 12 61 300t78 400l-143 -6q-2 55 -2 168q135 18 242 40
q106 22 115 22t44 -29t45 -51q-6 -47 -43 -221l25 -7q109 164 177 236q69 72 122 72z" />
    <glyph glyph-name="Rcommaaccent" unicode="&#x156;" horiz-adv-x="1292" 
d="M741 -244q0 -147 -103 -271t-237 -187q-49 57 -71 96q180 127 180 233q0 66 -98 99q14 98 67 147t113 49t105 -52q44 -52 44 -114zM602 676q115 0 189 73t73 209q0 84 -41 148t-118 63q-37 0 -72 -6l-88 -485q16 -2 57 -2zM571 510q-27 0 -55 -4l-61 -330l112 -6
q-8 -55 -32 -170h-539q21 115 31 170l98 6q8 0 8 10l172 965l-110 4q22 110 34 172q199 6 413 6t332 -37q118 -36 173 -122t55 -202t-86 -215t-211 -141l-2 -12q62 -31 97 -143q11 -35 25 -85t35 -119t93 -79l64 -6q-12 -80 -31 -168q-68 0 -154 -4l-233 -2q-33 66 -125 422
q-23 90 -103 90z" />
    <glyph glyph-name="rcommaaccent" unicode="&#x157;" horiz-adv-x="892" 
d="M406 -260q0 -135 -94 -248t-216 -170q-27 29 -67 86q166 117 166 213q0 59 -89 92q12 88 60 133t105 45q55 0 95 -46t40 -105zM768 924q84 0 127 -37q0 -76 -34 -182t-62 -130q-72 27 -127 27q-56 0 -146 -104t-116 -205q-51 -233 -66 -291q-98 -2 -297 -2q3 12 61 300
t78 400l-143 -6q-2 55 -2 168q135 18 242 40q106 22 115 22t44 -29t45 -51q-6 -47 -43 -221l25 -7q109 164 177 236q69 72 122 72z" />
    <glyph glyph-name="Rcaron" unicode="&#x158;" horiz-adv-x="1292" 
d="M510 1788q18 -11 233 -152q57 29 168 89t113 63q33 -39 68 -100q-82 -55 -332 -232q-61 0 -88 2q-106 100 -252 236q59 68 90 94zM602 676q115 0 189 73t73 209q0 84 -41 148t-118 63q-41 0 -74 -6l-88 -485q16 -2 59 -2zM571 510q-31 0 -55 -4l-61 -330l112 -6
q-23 -125 -32 -170h-541q21 115 31 170l98 6q6 0 10 10l170 965l-108 4q18 111 32 172q199 6 414 6t333 -37q118 -36 173 -122t55 -202t-86 -215t-211 -141l-2 -12q62 -31 97 -143q11 -35 25 -85t35 -119t93 -79l64 -6q-12 -80 -31 -168q-68 0 -154 -4l-233 -2
q-33 66 -125 422q-27 90 -103 90z" />
    <glyph glyph-name="rcaron" unicode="&#x159;" horiz-adv-x="892" 
d="M563 1206l234 201q51 -37 92 -82q-221 -227 -289 -293q-41 -2 -129 2q-86 152 -174 303q57 43 104 70q158 -195 162 -201zM768 924q84 0 127 -37q0 -76 -34 -182t-62 -130q-72 27 -127 27q-56 0 -146 -104t-116 -205q-51 -233 -66 -291q-98 -2 -297 -2q3 12 61 300
t78 400l-143 -6q-2 55 -2 168q135 18 242 40q106 22 115 22t44 -29t45 -51q-6 -47 -43 -221l25 -7q109 164 177 236q69 72 122 72z" />
    <glyph glyph-name="Sacute" unicode="&#x15a;" horiz-adv-x="1124" 
d="M506 1550q206 142 391 258q51 -80 98 -180q-160 -78 -422 -194q-45 72 -67 116zM680 1157q-80 0 -125 -33q-27 -16 -49 -55t-23 -79t11 -64q20 -44 120 -87q31 -13 111 -46q283 -115 283 -344t-199 -367q-151 -102 -397 -102t-357 59q6 125 23 375q113 12 186 14l33 -184
q4 -20 8 -27q66 -45 165 -45t151 37q68 43 67 125q0 50 -33 95q-22 33 -184 101q-309 139 -309 377q0 197 170 321t438 124q188 0 285 -54q-12 -180 -31 -370q-29 -2 -91 -5t-91 -5l-21 174q-4 23 -12 28q-49 37 -129 37z" />
    <glyph glyph-name="sacute" unicode="&#x15b;" horiz-adv-x="866" 
d="M375 1106l338 307q59 -59 121 -153q-326 -226 -369 -254q-43 43 -90 100zM502 754q-57 0 -88 -21q-41 -23 -41 -67q0 -49 135 -95q14 -6 22 -8q109 -43 166 -98t58 -146q0 -178 -162 -274q-111 -65 -296 -65t-280 38q12 205 19 297q49 6 153 11l21 -125q4 -18 12 -23
q47 -28 112 -28q126 1 126 81q0 37 -30 60t-126 59t-163 94q-66 56 -66 154t60 169t156 113t264 44q167 0 245 -43q-2 -27 -8 -126t-11 -149q-22 -2 -78 -5t-79 -5l-17 111q-4 20 -12 24q-35 23 -92 23z" />
    <glyph glyph-name="Scedilla" unicode="&#x15e;" horiz-adv-x="1124" 
d="M381 -332q0 44 -22 65q-22 22 -91 25q-12 45 -16 78l186 144h-51q-221 0 -332 59q6 125 23 375q113 12 186 14l33 -184q4 -20 8 -27q66 -45 165 -45t151 37q68 43 67 125q0 50 -33 95q-22 33 -184 101q-309 139 -309 377q0 197 170 321t438 124q188 0 285 -54
q-12 -180 -31 -370q-29 -2 -91 -5t-91 -5l-21 174q-4 23 -12 28q-49 37 -129 37t-125 -33q-27 -16 -49 -55t-23 -79t11 -64q20 -44 120 -87q31 -13 111 -46q283 -115 283 -344t-199 -367q-68 -43 -141 -66l-222 -172q137 -33 138 -153q0 -78 -60 -132q-112 -100 -327 -100
l2 113q78 2 130 27t52 69z" />
    <glyph glyph-name="scedilla" unicode="&#x15f;" horiz-adv-x="866" 
d="M459 231q0 37 -31 60t-126 59t-162 94q-66 56 -66 154t60 169t156 113t264 44q167 0 245 -43q-2 -27 -8 -126t-11 -149q-23 -2 -79 -5t-78 -5l-17 111q-4 20 -12 24q-35 23 -92 23t-88 -21q-41 -23 -41 -57t13 -45q28 -25 76 -43t68 -25q109 -43 166 -98t58 -146
q0 -178 -162 -274q-53 -29 -107 -41l-174 -154q59 -8 93 -53t34 -94q0 -97 -97 -163t-271 -66l8 112q172 4 172 99q0 33 -30 55t-83 24q-6 16 -16 72l168 144l-72 2q-133 10 -201 36q12 205 17 297q51 6 155 11l21 -125q4 -18 10 -23q51 -28 115 -28q125 0 125 81z" />
    <glyph glyph-name="Scaron" unicode="&#x160;" horiz-adv-x="1124" 
d="M1077 1688q-275 -188 -329 -232q-63 0 -91 2q-106 100 -251 236q59 68 90 94q157 -101 233 -152l281 152q41 -49 67 -100zM680 1157q-80 0 -125 -33q-27 -16 -49 -55t-23 -79t11 -64q20 -44 120 -87q31 -13 111 -46q283 -115 283 -344t-199 -367q-151 -102 -397 -102
t-357 59q6 125 23 375q113 12 186 14l33 -184q4 -20 8 -27q66 -45 165 -45t151 37q68 43 67 125q0 50 -33 95q-22 33 -184 101q-309 139 -309 377q0 197 170 321t438 124q188 0 285 -54q-12 -180 -31 -370q-29 -2 -91 -5t-91 -5l-21 174q-4 23 -12 28q-49 37 -129 37z" />
    <glyph glyph-name="scaron" unicode="&#x161;" horiz-adv-x="866" 
d="M532 1206q213 186 232 201q51 -37 92 -82q-221 -227 -289 -293q-41 -2 -129 2q-86 152 -174 303q57 43 105 70q67 -84 163 -201zM502 754q-57 0 -88 -21q-41 -23 -41 -67q0 -49 135 -95q14 -6 22 -8q109 -43 166 -98t58 -146q0 -178 -162 -274q-111 -65 -296 -65t-280 38
q12 205 19 297q49 6 153 11l21 -125q4 -18 12 -23q47 -28 112 -28q126 1 126 81q0 37 -30 60t-126 59t-163 94q-66 56 -66 154t60 169t156 113t264 44q167 0 245 -43q-2 -27 -8 -126t-11 -149q-22 -2 -78 -5t-79 -5l-17 111q-4 20 -12 24q-35 23 -92 23z" />
    <glyph glyph-name="Tcommaaccent" unicode="&#x162;" horiz-adv-x="1185" 
d="M674 -244q0 -147 -102 -270t-238 -188q-45 53 -72 96q180 127 180 233q0 66 -98 99q14 98 68 147t113 49q61 0 105 -50t44 -116zM1034 1098q0 37 -30 39q-82 10 -154 10l-168 -965l156 -6q-8 -57 -33 -176l-320 2q-47 0 -150 -1t-153 -1q10 47 33 176l123 6q8 0 12 13
l164 952q-76 0 -147 -10q-35 -4 -48 -39l-63 -199q-32 2 -100 7t-97 7q33 190 80 420l187 -2h774q78 2 182 2q-27 -219 -55 -420q-88 -8 -193 -12v197z" />
    <glyph glyph-name="tcommaaccent" unicode="&#x163;" horiz-adv-x="839" 
d="M459 -260q0 -135 -93 -248t-216 -170q-27 29 -68 86q166 113 166 213q0 61 -88 90q12 90 60 135t104 45t95 -47q40 -47 40 -104zM422 254q0 -57 82 -57t221 22q4 -96 -2 -168q-227 -70 -426 -69q-43 0 -101 42q-91 66 -93 152q-1 86 42 266q27 147 56 267h-168
q16 92 35 172q82 6 159 10q14 4 19 18q25 104 45 178q76 31 166 49t133 19q8 0 6 -8q-25 -135 -53 -254q49 0 146 1t142 1q-18 -104 -38 -188l-289 2q-6 -47 -35 -174q-47 -242 -47 -281z" />
    <glyph glyph-name="Tcaron" unicode="&#x164;" horiz-adv-x="1185" 
d="M1102 1690l-332 -234q-61 0 -88 2q-145 135 -252 236q49 57 90 94q123 -78 232 -152q264 144 282 154q27 -33 68 -100zM139 1333l187 -2h776q76 2 182 2q-18 -150 -57 -420q-84 -8 -191 -12l-2 197q0 37 -30 39q-78 10 -152 10l-170 -965l156 -6q-8 -57 -33 -176l-320 2
q-47 0 -150 -1t-153 -1q10 47 33 176l123 6q10 0 10 13l166 952q-76 0 -147 -10q-35 -4 -48 -39l-63 -199q-32 2 -100 7t-97 7q33 190 80 420z" />
    <glyph glyph-name="tcaron" unicode="&#x165;" horiz-adv-x="839" 
d="M1038 1399q0 -135 -93 -248t-216 -172q-29 33 -67 88q166 113 165 213q0 57 -88 90q13 88 61 133t103 45t95 -46t40 -103zM422 254q0 -57 82 -57t221 22q4 -96 -2 -168q-227 -70 -428 -69q-41 0 -99 42q-93 67 -96 154q0 39 43 264q41 182 56 267h-166q16 92 35 172
q84 6 157 10q17 5 21 25q26 120 43 171q78 31 167 49t134 19q8 0 6 -8q-25 -135 -53 -254q49 0 146 1t142 1q-18 -104 -38 -188l-287 2q-12 -66 -37 -174q-47 -242 -47 -281z" />
    <glyph glyph-name="Umacron" unicode="&#x16a;" horiz-adv-x="1378" 
d="M1061 1503l-506 2q0 3 10 61t17 87q340 4 510 4q-8 -61 -31 -154zM594 -20q-238 0 -361 124q-139 139 -88 424l109 625l-100 6q10 57 34 172l269 -2q53 0 156 1t147 1q-20 -115 -35 -172l-123 -6q-10 0 -14 -16l-107 -602q-35 -201 25 -274t158 -73t174 76q80 74 116 299
q43 221 97 580q0 10 -9 10l-139 6q8 57 29 172l272 -2q43 0 123 1t113 1q-13 -86 -31 -172l-98 -6l-101 -559q-61 -338 -219 -476q-159 -138 -397 -138z" />
    <glyph glyph-name="umacron" unicode="&#x16b;" horiz-adv-x="1128" 
d="M899 1237q-8 -68 -27 -147q-68 0 -236 1t-251 1q12 82 25 141q331 4 489 4zM377 268q0 -47 37 -47q57 0 148 125q92 124 110 198t76 355q100 2 301 2q-31 -139 -138 -706q-3 -17 9 -17t118 19q10 -51 23 -158q-150 -57 -352 -57q-10 0 -37 22t-37 41q4 66 20 172l-22 6
q-217 -246 -361 -252q-43 10 -93 43q-111 73 -109 174q0 146 100 508l-133 -10q-8 116 -8 168l383 70q16 0 53 -35t47 -64q-135 -476 -135 -557z" />
    <glyph glyph-name="Uring" unicode="&#x16e;" horiz-adv-x="1378" 
d="M780 1630q0 -48 28 -74t69 -26q42 0 74 33t32 79t-26 74q-27 28 -69 29q-42 0 -75 -33t-33 -82zM874 1427q-116 -1 -181 49t-65 145t83 161q82 66 187 66t171 -54q66 -53 66 -140t-72 -157q-73 -70 -189 -70zM596 -20q-240 0 -363 124q-139 139 -88 424l109 625l-100 6
q10 57 34 172l269 -2q53 0 157 1t148 1q-10 -57 -35 -172l-125 -6q-12 0 -12 -16l-109 -602q-35 -201 25 -274t158 -73t174 76q82 76 118 299q53 293 97 580q0 10 -9 10l-141 6l31 172l270 -2q43 0 124 1t114 1q-13 -86 -31 -172l-98 -6l-101 -559q-61 -338 -219 -476
q-157 -138 -397 -138z" />
    <glyph glyph-name="uring" unicode="&#x16f;" horiz-adv-x="1128" 
d="M654 1339q-40 -1 -70 -29t-29 -76q0 -48 24 -75t62 -26q102 0 102 122q0 37 -24 61q-25 23 -65 23zM408 1222q0 94 74 156t182 62q106 0 165 -49t59 -136t-69 -155q-70 -68 -177 -68t-171 48q-63 48 -63 142zM377 268q0 -47 39 -47q57 0 148 125q92 124 110 198t76 355
q100 2 301 2q-31 -139 -138 -706q-3 -17 11 -17t114 19q16 -84 23 -158q-147 -57 -352 -57q-10 0 -36 22t-38 41q0 16 20 172l-22 6q-217 -246 -361 -252q-43 10 -93 43q-111 73 -109 174q0 146 100 508l-133 -10q-8 116 -8 168l383 70q16 0 53 -35t47 -64
q-135 -476 -135 -557z" />
    <glyph glyph-name="Uhungarumlaut" unicode="&#x170;" horiz-adv-x="1378" 
d="M922 1559q12 8 368 243q35 -47 80 -141q-125 -70 -379 -209q-41 59 -69 107zM571 1567q64 46 363 260q41 -49 86 -137q-108 -64 -373 -228q-51 63 -76 105zM594 -20q-238 0 -361 124q-139 139 -88 424l109 625l-100 6q10 57 34 172l269 -2q53 0 156 1t147 1
q-20 -115 -35 -172l-123 -6q-10 0 -14 -16l-107 -602q-35 -201 25 -274t158 -73t174 76q80 74 116 299q43 221 97 580q0 10 -9 10l-139 6q8 57 29 172l272 -2q43 0 123 1t113 1q-13 -86 -31 -172l-98 -6l-101 -559q-61 -338 -219 -476q-159 -138 -397 -138z" />
    <glyph glyph-name="uhungarumlaut" unicode="&#x171;" horiz-adv-x="1128" 
d="M676 1116l309 277q55 -51 102 -129q-184 -138 -329 -240zM756 1272l-336 -238q-43 47 -82 94q41 35 315 273q55 -51 103 -129zM377 268q0 -47 37 -47q57 0 148 125q92 124 110 198t76 355q100 2 301 2q-31 -139 -138 -706q-3 -17 9 -17t118 19q10 -51 23 -158
q-150 -57 -352 -57q-10 0 -37 22t-37 41q4 66 20 172l-22 6q-217 -246 -361 -252q-43 10 -93 43q-111 73 -109 174q0 146 100 508l-133 -10q-8 116 -8 168l383 70q16 0 53 -35t47 -64q-135 -476 -135 -557z" />
    <glyph glyph-name="Uogonek" unicode="&#x172;" horiz-adv-x="1378" 
d="M561 -268q0 -56 27 -80q51 -46 166 -6l22 -111q-88 -41 -183 -41t-161 47t-65 127q0 141 196 312q-217 8 -330 124q-139 139 -88 424l109 625l-100 6q10 57 34 172l269 -2q53 0 158 1t147 1q-10 -57 -35 -172l-125 -6q-12 0 -12 -16l-109 -602q-35 -203 29 -277
q56 -70 154 -70t174 76q78 72 120 306t93 573q0 10 -9 10l-139 6q8 57 29 172l272 -2q43 0 123 1t113 1q-16 -115 -29 -172l-98 -6l-103 -559q-61 -338 -217 -475q-117 -104 -293 -142q-51 -12 -95 -100q-44 -89 -44 -145z" />
    <glyph glyph-name="uogonek" unicode="&#x173;" horiz-adv-x="1128" 
d="M664 -250q0 -144 190 -90q8 -66 10 -98q-80 -37 -169 -37t-153 44t-65 124q0 160 246 289h-14q-10 0 -37 22t-37 41q4 66 20 172l-22 6q-217 -246 -361 -252q-43 10 -93 43q-111 73 -109 174q0 145 100 508l-133 -10q-8 116 -8 168l383 70q16 0 53 -35t47 -64
q-135 -476 -135 -557q0 -47 37 -47q57 0 148 125q92 124 110 198t76 355q100 2 301 2q-31 -139 -138 -706q-3 -17 9 -17t118 19q10 -51 23 -158q-31 -13 -111 -29t-112 -30q-88 -35 -131 -103t-43 -127z" />
    <glyph glyph-name="Ydieresis" unicode="&#x178;" horiz-adv-x="1181" 
d="M1003 1702q56 0 88 -33q31 -33 31 -83t-40 -89t-95 -39t-87 31t-32 84t39 91q40 38 96 38zM586 1702q57 0 87 -32q29 -32 29 -81t-36 -90t-94 -41q-56 0 -90 31t-34 82t40 91q41 40 98 40zM371 1329q57 0 168 1t147 1q-18 -104 -35 -174l-108 -8q53 -236 106 -449h17
q168 256 264 437q6 12 -6 12l-111 4q13 92 33 176h307q31 0 85 1t75 1q-18 -100 -35 -176l-74 -6q-186 -266 -483 -649l-57 -318l147 -6q-14 -82 -35 -176l-303 2q-47 0 -151 -1t-152 -1q7 49 33 176l121 6q8 0 12 15l53 301q-98 262 -215 641q0 12 -10 12l-88 6
q5 24 30 172h265z" />
    <glyph glyph-name="Zacute" unicode="&#x179;" horiz-adv-x="1179" 
d="M1022 1628q-325 -151 -422 -194q-35 49 -70 118q48 31 392 256q59 -92 100 -180zM948 -2l-331 2h-594q-33 96 -54 170q482 555 828 956l-2 9q-289 1 -329 -13t-52 -43l-86 -200q-104 20 -191 41q57 215 115 415l205 -2l653 -2q35 -133 55 -254q-561 -637 -798 -872l2 -8
q248 0 376 24q45 10 64 58l88 182q92 -23 186 -45q-90 -293 -135 -418z" />
    <glyph glyph-name="zacute" unicode="&#x17a;" horiz-adv-x="962" 
d="M852 1260l-371 -254q-47 47 -88 100q182 168 338 307q63 -68 121 -153zM342 729q-43 0 -53 -33l-70 -166q-94 14 -166 31q45 193 86 344h44l190 -2q147 -2 473 -2q35 -133 51 -229q-73 -76 -275 -254t-280 -236l2 -12q54 4 211 4q59 4 78 39l80 168q121 -29 161 -41
q-37 -145 -98 -340h-751q-41 96 -58 158q537 514 584 559l-2 12h-207z" />
    <glyph glyph-name="Zdotaccent" unicode="&#x17b;" horiz-adv-x="1179" 
d="M744 1765q64 1 102 -35q37 -36 37 -97t-45 -105q-46 -44 -108 -45q-62 0 -101 38t-39 97t45 103t109 44zM948 -2l-331 2h-594q-33 96 -54 170q482 555 828 956l-2 9q-289 3 -328 -13t-53 -43l-86 -200q-109 20 -189 41q78 295 115 415l203 -2l651 -2q35 -121 57 -254
q-561 -637 -798 -872l2 -8q248 0 376 24q45 10 64 58l86 182q125 -29 186 -45q-61 -209 -133 -418z" />
    <glyph glyph-name="zdotaccent" unicode="&#x17c;" horiz-adv-x="962" 
d="M548 1348q60 0 95 -32t35 -88t-40 -98q-40 -40 -98 -40t-95 34t-37 88q0 53 39 95q41 41 101 41zM344 729q-41 0 -55 -33l-70 -166q-94 14 -166 31q39 152 86 344h44l192 -2q147 -2 471 -2q35 -133 51 -229q-67 -74 -271 -253t-284 -237l2 -12q54 4 213 4q59 4 78 39
l78 168q129 -31 161 -41q-49 -190 -98 -340h-751q-43 117 -56 158q334 323 582 559l-2 12h-205z" />
    <glyph glyph-name="Zcaron" unicode="&#x17d;" horiz-adv-x="1179" 
d="M758 1636q192 101 282 154q33 -39 68 -100q-166 -115 -332 -234q-61 0 -88 2q-145 135 -252 236q49 57 90 94q123 -78 232 -152zM948 -2l-331 2h-594q-33 96 -54 170q482 555 828 956l-2 9q-289 1 -329 -13t-52 -43l-86 -200q-104 20 -191 41q57 215 115 415l205 -2
l653 -2q35 -133 55 -254q-561 -637 -798 -872l2 -8q248 0 376 24q45 10 64 58l88 182q92 -23 186 -45q-90 -293 -135 -418z" />
    <glyph glyph-name="zcaron" unicode="&#x17e;" horiz-adv-x="962" 
d="M563 1206q213 186 232 201q51 -37 92 -82q-221 -227 -289 -293q-41 -2 -129 2q-28 47 -172 303q53 43 104 70q56 -72 162 -201zM551 729h-207q-43 0 -53 -33l-72 -166q-94 14 -164 31q45 193 86 344h42l192 -2q147 -2 471 -2q41 -154 53 -229q-73 -76 -275 -254
t-280 -236l2 -12q54 4 211 4q59 4 78 39l78 168q113 -27 161 -41q-45 -178 -96 -340h-751q-41 96 -58 158q522 503 582 559v12z" />
    <glyph glyph-name="florin" unicode="&#x192;" horiz-adv-x="1130" 
d="M990 1341q99 0 181 -30q2 -39 -46 -128t-85 -108q-82 45 -188 45q-59 0 -90 -45q-47 -72 -80 -299h328q-14 -106 -31 -176h-326q-90 -498 -141 -635q-68 -173 -226 -283t-335 -110q-96 0 -156 25q8 53 40 116t75 99q66 -31 142 -31t115 50q38 50 60 151q51 233 111 618
h-223q20 125 30 170q164 4 207 4q12 0 19 17q33 173 77 253t153 160q110 80 200 108t189 29z" />
    <glyph glyph-name="Scommaaccent" unicode="&#x218;" horiz-adv-x="1124" 
d="M643 -295q0 -147 -103 -271t-237 -188q-49 57 -72 97q180 123 181 231q0 63 -99 100q13 98 67 148t114 49q60 1 105 -51q44 -52 44 -115zM680 1157q-80 0 -125 -33q-27 -16 -49 -55t-23 -79t11 -64q20 -44 120 -87q31 -13 111 -46q283 -115 283 -344t-199 -367
q-151 -102 -397 -102t-357 59q6 125 23 375q113 12 186 14l33 -184q4 -20 8 -27q66 -45 165 -45t151 37q68 43 67 125q0 50 -33 95q-22 33 -184 101q-309 139 -309 377q0 197 170 321t436 124q186 0 287 -54q-20 -246 -33 -370q-29 -2 -91 -5t-91 -5l-19 174q-4 23 -12 28
q-49 37 -129 37z" />
    <glyph glyph-name="scommaaccent" unicode="&#x219;" horiz-adv-x="866" 
d="M459 -274q0 -135 -93 -248t-216 -170q-27 29 -68 86q166 113 166 213q0 61 -88 90q12 90 60 135t104 45t95 -47q40 -47 40 -104zM502 754q-57 0 -88 -21q-41 -23 -41 -67q0 -49 135 -95q14 -6 22 -8q109 -43 166 -98t58 -146q0 -178 -162 -274q-111 -65 -296 -65t-280 38
q12 205 17 297q51 6 155 11l21 -125q4 -18 10 -23q51 -28 115 -28q125 1 125 81q0 37 -31 60t-126 59t-162 94q-66 56 -66 154t60 169t156 113t264 44q167 0 245 -43q-2 -27 -8 -126t-11 -149q-22 -2 -78 -5t-79 -5l-17 111q-4 20 -12 24q-35 23 -92 23z" />
    <glyph glyph-name="uni021A" unicode="&#x21a;" horiz-adv-x="1185" 
d="M674 -244q0 -147 -102 -270t-238 -188q-45 53 -72 96q180 127 180 233q0 66 -98 99q14 98 68 147t113 49q61 0 105 -50t44 -116zM1034 1098q0 37 -30 39q-82 10 -154 10l-168 -965l156 -6q-8 -57 -33 -176l-320 2q-47 0 -150 -1t-153 -1q10 47 33 176l123 6q8 0 12 13
l164 952q-76 0 -147 -10q-35 -4 -48 -39l-63 -199q-32 2 -100 7t-97 7q33 190 80 420l187 -2h774q78 2 182 2q-27 -219 -55 -420q-88 -8 -193 -12v197z" />
    <glyph glyph-name="uni021B" unicode="&#x21b;" horiz-adv-x="839" 
d="M459 -260q0 -135 -93 -248t-216 -170q-27 29 -68 86q166 113 166 213q0 61 -88 90q12 90 60 135t104 45t95 -47q40 -47 40 -104zM422 254q0 -57 82 -57t221 22q4 -96 -2 -168q-227 -70 -426 -69q-43 0 -101 42q-91 66 -93 152q-1 86 42 266q27 147 56 267h-168
q16 92 35 172q82 6 159 10q14 4 19 18q25 104 45 178q76 31 166 49t133 19q8 0 6 -8q-25 -135 -53 -254q49 0 146 1t142 1q-18 -104 -38 -188l-289 2q-6 -47 -35 -174q-47 -242 -47 -281z" />
    <glyph glyph-name="circumflex" unicode="&#x2c6;" horiz-adv-x="1087" 
d="M631 1210q-219 -189 -228 -196q-39 29 -90 84l141 147q93 98 130 137q43 2 133 2q33 -48 103 -160t83 -137q-68 -55 -102 -73q-160 186 -170 196z" />
    <glyph glyph-name="caron" unicode="&#x2c7;" horiz-adv-x="1087" 
d="M528 1032l-174 305q53 43 105 70l63 -80q64 -80 99 -121q82 70 231 201q51 -37 92 -82q-240 -246 -287 -293h-129z" />
    <glyph glyph-name="uni02C9" unicode="&#x2c9;" horiz-adv-x="1087" 
d="M879 1223q-8 -68 -27 -148q-68 0 -235 1t-250 1q10 66 22 142q336 4 490 4z" />
    <glyph glyph-name="breve" unicode="&#x2d8;" horiz-adv-x="1087" 
d="M602 1040q-110 0 -177 72t-71 172q76 25 131 31q6 -57 46 -92t92 -35q102 0 155 121q74 -6 133 -23q-33 -114 -117 -180q-82 -66 -192 -66z" />
    <glyph glyph-name="dotaccent" unicode="&#x2d9;" horiz-adv-x="1087" 
d="M632 1327q60 0 95 -32t35 -88t-40 -97t-98 -41t-95 35t-37 88t39 94q41 41 101 41z" />
    <glyph glyph-name="ring" unicode="&#x2da;" horiz-adv-x="1087" 
d="M721 1255q-1 37 -25 61t-64 23q-40 1 -69 -29t-29 -77t24 -74t63 -26q100 0 100 122zM642 1440q106 0 166 -49q58 -49 58 -136t-70 -155t-176 -68t-169 48t-63 142t74 156t180 62z" />
    <glyph glyph-name="ogonek" unicode="&#x2db;" horiz-adv-x="1087" 
d="M295 -266q0 172 268 301h99q-180 -127 -181 -256q0 -45 30 -69q51 -41 161 -9q8 -66 10 -98q-80 -37 -169 -37t-154 44q-64 44 -64 124z" />
    <glyph glyph-name="tilde" unicode="&#x2dc;" horiz-adv-x="1087" 
d="M528 1307q48 0 92 -27t87 -57q43 -29 73 -29q59 0 88 106q61 2 113 0q-14 -112 -79 -188t-126 -76t-149 60q-16 8 -52 32t-61 23q-53 0 -82 -109q-61 -4 -117 0q15 111 77 188t136 77z" />
    <glyph glyph-name="hungarumlaut" unicode="&#x2dd;" horiz-adv-x="1087" 
d="M655 1114l310 279q49 -45 102 -129q-139 -100 -330 -242q-47 53 -82 92zM633 1401q55 -51 102 -129q-78 -55 -336 -240q-47 51 -82 96q189 160 316 273z" />
    <glyph glyph-name="pi" unicode="&#x3c0;" horiz-adv-x="1241" 
d="M459 985h794l-55 -246h-119l-80 -417q-41 -217 -36 -322h-310q-20 51 27 299l80 440h-185q-33 -147 -40 -176q-96 -412 -205 -563h-303q115 215 200 555q27 100 41 184q-119 0 -180 -12l-4 180q78 78 375 78z" />
    <glyph glyph-name="uni2010" unicode="&#x2010;" horiz-adv-x="731" 
d="M336 428q-35 0 -129 1t-133 1q16 111 30 172q287 0 549 6q-8 -61 -35 -180h-282z" />
    <glyph glyph-name="figuredash" unicode="&#x2012;" horiz-adv-x="1130" 
d="M539 516q-61 0 -231 1t-240 1q16 111 30 172q514 0 963 6q-8 -61 -35 -180h-487z" />
    <glyph glyph-name="endash" unicode="&#x2013;" horiz-adv-x="1024" 
d="M905 434l-418 2q-274 0 -413 2q0 4 12 72t20 100q457 0 838 6q-12 -82 -39 -182z" />
    <glyph glyph-name="emdash" unicode="&#x2014;" horiz-adv-x="2048" 
d="M1490 614q318 0 478 2q-10 -63 -37 -180h-923q-135 0 -470 1t-464 1q27 147 32 172l908 2q158 2 476 2z" />
    <glyph glyph-name="quoteleft" unicode="&#x2018;" horiz-adv-x="497" 
d="M284 770q-64 0 -111 54q-46 54 -46 122q0 146 109 288t253 204q55 -61 76 -103q-190 -139 -190 -250q0 -76 104 -104q-16 -107 -73 -159q-58 -52 -122 -52z" />
    <glyph glyph-name="quoteright" unicode="&#x2019;" horiz-adv-x="497" 
d="M547 1255q1 -145 -105 -280t-260 -209q-55 70 -76 102q190 135 191 250q0 72 -102 105q16 106 72 158q57 53 121 53t112 -54t47 -125z" />
    <glyph glyph-name="quotesinglbase" unicode="&#x201a;" horiz-adv-x="546" 
d="M234 313q64 0 112 -54q47 -54 47 -122q0 -143 -104 -279t-260 -212q-68 88 -76 102q190 135 190 250q0 72 -102 104q17 106 73 158t120 53z" />
    <glyph glyph-name="quotedblleft" unicode="&#x201c;" horiz-adv-x="911" 
d="M712 803q-62 0 -108 51q-45 51 -45 117q-1 137 103 271t243 198q43 -47 76 -99q-184 -131 -184 -237q0 -72 98 -100q-12 -100 -67 -150q-54 -50 -116 -51zM276 803q-62 0 -107 51q-44 51 -44 117q0 137 98 266t248 203q37 -43 72 -99q-182 -133 -183 -237q0 -72 101 -100
q-15 -100 -69 -150t-116 -51z" />
    <glyph glyph-name="quotedblright" unicode="&#x201d;" horiz-adv-x="911" 
d="M810 1436q62 0 106 -52t45 -116q1 -136 -103 -270t-244 -199q-45 51 -73 98q184 127 184 238q0 70 -98 98q14 103 67 153q54 50 116 50zM374 1436q62 0 107 -52t45 -116q0 -138 -102 -270t-244 -199q-45 51 -74 98q182 131 183 238q0 72 -99 98q14 103 68 153t116 50z
" />
    <glyph glyph-name="quotedblbase" unicode="&#x201e;" horiz-adv-x="929" 
d="M630 313q62 0 106 -51t44 -117q0 -137 -103 -270t-243 -199q-53 66 -74 99q184 127 185 237q0 70 -99 99q12 102 66 152q56 50 118 50zM194 313q62 0 107 -51t45 -117q0 -137 -102 -268t-244 -201q-53 66 -74 99q182 131 183 237q0 72 -99 99q14 102 68 152t116 50z" />
    <glyph glyph-name="dagger" unicode="&#x2020;" horiz-adv-x="1110" 
d="M823 1339v-6q-59 -268 -94 -432q111 2 336 2q-6 -92 -29 -201q-189 0 -342 3q-28 -133 -108 -548t-111 -563q-51 -16 -225 -16q18 113 166 1129h-330q8 74 25 188q158 0 317 6q14 0 14 14q6 45 22 177t23 184q67 27 171 45t165 18z" />
    <glyph glyph-name="daggerdbl" unicode="&#x2021;" horiz-adv-x="1126" 
d="M834 1339q2 0 2 -12q-70 -313 -93 -426q111 2 338 2q-10 -100 -30 -201q-189 0 -342 3q-49 -250 -74 -381q125 0 342 -5q-2 -35 -25 -190h-358q-53 -289 -105 -535q-68 -20 -221 -20q68 459 82 555l-338 -4q10 115 33 203q106 -2 322 -2q6 0 14 14q27 182 51 365h-332
q8 76 25 190q156 0 321 6q12 0 15 14q6 49 21 179t24 182q66 27 170 45t158 18z" />
    <glyph glyph-name="bullet" unicode="&#x2022;" horiz-adv-x="862" 
d="M702 555q0 -133 -80 -216t-203 -83q-122 0 -199 79t-77 205t82 215t205 89q124 0 198 -78t74 -211z" />
    <glyph glyph-name="onedotenleader" unicode="&#x2024;" horiz-adv-x="626" 
d="M304 305q77 0 119 -45q42 -44 42 -114t-50 -118t-123 -48t-119 44t-46 112t50 118q50 51 127 51z" />
    <glyph glyph-name="twodotenleader" unicode="&#x2025;" horiz-adv-x="1253" 
d="M929 305q77 0 119 -45q42 -44 42 -114t-50 -118t-124 -48q-72 0 -118 44t-46 112t50 118q50 51 127 51zM304 305q77 0 119 -45q42 -44 42 -114t-50 -118t-123 -48t-119 44t-46 112t50 118q50 51 127 51z" />
    <glyph glyph-name="ellipsis" unicode="&#x2026;" horiz-adv-x="1878" 
d="M1380 136q0 68 50 118q50 51 127 51t119 -45q42 -44 42 -114t-50 -118t-123 -48t-119 44t-46 112zM931 305q77 0 119 -45q42 -44 42 -114t-50 -118t-124 -48q-72 0 -118 44t-46 112t50 118q50 51 127 51zM304 305q77 0 119 -45q42 -44 42 -114t-50 -118t-123 -48t-119 44
t-46 112t50 118q50 51 127 51z" />
    <glyph glyph-name="perthousand" unicode="&#x2030;" horiz-adv-x="2621" 
d="M2218 588q-39 0 -69 -37q-31 -37 -55 -141t-24 -179t14 -102q13 -27 49 -27q35 0 63 30t56 140t28 212q0 104 -62 104zM1337 102q35 0 63 30t56 140t27 212q0 104 -62 104q-39 0 -69 -37t-54 -141t-24 -179t14 -102t49 -27zM2103 -20q-137 0 -206 88t-68 217q0 88 46 187
q110 237 376 237q121 0 195 -76t73 -204q0 -128 -52 -229t-138 -161q-89 -59 -226 -59zM1307 -20q-137 0 -206 88t-69 196t47 208q113 237 375 237q121 0 195 -76q73 -76 73 -204t-52 -229t-138 -161q-88 -59 -225 -59zM425 733q37 0 65 30q28 31 56 139t28 187t-16 103
q-15 24 -52 25q-37 0 -66 -37q-30 -38 -54 -142t-24 -178t13 -96q14 -31 50 -31zM1245 1206q-2 0 -477 6q45 -63 45 -172t-53 -210q-114 -218 -365 -220q-137 0 -206 88t-68 217q0 89 47 187t123 158q104 76 250 79q543 0 882 13q47 -84 68 -135q-102 -123 -318 -380
t-439 -533q-224 -275 -306 -374q-82 51 -129 90q522 637 946 1174v12z" />
    <glyph glyph-name="guilsinglleft" unicode="&#x2039;" horiz-adv-x="614" 
d="M317 430q98 -195 158 -305q-66 -53 -117 -88q-238 293 -276 338q8 86 18 141q133 116 363 320q47 -43 92 -97q-144 -182 -238 -309z" />
    <glyph glyph-name="guilsinglright" unicode="&#x203a;" horiz-adv-x="614" 
d="M246 442q-98 195 -158 306q47 41 117 88q137 -170 276 -336q-8 -84 -18 -144q-51 -44 -172 -152t-191 -167q-20 18 -92 96q154 196 238 309z" />
    <glyph glyph-name="fraction" unicode="&#x2044;" horiz-adv-x="317" 
d="M745 1268q-303 -383 -561 -719q-219 -276 -463 -582q-84 51 -118 78q279 350 397 504t618 805q80 -43 127 -86z" />
    <glyph glyph-name="zero.superior" unicode="&#x2070;" 
d="M584 1310q0 86 -18 104t-50 18q-34 0 -62 -39t-59 -158t-31 -199t17 -104q12 -25 47 -25t68 35t60 158q28 123 28 210zM551 1542q129 0 195 -74t67 -194q0 -121 -48 -234q-105 -247 -372 -245q-109 1 -183 65t-75 195q0 131 53 243q114 244 363 244z" />
    <glyph glyph-name="four.superior" unicode="&#x2074;" 
d="M283 1116q0 -8 8 -8l186 -2l43 250h-16q-221 -232 -221 -240zM512 809q-33 0 -96 -1t-97 -1q7 43 17 98l108 4q4 0 10 31q5 31 7 41h-303q-27 61 -47 133q35 35 129 136t284 286q121 0 226 -6q-33 -190 -74 -422h129q-8 -66 -21 -121l-127 2q-2 -10 -6 -39t-6 -41l88 -2
q-6 -49 -16 -98h-205z" />
    <glyph glyph-name="five.superior" unicode="&#x2075;" 
d="M455 1284q141 0 211 -62q69 -64 69 -168t-94 -182t-299 -77q-106 0 -180 12q0 141 -4 211q37 4 155 14l13 -94q0 -20 51 -20t91 26t40 80q0 111 -164 111q-70 0 -131 -7l-10 15q94 356 102 385h483q-18 -109 -30 -152l-326 2q-10 -31 -31 -96q20 2 54 2z" />
    <glyph glyph-name="six.superior" unicode="&#x2076;" 
d="M448 901q44 0 72 38t27 121q0 83 -62 83q-45 0 -90 -37q-25 -109 -2 -166q11 -39 55 -39zM572 1274q93 0 153 -60q49 -59 49 -130t-35 -132t-92 -100q-92 -59 -212 -59t-195 59q-82 72 -82 215q0 231 164 375q117 100 282 100q109 0 158 -16q4 -94 0 -195
q-70 -12 -152 -18l-12 84q0 10 -14 14q-10 6 -29 6q-53 0 -90 -49t-53 -127l4 -4q63 37 156 37z" />
    <glyph glyph-name="seven.superior" unicode="&#x2077;" 
d="M252 1528l154 -2h380q25 -84 31 -144q-141 -156 -270 -442q-20 -47 -31 -137q-51 -6 -227 -6q8 88 39 147q67 123 274 420l-2 6q-197 0 -211 -4t-24 -23l-31 -88q-63 8 -146 23q6 25 64 250z" />
    <glyph glyph-name="eight.superior" unicode="&#x2078;" 
d="M350 983q0 -94 88 -94q51 1 78 27t27 73q0 74 -119 129q-74 -41 -74 -135zM420 1356q0 -55 104 -105q59 35 60 109q0 39 -21 63q-16 23 -55 23t-59 -21q-29 -20 -29 -69zM764 1027q0 -112 -115 -181q-90 -53 -237 -53t-216 48t-69 124t55 129t137 75l3 7
q-106 52 -106 154t106 165q82 47 210 47t185 -47q66 -49 65 -117q1 -117 -149 -174v-6q131 -59 131 -171z" />
    <glyph glyph-name="nine.superior" unicode="&#x2079;" 
d="M395 1273q0 -83 72 -83q45 0 86 33q34 211 -54 211q-42 0 -73 -39t-31 -122zM378 1067q-84 0 -144 47q-62 47 -62 156q0 108 97 190t231 82t209 -68t75 -196q0 -129 -49 -237t-119 -162q-104 -84 -274 -84q-109 0 -174 8q-2 66 -6 205q100 16 155 18l17 -100q2 -6 8 -13
q14 -6 37 -6q125 0 160 193l-7 4q-70 -37 -154 -37z" />
    <glyph glyph-name="parenleft.superior" unicode="&#x207d;" horiz-adv-x="501" 
d="M162 1020q0 197 127 377t299 258q16 -23 43 -84q-115 -82 -189 -240t-74 -344t97 -319q-31 -31 -76 -66q-95 66 -161 172t-66 246z" />
    <glyph glyph-name="parenright.superior" unicode="&#x207e;" horiz-adv-x="501" 
d="M481 1237q0 -201 -125 -378t-299 -257q-14 20 -47 78q115 84 190 242q74 158 74 346t-94 313q50 50 70 74q98 -65 164 -173t67 -245z" />
    <glyph glyph-name="n.superior" unicode="&#x207f;" horiz-adv-x="960" 
d="M637 588q-10 0 -34 22t-36 45q7 35 57 213t50 207t-29 29q-51 0 -122 -90t-89 -168q-4 -18 -28 -110t-29 -132h-242q60 263 113 531l-113 -5v136l285 51q10 0 37 -22t35 -38l-21 -127l18 -2q152 184 297 189q78 -10 129 -94q12 -20 13 -60q0 -111 -97 -411q-4 -10 7 -11
q18 0 88 13q4 -45 12 -131q-133 -35 -301 -35z" />
    <glyph glyph-name="zero.inferior" unicode="&#x2080;" 
d="M411 379q-32 0 -61 -39q-30 -39 -60 -159q-30 -119 -30 -199t13 -105t49 -25t68 36q32 34 60 158t28 211t-18 105q-17 18 -49 17zM707 221q-1 -121 -49 -235q-105 -247 -369 -246q-109 0 -183 64t-75 196q0 131 53 245q53 113 143 179q91 66 219 66t194 -74t67 -195z" />
    <glyph glyph-name="one.inferior" unicode="&#x2081;" 
d="M572 494q8 0 8 -5q-20 -123 -113 -616l186 -2q-10 -66 -24 -117h-588q6 45 20 117l175 2q2 0 6 6q10 63 34 203t31 188q-115 -8 -186 -14l-2 121q78 12 262 64q183 53 191 53z" />
    <glyph glyph-name="two.inferior" unicode="&#x2082;" 
d="M664 270q0 -166 -250 -317l-74 -45l2 -8q131 4 283 14q2 0 -1 -42t-24 -120l-401 2h-150q-18 55 -26 99q397 247 397 409q0 92 -78 90q-37 0 -57 -16l-45 -131q-104 8 -146 14q31 178 41 232q127 37 240 36q289 0 289 -217z" />
    <glyph glyph-name="three.inferior" unicode="&#x2083;" 
d="M269 -137q116 0 116 98q0 47 -41 73t-106 25h-60q4 49 17 123q231 -4 231 113q0 70 -76 72q-41 1 -57 -9t-17 -16l-28 -92q-59 0 -146 12q16 117 35 193q109 35 255 35t214 -52q58 -50 58 -116t-50 -114t-143 -61l-2 -10q72 -12 115 -59t43 -105q0 -106 -88 -168
q-84 -66 -303 -65q-131 0 -193 12q-10 175 -10 211q68 12 153 19l25 -101q0 -18 58 -18z" />
    <glyph glyph-name="four.inferior" unicode="&#x2084;" 
d="M176 64q0 -9 8 -9l187 -2l43 248h-17q-25 -25 -65 -67t-98 -101q-58 -60 -58 -69zM678 -66q-97 0 -127 3q-2 -10 -6 -39t-6 -41l88 -2q-6 -45 -17 -101h-395q4 38 16 99l107 4q4 0 6 19t10 52h-303q-27 61 -47 133q37 37 136 142t278 278q121 0 225 -6q-35 -211 -74 -420
h129q-8 -66 -20 -121z" />
    <glyph glyph-name="five.inferior" unicode="&#x2085;" 
d="M350 231q141 -1 211 -63t70 -168t-94 -182q-94 -78 -299 -78q-106 0 -181 12l-4 213q100 12 156 15l12 -97q0 -20 51 -20t86 22q45 35 45 88q0 109 -163 109q-70 0 -131 -6l-11 14q90 342 103 383h483q-18 -109 -31 -151l-325 2q-10 -29 -31 -95q20 2 53 2z" />
    <glyph glyph-name="six.inferior" unicode="&#x2086;" 
d="M344 -152q45 0 72 38q26 38 26 121t-59 83h-4q-45 0 -90 -37q-25 -109 -2 -166q12 -39 57 -39zM466 221q94 0 155 -59q49 -59 49 -130t-35 -132t-92 -101q-92 -59 -213 -59t-197 59q-82 72 -82 215q0 231 164 375q117 100 285 100q109 0 157 -16q4 -94 0 -194
q-70 -12 -151 -19l-12 84q0 10 -15 14q-8 6 -28 7q-53 0 -86 -41q-44 -58 -60 -136l4 -4q63 37 157 37z" />
    <glyph glyph-name="seven.inferior" unicode="&#x2087;" 
d="M147 475l154 -2h381q25 -84 31 -143q-141 -156 -271 -443q-20 -47 -30 -137q-51 -6 -228 -6q8 88 39 147q68 123 275 420l-2 6q-197 0 -211 -4t-25 -22l-31 -88q-63 8 -145 22q6 25 63 250z" />
    <glyph glyph-name="eight.inferior" unicode="&#x2088;" 
d="M334 -164q52 0 78 27t26 74q0 74 -119 129q-73 -42 -73 -136t88 -94zM315 303q0 -55 105 -104q59 35 59 115t-76 79q-39 0 -59 -20q-29 -21 -29 -70zM659 -26q0 -112 -114 -181q-89 -53 -237 -53t-217 48t-69 124t56 129q55 53 137 76l2 6q-106 51 -106 153t106 166
q82 47 210 47t185 -47q66 -49 66 -116q0 -117 -150 -174v-7q131 -59 131 -171z" />
    <glyph glyph-name="nine.inferior" unicode="&#x2089;" 
d="M289 219q0 -84 71 -84q47 0 89 33q33 213 -55 213q-44 0 -68 -33q-37 -45 -37 -129zM274 12q-84 0 -147 47q-61 47 -61 157t97 192t253 81q112 1 188 -67t76 -198t-49 -238t-119 -162q-104 -84 -274 -84q-109 0 -175 8q-2 88 -6 207q125 14 156 16l16 -100q2 -6 9 -12
q16 -6 36 -6q63 0 103 45q39 49 57 147l-6 4q-70 -37 -154 -37z" />
    <glyph glyph-name="parenleft.inferior" unicode="&#x208d;" horiz-adv-x="501" 
d="M55 -33q0 197 127 377t299 258q16 -23 43 -84q-114 -82 -188 -240t-74 -344t96 -319q-31 -31 -75 -66q-94 67 -161 173t-67 245z" />
    <glyph glyph-name="parenright.inferior" unicode="&#x208e;" horiz-adv-x="501" 
d="M377 184q0 -201 -125 -378t-299 -257q-14 20 -47 78q115 84 189 242q75 158 75 346t-94 313q14 14 69 74q98 -66 165 -174t67 -244z" />
    <glyph glyph-name="colonmonetary" unicode="&#x20a1;" horiz-adv-x="1163" 
d="M383 562q0 -183 98 -257l142 735q-104 -57 -172 -176t-68 -302zM700 248l162 829q-66 6 -121 0l-161 -817q38 -8 120 -12zM80 547q0 238 151 436q152 198 428 268l46 211q76 8 129 2l-46 -194q37 4 113 4l41 186q84 8 127 4l-45 -196q133 -12 201 -62q-6 -68 -43 -130
t-80 -95q-20 25 -62 47t-69 29l-160 -803q125 10 223 41q8 -47 13 -168q-135 -45 -279 -66l-49 -211q-70 -4 -111 -4l47 205q-61 -2 -125 4l-47 -202q-53 -6 -112 -7l53 226q-344 100 -344 475z" />
    <glyph glyph-name="Euro" unicode="&#x20ac;" horiz-adv-x="1130" 
d="M932 1341q164 0 246 -43q-16 -158 -48 -421q-92 -6 -186 -7l-8 205q0 20 -10 29q-39 31 -88 31q-96 0 -179 -74q-119 -106 -167 -297h339l-10 -92h-350q-6 -55 -6 -127h336l-10 -94h-322q21 -164 153 -223q58 -26 117 -25q133 0 281 59q4 -66 0 -194q-229 -88 -381 -88
q-213 0 -379 139q-135 113 -151 332h-113l10 94h98q4 80 15 127h-94l10 92h106q88 272 314 432q201 145 477 145z" />
    <glyph glyph-name="uni2113" unicode="&#x2113;" horiz-adv-x="1038" 
d="M764 1120q0 94 -57 94q-87 1 -132 -241l-47 -256q236 225 236 403zM856 397l117 -145q-184 -276 -486 -277q-137 0 -219 71t-100 202l-4 22q-57 -39 -96 -57l-60 166q131 78 189 119l75 428q43 250 165 376t288 125q131 -1 203 -77t71 -211q0 -247 -234 -469
q-77 -74 -136 -120t-146 -110l-8 -26q-14 -78 22 -122t103 -44q111 -1 256 149z" />
    <glyph glyph-name="trademark" unicode="&#x2122;" horiz-adv-x="1384" 
d="M1346 809h-228v90l37 2v229h-10l-90 -292h-92q-37 115 -89 297h-12v-234l39 -2v-90h-209v90l56 2q4 100 4 332l-58 2q0 66 2 96l250 -2q28 -137 72 -291h10q68 248 80 291l235 2v-96l-57 -2q2 -100 2 -332l58 -2v-90zM528 901q0 -63 -2 -92h-280q0 61 2 92l59 2v334
q-45 0 -55 -8l-14 -99l-103 9q4 74 8 192l252 -2l238 2q8 -119 10 -192q-50 0 -104 -9l-17 101q-10 6 -51 6l-2 -336h59z" />
    <glyph glyph-name="Omega" unicode="&#x2126;" horiz-adv-x="1492" 
d="M115 653q0 297 215 498q214 201 502 201t442 -153t154 -357t-96 -354q-95 -150 -220 -234v-14h231l-40 -240h-592l32 190q344 229 344 609q0 137 -70 218q-71 81 -194 81q-155 0 -265 -144t-110 -390q0 -244 160 -371l-35 -193h-589l43 240h252l4 12q-70 68 -119 173
t-49 228z" />
    <glyph glyph-name="estimated" unicode="&#x212e;" horiz-adv-x="1685" 
d="M1341 694v379q0 25 -20 45q-193 197 -467 197t-469 -201q-18 -18 -18 -49v-371q0 -10 10 -10h954q10 0 10 10zM1624 645h-1247q-10 0 -10 -10v-375q0 -29 16 -45q190 -203 481 -203t488 228h110q-106 -125 -265 -197t-343 -72q-319 0 -545 202q-225 202 -225 489
q0 286 226 490t544 204t544 -204t226 -490v-17z" />
    <glyph glyph-name="onethird" unicode="&#x2153;" horiz-adv-x="1923" 
d="M1151 0q0 34 -10 209q68 12 153 18l25 -100q0 -18 59 -18q115 0 115 98q0 47 -41 73t-106 25h-60q4 49 17 123q231 -4 231 113q0 71 -76 71q-41 0 -57 -9t-17 -15l-28 -92q-59 0 -146 12q16 117 35 192q109 35 255 35t214 -51q58 -50 58 -116t-50 -114t-143 -61l-2 -10
q72 -12 115 -59t43 -105q0 -109 -87 -171t-305 -62q-133 0 -192 14zM1550 1268q-348 -444 -559 -719q-258 -317 -463 -582q-70 41 -118 78q74 96 304 388t711 921q80 -47 125 -86zM731 600h-588q4 32 21 117l174 2q2 0 6 6q10 63 34 203t32 188q-115 -8 -187 -14
q-2 41 -2 123q73 11 260 64t199 52q4 0 -12 -82t-99 -540l187 -2q-10 -66 -25 -117z" />
    <glyph glyph-name="twothirds" unicode="&#x2154;" horiz-adv-x="1923" 
d="M1548 541q0 71 -75 71q-41 0 -57 -9t-17 -15l-29 -92q-58 0 -145 12q16 117 35 192q109 35 255 35t214 -51q57 -50 57 -116t-50 -114t-143 -61l-2 -10q72 -12 115 -59t43 -105q0 -109 -87 -171t-304 -62q-133 0 -193 14q-2 34 -6 104t-4 105q68 12 154 18l24 -100
q0 -18 60 -18q116 0 114 98q0 47 -41 73t-106 25h-60q4 49 17 123q231 -4 231 113zM422 45q331 412 1018 1309q80 -47 125 -86l-559 -719q-193 -238 -465 -582q-72 43 -119 78zM535 1110q0 92 -78 90q-33 0 -58 -16q-2 -4 -6 -13l-39 -120q-33 4 -145 14q37 213 41 231
q121 39 239 39q172 0 238 -71q51 -58 51 -148q0 -166 -250 -317l-73 -45l2 -9q131 4 282 15q2 0 -1 -42t-23 -120l-402 2h-149q-18 55 -27 98q98 61 189 129q61 49 99 84t74 90t36 109z" />
    <glyph glyph-name="oneeighth" unicode="&#x215b;" horiz-adv-x="1923" 
d="M1337 175q0 -93 88 -93q51 0 78 26t27 74q0 74 -119 127q-74 -41 -74 -134zM1407 545q0 -49 104 -103q59 37 60 109q0 39 -21 63q-16 23 -55 23t-59 -21q-29 -22 -29 -71zM1751 220q0 -112 -115 -181q-94 -53 -239 -53t-214 48t-69 124t55 128t138 74l2 7
q-107 51 -107 153t107 166q82 47 210 47t185 -47q66 -49 65 -117q1 -117 -149 -174v-6q131 -57 131 -169zM1548 1268q-194 -251 -341 -440q-149 -190 -205 -262t-231 -290t-247 -309q-72 43 -118 78q357 446 1017 1309q80 -47 125 -86zM727 600h-588q4 32 21 117l174 2
q2 0 6 6q10 63 34 203t32 188q-115 -8 -187 -14q-2 41 -2 123q73 11 260 64t199 52q4 0 -12 -82t-99 -540l187 -2q-10 -66 -25 -117z" />
    <glyph glyph-name="threeeighths" unicode="&#x215c;" horiz-adv-x="1923" 
d="M1333 175q0 -93 88 -93q51 0 78 26t27 74q0 74 -119 127q-74 -41 -74 -134zM1403 545q0 -49 104 -103q59 37 60 109q0 39 -21 63q-16 23 -55 23t-59 -21q-29 -22 -29 -71zM1747 220q0 -112 -115 -181q-94 -53 -239 -53t-214 48t-69 124t55 128t138 74l2 7
q-107 51 -107 153t107 166q82 47 210 47t185 -47q66 -49 65 -117q1 -117 -149 -172v-6q131 -59 131 -171zM1544 1268q-303 -383 -561 -719q-123 -154 -461 -582q-78 45 -121 78q301 377 603 772q302 394 413 537q80 -43 127 -86zM395 709q117 0 117 98q0 47 -42 73t-108 25
h-59q4 49 16 123q233 -4 234 113q0 29 -18 51q-25 20 -64 20t-54 -9t-16 -15l-28 -94q-59 0 -146 12q16 117 35 194q108 35 256 35t215 -51q57 -50 57 -116t-50 -114t-142 -61l-2 -10q72 -12 115 -59t43 -105q0 -106 -88 -168q-84 -66 -306 -65q-131 0 -192 12
q-10 175 -10 211q68 10 153 18l25 -100q0 -18 59 -18z" />
    <glyph glyph-name="fiveeighths" unicode="&#x215d;" horiz-adv-x="1923" 
d="M1339 175q0 -93 88 -93q51 0 78 26t27 74q0 74 -119 127q-74 -41 -74 -134zM1407 545q0 -49 104 -103q59 37 60 109q0 39 -21 63q-16 23 -55 23t-59 -21q-29 -22 -29 -71zM1399 -14q-145 0 -214 48t-69 124t54 128t137 74l2 7q-107 51 -107 153t107 166q82 47 210 47
t185 -47q66 -49 65 -117q1 -117 -149 -174v-6q129 -57 131 -169t-113 -181q-94 -53 -239 -53zM406 45q368 462 1017 1309q80 -47 125 -86q-500 -644 -1024 -1301q-84 51 -118 78zM483 1077q141 1 211 -61t70 -168t-94 -184t-299 -78q-106 0 -181 12q-2 35 -2 107t-2 106
q74 8 156 12l12 -94q0 -20 52 -20q52 1 91 27q40 26 40 81q0 111 -164 111q-70 0 -131 -6l-11 14q94 356 103 385h483q-20 -115 -31 -152l-325 2q-6 -14 -31 -96q20 2 53 2z" />
    <glyph glyph-name="seveneighths" unicode="&#x215e;" horiz-adv-x="1923" 
d="M1247 175q0 -93 88 -93q51 0 78 26t27 74q0 74 -119 127q-74 -41 -74 -134zM1315 545q0 -49 104 -103q59 37 60 109q0 39 -21 63q-16 23 -55 23t-60 -21q-28 -22 -28 -71zM1307 -14q-145 0 -214 48t-69 124t54 128t136 74l3 7q-107 51 -107 153t107 166q81 47 209 47
t186 -47q66 -49 65 -117q1 -117 -149 -174v-6q129 -57 131 -169t-113 -181q-94 -53 -239 -53zM1456 1268q-194 -251 -341 -440q-149 -190 -205 -262t-231 -290t-247 -309q-72 43 -119 78q381 477 1018 1309q80 -47 125 -86zM270 1323l154 -2h381q25 -96 29 -143
q-143 -162 -269 -445q-23 -49 -33 -137q-66 -8 -227 -8q12 90 39 149q70 127 277 422l-3 6q-196 0 -212 -4t-23 -22l-33 -90q-16 2 -145 24q23 100 65 250z" />
    <glyph glyph-name="partialdiff" unicode="&#x2202;" horiz-adv-x="1191" 
d="M588 676q-92 0 -152 -89t-59 -183q0 -94 37 -138q37 -45 96 -45h2q82 0 143 95t86 233q-12 45 -53 86t-100 41zM636 1473q234 0 369 -155q134 -155 134 -422t-108 -512q-108 -246 -315 -349q-116 -57 -253 -58q-195 0 -303 116t-109 296q1 225 149 378t363 153
q168 0 246 -121h4q10 78 10 121q-4 135 -69 213q-66 78 -201 78t-254 -70l-55 217q158 115 392 115z" />
    <glyph glyph-name="Delta" unicode="&#x2206;" horiz-adv-x="1351" 
d="M874 254l-77 537q-6 47 -16 153q-9 106 -13 141h-16q-4 -9 -52 -119t-71 -157l-271 -555h516zM-14 164l639 1184h399l197 -1182l-29 -166h-1231z" />
    <glyph glyph-name="product" unicode="&#x220f;" horiz-adv-x="1251" 
d="M1167 1036l-229 -1210h-305l231 1210h-305l-235 -1210h-304l234 1210h-148l54 275h1210l-53 -275h-150z" />
    <glyph glyph-name="summation" unicode="&#x2211;" horiz-adv-x="1052" 
d="M522 1032v-10l246 -449l-403 -460l-3 -11h588l-51 -278h-999l34 188l488 551l-281 527l37 221h932l-49 -279h-539z" />
    <glyph glyph-name="minus" unicode="&#x2212;" horiz-adv-x="1130" 
d="M117 580l897 8q0 -113 -8 -193l-895 2q0 4 6 183z" />
    <glyph glyph-name="uni2215" unicode="&#x2215;" horiz-adv-x="972" 
d="M1073 1268q-303 -383 -561 -719q-219 -276 -463 -582q-84 51 -119 78q280 350 398 504t618 805q80 -43 127 -86z" />
    <glyph glyph-name="uni2219" unicode="&#x2219;" horiz-adv-x="598" 
d="M300 694q77 0 119 -45t42 -115t-50 -118q-50 -47 -123 -47t-119 44q-46 43 -46 111t50 119t127 51z" />
    <glyph glyph-name="radical" unicode="&#x221a;" horiz-adv-x="1140" 
d="M1382 1698l-731 -1862h-219l-168 834l-155 -62l-41 144l389 159l100 -587q12 -68 21 -174h4q33 100 65 184l516 1364h219z" />
    <glyph glyph-name="infinity" unicode="&#x221e;" horiz-adv-x="1540" 
d="M400 395q47 0 93 28t64 45t74 73l-34 34q-80 83 -119 97q-40 14 -66 14q-56 0 -98 -42t-42 -103t40 -104q41 -42 88 -42zM1268 544q0 60 -39 101t-94 41t-109 -38q-16 -11 -24 -16q-8 -6 -24 -22t-22 -20t-25 -24t-22 -21q6 -6 35 -37t43 -43t52 -41t92 -29t96 44
q41 45 41 105zM1133 190q-70 0 -142 35q-71 35 -113 70t-110 100q-48 -47 -68 -63t-51 -42t-45 -34t-44 -26q-64 -37 -171 -40q-150 0 -243 100t-93 248q1 148 99 250t254 103q70 0 142 -35t116 -71q43 -36 108 -99q38 38 94 85t70 55t44 24q30 18 54 23t54 11t63 7
q150 0 243 -99q93 -98 93 -246t-98 -252t-256 -104z" />
    <glyph glyph-name="integral" unicode="&#x222b;" horiz-adv-x="690" 
d="M3 -328q-83 0 -142 27l57 209q27 -12 69 -12q77 0 111 55q51 82 67 185q3 19 21 132t57 500q38 387 89 544q107 326 373 328q88 0 143 -22l-53 -195q-154 50 -208 -100q-35 -97 -56 -243q-22 -145 -58 -517t-78 -529t-125 -247q-44 -49 -114 -82t-153 -33z" />
    <glyph glyph-name="approxequal" unicode="&#x2248;" horiz-adv-x="1130" 
d="M762 156q-54 0 -100 16t-107 47l-115 47q-37 12 -78 13q-98 0 -188 -113l-98 123q51 76 127 123q75 47 143 47t128 -18t89 -35t55 -29t62 -27t82 -14q106 0 188 113l105 -109q-111 -184 -293 -184zM766 539q-94 0 -215 61q-61 31 -97 46t-89 16q-104 0 -191 -113l-98 119
q121 174 293 174q77 0 163 -43q32 -15 42 -19t44 -20t65 -28q32 -12 79 -13q98 -1 182 112l109 -112q-106 -180 -287 -180z" />
    <glyph glyph-name="notequal" unicode="&#x2260;" horiz-adv-x="1136" 
d="M1030 389q0 -94 -6 -182q-115 0 -455 -4q-31 -80 -63 -174l-172 67q10 23 37 107q-174 0 -244 -4q0 104 6 192h305q12 33 36 101t36 100q-145 2 -383 2q0 4 6 182q106 0 442 4q12 35 34 94t30 82q109 -41 178 -73q-27 -76 -37 -103q178 0 252 4q0 -70 -8 -192h-313
l-74 -201q145 -2 393 -2z" />
    <glyph glyph-name="lessequal" unicode="&#x2264;" horiz-adv-x="1130" 
d="M121 188l895 -2q0 -4 -6 -182q-676 0 -897 -8q0 176 8 192zM225 883l615 430q55 -66 96 -139q-168 -138 -469 -365l473 -397q-53 -80 -104 -131q-475 348 -605 446q-6 72 -6 156z" />
    <glyph glyph-name="greaterequal" unicode="&#x2265;" horiz-adv-x="1136" 
d="M1034 -4l-897 2q0 162 6 184q397 0 897 8q0 -102 -6 -194zM702 801q-32 29 -238 193t-228 182q51 82 98 137q440 -311 604 -432q6 -74 6 -156q-33 -25 -616 -444q-39 41 -105 133q25 20 233 188t246 199z" />
    <glyph glyph-name="lozenge" unicode="&#x25ca;" horiz-adv-x="1142" 
d="M823 653l-133 428q-14 49 -18 66h-4q-10 -20 -43 -66l-283 -415l133 -428q16 -51 19 -64h4q6 8 21 32t22 32zM1098 659l-525 -731h-251l-252 731l524 734h250z" />
    <glyph glyph-name="Euro.fitted" unicode="&#xe000;" horiz-adv-x="1226" 
d="M991 1341q184 0 266 -43q-16 -158 -47 -421q-92 -6 -186 -7l-8 205q0 20 -10 29q-43 31 -111 31q-113 0 -197 -74q-119 -106 -168 -297h381l-10 -92h-391q-6 -55 -6 -127h377l-11 -94h-362q12 -94 65 -160q68 -88 222 -88q61 0 158 19t147 40q4 -66 0 -194
q-233 -88 -406 -88q-231 0 -395 139q-135 113 -152 332h-112l10 94h98q4 80 15 127h-95l11 92h106q88 272 314 432q201 145 497 145z" />
    <glyph glyph-name="Euro.oldstyle" unicode="&#xe001;" horiz-adv-x="1089" 
d="M838 1092q174 0 247 -37q-8 -102 -34 -367q-92 -4 -179 -6l-6 170q0 16 -10 25q-27 27 -98 26q-229 0 -301 -295h381l-11 -88h-385q-4 -27 -4 -98h373l-10 -88h-348q45 -150 237 -152q115 0 283 47q6 -82 2 -180q-199 -70 -375 -69q-219 0 -364 114q-106 82 -130 240
h-126l10 88h108q8 84 11 98h-105l10 88h111q74 242 268 367q176 117 445 117z" />
    <glyph glyph-name="cent.fitted" unicode="&#xe005;" horiz-adv-x="1048" 
d="M397 612q0 -68 36 -124t99 -74q14 84 45 262q30 178 41 262q-88 -8 -154 -110t-67 -216zM82 579q0 183 162 353t407 198q18 104 33 205q72 12 170 21q-18 -94 -39 -221h14q111 0 230 -52q-8 -59 -47 -131t-70 -86q-96 63 -166 70q-10 -57 -28 -172t-60 -350q100 2 230 53
q14 -53 26 -152q-137 -66 -280 -86q-37 -219 -41 -241q-100 -12 -162 -15q27 141 41 246q-174 2 -297 89t-123 271z" />
    <glyph glyph-name="degree.oldstyle" unicode="&#xe006;" horiz-adv-x="710" 
d="M354 862q119 0 119 146t-108 145q-53 0 -86 -45q-33 -46 -33 -108t30 -100t78 -38zM360 735q-126 0 -210 71q-84 70 -84 190t85 202t216 82t209 -75t77 -189q0 -114 -83 -198q-83 -83 -210 -83z" />
    <glyph glyph-name="dollar.fitted" unicode="&#xe007;" horiz-adv-x="1046" 
d="M686 381q0 90 -111 133q-11 -56 -57 -291q76 4 122 46t46 112zM399 946q0 -88 125 -121q33 180 47 267q-74 -2 -116 -35q-56 -39 -56 -111zM125 893q0 86 53 166q123 186 422 203q6 36 17 100t16 86q82 14 162 18q-7 -30 -13 -64t-13 -75t-11 -63q164 0 258 -50
q-8 -49 -44 -112t-69 -90q-86 59 -176 75q-12 -72 -57 -307q150 -57 222 -127t71 -194q0 -78 -41 -154q-115 -212 -437 -242q-4 -16 -16 -86t-20 -108q-102 -8 -152 -10q27 147 37 194q-205 0 -326 72q8 47 45 112t74 97q137 -98 242 -109q31 152 63 328q-150 69 -228 141
t-79 199z" />
    <glyph glyph-name="florin.fitted" unicode="&#xe00a;" horiz-adv-x="1013" 
d="M960 1341q99 0 181 -30q2 -39 -46 -128t-85 -108q-82 45 -189 45q-59 0 -90 -45q-47 -72 -80 -299h328q-14 -106 -31 -176h-325q-90 -498 -150 -654q-59 -156 -217 -264q-158 -110 -336 -110q-96 0 -156 25q8 53 40 116t75 99q66 -31 143 -31q76 0 114 50t61 151
q51 233 110 618h-223q21 132 31 170q164 4 207 4q12 0 18 17q33 173 77 253q43 80 153 160t200 108t190 29z" />
    <glyph glyph-name="florin.oldstyle" unicode="&#xe00b;" horiz-adv-x="942" 
d="M801 1092q96 0 170 -33q2 -37 -39 -115t-76 -96q-63 45 -151 45q-47 0 -73 -35t-54 -223q94 2 278 2q-29 -158 -31 -164h-270q-49 -369 -101 -511t-182 -231t-288 -89q-82 0 -150 24q8 50 38 110t65 89q61 -31 119 -31t88 40t51 135t71 464h-186q6 45 31 158q135 4 170 4
q10 0 10 12q29 143 59 207t120 128q89 66 162 88t169 22z" />
    <glyph glyph-name="numbersign.oldstyle" unicode="&#xe00c;" horiz-adv-x="1181" 
d="M514 629l-90 -271h221q31 90 88 271h-219zM997 201l-233 -2q-20 -51 -56 -153t-51 -142q-96 -6 -165 -4q75 229 98 299l-225 -2l-105 -295q-100 -4 -166 -2q43 123 99 297h-205q16 92 39 163l221 -2q16 52 46 144l42 129h-221q12 68 32 153h240q10 31 44 128t52 151
q61 4 185 4q-98 -274 -101 -283q74 2 219 2q61 184 95 277q57 2 186 2q-66 -184 -100 -279q39 0 105 1t89 1q-12 -84 -37 -159h-211l-92 -271h211q-12 -72 -35 -157z" />
    <glyph glyph-name="bullet.001" unicode="&#xe00d;" horiz-adv-x="2048" 
d="M778 -197l2 340q345 0 482 -4q6 -377 2 -493h-484q-2 68 -2 157zM1845 723q0 -371 -2 -496q-242 -6 -481 0q-6 258 0 498q86 2 267 0t216 -2zM684 723q4 -70 3 -243t1 -249q-193 -10 -487 -6q-6 207 2 496q139 6 481 2zM778 805v493q138 9 482 5q4 -81 5 -261t3 -233
q-102 -4 -490 -4z" />
    <glyph glyph-name="bullet.002" unicode="&#xe00e;" horiz-adv-x="2048" 
d="M719 53l8 21q543 0 606 -2q-123 -334 -264 -625h-65q-111 205 -285 606zM0 436v51q276 145 625 293q4 -170 4 -643q-443 197 -629 299zM2044 504q0 -41 -2 -62q-373 -199 -612 -295q-2 51 -3 639q410 -161 617 -282zM1055 1503q156 -307 274 -614q0 -2 -8 -15
q-233 -8 -602 -4q82 223 280 633h56z" />
    <glyph glyph-name="bullet.003" unicode="&#xe00f;" horiz-adv-x="2048" 
d="M1849 135q0 -236 -8 -493q-342 0 -487 4q0 340 4 491q284 4 491 -2zM684 139q6 -197 2 -495q-137 -4 -487 2q-10 250 0 489q143 4 485 4zM1266 717q4 -279 4 -492q-254 -6 -494 0q-4 106 2 494q347 0 488 -2zM1847 1300q0 -201 -4 -491q-188 -4 -489 0q-2 174 2 496
q208 3 491 -5zM197 807l-2 491q129 6 489 2q2 -72 3 -242t3 -245q-123 -6 -493 -6z" />
    <glyph glyph-name="bullet.004" unicode="&#xe010;" horiz-adv-x="2048" 
d="M334 125h344q2 -35 2 -354q-229 -4 -346 -2q-4 229 0 356zM1603 -219l-233 2v348q94 4 342 4q4 -115 4 -352q-55 -2 -113 -2zM1202 317q-12 -389 -4 -698q440 -10 682 -8q4 477 0 696q-477 12 -678 10zM1067 463q342 2 946 -2q4 -541 0 -996q-412 -6 -948 3q-8 520 2 995
zM1360 1161q51 2 344 2q4 -94 4 -354q-219 -8 -346 0q-2 55 -2 352zM334 1159q68 4 340 4q4 -98 4 -352q-106 -4 -344 0q-4 182 0 348zM166 1333q-6 -539 2 -696q164 -8 682 6q2 147 -10 694q-70 2 -674 -4zM31 483v998q428 6 944 2q18 -449 2 -996q-180 -4 -946 -4z" />
    <glyph glyph-name="bullet.005" unicode="&#xe011;" horiz-adv-x="1875" 
d="M1323 -20q-190 0 -297 -5q0 -205 8 -301l6 -2q244 6 289 9q0 164 -6 299zM887 119q381 0 579 -2v-572q-251 -6 -575 -2q-4 360 -4 576zM840 1276q-228 -8 -297 -8q6 -229 10 -297q201 -4 293 2q0 168 -6 303zM410 836v571q371 4 575 2q2 -84 2 -282v-287q-126 -4 -577 -4
zM1264 410q-667 0 -940 -7q-6 -176 0 -862q-86 -4 -138 -2l-14 10q2 215 2 544v444l14 8q981 0 1368 8q4 618 -2 860q96 4 152 0q-2 -395 -2 -993l-16 -10h-424z" />
    <glyph glyph-name="bullet.006" unicode="&#xe012;" horiz-adv-x="2048" 
d="M1415 72l-10 815q-274 6 -770 6l-2 -503q0 -151 2 -314q414 -10 780 -4zM2036 885q-278 0 -482 -6v-174h478v-138q-145 -4 -478 -4v-172q328 0 478 -4v-133q-139 -2 -478 -2v-168l478 -4v-135q-147 -2 -484 -2v-480l-137 2l-6 461q-51 -2 -166 -2v-459q-18 -2 -135 -2
v463h-166v-463l-137 2l-2 459h-160q-6 -252 -6 -459h-135q-2 66 -2 241v235q-330 0 -480 2q-2 43 -2 135q258 0 480 6q-2 61 -2 172l-476 -2v133q399 6 476 6v174q-64 2 -234 2h-242q-2 25 -2 138h478v172l-476 4q-2 23 -2 135l482 2v467l135 2q4 -122 4 -457q51 2 168 2
v451q43 2 133 2q6 -332 6 -453h162q4 144 4 453q20 2 44 2l89 -2q4 -102 4 -453l164 -2q0 225 4 455h135v-465q132 -4 484 -4q4 -86 4 -133z" />
    <glyph glyph-name="bullet.007" unicode="&#xe013;" horiz-adv-x="2048" 
d="M1217 -295l10 -16q399 6 567 14q4 133 13 596t16 666l-17 2q-337 -689 -589 -1262zM102 -440v1822l21 13q504 10 731 0q0 -1080 2 -1811l-18 -22q-63 -2 -736 -2zM1946 -442q-137 0 -460 -1t-462 1l-18 28q559 1194 899 1854l37 4q4 -240 4 -1886z" />
    <glyph glyph-name="bullet.008" unicode="&#xe014;" horiz-adv-x="2048" 
d="M1239 1262l-10 -13q236 -563 577 -1255l15 2q-2 262 -29 1259q-111 7 -553 7zM1942 -485h-37q-373 727 -897 1853q8 20 12 29q139 2 463 1t461 -1q6 -1438 -2 -1882zM102 1395q673 0 736 -2l18 -19v-1814q-164 -4 -733 0l-19 14q-2 438 -2 1821z" />
    <glyph glyph-name="bullet.009" unicode="&#xe015;" horiz-adv-x="2048" 
d="M813 -319l10 16q-190 449 -575 1255h-17q11 -988 17 -1259q172 -8 565 -12zM1192 1395q90 0 366 1t369 -1l17 -13q2 -444 2 -1826h-736l-20 16q2 729 2 1823zM1040 -420l-12 -29q-139 -2 -463 -1t-461 1q-6 1440 2 1887l37 -2q362 -713 897 -1856z" />
    <glyph glyph-name="bullet.010" unicode="&#xe016;" horiz-adv-x="2048" 
d="M821 1241l-8 16q-399 6 -557 0q-10 -254 -20 -1263l16 -4q395 843 569 1251zM1946 1393l-2 -1827l-19 -12q-596 0 -733 4v1816l16 19q90 -2 217 -2zM1028 1395l14 -29q-580 -1235 -897 -1853l-36 -2q-6 561 -3 1884h922z" />
    <glyph glyph-name="bullet.011" unicode="&#xe017;" horiz-adv-x="1761" 
d="M901 451l211 -568q126 0 297 6q8 565 8 1143q-612 -4 -1065 -12q-8 -1106 -8 -1135q193 -4 324 -4q203 537 215 570h18zM1157 -264l135 -369l-12 -14q-678 0 -799 2l-12 8q70 195 141 371q-287 0 -411 2v1435q639 6 1362 5q6 -999 4 -1438q-135 -2 -408 -2z" />
    <glyph glyph-name="bullet.012" unicode="&#xe018;" horiz-adv-x="1761" 
d="M870 375l21 -2q215 766 283 1030q-233 10 -592 6l-9 -12q254 -887 297 -1022zM1559 1155q0 -1044 -3 -1407q-782 -4 -1349 -2q0 1229 2 1407q102 2 293 2q-113 342 -125 379l12 12l668 2q172 0 293 -2l6 -14q-26 -111 -103 -377h306z" />
    <glyph glyph-name="bullet.013" unicode="&#xe019;" horiz-adv-x="2048" 
d="M1726 1022l-1052 8q-4 -238 -2 -364q207 -78 522 -211l2 -19q-254 -106 -522 -209q0 -104 4 -338q391 -8 1059 -8q-4 791 -11 1141zM522 1176l977 2q211 0 379 -2q6 -684 4 -1440q-360 -4 -1356 -4q-2 80 -2 448q-145 -59 -340 -133l-14 10q-4 451 2 797l8 10
q47 -18 164 -66t178 -73v451z" />
    <glyph glyph-name="bullet.014" unicode="&#xe01a;" horiz-adv-x="2048" 
d="M739 465l-2 -21q696 -201 992 -282q4 401 0 590l-11 12q-59 -18 -429 -129t-550 -170zM1518 -246q-1008 0 -1334 4q-8 702 -2 1393l862 2q242 0 472 -2q2 -115 2 -311q289 102 335 118l13 -10q4 -634 0 -962l-15 -6q-125 41 -333 98q2 -4 1 -162t-1 -162z" />
    <glyph glyph-name="bullet.015" unicode="&#xe01b;" horiz-adv-x="2048" 
d="M0 -549v318q135 0 841 -3t1207 5v-320h-2048zM0 115v1384h2048v-1372l-14 2q-72 90 -303 342h-15q-113 -115 -307 -336h-10q-143 201 -330 438h-12q-2 -2 -352 -423l-17 -3q-199 238 -315 361h-21q-111 -125 -338 -393h-14z" />
    <glyph glyph-name="bullet.016" unicode="&#xe01c;" horiz-adv-x="806" 
d="M377 145l39 -2q119 -193 346 -608l-10 -16q-633 0 -705 2q174 352 330 624zM197 471q0 89 59 151t141 62t135 -59q54 -59 54 -147t-51 -150t-137 -62t-143 58q-58 58 -58 147zM424 809h-43q-113 188 -344 610l10 17q596 0 705 -2q-131 -275 -328 -625z" />
    <glyph glyph-name="bullet.017" unicode="&#xe01d;" horiz-adv-x="2048" 
d="M1208 472q0 -87 -49 -142q-49 -56 -133 -56t-135 56t-51 138q0 83 52 144q52 62 131 62t132 -58t53 -144zM696 494v-39q-344 -209 -594 -351l-16 11q0 641 2 712q293 -149 608 -333zM1352 446l2 46q135 84 592 346l16 -11q0 -641 -2 -712q-387 202 -608 331z" />
    <glyph glyph-name="bullet.018" unicode="&#xe01e;" horiz-adv-x="1175" 
d="M182 647l-182 -2v68q328 4 514 2q130 -88 234 -181t231 -229q137 0 197 2v-67q-311 -4 -514 -2q-84 47 -251 192t-229 217z" />
    <glyph glyph-name="bullet.019" unicode="&#xe01f;" horiz-adv-x="1175" 
d="M0 305h197q127 135 230 229t235 181q186 2 514 -2v-66l-183 2q-61 -72 -228 -218t-251 -193q-201 -2 -514 2v65z" />
    <glyph glyph-name="bullet.020" unicode="&#xe020;" horiz-adv-x="2011" 
d="M971 0h-312l-6 10q0 94 30 182t77 140q47 51 101 81t145 29q164 0 242 -125t87 -313q-70 -4 -364 -4zM1577 0v8q203 113 319 176q15 -41 21 -176l-6 -8h-334zM1014 594q-117 0 -199 -35t-158 -115q-129 -172 -141 -362h-10q-330 238 -377 272l2 6q252 49 416 78v4
q-96 276 -141 424l4 11q184 -86 415 -199q76 208 162 428h14q102 -225 187 -430q180 92 401 198l6 -8q-49 -176 -129 -430q145 -39 379 -106v-11q-153 -98 -362 -217h-10q-23 211 -150 365q-117 127 -309 127zM1704 774l6 6q57 -70 94 -164t47 -159q-74 20 -221 67
q27 96 74 250zM1468 969l-4 -8q-106 -55 -213 -107q-4 12 -41 104t-53 140q84 -6 173 -45t138 -84zM838 1102l6 -6q-33 -109 -80 -240q-41 18 -240 121q40 43 138 83t176 42zM295 788h6l42 -135q28 -90 38 -121q-8 -2 -219 -36q8 57 48 150t85 142zM98 190l8 7
q213 -133 300 -191l-3 -6q-51 -2 -161 -1t-154 1q-13 98 10 190z" />
    <glyph glyph-name="bullet.021" unicode="&#xe021;" horiz-adv-x="1814" 
d="M988 2q-522 0 -843 6q-31 43 -30 189q123 -31 614 -45l2 4q-383 365 -547 585q4 45 34 95t63 65q75 -117 269 -338t271 -282h4q0 170 -22 950q27 25 84 39t102 6q-4 -115 -10 -498t-2 -514l4 -2q106 113 267 316t235 321q23 2 61 -49t47 -105q-67 -104 -225 -283
t-287 -306l2 -4q133 2 357 17t252 28q6 -51 -3 -115t-26 -78q-151 -2 -673 -2z" />
    <glyph glyph-name="bullet.022" unicode="&#xe022;" horiz-adv-x="2048" 
d="M516 731l-8 -2q-152 -289 -336 -663l6 -7q213 -4 645 4l4 7q-118 270 -311 661zM1212 891l-6 -6q268 -520 344 -666h11q195 399 311 666l-4 6q-185 10 -656 0zM524 1006h15q250 -557 465 -1053l-7 -8q-567 -6 -999 0q-6 4 -10 10q260 535 536 1051zM1024 993l10 11
q494 8 1006 4l6 -9q-178 -418 -473 -1052h-14q-355 657 -535 1046z" />
    <glyph glyph-name="bullet.023" unicode="&#xe023;" horiz-adv-x="2048" 
d="M1001 -70l-10 -18q-254 -4 -964 2l-13 20q254 459 494 836h16q221 -371 477 -840zM1559 172l-17 -2q-217 344 -500 844l11 18q86 2 972 2l9 -20q-295 -545 -475 -842z" />
    <glyph glyph-name="bullet.024" unicode="&#xe024;" horiz-adv-x="1376" 
d="M627 -53l-6 -23q-84 -2 -598 -2l-7 23q131 207 287 438l23 2q123 -176 301 -438zM1040 555h-22q-190 283 -291 436l4 23q262 6 598 2l8 -23q-117 -178 -297 -438zM1376 383q-250 -347 -350 -481l-25 2q-305 422 -677 899q-217 -281 -324 -420v203q131 180 317 438h25
q596 -791 674 -893h18q39 51 342 455v-203z" />
    <glyph glyph-name="bullet.025" unicode="&#xe025;" horiz-adv-x="2048" 
d="M1257 350l3 4q-74 209 -146 381h-6q-223 -289 -248 -321l2 -6q178 -33 395 -58zM1380 248l-6 -6q-162 23 -657 102l-4 10q227 315 438 574l6 2q106 -307 223 -682zM623 74q197 0 821 -13l10 5q129 281 301 679l-4 15q-575 266 -1124 504l-9 -9q-2 -203 5 -1181zM1522 -47
l-13 -10q-669 0 -1005 4l-12 6q-2 498 2 1515l12 5q1030 -477 1421 -670l2 -17q-274 -573 -407 -833z" />
    <glyph glyph-name="bullet.026" unicode="&#xe026;" horiz-adv-x="2048" 
d="M750 582v-7q223 -182 325 -264l6 2q29 211 41 426l-4 2zM557 616l-2 7q270 102 670 239l6 -6q-39 -375 -88 -690l-8 -4q-170 122 -578 454zM1427 74q0 40 11 821l-4 10q-295 137 -676 301l-15 -4q-204 -438 -505 -1124l8 -8q203 -2 1181 4zM33 -55l-4 12
q477 1030 669 1421l17 2q520 -248 833 -407l11 -12q0 -726 -5 -1006l-8 -12q-495 -2 -1513 2z" />
    <glyph glyph-name="bullet.027" unicode="&#xe027;" horiz-adv-x="2048" 
d="M924 217l4 -2q238 92 366 154v6q-190 162 -321 264l-6 -2q-16 -121 -43 -420zM821 96l-6 6q47 385 90 682l10 4q268 -190 572 -454l2 -6q-258 -99 -668 -232zM621 877q0 -36 -11 -822l4 -10q289 -133 676 -301l15 4q195 418 505 1124l-8 9q-203 2 -1181 -4zM500 -23
l-11 13q0 727 5 1005l8 13q496 2 1513 -2l4 -13q-463 -997 -669 -1421l-17 -2q-436 206 -833 407z" />
    <glyph glyph-name="bullet.028" unicode="&#xe028;" horiz-adv-x="2048" 
d="M784 600l-2 -4q94 -285 136 -393h6q168 209 266 334l-2 6q-158 26 -404 57zM664 700l6 7q186 -23 663 -101l4 -12q-88 -125 -448 -578l-6 -2q-156 467 -219 686zM1425 877q-106 0 -821 10l-10 -4q-127 -272 -301 -678l4 -15q418 -195 1124 -505l9 8q2 205 -5 1184z
M526 997l13 11q669 0 1005 -4l12 -7q2 -498 -2 -1517l-12 -4q-997 463 -1421 669l-2 17q221 466 407 835z" />
    <glyph glyph-name="bullet.029" unicode="&#xe029;" horiz-adv-x="2048" 
d="M1456 635q141 176 201 246q63 -55 203 -187q-147 -188 -203 -256q-140 136 -201 197zM477 1470q414 -324 504 -393v-26q-125 -143 -397 -478l2 -24q352 -338 665 -623h-202q-91 86 -283 259t-289 264q-4 109 0 215q250 301 305 368l-2 19q-123 104 -303 249q-4 86 0 170z
M1587 1161l-2 -26q-384 -461 -436 -531q240 -244 516 -493h18q78 98 221 284q142 186 144 191v-203q-340 -461 -350 -475l-31 2q-225 219 -715 678q303 358 447 540q-93 72 -271 207t-215 164h203q207 -150 471 -338z" />
    <glyph glyph-name="bullet.030" unicode="&#xe02a;" horiz-adv-x="2048" 
d="M594 635q-30 -31 -98 -97t-103 -100q-55 68 -203 256q170 160 201 187q64 -74 203 -246zM1462 549l2 24q-244 303 -397 478l2 26q160 121 502 396q4 -84 0 -170q-129 -106 -303 -252v-19q109 -137 303 -368q4 -106 0 -215q-95 -89 -287 -263t-285 -260q-98 -2 -200 0
q331 301 663 623zM463 1161q299 225 450 338h205q-268 -209 -467 -371q117 -150 445 -540q-506 -478 -715 -678l-31 -2q-258 352 -350 475v203l367 -475h18q283 256 514 493q-336 414 -436 531v26z" />
    <glyph glyph-name="bullet.031" unicode="&#xe02b;" horiz-adv-x="2048" 
d="M1657 70l-203 245q66 68 201 195q135 -162 203 -254q-137 -129 -201 -186zM586 399l-2 -24q262 -324 397 -475l-2 -27q-127 -94 -502 -395q-4 84 0 170q129 106 303 252v18q-109 137 -303 369q-4 109 0 215l572 522q102 2 200 0q-268 -240 -663 -625zM1149 346l436 -530
v-27q-453 -326 -469 -338h-205q360 272 486 371q-184 236 -445 538q44 41 308 291t407 389l31 2q257 -336 350 -456v-205q-248 317 -367 461h-18q-264 -240 -514 -496z" />
    <glyph glyph-name="bullet.032" unicode="&#xe02c;" horiz-adv-x="2048" 
d="M592 315q-131 -164 -201 -245q-131 119 -203 186q33 45 203 254q105 -97 201 -195zM1464 375l-2 24q-358 352 -665 625q2 0 101 1t101 -1q126 -117 318 -291q191 -173 254 -231q4 -106 0 -215q-250 -301 -305 -369l2 -18q74 -63 303 -252q4 -86 0 -170q-371 297 -504 395
v27q88 100 397 475zM0 586l350 456l31 -2q143 -139 400 -382t315 -298q-246 -287 -447 -538q119 -95 467 -371h-203q-137 104 -452 338l2 27q88 104 231 280t205 250q-256 262 -516 496h-18q-90 -111 -365 -461v205z" />
    <glyph glyph-name="bullet.033" unicode="&#xe02d;" horiz-adv-x="2048" 
d="M1130 956l-14 5q-303 -334 -518 -611l4 -12q326 -98 721 -188l8 10q-84 376 -201 796zM1391 -84l-623 -4q-154 0 -301 4q-8 1049 2 1524l20 8q713 -356 1334 -725v-31q-121 -240 -432 -776z" />
    <glyph glyph-name="bullet.034" unicode="&#xe02e;" horiz-adv-x="2048" 
d="M528 612l-2 -14q252 -256 578 -547l14 4q98 348 191 758l-11 10q-395 -98 -770 -211zM1585 840l4 -621q0 -154 -4 -301q-983 -12 -1526 0l-8 23q418 811 727 1331l29 2q301 -154 778 -434z" />
    <glyph glyph-name="bullet.035" unicode="&#xe02f;" horiz-adv-x="2048" 
d="M1505 371l2 12q-276 260 -608 520l-14 -4q-66 -311 -127 -754l10 -10q325 93 737 236zM463 111l-4 621q0 155 4 302q1049 8 1526 -2l8 -20q-395 -781 -725 -1334l-31 -2q-246 127 -778 435z" />
    <glyph glyph-name="bullet.036" unicode="&#xe030;" horiz-adv-x="2048" 
d="M887 -20l14 -5q270 270 547 576l-4 12q-252 86 -737 219l-11 -10q60 -280 191 -792zM657 1034l622 4q155 0 302 -4q8 -1044 -2 -1523l-20 -9q-746 379 -1334 725l-2 31q133 256 434 776z" />
    <glyph glyph-name="sterling.fitted" unicode="&#xe031;" horiz-adv-x="1157" 
d="M776 1149q-64 0 -100 -41q-35 -41 -51 -160q-4 -31 -9 -215q131 0 299 4q-10 -94 -32 -180q-80 2 -277 2q-2 -37 -12 -80q-37 -182 -193 -270q-22 -13 -14 -19t19 -6q334 0 372 17q35 6 47 45l76 196q86 -14 186 -39q-39 -154 -112 -407q-156 4 -428 4t-387 -1t-170 -1
q27 155 33 186l120 6q14 0 27 9q90 78 113 233q8 82 8 127q-70 2 -201 2q10 70 33 162q102 0 158 2q10 0 10 8q6 174 24 244q33 133 166 244q154 121 385 120q121 0 215 -36q-8 -164 -28 -369q-55 -6 -201 -14l-12 188q0 39 -64 39z" />
    <glyph glyph-name="sterling.oldstyle" unicode="&#xe032;" horiz-adv-x="1136" 
d="M254 594q8 0 8 6q0 129 17 188q29 115 155 208t344 94q121 0 246 -37q-16 -193 -27 -310q-106 -8 -190 -10l-8 152q-1 31 -71 32t-117 -46t-45 -190q1 -56 1 -81q201 0 295 4q-6 -74 -26 -155h-277q-4 -35 -10 -62q-27 -150 -146 -197q-28 -11 -2 -18q287 0 361 12
q25 6 39 37l61 162q53 -8 182 -37q-45 -180 -96 -348l-620 2q-59 0 -172 -1t-168 -1q12 84 28 174l129 4q14 0 29 8q88 55 88 265q-63 2 -192 2q10 57 28 143h156z" />
    <glyph glyph-name="yen.fitted" unicode="&#xe033;" horiz-adv-x="1144" 
d="M367 1300q59 0 169 2t154 1q-12 -84 -28 -166l-121 -9q61 -231 118 -417h11q141 240 227 403q8 10 -8 14l-109 5q16 82 29 165h283q57 2 151 2q-8 -74 -26 -167l-70 -5q-211 -291 -344 -469q122 0 209 3q-6 -61 -25 -138h-282l-19 -110h289q-10 -68 -25 -129l-284 -2
l-17 -107l158 -8q-14 -88 -31 -168l-301 2q-47 0 -150 -1t-149 -1q6 35 31 168l131 6q6 0 20 14l15 95q-45 0 -143 -1t-134 -1q16 94 25 133l274 -2l17 114h-277q10 59 23 125h237q-63 144 -192 467q-2 12 -23 12l-67 7q8 53 26 163h228z" />
    <glyph glyph-name="yen.oldstyle" unicode="&#xe034;" horiz-adv-x="1075" 
d="M57 915q0 3 25 156h483q-12 -100 -24 -156l-86 -6l120 -323h9q82 121 207 313q10 10 -5 10l-79 4l22 158h391q-12 -94 -24 -156l-74 -4q-16 -18 -132 -154t-181 -208h204q-6 -51 -20 -121h-270l-15 -76h273q-6 -59 -19 -112l-272 -2l-12 -76l159 -6q-6 -57 -26 -156
l-287 2q-41 0 -135 -1t-144 -1q12 78 29 156l133 6q13 0 17 12l8 64q-41 0 -132 -1t-132 -1q8 53 22 116l262 -2l13 78q-43 0 -133 1t-132 1q6 59 19 111h225q-86 158 -190 360q-4 10 -19 10z" />
    <glyph glyph-name="uniF634" unicode="&#xf634;" horiz-adv-x="1087" 
d="M623 -244q-1 -147 -103 -270t-237 -188q-49 57 -72 96q180 127 180 233q0 66 -98 99q14 98 67 147q54 49 114 49t105 -51q44 -52 44 -115z" />
    <glyph glyph-name="space_uni0326" unicode="&#xf6c3;" horiz-adv-x="1087" 
d="M582 -229q0 -135 -94 -248t-216 -170q-27 29 -67 86q166 117 166 213q0 59 -88 92q12 88 61 133q48 45 104 45t95 -46t39 -105z" />
    <glyph glyph-name="acute.cap" unicode="&#xf6c9;" horiz-adv-x="1087" 
d="M975 1628l-422 -194q-47 72 -68 118q190 127 389 256q59 -92 101 -180z" />
    <glyph glyph-name="caron.cap" unicode="&#xf6ca;" horiz-adv-x="1087" 
d="M1092 1688q-82 -55 -332 -232q-61 0 -88 2q-139 131 -252 234q49 57 90 94q94 -62 233 -152q272 149 281 154q33 -39 68 -100z" />
    <glyph glyph-name="dieresis.cap" unicode="&#xf6cb;" horiz-adv-x="1087" 
d="M923 1702q56 0 88 -33q31 -33 31 -83t-40 -89t-95 -39t-87 31t-32 84t39 91q40 38 96 38zM506 1702q57 0 87 -32t30 -81t-37 -90q-38 -41 -94 -41t-90 31t-34 82t41 91q40 40 97 40z" />
    <glyph glyph-name="grave.cap" unicode="&#xf6ce;" horiz-adv-x="1087" 
d="M559 1808q242 -151 391 -258q-40 -73 -69 -116q-133 59 -426 196q70 125 104 178z" />
    <glyph glyph-name="hungarumlaut.cap" unicode="&#xf6cf;" horiz-adv-x="1087" 
d="M776 1561q98 66 367 241q39 -49 82 -139q-125 -70 -379 -209q-41 59 -70 107zM426 1569q127 92 362 260q37 -43 86 -137q-238 -141 -372 -228q-37 45 -76 105z" />
    <glyph glyph-name="macron.cap" unicode="&#xf6d0;" horiz-adv-x="1087" 
d="M969 1503l-508 2q0 22 26 148q340 4 510 4q-4 -39 -28 -154z" />
    <glyph glyph-name="R_p" unicode="&#xf6dd;" horiz-adv-x="2297" 
d="M1921 614q0 57 -43 58q-48 0 -152 -109t-117 -171t-30 -175q63 -51 109 -51t88 40q74 73 121 259q24 92 24 149zM596 672q104 0 178 72t74 208q0 84 -39 148t-113 63q-28 0 -63 -6l-88 -483q16 -2 51 -2zM1562 932q10 0 44 -27t51 -55q-10 -70 -31 -180l23 -4
q223 260 393 264q47 -8 97 -50q100 -84 101 -197q1 -114 -61 -306q-42 -124 -137 -245q-114 -144 -300 -144q-100 0 -192 53q-8 -37 -102 -539q-94 -4 -293 -4q14 82 43 255t43 251l-225 -2l-234 -4q-33 68 -125 420q-25 88 -94 88q-23 0 -47 -4l-61 -326l94 -6
q-12 -86 -31 -170l-266 2q-47 0 -133 -1t-123 -1q20 115 29 170l100 6q8 0 8 10l170 959l-108 4q18 111 32 172q197 6 405 6t326 -37t172 -122q56 -86 56 -202t-86 -214t-211 -140l-2 -12q65 -33 107 -176q18 -66 50 -170q20 -70 93 -76l133 -6l90 530l-103 9q-2 86 0 168
q144 20 219 37q76 16 86 16z" />
    <glyph glyph-name="cent.inferior" unicode="&#xf6df;" 
d="M274 90q0 -90 88 -110q8 47 23 142q14 95 21 142q-56 -2 -94 -54t-38 -120zM76 85q0 118 103 208t247 94q4 43 16 117q23 4 111 14l-11 -66t-10 -63h9q76 0 141 -33q-2 -37 -25 -81t-41 -52q-55 37 -108 41q-14 -85 -45 -284q55 2 141 40q16 -51 23 -104
q-80 -45 -181 -55q-4 -36 -20 -129q-68 -8 -104 -11q6 37 20 136q-118 2 -192 56t-74 172z" />
    <glyph glyph-name="cent.superior" unicode="&#xf6e0;" 
d="M379 1145q0 -90 88 -111q8 46 22 142t21 143q-55 -2 -93 -54t-38 -120zM180 1137q0 119 104 209t246 96q4 43 17 117q23 4 110 14q-4 -25 -11 -67t-9 -62h8q76 0 141 -33q-2 -37 -24 -81t-41 -52q-55 37 -109 41q-19 -147 -45 -287q55 2 142 41q16 -51 22 -104
q-80 -45 -180 -56q-12 -84 -21 -129q-68 -8 -104 -10q6 37 20 135q-118 2 -192 56t-74 172z" />
    <glyph glyph-name="comma.inferior" unicode="&#xf6e1;" horiz-adv-x="448" 
d="M115 -258q0 59 -92 92q14 90 63 135q50 45 106 45t97 -47t41 -106q0 -135 -96 -249t-220 -175q-43 52 -67 90q168 117 168 215z" />
    <glyph glyph-name="comma.superior" unicode="&#xf6e2;" horiz-adv-x="448" 
d="M436 913q0 -133 -95 -247t-220 -174q-49 63 -68 90q168 117 168 215q0 59 -92 92q13 90 63 135t106 45q56 1 97 -47t41 -109z" />
    <glyph glyph-name="dollar.inferior" unicode="&#xf6e3;" 
d="M467 -53q0 58 -82 76l-29 -152q57 0 84 25q27 18 27 51zM260 276q0 -50 88 -73l25 147q-51 0 -74 -14q-39 -20 -39 -60zM82 238q0 109 90 167t217 60l19 110q33 6 108 11l-22 -123q115 -4 182 -41q-8 -33 -31 -75t-43 -58q-59 51 -127 59l-29 -168q94 -25 149 -64
q54 -40 54 -129t-82 -153t-229 -72l-23 -110q-51 -6 -102 -6l23 112q-143 0 -224 47q10 80 72 142q92 -68 174 -74l31 170q-207 66 -207 195z" />
    <glyph glyph-name="dollar.superior" unicode="&#xf6e4;" 
d="M489 1077l-28 -151q55 0 83 21t27 52q0 55 -82 78zM453 1255l24 148q-51 0 -74 -14q-39 -20 -38 -58q0 -53 88 -76zM186 1290q0 109 90 167t218 61l18 110q33 6 109 10l-23 -122q115 -4 182 -41q-8 -33 -30 -75t-43 -59q-59 51 -127 60l-29 -166q94 -27 148 -67
q55 -40 55 -128t-82 -152q-82 -63 -230 -71l-22 -110q-51 -6 -103 -7l23 113q-143 0 -223 47q4 35 25 76q22 41 46 63q94 -65 174 -71l31 170q-207 61 -207 192z" />
    <glyph glyph-name="hyphen.inferior" unicode="&#xf6e5;" horiz-adv-x="579" 
d="M260 168q159 0 223 4q-10 -74 -28 -152h-418q10 82 24 148h199z" />
    <glyph glyph-name="hyphen.superior" unicode="&#xf6e6;" horiz-adv-x="579" 
d="M365 1223q157 0 223 4q-10 -74 -29 -152h-418q10 82 25 148h199z" />
    <glyph glyph-name="period.inferior" unicode="&#xf6e7;" horiz-adv-x="448" 
d="M180 6q64 0 98 -37t34 -94t-43 -96q-42 -39 -102 -39t-98 36t-38 91t42 97q43 42 107 42z" />
    <glyph glyph-name="period.superior" unicode="&#xf6e8;" horiz-adv-x="448" 
d="M284 1059q64 0 98 -37t34 -94q0 -56 -42 -96t-102 -40t-99 36q-38 36 -38 92t42 97q43 42 107 42z" />
    <glyph glyph-name="b.superior" unicode="&#xf6ea;" horiz-adv-x="915" 
d="M467 739q66 0 115 97q66 127 65 231q0 45 -35 45q-42 0 -116 -79t-97 -130q-6 -18 -30 -110q49 -54 98 -54zM494 1710q10 0 36 -22t35 -37q-21 -92 -127 -504l13 -6q91 96 155 136t133 42q78 -14 142 -113q18 -27 18 -71q0 -121 -41 -241t-125 -211t-209 -91t-205 67
l-57 -71q-55 14 -166 47q96 428 199 903l-127 -4l-8 133q136 11 229 27q95 16 105 16z" />
    <glyph glyph-name="d.superior" unicode="&#xf6eb;" horiz-adv-x="913" 
d="M393 780q35 0 102 68t85 115q6 14 38 167q-37 33 -77 33q-74 0 -128 -129t-55 -207q0 -47 35 -47zM474 1319q108 0 163 -43h12q4 27 23 125q18 98 24 133l-129 2v137q108 10 208 24q100 15 108 15t35 -24t45 -46q-80 -360 -181 -882q-2 -10 9 -10q33 0 83 14
q19 -128 19 -131q-137 -39 -275 -39q-10 0 -30 16t-29 31q0 31 10 111l-12 6q-162 -162 -285 -166q-32 4 -76 32t-71 68q-18 33 -19 78q0 266 170 451q90 98 198 98z" />
    <glyph glyph-name="e.superior" unicode="&#xf6ec;" horiz-adv-x="813" 
d="M571 1100q0 36 -16 64t-47 28t-59 -37q-43 -49 -64 -149q186 0 186 94zM571 1319q111 -1 173 -61t67 -136q-14 -119 -94 -174q-129 -63 -344 -61q-6 -16 -6 -53q1 -37 27 -60t71 -22q113 0 254 59q12 -41 33 -123q-193 -96 -400 -96q-96 0 -170 63t-73 168q0 211 141 365
q126 131 321 131z" />
    <glyph glyph-name="i.superior" unicode="&#xf6ed;" horiz-adv-x="542" 
d="M432 1319q10 0 38 -24t42 -42q-10 -49 -51 -232t-50 -230t-1 -48q29 0 98 17q4 -47 8 -133q-115 -33 -295 -33q-10 0 -39 26t-37 44q17 82 53 252t46 223l-119 2q-2 70 0 135q56 7 177 25q120 18 130 18zM447 1671q61 0 95 -37t34 -92t-42 -95t-100 -40t-97 40
q-38 40 -38 92t43 92t105 40z" />
    <glyph glyph-name="l.superior" unicode="&#xf6ee;" horiz-adv-x="512" 
d="M150 1536v133q129 9 226 25t105 16t36 -24t40 -44q-70 -326 -184 -888q-8 -12 4 -13q41 0 119 17q10 -70 12 -133q-147 -33 -313 -33q-8 0 -36 22t-44 43q11 47 81 405t95 474h-141z" />
    <glyph glyph-name="m.superior" unicode="&#xf6ef;" horiz-adv-x="1347" 
d="M889 1190q0 -10 -4 -51l12 -2q133 174 270 178q33 -4 69 -32q69 -53 70 -132q1 -78 -89 -397q-4 -10 6 -11q29 0 88 17q4 -45 12 -131q-123 -39 -297 -39q-8 0 -30 24t-27 43q51 215 73 305t23 120q0 30 -27 30q-46 0 -114 -93t-86 -170t-58 -243q-76 -2 -227 -2
q10 45 68 303q35 139 35 172t-27 33q-47 0 -117 -97t-92 -191t-49 -220q-78 -2 -232 -2q48 224 111 535l-115 -4v135l275 49q10 -1 32 -19t37 -38q-4 -41 -20 -127l16 -5q145 182 287 189q32 -2 64 -28q62 -52 63 -99z" />
    <glyph glyph-name="r.superior" unicode="&#xf6f1;" horiz-adv-x="737" 
d="M626 1063q-44 0 -116 -81t-92 -157q-4 -20 -22 -101t-27 -120h-238q33 170 109 535l-111 -6q-2 47 -2 135q145 17 210 33t72 16t33 -23t35 -37q-2 -28 -31 -167l17 -5q154 231 235 232q63 0 101 -31q0 -55 -27 -139t-49 -107q-53 23 -97 23z" />
    <glyph glyph-name="s.superior" unicode="&#xf6f2;" horiz-adv-x="729" 
d="M453 786q0 25 -24 41q-25 16 -99 45t-124 75t-50 122t47 130t121 87t203 33q130 0 192 -35q0 -31 -12 -213q-17 -2 -63 -5t-64 -5l-15 86q-12 33 -65 34t-74 -14q-31 -16 -31 -40q1 -24 11 -33q30 -24 57 -32q28 -9 53 -20q170 -66 170 -196t-123 -205q-86 -49 -226 -49
t-224 31q4 63 14 233q43 4 125 8l14 -98q4 -14 10 -18q37 -18 78 -19q99 0 99 57z" />
    <glyph glyph-name="t.superior" unicode="&#xf6f3;" horiz-adv-x="688" 
d="M420 809q0 -45 64 -45t167 18q4 -78 -2 -137q-182 -53 -330 -53q-35 0 -81 33q-72 53 -72 121q0 69 20 146t36 161q17 84 20 96h-129q15 69 26 141q80 8 123 8q12 0 16 22t31 124q139 51 236 51q8 0 6 -12q-3 -12 -19 -91t-18 -94q39 0 117 1t112 1q-10 -78 -28 -153
l-232 2q-15 -63 -39 -193t-24 -147z" />
    <glyph glyph-name="breve.sc" unicode="&#xf6f4;" horiz-adv-x="1087" 
d="M660 1229q-108 -1 -177 71q-68 72 -71 170q76 25 131 31q6 -55 46 -90t91 -35q102 0 156 119q68 -4 133 -20q-33 -113 -117 -179t-192 -67z" />
    <glyph glyph-name="caron.sc" unicode="&#xf6f5;" horiz-adv-x="1087" 
d="M416 1581l149 -186q84 72 207 186q55 -39 96 -82q-123 -133 -266 -280q-88 0 -129 2q-88 156 -170 286q53 41 113 74z" />
    <glyph glyph-name="circumflex.sc" unicode="&#xf6f6;" horiz-adv-x="1087" 
d="M686 1397l-227 -197q-47 37 -90 84q47 50 140 148t130 137q43 2 133 2q95 -141 186 -297q-68 -55 -102 -74q-160 187 -170 197z" />
    <glyph glyph-name="dotaccent.sc" unicode="&#xf6f7;" horiz-adv-x="1087" 
d="M504 1378q0 53 40 94t100 41q60 1 95 -31t35 -88t-40 -98q-40 -41 -97 -41t-95 35t-38 88z" />
    <glyph glyph-name="hungarumlaut.sc" unicode="&#xf6f8;" horiz-adv-x="1087" 
d="M786 1321q108 66 351 221q47 -63 82 -145l-365 -185q-10 16 -68 109zM788 1405q-246 -121 -370 -180q-45 66 -68 108q173 106 357 217q43 -55 81 -145z" />
    <glyph glyph-name="lslash.sc" unicode="&#xf6f9;" horiz-adv-x="1030" 
d="M564 164q88 0 118 8t41 39l72 172q70 -10 184 -39q-43 -158 -105 -346l-593 2h-261l31 166l84 2q12 0 12 12l41 234q-25 -6 -112 -29q-23 78 -35 154q170 45 176 47l53 311l-100 4q12 78 29 168h530q-6 -41 -31 -168l-104 -4q-10 0 -10 -8l-39 -211l211 61
q25 -92 32 -161q-113 -31 -274 -76l-53 -301q-4 -25 6 -31q9 -6 97 -6z" />
    <glyph glyph-name="oe.sc" unicode="&#xf6fa;" horiz-adv-x="1705" 
d="M420 393q0 -246 180 -248q119 0 197 107l48 288q32 191 48 287q-25 45 -72 69t-98 24q-113 0 -180 -84q-123 -146 -123 -443zM1213 164q83 0 115 9t48 38l58 106q61 -10 172 -45q-45 -143 -97 -274l-587 2q-29 0 -74 -1t-64 -1q10 47 13 88q-113 -106 -305 -106t-318 141
q-96 111 -96 311t85 348q177 312 513 312q176 0 268 -107q6 29 14 86l127 -2l406 2h176q-14 -131 -37 -297q-37 -2 -162 -8l-10 104q-4 25 -34 30t-193 5q-14 0 -17 -6l-49 -278q109 0 153 2t54 32l19 58q61 0 159 -4q-16 -111 -34 -188q-17 -77 -27 -152q-102 -4 -162 -4
l2 53q2 23 -5 31t-34 10h-151l-45 -258q-4 -23 16 -30t103 -7z" />
    <glyph glyph-name="ogonek.sc" unicode="&#xf6fb;" horiz-adv-x="1087" 
d="M676 -221q0 -45 30 -69q50 -40 160 -9q8 -66 11 -98q-80 -37 -169 -37t-154 44t-65 122q1 174 269 303h98q-180 -127 -180 -256z" />
    <glyph glyph-name="ring.sc" unicode="&#xf6fc;" horiz-adv-x="1087" 
d="M766 1427q0 37 -26 61t-67 23q-42 -1 -72 -29t-30 -75t25 -74t66 -26q104 0 104 120zM684 1612q108 0 172 -49t64 -135t-75 -154t-185 -68t-177 48t-67 140t80 156q80 62 188 62z" />
    <glyph glyph-name="scaron.sc" unicode="&#xf6fd;" horiz-adv-x="1021" 
d="M653 1395q127 113 207 186q59 -41 94 -82q-160 -172 -264 -280q-88 0 -129 2q-88 156 -170 286q53 41 113 74l75 -93q49 -62 74 -93zM905 362q0 -182 -153 -290q-131 -92 -381 -92q-186 0 -320 53q6 135 15 315q111 12 180 14l28 -153q4 -14 13 -23q45 -30 134 -30
q183 1 183 114q0 40 -13 54t-19 20t-18 13q-13 7 -25 16t-35 17t-47 18t-35 14q-274 117 -275 315q0 154 150 256q133 99 343 99t312 -45q-12 -199 -22 -314q-58 -6 -177 -10l-18 141q0 14 -10 21q-29 29 -102 29t-115 -23q-57 -37 -58 -100q0 -29 10 -41t22 -28
q13 -16 62 -35t77 -31t44 -17q250 -95 250 -277z" />
    <glyph glyph-name="tilde.sc" unicode="&#xf6fe;" horiz-adv-x="1087" 
d="M555 1333q-53 0 -82 -108q-61 -4 -117 0q16 111 78 187t124 77q63 0 128 -41q103 -69 135 -70q59 0 88 107q61 2 113 0q-14 -113 -78 -189t-130 -75q-65 0 -207 95q-31 17 -52 17z" />
    <glyph glyph-name="zcaron.sc" unicode="&#xf6ff;" horiz-adv-x="1073" 
d="M641 1393q84 72 207 186q55 -39 96 -82q-123 -133 -266 -280q-88 0 -129 2q-88 156 -170 286q53 41 113 74q79 -96 149 -186zM416 1069h569q29 -80 64 -225q-412 -416 -678 -658l2 -6q252 0 327 21q33 6 54 43l71 151q141 -35 179 -45q-63 -221 -111 -352l-580 2h-262
q-37 92 -53 156q587 606 698 729l-2 6q-244 0 -278 -9t-43 -36l-72 -164q-141 29 -182 41q34 141 94 350q111 -4 203 -4z" />
    <glyph glyph-name="exclam.sc" unicode="&#xf721;" horiz-adv-x="626" 
d="M265 293q71 0 112 -44t41 -113q0 -68 -50 -112t-122 -44t-114 38t-42 107q0 68 52 118t123 50zM580 1092q30 0 30 -5q-6 -15 -98 -295t-125 -376q-88 -25 -203 -25q25 450 25 666q57 11 199 23t172 12z" />
    <glyph glyph-name="dollar.oldstyle" unicode="&#xf724;" horiz-adv-x="921" 
d="M573 264q0 68 -98 94l-19 -104q-13 -72 -20 -104q137 3 137 114zM309 698q0 -63 109 -84q8 43 33 195q-66 -2 -104 -35t-38 -76zM74 660q0 110 103 198t298 98q16 82 29 162q35 6 147 10q-2 -12 -30 -170q137 0 233 -55q-23 -119 -96 -170q-70 61 -168 72
q-16 -96 -39 -221q141 -42 201 -102t59 -178q-2 -118 -113 -205t-292 -95q-25 -145 -27 -158q-45 -4 -139 -8q25 129 28 158q-190 8 -282 63q10 49 38 103t60 80q100 -86 215 -95l45 238q-142 51 -206 109q-64 56 -64 166z" />
    <glyph glyph-name="ampersand.sc" unicode="&#xf726;" horiz-adv-x="1370" 
d="M332 324q0 -168 189 -168q93 0 175 47q-135 156 -284 270q-80 -61 -80 -149zM678 834q0 48 -26 74t-72 26t-79 -27q-32 -27 -32 -76q-1 -49 21 -79t73 -76q115 57 115 158zM436 -18q-200 0 -307 70t-107 188q0 120 72 206q70 86 197 132v6q-111 98 -111 217t119 205
q121 80 299 80t258 -68t80 -158t-62 -161t-180 -111v-6q90 -74 228 -220q59 61 73 144q2 14 -8 14l-82 6q14 94 27 150h405q-2 -76 -18 -150l-82 -8q-66 -178 -207 -272q30 -37 56 -65t69 -27l119 -2q-12 -100 -27 -150q-270 -16 -358 -20q-2 2 -90 102q-163 -102 -363 -102
z" />
    <glyph glyph-name="zero.oldstyle" unicode="&#xf730;" horiz-adv-x="1161" 
d="M336 424q0 -113 52 -169t143 -56t155 57q94 86 94 244q0 111 -59 170q-47 53 -137 53t-154 -57q-94 -86 -94 -242zM507 -20q-226 0 -339 116q-117 127 -117 312q0 96 41 201t131 188q162 145 387 145t341 -123t116 -299q0 -98 -42 -210t-130 -189q-162 -141 -388 -141z
" />
    <glyph glyph-name="one.oldstyle" unicode="&#xf731;" horiz-adv-x="950" 
d="M755 963q7 0 5 -11q-63 -375 -142 -780l259 -4q-14 -100 -31 -166h-416q-60 0 -200 -1t-220 -1q21 111 31 168l254 4q10 0 14 10q49 285 76 447q-172 -29 -274 -51q-14 88 -17 163q133 39 393 131q261 91 268 91z" />
    <glyph glyph-name="two.oldstyle" unicode="&#xf732;" horiz-adv-x="1003" 
d="M563 600q0 125 -133 125t-274 -115q-55 59 -101 129q102 95 215 149t280 54t257 -81t90 -197q0 -248 -342 -385q-84 -33 -168 -60l2 -16q84 0 266 2t238 2q-20 -137 -41 -209l-629 2h-192q-23 80 -39 180q335 157 489 285q82 68 82 135z" />
    <glyph glyph-name="three.oldstyle" unicode="&#xf733;" horiz-adv-x="917" 
d="M502 600q0 53 -36 92t-106 39q-131 0 -258 -90q-43 68 -75 137q174 164 444 164q176 0 260 -86t84 -192q0 -234 -283 -330v-15q119 -23 182 -103q62 -81 62 -183q0 -195 -163 -309t-445 -113q-78 0 -166 15t-125 40q16 49 64 162q84 -37 217 -37t209 58q75 59 75 155
t-66 149q-67 52 -179 52h-74q-6 75 -6 172q385 2 385 223z" />
    <glyph glyph-name="four.oldstyle" unicode="&#xf734;" horiz-adv-x="1169" 
d="M276 199q171 -6 326 -6l90 501l-16 2q-174 -192 -392 -468q-24 -29 -8 -29zM508 -348q45 252 59 350q-76 -2 -493 -2q-61 160 -72 199q76 92 281 316t407 419q131 0 340 -8q-49 -287 -127 -733q63 -2 197 -3q-14 -90 -35 -176q-43 -2 -197 -2q-8 -47 -30 -170t-33 -182
q-221 -10 -297 -8z" />
    <glyph glyph-name="five.oldstyle" unicode="&#xf735;" horiz-adv-x="937" 
d="M551 924q240 0 328 -2q-14 -90 -45 -226q-199 -4 -476 -10q-37 -135 -57 -205q27 2 92 2q201 0 322 -116q98 -98 98 -256q0 -213 -145 -344q-172 -152 -480 -152q-164 0 -270 53q25 88 55 162q94 -35 225 -35t218 74q78 72 78 167t-43 140q-78 82 -242 82q-37 0 -119 -4
l-33 33q135 588 148 637h346z" />
    <glyph glyph-name="six.oldstyle" unicode="&#xf736;" horiz-adv-x="1093" 
d="M621 195q57 88 57 260t-128 172q-66 0 -149 -86q-16 -85 -16 -187q-1 -102 33 -160t100 -57q66 0 103 58zM689 825q147 0 229 -100q82 -106 81 -244q0 -225 -144 -363t-353 -138t-326 110t-117 344q0 162 71 329t208 302q227 221 534 274q37 -98 52 -165
q-208 -58 -318 -162t-176 -260l12 -9q100 82 247 82z" />
    <glyph glyph-name="seven.oldstyle" unicode="&#xf737;" horiz-adv-x="1015" 
d="M610 686q-406 0 -553 -10q20 154 43 250l545 -2h258q35 -96 60 -219q-160 -250 -660 -1102q-135 45 -217 86q121 215 524 985v12z" />
    <glyph glyph-name="eight.oldstyle" unicode="&#xf738;" horiz-adv-x="1140" 
d="M707 332q0 125 -203 219q-152 -92 -152 -246q0 -88 47 -130t122 -42q75 -1 131 49t55 150zM635 764q127 78 127 221t-140 141q-68 0 -106 -45q-47 -46 -47 -115t41 -113t125 -89zM1012 373q0 -158 -129 -267q-143 -126 -388 -126t-350 96q-92 80 -92 194t78 212
q78 97 219 157v14q-84 61 -127 123t-43 150q0 127 101 221q141 135 358 135t322 -98q75 -72 75 -180t-68 -189q-68 -80 -169 -123v-14q213 -104 213 -305z" />
    <glyph glyph-name="nine.oldstyle" unicode="&#xf739;" horiz-adv-x="1107" 
d="M674 578q0 112 -35 159t-101 47t-104 -59q-55 -85 -55 -205t47 -172q37 -33 76 -33q86 0 160 76q12 75 12 187zM385 123q-133 0 -219 80q-104 94 -104 272t122 309q142 158 374 158t338 -123t105 -303q0 -414 -292 -672q-213 -190 -551 -231q-23 63 -47 176
q256 51 385 172q100 93 149 232l-14 10q-113 -80 -246 -80z" />
    <glyph glyph-name="question.sc" unicode="&#xf73f;" horiz-adv-x="995" 
d="M421 264q73 0 113 -41t40 -104t-51 -101t-123 -38t-114 36t-42 96q0 62 52 107t125 45zM604 790q0 116 -114 116q-52 0 -79 -15q-26 -14 -32 -27l-49 -137q-154 18 -193 25q8 41 18 88q9 47 20 105t18 89q129 57 380 58q177 0 281 -68t104 -186q0 -119 -93 -201
t-265 -154q-31 -15 -34 -37t-11 -90q-82 -29 -211 -34q-16 25 -29 84q-12 59 -4 106q169 100 231 158q62 56 62 120z" />
    <glyph glyph-name="grave.sc" unicode="&#xf760;" horiz-adv-x="1087" 
d="M440 1544q295 -186 351 -221q-39 -70 -78 -125q-260 127 -373 178q47 92 100 168z" />
    <glyph glyph-name="a.sc" unicode="&#xf761;" horiz-adv-x="1181" 
d="M430 414h240q-39 306 -47 372h-19q-33 -61 -93 -185t-89 -177q-4 -10 8 -10zM1087 0l-231 2q-43 0 -140 -1t-138 -1q10 90 24 166l96 6q6 0 7 10q-7 52 -11 68t-12 16l-334 -2q-18 -37 -43 -94l98 -2q-6 -61 -26 -168l-256 2q-31 0 -94 -1t-97 -1q11 74 29 166l82 4
q4 0 14 12q84 144 278 480t240 415q115 4 269 4q45 -210 186 -909l88 -4q-20 -131 -29 -168z" />
    <glyph glyph-name="b.sc" unicode="&#xf762;" horiz-adv-x="1155" 
d="M506 152q90 0 152 40t62 112t-44 118q-45 46 -129 45h-55l-50 -272q-6 -25 14 -34t50 -9zM557 621q88 0 145 43q58 43 58 111q0 69 -38 107q-55 55 -153 33l-51 -290q20 -4 39 -4zM594 1071q274 0 360 -51q51 -29 83 -79t32 -101q1 -96 -65 -162t-179 -100l-2 -13
q113 -19 170 -81t58 -142q-1 -162 -149 -252t-392 -90h-510q15 92 29 162l94 6q10 0 12 10l123 719l-106 6q15 96 30 162q138 6 412 6z" />
    <glyph glyph-name="c.sc" unicode="&#xf763;" horiz-adv-x="1083" 
d="M416 444q0 -130 65 -196q118 -119 469 -19q6 -82 2 -180q-197 -70 -374 -69q-220 0 -360 112t-140 334q0 170 83 317t212 232q174 117 444 117q170 0 248 -37q-16 -186 -37 -365q-92 -6 -176 -6l-8 168q0 52 -109 52q-109 -1 -175 -58t-104 -165q-40 -107 -40 -237z" />
    <glyph glyph-name="d.sc" unicode="&#xf764;" horiz-adv-x="1247" 
d="M506 154q113 0 203 84q131 121 131 366q0 166 -64 239t-158 72q-20 0 -47 -6l-125 -706q-4 -27 10 -38t50 -11zM629 1071q252 0 370 -82q176 -123 177 -377q0 -170 -90 -310t-225 -221q-136 -81 -367 -81h-488q4 30 16 88t13 76l90 4q6 0 10 12l121 717l-100 2
q17 115 28 168q283 4 445 4z" />
    <glyph glyph-name="e.sc" unicode="&#xf765;" horiz-adv-x="1056" 
d="M582 905q-16 0 -17 -6l-47 -276q173 0 184 7t19 27l22 56q53 0 160 -4q-17 -113 -31 -172q-25 -139 -28 -172q-73 -5 -162 -5l-2 60q0 23 -6 31t-31 8h-156l-43 -258q-2 -25 20 -32t96 -7t130 12q29 10 41 37l62 100q86 -16 165 -37q-45 -139 -94 -276l-600 2
q-47 0 -137 -1t-129 -1q15 98 29 168l92 2q6 0 10 10l123 721l-105 4q4 20 31 166h258l408 2h174q-8 -80 -35 -295q-55 -4 -162 -8l-10 102q-4 25 -41 30t-188 5z" />
    <glyph glyph-name="f.sc" unicode="&#xf766;" horiz-adv-x="1030" 
d="M600 0l-338 2q-49 0 -137 -1t-125 -1q4 18 10 53t12 63t9 50l90 4q6 0 6 8l127 721l-104 4q4 27 30 166h256l404 2q127 0 172 2q-18 -223 -29 -321q-51 -4 -174 -9l-8 121q-2 27 -31 29q-78 10 -182 10l-23 -2l-57 -319q119 0 165 1t52 31l16 64q111 0 168 -2
q-10 -59 -31 -184t-30 -185q-57 -2 -170 -2l4 70q2 23 -8 33t-195 10l-43 -244l197 -6q-16 -109 -33 -168z" />
    <glyph glyph-name="g.sc" unicode="&#xf767;" horiz-adv-x="1206" 
d="M74 416q0 192 88 336t211 218t235 98t220 24q110 0 192 -16t117 -36q-27 -240 -39 -333q-135 0 -185 -5l-8 158q0 16 -10 25q-45 33 -107 33q-120 0 -196 -58t-126 -172q-50 -115 -50 -251t62 -213t190 -77q35 0 37 15l30 213l-137 4q23 142 25 153h538
q-14 -102 -26 -153l-76 -4q-10 0 -10 -8l-58 -322q-109 -65 -377 -65t-404 122t-136 314z" />
    <glyph glyph-name="h.sc" unicode="&#xf768;" horiz-adv-x="1349" 
d="M524 0l-254 2q-41 0 -131 -1t-135 -1q19 123 29 168l90 6q10 0 10 8l125 715l-100 6q10 74 28 166h523q-18 -121 -29 -166l-100 -6q-8 0 -9 -8l-43 -244q-2 -4 0 -5t9 -1l344 -2l45 260l-105 6q18 114 29 166h518q-18 -119 -29 -166l-90 -6q-4 0 -8 -6l-127 -717l98 -6
q-23 -143 -26 -168l-258 2q-46 0 -140 -1t-137 -1q2 6 13 72q10 66 18 96l111 6q10 0 12 10l43 273q2 10 -4 10l-346 -4l-54 -289l111 -6q-14 -96 -31 -168z" />
    <glyph glyph-name="i.sc" unicode="&#xf769;" horiz-adv-x="702" 
d="M178 1071l281 -2q43 0 132 1t126 1q-14 -88 -33 -168l-102 -4q-6 0 -7 -8l-129 -717l121 -6q-12 -78 -28 -168l-273 2q-41 0 -132 -1t-136 -1q4 30 31 168l98 6q6 0 10 8l123 717l-113 4q16 102 31 168z" />
    <glyph glyph-name="j.sc" unicode="&#xf76a;" horiz-adv-x="995" 
d="M266 -35q-139 0 -272 27q0 231 -2 354q115 16 188 19l31 -179q7 -40 92 -40q86 -1 126 41t65 196q27 197 65 516l-186 6q16 100 28 164h605q-11 -76 -27 -164l-96 -4q-8 0 -9 -8q-43 -328 -69 -487q-31 -213 -141 -314q-139 -127 -398 -127z" />
    <glyph glyph-name="k.sc" unicode="&#xf76b;" horiz-adv-x="1222" 
d="M1071 1069q29 0 88 1t90 1q-16 -104 -30 -168l-66 -6q-246 -225 -338 -307l-2 -10q76 -45 129 -201q20 -68 53 -156q23 -47 58 -49l98 -8q-12 -82 -33 -164l-213 -2l-160 -2q-51 106 -91 286t-105 179l-60 -2l-49 -287l101 -6q-12 -74 -33 -168l-234 2q-41 0 -131 -1
t-135 -1q4 18 14 78t17 90l88 6q6 0 6 6l125 719l-96 4q16 106 28 168l275 -2q39 0 116 1t105 1q-20 -133 -31 -168l-80 -4q-4 0 -8 -10l-49 -275q59 4 68 7q104 88 264 268q10 10 -6 10l-74 2q14 94 29 168h272z" />
    <glyph glyph-name="l.sc" unicode="&#xf76c;" horiz-adv-x="1011" 
d="M544 164q88 0 117 8q30 8 41 39l72 172q70 -10 184 -39q-43 -158 -104 -346l-594 2h-260l31 166l84 2q12 0 12 12l123 717l-100 4q12 78 28 168h531q-6 -41 -31 -168l-105 -4q-10 0 -10 -8l-123 -688q-4 -25 6 -31t98 -6z" />
    <glyph glyph-name="m.sc" unicode="&#xf76d;" horiz-adv-x="1544" 
d="M1415 168l-26 -168h-480q4 23 14 81q9 58 15 87l96 4q8 0 8 6q55 268 103 551h-12q-254 -496 -390 -709q-51 -4 -172 -4q-86 369 -129 721h-14q-32 -196 -102 -565l116 -4q-20 -131 -28 -168h-422q18 121 26 168l91 4q8 0 8 6q66 346 129 711l-103 4q6 41 31 176h467
q49 -272 113 -700h12q199 408 348 700h434q-20 -133 -28 -176l-82 -4q-8 0 -8 -8q-72 -436 -117 -711z" />
    <glyph glyph-name="n.sc" unicode="&#xf76e;" horiz-adv-x="1312" 
d="M1139 1069q33 0 101 1t95 1q-14 -90 -30 -166l-80 -4q-8 0 -13 -12l-153 -875q-104 -31 -246 -30q-193 297 -385 678h-8q-16 -96 -46 -272t-36 -216l133 -6q-12 -78 -29 -168l-260 2q-29 0 -90 -1t-94 -1q13 82 29 168l92 4q8 4 8 10l121 719l-105 2q12 86 29 166h363
q180 -332 374 -727h11q14 108 42 308t33 251l-139 2q12 86 29 166h254z" />
    <glyph glyph-name="o.sc" unicode="&#xf76f;" horiz-adv-x="1298" 
d="M883 662q0 266 -162 266q-99 0 -157 -64t-100 -192q-42 -130 -42 -273q0 -252 178 -253t248 246q35 124 35 270zM1227 651q0 -168 -68 -311t-180 -231q-176 -129 -422 -129t-373 141q-106 121 -106 313t96 346q194 312 578 312q188 0 305 -84q86 -59 128 -156t42 -201z
" />
    <glyph glyph-name="p.sc" unicode="&#xf770;" horiz-adv-x="1099" 
d="M520 520h19q78 0 123 39q82 74 81 186q0 68 -35 118q-36 50 -102 50q-22 0 -47 -4l-67 -372q0 -17 28 -17zM602 1071q178 0 268 -35t137 -109q46 -75 46 -181t-69 -200q-137 -188 -433 -190q-74 0 -88 2l-35 -188l156 -6q-12 -74 -29 -164l-317 2q-39 0 -116 -1t-112 -1
q21 111 31 164l82 6q6 0 8 10l125 719l-102 2q4 25 13 82t15 84q242 4 420 4z" />
    <glyph glyph-name="q.sc" unicode="&#xf771;" horiz-adv-x="1292" 
d="M422 403q0 -260 182 -262q88 1 142 61t93 184q38 124 38 264t-35 208t-126 68t-157 -68q-65 -68 -101 -197t-36 -258zM1024 -293q-90 0 -162 39q-150 86 -307 234h-31q-90 0 -185 40t-151 101q-108 125 -108 308t90 340t236 240t336 83q188 0 311 -88q84 -58 125 -156
t41 -199q0 -164 -69 -304t-183 -230q-83 -66 -144 -84v-8q155 -97 322 -99q45 0 121 15q14 -98 20 -175q-172 -57 -262 -57z" />
    <glyph glyph-name="r.sc" unicode="&#xf772;" horiz-adv-x="1175" 
d="M543 551q90 0 150 54q61 53 61 139t-35 130t-80 43q-45 0 -74 -6l-63 -358q12 -2 41 -2zM604 1071q176 0 272 -30t145 -101q48 -72 48 -163t-71 -169t-175 -112l-2 -11q31 -15 46 -40q39 -64 83 -218q16 -53 86 -63l62 -6q-18 -113 -29 -154q-98 -4 -154 -4l-208 -2
q-25 47 -109 340q-20 66 -84 65q-14 0 -39 -4l-41 -229l98 -6q-4 -37 -28 -164h-498q15 100 29 164l88 6q4 0 8 6l123 723l-98 2q20 115 30 166q242 4 418 4z" />
    <glyph glyph-name="s.sc" unicode="&#xf773;" horiz-adv-x="1021" 
d="M905 362q0 -182 -153 -290q-131 -92 -381 -92q-186 0 -320 53q6 135 15 315q111 12 180 14l28 -153q4 -14 13 -23q45 -30 134 -30q183 1 183 114q0 40 -13 54t-19 20t-18 13q-13 7 -25 16t-35 17t-47 18t-35 14q-274 117 -275 315q0 154 150 256q133 99 343 99t312 -45
q-12 -199 -22 -314q-58 -6 -177 -10l-18 141q0 14 -10 21q-29 29 -102 29t-115 -23q-57 -37 -58 -100q0 -29 10 -41t22 -28q13 -16 62 -35t77 -31t44 -17q250 -95 250 -277z" />
    <glyph glyph-name="t.sc" unicode="&#xf774;" horiz-adv-x="1097" 
d="M1014 1069q35 0 80 1t61 1q-20 -195 -45 -358q-36 -4 -104 -8t-78 -5l-2 158q-4 29 -37 34t-117 5l-123 -723l135 -6q-8 -49 -30 -168l-289 2q-41 0 -136 -1t-145 -1q25 131 33 168l109 6q6 0 10 10l121 715q-76 0 -112 -7t-44 -30l-51 -162q-33 2 -96 8t-93 7
q31 182 64 356l180 -2h709z" />
    <glyph glyph-name="u.sc" unicode="&#xf775;" horiz-adv-x="1234" 
d="M121 311q0 53 10 115l82 475l-90 4q4 27 31 166l256 -2q45 0 135 1t131 1q-10 -72 -33 -166l-100 -4q-8 0 -13 -14l-81 -457q-30 -149 24 -213q49 -49 126 -49q184 0 226 287q10 57 24 138l48 300q0 8 -6 8l-117 4q12 84 29 166l239 -2q37 0 112 1t112 1q-9 -68 -27 -166
l-84 -4l-78 -422q-49 -266 -178 -383q-129 -116 -353 -116t-337 102q-88 86 -88 229z" />
    <glyph glyph-name="v.sc" unicode="&#xf776;" horiz-adv-x="1202" 
d="M1081 1069q33 0 93 1t90 1q-17 -96 -29 -168l-88 -4q-27 -47 -192 -348t-330 -565q-147 -4 -277 -4q-87 396 -162 911q-4 8 -8 8l-92 2q16 115 27 168h549q-23 -143 -27 -168l-115 -4q8 -135 25 -264q16 -174 41 -363h14q193 391 289 615q4 10 -4 10l-101 4
q18 129 27 168h270z" />
    <glyph glyph-name="w.sc" unicode="&#xf777;" horiz-adv-x="1581" 
d="M1485 1069q29 0 85 1t81 1q-8 -70 -31 -168l-80 -4q-244 -583 -393 -913q-102 -4 -266 -4q-51 328 -72 581h-10q-125 -283 -283 -577q-45 -4 -270 -4q-26 267 -64 911q0 8 -10 8l-88 4q19 151 27 166l243 -2h297q-16 -100 -28 -166l-117 -4q-4 -47 -8 -250t-9 -346h11
q20 49 299 696q147 9 239 5q33 -295 64 -689h10q6 23 70 219t108 355q4 10 -4 10l-115 2q20 123 29 168h285z" />
    <glyph glyph-name="x.sc" unicode="&#xf778;" horiz-adv-x="1181" 
d="M395 1069q51 0 151 1t140 1q-14 -94 -29 -168l-84 -4q45 -104 95 -201h10q174 184 168 197q-2 4 -6 4l-78 2q14 94 29 168h276q27 0 84 1t86 1q-12 -78 -33 -168l-71 -4q-131 -123 -375 -332v-14q158 -256 237 -381l103 -4q-12 -90 -31 -168h-539q14 94 29 168l76 4
q10 2 8 12q-20 47 -96 201h-8q-39 -47 -99 -119t-76 -92l91 -6q-14 -96 -31 -168l-291 2q-29 0 -90 -1t-92 -1q17 115 28 168l82 4q8 0 21 10q82 72 366 330v12q-219 377 -225 377l-98 2q4 18 12 75t19 91h241z" />
    <glyph glyph-name="y.sc" unicode="&#xf779;" horiz-adv-x="1091" 
d="M334 1069q53 0 151 1t136 1q-14 -84 -33 -168l-86 -4q61 -221 96 -326h12q109 158 197 316q6 10 -2 10l-92 2q19 118 30 168h269q29 0 85 1t83 1q-16 -86 -35 -168l-74 -4q-182 -242 -399 -496l-39 -229l127 -6q-12 -74 -33 -168l-276 2q-41 0 -135 -1t-140 -1
q13 82 29 168l106 6q10 0 13 10l34 215q-100 229 -200 490q-4 12 -13 12l-79 4q16 100 28 164h240z" />
    </font>
</defs>
</svg>
