<?xml version="1.0" standalone="no"?>
<!DOCTYPE svg PUBLIC "-//W3C//DTD SVG 1.1//EN" "http://www.w3.org/Graphics/SVG/1.1/DTD/svg11.dtd" >
<svg xmlns="http://www.w3.org/2000/svg">
<metadata>
Created by FontPrep 20130207 at Wed Mar 25 10:59:25 2015
 By Bradley Gorman
(c) 1997, 2000 Adobe Systems Incorporated. All rights reserved.
</metadata>
<defs>
<font id="4aeabe0f77e25172918f03c0cd8383cd" horiz-adv-x='1024' >
  <font-face 
    font-family="ChaparralPro-Regular"
    font-weight="400"
    font-stretch="normal"
    units-per-em="2048"
    panose-1="2 6 5 3 4 5 5 2 2 3"
    ascent="1516"
    descent="-532"
    x-height="860"
    cap-height="1331"
    bbox="-334 -647 2198 1784"
    underline-thickness="110"
    underline-position="-94"
    unicode-range="U+0020-FB04"
  />
<missing-glyph horiz-adv-x="1024" 
d="M102 1241v-1046l349 524zM164 102h696l-348 523zM573 719l349 -524v1046zM512 811l348 522h-696zM0 0v1436h1024v-1436h-1024z" />
    <glyph glyph-name="T_h" unicode="Th" horiz-adv-x="2078" 
d="M504 109v1120q-199 0 -255 -5t-63 -40l-32 -199l-115 10l20 336l189 -2h760q86 2 295 2q0 -266 -7 -571l11 -2q152 82 211 102t124 21q141 0 228 -146q28 -51 28 -185t-4 -454l136 -4q0 -61 -2 -90h-209l-207 -2v88l121 6q8 4 8 10v373q0 168 -31 215q-38 66 -144 66
t-266 -113q-4 -324 -4 -549l158 -6l-2 -88h-238l-200 -2l2 88l119 8q6 0 6 8q2 336 2 1080q0 35 -56 41q-106 4 -419 4l-4 -1127l188 -6l-2 -96l-258 2l-264 -2q0 66 2 96l166 6q8 0 8 7z" />
    <glyph glyph-name="Tcaron_h" unicode="&#x164;h" horiz-adv-x="2078" 
d="M946 1663l-246 -205q-47 0 -69 2q-119 98 -240 199q20 33 51 65q91 -57 226 -147q160 106 225 149q31 -27 53 -63zM504 109v1120q-199 0 -255 -5t-63 -40l-32 -199l-115 10l20 336l189 -2h760q86 2 295 2q0 -266 -7 -571l11 -2q152 82 211 102t124 21q141 0 228 -146
q28 -51 28 -185t-4 -454l136 -4q0 -61 -2 -90h-209l-207 -2v88l121 6q8 4 8 10v373q0 168 -31 215q-38 66 -144 66t-266 -113q-4 -324 -4 -549l158 -6l-2 -88h-238l-200 -2l2 88l119 8q6 0 6 8q2 336 2 1080q0 35 -56 41q-106 4 -419 4l-4 -1127l188 -6l-2 -96l-258 2
l-264 -2q0 66 2 96l166 6q8 0 8 7z" />
    <glyph glyph-name="Tcommaaccent_h" unicode="&#x162;h" horiz-adv-x="2078" 
d="M604 -94q43 0 80 -46t37 -104q0 -184 -189 -293q-8 8 -47 60q113 76 113 166q0 66 -84 84q-8 55 20 94t70 39zM504 109v1120q-199 0 -255 -5t-63 -40l-32 -199l-115 10l20 336l189 -2h760q86 2 295 2q0 -266 -7 -571l11 -2q152 82 211 102t124 21q141 0 228 -146
q28 -51 28 -185t-4 -454l136 -4q0 -61 -2 -90h-209l-207 -2v88l121 6q8 4 8 10v373q0 168 -31 215q-38 66 -144 66t-266 -113q-4 -324 -4 -549l158 -6l-2 -88h-238l-200 -2l2 88l119 8q6 0 6 8q2 336 2 1080q0 35 -56 41q-106 4 -419 4l-4 -1127l188 -6l-2 -96l-258 2
l-264 -2q0 66 2 96l166 6q8 0 8 7z" />
    <glyph glyph-name="f_f_j" unicode="ffj" horiz-adv-x="1714" 
d="M207 104v646h-154q0 39 4 100q23 2 70 2t63 1t17 13q2 131 27 216q26 85 90 155q139 150 329 149q98 0 172 -30q-1 -27 -25 -70t-44 -57q-68 39 -166 39t-148 -66q-80 -96 -80 -348h443q10 0 10 14q0 160 28 238t91 145q139 147 332 148q145 0 256 -53q0 -27 -27 -72
t-49 -60q-160 66 -251 66t-144 -63q-31 -37 -45 -66q-35 -72 -35 -297l274 2q91 0 205 10t121 11q4 0 4 -7l-2 -696q1 -137 -17 -224t-65 -179q-84 -170 -215 -246q-27 2 -69 34t-48 58q143 66 195 156q68 125 65 358l-2 617q-61 2 -184 2h-262l-2 -654l182 -6v-88h-258
l-205 -2l2 88l119 8q8 0 8 8q0 436 -2 646h-453q0 -444 -2 -654l187 -6v-88h-262l-205 -2l2 88l119 8q6 0 6 8z" />
    <glyph glyph-name="f_j" unicode="fj" horiz-adv-x="1110" 
d="M209 104q0 436 -2 646h-154q0 39 4 100q90 4 140 4q10 0 10 14q0 160 27 238q28 78 92 145q138 148 333 148q143 0 254 -53q1 -29 -25 -73t-50 -59q-160 66 -253 66t-139 -57t-65 -126q-18 -69 -16 -243l274 2q89 0 205 10t123 11q4 0 4 -7q-4 -204 -4 -696
q1 -137 -17 -224t-65 -179q-88 -174 -217 -246q-27 2 -68 34t-47 58q143 66 192 156q68 119 68 358l-4 617q-111 4 -239 4t-205 -2q0 -327 -3 -654l183 -6q0 -59 -2 -88h-258l-203 -2q-2 31 2 88l117 8q8 0 8 8z" />
    <glyph glyph-name="f_f" unicode="ff" horiz-adv-x="1292" 
d="M53 750q0 39 4 100q90 4 140 4q10 0 10 12q2 131 27 216q26 85 90 155q141 149 331 149q100 0 170 -30q-1 -27 -25 -70t-44 -55q-84 37 -176 37t-138 -66q-78 -98 -77 -348h440q10 0 10 14q0 160 24 238t85 147q135 145 311 146q70 0 131 -25q0 -28 -22 -72t-41 -61
q-82 31 -152 31t-112 -56t-54 -124t-10 -238l299 2q0 -57 -6 -106h-295q0 -442 -2 -654l200 -4q0 -61 -2 -90h-276l-203 -2v88l119 8q8 0 8 8l-2 646h-450q0 -442 -3 -654l185 -4v-90h-262l-205 -2l2 88l119 8q8 0 8 8l-2 646h-154z" />
    <glyph glyph-name="f_f_i" unicode="ffi" horiz-adv-x="1753" 
d="M207 104v646h-154q0 39 4 100q23 2 70 2t63 1t17 13q2 131 27 216q26 85 90 155q139 150 329 149q98 0 172 -30q-1 -27 -25 -70t-44 -57q-68 39 -166 39t-148 -66q-80 -96 -80 -348h443q10 0 10 14q0 160 28 238t91 145q139 147 330 148q150 0 256 -53q0 -27 -27 -72
t-49 -60q-160 66 -250 66t-143 -63q-31 -37 -45 -66q-35 -72 -35 -297l274 2q91 0 205 10t121 11q4 0 4 -7l-4 -774l143 -6q0 -59 -2 -88h-227l-207 -2v90l133 6q6 0 6 8v644q-57 2 -186 2h-260l-2 -654l182 -6q0 -59 -2 -88h-256l-205 -2l2 88l119 8q8 0 8 8q0 436 -2 646
h-453q0 -444 -2 -654l187 -6v-88h-262l-205 -2l2 88l119 8q6 0 6 8z" />
    <glyph glyph-name="f_f_l" unicode="ffl" horiz-adv-x="1759" 
d="M1220 1290q-127 0 -188 -76q-37 -50 -49 -118t-12 -244l450 2l2 408q-76 28 -203 28zM209 104q0 436 -2 646h-154q0 39 4 100q90 4 140 4q10 0 10 12q2 246 117 371q141 150 329 149q106 0 172 -30q-1 -25 -25 -69t-44 -56q-84 37 -173 37q-223 0 -218 -414h440
q10 0 10 16q0 166 23 242t88 145q136 142 326 142t321 -45q6 -2 6 -13q0 -389 -8 -1245l160 -4q0 -61 -2 -90h-236l-215 -2q0 61 2 90l133 6q6 0 6 8q2 199 2 646h-450l-2 -654l184 -4q0 -61 -2 -90h-258l-203 -2v88l119 8q8 0 8 8q0 436 -2 646h-450q-5 -235 -5 -654
l189 -4q0 -61 -2 -90h-262l-203 -2v88l119 8q8 0 8 8z" />
    <glyph glyph-name="f_i" unicode="fi" horiz-adv-x="1148" 
d="M209 104q0 436 -2 646h-154q0 39 4 100q90 4 140 4q10 0 10 14q0 160 27 238q28 78 92 145q138 148 333 148q145 0 256 -53q1 -29 -25 -73t-50 -59q-160 66 -254 66t-140 -57t-65 -126q-18 -69 -16 -243l276 2q91 0 205 10t121 11q4 0 4 -7l-4 -774l143 -6q0 -59 -2 -88
h-227l-209 -2q0 61 2 90l133 6q6 0 6 8v644q-106 4 -237 4t-211 -2q0 -327 -3 -654l183 -6q0 -59 -2 -88h-258l-203 -2q-2 31 2 88l117 8q8 0 8 8z" />
    <glyph glyph-name="f_l" unicode="fl" horiz-adv-x="1155" 
d="M611 1288q-124 0 -187 -71q-39 -47 -51 -117t-11 -246l453 2l2 404q-82 28 -206 28zM209 104q0 436 -2 646h-154l2 102q96 0 142 4q10 0 10 14q0 166 22 242q23 76 88 143q135 143 325 143t327 -46q6 -4 6 -13q0 -387 -8 -1243l159 -4q0 -61 -2 -90h-237l-217 -2l2 90
l135 6q6 0 6 8q2 199 2 646h-453l-2 -654l185 -4q0 -61 -2 -90h-258l-203 -2q-2 31 2 88l117 8q8 0 8 8z" />
    <glyph glyph-name="uni021A_h" unicode="&#x21a;h" horiz-adv-x="2078" 
d="M604 -94q43 0 80 -46t37 -104q0 -182 -186 -293q-31 33 -48 60q111 76 111 166q0 66 -82 84q-8 55 18 94t70 39zM504 109v1120q-199 0 -255 -5t-63 -40l-32 -199l-115 10l20 336l189 -2h760q86 2 295 2q0 -266 -7 -571l11 -2q152 82 211 102t124 21q141 0 228 -146
q28 -51 28 -185t-4 -454l136 -4q0 -61 -2 -90h-209l-207 -2v88l121 6q8 4 8 10v373q0 168 -36 224t-124 57q-121 0 -281 -113q-4 -324 -4 -549l158 -6l-2 -88h-238l-200 -2l2 88l119 8q6 0 6 8q2 336 2 1080q0 35 -56 41q-106 4 -419 4l-4 -1127l188 -6l-2 -96l-258 2
l-266 -2q0 35 4 96l166 6q8 0 8 7z" />
    <glyph glyph-name=".notdef" horiz-adv-x="1024" 
d="M102 1241v-1046l349 524zM164 102h696l-348 523zM573 719l349 -524v1046zM512 811l348 522h-696zM0 0v1436h1024v-1436h-1024z" />
    <glyph glyph-name=".null" horiz-adv-x="0" 
 />
    <glyph glyph-name="nonmarkingreturn" horiz-adv-x="681" 
 />
    <glyph glyph-name="space" unicode=" " horiz-adv-x="450" 
 />
    <glyph glyph-name="exclam" unicode="!" horiz-adv-x="559" 
d="M285 193q49 0 77 -34t27 -75q0 -41 -31 -72q-30 -30 -76 -30t-78 30t-32 71q0 42 32 76t81 34zM377 1350v-7q-5 -150 -22 -527q-17 -378 -21 -468q-29 -8 -107 -14q0 20 -22 465q-8 250 -27 514q31 9 105 23t94 14z" />
    <glyph glyph-name="quotedbl" unicode="&#x22;" horiz-adv-x="657" 
d="M553 1430q-16 -283 -21 -459q-47 -14 -98 -15q-23 311 -37 447q80 27 156 27zM268 1430q-16 -283 -20 -459q-47 -14 -98 -15q-23 313 -37 445q75 29 155 29z" />
    <glyph glyph-name="numbersign" unicode="#" horiz-adv-x="1073" 
d="M406 575l225 -2q8 54 45 285h-223q-29 -160 -47 -283zM123 858q0 37 4 94q80 2 238 2q16 104 61 369q37 4 111 4q-6 -37 -30 -169t-36 -204h223l62 369q55 4 110 0q-48 -282 -63 -367l205 2q0 -53 -7 -100h-219q-8 -47 -23 -141t-24 -142h221q2 -43 -4 -96h-233
q-45 -260 -72 -405q-66 -4 -102 -2q36 217 69 405h-227q-30 -194 -70 -405q-47 -4 -102 0q41 229 68 405l-207 -2q0 43 4 100h221q16 94 45 283h-223z" />
    <glyph glyph-name="dollar" unicode="$" horiz-adv-x="1073" 
d="M799 370q0 93 -51 136t-170 82q-4 -299 -9 -428q102 12 166 64t64 146zM293 950q0 -86 49 -125t166 -75q4 293 6 391q-98 -8 -152 -54q-69 -51 -69 -137zM152 922q0 68 38 132t99 105q96 66 229 74l2 209q41 10 105 14q-4 -113 -7 -219q178 2 285 -59q1 -23 -21 -64
t-44 -53q-123 72 -224 80q-4 -293 -8 -416q164 -51 247 -121t83 -190q0 -156 -106 -245t-263 -103l-2 -207q-25 -2 -96 -9l2 211q-91 -4 -197 18t-174 60q25 80 76 115q158 -94 295 -98q4 135 8 454q-162 55 -245 121q-82 66 -82 191z" />
    <glyph glyph-name="percent" unicode="%" horiz-adv-x="1556" 
d="M1171 61q170 0 170 263q0 135 -59 208q-37 48 -109 48t-112 -48q-66 -72 -66 -220t64 -208q47 -43 112 -43zM1185 662q120 0 187 -68q100 -94 100 -263t-90 -261q-92 -92 -211 -90q-119 0 -188 57q-119 88 -119 266t115 283q86 76 206 76zM395 1253q-76 0 -114 -45
q-66 -72 -66 -218t66 -210q49 -45 110 -45t101 35q72 68 72 216t-62 224q-31 43 -107 43zM394 653q-118 0 -189 60q-121 94 -121 270t109 274q82 76 217 78q579 9 735 25q25 -27 45 -62q-13 -23 -746 -1351q-63 27 -88 43q284 506 691 1272l-7 6q-123 -4 -448 -8
q43 -31 73 -98t29 -148q0 -174 -104 -279q-78 -82 -196 -82z" />
    <glyph glyph-name="ampersand" unicode="&#x26;" horiz-adv-x="1458" 
d="M557 84q203 0 361 162q-236 281 -465 432q-88 -43 -155 -124t-67 -201q1 -121 93 -195t233 -74zM541 1249q-87 1 -145 -57t-58 -144t45 -140t141 -117q213 102 213 260q0 88 -54 143t-142 55zM514 -20q-178 0 -291 75q-156 106 -155 281q0 121 75 224q76 103 217 177v8
q-172 125 -172 273t113 242q101 82 247 82t232 -68q100 -82 101 -203q-1 -213 -265 -334l-2 -10q190 -129 398 -377q47 56 85 156t44 178q2 16 -8 16l-119 7q0 63 2 90h213l180 2q4 -45 0 -94l-121 -5q-70 -266 -205 -428q35 -39 129 -153q23 -25 52 -25l155 -4
q0 -59 -2 -90q-172 -8 -289 -10l-145 180q-201 -190 -469 -190z" />
    <glyph glyph-name="quotesingle" unicode="'" horiz-adv-x="370" 
d="M268 1430q-20 -340 -22 -459q-47 -14 -99 -15q-23 313 -36 445q77 29 157 29z" />
    <glyph glyph-name="parenleft" unicode="(" horiz-adv-x="671" 
d="M143 573q0 291 138 531q137 240 323 354q25 -31 49 -72q-145 -110 -254 -322t-108 -484q0 -492 358 -816q-29 -35 -61 -65q-88 71 -154 139q-186 191 -251 424q-40 143 -40 311z" />
    <glyph glyph-name="parenright" unicode=")" horiz-adv-x="671" 
d="M526 586q0 -537 -452 -885q-12 10 -58 68q362 307 363 811q0 274 -106 483q-105 209 -250 326q33 45 49 65q186 -111 320 -345t134 -523z" />
    <glyph glyph-name="asterisk" unicode="*" horiz-adv-x="731" 
d="M315 1432l50 2l47 -2q-2 -43 -5 -129t-6 -129q94 68 217 151l48 -80q-199 -119 -230 -137q199 -119 230 -137q-31 -53 -54 -78q-139 102 -211 151q4 -86 9 -262q-45 -4 -95 0q8 178 11 262q-41 -31 -211 -151q-29 39 -52 80q29 16 109 63t123 72q-156 90 -232 135
q14 27 48 80q117 -78 217 -149z" />
    <glyph glyph-name="plus" unicode="+" horiz-adv-x="1073" 
d="M479 426h-348q0 74 2 109q225 0 346 2v381q59 6 117 6l-2 -385q242 0 352 2q4 -54 -4 -115h-348q-2 -143 -2 -401q-51 -6 -113 -7v408z" />
    <glyph glyph-name="comma" unicode="," horiz-adv-x="501" 
d="M231 205q53 0 99 -52t45 -139q0 -86 -65 -174t-165 -145q-33 35 -59 72q139 86 139 190q0 68 -102 96q-8 63 23 108q32 44 85 44z" />
    <glyph glyph-name="hyphen" unicode="-" horiz-adv-x="645" 
d="M308 545q168 0 272 4q0 -43 -5 -113h-509q0 74 2 107q72 2 240 2z" />
    <glyph glyph-name="period" unicode="." horiz-adv-x="501" 
d="M256 209q55 0 82 -36t27 -80t-30 -78q-30 -33 -80 -33t-83 32t-33 77q0 46 31 82t86 36z" />
    <glyph glyph-name="slash" unicode="/" horiz-adv-x="802" 
d="M784 1393l-661 -1506q-66 16 -100 29l649 1509q49 -8 112 -32z" />
    <glyph glyph-name="zero" unicode="0" horiz-adv-x="1073" 
d="M260 629q0 -557 279 -557q94 0 159 78q117 138 117 504t-94 499q-67 94 -171 94q-104 -1 -164 -73q-126 -152 -126 -545zM981 678q0 -401 -184 -592q-103 -106 -267 -106t-268 100q-168 168 -168 538q0 422 191 613q115 111 277 111t265 -111q68 -74 111 -216t43 -337z
" />
    <glyph glyph-name="one" unicode="1" horiz-adv-x="1073" 
d="M640 1346q5 0 5 -10t-6 -1238l319 -6q0 -61 -2 -90h-399l-418 -2q0 63 2 92l334 6q8 0 8 11q2 342 2 1032l-354 -99l-10 40q-8 32 -10 48q172 64 348 140t181 76z" />
    <glyph glyph-name="two" unicode="2" horiz-adv-x="1073" 
d="M500 1341q198 0 307 -86q127 -106 127 -288q0 -274 -375 -625q-82 -82 -242 -217l2 -8q369 0 639 6h7q0 -47 -9 -125l-546 2h-293q-14 37 -29 84q231 190 358 315q317 307 318 549q0 141 -74 217q-68 74 -199 74t-204 -63q-8 -8 -11 -25l-43 -199l-108 13q4 39 12 139
t13 153q152 84 350 84z" />
    <glyph glyph-name="three" unicode="3" horiz-adv-x="1073" 
d="M918 1044q0 -122 -79 -208t-200 -121v-13q151 -24 233 -112t82 -207q0 -178 -161 -303q-133 -100 -394 -100q-168 0 -268 30q-23 129 -43 287q57 14 109 22l51 -186q2 -8 16 -22q63 -29 170 -29q162 0 254 74q96 82 96 208t-97 198t-243 71h-143q-4 68 -2 104
q219 -4 336 75q117 80 117 194t-65 174t-194 61q-129 0 -204 -51q-11 -11 -13 -23l-36 -194l-109 12q14 201 21 281q152 76 349 76q292 -1 385 -178q32 -60 32 -120z" />
    <glyph glyph-name="four" unicode="4" horiz-adv-x="1073" 
d="M653 1137h-10q-35 -49 -109 -157t-118 -168t-226 -335q-8 -14 5 -14q100 -2 454 -2zM797 461q172 0 223 2q0 -74 -4 -109h-219q-2 -86 -2 -260l159 -4q2 -29 -2 -88h-239l-285 -2q0 59 2 88l211 6q10 0 10 8v250q-63 -2 -559 -2q-33 63 -51 119q93 135 315 441t312 419
q92 0 135 -4q-6 -486 -6 -864z" />
    <glyph glyph-name="five" unicode="5" horiz-adv-x="1073" 
d="M946 451q0 -231 -168 -359q-152 -113 -397 -112q-141 0 -242 26q-29 166 -45 283q29 8 109 22l49 -184q4 -12 18 -23q55 -25 140 -24q172 0 274 86t102 240t-102 238q-102 85 -297 85q-104 0 -209 -18l-14 16q16 152 74 594h335q238 0 351 2q0 -61 -11 -127
q-184 2 -561 2q-6 -39 -25 -165t-30 -191q78 10 170 10q235 0 357 -118t122 -283z" />
    <glyph glyph-name="six" unicode="6" horiz-adv-x="1073" 
d="M552 72q118 0 192 82q75 82 75 235q0 154 -78 236q-66 74 -178 73q-76 0 -160 -45t-133 -127q-4 -233 95 -358q69 -96 187 -96zM595 811q169 0 259 -90q53 -51 89 -131t36 -168q0 -223 -168 -359q-104 -83 -273 -83t-276 106q-160 160 -160 469q0 381 179 600
q152 186 405 186q121 0 193 -30q18 -123 30 -264l-43 -9q-43 -8 -65 -12l-39 172q-4 16 -10 21q-41 23 -116 23q-74 0 -142 -43q-198 -123 -234 -531h10q156 143 325 143z" />
    <glyph glyph-name="seven" unicode="7" horiz-adv-x="1073" 
d="M375 -4q0 152 41 262q90 248 444 926l-6 10q-494 4 -541 0t-61 -47l-43 -160q-61 6 -109 19q24 159 50 315l178 -2h651q23 -47 41 -115q-150 -250 -272 -513t-179 -445q-29 -88 -32 -244q-63 -6 -162 -6z" />
    <glyph glyph-name="eight" unicode="8" horiz-adv-x="1073" 
d="M838 331q0 127 -81 193t-284 129q-104 -45 -170 -128q-65 -83 -65 -197t82 -184t209 -70q128 0 210 57q99 74 99 200zM301 1021q-1 -99 63 -157t230 -112q199 98 199 272q0 98 -62 161q-63 63 -175 63t-183 -62q-72 -66 -72 -165zM78 326q0 233 287 370v11
q-215 102 -215 297q0 74 38 140t91 107q119 90 293 90t272 -86t98 -211q0 -210 -233 -331v-8q141 -51 214 -141t72 -202q0 -188 -161 -299q-122 -83 -312 -83t-309 79q-135 94 -135 267z" />
    <glyph glyph-name="nine" unicode="9" horiz-adv-x="1073" 
d="M530 1249q-112 0 -182 -71q-88 -86 -88 -240t70 -238q70 -76 188 -75q80 0 158 41t129 110q2 115 -25 218t-63 157q-75 98 -187 98zM487 520q-165 0 -277 104t-112 275q0 215 164 350q115 92 285 92t274 -110q152 -166 152 -486q0 -383 -172 -589q-145 -176 -406 -176
q-106 0 -200 20q-33 172 -48 258q57 16 107 23l49 -164q8 -14 19 -23q42 -20 120 -20t147 40t107 97q109 164 117 436h-10q-152 -127 -316 -127z" />
    <glyph glyph-name="colon" unicode=":" horiz-adv-x="501" 
d="M256 209q55 0 82 -37t27 -80t-31 -77q-31 -33 -81 -33t-82 32t-32 77q0 46 31 82t86 36zM257 856q54 0 82 -36t28 -80t-31 -78t-81 -33q-50 -1 -83 31t-33 78t32 82t86 36z" />
    <glyph glyph-name="semicolon" unicode=";" horiz-adv-x="501" 
d="M231 203q53 0 99 -52t45 -139q0 -86 -65 -174t-165 -145q-25 27 -59 69q139 88 139 191q0 70 -102 98q-8 63 23 108q32 44 85 44zM257 856q54 0 81 -36t27 -80t-31 -78t-81 -33q-50 -1 -82 31t-32 78t32 82t86 36z" />
    <glyph glyph-name="less" unicode="&#x3c;" horiz-adv-x="1073" 
d="M354 487q100 -86 477 -397q-31 -49 -63 -84q-102 80 -286 222t-269 208q-2 31 -2 96q250 184 559 412q37 -41 61 -86q-348 -269 -477 -371z" />
    <glyph glyph-name="equal" unicode="=" horiz-adv-x="1073" 
d="M948 385q0 -35 -4 -109q-43 0 -817 -6q0 66 6 115h815zM129 580q0 39 4 108q41 0 815 6q4 -53 -4 -114h-815z" />
    <glyph glyph-name="greater" unicode="&#x3e;" horiz-adv-x="1073" 
d="M680 481q-260 213 -479 387q29 49 61 84q233 -174 559 -420v-96q-508 -385 -559 -422q-25 29 -63 84q239 186 481 383z" />
    <glyph glyph-name="question" unicode="?" horiz-adv-x="872" 
d="M291 81q1 41 31 75t79 34t79 -34t30 -74q0 -39 -32 -70q-32 -30 -77 -30t-77 28t-33 71zM416 1352q184 0 278 -96t94 -220q0 -125 -78 -228t-239 -214q-55 -41 -55 -79t41 -157q-41 -23 -105 -34q-30 36 -62 120t-32 136q196 137 274 228q78 90 78 202t-58 174t-156 61
q-98 0 -154 -43q-6 -6 -13 -24l-36 -177q-78 8 -115 15q19 226 24 270q130 66 314 66z" />
    <glyph glyph-name="at" unicode="@" horiz-adv-x="1275" 
d="M475 344q0 -45 44 -45t127 67t106 117q10 31 36 138q-41 57 -124 57q-100 0 -160 -171q-28 -81 -29 -163zM848 281q82 0 143 61q94 90 94 245t-102 267t-300 111q-198 0 -343 -159t-145 -407q-1 -205 117 -307t272 -102t262 71q25 -31 35 -65q-129 -80 -321 -80t-330 125
t-138 352q0 285 182 464t439 179q207 0 339 -122t132 -316t-131 -309q-109 -88 -279 -88q-12 0 -34 11t-31 26q4 37 22 102l-12 4q-145 -141 -246 -141q-25 1 -67 25t-52 44t-10 72q0 54 32 153t107 181t169 82t155 -58h8l35 60q23 -2 92 -21q-39 -143 -111 -446
q-1 -6 5 -10t12 -4z" />
    <glyph glyph-name="A" unicode="A" horiz-adv-x="1241" 
d="M391 512h430q-51 153 -209 610h-8q-38 -98 -112 -305t-105 -293q-6 -12 4 -12zM152 2l-181 -2q0 63 2 94l115 6q8 4 10 11q70 178 473 1239q25 2 113 2q213 -572 449 -1250l124 -6q0 -66 -2 -94h-192l-270 -2l2 94l159 6q8 0 4 11q-82 238 -104 295q-2 10 -14 10l-490 -2
q-88 -250 -108 -312l184 -6q0 -63 -2 -94h-272z" />
    <glyph glyph-name="B" unicode="B" horiz-adv-x="1175" 
d="M535 645q-109 0 -123 -4l-2 -473q-2 -45 34 -60q36 -16 158 -16q121 0 222 69t102 208q0 111 -94 193t-297 83zM510 737q141 0 242 72q100 73 100 185t-81 180t-239 67q-69 0 -118 -6l-2 -494q25 -4 98 -4zM96 0q0 63 2 94l144 4q10 0 10 11v1122l-154 6l2 92
q180 4 406 4t346 -53q70 -36 115 -104t45 -162t-69 -174q-69 -82 -175 -119v-12q139 -17 233 -109t95 -215q0 -172 -140 -280t-370 -107l-250 2h-240z" />
    <glyph glyph-name="C" unicode="C" horiz-adv-x="1198" 
d="M102 592q0 385 271 604q188 156 465 156q166 0 260 -43q8 -109 20 -346q-29 -4 -117 -15l-32 221q-2 23 -17 31q-57 37 -170 37q-195 0 -323 -131q-182 -186 -183 -467q0 -137 28 -229q59 -195 247 -274q92 -38 194 -38q170 0 363 86q18 -61 25 -104q-244 -100 -416 -100
q-400 0 -555 330q-60 128 -60 282z" />
    <glyph glyph-name="D" unicode="D" horiz-adv-x="1415" 
d="M1141 666q0 148 -43 254t-142 194q-147 127 -415 127q-98 0 -125 -8l-4 -1067q0 -43 28 -58t129 -16q266 0 410 131q74 67 118 181t44 262zM252 106v1123l-152 6q0 66 2 94q222 4 410 4q188 1 303 -25t229 -92t191 -204q78 -139 78 -312t-66 -325q-163 -375 -667 -375
h-244l-238 -2l2 94l144 6q8 0 8 8z" />
    <glyph glyph-name="E" unicode="E" horiz-adv-x="1136" 
d="M252 106v1125l-150 4q0 66 2 96l236 -2l453 2h178q18 -285 18 -309q-32 -6 -108 -14l-33 178q-6 33 -47 37q-133 10 -326 10l-59 -2l-2 -504q207 0 319 4q27 2 36 11t13 30l11 98q72 0 104 -2q-4 -123 -4 -194v-189q-68 -4 -107 -2l-6 107q-2 39 -49 39q-94 2 -317 2
l-2 -492q0 -27 17 -34t185 -7t230 15q25 6 37 41l65 186l107 -21q-29 -131 -72 -321l-637 2l-242 -2q0 65 2 96l142 6q6 0 6 6z" />
    <glyph glyph-name="F" unicode="F" horiz-adv-x="1087" 
d="M252 111v1120l-150 4q0 66 2 96l234 -2l455 2l182 2q16 -215 20 -327q-16 -2 -108 -13l-39 195q-6 33 -45 35q-92 10 -344 10l-43 -2l-2 -533q121 0 321 4q47 0 49 39l15 103h104q-4 -135 -4 -207l-2 -186q-33 -2 -104 -2l-9 110q-2 37 -53 37q-123 2 -317 6l-2 -500
l239 -6q0 -63 -2 -96l-305 2l-242 -2l2 94l140 6q8 4 8 11z" />
    <glyph glyph-name="G" unicode="G" horiz-adv-x="1361" 
d="M797 1243q-201 0 -336 -129q-178 -174 -178 -457t145 -431t383 -148q103 0 146 19t42 30v348l-219 4q0 68 2 99h494q0 -68 -2 -99l-105 -4q-8 0 -8 -8l-4 -420q-115 -68 -364 -67q-295 0 -465 139q-225 193 -226 514q0 186 80 339t217 251q182 129 445 129q193 0 309 -56
q12 -219 14 -340l-114 -12l-29 205q-4 29 -16 39q-72 55 -211 55z" />
    <glyph glyph-name="H" unicode="H" horiz-adv-x="1497" 
d="M252 111v1120l-146 6q0 63 3 94l233 -2l250 2q0 -66 -2 -96l-168 -4q-6 0 -6 -8v-471q0 -8 8 -9h659v488l-174 4q0 66 2 94h256l219 2q2 -35 -2 -94l-131 -6q-4 0 -4 -8l-6 -1121l152 -6q0 -63 -2 -96l-234 2l-248 -2l2 96l162 6q8 0 8 9v524q0 8 -8 8l-661 -4l-2 -537
l182 -6q0 -66 -2 -96l-254 2l-229 -2q0 63 2 96l133 6q8 0 8 9z" />
    <glyph glyph-name="I" unicode="I" horiz-adv-x="663" 
d="M252 111v1120l-162 6l2 94l254 -2l240 2l-2 -94l-162 -6q-6 0 -6 -8l-4 -1121l174 -6q0 -66 -2 -96l-244 2l-246 -2q0 63 2 96l148 6q8 0 8 9z" />
    <glyph glyph-name="J" unicode="J" horiz-adv-x="1009" 
d="M795 1227v-713q0 -141 -23 -228t-80 -165q-121 -162 -379 -162q-123 0 -229 25q-4 43 -33 315q45 10 107 18l41 -202q11 -51 160 -50t219 113q37 59 46 129q9 71 9 259t-4 667l-256 6q0 63 2 92l348 -2l225 2q0 -61 -2 -92l-145 -6q-6 0 -6 -6z" />
    <glyph glyph-name="K" unicode="K" horiz-adv-x="1292" 
d="M539 633q-96 0 -125 -4l-2 -527l166 -6q2 -33 -3 -96l-237 2l-232 -2v96l138 6q8 0 8 7v1120l-146 6q0 66 3 96l237 -2l223 2q0 -66 -2 -96l-143 -4q-6 -2 -6 -12l-4 -492q84 0 141 14q135 129 403 480q6 6 -4 6l-137 8q0 63 2 94h266l162 2q0 -66 -2 -96l-108 -6
q-197 -227 -451 -506v-10q115 -86 240 -283t180 -276q33 -47 68 -48l147 -8q0 -33 -4 -94q-50 -4 -164 -4l-137 -2q-18 20 -221 344q-178 291 -256 291z" />
    <glyph glyph-name="L" unicode="L" horiz-adv-x="1071" 
d="M252 109v1120l-150 6q-2 31 2 94h500q0 -35 -4 -96l-178 -4q-4 0 -4 -8l-6 -1082q0 -29 13 -36t174 -7t226 13q25 6 37 43l74 215q29 -4 108 -25q-23 -111 -79 -344l-623 2l-242 -2q0 35 4 96l140 6q8 0 8 9z" />
    <glyph glyph-name="M" unicode="M" horiz-adv-x="1779" 
d="M1532 1219q0 -399 4 -1117l143 -6q0 -66 -2 -96l-221 2l-235 -2l2 94l157 6q8 2 9 11q0 51 -7 1028h-12q-231 -612 -446 -1076q-18 -2 -93 -2q-242 545 -444 1086h-12q-12 -946 -13 -1045l183 -6q0 -35 -4 -96l-252 2l-193 -2l2 94l135 8q8 0 9 9q8 688 8 1118l-144 4
q0 68 3 96h360l426 -1069h10l428 1069l340 2q0 -66 -2 -96l-133 -6q-6 0 -6 -10z" />
    <glyph glyph-name="N" unicode="N" horiz-adv-x="1466" 
d="M360 1090q0 -659 -2 -990l205 -4l-2 -94h-270l-195 -2q0 65 2 94l131 6q8 0 9 9v1124l-150 4q-2 33 2 96l295 -2q381 -565 733 -1106l10 2q-4 672 -8 1006l-192 2l2 96h254l196 2v-94l-125 -6q-6 0 -6 -8l-6 -1217q-49 -23 -108 -22q-338 465 -762 1104h-13z" />
    <glyph glyph-name="O" unicode="O" horiz-adv-x="1470" 
d="M742 82q192 0 302 127q148 174 148 463t-145 452q-117 125 -293 125t-295 -106q-180 -164 -180 -469t151 -465q120 -127 312 -127zM718 -20q-265 0 -433 172q-182 182 -183 503q0 188 81 343t204 239q170 115 378 115q380 0 534 -327q69 -144 69 -318q0 -350 -213 -562
q-172 -165 -437 -165z" />
    <glyph glyph-name="P" unicode="P" horiz-adv-x="1120" 
d="M520 1239q-75 0 -104 -8l-4 -596q16 -19 132 -19t195 54q139 82 139 246t-96 244t-262 79zM332 2q-152 0 -221 -2q0 66 2 94l131 8q8 0 8 9v1120l-141 4q0 63 2 94q189 4 369 4t300 -35t192 -131q70 -96 70 -219t-72 -228q-72 -104 -188 -154q-114 -50 -286 -50l-86 2
l-2 -416l229 -6q0 -63 -2 -94h-305z" />
    <glyph glyph-name="Q" unicode="Q" horiz-adv-x="1470" 
d="M279 662q0 -301 155 -457q123 -123 310 -123t300 129q150 170 150 440q0 326 -156 482q-118 117 -290 117q-295 -1 -419 -307q-50 -123 -50 -281zM102 649q0 195 82 351t217 247q161 105 359 105t332 -84t206 -237t72 -329t-58 -320t-157 -237q-98 -98 -223 -137v-10
q156 -100 303 -164q65 -29 149 -29t179 29q8 -43 12 -98q-171 -60 -259 -60t-169 43q-162 86 -379 263q-12 -2 -45 -2q-269 0 -445 177t-176 492z" />
    <glyph glyph-name="R" unicode="R" horiz-adv-x="1228" 
d="M520 664q176 0 263 88t87 214t-91 199q-91 74 -247 74q-96 0 -116 -10l-4 -561q12 -4 108 -4zM252 109v1122l-141 4q0 63 2 94q229 4 396 4q167 -1 275 -31t182 -116t72 -204q0 -118 -76 -213t-202 -144v-11q35 -13 55 -34q21 -21 31 -32t25 -36t25 -38q24 -32 88 -164
q65 -132 94 -169q28 -37 46 -37l127 -6q0 -31 -4 -96h-135q-37 -2 -133 -2q-39 50 -136 242t-129 239t-72 67t-126 21q-86 0 -106 -4v-463l172 -6q0 -63 -2 -96l-246 2l-223 -2q0 63 2 96l129 6q10 0 10 7z" />
    <glyph glyph-name="S" unicode="S" horiz-adv-x="1007" 
d="M556 1247q-114 -1 -188 -65t-73 -165q0 -101 53 -147t224 -123t249 -157t78 -211q0 -178 -123 -289t-364 -110q-182 0 -301 49l-27 323q74 13 117 17l37 -215q4 -16 16 -23q70 -47 209 -47t210 74t71 180t-54 155q-53 50 -220 125t-249 157q-82 83 -82 208q0 82 38 155
q111 213 429 214q166 0 250 -45q16 -160 23 -303q-91 -13 -113 -15l-35 193q-6 18 -12 24q-49 41 -163 41z" />
    <glyph glyph-name="T" unicode="T" horiz-adv-x="1161" 
d="M504 109v1120q-207 0 -266 -8q-45 -2 -52 -39l-32 -197q-45 2 -115 10l20 336l189 -2h692q84 2 176 2q8 -104 17 -334q-33 -4 -115 -12l-31 199q-6 35 -51 39q-80 6 -268 6l-4 -1127l188 -6l-2 -96l-258 2l-264 -2q0 65 2 96l166 6q8 0 8 7z" />
    <glyph glyph-name="U" unicode="U" horiz-adv-x="1370" 
d="M695 90q153 0 249 99t96 356q0 467 -2 676q0 8 -8 8l-170 4q0 66 2 96h451q0 -61 -2 -94l-131 -6l-4 -686q-2 -287 -144 -437q-123 -126 -344 -126t-342 118q-82 78 -108 182t-27 259v680q0 12 -10 12l-125 4q0 66 2 94h221l262 2q0 -66 -2 -96l-180 -6l-4 -674
q-2 -143 18 -221t66 -135q82 -109 236 -109z" />
    <glyph glyph-name="V" unicode="V" horiz-adv-x="1277" 
d="M1292 1331q0 -63 -2 -94l-114 -8q-41 -103 -222 -570q-182 -468 -272 -677l-115 -2q-227 592 -440 1243q-4 8 -12 8l-119 6l2 94h518l-2 -96l-201 -6q57 -211 144 -467q164 -504 188 -572h10q76 190 202 544t163 485q0 10 -6 10l-180 6q0 66 2 96h456z" />
    <glyph glyph-name="W" unicode="W" horiz-adv-x="1802" 
d="M522 1331q0 -63 -2 -94l-196 -6q36 -242 194 -1020h12q47 139 175 525q127 386 178 538q16 2 110 2l305 -1073h13q201 822 235 1018q0 10 -8 10l-178 4q0 66 2 94l264 2h189q-1 -63 -3 -94l-112 -6q-109 -398 -183 -676q-75 -278 -171 -575q-23 -2 -119 -3
q-158 475 -305 1012h-13q-156 -475 -358 -1009q-23 -2 -115 -3q-121 450 -200 817q-78 367 -93 431q0 6 -10 6l-119 6q0 63 2 94h506z" />
    <glyph glyph-name="X" unicode="X" horiz-adv-x="1206" 
d="M168 2l-193 -2q0 63 2 94l117 6q6 0 15 9q59 80 196 269t211 288v14q-217 324 -358 545q-12 6 -17 6l-123 6q0 63 2 92h216l290 2q0 -63 -2 -94l-180 -6q145 -256 279 -447h12q41 57 140 216t130 221q6 10 -4 10l-164 6q0 63 2 92h258l191 2q0 -63 -2 -94l-117 -6
q-236 -342 -373 -531v-12q92 -129 400 -588l129 -6q0 -61 -2 -92h-215l-281 -2q0 66 2 94l160 8q12 0 6 11q-174 289 -303 467h-12q-90 -125 -316 -478l170 -6q0 -66 -2 -94h-264z" />
    <glyph glyph-name="Y" unicode="Y" horiz-adv-x="1150" 
d="M-10 1333l200 -2l289 2q0 -66 -2 -96l-184 -6q113 -223 311 -598h10q205 371 304 590q4 8 -7 8l-166 6q0 63 3 94h253l177 2q0 -63 -2 -94l-105 -8q-63 -109 -205 -357t-204 -356l-3 -416l189 -6q0 -35 -4 -96l-258 2l-260 -2q0 63 2 96l161 4q10 2 11 13v401
q-41 72 -396 711q-6 6 -10 8l-106 4q0 66 2 96z" />
    <glyph glyph-name="Z" unicode="Z" horiz-adv-x="1193" 
d="M264 109h350q170 0 213 7q42 7 62 11q41 10 55 55l68 209q51 -6 116 -20q-57 -258 -86 -373l-349 2h-597q-18 37 -37 88q174 222 838 1124l-4 11l-346 2q-150 0 -207 -6q-33 -10 -45 -52l-66 -215q-66 8 -112 19l63 362q45 0 189 -4h688q27 -59 37 -108
q-574 -778 -832 -1106z" />
    <glyph glyph-name="bracketleft" unicode="[" horiz-adv-x="661" 
d="M221 1436q131 0 381 4q0 -57 -2 -86l-229 -6q-12 0 -13 -17l-6 -1501l250 -6q0 -61 -2 -90q-141 0 -379 4v1698z" />
    <glyph glyph-name="backslash" unicode="\" horiz-adv-x="802" 
d="M674 -106q-125 293 -352 813q-129 305 -302 696q12 12 111 49q309 -732 446 -1052q138 -320 197 -459q-55 -31 -100 -47z" />
    <glyph glyph-name="bracketright" unicode="]" horiz-adv-x="661" 
d="M307 1331q0 16 -14 17l-227 6q-2 29 -3 88l381 -4l-6 -1700q-131 0 -377 -4q-2 29 -2 90l248 6v1501z" />
    <glyph glyph-name="asciicircum" unicode="^" horiz-adv-x="1073" 
d="M590 1294q192 -289 377 -559q-37 -35 -86 -65q-70 95 -338 467q-154 -219 -330 -467q-51 37 -88 65q43 63 176 263q134 200 197 294q29 2 92 2z" />
    <glyph glyph-name="underscore" unicode="_" horiz-adv-x="1024" 
d="M0 -150h1024v-110h-1024v110z" />
    <glyph glyph-name="grave" unicode="`" horiz-adv-x="681" 
d="M457 973l-301 248q37 43 88 90l272 -275q-31 -39 -59 -63z" />
    <glyph glyph-name="a" unicode="a" horiz-adv-x="929" 
d="M225 197q0 -47 39 -78t98 -31q109 0 228 82q6 4 6 18v174q-20 4 -132 4t-176 -46q-64 -47 -63 -123zM310 -20q-100 0 -176 59q-75 59 -75 150q-1 91 105 179t295 87h139q6 161 -34 233t-148 72t-234 -137q-43 43 -69 77q176 180 364 181q121 0 198 -84t77 -248
q0 -258 -4 -430q0 -31 18 -31l137 4v-86q-92 -27 -235 -26q-19 16 -68 92h-10q-180 -92 -280 -92z" />
    <glyph glyph-name="b" unicode="b" horiz-adv-x="1042" 
d="M793 412q0 348 -231 348q-120 0 -253 -96l-2 -482q0 -38 65 -72t142 -34q111 0 184 76q95 98 95 260zM520 -20q-135 0 -239 63l-48 -70q-43 4 -94 17q12 156 15 239v1063l-150 6q0 59 2 86q37 4 146 24t155 28q6 0 6 -6l-6 -648l8 -4q137 68 195 85t123 18
q137 0 232 -118t95 -264t-52 -267q-52 -120 -152 -186t-236 -66z" />
    <glyph glyph-name="c" unicode="c" horiz-adv-x="825" 
d="M82 396q0 202 139 343t357 142q123 0 188 -43q0 -23 -24 -69t-42 -56l-32 14q-87 35 -152 35q-111 0 -176 -76q-92 -104 -92 -267t68 -246t178 -83t266 62q12 -39 22 -89q-168 -83 -326 -83t-266 106q-108 108 -108 310z" />
    <glyph glyph-name="d" unicode="d" horiz-adv-x="1067" 
d="M731 199q0 367 -2 522q-96 53 -214 53q-119 0 -191 -98t-72 -257t64 -245t176 -86t227 80q12 11 12 31zM451 -20q-150 0 -250 100q-119 116 -119 316t137 354q115 131 305 131q94 0 203 -41l8 6q0 294 -4 446l-170 4q0 59 2 88q101 14 208 33q107 18 116 19q6 0 6 -9
l-6 -1290q0 -43 22 -43l140 6v-86q-29 -10 -106 -22t-134 -12q-32 26 -61 92h-13q-119 -60 -172 -76t-112 -16z" />
    <glyph glyph-name="e" unicode="e" horiz-adv-x="911" 
d="M682 551q0 105 -52 169t-142 64t-146 -61q-80 -98 -86 -201q223 0 399 6q27 0 27 23zM526 92q109 0 273 66q16 -43 22 -92q-176 -86 -325 -86q-195 0 -305 114q-109 116 -109 310t121 335t315 142q158 1 239 -101t81 -272q-8 -20 -32 -46t-38 -28q-182 -6 -520 -6
q-8 -336 278 -336z" />
    <glyph glyph-name="f" unicode="f" horiz-adv-x="684" 
d="M207 104v646h-154q0 70 2 100q94 4 142 4q10 0 10 14q0 160 23 238q24 78 85 147q135 145 312 146q72 0 133 -25q0 -28 -23 -72t-43 -61q-82 31 -154 31t-112 -60q-39 -50 -51 -118t-10 -240q201 0 295 2q0 -43 -5 -108h-292q-1 -443 -3 -652l201 -4q0 -61 -2 -90h-276
l-205 -2l2 88l119 8q6 0 6 8z" />
    <glyph glyph-name="g" unicode="g" horiz-adv-x="954" 
d="M791 -203q-1 67 -47 91t-142 31t-254 15q-116 -100 -138 -134t-22 -66q0 -72 78 -109t198 -37t214 47q113 62 113 162zM655 554q0 116 -48 177t-143 61q-94 0 -152 -64q-58 -66 -58 -187t55 -179t143 -57q88 0 146 67q57 66 57 182zM743 766v-8q72 -68 72 -200t-92 -226
q-117 -123 -338 -113q-100 -80 -100 -106q0 -37 52 -49q51 -12 249 -21q198 -8 256 -46t81 -73q21 -36 21 -108t-54 -145t-172 -123t-301 -50t-285 60t-103 176q0 55 42 89t95 73t78 59v10q-121 37 -121 141q0 12 22 31q23 19 138 99v10q-190 90 -191 291q0 141 108 242
t285 102q86 1 122 -11t63 -12l268 12q4 -51 0 -104h-195z" />
    <glyph glyph-name="h" unicode="h" horiz-adv-x="1116" 
d="M936 550q0 -134 -4 -454l135 -4q0 -61 -2 -90h-209l-207 -2v88l121 8q8 0 8 8v373q0 168 -30 215q-39 66 -145 66t-265 -113q-4 -324 -4 -549l158 -4l-3 -90h-235l-199 -2q0 61 2 90l117 6q6 0 6 8q2 358 2 1194l-155 2q-2 33 2 86q38 5 169 27t138 23q6 0 6 -9l-6 -667
l8 -2q152 82 211 102t125 21q141 0 227 -146q29 -51 29 -185z" />
    <glyph glyph-name="i" unicode="i" horiz-adv-x="544" 
d="M209 104v635l-158 4v86l311 52q4 0 5 -7q0 -238 -5 -778l144 -6q0 -59 -2 -88h-228l-213 -2v90l138 6q8 0 8 8zM162 1186q0 44 31 76t84 32t79 -32t25 -77q0 -44 -31 -76t-78 -32q-46 0 -78 32t-32 77z" />
    <glyph glyph-name="j" unicode="j" horiz-adv-x="499" 
d="M354 874l-2 -702q0 -137 -17 -224t-65 -177q-80 -170 -215 -246q-27 2 -69 34t-47 58q145 68 194 156q66 117 66 358l-4 604l-166 2q0 59 2 88q33 4 153 26t166 30q4 0 4 -7zM250 1294q53 0 79 -34q25 -34 25 -77q0 -44 -30 -76t-76 -32q-47 0 -79 33t-32 76q0 42 30 76
t83 34z" />
    <glyph glyph-name="k" unicode="k" horiz-adv-x="1021" 
d="M342 1396q0 -40 -6 -876q94 0 129 6q123 115 219 226q2 8 -4 10l-96 4q0 66 2 92h205l165 2q4 -45 0 -92l-96 -6q-174 -168 -276 -260v-10q80 -66 166 -205t109 -163t42 -26l123 -4q0 -61 -2 -92q-76 -2 -272 -2q-48 63 -142 229t-166 201q-57 0 -106 -4l-2 -330l129 -6
q0 -59 -2 -88h-209l-207 -2q0 61 2 90l127 6q4 0 4 8q2 358 2 1192l-155 2q0 59 2 86q33 4 152 25t157 27q6 0 6 -40z" />
    <glyph glyph-name="l" unicode="l" horiz-adv-x="524" 
d="M346 1427q0 -435 -8 -1331l160 -6q0 -59 -2 -88h-238l-221 -2q0 61 2 90l137 6q6 0 6 8q4 778 2 1192l-164 4l3 89q88 9 199 28q111 18 118 19q6 0 6 -9z" />
    <glyph glyph-name="m" unicode="m" horiz-adv-x="1662" 
d="M207 104v633l-156 6q0 57 2 84q35 4 150 27t127 24q12 0 13 -10t7 -48t8 -58l9 -2q135 80 191 100t116 21q129 0 219 -138h6q139 88 199 112t129 24q129 0 215 -134q45 -74 45 -155l-6 -494l131 -4l-2 -90h-213l-193 -2q0 61 2 88l115 8q6 0 6 8q2 135 2 406
q0 121 -22 168q-39 80 -139 80t-244 -107l-2 -555l139 -6q0 -59 -2 -88h-228l-186 -2q0 61 2 90l115 6q8 0 8 8v420q0 125 -25 168q-39 70 -129 70q-50 0 -120 -31t-129 -78q-6 -262 -7 -557l146 -6q0 -59 -2 -88h-225l-201 -2q0 61 2 90l121 6q6 0 6 8z" />
    <glyph glyph-name="n" unicode="n" horiz-adv-x="1142" 
d="M707 881q139 0 217 -140q41 -66 41 -149q0 -35 -7 -496l132 -6q0 -59 -3 -88l-411 -4q0 61 2 90l119 6q6 4 6 8q2 111 2 321t-27 257q-43 78 -139 78q-55 0 -132 -35t-140 -86q-4 -307 -5 -541l148 -6l-2 -90l-232 2l-198 -2q0 59 2 90l121 6q8 0 8 6l-2 635l-158 4l2 84
q37 6 157 30q119 23 126 24q4 0 9 -33t17 -94l11 -2q143 86 203 108t133 23z" />
    <glyph glyph-name="o" unicode="o" horiz-adv-x="1034" 
d="M517 70q103 0 169 67q92 101 92 293t-76 276t-180 85q-104 0 -172 -70q-94 -96 -94 -292t96 -292q62 -67 165 -67zM496 -20q-170 0 -277 96q-135 125 -135 347t172 365q117 92 276 92t259 -75q159 -121 159 -361t-176 -378q-108 -86 -278 -86z" />
    <glyph glyph-name="p" unicode="p" horiz-adv-x="1069" 
d="M541 78q109 0 178 72q98 97 98 290q0 125 -43 211q-59 107 -180 107t-258 -96l-2 -480q0 -36 66 -70t141 -34zM518 -461q-347 0 -471 -4q0 59 2 88l119 8q8 0 8 11v1095l-156 2q0 57 3 84q33 7 101 21q171 36 180 36q9 1 22 -110l10 -2q150 76 202 94t117 19
q147 0 239 -123q92 -122 92 -266q-1 -144 -50 -254q-118 -258 -377 -258q-127 0 -221 47l-8 -4v-392l190 -4q0 -59 -2 -88z" />
    <glyph glyph-name="q" unicode="q" horiz-adv-x="1038" 
d="M518 774q-121 0 -190 -98q-74 -94 -74 -256t69 -246t170 -84t228 84q10 6 10 31v514q-92 55 -213 55zM461 -18q-156 0 -256 100q-121 118 -121 316t133 347q115 133 315 134q96 0 224 -45l55 57q51 -4 88 -14q-8 -98 -8 -199t-3 -494t-1 -551l129 -2q0 -61 -2 -90
l-209 -2l-258 -6q0 59 2 88l176 12q8 0 8 13l2 424h-14q-109 -56 -157 -72t-103 -16z" />
    <glyph glyph-name="r" unicode="r" horiz-adv-x="768" 
d="M207 100v639l-150 2q0 57 2 86q245 42 285 52q5 0 10 -279l11 -2q84 164 145 223t130 59t122 -22q0 -33 -20 -84t-37 -65q-6 0 -40 7t-65 7t-70 -29q-63 -57 -133 -192q-35 -63 -36 -161t-1 -247l193 -4q0 -59 -2 -88h-260l-213 -2q0 61 2 88l119 6q8 0 8 6z" />
    <glyph glyph-name="s" unicode="s" horiz-adv-x="821" 
d="M264 646q0 -64 36 -89t168 -63t197 -90q65 -50 64 -156q0 -139 -131 -217q-86 -51 -243 -51t-251 38q-13 129 -30 238q49 12 106 18l27 -133q6 -16 18 -24q55 -43 142 -43q209 0 211 147q0 69 -39 95t-105 46t-67 21l-21 6q-125 39 -178 92t-53 140q0 135 129 206
q94 53 238 53t206 -36q16 -141 23 -226l-105 -14l-28 129q-2 14 -15 23q-39 30 -119 30t-130 -38t-50 -102z" />
    <glyph glyph-name="t" unicode="t" horiz-adv-x="733" 
d="M356 217q0 -125 144 -125q68 0 186 31q4 -16 14 -90q-141 -51 -288 -51q-98 0 -158 53q-37 33 -46 67t-9 93l2 315l2 238h-142q0 39 5 100q45 0 131 4q12 0 12 14q6 93 6 191q44 28 93 49q50 20 54 20t5 -6q-4 -139 -5 -266q217 0 322 2q0 -14 -6 -106h-320v-230
q-2 -84 -2 -303z" />
    <glyph glyph-name="u" unicode="u" horiz-adv-x="1081" 
d="M434 -20q-102 0 -183 87t-81 193l2 496l-125 2q0 33 4 94l277 8q6 0 6 -6q-6 -232 -6 -434t30 -252q48 -74 146 -74t237 103v559l-131 4q0 66 2 96l285 4q4 0 4 -6l-4 -731q0 -29 14 -29l138 2q0 -59 -2 -86q-92 -31 -232 -30q-32 30 -65 108l-11 2q-125 -74 -180 -92
t-125 -18z" />
    <glyph glyph-name="v" unicode="v" horiz-adv-x="968" 
d="M975 860q0 -59 -2 -90l-96 -6q-12 -27 -37 -81t-66 -146q-42 -91 -102 -229t-154 -326q-29 -2 -117 -2q-125 322 -161 427t-121 351q-4 6 -8 6l-107 6q0 61 2 90h426q0 -61 -2 -90l-137 -4q20 -84 98 -328t92 -282h13q172 394 233 602q4 6 -4 6l-119 6q0 61 2 88l209 2
h158z" />
    <glyph glyph-name="w" unicode="w" horiz-adv-x="1392" 
d="M426 860q0 -61 -2 -90l-143 -4q6 -39 50 -250t81 -356h10q231 600 250 645q20 2 119 2q70 -235 198 -651h12q65 228 97 336t67 264q2 8 -6 8l-117 4q0 63 2 90h207l146 2q0 -59 -2 -88l-92 -6q-162 -504 -271 -786q-31 -2 -119 -3q-113 315 -200 623h-11
q-102 -270 -260 -620q-29 -2 -110 -3q-76 245 -215 781q0 6 -8 6l-97 6q0 63 2 90h412z" />
    <glyph glyph-name="x" unicode="x" horiz-adv-x="970" 
d="M459 858q0 -59 -2 -88l-119 -6q127 -183 172 -242h12q141 182 174 234q8 8 -2 8l-102 4l2 90h197l153 2q0 -61 -2 -88l-94 -8q-43 -54 -268 -309v-11q49 -61 142 -183t128 -165l108 -6q0 -59 -2 -88h-413q0 61 2 88l106 4q16 0 8 12q-51 78 -188 254h-10
q-92 -104 -213 -266l112 -4q0 -59 -2 -88h-200l-158 -2q0 61 2 88l84 6q14 4 32 24t281 314v14q-124 164 -243 312q-6 6 -13 6l-98 6q0 61 2 88h412z" />
    <glyph glyph-name="y" unicode="y" horiz-adv-x="946" 
d="M956 860q0 -59 -2 -90l-90 -6q-16 -41 -187 -453t-291 -592t-189 -221q-27 0 -77 35t-50 55q111 76 182 164q100 117 156 244q-116 277 -196 497q-81 220 -99 265q-2 6 -11 6l-100 6q0 63 2 90h424q0 -61 -2 -90l-143 -4q75 -254 209 -610h10q109 261 217 598q4 10 -6 10
l-125 6q0 61 2 88l207 2h159z" />
    <glyph glyph-name="z" unicode="z" horiz-adv-x="903" 
d="M782 -2l-147 2h-549q-16 37 -29 80q510 602 572 676l-2 10q-182 0 -326 -4q-47 0 -57 -31l-54 -162q-23 2 -106 19l59 272l191 -2q227 -4 452 0q16 -41 31 -102q-22 -27 -569 -654l2 -8q285 0 377 8q49 4 63 41l58 162q53 -8 104 -22q-45 -188 -70 -285z" />
    <glyph glyph-name="braceleft" unicode="{" horiz-adv-x="684" 
d="M365 41q1 -109 67 -173t193 -63q2 -27 2 -88q-182 -1 -292 91t-110 237q0 78 26 197q25 120 25 178t-36 96t-140 33q-2 29 -2 90q104 0 142 32q36 32 36 85t-23 164q-24 111 -24 186q1 160 103 251t299 93q4 -41 0 -86q-262 0 -262 -242q0 -68 19 -178t20 -168
q-1 -131 -132 -168v-12q64 -18 98 -68t33 -118t-21 -185t-21 -184z" />
    <glyph glyph-name="bar" unicode="|" horiz-adv-x="1073" 
d="M483 1536h109v-2048h-109v2048z" />
    <glyph glyph-name="braceright" unicode="}" horiz-adv-x="684" 
d="M274 774q0 59 23 170t22 178q0 120 -61 180t-199 60q-4 59 -2 88q197 0 299 -90t103 -254q0 -76 -28 -188t-28 -163q0 -52 38 -84t143 -32q0 -61 -2 -90q-180 8 -181 -139q0 -51 27 -169t29 -194q0 -143 -111 -235t-291 -93q-2 31 2 88q127 -1 195 63t67 173
q-1 69 -23 185t-22 182t35 114q35 50 94 68v12q-129 39 -129 170z" />
    <glyph glyph-name="asciitilde" unicode="~" horiz-adv-x="1073" 
d="M365 618q90 0 202 -75q42 -28 57 -36l34 -17q36 -18 76 -17q40 0 71 43t35 107q51 4 102 0q-4 -105 -63 -191t-141 -86t-208 78q-250 167 -294 -76q-31 0 -101 4q10 110 75 188t155 78z" />
    <glyph glyph-name="uni00A0" unicode="&#xa0;" horiz-adv-x="450" 
 />
    <glyph glyph-name="exclamdown" unicode="&#xa1;" horiz-adv-x="559" 
d="M387 779q0 -41 -31 -75t-81 -34q-49 0 -77 34t-28 73q0 40 32 72t76 32t77 -30q32 -30 32 -72zM182 -479v4q39 905 43 991q15 4 57 8t50 6q0 -27 22 -467q8 -256 27 -505q-31 -10 -105 -24t-94 -13z" />
    <glyph glyph-name="cent" unicode="&#xa2;" horiz-adv-x="1073" 
d="M293 626q0 -138 78 -223q68 -68 178 -77q0 342 6 663q-119 -17 -191 -121t-71 -242zM141 608q0 184 114 318t304 164q0 141 2 208q43 10 105 15q-4 -66 -4 -213q10 2 38 2q123 0 230 -51q0 -27 -22 -68t-44 -53q-119 63 -207 63l-8 -669q123 6 273 69q8 -20 26 -86
q-162 -74 -299 -86l-2 -217q-29 -4 -98 -8q0 141 2 221q-176 7 -293 107t-117 284z" />
    <glyph glyph-name="sterling" unicode="&#xa3;" horiz-adv-x="1073" 
d="M311 455q0 66 -8 120h-205q0 35 4 97q59 2 179 2q10 0 8 12q-27 209 -27 252q0 188 124 294t321 107q106 0 186 -30q14 -131 25 -291l-111 -12l-33 192q-8 23 -20 27q-41 14 -103 14q-98 -1 -164 -67t-65 -211q0 -12 27 -285q96 0 370 4q0 -55 -6 -105h-352q4 -49 4 -69
q0 -221 -127 -387q-14 -20 16 -21q401 0 451 15q25 2 39 43l67 200q33 -6 105 -24q-25 -121 -78 -334l-664 2l-245 -2q0 68 2 98l141 6q20 0 33 13q106 109 106 340z" />
    <glyph glyph-name="currency" unicode="&#xa4;" horiz-adv-x="1073" 
d="M541 920q-102 0 -162 -60q-92 -92 -92 -227t84 -215q61 -56 163 -56t164 54q92 76 92 225t-85 225q-62 54 -164 54zM162 622q0 148 92 255q-55 63 -150 165q39 41 84 80q29 -33 150 -170q92 66 214 66t206 -55q32 39 139 163q43 -35 84 -82l-141 -157q76 -96 75 -230
q0 -170 -98 -264q111 -127 160 -182q-45 -41 -82 -68q-59 70 -156 181q-86 -60 -206 -60t-197 47q-106 -119 -154 -170q-39 29 -80 68q41 49 150 170q-90 95 -90 243z" />
    <glyph glyph-name="yen" unicode="&#xa5;" horiz-adv-x="1073" 
d="M477 111v184l-315 -2q-2 33 2 88h313v125h-317q0 59 2 86q92 2 284 2q-70 127 -323 600q-6 10 -14 10l-84 4q0 63 2 95q72 0 168 -3l276 3q0 -63 -2 -95l-178 -6q94 -190 278 -571h11q164 336 268 561q4 10 -8 10l-164 6q0 61 2 92h240l153 3q0 -63 -2 -93l-86 -8
q-219 -412 -326 -606q190 0 279 2q0 -63 -2 -92h-316l-2 -125l314 2q0 -57 -2 -86l-312 -2l-2 -195l197 -6q0 -63 -2 -94l-260 2l-256 -2q-2 31 2 94l170 4q12 3 12 13z" />
    <glyph glyph-name="brokenbar" unicode="&#xa6;" horiz-adv-x="1073" 
d="M483 358h109v-716h-109v716zM483 1382h109v-716h-109v716z" />
    <glyph glyph-name="section" unicode="&#xa7;" horiz-adv-x="925" 
d="M244 653q0 -96 49 -159q49 -64 178 -150t174 -135q45 61 45 159t-47 157q-47 60 -181 157t-165 127q-53 -60 -53 -156zM139 -141q111 -117 273 -117q86 0 144 60q56 60 56 150t-49 148q-49 60 -180 140t-196 166t-64 200q0 147 110 266q-57 72 -57 172q0 133 119 230
q94 76 260 76t274 -103q-7 -27 -35 -55t-57 -37q-33 35 -99 65t-140 30t-130 -51q-56 -50 -56 -132t52 -137q54 -55 201 -154q127 -80 185 -166t59 -200q0 -158 -98 -267q39 -63 39 -149q0 -152 -106 -252t-261 -100q-205 0 -340 125q12 31 40 59t56 33z" />
    <glyph glyph-name="dieresis" unicode="&#xa8;" horiz-adv-x="681" 
d="M501 1190q45 0 67 -28t22 -64t-25 -60t-65 -24t-63 26t-23 61q0 33 22 61t65 28zM183 1190q45 0 65 -28t20 -62t-24 -60t-62 -26t-64 24t-26 61q0 35 24 63t67 28z" />
    <glyph glyph-name="copyright" unicode="&#xa9;" horiz-adv-x="1558" 
d="M926 920q0 36 -117 36q-74 0 -141 -59q-98 -93 -98 -237t66 -214q67 -70 175 -70t211 50q14 -47 16 -80q-126 -59 -254 -59t-223 69q-125 94 -125 283t150 311q109 92 272 92q109 0 158 -24q10 -104 12 -219q-47 -9 -84 -11zM780 1274q-248 0 -410 -179t-163 -432
q0 -253 163 -429q164 -176 410 -177t409 179t163 433t-162 429t-410 176zM788 1352q284 0 474 -197t190 -483t-197 -490q-197 -202 -481 -202t-476 196t-192 484q0 286 198 489t484 203z" />
    <glyph glyph-name="ordfeminine" unicode="&#xaa;" horiz-adv-x="739" 
d="M197 830q0 -83 104 -85q72 0 154 58q6 4 6 10v125q-16 4 -91 4t-124 -33t-49 -79zM256 655q-76 0 -135 44q-57 44 -57 114q0 71 77 137q78 66 213 66h109q2 113 -27 161q-30 48 -108 48t-168 -95q-37 33 -60 62q131 131 277 131q90 0 151 -62t62 -182l-2 -311
q0 -23 10 -23l107 5v-72q-90 -23 -195 -23q-25 25 -45 68h-6q-127 -68 -203 -68z" />
    <glyph glyph-name="guillemotleft" unicode="&#xab;" horiz-adv-x="841" 
d="M561 457q98 -152 199 -283q-25 -27 -60 -55q-143 156 -280 299q-4 35 0 67q53 57 155 169t121 132q31 -25 62 -55q-183 -254 -197 -274zM242 457q80 -129 200 -295q-33 -33 -63 -56q-147 160 -289 308q-2 25 -2 75q123 127 289 310q23 -16 63 -58q-135 -188 -198 -284z
" />
    <glyph glyph-name="logicalnot" unicode="&#xac;" horiz-adv-x="1073" 
d="M825 68v387h-704q0 41 4 110q417 0 807 6q8 0 8 -8l-4 -489q-52 -6 -111 -6z" />
    <glyph glyph-name="uni00AD" unicode="&#xad;" horiz-adv-x="645" 
d="M308 545q168 0 272 4q0 -43 -5 -113h-509q0 74 2 107q72 2 240 2z" />
    <glyph glyph-name="registered" unicode="&#xae;" horiz-adv-x="972" 
d="M440 1120v-141h25q47 -1 71 21t23 55q0 66 -90 65h-29zM352 819v301h-45q0 37 2 54q47 2 133 2t125 -10t62 -38q23 -27 22 -55q0 -80 -86 -115v-8q31 -14 76 -104q14 -27 31 -27h28v-53h-112q-12 16 -38 72t-37 71q-11 16 -46 17h-27v-107h49v-53h-180v53h43zM485 1290
q-133 0 -219 -94t-86 -230t86 -228t218 -93q132 0 221 94q88 95 88 231t-87 228q-88 92 -221 92zM487 1352h5q160 0 266 -110t106 -270t-112 -275q-112 -113 -271 -113q-160 0 -266 110t-106 270t109 274t269 114z" />
    <glyph glyph-name="macron" unicode="&#xaf;" horiz-adv-x="681" 
d="M547 1137v-99l-412 2q-4 45 0 93q275 4 412 4z" />
    <glyph glyph-name="degree" unicode="&#xb0;" horiz-adv-x="643" 
d="M326 1257q-53 1 -84 -39t-31 -94t33 -91q33 -36 84 -36t80 37q28 37 28 93t-28 94q-29 36 -82 36zM96 1118q0 92 67 158t167 65q100 0 160 -58q60 -57 60 -151t-66 -157q-68 -63 -162 -63t-160 56q-66 58 -66 150z" />
    <glyph glyph-name="plusminus" unicode="&#xb1;" horiz-adv-x="1073" 
d="M944 2l-815 -2q0 41 4 111q307 0 815 4q0 -43 -4 -113zM481 229v303h-350q0 41 4 111q225 0 346 2v313q111 6 115 7l-2 -318q244 0 354 2q2 -53 -4 -117h-350q-2 -109 -2 -299q-66 -4 -111 -4z" />
    <glyph glyph-name="twosuperior" unicode="&#xb2;" 
d="M333 1552q118 0 178 -55t60 -141q0 -149 -258 -341q-35 -26 -45 -34l2 -10l308 8q6 0 6 -4q-4 -61 -6 -90h-472q-12 29 -22 65q167 115 269 217q24 25 56 78q67 110 -1 197q-30 31 -92 31t-95 -27q-6 -4 -6 -12l-18 -109l-86 6q10 165 10 182q94 39 212 39z" />
    <glyph glyph-name="threesuperior" unicode="&#xb3;" 
d="M315 1473q-57 0 -92 -23q-6 -6 -6 -12l-16 -97q-29 0 -86 5q4 53 8 165q84 37 209 37t182 -44t57 -105q0 -119 -147 -162v-8q82 -11 124 -57t42 -101q0 -98 -86 -153q-72 -52 -201 -52t-188 15q-14 102 -23 176q31 6 88 14l25 -100q14 -28 90 -28q76 -1 119 31t43 88
t-47 88t-125 32h-78q-2 27 -2 78q236 -2 235 118q0 95 -125 95z" />
    <glyph glyph-name="acute" unicode="&#xb4;" horiz-adv-x="681" 
d="M180 1036l275 275q33 -27 88 -90q-272 -221 -305 -248q-13 13 -58 63z" />
    <glyph glyph-name="mu" unicode="&#xb5;" horiz-adv-x="1085" 
d="M164 128q0 360 4 689q74 43 154 43q4 0 4 -6q-4 -314 -4 -468t32 -210q49 -82 154 -82q66 0 148 53t83 95v573q68 45 156 45q4 0 4 -6q0 -301 -4 -621q0 -145 63 -145q33 0 99 21q8 -37 16 -84q-94 -45 -227 -45q-51 35 -92 124l-11 2q-166 -127 -276 -126
q-82 -1 -158 69l-8 -2q0 -244 6 -496q-27 -20 -76 -33t-75 -14q8 264 8 624z" />
    <glyph glyph-name="paragraph" unicode="&#xb6;" horiz-adv-x="1097" 
d="M551 467h-29q-242 0 -372 173q-74 98 -74 236t74 243t190 159t356 53q49 0 344 -6l2 -94l-124 2l-7 -1477q-47 -12 -106 -18l-2 1497h-139l-5 -1483q-35 -10 -108 -22v737z" />
    <glyph glyph-name="periodcentered" unicode="&#xb7;" horiz-adv-x="501" 
d="M256 647q55 0 82 -36t27 -80q0 -43 -31 -77t-81 -34t-82 32t-32 78t31 81q31 36 86 36z" />
    <glyph glyph-name="cedilla" unicode="&#xb8;" horiz-adv-x="681" 
d="M555 -256q0 -76 -71 -123t-185 -49q-4 16 -8 70q147 10 147 90t-110 80l-19 43l152 147h102l-125 -129q55 -10 86 -45t31 -84z" />
    <glyph glyph-name="onesuperior" unicode="&#xb9;" 
d="M119 1450l306 106q7 0 7 -6l-2 -589l158 -3q0 -51 -2 -75h-455q0 49 2 73l170 5q4 0 4 4v448q-90 -18 -174 -41z" />
    <glyph glyph-name="ordmasculine" unicode="&#xba;" horiz-adv-x="788" 
d="M393 733q182 0 182 262q0 135 -51 193t-123 59q-72 0 -120 -51q-68 -74 -68 -210t61 -202q45 -51 119 -51zM373 657q-129 0 -199 76q-98 94 -98 254t121 264q86 72 208 72t191 -55q117 -88 117 -268t-133 -283q-78 -60 -207 -60z" />
    <glyph glyph-name="guillemotright" unicode="&#xbb;" horiz-adv-x="841" 
d="M600 453q-106 160 -199 288q29 31 64 60q45 -51 289 -309q0 -51 -2 -76q-44 -48 -140 -150t-147 -157q-61 55 -64 57q99 135 199 287zM143 788l281 -301q0 -23 -4 -67q-180 -197 -277 -299q-35 29 -61 57q80 103 199 275q-86 127 -197 278q20 23 59 57z" />
    <glyph glyph-name="onequarter" unicode="&#xbc;" horiz-adv-x="1501" 
d="M1165 547h-12q-18 -27 -55 -75t-87 -115t-75 -99q-4 -12 6 -12h223v301zM1393 246q0 -53 -2 -82h-121v-94l86 -2v-68h-326v68l129 2q6 0 6 4v88h-311q-29 53 -39 78l330 424q88 0 129 -2l-2 -416h121zM459 -31q-43 14 -86 37q145 250 401 721t336 623q68 -23 92 -35
q-356 -651 -452 -829t-291 -517zM152 1237l306 106q7 0 7 -6l-2 -589l158 -3v-75h-457q0 49 2 73l170 5q4 0 4 4v448q-90 -18 -174 -41z" />
    <glyph glyph-name="onehalf" unicode="&#xbd;" horiz-adv-x="1501" 
d="M1376 0h-473q-12 29 -22 66q170 117 269 216q26 26 58 78t31 106q0 52 -32 87t-94 35t-95 -27q-6 -4 -6 -12l-19 -109l-86 6q2 32 6 94t5 89q94 39 212 39t180 -56q60 -56 60 -141q0 -137 -201 -295q-27 -23 -104 -80l2 -8q18 0 309 6q6 0 6 -4q-6 -42 -6 -90zM342 6
q245 429 735 1344q74 -25 94 -35q-80 -143 -219 -399t-190 -350q-51 -93 -173 -310t-161 -287q-43 14 -86 37zM129 1237l306 106q7 0 7 -6l-2 -589l158 -3q0 -51 -2 -75h-455q0 49 2 73l170 5q4 0 4 4v448q-90 -18 -174 -41z" />
    <glyph glyph-name="threequarters" unicode="&#xbe;" horiz-adv-x="1501" 
d="M1153 547h-12q-18 -27 -90 -120t-125 -169q-8 -12 4 -12h223v301zM1380 246q0 -53 -2 -82h-121v-94l86 -2v-68h-325v68l129 2q6 0 6 4v88h-311l-39 78q12 14 153 200q109 139 177 224q88 0 129 -2l-2 -416h120zM367 6q230 406 733 1344q74 -25 94 -35
q-143 -257 -352 -643t-391 -703q-45 16 -84 37zM365 1260q-57 0 -93 -23l-6 -12l-16 -97q-29 0 -86 5q4 53 8 165q84 37 211 37t182 -43t56 -106q0 -119 -148 -162v-8q82 -10 124 -56t42 -102q0 -98 -86 -153q-72 -51 -201 -51t-188 14q-12 82 -25 178q45 8 90 12l25 -100
q14 -28 90 -28q76 -1 119 31t43 88t-47 88t-125 32h-78q-2 27 -2 78q236 -2 235 118q0 95 -124 95z" />
    <glyph glyph-name="questiondown" unicode="&#xbf;" horiz-adv-x="872" 
d="M82 -170q0 125 78 226t237 214q57 43 57 80t-40 156q45 23 104 35q29 -35 63 -120t33 -136q-198 -133 -276 -225t-78 -204t58 -172t154 -60t157 42q10 10 12 25l37 176q47 -2 115 -14q-2 -27 -25 -271q-135 -66 -316 -66t-276 95q-94 94 -94 219zM582 782q0 -42 -31 -76
t-81 -34t-79 34t-29 74t32 70q32 31 77 31t78 -28t33 -71z" />
    <glyph glyph-name="Agrave" unicode="&#xc0;" horiz-adv-x="1241" 
d="M702 1438q-197 115 -346 194q35 60 76 109q47 -33 318 -234q-18 -35 -48 -69zM391 512h430q-51 153 -209 610h-8q-38 -98 -112 -305t-105 -293q-6 -12 4 -12zM152 2l-181 -2q0 63 2 94l115 6q8 4 10 11q70 178 473 1239q25 2 113 2q213 -572 449 -1250l124 -6
q0 -66 -2 -94h-192l-270 -2l2 94l159 6q8 0 4 11q-82 238 -104 295q-2 10 -14 10l-490 -2q-88 -250 -108 -312l184 -6q0 -63 -2 -94h-272z" />
    <glyph glyph-name="Aacute" unicode="&#xc1;" horiz-adv-x="1241" 
d="M502 1507l317 234q43 -53 76 -109q-86 -49 -346 -194q-29 35 -47 69zM391 512h430q-51 153 -209 610h-8q-38 -98 -112 -305t-105 -293q-6 -12 4 -12zM152 2l-181 -2q0 63 2 94l115 6q8 4 10 11q70 178 473 1239q25 2 113 2q213 -572 449 -1250l124 -6q0 -66 -2 -94h-192
l-270 -2l2 94l159 6q8 0 4 11q-82 238 -104 295q-2 10 -14 10l-490 -2q-88 -250 -108 -312l184 -6q0 -63 -2 -94h-272z" />
    <glyph glyph-name="Acircumflex" unicode="&#xc2;" horiz-adv-x="1241" 
d="M637 1593q-190 -123 -229 -149q-39 43 -54 63q100 80 246 203q23 2 72 2q31 -25 241 -201q-18 -29 -55 -65q-69 47 -221 147zM391 512h430q-51 153 -209 610h-8q-38 -98 -112 -305t-105 -293q-6 -12 4 -12zM152 2l-181 -2q0 63 2 94l115 6q8 4 10 11q70 178 473 1239
q25 2 113 2q213 -572 449 -1250l124 -6q0 -66 -2 -94h-192l-270 -2l2 94l159 6q8 0 4 11q-82 238 -104 295q-2 10 -14 10l-490 -2q-88 -250 -108 -312l184 -6q0 -63 -2 -94h-272z" />
    <glyph glyph-name="Atilde" unicode="&#xc3;" horiz-adv-x="1241" 
d="M516 1657q64 0 150 -53q78 -43 108 -43q61 0 70 92h80q0 -79 -42 -141t-116 -62q-39 0 -126 49t-120 49q-32 0 -54 -24t-28 -64h-78q2 78 47 138t109 59zM391 512h430q-51 153 -209 610h-8q-38 -98 -112 -305t-105 -293q-6 -12 4 -12zM152 2l-181 -2q0 63 2 94l115 6
q8 4 10 11q70 178 473 1239q25 2 113 2q213 -572 449 -1250l124 -6q0 -66 -2 -94h-192l-270 -2l2 94l159 6q8 0 4 11q-82 238 -104 295q-2 10 -14 10l-490 -2q-88 -250 -108 -312l184 -6q0 -63 -2 -94h-272z" />
    <glyph glyph-name="Adieresis" unicode="&#xc4;" horiz-adv-x="1241" 
d="M810 1649q44 0 67 -28q23 -27 23 -63t-26 -62t-64 -26t-64 27t-26 61t23 62q23 29 67 29zM465 1649q43 0 65 -29t21 -63q0 -35 -24 -61q-25 -26 -63 -26t-64 25t-26 62t24 65t67 27zM391 512h430q-51 153 -209 610h-8q-38 -98 -112 -305t-105 -293q-6 -12 4 -12zM152 2
l-181 -2q0 63 2 94l115 6q8 4 10 11q70 178 473 1239q25 2 113 2q213 -572 449 -1250l124 -6q0 -66 -2 -94h-192l-270 -2l2 94l159 6q8 0 4 11q-82 238 -104 295q-2 10 -14 10l-490 -2q-88 -250 -108 -312l184 -6q0 -63 -2 -94h-272z" />
    <glyph glyph-name="Aring" unicode="&#xc5;" horiz-adv-x="1241" 
d="M723 1608q1 42 -25 70t-70 28t-71 -30t-27 -70t28 -69q28 -28 71 -28t69 28t25 71zM630 1782q87 0 141 -49t54 -124t-56 -125t-141 -50t-143 46q-57 46 -57 121t57 128q58 53 145 53zM391 512h430q-51 153 -209 610h-8q-38 -98 -112 -305t-105 -293q-6 -12 4 -12zM152 2
l-181 -2q0 63 2 94l115 6q8 4 10 11q70 178 473 1239q25 2 113 2q213 -572 449 -1250l124 -6q0 -66 -2 -94h-192l-270 -2l2 94l159 6q8 0 4 11q-82 238 -104 295q-2 10 -14 10l-490 -2q-88 -250 -108 -312l184 -6q0 -63 -2 -94h-272z" />
    <glyph glyph-name="AE" unicode="&#xc6;" horiz-adv-x="1746" 
d="M883 1221h-9q-131 -219 -323 -557q-6 -12 4 -13h328v570zM1520 803q-4 -122 -4 -377q-66 -4 -105 -4l-6 100q-2 39 -51 39q-88 2 -310 2l-2 -424q0 -27 18 -34t180 -7q163 0 224 15q27 6 39 41l62 178q74 -12 106 -21q-27 -131 -69 -313l-627 2l-250 -2v96l149 6q8 0 9 6
v443q-1 8 -11 8l-383 -2q-49 -90 -134 -244t-115 -211l186 -4q0 -63 -2 -94h-285l-178 -2q0 63 2 94l117 8q12 0 14 9q123 205 380 642t337 572q6 6 10 6l219 -2q328 0 377 2h176q12 -150 19 -309q-16 -2 -109 -12l-33 176q-6 35 -47 39q-86 8 -315 8h-61l-3 -571
q98 0 312 4q29 0 38 9t13 30l8 98q55 4 105 0z" />
    <glyph glyph-name="Ccedilla" unicode="&#xc7;" horiz-adv-x="1198" 
d="M705 -287q0 82 -132 80l-18 49l143 140h-12q-207 0 -364 122q-100 78 -160 205q-59 127 -60 281q0 387 271 606q184 156 463 156q166 0 260 -43q16 -227 20 -346q-33 -6 -115 -15l-34 221q-2 23 -17 31q-57 37 -168 37q-195 0 -323 -131q-182 -186 -183 -467
q0 -137 28 -229t97 -172q123 -139 342 -140q162 0 363 76q18 -61 24 -104q-160 -61 -313 -82l-121 -125q70 -10 105 -48t35 -89q0 -78 -78 -130t-211 -55q-8 39 -10 76q168 4 168 96z" />
    <glyph glyph-name="Egrave" unicode="&#xc8;" horiz-adv-x="1136" 
d="M688 1436q-269 154 -344 194q37 66 76 111q208 -153 315 -236q-16 -29 -47 -69zM252 106v1125l-150 4q0 66 2 96l236 -2l453 2h178q18 -285 18 -309q-32 -6 -108 -14l-33 178q-6 33 -47 37q-133 10 -326 10l-59 -2l-2 -504q207 0 319 4q27 2 36 11t13 30l11 98
q72 0 104 -2q-4 -123 -4 -194v-189q-68 -4 -107 -2l-6 107q-2 39 -49 39q-94 2 -317 2l-2 -492q0 -27 17 -34t185 -7t230 15q25 6 37 41l65 186l107 -21q-29 -131 -72 -321l-637 2l-242 -2q0 65 2 96l142 6q6 0 6 6z" />
    <glyph glyph-name="Eacute" unicode="&#xc9;" horiz-adv-x="1136" 
d="M780 1739q43 -51 76 -109q-219 -125 -344 -194q-29 37 -47 69q252 187 315 234zM252 106v1125l-150 4q0 66 2 96l236 -2l453 2h178q18 -285 18 -309q-32 -6 -108 -14l-33 178q-6 33 -47 37q-133 10 -326 10l-59 -2l-2 -504q207 0 319 4q27 2 36 11t13 30l11 98
q72 0 104 -2q-4 -123 -4 -194v-189q-68 -4 -107 -2l-6 107q-2 39 -49 39q-94 2 -317 2l-2 -492q0 -27 17 -34t185 -7t230 15q25 6 37 41l65 186l107 -21q-29 -131 -72 -321l-637 2l-242 -2q0 65 2 96l142 6q6 0 6 6z" />
    <glyph glyph-name="Ecircumflex" unicode="&#xca;" horiz-adv-x="1136" 
d="M567 1595l-227 -151q-39 43 -53 63q27 23 78 65t92 76t75 62q23 2 72 2q31 -25 242 -201q-18 -29 -55 -65q-13 10 -224 149zM252 106v1125l-150 4q0 66 2 96l236 -2l453 2h178q18 -285 18 -309q-32 -6 -108 -14l-33 178q-6 33 -47 37q-133 10 -326 10l-59 -2l-2 -504
q207 0 319 4q27 2 36 11t13 30l11 98q72 0 104 -2q-4 -123 -4 -194v-189q-68 -4 -107 -2l-6 107q-2 39 -49 39q-94 2 -317 2l-2 -492q0 -27 17 -34t185 -7t230 15q25 6 37 41l65 186l107 -21q-29 -131 -72 -321l-637 2l-242 -2q0 65 2 96l142 6q6 0 6 6z" />
    <glyph glyph-name="Edieresis" unicode="&#xcb;" horiz-adv-x="1136" 
d="M649 1560q1 34 23 62t66 29q44 0 67 -28q23 -27 23 -63t-26 -62q-24 -26 -63 -26t-65 28q-26 26 -25 60zM303 1559q-1 37 23 65t67 27q43 0 65 -29q22 -28 22 -62t-24 -61t-63 -27t-65 26q-26 24 -25 61zM252 106v1125l-150 4q0 66 2 96l236 -2l453 2h178
q18 -285 18 -309q-32 -6 -108 -14l-33 178q-6 33 -47 37q-133 10 -326 10l-59 -2l-2 -504q207 0 319 4q27 2 36 11t13 30l11 98q72 0 104 -2q-4 -123 -4 -194v-189q-68 -4 -107 -2l-6 107q-2 39 -49 39q-94 2 -317 2l-2 -492q0 -27 17 -34t185 -7t230 15q25 6 37 41l65 186
l107 -21q-29 -131 -72 -321l-637 2l-242 -2q0 65 2 96l142 6q6 0 6 6z" />
    <glyph glyph-name="Igrave" unicode="&#xcc;" horiz-adv-x="663" 
d="M184 1741l314 -236q-18 -33 -47 -69q-260 147 -345 194q43 70 78 111zM252 111v1120l-162 6l2 94l254 -2l240 2l-2 -94l-162 -6q-6 0 -6 -8l-4 -1121l174 -6q0 -66 -2 -96l-244 2l-246 -2q0 63 2 96l148 6q8 0 8 9z" />
    <glyph glyph-name="Iacute" unicode="&#xcd;" horiz-adv-x="663" 
d="M504 1739q43 -51 76 -109q-313 -178 -342 -194q-25 29 -50 69q66 48 316 234zM252 111v1120l-162 6l2 94l254 -2l240 2l-2 -94l-162 -6q-6 0 -6 -8l-4 -1121l174 -6q0 -66 -2 -96l-244 2l-246 -2q0 63 2 96l148 6q8 0 8 9z" />
    <glyph glyph-name="Icircumflex" unicode="&#xce;" horiz-adv-x="663" 
d="M338 1593q-154 -98 -227 -149q-39 43 -54 63q47 37 132 108t114 95q23 2 70 2q31 -25 241 -201q-18 -29 -55 -65q-41 28 -221 147zM252 111v1120l-162 6l2 94l254 -2l240 2l-2 -94l-162 -6q-6 0 -6 -8l-4 -1121l174 -6q0 -66 -2 -96l-244 2l-246 -2q0 63 2 96l148 6
q8 0 8 9z" />
    <glyph glyph-name="Idieresis" unicode="&#xcf;" horiz-adv-x="663" 
d="M434 1560q0 34 22 62t67 29q44 0 67 -28q22 -27 22 -63t-24 -62t-64 -26q-38 0 -64 28q-26 26 -26 60zM86 1559q0 37 24 65t66 27q43 0 65 -29q21 -28 21 -62t-24 -61t-62 -27t-64 26q-26 24 -26 61zM252 111v1120l-162 6l2 94l254 -2l240 2l-2 -94l-162 -6q-6 0 -6 -8
l-4 -1121l174 -6q0 -66 -2 -96l-244 2l-246 -2q0 63 2 96l148 6q8 0 8 9z" />
    <glyph glyph-name="Eth" unicode="&#xd0;" horiz-adv-x="1449" 
d="M819 713q0 -41 -4 -107h-364l-2 -440q-1 -43 27 -58t128 -16q262 0 412 131q72 63 117 179t45 264t-43 254t-142 192q-145 129 -428 129q-86 0 -112 -8l-2 -524q118 4 368 4zM287 109v497h-181q0 72 3 101q59 2 178 2v520l-152 6q0 66 2 94q221 4 413 4q192 1 300 -23
q288 -62 420 -297q80 -142 80 -306q0 -381 -254 -574q-176 -133 -478 -133h-245l-238 -2q-2 35 2 94l142 6q8 0 8 11z" />
    <glyph glyph-name="Ntilde" unicode="&#xd1;" horiz-adv-x="1466" 
d="M638 1657q62 0 148 -53q78 -43 109 -43q61 0 70 92h79q0 -79 -42 -141t-115 -62q-39 0 -126 49t-120 49t-55 -24t-27 -64h-78q2 78 48 138q47 60 109 59zM360 1090q0 -659 -2 -990l205 -4l-2 -94h-270l-195 -2q0 65 2 94l131 6q8 0 9 9v1124l-150 4q-2 33 2 96l295 -2
q381 -565 733 -1106l10 2q-4 672 -8 1006l-192 2l2 96h254l196 2v-94l-125 -6q-6 0 -6 -8l-6 -1217q-49 -23 -108 -22q-338 465 -762 1104h-13z" />
    <glyph glyph-name="Ograve" unicode="&#xd2;" horiz-adv-x="1470" 
d="M588 1753q88 -65 315 -235q-10 -18 -47 -70q-195 111 -344 194q37 64 76 111zM742 82q192 0 302 127q148 174 148 463t-145 452q-117 125 -293 125t-295 -106q-180 -164 -180 -469t151 -465q120 -127 312 -127zM718 -20q-265 0 -433 172q-182 182 -183 503q0 188 81 343
t204 239q170 115 378 115q380 0 534 -327q69 -144 69 -318q0 -350 -213 -562q-172 -165 -437 -165z" />
    <glyph glyph-name="Oacute" unicode="&#xd3;" horiz-adv-x="1470" 
d="M936 1751q43 -51 76 -109q-219 -125 -344 -194q-29 35 -47 70q252 186 315 233zM742 82q192 0 302 127q148 174 148 463t-145 452q-117 125 -293 125t-295 -106q-180 -164 -180 -469t151 -465q120 -127 312 -127zM718 -20q-265 0 -433 172q-182 182 -183 503
q0 188 81 343t204 239q170 115 378 115q380 0 534 -327q69 -144 69 -318q0 -350 -213 -562q-172 -165 -437 -165z" />
    <glyph glyph-name="Ocircumflex" unicode="&#xd4;" horiz-adv-x="1470" 
d="M803 1714l241 -201q-20 -35 -53 -65q-24 16 -223 147q-113 -74 -227 -149q-27 27 -54 63q115 94 244 203q23 2 72 2zM742 82q192 0 302 127q148 174 148 463t-145 452q-117 125 -293 125t-295 -106q-180 -164 -180 -469t151 -465q120 -127 312 -127zM718 -20
q-265 0 -433 172q-182 182 -183 503q0 188 81 343t204 239q170 115 378 115q380 0 534 -327q69 -144 69 -318q0 -350 -213 -562q-172 -165 -437 -165z" />
    <glyph glyph-name="Otilde" unicode="&#xd5;" horiz-adv-x="1470" 
d="M648 1667q64 0 147 -53q78 -43 108 -43q61 0 70 92h80q0 -78 -42 -140t-116 -63q-39 0 -126 49t-120 49t-55 -24q-22 -25 -27 -64h-78q2 78 48 138q47 60 111 59zM742 82q192 0 302 127q148 174 148 463t-145 452q-117 125 -293 125t-295 -106q-180 -164 -180 -469
t151 -465q120 -127 312 -127zM718 -20q-265 0 -433 172q-182 182 -183 503q0 188 81 343t204 239q170 115 378 115q380 0 534 -327q69 -144 69 -318q0 -350 -213 -562q-172 -165 -437 -165z" />
    <glyph glyph-name="Odieresis" unicode="&#xd6;" horiz-adv-x="1470" 
d="M858 1560q0 34 22 62t67 29q44 0 67 -28q22 -27 22 -63t-24 -62t-64 -26q-38 0 -64 28q-26 26 -26 60zM510 1559q0 37 24 65t66 27q43 0 65 -29q21 -28 21 -62t-24 -61t-62 -27t-64 26q-26 24 -26 61zM742 82q192 0 302 127q148 174 148 463t-145 452q-117 125 -293 125
t-295 -106q-180 -164 -180 -469t151 -465q120 -127 312 -127zM718 -20q-265 0 -433 172q-182 182 -183 503q0 188 81 343t204 239q170 115 378 115q380 0 534 -327q69 -144 69 -318q0 -350 -213 -562q-172 -165 -437 -165z" />
    <glyph glyph-name="multiply" unicode="&#xd7;" horiz-adv-x="1073" 
d="M539 557q87 91 307 315q43 -35 86 -84q-152 -147 -316 -315q225 -229 324 -332q-27 -33 -76 -73l-325 329q-111 -113 -328 -329q-45 41 -74 75q123 125 324 330q-211 215 -307 309q41 47 84 84q215 -221 301 -309z" />
    <glyph glyph-name="Oslash" unicode="&#xd8;" horiz-adv-x="1470" 
d="M740 82q198 0 309 129q147 174 147 469q0 217 -82 348q-72 -84 -190 -226t-264 -314t-234 -279q116 -127 314 -127zM752 1249q-192 0 -308 -119q-172 -172 -172 -464q0 -248 95 -381l690 831q-113 133 -305 133zM102 649q0 195 81 351t214 243q160 109 377 109t371 -127
q90 106 135 157q39 -25 86 -71l-143 -164q63 -76 104 -196t41 -246q0 -340 -205 -551q-174 -174 -452 -174q-223 0 -375 124q-108 -124 -154 -174q-39 29 -76 64q49 59 158 180q-162 180 -162 475z" />
    <glyph glyph-name="Ugrave" unicode="&#xd9;" horiz-adv-x="1370" 
d="M836 1436q-110 67 -344 194q32 60 75 109q142 -103 316 -234q-18 -33 -47 -69zM695 90q153 0 249 99t96 356q0 467 -2 676q0 8 -8 8l-170 4q0 66 2 96h451q0 -61 -2 -94l-131 -6l-4 -686q-2 -287 -144 -437q-123 -126 -344 -126t-342 118q-82 78 -108 182t-27 259v680
q0 12 -10 12l-125 4q0 66 2 94h221l262 2q0 -66 -2 -96l-180 -6l-4 -674q-2 -143 18 -221t66 -135q82 -109 236 -109z" />
    <glyph glyph-name="Uacute" unicode="&#xda;" horiz-adv-x="1370" 
d="M915 1739q43 -51 76 -109q-307 -174 -344 -194q-27 33 -47 67q225 166 315 236zM695 90q153 0 249 99t96 356q0 467 -2 676q0 8 -8 8l-170 4q0 66 2 96h451q0 -61 -2 -94l-131 -6l-4 -686q-2 -287 -144 -437q-123 -126 -344 -126t-342 118q-82 78 -108 182t-27 259v680
q0 12 -10 12l-125 4q0 66 2 94h221l262 2q0 -66 -2 -96l-180 -6l-4 -674q-2 -143 18 -221t66 -135q82 -109 236 -109z" />
    <glyph glyph-name="Ucircumflex" unicode="&#xdb;" horiz-adv-x="1370" 
d="M725 1593l-227 -149q-27 27 -54 63q100 80 246 203q23 2 72 2q31 -25 242 -201q-18 -29 -56 -65q-100 67 -223 147zM695 90q153 0 249 99t96 356q0 467 -2 676q0 8 -8 8l-170 4q0 66 2 96h451q0 -61 -2 -94l-131 -6l-4 -686q-2 -287 -144 -437q-123 -126 -344 -126
t-342 118q-82 78 -108 182t-27 259v680q0 12 -10 12l-125 4q0 66 2 94h221l262 2q0 -66 -2 -96l-180 -6l-4 -674q-2 -143 18 -221t66 -135q82 -109 236 -109z" />
    <glyph glyph-name="Udieresis" unicode="&#xdc;" horiz-adv-x="1370" 
d="M811 1560q1 34 23 62t66 29q44 0 67 -28q23 -27 23 -63t-26 -62q-24 -26 -63 -26t-65 28q-26 26 -25 60zM555 1651q43 0 65 -29q22 -28 22 -62t-25 -61t-63 -27t-64 26q-26 24 -26 61t24 65t67 27zM695 90q153 0 249 99t96 356q0 467 -2 676q0 8 -8 8l-170 4q0 66 2 96
h451q0 -61 -2 -94l-131 -6l-4 -686q-2 -287 -144 -437q-123 -126 -344 -126t-342 118q-82 78 -108 182t-27 259v680q0 12 -10 12l-125 4q0 66 2 94h221l262 2q0 -66 -2 -96l-180 -6l-4 -674q-2 -143 18 -221t66 -135q82 -109 236 -109z" />
    <glyph glyph-name="Yacute" unicode="&#xdd;" horiz-adv-x="1150" 
d="M535 1507l315 234q43 -53 76 -109q-117 -70 -344 -194q-29 35 -47 69zM-10 1333l200 -2l289 2q0 -66 -2 -96l-184 -6q113 -223 311 -598h10q205 371 304 590q4 8 -7 8l-166 6q0 63 3 94h253l177 2q0 -63 -2 -94l-105 -8q-63 -109 -205 -357t-204 -356l-3 -416l189 -6
q0 -35 -4 -96l-258 2l-260 -2q0 63 2 96l161 4q10 2 11 13v401q-41 72 -396 711q-6 6 -10 8l-106 4q0 66 2 96z" />
    <glyph glyph-name="Thorn" unicode="&#xde;" horiz-adv-x="1136" 
d="M542 379q120 0 218 57q123 82 123 238q-1 156 -99 231q-98 76 -274 76q-78 0 -96 -8l-2 -576q10 -18 130 -18zM252 111v1120l-141 4q0 63 2 96h471q0 -63 -2 -92l-160 -6q-8 0 -8 -8v-148q30 2 146 2q116 -1 232 -35t187 -128q72 -94 72 -214t-70 -220
q-71 -100 -179 -150q-108 -49 -272 -49h-120v-181l196 -6q2 -33 -2 -94h-274l-219 -2v96l133 6q8 1 8 9z" />
    <glyph glyph-name="germandbls" unicode="&#xdf;" horiz-adv-x="1187" 
d="M203 104v646h-154q0 39 4 100l140 4q10 0 10 14q0 162 26 248q27 86 103 158q135 125 309 125q121 0 205 -78q119 -111 100 -360q-102 -74 -131 -101q-84 -70 -84 -138t33 -98q32 -30 140 -75t157 -110t49 -156q0 -154 -123 -240q-86 -63 -252 -63q-104 0 -182 24
q-14 146 -27 240q57 10 103 16l24 -131q15 -51 133 -51q70 0 119 39q53 47 53 125t-34 116t-140 84q-108 44 -151 102t-43 144q0 41 23 86q24 46 39 62t41 42t45 46q20 20 34 33t25 26q12 180 -74 262q-51 45 -143 45t-160 -80q-37 -42 -48 -118t-14 -236l-2 -760l72 -4
q0 -61 -2 -90h-145l-205 -2l2 88l119 8q6 0 6 8z" />
    <glyph glyph-name="agrave" unicode="&#xe0;" horiz-adv-x="929" 
d="M315 1311l273 -275q-31 -39 -60 -63q-272 225 -303 248q31 35 90 90zM225 197q0 -47 39 -78t98 -31q109 0 228 82q6 4 6 18v174q-20 4 -132 4t-176 -46q-64 -47 -63 -123zM310 -20q-100 0 -176 59q-75 59 -75 150q-1 91 105 179t295 87h139q6 161 -34 233t-148 72
t-234 -137q-43 43 -69 77q176 180 364 181q121 0 198 -84t77 -248q0 -258 -4 -430q0 -31 18 -31l137 4v-86q-92 -27 -235 -26q-19 16 -68 92h-10q-180 -92 -280 -92z" />
    <glyph glyph-name="aacute" unicode="&#xe1;" horiz-adv-x="929" 
d="M346 1036l277 275q33 -27 88 -90l-308 -248q-3 3 -57 63zM225 197q0 -47 39 -78t98 -31q109 0 228 82q6 4 6 18v174q-20 4 -132 4t-176 -46q-64 -47 -63 -123zM310 -20q-100 0 -176 59q-75 59 -75 150q-1 91 105 179t295 87h139q6 161 -34 233t-148 72t-234 -137
q-43 43 -69 77q176 180 364 181q121 0 198 -84t77 -248q0 -258 -4 -430q0 -31 18 -31l137 4v-86q-92 -27 -235 -26q-19 16 -68 92h-10q-180 -92 -280 -92z" />
    <glyph glyph-name="acircumflex" unicode="&#xe2;" horiz-adv-x="929" 
d="M487 1272q42 -48 213 -254q-39 -39 -59 -55q-129 129 -192 188q-59 -55 -193 -188q-41 37 -59 53q68 84 215 254q25 2 75 2zM225 197q0 -47 39 -78t98 -31q109 0 228 82q6 4 6 18v174q-20 4 -132 4t-176 -46q-64 -47 -63 -123zM310 -20q-100 0 -176 59q-75 59 -75 150
q-1 91 105 179t295 87h139q6 161 -34 233t-148 72t-234 -137q-43 43 -69 77q176 180 364 181q121 0 198 -84t77 -248q0 -258 -4 -430q0 -31 18 -31l137 4v-86q-92 -27 -235 -26q-19 16 -68 92h-10q-180 -92 -280 -92z" />
    <glyph glyph-name="atilde" unicode="&#xe3;" horiz-adv-x="929" 
d="M561 1104q29 0 42 26t20 78h75q-12 -209 -139 -209q-51 0 -129 62q-8 6 -21 16q-13 11 -21 15l-26 13q-16 9 -38 9q-47 0 -68 -102h-76q6 88 43 146t107 59q39 1 65 -15q25 -16 30 -19t20 -15t27 -21q12 -8 36 -25q24 -18 53 -18zM225 197q0 -47 39 -78t98 -31
q109 0 228 82q6 4 6 18v174q-20 4 -132 4t-176 -46q-64 -47 -63 -123zM310 -20q-100 0 -176 59q-75 59 -75 150q-1 91 105 179t295 87h139q6 161 -34 233t-148 72t-234 -137q-43 43 -69 77q176 180 364 181q121 0 198 -84t77 -248q0 -258 -4 -430q0 -31 18 -31l137 4v-86
q-92 -27 -235 -26q-19 16 -68 92h-10q-180 -92 -280 -92z" />
    <glyph glyph-name="adieresis" unicode="&#xe4;" horiz-adv-x="929" 
d="M512 1097q0 33 22 61t65 28q44 0 67 -28q22 -28 22 -64t-24 -60t-65 -24q-39 0 -63 26t-24 61zM190 1095q0 35 24 63t68 28t64 -28t20 -62t-23 -60q-25 -26 -63 -26t-64 24t-26 61zM225 197q0 -47 39 -78t98 -31q109 0 228 82q6 4 6 18v174q-20 4 -132 4t-176 -46
q-64 -47 -63 -123zM310 -20q-100 0 -176 59q-75 59 -75 150q-1 91 105 179t295 87h139q6 161 -34 233t-148 72t-234 -137q-43 43 -69 77q176 180 364 181q121 0 198 -84t77 -248q0 -258 -4 -430q0 -31 18 -31l137 4v-86q-92 -27 -235 -26q-19 16 -68 92h-10
q-180 -92 -280 -92z" />
    <glyph glyph-name="aring" unicode="&#xe5;" horiz-adv-x="929" 
d="M350 1165q0 -41 29 -69t74 -29q45 0 69 29q24 30 23 72t-25 70t-70 28t-73 -30t-27 -71zM452 1339q85 0 137 -48t52 -122t-54 -125t-137 -51t-140 48q-56 48 -56 119t56 125q57 54 142 54zM225 197q0 -47 39 -78t98 -31q109 0 228 82q6 4 6 18v174q-20 4 -132 4t-176 -46
q-64 -47 -63 -123zM291 -20q-82 0 -157 59t-75 150q-1 91 105 179t295 87h139q6 161 -34 233t-146 72t-232 -137q-41 37 -71 77q180 180 362 181q121 0 198 -84t77 -248q0 -258 -4 -430q0 -31 18 -31l137 4v-86q-92 -27 -235 -26q-19 16 -68 92h-10q-176 -92 -299 -92z" />
    <glyph glyph-name="ae" unicode="&#xe6;" horiz-adv-x="1413" 
d="M362 86q127 0 261 96q8 6 6 15q-25 68 -31 165q-20 4 -132 4t-175 -46q-63 -48 -63 -109t37 -93q38 -32 97 -32zM1184 551q0 105 -54 169t-141 64q-88 0 -145 -61q-80 -86 -86 -201q223 0 401 6q25 0 25 23zM287 -20q-76 0 -152 59t-76 149q-1 90 105 180t293 87h143
q4 161 -36 233t-132 72q-125 0 -248 -137q-27 27 -71 75q86 84 169 133t185 50q178 0 227 -170h11q109 170 315 170q158 1 239 -101t80 -272q-7 -20 -31 -46t-38 -28q-182 -6 -518 -6q-2 -170 67 -256q69 -80 193 -80t288 66q10 -39 23 -92q-172 -86 -324 -86
q-219 0 -323 133h-12q-207 -133 -377 -133z" />
    <glyph glyph-name="ccedilla" unicode="&#xe7;" horiz-adv-x="825" 
d="M428 -18q-106 0 -219 89q-55 44 -91 124t-36 182q0 221 139 362t357 142q123 0 188 -43q0 -23 -24 -69t-42 -56l-32 14q-87 35 -152 35q-111 0 -176 -76q-92 -104 -92 -267t68 -245t178 -82t268 58q14 -49 20 -91q-113 -51 -231 -71l-113 -115q55 -10 86 -45t31 -84
q0 -76 -71 -123t-187 -49q-4 16 -8 70q150 10 149 88q0 82 -112 82l-19 43l131 127h-10z" />
    <glyph glyph-name="egrave" unicode="&#xe8;" horiz-adv-x="911" 
d="M598 973q-135 114 -303 248q35 43 88 92l272 -277q-29 -33 -57 -63zM682 551q0 105 -52 169t-142 64t-146 -61q-80 -98 -86 -201q223 0 399 6q27 0 27 23zM526 92q109 0 273 66q16 -43 22 -92q-176 -86 -325 -86q-195 0 -305 114q-109 116 -109 310t121 335t315 142
q158 1 239 -101t81 -272q-8 -20 -32 -46t-38 -28q-182 -6 -520 -6q-8 -336 278 -336z" />
    <glyph glyph-name="eacute" unicode="&#xe9;" horiz-adv-x="911" 
d="M373 1036q254 254 276 275q39 -29 88 -90q-33 -27 -307 -248q-37 41 -57 63zM682 551q0 105 -52 169t-142 64t-146 -61q-80 -98 -86 -201q223 0 399 6q27 0 27 23zM526 92q109 0 273 66q16 -43 22 -92q-176 -86 -325 -86q-195 0 -305 114q-109 116 -109 310t121 335
t315 142q158 1 239 -101t81 -272q-8 -20 -32 -46t-38 -28q-182 -6 -520 -6q-8 -336 278 -336z" />
    <glyph glyph-name="ecircumflex" unicode="&#xea;" horiz-adv-x="911" 
d="M510 1151q-150 -150 -193 -186q-31 25 -59 53q25 29 70 82t81 95t64 75q25 2 76 2q10 -12 213 -254q-18 -18 -60 -55q-129 129 -192 188zM682 551q0 105 -52 169t-142 64t-146 -61q-80 -98 -86 -201q223 0 399 6q27 0 27 23zM526 92q109 0 273 66q16 -43 22 -92
q-176 -86 -325 -86q-195 0 -305 114q-109 116 -109 310t121 335t315 142q158 1 239 -101t81 -272q-8 -20 -32 -46t-38 -28q-182 -6 -520 -6q-8 -336 278 -336z" />
    <glyph glyph-name="edieresis" unicode="&#xeb;" horiz-adv-x="911" 
d="M669 1186q45 0 67 -28t22 -64t-25 -60t-65 -24t-63 26t-23 61q0 33 22 61t65 28zM349 1186q45 0 65 -28t20 -62t-24 -60t-62 -26t-64 24t-26 61q0 35 24 63t67 28zM682 551q0 105 -52 169t-142 64t-146 -61q-80 -98 -86 -201q223 0 399 6q27 0 27 23zM526 92
q113 0 273 66q12 -35 24 -92q-178 -86 -327 -86q-195 0 -305 114q-109 116 -109 310t121 335t315 142q158 1 239 -101t81 -272q-8 -20 -32 -46t-38 -28q-182 -6 -520 -6q-8 -336 278 -336z" />
    <glyph glyph-name="igrave" unicode="&#xec;" horiz-adv-x="544" 
d="M326 973l-301 248q31 35 90 90l270 -275q-31 -39 -59 -63zM209 104v635l-158 4v86l311 52q4 0 5 -7q0 -238 -5 -778l144 -6q0 -59 -2 -88h-228l-213 -2v90l138 6q8 0 8 8z" />
    <glyph glyph-name="iacute" unicode="&#xed;" horiz-adv-x="544" 
d="M412 1311q45 -37 88 -90q-301 -244 -305 -248q-37 41 -58 63zM209 104v635l-158 4v86l311 52q4 0 5 -7q0 -238 -5 -778l144 -6q0 -59 -2 -88h-228l-213 -2v90l138 6q8 0 8 8z" />
    <glyph glyph-name="icircumflex" unicode="&#xee;" horiz-adv-x="544" 
d="M309 1272l215 -254q-39 -39 -61 -55q-60 61 -191 188q-57 -55 -190 -188q-18 16 -62 53q121 145 216 254q25 2 73 2zM209 104v635l-158 4v86l311 52q4 0 5 -7q0 -238 -5 -778l144 -6q0 -59 -2 -88h-228l-213 -2v90l138 6q8 0 8 8z" />
    <glyph glyph-name="idieresis" unicode="&#xef;" horiz-adv-x="544" 
d="M422 1186q42 0 66 -28t24 -64t-25 -60t-65 -24t-63 26t-23 61q0 33 22 61t64 28zM105 1186q45 0 65 -28t20 -62t-24 -60t-62 -26t-64 24t-26 61q0 35 24 63t67 28zM209 104v635l-158 4v86l311 52q4 0 5 -7q0 -238 -5 -778l144 -6q0 -59 -2 -88h-228l-213 -2v90l138 6
q8 0 8 8z" />
    <glyph glyph-name="eth" unicode="&#xf0;" horiz-adv-x="1026" 
d="M500 70q115 0 184 94q94 123 94 354q0 117 -35 156q-84 88 -210 88q-127 0 -203 -93t-76 -277t102 -271q62 -51 144 -51zM936 588q0 -332 -158 -492q-117 -116 -282 -116q-269 1 -368 221q-40 88 -40 188q0 211 148 350q120 117 274 117t246 -80l14 6q-59 221 -186 348
q-131 -98 -207 -155q-20 25 -58 74q115 84 193 145q-115 102 -307 127q10 55 20 86q111 -4 215 -44t170 -91l189 143q31 -37 55 -76l-172 -129q110 -100 182 -266t72 -356z" />
    <glyph glyph-name="ntilde" unicode="&#xf1;" horiz-adv-x="1142" 
d="M706 1104q28 0 40 26q13 26 20 78h76q-12 -209 -140 -209q-51 0 -129 62q-8 6 -21 16q-14 11 -22 15t-24 13t-39 9q-47 0 -68 -102h-75q6 88 42 146t107 59q50 0 91 -31q42 -31 47 -34t22 -17t31 -22q14 -9 42 -9zM707 881q139 0 217 -140q41 -66 41 -149q0 -35 -7 -496
l132 -6q0 -59 -3 -88l-411 -4q0 61 2 90l119 6q6 4 6 8q2 111 2 321t-27 257q-43 78 -139 78q-55 0 -132 -35t-140 -86q-4 -307 -5 -541l148 -6l-2 -90l-232 2l-198 -2q0 59 2 90l121 6q8 0 8 6l-2 635l-158 4l2 84q37 6 157 30q119 23 126 24q4 0 9 -33t17 -94l11 -2
q143 86 203 108t133 23z" />
    <glyph glyph-name="ograve" unicode="&#xf2;" horiz-adv-x="1034" 
d="M612 973l-301 248q39 49 88 90l271 -275q-16 -23 -58 -63zM517 70q103 0 169 67q92 101 92 293t-76 276t-180 85q-104 0 -172 -70q-94 -96 -94 -292t96 -292q62 -67 165 -67zM496 -20q-170 0 -277 96q-135 125 -135 347t172 365q117 92 276 92t259 -75q159 -121 159 -361
t-176 -378q-108 -86 -278 -86z" />
    <glyph glyph-name="oacute" unicode="&#xf3;" horiz-adv-x="1034" 
d="M690 1311q43 -33 90 -90q-16 -14 -307 -248q-6 6 -17 19q-12 14 -22 24t-18 20zM517 70q103 0 169 67q92 101 92 293t-76 276t-180 85q-104 0 -172 -70q-94 -96 -94 -292t96 -292q62 -67 165 -67zM496 -20q-170 0 -277 96q-135 125 -135 347t172 365q117 92 276 92
t259 -75q159 -121 159 -361t-176 -378q-108 -86 -278 -86z" />
    <glyph glyph-name="ocircumflex" unicode="&#xf4;" horiz-adv-x="1034" 
d="M578 1272l215 -254q-27 -27 -62 -55q-59 61 -190 188q-59 -55 -193 -188q-41 37 -59 55q25 29 95 113t120 139q25 2 74 2zM517 70q103 0 169 67q92 101 92 293t-76 276t-180 85q-104 0 -172 -70q-94 -96 -94 -292t96 -292q62 -67 165 -67zM496 -20q-170 0 -277 96
q-135 125 -135 347t172 365q117 92 276 92t259 -75q159 -121 159 -361t-176 -378q-108 -86 -278 -86z" />
    <glyph glyph-name="otilde" unicode="&#xf5;" horiz-adv-x="1034" 
d="M662 1104q28 0 41 26t20 78h76q-12 -209 -140 -209q-51 0 -129 62q-8 6 -21 16q-13 11 -21 15l-26 13q-16 9 -38 9q-47 0 -68 -102h-75q7 88 43 146t106 59q50 0 91 -31q42 -31 47 -34t22 -17t31 -22q13 -9 41 -9zM517 70q103 0 169 67q92 101 92 293t-76 276t-180 85
q-104 0 -172 -70q-94 -96 -94 -292t96 -292q62 -67 165 -67zM496 -20q-170 0 -277 96q-135 125 -135 347t172 365q117 92 276 92t259 -75q159 -121 159 -361t-176 -378q-108 -86 -278 -86z" />
    <glyph glyph-name="odieresis" unicode="&#xf6;" horiz-adv-x="1034" 
d="M606 1097q0 33 22 61t65 28q44 0 67 -28q22 -28 22 -64t-24 -60t-65 -24q-39 0 -63 26t-24 61zM376 1186q44 0 64 -28t20 -62t-23 -60q-25 -26 -63 -26t-64 24t-26 61q0 35 24 63t68 28zM517 70q103 0 169 67q92 101 92 293t-76 276t-180 85q-104 0 -172 -70
q-94 -96 -94 -292t96 -292q62 -67 165 -67zM496 -20q-170 0 -277 96q-135 125 -135 347t172 365q117 92 276 92t259 -75q159 -121 159 -361t-176 -378q-108 -86 -278 -86z" />
    <glyph glyph-name="divide" unicode="&#xf7;" horiz-adv-x="1073" 
d="M440 203q0 39 28 69t71 29q43 0 69 -30q26 -29 25 -69q0 -40 -26 -71q-27 -31 -71 -31t-70 32t-26 71zM129 430q0 74 4 109q399 6 815 6q0 -62 -6 -115h-813zM440 776q0 39 28 69q28 29 71 29t69 -28t25 -69q0 -39 -26 -71q-27 -32 -71 -32t-70 32t-26 70z" />
    <glyph glyph-name="oslash" unicode="&#xf8;" horiz-adv-x="1034" 
d="M512 70q108 0 174 65q100 100 100 301q0 131 -41 197l-405 -492q64 -71 172 -71zM526 791q-110 0 -182 -72q-98 -100 -98 -291q0 -139 47 -213q53 68 405 500q-62 76 -172 76zM528 881q150 0 250 -72q102 123 111 133q27 -18 74 -65q-31 -33 -111 -132q98 -113 98 -292
q0 -258 -186 -396q-106 -77 -254 -77t-250 65q-59 -72 -121 -139q-35 27 -65 59q63 73 116 141q-109 119 -108 306q0 240 174 376q122 93 272 93z" />
    <glyph glyph-name="ugrave" unicode="&#xf9;" horiz-adv-x="1081" 
d="M592 973l-301 248q27 35 88 90l272 -275q-31 -39 -59 -63zM434 -20q-102 0 -183 87t-81 193l2 496l-125 2q0 33 4 94l277 8q6 0 6 -6q-6 -232 -6 -434t30 -252q48 -74 146 -74t237 103v559l-131 4q0 66 2 96l285 4q4 0 4 -6l-4 -731q0 -29 14 -29l138 2q0 -59 -2 -86
q-92 -31 -232 -30q-32 30 -65 108l-11 2q-125 -74 -180 -92t-125 -18z" />
    <glyph glyph-name="uacute" unicode="&#xfa;" horiz-adv-x="1081" 
d="M674 1311q45 -37 88 -90q-289 -236 -305 -248q-20 18 -58 63zM434 -20q-102 0 -183 87t-81 193l2 496l-125 2q0 33 4 94l277 8q6 0 6 -6q-6 -232 -6 -434t30 -252q48 -74 146 -74t237 103v559l-131 4q0 66 2 96l285 4q4 0 4 -6l-4 -731q0 -29 14 -29l138 2q0 -59 -2 -86
q-92 -31 -232 -30q-32 30 -65 108l-11 2q-125 -74 -180 -92t-125 -18z" />
    <glyph glyph-name="ucircumflex" unicode="&#xfb;" horiz-adv-x="1081" 
d="M565 1272l215 -254q-39 -39 -59 -55q-70 69 -193 188q-59 -55 -192 -188l-60 53q68 84 216 254q25 2 73 2zM434 -20q-102 0 -183 87t-81 193l2 496l-125 2q0 33 4 94l277 8q6 0 6 -6q-6 -232 -6 -434t30 -252q48 -74 146 -74t237 103v559l-131 4q0 66 2 96l285 4
q4 0 4 -6l-4 -731q0 -29 14 -29l138 2q0 -59 -2 -86q-92 -31 -232 -30q-32 30 -65 108l-11 2q-125 -74 -180 -92t-125 -18z" />
    <glyph glyph-name="udieresis" unicode="&#xfc;" horiz-adv-x="1081" 
d="M598 1097q0 33 22 61t65 28q44 0 67 -28q22 -28 22 -64t-24 -60t-65 -24q-39 0 -63 26t-24 61zM276 1095q0 35 24 63t68 28t64 -28t20 -62t-23 -60q-25 -26 -63 -26t-64 24t-26 61zM434 -20q-102 0 -183 87t-81 193l2 496l-125 2q0 33 4 94l277 8q6 0 6 -6
q-6 -232 -6 -434t30 -252q48 -74 146 -74t237 103v559l-131 4q0 66 2 96l285 4q4 0 4 -6l-4 -731q0 -29 14 -29l138 2q0 -59 -2 -86q-92 -31 -232 -30q-32 30 -65 108l-11 2q-125 -74 -180 -92t-125 -18z" />
    <glyph glyph-name="yacute" unicode="&#xfd;" horiz-adv-x="946" 
d="M455 973q-13 13 -58 63l275 275q33 -25 88 -88q-74 -59 -305 -250zM956 860q0 -59 -2 -90l-90 -6q-16 -41 -187 -453t-291 -592t-189 -221q-27 0 -77 35t-50 55q111 76 182 164q100 117 156 244q-116 277 -196 497q-81 220 -99 265q-2 6 -11 6l-100 6q0 63 2 90h424
q0 -61 -2 -90l-143 -4q75 -254 209 -610h10q109 261 217 598q4 10 -6 10l-125 6q0 61 2 88l207 2h159z" />
    <glyph glyph-name="thorn" unicode="&#xfe;" horiz-adv-x="1050" 
d="M799 442q0 127 -43 209q-56 105 -182 105t-257 -97q-4 -307 -4 -477q0 -36 68 -70t139 -34q115 0 178 67q101 107 101 297zM494 -463q-343 0 -465 -4q0 59 2 88l119 8q8 0 8 11v1513l-158 2q0 57 2 84q68 8 186 32q117 23 123 23t6 -6q0 -117 -6 -516l11 -2
q131 72 188 91t125 20q145 0 238 -120q93 -119 93 -267q1 -302 -198 -445q-92 -69 -222 -69t-227 47l-10 -4q2 -115 2 -394l187 -4q0 -31 -4 -88z" />
    <glyph glyph-name="ydieresis" unicode="&#xff;" horiz-adv-x="946" 
d="M565 1097q-1 33 21 61t66 28t67 -28t23 -64t-26 -60q-24 -24 -64 -24t-64 26t-23 61zM335 1186q44 0 64 -28q21 -28 21 -62t-24 -60t-62 -26t-65 24q-25 24 -25 61q0 35 24 63t67 28zM956 860q0 -59 -2 -90l-90 -6q-16 -41 -187 -453t-291 -592t-189 -221q-27 0 -77 35
t-50 55q111 76 182 164q100 117 156 244q-116 277 -196 497q-81 220 -99 265q-2 6 -11 6l-100 6q0 63 2 90h424q0 -33 -4 -90l-143 -4q64 -223 208 -610h13q109 261 217 598q4 10 -6 10l-125 6q0 61 2 88l207 2h159z" />
    <glyph glyph-name="Amacron" unicode="&#x100;" horiz-adv-x="1241" 
d="M852 1507l-461 2q-4 45 0 95q156 4 461 4q4 -51 0 -101zM391 512h430q-51 153 -209 610h-8q-38 -98 -112 -305t-105 -293q-6 -12 4 -12zM152 2l-181 -2q0 63 2 94l115 6q8 4 10 11q70 178 473 1239q25 2 113 2q213 -572 449 -1250l124 -6q0 -66 -2 -94h-192l-270 -2l2 94
l159 6q8 0 4 11q-82 238 -104 295q-2 10 -14 10l-490 -2q-88 -250 -108 -312l184 -6q0 -63 -2 -94h-272z" />
    <glyph glyph-name="amacron" unicode="&#x101;" horiz-adv-x="929" 
d="M672 1038l-412 2q-4 45 0 93q275 4 412 4q4 -47 0 -99zM225 197q0 -47 39 -78t98 -31q109 0 228 82q6 4 6 18v174q-20 4 -132 4t-176 -46q-64 -47 -63 -123zM310 -20q-100 0 -176 59q-75 59 -75 150q-1 91 105 179t295 87h139q6 161 -34 233t-148 72t-234 -137
q-43 43 -69 77q176 180 364 181q121 0 198 -84t77 -248q0 -258 -4 -430q0 -31 18 -31l137 4v-86q-92 -27 -235 -26q-19 16 -68 92h-10q-180 -92 -280 -92z" />
    <glyph glyph-name="Abreve" unicode="&#x102;" horiz-adv-x="1241" 
d="M636 1528q-99 0 -171 59t-92 144q27 14 80 26q70 -121 188 -121q61 0 110 34q48 34 70 79q39 -6 84 -20q-18 -73 -94 -137t-175 -64zM391 512h430q-51 153 -209 610h-8q-38 -98 -112 -305t-105 -293q-6 -12 4 -12zM152 2l-181 -2q0 63 2 94l115 6q8 4 10 11
q70 178 473 1239q25 2 113 2q213 -572 449 -1250l124 -6q0 -66 -2 -94h-192l-270 -2l2 94l159 6q8 0 4 11q-82 238 -104 295q-2 10 -14 10l-490 -2q-88 -250 -108 -312l184 -6q0 -63 -2 -94h-272z" />
    <glyph glyph-name="abreve" unicode="&#x103;" horiz-adv-x="929" 
d="M465 997q-90 -1 -156 57t-84 140q27 14 80 27q63 -119 165 -119t155 110q51 -8 82 -20q-16 -70 -84 -132t-158 -63zM225 197q0 -47 39 -78t98 -31q109 0 228 82q6 4 6 18v174q-20 4 -132 4t-176 -46q-64 -47 -63 -123zM310 -20q-100 0 -176 59q-75 59 -75 150
q-1 91 105 179t295 87h139q6 161 -34 233t-148 72t-234 -137q-43 43 -69 77q176 180 364 181q121 0 198 -84t77 -248q0 -258 -4 -430q0 -31 18 -31l137 4v-86q-92 -27 -235 -26q-19 16 -68 92h-10q-180 -92 -280 -92z" />
    <glyph glyph-name="Aogonek" unicode="&#x104;" horiz-adv-x="1241" 
d="M-29 0q0 63 2 94l115 6q8 4 10 11q70 178 473 1239q35 2 113 2q82 -221 261 -725t188 -527l124 -4q0 -66 -2 -96h-272q-129 -102 -129 -215q0 -49 28 -76q46 -45 152 -10q16 -45 21 -70q-61 -39 -139 -39t-133 44q-56 44 -56 120q0 127 164 246h-98l2 94l159 6q8 0 4 10
t-44 128q-40 117 -60 168q-2 10 -14 10l-490 -2q-86 -244 -108 -314l184 -4q0 -63 -2 -96h-453zM391 512h430q-51 153 -209 610h-10q-24 -63 -100 -278t-115 -320q-6 -12 4 -12z" />
    <glyph glyph-name="aogonek" unicode="&#x105;" horiz-adv-x="929" 
d="M524 -238q0 115 144 218q-18 16 -68 92h-10q-180 -92 -280 -92t-176 59q-75 59 -75 150q-1 91 105 179t295 87h139q6 161 -34 233t-148 72t-234 -137q-43 43 -69 77q176 180 364 181q121 0 198 -84t77 -252t-4 -426q0 -31 18 -31l137 4v-86q-6 -2 -54 -7t-93 -26
q-115 -61 -115 -184q0 -45 25 -70q45 -45 141 -10q10 -25 20 -63q-57 -35 -128 -35q-71 1 -123 41t-52 110zM225 197q0 -47 39 -78t98 -31q109 0 228 82q6 4 6 18v174q-20 4 -132 4t-176 -46q-64 -47 -63 -123z" />
    <glyph glyph-name="Cacute" unicode="&#x106;" horiz-adv-x="1198" 
d="M1057 1645l-344 -195q-31 41 -47 70q235 174 317 235q41 -53 74 -110zM102 592q0 385 271 604q188 156 465 156q166 0 260 -43q8 -109 20 -346q-29 -4 -117 -15l-32 221q-2 23 -17 31q-57 37 -170 37q-195 0 -323 -131q-182 -186 -183 -467q0 -137 28 -229
q59 -195 247 -274q92 -38 194 -38q170 0 363 86q18 -61 25 -104q-244 -100 -416 -100q-400 0 -555 330q-60 128 -60 282z" />
    <glyph glyph-name="cacute" unicode="&#x107;" horiz-adv-x="825" 
d="M416 1036l274 275q47 -35 88 -90q-125 -98 -305 -248q-29 31 -57 63zM82 396q0 202 139 343t357 142q123 0 188 -43q0 -23 -24 -69t-42 -56l-32 14q-87 35 -152 35q-111 0 -176 -76q-92 -104 -92 -267t68 -246t178 -83t266 62q12 -39 22 -89q-168 -83 -326 -83t-266 106
q-108 108 -108 310z" />
    <glyph glyph-name="Ccaron" unicode="&#x10c;" horiz-adv-x="1198" 
d="M741 1595q160 106 226 150q27 -25 55 -64l-246 -204q-49 0 -71 2q-141 119 -242 198q37 49 53 64q114 -72 225 -146zM102 592q0 385 271 604q188 156 465 156q166 0 260 -43q8 -109 20 -346q-29 -4 -117 -15l-32 221q-2 23 -17 31q-57 37 -170 37q-195 0 -323 -131
q-182 -186 -183 -467q0 -137 28 -229q59 -195 247 -274q92 -38 194 -38q170 0 363 86q18 -61 25 -104q-244 -100 -416 -100q-400 0 -555 330q-60 128 -60 282z" />
    <glyph glyph-name="ccaron" unicode="&#x10d;" horiz-adv-x="825" 
d="M309 1298l193 -188q136 136 192 188q27 -18 60 -55q-35 -39 -111 -129t-104 -123q-37 -4 -76 0q-10 13 -90 109t-123 145q29 29 59 53zM82 396q0 202 139 343t357 142q123 0 188 -43q0 -23 -24 -69t-42 -56l-32 14q-87 35 -152 35q-111 0 -176 -76q-92 -104 -92 -267
t68 -246t178 -83t266 62q12 -39 22 -89q-168 -83 -326 -83t-266 106q-108 108 -108 310z" />
    <glyph glyph-name="Dcaron" unicode="&#x10e;" horiz-adv-x="1415" 
d="M408 1726l225 -147q160 106 225 150q27 -25 55 -64l-245 -205q-49 0 -72 2q-180 152 -242 199q37 49 54 65zM1141 666q0 148 -43 254t-142 194q-147 127 -415 127q-98 0 -125 -8l-4 -1067q0 -43 28 -58t129 -16q266 0 410 131q74 67 118 181t44 262zM252 106v1123l-152 6
q0 66 2 94q222 4 410 4q188 1 303 -25t229 -92t191 -204q78 -139 78 -312t-66 -325q-163 -375 -667 -375h-244l-238 -2l2 94l144 6q8 0 8 8z" />
    <glyph glyph-name="dcaron" unicode="&#x10f;" horiz-adv-x="1179" 
d="M1070 1436q42 0 79 -41t37 -92q0 -164 -185 -265q-25 27 -47 54q111 68 111 149q0 51 -82 76q-8 49 18 84q27 35 69 35zM514 774q-118 0 -190 -98t-72 -257t64 -245t176 -86t227 80q12 10 12 29q0 369 -2 524q-97 53 -215 53zM451 -20q-150 0 -250 100q-119 116 -119 316
t137 354q115 131 305 131q94 0 203 -41l8 6q0 294 -4 446l-170 4q0 59 2 88q101 14 208 33q107 18 116 19q6 0 6 -9l-6 -1290q0 -43 22 -43l140 6v-86q-29 -10 -106 -22t-134 -12q-32 26 -61 92h-13q-119 -60 -172 -76t-112 -16z" />
    <glyph glyph-name="Dcroat" unicode="&#x110;" horiz-adv-x="1449" 
d="M819 713q0 -41 -4 -107h-364l-2 -440q-1 -43 27 -58t128 -16q262 0 412 131q72 63 117 179t45 264t-43 254t-142 192q-145 129 -428 129q-86 0 -112 -8l-2 -524q118 4 368 4zM287 109v497h-181q0 72 3 101q59 2 178 2v520l-152 6q0 66 2 94q221 4 413 4q192 1 300 -23
q288 -62 420 -297q80 -142 80 -306q0 -381 -254 -574q-176 -133 -478 -133h-245l-238 -2q-2 35 2 94l142 6q8 0 8 11z" />
    <glyph glyph-name="dcroat" unicode="&#x111;" horiz-adv-x="1067" 
d="M483 1053q0 31 4 88l244 2v149l-170 4q0 59 2 88q101 14 208 33q107 18 116 19q6 0 6 -9q0 -178 -2 -282h117q0 -31 -4 -92h-113q-4 -614 -4 -916q0 -43 22 -43l140 6v-86q-29 -10 -106 -22t-134 -12q-31 23 -64 92h-10q-119 -60 -172 -76t-112 -16q-150 0 -250 100
q-119 116 -119 316t137 354q115 131 305 131q94 0 203 -41l8 6l-2 207h-250zM515 774q-119 0 -191 -98t-72 -254t65 -250q63 -84 175 -84t227 80q12 10 12 29q0 369 -2 524q-96 53 -214 53z" />
    <glyph glyph-name="Emacron" unicode="&#x112;" horiz-adv-x="1136" 
d="M799 1507l-461 2q-4 45 0 95q156 4 461 4q4 -51 0 -101zM252 106v1125l-150 4q0 66 2 96l236 -2l453 2h178q18 -285 18 -309q-32 -6 -108 -14l-33 178q-6 33 -47 37q-133 10 -326 10l-59 -2l-2 -504q207 0 319 4q27 2 36 11t13 30l11 98q72 0 104 -2q-4 -123 -4 -194
v-189q-68 -4 -107 -2l-6 107q-2 39 -49 39q-94 2 -317 2l-2 -492q0 -27 17 -34t185 -7t230 15q25 6 37 41l65 186l107 -21q-29 -131 -72 -321l-637 2l-242 -2q0 65 2 96l142 6q6 0 6 6z" />
    <glyph glyph-name="emacron" unicode="&#x113;" horiz-adv-x="911" 
d="M694 1036l-411 2q-4 45 0 92q274 5 411 5q4 -47 0 -99zM682 551q0 105 -52 169t-142 64t-146 -61q-80 -98 -86 -201q223 0 399 6q27 0 27 23zM526 92q109 0 273 66q16 -43 22 -92q-176 -86 -325 -86q-195 0 -305 114q-109 116 -109 310t121 335t315 142q158 1 239 -101
t81 -272q-8 -20 -32 -46t-38 -28q-182 -6 -520 -6q-8 -336 278 -336z" />
    <glyph glyph-name="Edotaccent" unicode="&#x116;" horiz-adv-x="1136" 
d="M573 1665q47 0 71 -30q24 -29 24 -67t-27 -67t-69 -29t-70 28t-27 67q-1 39 25 69t73 29zM252 106v1125l-150 4q0 66 2 96l236 -2l453 2h178q18 -285 18 -309q-32 -6 -108 -14l-33 178q-6 33 -47 37q-133 10 -326 10l-59 -2l-2 -504q207 0 319 4q27 2 36 11t13 30l11 98
q72 0 104 -2q-4 -123 -4 -194v-189q-68 -4 -107 -2l-6 107q-2 39 -49 39q-94 2 -317 2l-2 -492q0 -27 17 -34t185 -7t230 15q25 6 37 41l65 186l107 -21q-29 -131 -72 -321l-637 2l-242 -2q0 65 2 96l142 6q6 0 6 6z" />
    <glyph glyph-name="edotaccent" unicode="&#x117;" horiz-adv-x="911" 
d="M512 1214q47 0 70 -28q22 -28 22 -67t-26 -67t-67 -28q-42 0 -70 27q-27 27 -27 65t25 69q26 29 73 29zM682 551q0 105 -52 169t-142 64t-146 -61q-80 -98 -86 -201q223 0 399 6q27 0 27 23zM526 92q109 0 273 66q16 -43 22 -92q-176 -86 -325 -86q-195 0 -305 114
q-109 116 -109 310t121 335t315 142q158 1 239 -101t81 -272q-8 -20 -32 -46t-38 -28q-182 -6 -520 -6q-8 -336 278 -336z" />
    <glyph glyph-name="Eogonek" unicode="&#x118;" horiz-adv-x="1136" 
d="M252 109v1122l-150 6q0 63 2 94h236q332 0 453 2h178q18 -299 18 -311l-108 -12l-33 178q-6 33 -47 35q-88 10 -326 10h-59l-2 -506q207 0 319 4q27 2 36 11t13 30l11 98h104q-4 -127 -4 -196v-189q-68 -4 -107 -2l-6 107q-6 39 -49 39q-94 2 -317 2l-2 -492
q0 -27 17 -34t186 -7t227 15q27 8 39 41l65 186q74 -12 107 -21q-57 -260 -74 -319q-139 -104 -139 -221q0 -49 28 -76t68 -27q41 0 84 17q14 -31 20 -70q-59 -39 -136 -39t-133 44t-56 122q0 123 182 250l-553 2l-242 -2q0 66 2 94l142 6q6 0 6 9z" />
    <glyph glyph-name="eogonek" unicode="&#x119;" horiz-adv-x="911" 
d="M714 -258q38 0 77 14q12 -31 18 -63q-53 -35 -125 -35t-124 41t-52 121t98 172q-57 -12 -110 -12q-196 0 -304 114t-108 308q0 196 121 337t315 142q156 1 237 -101t81 -272q-8 -20 -32 -46t-38 -28q-225 -6 -518 -6q-8 -336 278 -336q111 0 271 66q12 -35 24 -92
q-82 -41 -88 -46q-111 -74 -110 -184q-1 -46 25 -70t64 -24zM682 551q0 105 -52 169t-143 64t-143 -61q-82 -94 -88 -201q203 0 399 6q27 0 27 23z" />
    <glyph glyph-name="Ecaron" unicode="&#x11a;" horiz-adv-x="1136" 
d="M569 1579l226 150q27 -25 55 -64l-246 -205q-49 0 -72 2q-119 98 -239 199q33 45 51 63q86 -55 225 -145zM252 106v1125l-150 4q0 66 2 96l236 -2l453 2h178q18 -285 18 -309q-32 -6 -108 -14l-33 178q-6 33 -47 37q-133 10 -326 10l-59 -2l-2 -504q207 0 319 4
q27 2 36 11t13 30l11 98q72 0 104 -2q-4 -123 -4 -194v-189q-68 -4 -107 -2l-6 107q-2 39 -49 39q-94 2 -317 2l-2 -492q0 -27 17 -34t185 -7t230 15q25 6 37 41l65 186l107 -21q-29 -131 -72 -321l-637 2l-242 -2q0 65 2 96l142 6q6 0 6 6z" />
    <glyph glyph-name="ecaron" unicode="&#x11b;" horiz-adv-x="911" 
d="M317 1298l193 -188q63 61 190 188q31 -20 60 -55q-27 -31 -103 -122t-110 -130q-37 -4 -76 0q-184 217 -215 254q20 20 61 53zM682 551q0 105 -52 169t-142 64t-146 -61q-80 -98 -86 -201q223 0 399 6q27 0 27 23zM526 92q109 0 273 66q16 -43 22 -92q-176 -86 -325 -86
q-195 0 -305 114q-109 116 -109 310t121 335t315 142q158 1 239 -101t81 -272q-8 -20 -32 -46t-38 -28q-182 -6 -520 -6q-8 -336 278 -336z" />
    <glyph glyph-name="Gbreve" unicode="&#x11e;" horiz-adv-x="1361" 
d="M767 1487q-99 0 -171 59t-92 144q31 14 80 26q66 -121 186 -121t182 113q35 -6 84 -20q-20 -72 -95 -136t-174 -65zM797 1243q-201 0 -336 -129q-178 -174 -178 -457t145 -431t383 -148q103 0 146 19t42 30v348l-219 4q0 68 2 99h494q0 -68 -2 -99l-105 -4q-8 0 -8 -8
l-4 -420q-115 -68 -364 -67q-295 0 -465 139q-225 193 -226 514q0 186 80 339t217 251q182 129 445 129q193 0 309 -56q12 -219 14 -340l-114 -12l-29 205q-4 29 -16 39q-72 55 -211 55z" />
    <glyph glyph-name="gbreve" unicode="&#x11f;" horiz-adv-x="954" 
d="M497 997q-91 -1 -156 57t-83 140q33 16 82 27q60 -119 162 -119t155 110q51 -8 84 -20q-17 -70 -85 -132t-159 -63zM791 -203q-1 67 -47 91t-142 31t-254 15q-116 -100 -138 -134t-22 -66q0 -72 78 -109t198 -37t214 47q113 62 113 162zM655 554q0 116 -48 177t-143 61
q-94 0 -152 -64q-58 -66 -58 -187t55 -179t143 -57q88 0 146 67q57 66 57 182zM743 766v-8q72 -68 72 -200t-92 -226q-117 -123 -338 -113q-100 -80 -100 -106q0 -37 52 -49q51 -12 249 -21q198 -8 256 -46t81 -73q21 -36 21 -108t-54 -145t-172 -123t-301 -50t-285 60
t-103 176q0 55 42 89t95 73t78 59v10q-121 37 -121 141q0 12 22 31q23 19 138 99v10q-190 90 -191 291q0 141 108 242t285 102q86 1 122 -11t63 -12l268 12q4 -51 0 -104h-195z" />
    <glyph glyph-name="Gcommaaccent" unicode="&#x122;" horiz-adv-x="1361" 
d="M782 -106q43 0 80 -46t37 -104q0 -184 -188 -293q-18 23 -47 62q113 74 112 165q0 61 -84 84q-8 52 20 92t70 40zM797 1243q-201 0 -336 -129q-178 -174 -178 -457t145 -431t383 -148q103 0 146 19t42 30v348l-219 4q0 68 2 99h494q0 -68 -2 -99l-105 -4q-8 0 -8 -8
l-4 -420q-115 -68 -364 -67q-295 0 -465 139q-225 193 -226 514q0 186 80 339t217 251q182 129 445 129q193 0 309 -56q12 -219 14 -340l-114 -12l-29 205q-4 29 -16 39q-72 55 -211 55z" />
    <glyph glyph-name="gcommaaccent" unicode="&#x123;" horiz-adv-x="954" 
d="M478 989q-42 0 -79 41t-37 92q0 162 185 262q23 -20 45 -53q-109 -68 -109 -147q0 -55 80 -76q9 -49 -17 -84t-68 -35zM791 -203q-1 67 -47 91t-142 31t-254 15q-116 -100 -138 -134t-22 -66q0 -72 78 -109t198 -37t214 47q113 62 113 162zM254 541q0 -121 55 -179
t143 -57q88 0 146 67q57 67 57 180q0 238 -191 240q-94 0 -152 -64q-58 -66 -58 -187zM743 766v-8q72 -68 72 -200t-92 -226q-117 -123 -338 -113q-100 -80 -100 -106q0 -37 52 -49q51 -12 249 -21q198 -8 256 -46t81 -73q21 -36 21 -108t-54 -145t-172 -123t-301 -50
t-285 60t-103 176q0 55 42 89t95 73t78 59v10q-121 37 -121 141q0 12 22 31q23 19 138 99v10q-190 90 -191 291q0 141 108 242t285 102q86 1 122 -11t63 -12l268 12q4 -51 0 -104h-195z" />
    <glyph glyph-name="Imacron" unicode="&#x12a;" horiz-adv-x="663" 
d="M571 1499l-460 2q-4 45 0 94q156 4 460 4q4 -51 0 -100zM252 111v1120l-162 6l2 94l254 -2l240 2l-2 -94l-162 -6q-6 0 -6 -8l-4 -1121l174 -6q0 -66 -2 -96l-244 2l-246 -2q0 63 2 96l148 6q8 0 8 9z" />
    <glyph glyph-name="imacron" unicode="&#x12b;" horiz-adv-x="544" 
d="M479 1038l-411 2q-4 45 0 93q274 4 411 4q4 -47 0 -99zM209 104v635l-158 4v86l311 52q4 0 5 -7q0 -238 -5 -778l144 -6q0 -59 -2 -88h-228l-213 -2v90l138 6q8 0 8 8z" />
    <glyph glyph-name="Iogonek" unicode="&#x12e;" horiz-adv-x="663" 
d="M389 -406q-78 0 -133 44t-55 120q0 127 161 244l-268 -2q0 63 2 96l148 6q8 0 8 9v1120l-162 6l2 94l254 -2l240 2l-2 -94l-162 -6q-6 0 -6 -8l-4 -1121l174 -6q0 -66 -2 -96q-119 0 -144 -6q-47 -12 -81 -76q-33 -64 -33 -118t26 -84q44 -49 156 -13q16 -45 20 -70
q-61 -39 -139 -39z" />
    <glyph glyph-name="iogonek" unicode="&#x12f;" horiz-adv-x="544" 
d="M360 -287q37 0 80 17q8 -20 21 -66q-63 -35 -131 -35t-120 41t-52 111q0 115 141 217h-236v88l138 6q8 0 8 8v635l-158 6v86l311 52q4 0 5 -7q0 -250 -5 -780l144 -4q0 -61 -2 -90q-96 8 -135 -12q-97 -51 -97 -162t88 -111zM162 1186q0 44 31 76t84 32t79 -32t25 -77
q0 -44 -31 -76t-78 -32q-46 0 -78 32t-32 77z" />
    <glyph glyph-name="Idotaccent" unicode="&#x130;" horiz-adv-x="663" 
d="M342 1659q47 0 71 -30q23 -29 23 -67t-26 -67t-69 -29q-42 0 -70 28q-27 28 -27 67t26 69t72 29zM252 111v1120l-162 6l2 94l254 -2l240 2l-2 -94l-162 -6q-6 0 -6 -8l-4 -1121l174 -6q0 -66 -2 -96l-244 2l-246 -2q0 63 2 96l148 6q8 0 8 9z" />
    <glyph glyph-name="dotlessi" unicode="&#x131;" horiz-adv-x="544" 
d="M209 104v635l-158 4v86l311 52q4 0 5 -7q0 -238 -5 -778l144 -6q0 -59 -2 -88h-228l-213 -2v90l138 6q8 0 8 8z" />
    <glyph glyph-name="Kcommaaccent" unicode="&#x136;" horiz-adv-x="1292" 
d="M684 -86q43 0 80 -46t37 -104q0 -182 -189 -294q-33 41 -47 61q113 76 113 166q0 61 -84 84q-8 55 19 94q28 39 71 39zM539 633q-96 0 -125 -4l-2 -527l166 -6q2 -33 -3 -96l-237 2l-232 -2v96l138 6q8 0 8 7v1120l-146 6q0 66 3 96l237 -2l223 2q0 -66 -2 -96l-143 -4
q-6 -2 -6 -12l-4 -492q84 0 141 14q135 129 403 480q6 6 -4 6l-137 8q0 63 2 94h266l162 2q0 -66 -2 -96l-108 -6q-197 -227 -451 -506v-10q115 -86 240 -283t180 -276q33 -47 68 -48l147 -8q0 -33 -4 -94q-50 -4 -164 -4l-137 -2q-18 20 -221 344q-178 291 -256 291z" />
    <glyph glyph-name="kcommaaccent" unicode="&#x137;" horiz-adv-x="1021" 
d="M513 -92q42 0 79 -41t37 -92q0 -162 -185 -262q-27 25 -47 53q111 68 111 149q0 51 -82 76q-8 49 18 83q27 34 69 34zM342 1396q0 -40 -6 -876q94 0 129 6q123 115 219 226q2 8 -4 10l-96 4q0 66 2 92h205l165 2q4 -45 0 -92l-96 -6q-174 -168 -276 -260v-10
q80 -66 166 -205t109 -163t42 -26l123 -4q0 -61 -2 -92q-76 -2 -272 -2q-48 63 -142 229t-166 201q-57 0 -106 -4l-2 -330l129 -6q0 -59 -2 -88h-209l-207 -2q0 61 2 90l127 6q4 0 4 8q2 358 2 1192l-155 2q0 59 2 86q33 4 152 25t157 27q6 0 6 -40z" />
    <glyph glyph-name="Lacute" unicode="&#x139;" horiz-adv-x="1071" 
d="M649 1630q-246 -142 -342 -196q-31 41 -47 69q94 70 315 236q45 -57 74 -109zM252 109v1120l-150 6q-2 31 2 94h500q0 -35 -4 -96l-178 -4q-4 0 -4 -8l-6 -1082q0 -29 13 -36t174 -7t226 13q25 6 37 43l74 215q29 -4 108 -25q-23 -111 -79 -344l-623 2l-242 -2q0 35 4 96
l140 6q8 0 8 9z" />
    <glyph glyph-name="lacute" unicode="&#x13a;" horiz-adv-x="524" 
d="M506 1673l-344 -194q-31 41 -47 69q225 166 315 236q41 -47 76 -111zM346 1427q0 -435 -8 -1331l160 -6q0 -59 -2 -88h-238l-221 -2q0 61 2 90l137 6q6 0 6 8q4 778 2 1192l-164 4l3 89q88 9 199 28q111 18 118 19q6 0 6 -9z" />
    <glyph glyph-name="Lcommaaccent" unicode="&#x13b;" horiz-adv-x="1071" 
d="M595 -98q44 0 81 -46t37 -106q0 -180 -189 -293q-33 41 -47 62q113 76 113 166q0 61 -84 84q-8 55 18 94q27 39 71 39zM252 109v1120l-150 6q-2 31 2 94h500q0 -35 -4 -96l-178 -4q-4 0 -4 -8l-6 -1082q0 -29 13 -36t174 -7t226 13q25 6 37 43l74 215q29 -4 108 -25
q-23 -111 -79 -344l-623 2l-242 -2q0 35 4 96l140 6q8 0 8 9z" />
    <glyph glyph-name="lcommaaccent" unicode="&#x13c;" horiz-adv-x="524" 
d="M274 -109q41 0 78 -41t37 -92q0 -162 -184 -262q-29 29 -45 53q109 68 108 150q0 51 -80 76q-8 47 18 81t68 35zM346 1427q0 -435 -8 -1331l160 -6q0 -59 -2 -88h-238l-221 -2q0 61 2 90l137 6q6 0 6 8q4 778 2 1192l-164 4l3 89q88 9 199 28q111 18 118 19q6 0 6 -9z
" />
    <glyph glyph-name="Lcaron" unicode="&#x13d;" horiz-adv-x="1071" 
d="M794 1329q42 0 78 -44q36 -45 37 -119q0 -74 -51 -148t-133 -121q-27 29 -47 59q111 72 110 162q0 59 -81 82q-8 53 18 91q27 38 69 38zM252 109v1120l-150 6q-2 31 2 94h500q0 -35 -4 -96l-178 -4q-4 0 -4 -8l-6 -1082q0 -29 13 -36t174 -7t226 13q25 6 37 43l74 215
q29 -4 108 -25q-23 -111 -79 -344l-623 2l-242 -2q0 35 4 96l140 6q8 0 8 9z" />
    <glyph glyph-name="lcaron" unicode="&#x13e;" horiz-adv-x="632" 
d="M522 1436q41 0 78 -41t37 -92q0 -164 -184 -265q-29 29 -45 54q109 68 108 149q0 53 -80 76q-8 49 18 84t68 35zM346 1427q0 -435 -8 -1331l160 -6q0 -59 -2 -88h-238l-221 -2q0 61 2 90l137 6q6 0 6 8q4 776 2 1192l-164 2l3 91q88 9 199 28q111 18 118 19q6 0 6 -9z
" />
    <glyph glyph-name="Lslash" unicode="&#x141;" horiz-adv-x="1112" 
d="M645 1329q0 -66 -2 -96l-180 -4q-4 0 -4 -6l-2 -480q112 60 299 160l41 -98q-63 -33 -181 -93t-159 -81l-2 -492q0 -29 13 -36t174 -7t226 13q25 6 37 43l74 215q31 -6 108 -25q-49 -217 -79 -344l-625 2l-240 -2q0 66 2 96l140 6q8 0 8 6v445q-25 -12 -176 -90
q-20 37 -41 86q14 8 217 115v567l-150 6q-2 31 2 94h500z" />
    <glyph glyph-name="lslash" unicode="&#x142;" horiz-adv-x="604" 
d="M225 104v514q-154 -74 -162 -77q-14 33 -34 88q69 30 196 98v569l-164 4l2 89q91 9 201 28q110 18 117 19q6 0 6 -9q-4 -340 -4 -620q119 59 180 88q8 -14 35 -98q-147 -70 -217 -105l-2 -596l160 -6q0 -59 -2 -88h-238l-221 -2q0 61 2 90l137 6q8 0 8 8z" />
    <glyph glyph-name="Nacute" unicode="&#x143;" horiz-adv-x="1466" 
d="M920 1710q45 -57 73 -108q-219 -125 -344 -195q-29 35 -47 70q201 149 318 233zM360 1090q0 -659 -2 -990l205 -4l-2 -94h-270l-195 -2q0 65 2 94l131 6q8 0 9 9v1124l-150 4q-2 33 2 96l295 -2q381 -565 733 -1106l10 2q-4 672 -8 1006l-192 2l2 96h254l196 2v-94
l-125 -6q-6 0 -6 -8l-6 -1217q-49 -23 -108 -22q-338 465 -762 1104h-13z" />
    <glyph glyph-name="nacute" unicode="&#x144;" horiz-adv-x="1142" 
d="M453 1036l274 275q53 -43 88 -90q-301 -244 -305 -248q-6 6 -17 19q-11 14 -21 24t-19 20zM707 881q139 0 217 -140q41 -66 41 -149q0 -35 -7 -496l132 -6q0 -59 -3 -88l-411 -4q0 61 2 90l119 6q6 4 6 8q2 111 2 321t-27 257q-43 78 -139 78q-55 0 -132 -35t-140 -86
q-4 -307 -5 -541l148 -6l-2 -90l-232 2l-198 -2q0 59 2 90l121 6q8 0 8 6l-2 635l-158 4l2 84q37 6 157 30q119 23 126 24q4 0 9 -33t17 -94l11 -2q143 86 203 108t133 23z" />
    <glyph glyph-name="Ncommaaccent" unicode="&#x145;" horiz-adv-x="1466" 
d="M749 -86q43 0 80 -46t37 -104q0 -184 -188 -292q-8 8 -47 59q113 76 112 166q0 66 -84 84q-9 55 19 94t71 39zM360 1090q0 -659 -2 -990l205 -4l-2 -94h-270l-195 -2q0 65 2 94l131 6q8 0 9 9v1124l-150 4q-2 33 2 96l295 -2q381 -565 733 -1106l10 2q-4 672 -8 1006
l-192 2l2 96h254l196 2v-94l-125 -6q-6 0 -6 -8l-6 -1217q-49 -23 -108 -22q-338 465 -762 1104h-13z" />
    <glyph glyph-name="ncommaaccent" unicode="&#x146;" horiz-adv-x="1142" 
d="M572 -109q42 0 79 -41t37 -92q0 -162 -184 -262q-29 29 -45 53q109 68 108 148q0 55 -80 76q-9 49 17 83t68 35zM707 881q139 0 217 -140q41 -66 41 -149q0 -35 -7 -496l132 -6q0 -59 -3 -88l-411 -4q0 61 2 90l119 6q6 4 6 8q2 111 2 321t-27 257q-43 78 -139 78
q-55 0 -132 -35t-140 -86q-4 -307 -5 -541l148 -6l-2 -90l-232 2l-198 -2q0 59 2 90l121 6q8 0 8 6l-2 635l-158 4l2 84q37 6 157 30q119 23 126 24q4 0 9 -33t17 -94l11 -2q143 86 203 108t133 23z" />
    <glyph glyph-name="Ncaron" unicode="&#x147;" horiz-adv-x="1466" 
d="M1001 1667l-243 -205q-49 0 -72 2q-27 20 -111 91t-131 108q27 37 54 63q86 -55 225 -145l102 68q84 55 123 82q31 -27 53 -64zM360 1090q0 -659 -2 -990l205 -4l-2 -94h-270l-195 -2q0 65 2 94l131 6q8 0 9 9v1124l-150 4q-2 33 2 96l295 -2q381 -565 733 -1106l10 2
q-4 672 -8 1006l-192 2l2 96h254l196 2v-94l-125 -6q-6 0 -6 -8l-6 -1217q-49 -23 -108 -22q-338 465 -762 1104h-13z" />
    <glyph glyph-name="ncaron" unicode="&#x148;" horiz-adv-x="1142" 
d="M381 1298l192 -188q63 61 191 188q27 -16 61 -55q-35 -39 -111 -129t-104 -123q-37 -4 -75 0q-18 23 -96 114q-77 91 -117 140q29 29 59 53zM707 881q139 0 217 -140q41 -66 41 -149q0 -35 -7 -496l132 -6q0 -59 -3 -88l-411 -4q0 61 2 90l119 6q6 4 6 8q2 111 2 321
t-27 257q-43 78 -139 78q-55 0 -132 -35t-140 -86q-4 -307 -5 -541l148 -6l-2 -90l-232 2l-198 -2q0 59 2 90l121 6q8 0 8 6l-2 635l-158 4l2 84q37 6 157 30q119 23 126 24q4 0 9 -33t17 -94l11 -2q143 86 203 108t133 23z" />
    <glyph glyph-name="Omacron" unicode="&#x14c;" horiz-adv-x="1470" 
d="M975 1507l-461 2q-4 45 0 95q156 4 461 4q4 -51 0 -101zM742 82q192 0 302 127q148 174 148 463t-145 452q-117 125 -293 125t-295 -106q-180 -164 -180 -469t151 -465q120 -127 312 -127zM718 -20q-265 0 -433 172q-182 182 -183 503q0 188 81 343t204 239
q170 115 378 115q380 0 534 -327q69 -144 69 -318q0 -350 -213 -562q-172 -165 -437 -165z" />
    <glyph glyph-name="omacron" unicode="&#x14d;" horiz-adv-x="1034" 
d="M743 1038l-411 2q-4 45 0 93q274 4 411 4q4 -47 0 -99zM517 70q103 0 169 67q92 101 92 293t-76 276t-180 85q-104 0 -172 -70q-94 -96 -94 -292t96 -292q62 -67 165 -67zM496 -20q-170 0 -277 96q-135 125 -135 347t172 365q117 92 276 92t259 -75q159 -121 159 -361
t-176 -378q-108 -86 -278 -86z" />
    <glyph glyph-name="Ohungarumlaut" unicode="&#x150;" horiz-adv-x="1470" 
d="M834 1458l-52 64q230 200 271 237q39 -35 73 -88q-160 -113 -292 -213zM879 1677l-297 -209q-47 59 -52 64q140 120 273 233q29 -25 76 -88zM742 82q192 0 302 127q148 174 148 463t-145 452q-117 125 -293 125t-295 -106q-180 -164 -180 -469t151 -465
q120 -127 312 -127zM718 -20q-265 0 -433 172q-182 182 -183 503q0 188 81 343t204 239q170 115 378 115q380 0 534 -327q69 -144 69 -318q0 -350 -213 -562q-172 -165 -437 -165z" />
    <glyph glyph-name="ohungarumlaut" unicode="&#x151;" horiz-adv-x="1034" 
d="M567 1042q214 223 242 256q39 -33 80 -79q-18 -16 -266 -236q-39 39 -56 59zM362 993l-57 60q107 109 244 254q29 -23 82 -80zM517 70q103 0 169 67q92 101 92 293t-76 276t-180 85q-104 0 -172 -70q-94 -96 -94 -292t96 -292q62 -67 165 -67zM496 -20q-170 0 -277 96
q-135 125 -135 347t172 365q117 92 276 92t259 -75q159 -121 159 -361t-176 -378q-108 -86 -278 -86z" />
    <glyph glyph-name="OE" unicode="&#x152;" horiz-adv-x="1996" 
d="M279 671q0 -297 133 -443t321 -146q129 0 231 68q101 68 156 196v655q-47 115 -143 182t-236 66q-180 0 -292 -112q-170 -170 -170 -466zM1122 0v174q-139 -195 -428 -194q-238 0 -405 161q-187 186 -187 514q0 186 78 342t220 255t350 100q123 0 222 -47t150 -121v147
l105 -2l434 2h178q12 -188 16 -309q-82 -10 -106 -12l-35 174q-6 35 -51 39q-119 10 -320 10l-59 -2l-2 -498q207 0 317 4q45 0 52 41l10 96h104q-4 -123 -4 -194v-191q-68 -4 -106 -2l-6 105q-2 41 -54 41q-186 4 -313 2l-2 -496q0 -27 17 -34t185 -7t228 15q27 6 39 41
l66 184q49 -6 104 -21q-31 -152 -72 -319l-602 2h-123z" />
    <glyph glyph-name="oe" unicode="&#x153;" horiz-adv-x="1599" 
d="M1174 784q-88 0 -144 -61q-82 -88 -86 -201q225 0 397 6q27 0 27 23q0 105 -53 169t-141 64zM517 70q103 0 167 63q92 101 92 293t-78 287q-68 78 -176 78t-174 -76q-92 -98 -92 -290t96 -288q62 -67 165 -67zM1182 -20q-252 0 -334 184h-10q-46 -82 -134 -133t-206 -51
q-176 0 -277 94q-137 132 -137 354t170 358q119 94 285 95q115 1 199 -57t118 -144h10q52 96 140 148t198 53q158 -1 240 -101t82 -272q-8 -20 -32 -46t-40 -28q-188 -6 -518 -6q-8 -336 278 -336q111 0 271 66q12 -35 24 -92q-172 -86 -327 -86z" />
    <glyph glyph-name="Racute" unicode="&#x154;" horiz-adv-x="1228" 
d="M780 1741q41 -53 74 -111q-76 -43 -342 -194q-10 14 -49 69q96 70 317 236zM520 664q176 0 263 88t87 214t-91 199q-91 74 -247 74q-96 0 -116 -10l-4 -561q12 -4 108 -4zM252 109v1122l-141 4q0 63 2 94q229 4 396 4q167 -1 275 -31t182 -116t72 -204q0 -118 -76 -213
t-202 -144v-11q35 -13 55 -34q21 -21 31 -32t25 -36t25 -38q24 -32 88 -164q65 -132 94 -169q28 -37 46 -37l127 -6q0 -31 -4 -96h-135q-37 -2 -133 -2q-39 50 -136 242t-129 239t-72 67t-126 21q-86 0 -106 -4v-463l172 -6q0 -63 -2 -96l-246 2l-223 -2q0 63 2 96l129 6
q10 0 10 7z" />
    <glyph glyph-name="racute" unicode="&#x155;" horiz-adv-x="768" 
d="M305 1042l275 277q45 -37 88 -90q-259 -213 -306 -250q-3 3 -57 63zM207 100v639l-150 2q0 57 2 86q245 42 285 52q5 0 10 -279l11 -2q84 164 145 223t130 59t122 -22q0 -33 -20 -84t-37 -65q-6 0 -40 7t-65 7t-70 -29q-63 -57 -133 -192q-35 -63 -36 -161t-1 -247
l193 -4q0 -59 -2 -88h-260l-213 -2q0 61 2 88l119 6q8 0 8 6z" />
    <glyph glyph-name="Rcommaaccent" unicode="&#x156;" horiz-adv-x="1228" 
d="M671 -88q44 0 81 -45q36 -45 36 -121t-52 -152t-136 -124q-33 41 -47 61q113 74 113 166q0 61 -84 84q-8 55 18 93q27 38 71 38zM520 664q176 0 263 88t87 214t-91 199q-91 74 -247 74q-96 0 -116 -10l-4 -561q12 -4 108 -4zM252 109v1122l-141 4q0 63 2 94q229 4 396 4
q167 -1 275 -31t182 -116t72 -204q0 -118 -76 -213t-202 -144v-11q35 -13 55 -34q21 -21 31 -32t25 -36t25 -38q24 -32 88 -164q65 -132 94 -169q28 -37 46 -37l127 -6q0 -31 -4 -96h-135q-37 -2 -133 -2q-39 50 -136 242t-129 239t-72 67t-126 21q-86 0 -106 -4v-463
l172 -6q0 -63 -2 -96l-246 2l-223 -2q0 63 2 96l129 6q10 0 10 7z" />
    <glyph glyph-name="rcommaaccent" unicode="&#x157;" horiz-adv-x="768" 
d="M334 -109q41 0 78 -41t37 -92q0 -162 -185 -262q-29 29 -45 53q109 68 109 150q0 51 -80 76q-8 47 18 82q27 34 68 34zM207 100v639l-150 2q0 57 2 86q245 42 285 52q5 0 10 -279l11 -2q84 164 145 223t130 59t122 -22q0 -33 -20 -84t-37 -65q-6 0 -40 7t-65 7t-70 -29
q-63 -57 -133 -192q-35 -63 -36 -161t-1 -247l193 -4q0 -59 -2 -88h-260l-213 -2q0 61 2 88l119 6q8 0 8 6z" />
    <glyph glyph-name="Rcaron" unicode="&#x158;" horiz-adv-x="1228" 
d="M346 1726l225 -147q160 106 226 150q27 -20 53 -64q-49 -41 -244 -205q-49 0 -71 2q-127 109 -242 199q25 37 53 65zM520 664q176 0 263 88t87 214t-91 199q-91 74 -247 74q-96 0 -116 -10l-4 -561q12 -4 108 -4zM252 109v1122l-141 4q0 63 2 94q229 4 396 4
q167 -1 275 -31t182 -116t72 -204q0 -118 -76 -213t-202 -144v-11q35 -13 55 -34q21 -21 31 -32t25 -36t25 -38q24 -32 88 -164q65 -132 94 -169q28 -37 46 -37l127 -6q0 -31 -4 -96h-135q-37 -2 -133 -2q-39 50 -136 242t-129 239t-72 67t-126 21q-86 0 -106 -4v-463
l172 -6q0 -63 -2 -96l-246 2l-223 -2q0 63 2 96l129 6q10 0 10 7z" />
    <glyph glyph-name="rcaron" unicode="&#x159;" horiz-adv-x="768" 
d="M229 1298l193 -188q63 61 190 188q27 -16 62 -55q-179 -208 -215 -254h-76q-12 14 -213 256q29 29 59 53zM207 100v639l-150 2q0 57 2 86q245 42 285 52q5 0 10 -279l11 -2q84 164 145 223t130 59t122 -22q0 -33 -20 -84t-37 -65q-6 0 -40 7t-65 7t-70 -29
q-63 -57 -133 -192q-35 -63 -36 -161t-1 -247l193 -4q0 -59 -2 -88h-260l-213 -2q0 61 2 88l119 6q8 0 8 6z" />
    <glyph glyph-name="Sacute" unicode="&#x15a;" horiz-adv-x="1007" 
d="M815 1653l-344 -197q-31 41 -47 70q235 174 317 235q45 -57 74 -108zM556 1247q-114 -1 -188 -65t-73 -165q0 -101 53 -147t224 -123t249 -157t78 -211q0 -178 -123 -289t-364 -110q-182 0 -301 49l-27 323q74 13 117 17l37 -215q4 -16 16 -23q70 -47 209 -47t210 74
t71 180t-54 155q-53 50 -220 125t-249 157q-82 83 -82 208q0 82 38 155q111 213 429 214q166 0 250 -45q16 -160 23 -303q-91 -13 -113 -15l-35 193q-6 18 -12 24q-49 41 -163 41z" />
    <glyph glyph-name="sacute" unicode="&#x15b;" horiz-adv-x="821" 
d="M330 1036l274 275q53 -43 88 -90l-305 -248q-29 31 -57 63zM264 646q0 -64 36 -89t168 -63t197 -90q65 -50 64 -156q0 -139 -131 -217q-86 -51 -243 -51t-251 38q-13 129 -30 238q49 12 106 18l27 -133q6 -16 18 -24q55 -43 142 -43q209 0 211 147q0 69 -39 95t-105 46
t-67 21l-21 6q-125 39 -178 92t-53 140q0 135 129 206q94 53 238 53t206 -36q16 -141 23 -226l-105 -14l-28 129q-2 14 -15 23q-39 30 -119 30t-130 -38t-50 -102z" />
    <glyph glyph-name="Scedilla" unicode="&#x15e;" horiz-adv-x="1007" 
d="M463 82q139 0 215 82q66 66 66 172t-54 157q-53 50 -220 125t-249 157q-82 83 -82 208q0 80 37 153q109 215 430 216q166 0 250 -45q16 -160 23 -303q-91 -13 -113 -15l-35 193q-2 14 -12 24q-49 41 -163 41q-114 -1 -188 -65t-73 -165q0 -101 53 -147t224 -123t249 -157
t78 -213q0 -176 -119 -285q-84 -74 -213 -98l-125 -129q70 -10 105 -48t35 -89q0 -78 -78 -130t-211 -55q-4 22 -7 44q-3 23 -5 32q170 4 170 96q0 82 -132 80q-5 10 -18 49l139 136q-35 0 -53 2q-156 0 -276 45q-3 53 -13 163t-14 162q76 12 117 15l37 -213q2 -16 16 -25
q70 -47 209 -47z" />
    <glyph glyph-name="scedilla" unicode="&#x15f;" horiz-adv-x="821" 
d="M367 74q209 0 211 147q0 69 -39 95t-105 46t-67 21l-21 6q-125 39 -178 92t-53 140q0 135 129 206q94 53 238 53t206 -36q16 -141 23 -226l-105 -14l-28 129q-2 14 -15 23q-39 30 -119 30t-130 -38t-50 -102t37 -89t168 -63t196 -90q65 -50 64 -156q0 -139 -131 -217
q-41 -27 -125 -41l-119 -121q55 -10 86 -46t31 -85q0 -76 -71 -122t-185 -48q-4 16 -8 70q147 10 147 90q0 32 -26 56t-84 23l-19 43l133 130h-34q-135 2 -220 38q-13 129 -30 238q45 10 106 18l27 -133q6 -16 18 -24q55 -43 142 -43z" />
    <glyph glyph-name="Scaron" unicode="&#x160;" horiz-adv-x="1007" 
d="M559 1579l225 152q27 -25 54 -66q-94 -82 -244 -203h-72q-139 117 -241 199q20 31 51 65zM556 1247q-114 -1 -188 -65t-73 -165q0 -101 53 -147t224 -123t249 -157t78 -211q0 -178 -123 -289t-364 -110q-182 0 -301 49l-27 323q74 13 117 17l37 -215q4 -16 16 -23
q70 -47 209 -47t210 74t71 180t-54 155q-53 50 -220 125t-249 157q-82 83 -82 208q0 82 38 155q111 213 429 214q166 0 250 -45q16 -160 23 -303q-91 -13 -113 -15l-35 193q-6 18 -12 24q-49 41 -163 41z" />
    <glyph glyph-name="scaron" unicode="&#x161;" horiz-adv-x="821" 
d="M244 1298l192 -188q50 47 191 188q35 -25 59 -55q-26 -31 -102 -122t-111 -130q-37 -4 -76 0q-127 152 -215 254q20 20 62 53zM264 646q0 -64 36 -89t168 -63t197 -90q65 -50 64 -156q0 -139 -131 -217q-86 -51 -243 -51t-251 38q-13 129 -30 238q49 12 106 18l27 -133
q6 -16 18 -24q55 -43 142 -43q209 0 211 147q0 69 -39 95t-105 46t-67 21l-21 6q-125 39 -178 92t-53 140q0 135 129 206q94 53 238 53t206 -36q16 -141 23 -226l-105 -14l-28 129q-2 14 -15 23q-39 30 -119 30t-130 -38t-50 -102z" />
    <glyph glyph-name="Tcommaaccent" unicode="&#x162;" horiz-adv-x="1161" 
d="M582 -94q43 0 80 -46t36 -104q0 -184 -188 -293q-8 8 -47 60q113 76 112 166q0 66 -83 84q-8 55 19 94q28 39 71 39zM504 109v1120q-207 0 -266 -8q-45 -2 -52 -39l-32 -197q-45 2 -115 10l20 336l189 -2h692q84 2 176 2q8 -104 17 -334q-33 -4 -115 -12l-31 199
q-6 35 -51 39q-80 6 -268 6l-4 -1127l188 -6l-2 -96l-258 2l-264 -2q0 65 2 96l166 6q8 0 8 7z" />
    <glyph glyph-name="tcommaaccent" unicode="&#x163;" horiz-adv-x="733" 
d="M409 -117q43 0 79 -41t36 -92q0 -160 -184 -264q-33 37 -45 55q109 68 108 148q0 55 -79 75q-8 49 17 84q26 35 68 35zM356 217q0 -125 144 -125q68 0 186 31q4 -16 14 -90q-141 -51 -288 -51q-98 0 -158 53q-37 33 -46 67t-9 93l2 315l2 238h-142q0 39 5 100q45 0 131 4
q12 0 12 14q6 93 6 191q44 28 93 49q50 20 54 20t5 -6q-4 -139 -5 -266q217 0 322 2q0 -14 -6 -106h-320v-230q-2 -84 -2 -303z" />
    <glyph glyph-name="Tcaron" unicode="&#x164;" horiz-adv-x="1161" 
d="M877 1663l-246 -205q-49 0 -70 2q-180 152 -242 199q25 37 54 65q190 -124 223 -147q160 106 225 149q27 -25 56 -63zM504 109v1120q-207 0 -266 -8q-45 -2 -52 -39l-32 -197q-45 2 -115 10l20 336l189 -2h692q84 2 176 2q8 -104 17 -334q-33 -4 -115 -12l-31 199
q-6 35 -51 39q-80 6 -268 6l-4 -1127l188 -6l-2 -96l-258 2l-264 -2q0 65 2 96l166 6q8 0 8 7z" />
    <glyph glyph-name="tcaron" unicode="&#x165;" horiz-adv-x="733" 
d="M565 1327q41 0 78 -41t37 -92q0 -162 -184 -262q-29 29 -45 53q109 68 108 150q0 51 -80 75q-7 47 19 82t67 35zM356 217q0 -125 144 -125q68 0 186 31q4 -16 14 -90q-141 -51 -288 -51q-98 0 -158 53q-37 33 -46 67t-9 93l2 315l2 238h-142q0 39 5 100q45 0 131 4
q12 0 12 14q6 93 6 191q44 28 93 49q50 20 54 20t5 -6q-4 -139 -5 -266q217 0 322 2q0 -14 -6 -106h-320v-230q-2 -84 -2 -303z" />
    <glyph glyph-name="Umacron" unicode="&#x16a;" horiz-adv-x="1370" 
d="M698 1606q152 0 230 2q4 -51 0 -101l-461 2q-4 45 0 95q79 2 231 2zM695 90q153 0 249 99t96 356q0 467 -2 676q0 8 -8 8l-172 4q0 66 2 96h453q0 -61 -2 -94l-131 -6l-4 -686q-2 -287 -144 -437q-123 -126 -344 -126t-342 118q-82 78 -108 182t-27 259v680q0 12 -10 12
l-125 4q0 66 2 94h221l260 2q0 -66 -2 -96l-178 -6l-4 -674q-2 -143 18 -221t66 -135q82 -109 236 -109z" />
    <glyph glyph-name="umacron" unicode="&#x16b;" horiz-adv-x="1081" 
d="M768 1042l-412 2q-4 45 0 93q275 4 412 4q4 -47 0 -99zM434 -20q-102 0 -183 87t-81 193l2 496l-125 2q0 33 4 94l277 8q6 0 6 -6q-6 -232 -6 -434t30 -252q48 -74 146 -74t237 103v559l-131 4q0 66 2 96l285 4q4 0 4 -6l-4 -731q0 -29 14 -29l138 2q0 -59 -2 -86
q-92 -31 -232 -30q-32 30 -65 108l-11 2q-125 -74 -180 -92t-125 -18z" />
    <glyph glyph-name="Uring" unicode="&#x16e;" horiz-adv-x="1370" 
d="M797 1608q0 42 -26 70t-70 28q-45 0 -71 -30t-26 -70t28 -69q28 -28 70 -28t69 28q26 28 26 71zM704 1782q87 0 141 -49t54 -124t-56 -125q-55 -50 -141 -50t-143 46t-57 121t57 128q58 53 145 53zM695 90q153 0 249 99t96 356q0 467 -2 676q0 8 -8 8l-170 4q0 66 2 96
h451q0 -61 -2 -94l-131 -6l-4 -686q-2 -287 -144 -437q-123 -126 -344 -126t-342 118q-82 78 -108 182t-27 259v680q0 12 -10 12l-125 4q0 66 2 94h221l262 2q0 -66 -2 -96l-180 -6l-4 -674q-2 -143 18 -221t66 -135q82 -109 236 -109z" />
    <glyph glyph-name="uring" unicode="&#x16f;" horiz-adv-x="1081" 
d="M512 1266q-47 0 -74 -30q-26 -30 -26 -71t28 -69t74 -29q45 0 70 29q24 30 24 72t-24 70q-25 28 -72 28zM514 1339q86 0 138 -48t52 -122t-54 -125q-56 -51 -139 -51t-139 48t-56 120t56 125t142 53zM434 -20q-102 0 -183 87t-81 193l2 496l-125 2q0 33 4 94l277 8
q6 0 6 -6q-6 -232 -6 -434t30 -252q48 -74 146 -74t237 103v559l-131 4q0 66 2 96l285 4q4 0 4 -6l-4 -731q0 -29 14 -29l138 2q0 -59 -2 -86q-92 -31 -232 -30q-32 30 -65 108l-11 2q-125 -74 -180 -92t-125 -18z" />
    <glyph glyph-name="Uhungarumlaut" unicode="&#x170;" horiz-adv-x="1370" 
d="M1014 1757q29 -29 73 -86l-294 -215q-12 16 -52 66q130 110 273 235zM543 1466l-51 64q86 75 272 235q41 -41 74 -90q-145 -102 -295 -209zM695 90q153 0 249 99t96 356q0 467 -2 676q0 8 -8 8l-170 4q0 66 2 96h451q0 -61 -2 -94l-131 -6l-4 -686q-2 -287 -144 -437
q-123 -126 -344 -126t-342 118q-82 78 -108 182t-27 259v680q0 12 -10 12l-125 4q0 66 2 94h221l262 2q0 -66 -2 -96l-180 -6l-4 -674q-2 -143 18 -221t66 -135q82 -109 236 -109z" />
    <glyph glyph-name="uhungarumlaut" unicode="&#x171;" horiz-adv-x="1081" 
d="M811 1298q39 -31 82 -79q-18 -16 -266 -236l-58 57q144 152 242 258zM309 1051q12 12 244 256q29 -23 82 -80q-232 -202 -270 -234q-39 39 -56 58zM434 -20q-102 0 -183 87t-81 193l2 496l-125 2q0 33 4 94l277 8q6 0 6 -6q-6 -232 -6 -434t30 -252q48 -74 146 -74
t237 103v559l-131 4q0 66 2 96l285 4q4 0 4 -6l-4 -731q0 -29 14 -29l138 2q0 -59 -2 -86q-92 -31 -232 -30q-32 30 -65 108l-11 2q-125 -74 -180 -92t-125 -18z" />
    <glyph glyph-name="Uogonek" unicode="&#x172;" horiz-adv-x="1370" 
d="M649 -223q0 -55 29 -83t69 -28t82 17q14 -31 21 -70q-59 -39 -137 -39q-79 0 -135 44t-56 120q0 129 160 242q-223 12 -336 116q-82 80 -108 184t-27 259v680q0 12 -10 12l-125 4q0 66 2 96h483q0 -63 -2 -96l-180 -6l-4 -676q-2 -143 18 -221t66 -135q82 -109 235 -109
q154 0 250 98t96 357q0 469 -2 678q0 8 -8 8l-172 4l2 96h240l213 2q0 -63 -2 -96l-131 -6l-4 -686q-2 -291 -144 -437q-74 -76 -233 -126q-59 -18 -105 -83t-45 -120z" />
    <glyph glyph-name="uogonek" unicode="&#x173;" horiz-adv-x="1081" 
d="M924 -297q39 0 77 14q10 -25 21 -63q-57 -35 -128 -35t-123 41t-52 111q0 111 137 211q-14 -2 -41 -2q-33 31 -65 108l-11 2q-125 -74 -180 -92t-125 -18q-102 0 -183 87t-81 193l2 496l-125 2q0 33 4 94l277 8q6 0 6 -6q-6 -232 -6 -434t30 -252q48 -74 146 -74t237 103
v559l-131 4q0 66 2 96l285 4q4 0 4 -6l-4 -731q0 -29 14 -29l138 2q0 -59 -2 -86l-37 -6q-37 -6 -62 -16q-113 -57 -112 -187q0 -45 24 -71t64 -27z" />
    <glyph glyph-name="Ydieresis" unicode="&#x178;" horiz-adv-x="1150" 
d="M810 1651q44 0 67 -28q23 -27 23 -63t-26 -62t-64 -26t-64 28q-26 26 -26 60t24 62q22 28 66 29zM465 1651q43 0 65 -29q22 -28 21 -62q0 -34 -24 -61q-25 -27 -63 -27t-64 26q-26 24 -26 61t24 65t67 27zM-10 1333l200 -2l289 2q0 -66 -2 -96l-184 -6q113 -223 311 -598
h10q205 371 304 590q4 8 -7 8l-166 6q0 63 3 94h253l177 2q0 -63 -2 -94l-105 -8q-63 -109 -205 -357t-204 -356l-3 -416l189 -6q0 -35 -4 -96l-258 2l-260 -2q0 63 2 96l161 4q10 2 11 13v401q-41 72 -396 711q-6 6 -10 8l-106 4q0 66 2 96z" />
    <glyph glyph-name="Zacute" unicode="&#x179;" horiz-adv-x="1193" 
d="M807 1628l-344 -194q-31 41 -47 69q94 70 315 236q37 -47 76 -111zM264 109h350q170 0 213 7q42 7 62 11q41 10 55 55l68 209q51 -6 116 -20q-57 -258 -86 -373l-349 2h-597q-18 37 -37 88q174 222 838 1124l-4 11l-346 2q-150 0 -207 -6q-33 -10 -45 -52l-66 -215
q-66 8 -112 19l63 362q45 0 189 -4h688q27 -59 37 -108q-574 -778 -832 -1106z" />
    <glyph glyph-name="zacute" unicode="&#x17a;" horiz-adv-x="903" 
d="M322 1034l274 277q33 -27 88 -90q-74 -59 -305 -250q-2 2 -57 63zM782 -2l-147 2h-549q-16 37 -29 80q510 602 572 676l-2 10q-182 0 -326 -4q-47 0 -57 -31l-54 -162q-23 2 -106 19l59 272l191 -2q227 -4 452 0q16 -41 31 -102q-22 -27 -569 -654l2 -8q285 0 377 8
q49 4 63 41l58 162q53 -8 104 -22q-45 -188 -70 -285z" />
    <glyph glyph-name="Zdotaccent" unicode="&#x17b;" horiz-adv-x="1193" 
d="M629 1675q47 1 71 -29t23 -68q0 -38 -27 -67q-26 -29 -68 -29t-70 28t-28 67t26 69t73 29zM264 109h350q170 0 213 7q42 7 62 11q41 10 55 55l68 209q51 -6 116 -20q-57 -258 -86 -373l-349 2h-597l-37 88q174 222 838 1124l-4 11l-344 2q-152 0 -209 -6q-31 -10 -43 -52
l-66 -215q-59 6 -114 19q33 186 65 362q43 0 187 -4h688q27 -59 37 -108q-574 -778 -832 -1106z" />
    <glyph glyph-name="zdotaccent" unicode="&#x17c;" horiz-adv-x="903" 
d="M455 1214q47 0 69 -28t23 -67q0 -39 -26 -67q-25 -28 -67 -28t-70 27t-28 65t26 68t73 30zM782 -2l-147 2h-549q-16 37 -29 80l574 676l-4 10q-178 0 -326 -4q-45 0 -55 -31l-53 -162q-27 4 -109 19q41 184 59 272l191 -2q229 -4 454 0q16 -47 29 -102
q-133 -162 -569 -654l2 -8q285 0 377 8q49 4 63 41l58 162q53 -8 104 -22q-45 -188 -70 -285z" />
    <glyph glyph-name="Zcaron" unicode="&#x17d;" horiz-adv-x="1193" 
d="M412 1724l225 -147q160 106 225 149q27 -25 56 -63l-246 -205q-49 0 -72 2q-180 152 -242 199q25 37 54 65zM264 109h350q170 0 213 7q42 7 62 11q41 10 55 55l68 209q51 -6 116 -20q-57 -258 -86 -373l-349 2h-597q-18 37 -37 88q174 222 838 1124l-4 11l-346 2
q-150 0 -207 -6q-33 -10 -45 -52l-66 -215q-66 8 -112 19l63 362q45 0 189 -4h688q27 -59 37 -108q-574 -778 -832 -1106z" />
    <glyph glyph-name="zcaron" unicode="&#x17e;" horiz-adv-x="903" 
d="M262 1298l193 -188l190 188q35 -25 60 -55q-180 -212 -213 -254h-76q-84 96 -213 256q29 29 59 53zM782 -2l-147 2h-549q-16 37 -29 80q510 602 572 676l-2 10q-182 0 -326 -4q-47 0 -57 -31l-54 -162q-23 2 -106 19l59 272l191 -2q227 -4 452 0q16 -41 31 -102
q-22 -27 -569 -654l2 -8q285 0 377 8q49 4 63 41l58 162q53 -8 104 -22q-45 -188 -70 -285z" />
    <glyph glyph-name="florin" unicode="&#x192;" horiz-adv-x="1073" 
d="M102 -322q-70 0 -118 19q2 20 21 61t36 62q98 -18 129 -19q78 0 139 67q61 68 75 220t26 557h-246q0 41 4 98q164 4 235 5q6 0 11 14q6 190 33 274q28 84 112 164q141 141 346 141q84 0 137 -26q0 -19 -22 -65t-41 -64q-100 28 -183 28q-82 0 -132 -58t-70 -141t-29 -267
l389 2q0 -57 -6 -103q-272 0 -387 -2q-18 -449 -39 -586q-22 -165 -150 -273t-270 -108z" />
    <glyph glyph-name="Scommaaccent" unicode="&#x218;" horiz-adv-x="1007" 
d="M504 -106q43 0 80 -46t37 -104q0 -184 -189 -293q-31 33 -47 60q113 76 113 165q0 66 -84 84q-8 55 19 95q28 39 71 39zM556 1247q-114 -1 -188 -65t-73 -165q0 -101 53 -147t224 -123t249 -157t78 -211q0 -178 -123 -289t-364 -110q-182 0 -301 49l-27 323q74 13 117 17
l37 -215q4 -16 16 -23q70 -47 209 -47t210 74t71 180t-54 155q-53 50 -220 125t-249 157q-82 83 -82 208q0 82 38 155q111 213 429 214q166 0 250 -45q16 -160 23 -303q-91 -13 -113 -15l-35 193q-6 18 -12 24q-49 41 -163 41z" />
    <glyph glyph-name="scommaaccent" unicode="&#x219;" horiz-adv-x="821" 
d="M415 -117q42 0 79 -41t36 -92q0 -162 -184 -262q-29 29 -45 53q109 68 109 150q0 51 -80 76q-8 49 18 83t67 33zM264 646q0 -64 36 -89t168 -63t197 -90q65 -50 64 -156q0 -139 -131 -217q-86 -51 -240 -51t-256 38q-6 70 -28 238q47 12 104 18l29 -133q6 -16 18 -24
q55 -43 142 -43q209 0 211 147q0 69 -39 95t-105 46t-67 21l-21 6q-125 39 -178 92t-53 140q0 135 129 206q94 53 238 53t206 -36q16 -141 23 -226l-105 -14l-28 129q-2 14 -15 23q-39 30 -119 30t-130 -38t-50 -102z" />
    <glyph glyph-name="uni021A" unicode="&#x21a;" horiz-adv-x="1161" 
d="M582 -94q43 0 80 -46t36 -104q0 -182 -186 -293q-31 33 -47 60q111 76 110 166q0 66 -81 84q-8 55 18 94q27 39 70 39zM502 109v1120q-203 0 -257 -5t-61 -42l-32 -197q-49 2 -113 10q12 159 18 336l189 -2h694q84 2 178 2q12 -205 17 -334q-16 -2 -115 -12l-33 199
q-4 35 -49 39q-84 6 -268 6l-6 -1127l188 -6l-2 -96l-258 2l-264 -2v96l166 6q8 0 8 7z" />
    <glyph glyph-name="uni021B" unicode="&#x21b;" horiz-adv-x="733" 
d="M410 -117q42 0 78 -41t36 -92q0 -162 -184 -264q-33 37 -45 55q109 68 108 148q0 57 -79 75q-8 49 18 84q27 35 68 35zM356 217q0 -125 144 -125q68 0 186 31q4 -16 14 -90q-140 -51 -264 -51t-182 53q-37 33 -46 67t-9 93l2 317l2 238h-142q0 37 5 98q86 4 131 4
q12 0 12 22q0 92 6 183q44 28 93 49q50 20 54 20t5 -6q-4 -139 -5 -268q104 2 322 2q0 -8 -6 -106h-320v-230q-2 -82 -2 -301z" />
    <glyph glyph-name="circumflex" unicode="&#x2c6;" horiz-adv-x="681" 
d="M381 1272l213 -254q-39 -39 -59 -55q-130 129 -193 188q-31 -29 -190 -188q-18 16 -62 53q121 145 215 254q25 2 76 2z" />
    <glyph glyph-name="caron" unicode="&#x2c7;" horiz-adv-x="681" 
d="M342 1110q145 145 193 188q27 -18 59 -55q-35 -39 -111 -129t-104 -123q-35 -4 -76 0q-127 156 -213 254q31 31 62 53l94 -94q65 -65 96 -94z" />
    <glyph glyph-name="uni02C9" unicode="&#x2c9;" horiz-adv-x="681" 
d="M547 1137v-99l-412 2q-4 45 0 93q275 4 412 4z" />
    <glyph glyph-name="breve" unicode="&#x2d8;" horiz-adv-x="681" 
d="M338 997q-90 -1 -155 57t-83 140q31 14 80 27q64 -119 164 -119t154 110q49 -6 84 -20q-16 -70 -85 -132t-159 -63z" />
    <glyph glyph-name="dotaccent" unicode="&#x2d9;" horiz-adv-x="681" 
d="M344 1221q47 0 70 -29q22 -29 22 -67q0 -39 -26 -67t-67 -28q-42 0 -70 27q-27 27 -27 65t25 69q26 30 73 30z" />
    <glyph glyph-name="ring" unicode="&#x2da;" horiz-adv-x="681" 
d="M344 1266q-47 0 -74 -30q-26 -30 -26 -71t28 -69t74 -29q45 0 70 29q24 30 24 72t-24 70q-25 28 -72 28zM346 1339q86 0 138 -48t52 -122t-54 -125q-56 -51 -139 -51t-139 48t-56 120t56 125t142 53z" />
    <glyph glyph-name="ogonek" unicode="&#x2db;" horiz-adv-x="681" 
d="M406 -219q0 123 157 229h86q-127 -96 -127 -203q0 -45 26 -69t64 -25q38 0 76 15q12 -31 19 -64q-53 -35 -125 -35t-124 41t-52 111z" />
    <glyph glyph-name="tilde" unicode="&#x2dc;" horiz-adv-x="681" 
d="M233 1221q37 0 81 -25t53 -37q8 -4 32 -24t38 -22q13 -3 34 -3q41 0 53 104h76q-12 -209 -139 -208q-49 0 -117 50t-87 56t-32 6q-47 0 -67 -100h-76q16 203 151 203z" />
    <glyph glyph-name="hungarumlaut" unicode="&#x2dd;" horiz-adv-x="681" 
d="M328 1042q202 211 241 256q47 -39 82 -79q-127 -111 -266 -236q-49 49 -57 59zM66 1053l245 254q29 -23 82 -80q-131 -113 -270 -234z" />
    <glyph glyph-name="pi" unicode="&#x3c0;" horiz-adv-x="1112" 
d="M307 956h737l-16 -116h-135v-559q0 -186 27 -281h-144q-31 61 -31 266v574h-335q-8 -209 -50 -467t-90 -373h-141q53 137 92 384t45 456q-123 0 -198 -19l-21 90q82 45 260 45z" />
    <glyph glyph-name="uni2010" unicode="&#x2010;" horiz-adv-x="645" 
d="M308 545q168 0 272 4q0 -43 -5 -113h-509q0 74 2 107q72 2 240 2z" />
    <glyph glyph-name="figuredash" unicode="&#x2012;" horiz-adv-x="1073" 
d="M478 666q248 0 528 4q0 -45 -5 -111h-931q0 72 4 105q156 2 404 2z" />
    <glyph glyph-name="endash" unicode="&#x2013;" horiz-adv-x="1024" 
d="M66 436q0 74 2 109h448q184 0 442 4q0 -47 -4 -113h-888z" />
    <glyph glyph-name="emdash" unicode="&#x2014;" horiz-adv-x="2048" 
d="M68 545q1272 0 1914 4q0 -47 -4 -113h-1912q0 74 2 109z" />
    <glyph glyph-name="quoteleft" unicode="&#x2018;" horiz-adv-x="413" 
d="M232 965q-52 0 -94 48q-42 49 -42 133t64 174t157 138q35 -35 56 -69q-129 -82 -129 -185q0 -63 92 -90q10 -66 -21 -108t-83 -41z" />
    <glyph glyph-name="quoteright" unicode="&#x2019;" horiz-adv-x="413" 
d="M183 1432q53 0 95 -48t42 -134q0 -84 -64 -174q-63 -90 -160 -138q-23 29 -53 70q129 86 129 186q0 68 -92 88q-10 66 20 108q31 42 83 42z" />
    <glyph glyph-name="quotesinglbase" unicode="&#x201a;" horiz-adv-x="485" 
d="M228 205q52 0 94 -48t43 -133q1 -86 -63 -176t-161 -137q-23 29 -53 70q129 86 129 186q0 66 -92 90q-10 63 20 106q31 42 83 42z" />
    <glyph glyph-name="quotedblleft" unicode="&#x201c;" horiz-adv-x="731" 
d="M555 993q-49 0 -90 46t-41 126t60 165t153 130q20 -20 53 -65q-125 -84 -125 -176q0 -57 92 -84q8 -61 -22 -102q-31 -40 -80 -40zM227 993q-51 0 -91 46t-40 126t60 165t153 130q31 -31 53 -65q-125 -84 -124 -176q0 -59 94 -84q8 -63 -23 -103t-82 -39z" />
    <glyph glyph-name="quotedblright" unicode="&#x201d;" horiz-adv-x="731" 
d="M506 1432q49 0 90 -46t41 -126q1 -80 -61 -166t-152 -131q-20 25 -53 67q125 80 125 176q0 59 -95 88q-6 62 25 100t80 38zM177 1432q50 0 91 -46t41 -126t-61 -166t-152 -131q-20 25 -53 67q125 80 125 176q0 61 -92 88q-8 63 21 101q30 37 80 37z" />
    <glyph glyph-name="quotedblbase" unicode="&#x201e;" horiz-adv-x="802" 
d="M551 195q49 -1 90 -47t41 -126t-60 -166q-60 -85 -153 -130q-20 25 -53 67q125 80 125 176q0 57 -95 88q-6 61 25 99t80 39zM223 195q49 -1 90 -47t41 -126t-60 -166q-60 -85 -153 -130q-20 25 -53 67q125 80 125 176q0 55 -92 88q-8 63 22 101q31 37 80 37z" />
    <glyph glyph-name="dagger" unicode="&#x2020;" horiz-adv-x="929" 
d="M520 1339q10 0 10 -8q-2 -154 -6 -448l326 2q0 -43 -4 -113h-324q-10 -604 -16 -1065q-41 -12 -109 -18q0 12 -16 1083h-301q0 39 4 109l278 2q16 0 17 14q0 162 -4 391q27 16 81 34t64 17z" />
    <glyph glyph-name="daggerdbl" unicode="&#x2021;" horiz-adv-x="929" 
d="M516 295h334q0 -53 -6 -107l-330 -2q-6 -457 -6 -479q-12 -4 -111 -18q-4 346 -8 495l-309 -2q0 59 6 115l289 -2q10 0 10 14q0 180 -4 463h-303q0 8 6 107q184 4 278 4q16 0 17 14q-4 279 -6 397q20 14 76 30t79 15l-6 -456l330 2q0 -61 -6 -113h-324q-6 -234 -6 -477z
" />
    <glyph glyph-name="bullet" unicode="&#x2022;" horiz-adv-x="630" 
d="M322 743q96 -1 148 -67t52 -151t-58 -148t-148 -63t-149 58q-58 60 -58 150t58 156q59 65 155 65z" />
    <glyph glyph-name="onedotenleader" unicode="&#x2024;" horiz-adv-x="542" 
d="M275 209q54 0 82 -36t28 -80t-31 -78q-31 -33 -81 -33t-82 32q-31 32 -31 77q0 46 30 82q31 36 85 36z" />
    <glyph glyph-name="twodotenleader" unicode="&#x2025;" horiz-adv-x="1083" 
d="M819 209q55 0 82 -36t27 -80t-31 -78q-31 -33 -81 -33t-82 32t-32 77q0 46 31 82t86 36zM275 209q54 0 82 -36t28 -80t-31 -78q-31 -33 -81 -33t-82 32q-31 32 -31 77q0 46 30 82q31 36 85 36z" />
    <glyph glyph-name="ellipsis" unicode="&#x2026;" horiz-adv-x="1626" 
d="M1361 209q54 0 82 -36q27 -36 27 -80t-30 -78q-30 -33 -81 -33q-50 0 -82 32t-32 77q0 46 31 82t85 36zM819 209q55 0 82 -36t27 -80t-31 -78q-31 -33 -81 -33t-82 32t-32 77q0 46 31 82t86 36zM275 209q54 0 82 -36t28 -80t-31 -78q-31 -33 -81 -33t-82 32
q-31 32 -31 77q0 46 30 82q31 36 85 36z" />
    <glyph glyph-name="perthousand" unicode="&#x2030;" horiz-adv-x="2279" 
d="M1898 580q-72 0 -112 -48q-66 -76 -66 -218t52 -197t119 -55q66 0 108 38q67 57 67 210t-59 222q-37 48 -109 48zM1174 580q-66 0 -113 -48q-66 -74 -66 -221t64 -207q43 -43 109 -43q175 0 173 256q0 145 -59 215q-42 48 -108 48zM1908 662q118 0 191 -70
q98 -94 99 -260q0 -80 -28 -154t-73 -117q-82 -81 -200 -81t-180 47q-128 97 -128 276q0 178 115 283q86 76 204 76zM1182 662q119 0 188 -66q102 -96 102 -267t-102 -270q-80 -79 -197 -79q-201 1 -277 166q-32 71 -32 159q0 178 117 281q82 76 201 76zM395 1253
q-72 0 -114 -45q-66 -70 -66 -220t66 -208q49 -45 108 -45t103 35q72 64 72 216t-62 224q-35 43 -107 43zM393 653q-117 0 -190 60q-119 92 -119 267t109 277q82 76 217 80q498 0 737 23q25 -31 43 -62q-59 -104 -361 -649q-199 -367 -383 -702q-49 18 -90 41
q252 451 691 1274l-7 6q-131 -4 -448 -8q43 -31 73 -99t29 -147q0 -172 -104 -281q-80 -80 -197 -80z" />
    <glyph glyph-name="guilsinglleft" unicode="&#x2039;" horiz-adv-x="524" 
d="M242 457q109 -166 202 -295q-29 -29 -65 -56q-141 156 -289 308q-2 25 -2 75q123 127 289 310q41 -29 65 -58q-159 -223 -200 -284z" />
    <glyph glyph-name="guilsinglright" unicode="&#x203a;" horiz-adv-x="524" 
d="M285 455q-49 74 -203 286q31 31 68 58q96 -106 288 -307q0 -53 -2 -78q-162 -168 -286 -308q-31 23 -66 58q82 113 201 291z" />
    <glyph glyph-name="fraction" unicode="&#x2044;" horiz-adv-x="157" 
d="M-334 6q245 429 735 1344q72 -27 91 -35q-51 -91 -292 -531t-452 -815q-47 18 -82 37z" />
    <glyph glyph-name="zero.superior" unicode="&#x2070;" 
d="M351 1475q-56 0 -85 -48q-47 -63 -47 -223t41 -219q27 -43 83 -43t85 39q43 63 43 218t-33 220q-31 56 -87 56zM359 1548q109 0 177 -80t68 -262t-94 -276q-60 -62 -170 -62t-174 64q-80 86 -80 272t100 281q63 63 173 63z" />
    <glyph glyph-name="four.superior" unicode="&#x2074;" 
d="M399 1430h-12q-18 -27 -55 -74q-38 -46 -56 -72t-48 -65t-56 -76q-8 -12 4 -13h223v300zM627 1130q0 -53 -2 -81h-121v-97l86 -2v-67h-326v67l129 2q6 0 6 4v91h-311l-39 77l330 422q88 0 129 -2l-2 -414h121z" />
    <glyph glyph-name="five.superior" unicode="&#x2075;" 
d="M567 1534q0 -31 -4 -88h-297q-6 -31 -26 -146q53 4 84 5q116 1 188 -53t72 -158t-83 -165q-83 -63 -207 -63t-179 13q-12 61 -27 172q63 14 88 16l27 -100q2 -6 8 -13q25 -10 87 -10t109 36q46 36 46 101t-47 103t-114 36q-67 0 -159 -10l-8 7q14 135 41 317h401z" />
    <glyph glyph-name="six.superior" unicode="&#x2076;" 
d="M354 940q53 0 85 38t32 108t-45 104q-25 22 -64 22q-92 -1 -141 -77q-4 -111 51 -162q29 -33 82 -33zM391 1294q86 0 141 -49q68 -53 68 -159t-82 -166q-66 -52 -176 -52t-172 62q-80 76 -80 229q0 209 115 314q86 76 209 75q80 0 131 -18q12 -98 16 -154q-14 -4 -44 -9
l-42 -7l-22 90q-1 21 -61 22t-103 -49q-62 -73 -72 -190h4q84 61 170 61z" />
    <glyph glyph-name="seven.superior" unicode="&#x2077;" 
d="M604 1450q-239 -386 -239 -573q-43 -4 -129 -5q0 72 34 162t213 404l-4 6q-217 2 -258 0q-20 -2 -26 -27l-25 -86q-12 2 -84 12q6 45 31 191h461q18 -47 26 -84z" />
    <glyph glyph-name="eight.superior" unicode="&#x2078;" 
d="M339 940q58 0 100 28t42 80t-40 82t-132 62q-109 -53 -108 -139q0 -51 40 -82t98 -31zM229 1378q0 -66 140 -114q88 43 88 118q0 41 -25 68t-81 27t-89 -25t-33 -74zM78 1040q0 121 149 183v8q-117 51 -116 147q-1 72 65 121t176 49t166 -42t55 -109q1 -105 -120 -162v-8
q147 -45 151 -166q0 -84 -72 -139q-72 -56 -200 -56t-190 48q-64 48 -64 126z" />
    <glyph glyph-name="nine.superior" unicode="&#x2079;" 
d="M211 1335q0 -129 121 -129q32 0 70 20t63 56q0 109 -49 160q-37 33 -87 33t-84 -40t-34 -100zM84 1326q0 93 80 161q66 61 178 61t182 -72t70 -225q0 -209 -115 -309q-84 -74 -211 -74q-82 0 -139 17q-4 25 -12 76t-13 75q27 8 84 17l31 -86q4 -12 12 -15q10 -8 52 -8
q160 0 186 242h-6q-76 -62 -169 -62q-94 0 -152 54t-58 148z" />
    <glyph glyph-name="parenleft.superior" unicode="&#x207d;" horiz-adv-x="471" 
d="M141 1210q0 136 77 256t179 179q20 -25 41 -58q-70 -53 -122 -157t-52 -238q0 -252 172 -406q-27 -35 -51 -53q-68 51 -114 101t-88 144q-42 96 -42 232z" />
    <glyph glyph-name="parenright.superior" unicode="&#x207e;" horiz-adv-x="471" 
d="M334 1194q0 -276 -250 -461l-47 55q172 158 172 405t-170 396l43 56q100 -55 176 -174t76 -277z" />
    <glyph glyph-name="n.superior" unicode="&#x207f;" horiz-adv-x="874" 
d="M59 670q0 51 2 75l95 5q6 0 6 6l-2 454l-121 2q0 47 2 70q70 10 146 25q75 16 80 16t5 -4q10 -72 13 -90l2 -2q106 66 151 82t101 16q100 0 161 -102q31 -55 31 -121q0 -135 -4 -352l102 -5q0 -51 -2 -75h-319v75l88 3q6 2 6 8v260q0 119 -18 151q-33 55 -105 56
q-37 0 -92 -25t-98 -59l-2 -389l108 -5l-2 -75h-334z" />
    <glyph glyph-name="zero.inferior" unicode="&#x2080;" 
d="M351 369q-56 0 -85 -47q-47 -63 -47 -223t41 -220q27 -43 83 -43t85 39q43 63 43 218t-33 220q-31 56 -87 56zM359 442q109 0 177 -80t68 -262t-94 -276q-60 -62 -170 -62t-174 64q-80 86 -80 272t100 281q63 63 173 63z" />
    <glyph glyph-name="one.inferior" unicode="&#x2081;" 
d="M131 -223q0 49 2 73l170 5q4 0 4 4v448q-90 -18 -174 -41l-14 78l311 107q2 0 2 -7l-2 -589l158 -2q0 -51 -2 -76h-455z" />
    <glyph glyph-name="two.inferior" unicode="&#x2082;" 
d="M571 250q0 -149 -258 -341q-35 -26 -45 -34l2 -10l308 8q6 0 6 -4q-6 -42 -6 -90h-472q-12 29 -22 65q167 115 269 217q24 25 56 78q67 110 -1 197q-30 31 -92 31t-95 -27q-6 -4 -6 -12l-18 -109l-86 6q10 165 10 183q94 38 212 38t178 -55t60 -141z" />
    <glyph glyph-name="three.inferior" unicode="&#x2083;" 
d="M315 367q-57 0 -92 -23q-6 -6 -6 -12l-16 -96q-29 0 -86 4q4 53 8 166q84 36 209 36t182 -44t57 -105q0 -119 -147 -162v-8q82 -10 124 -56t42 -102q0 -96 -86 -151q-72 -52 -201 -52t-188 15q-16 106 -23 176q31 6 88 14l25 -100q14 -28 90 -28q76 -1 119 31t43 87
t-47 87t-125 32h-78q-2 27 -2 78q236 -2 235 118q0 95 -125 95z" />
    <glyph glyph-name="four.inferior" unicode="&#x2084;" 
d="M399 324h-12q-18 -27 -55 -74q-38 -46 -56 -72t-48 -65t-56 -76q-8 -12 4 -12h223v299zM627 25q0 -53 -2 -82h-121v-97l86 -2v-67h-326v67l129 2q6 0 6 4v91h-311l-39 77l330 422q88 0 129 -2l-2 -413h121z" />
    <glyph glyph-name="five.inferior" unicode="&#x2085;" 
d="M567 428q0 -31 -4 -88h-297q-6 -31 -26 -145q53 4 84 4q116 1 188 -53t72 -156t-83 -165t-207 -63t-179 13q-10 55 -27 170q63 14 88 16l27 -98q2 -6 8 -13q27 -10 91 -10t107 36q44 36 44 102t-47 101t-114 35t-159 -10l-8 7q14 135 41 317h401z" />
    <glyph glyph-name="six.inferior" unicode="&#x2086;" 
d="M354 -166q53 0 85 38t32 108t-45 104q-25 22 -64 22q-92 -1 -141 -77q-4 -111 51 -162q29 -33 82 -33zM389 188q88 0 143 -49q68 -53 68 -159t-82 -166q-66 -52 -176 -52t-172 62q-80 76 -80 229q0 209 115 314q86 76 209 75q80 0 131 -18q12 -98 16 -154q-14 -4 -44 -9
l-42 -7l-22 90q-1 21 -61 22t-103 -49q-62 -73 -72 -190h4q80 61 168 61z" />
    <glyph glyph-name="seven.inferior" unicode="&#x2087;" 
d="M236 -233q0 72 34 162t213 403l-4 6q-217 2 -258 0q-20 -2 -26 -27l-25 -86q-12 2 -84 13q6 45 31 190h461q18 -47 26 -84q-239 -386 -239 -573q-43 -4 -129 -4z" />
    <glyph glyph-name="eight.inferior" unicode="&#x2088;" 
d="M339 -164q58 0 100 28t42 80t-39 81t-133 61q-109 -51 -108 -137q0 -51 40 -82t98 -31zM229 272q0 -66 140 -114q88 45 88 118q0 41 -25 68t-83 27t-83 -23q-37 -27 -37 -76zM78 -63q0 121 149 180v8q-117 55 -116 147q-1 72 65 121t176 49t166 -42t55 -109
q1 -107 -120 -160v-8q147 -45 151 -166q0 -86 -72 -140q-72 -55 -200 -55t-193 52q-61 43 -61 123z" />
    <glyph glyph-name="nine.inferior" unicode="&#x2089;" 
d="M211 231q0 -131 121 -131q32 0 70 20t63 56q0 111 -49 162q-37 33 -87 33t-84 -40t-34 -100zM84 221q0 94 80 162q66 61 178 61t182 -72t70 -225q0 -211 -115 -311q-84 -74 -211 -74q-82 0 -139 17q-4 25 -12 76t-13 75q27 8 84 17l31 -86q4 -12 12 -15q10 -8 52 -8
q160 0 186 242h-6q-76 -62 -169 -62q-94 0 -152 54t-58 149z" />
    <glyph glyph-name="parenleft.inferior" unicode="&#x208d;" horiz-adv-x="471" 
d="M141 104q0 136 77 256t179 179q20 -25 41 -58q-70 -53 -122 -157t-52 -238q0 -252 172 -405q-27 -35 -51 -54q-68 51 -114 101t-88 144q-42 96 -42 232z" />
    <glyph glyph-name="parenright.inferior" unicode="&#x208e;" horiz-adv-x="471" 
d="M334 88q0 -276 -250 -461q-11 11 -47 56q172 159 172 405t-170 395l43 56q100 -55 176 -174t76 -277z" />
    <glyph glyph-name="colonmonetary" unicode="&#x20a1;" horiz-adv-x="1081" 
d="M410 231l77 861q-106 -52 -176 -178q-69 -126 -69 -282t41 -245q41 -90 127 -156zM621 172l88 961q-61 4 -129 -11l-88 -927q66 -21 129 -23zM84 586q0 215 112 386t302 230l22 248q43 8 92 6l-22 -231q66 12 127 12l20 213q41 10 92 6l-22 -223q152 -6 235 -59
q0 -25 -22 -65t-43 -60q-90 61 -180 73l-92 -950q121 8 276 70q18 -66 23 -97q-183 -69 -308 -77l-20 -226q-27 -2 -86 -2l22 223q-80 4 -131 17l-24 -238q-27 -2 -84 -2l26 264q-151 58 -233 190t-82 292z" />
    <glyph glyph-name="Euro" unicode="&#x20ac;" horiz-adv-x="1073" 
d="M4 702v86h107q55 238 243 398q186 154 434 153q143 0 234 -45q8 -100 20 -342q-96 -12 -114 -12l-33 219q-4 23 -16 31q-57 37 -137 37t-162 -35q-80 -35 -140 -96q-125 -129 -164 -308h515v-86h-527q-4 -44 -4 -82t2 -61h529v-86l-517 2q34 -235 250 -338
q88 -41 178 -41q141 0 330 86q20 -63 25 -104q-88 -39 -124 -53q-116 -45 -259 -45q-213 0 -378 128t-198 367h-94v84h84v41q0 59 8 102h-92z" />
    <glyph glyph-name="uni2113" unicode="&#x2113;" horiz-adv-x="978" 
d="M365 1020v-457q272 283 272 549q0 193 -131 193q-59 0 -100 -72t-41 -213zM539 -20q-147 0 -227 90q-79 90 -89 237q0 10 -2 17q-23 -16 -63 -45t-45 -33l-47 86q121 88 155 119v538q0 217 82 321t206 105q125 0 191 -83t66 -216q0 -336 -401 -698v-29q0 -283 206 -283
q156 1 273 177l78 -70q-135 -233 -383 -233z" />
    <glyph glyph-name="trademark" unicode="&#x2122;" horiz-adv-x="1269" 
d="M614 1268h-67q0 43 2 61h194q53 -170 121 -373h10q106 310 123 373h191q0 -39 -2 -61h-68q2 -125 2 -385l68 -2v-64l-111 2l-92 -2q0 41 2 64l47 2q4 209 4 319h-10q-51 -152 -133 -360h-66q-70 178 -129 366h-10q2 -98 2 -325l49 -2v-64l-92 2l-102 -2v64l65 2
q2 123 2 385zM225 1268q-61 0 -96 -6l-14 -101q-10 2 -33 2t-35 2q2 74 6 166q76 -2 230 -2l213 2q4 -92 6 -166q-16 0 -70 -4l-12 101q-37 6 -96 6v-385h77v-66l-122 2l-127 -2v64l73 2v385z" />
    <glyph glyph-name="Omega" unicode="&#x2126;" horiz-adv-x="1429" 
d="M858 0v98q129 88 215 248t86 356t-117 361q-116 164 -322 164t-328 -161q-122 -160 -122 -358t88 -363t213 -247v-98h-487v125h285v8q-113 95 -186 243t-72 326q0 287 175 469q175 183 440 183t429 -180t164 -455q0 -362 -260 -586v-8h287l2 -125h-490z" />
    <glyph glyph-name="estimated" unicode="&#x212e;" horiz-adv-x="1699" 
d="M1325 676v368q0 25 -18 43q-191 191 -457 191t-455 -195q-18 -18 -18 -47v-360q0 -10 10 -10h930q8 0 8 10zM1599 629h-1212q-10 0 -10 -11v-364q0 -27 16 -43q186 -199 468 -199t476 221h109q-104 -121 -260 -191t-334 -71q-311 0 -530 198q-220 199 -220 477t220 476
t529 197q310 0 529 -198t219 -476v-16z" />
    <glyph glyph-name="onethird" unicode="&#x2153;" horiz-adv-x="1501" 
d="M1118 590q-57 0 -92 -23q-6 -6 -6 -12l-16 -96q-29 0 -86 4q4 53 8 166q84 37 211 37t182 -43t55 -107q0 -119 -147 -162v-8q82 -10 124 -56t42 -102q0 -98 -86 -153q-72 -51 -200 -51t-192 14q-3 22 -20 178q47 10 88 12l25 -100q14 -28 90 -28q76 -1 118 31t44 88
q0 56 -48 88t-125 32h-79v78q236 -2 235 119q0 94 -125 94zM336 6q222 388 735 1344q74 -25 94 -35q-80 -143 -275 -503t-468 -843q-43 14 -86 37zM115 1237l306 106q7 0 7 -6l-2 -589l158 -3q0 -51 -2 -75h-455q0 49 2 73l170 5q4 0 4 4v448q-90 -18 -174 -41z" />
    <glyph glyph-name="twothirds" unicode="&#x2154;" horiz-adv-x="1501" 
d="M1122 590q-57 0 -92 -23q-6 -6 -6 -12l-16 -96q-29 0 -86 4q4 53 8 166q84 37 211 37t182 -43t55 -107q0 -119 -147 -162v-8q82 -10 124 -56t42 -102q0 -98 -86 -153q-72 -51 -202 -51t-189 14q-4 34 -12 98t-11 80q45 8 90 12l23 -100q14 -28 91 -28q77 -1 120 31t43 88
t-47 88t-125 32h-80v78q236 -2 235 119q0 94 -125 94zM340 6q231 405 735 1344q74 -25 94 -35q-87 -154 -245 -446t-226 -410t-272 -490q-43 14 -86 37zM330 1337q123 0 182 -55t59 -141q0 -150 -260 -343q-35 -26 -43 -32l2 -10l308 8q6 0 6 -4q-6 -42 -6 -90h-472
q-12 29 -22 65q167 115 269 217q24 25 56 78q31 52 31 106t-30 88t-94 34q-62 0 -95 -27q-6 -2 -6 -12l-18 -109l-86 6q10 165 10 182q86 39 209 39z" />
    <glyph glyph-name="oneeighth" unicode="&#x215b;" horiz-adv-x="1501" 
d="M1142 57q58 0 99 28t41 80t-39 82t-131 62q-109 -55 -108 -139q0 -51 40 -82t98 -31zM1030 496q0 -66 141 -117q88 45 89 121q0 41 -25 65q-25 29 -82 29t-90 -26t-33 -72zM1405 178q0 -86 -72 -140q-73 -54 -199 -54t-190 47t-63 127q0 119 147 182v8q-117 51 -117 148
q0 72 66 120t177 50q110 0 166 -42t56 -112q0 -103 -121 -160v-8q150 -45 150 -166zM344 6q245 429 735 1344q74 -25 95 -35q-80 -143 -266 -486t-478 -860q-43 14 -86 37zM123 1237l306 106q7 0 7 -6l-2 -589l158 -3q0 -51 -2 -75h-455q0 49 2 73l170 5q4 0 4 4v448
q-90 -18 -174 -41z" />
    <glyph glyph-name="threeeighths" unicode="&#x215c;" horiz-adv-x="1501" 
d="M991 170q0 -51 40 -82t98 -31q57 0 99 28t42 80t-39 82t-131 62q-109 -55 -109 -139zM1018 496q0 -66 141 -117q88 45 88 121q-1 42 -25 68t-81 26t-90 -26t-33 -72zM1393 178q0 -86 -72 -140t-199 -54t-190 47t-64 127q0 119 148 182v8q-117 51 -117 148q0 72 66 120
t177 50q110 0 166 -42t56 -112q0 -103 -121 -160v-8q150 -45 150 -166zM420 -31q-43 14 -86 37q184 322 344 620t389 724q74 -25 94 -35q-143 -256 -303 -551q-160 -296 -281 -514q-122 -218 -157 -281zM455 1165q0 95 -125 95q-57 0 -92 -23l-7 -12l-14 -97q-27 0 -88 5
q4 53 8 165q84 37 211 37t182 -43t56 -106q0 -119 -146 -162v-8q82 -10 124 -56t42 -102q0 -98 -86 -153q-72 -51 -201 -51t-188 14q-14 102 -22 176q31 6 88 14l24 -100q14 -28 90 -28q76 -1 119 31t43 88t-47 88t-125 32h-80q-2 27 -2 78q236 -2 236 118z" />
    <glyph glyph-name="fiveeighths" unicode="&#x215d;" horiz-adv-x="1501" 
d="M987 170q0 -51 40 -82t98 -31q57 0 99 28t42 80t-39 82t-131 62q-109 -55 -109 -139zM1014 496q0 -66 139 -117q88 45 88 121q-1 42 -25 68t-80 26q-122 0 -122 -98zM1118 -16q-127 0 -190 47t-64 127q0 119 148 182v8q-117 51 -117 148q-1 72 65 120t176 50
q110 0 162 -41q59 -43 60 -113q0 -103 -121 -160v-8q147 -45 152 -166q0 -86 -72 -140t-199 -54zM328 6q245 429 735 1344q74 -25 94 -35q-51 -92 -255 -467t-327 -592q-122 -217 -161 -287q-43 14 -86 37zM594 1321q0 -31 -4 -88h-297q-6 -31 -27 -146q53 4 84 5
q115 0 188 -54q72 -54 72 -156q0 -104 -83 -166t-207 -62t-179 12q-12 61 -26 172q63 14 88 16l26 -100q2 -6 9 -13q25 -10 87 -10t108 36t46 102q0 67 -47 103t-132 36t-140 -13l-8 9q14 135 41 317h401z" />
    <glyph glyph-name="seveneighths" unicode="&#x215e;" horiz-adv-x="1501" 
d="M1068 57q58 0 99 28t41 80t-39 82t-131 62q-109 -55 -108 -139q0 -51 40 -82t98 -31zM956 496q0 -66 142 -115q88 43 88 119q0 41 -25 65q-25 29 -84 29t-84 -23q-37 -28 -37 -75zM1061 -16q-127 0 -191 47t-63 127q0 119 147 182v8q-117 55 -116 148q0 72 66 120t176 50
q110 0 166 -42t57 -110q0 -105 -121 -162v-6q150 -49 149 -168q1 -86 -71 -140t-199 -54zM270 6q227 399 736 1344q74 -25 94 -35q-51 -92 -256 -467t-327 -592t-161 -287q-43 14 -86 37zM670 1235q-242 -379 -242 -573q-86 -4 -129 -5q0 72 23 131q47 128 225 437l-4 6
h-258q-20 -2 -27 -27l-25 -88q-3 0 -35 6t-48 8q6 45 30 191h461q16 -41 29 -86z" />
    <glyph glyph-name="partialdiff" unicode="&#x2202;" horiz-adv-x="1071" 
d="M510 764q-116 0 -203 -104q-88 -104 -88 -246q0 -144 68 -224t180 -79h2q135 0 231 132t119 320q-33 84 -112 143q-81 58 -197 58zM469 1450q213 0 364 -184t151 -529t-156 -547q-155 -202 -373 -200q-186 0 -286 121q-99 121 -99 307t127 324t307 139q113 1 206 -55
t121 -117q1 -2 5 -2t4 71q0 260 -115 406t-271 145q-156 0 -270 -80l-47 99q152 102 332 102z" />
    <glyph glyph-name="Delta" unicode="&#x2206;" horiz-adv-x="1255" 
d="M242 129h764l-283 760q-78 211 -96 289h-9q-29 -98 -86 -258zM76 0v90l469 1243h168l465 -1241v-92h-1102z" />
    <glyph glyph-name="product" unicode="&#x220f;" horiz-adv-x="1251" 
d="M1026 1202v-1335h-147v1335h-504v-1335h-148v1335h-182v127h1163v-127h-182z" />
    <glyph glyph-name="summation" unicode="&#x2211;" horiz-adv-x="1042" 
d="M39 -133v94l506 633l-479 631v104h903v-129h-701v-8l451 -592l-473 -596v-8h788v-129h-995z" />
    <glyph glyph-name="minus" unicode="&#x2212;" horiz-adv-x="1073" 
d="M127 426q0 39 4 109q393 6 815 6q4 -54 -4 -115h-815z" />
    <glyph glyph-name="uni2215" unicode="&#x2215;" horiz-adv-x="157" 
d="M-334 6q245 429 735 1344q72 -27 91 -35q-51 -91 -292 -531t-452 -815q-47 18 -82 37z" />
    <glyph glyph-name="uni2219" unicode="&#x2219;" horiz-adv-x="501" 
d="M256 647q55 0 82 -36t27 -80q0 -43 -31 -77t-81 -34t-82 32t-32 78t31 81q31 36 86 36z" />
    <glyph glyph-name="radical" unicode="&#x221a;" horiz-adv-x="1112" 
d="M1143 1655l-457 -1835h-117l-317 852l-146 -62l-36 90l264 111l252 -705q27 -82 32 -106h3q18 90 22 106l375 1549h125z" />
    <glyph glyph-name="infinity" unicode="&#x221e;" horiz-adv-x="1464" 
d="M384 715q-87 0 -139 -53t-52 -129q0 -77 50 -129q51 -52 115 -51t123 34t89 62t87 86q-23 20 -67 65q-119 115 -206 115zM1094 354q76 0 127 54t51 129q0 76 -49 127t-113 51t-124 -32q-58 -33 -91 -63t-86 -85q8 -7 45 -45q104 -105 172 -125q33 -11 68 -11zM1087 242
q-63 0 -130 34t-107 67q-40 35 -72 67t-35 34l-6 6t-6 7q-127 -125 -203 -170t-185 -45t-189 82t-80 207t87 211t214 85q73 0 112 -20q38 -20 61 -32t71 -55q47 -44 53 -48t32 -30t29 -30q82 80 113 108q32 28 108 68t152 39q125 0 205 -82q80 -83 80 -207q1 -124 -87 -210
t-217 -86z" />
    <glyph glyph-name="integral" unicode="&#x222b;" horiz-adv-x="684" 
d="M538 1485q-139 0 -141 -363l21 -954q0 -467 -266 -467q-70 0 -105 20l23 101q42 -12 84 -12t77 40q63 78 64 318l-23 965q0 281 103 389q70 72 172 71q51 0 86 -14l-23 -102q-26 8 -72 8z" />
    <glyph glyph-name="approxequal" unicode="&#x2248;" horiz-adv-x="1073" 
d="M723 227q-89 0 -197 54q-51 23 -85 35t-87 14q-88 0 -178 -90l-61 73q106 119 241 119q81 0 199 -55q25 -10 73 -30q48 -19 95 -19q94 0 178 92l64 -72q-104 -121 -242 -121zM717 530q-95 0 -225 66q-30 15 -52 20q-39 16 -92 17q-92 0 -178 -90l-61 73q111 119 241 119
q75 0 159 -39q35 -15 67 -27q33 -13 47 -20q53 -16 94 -16q86 0 176 90l65 -72q-104 -121 -241 -121z" />
    <glyph glyph-name="notequal" unicode="&#x2260;" horiz-adv-x="1073" 
d="M948 385q0 -35 -4 -109l-418 -2q-31 -84 -71 -198q-78 31 -101 41q18 49 56 155q-193 0 -281 -2q-4 57 4 115h318q25 63 69 195h-391q0 39 4 108l426 2q14 39 38 108t32 91q37 -12 104 -43q-31 -92 -55 -154l270 2q4 -53 -4 -114h-305l-72 -195h381z" />
    <glyph glyph-name="lessequal" unicode="&#x2264;" horiz-adv-x="1073" 
d="M950 106q0 -37 -4 -106q-592 0 -813 -6q0 104 6 112h811zM213 653l-2 97q213 154 561 411q35 -43 62 -86q-248 -186 -480 -370l477 -400q-41 -59 -63 -82q-186 146 -555 430z" />
    <glyph glyph-name="greaterequal" unicode="&#x2265;" horiz-adv-x="1073" 
d="M123 -4q0 102 6 110q557 0 811 3q0 -39 -4 -109q-661 0 -813 -4zM707 690q-111 92 -480 387q29 49 62 84q233 -174 559 -420v-96q-193 -145 -557 -420q-25 25 -66 82q449 356 482 383z" />
    <glyph glyph-name="lozenge" unicode="&#x25ca;" horiz-adv-x="1032" 
d="M512 1245q0 -4 -6 -14t-12 -27l-265 -545l271 -553q8 -16 16 -40h4q4 12 21 40l262 547l-268 551q-16 33 -19 41h-4zM942 655l-362 -714h-125l-363 714l363 717h125z" />
    <glyph glyph-name="Euro.fitted" unicode="&#xe000;" horiz-adv-x="1259" 
d="M90 702v86h107q55 240 241 396t461 155q168 0 258 -45q12 -164 19 -342q-96 -12 -115 -12l-33 219q-4 25 -16 31q-55 37 -166 37q-197 0 -322 -130t-164 -309h564v-86h-576q-4 -44 -4 -82t2 -61h578v-86l-566 2q20 -137 111 -239q55 -64 147 -102t193 -38q166 0 358 86
q20 -84 25 -104q-246 -98 -412 -98q-233 0 -397 126t-199 369h-94v84h84v41q0 59 8 102h-92z" />
    <glyph glyph-name="Euro.oldstyle" unicode="&#xe001;" horiz-adv-x="1067" 
d="M45 510v78h96q41 196 200 322t398 126q145 0 226 -32q18 -262 18 -285q-61 -6 -115 -12l-26 174q-4 23 -15 24q-47 25 -129 25q-158 0 -261 -98t-130 -244l496 2v-80h-504v-37q0 -29 4 -70h498v-79l-479 2q20 -68 75 -133q96 -102 277 -103q131 0 299 62q14 -59 22 -101
q-209 -72 -352 -71q-209 0 -340 96q-123 94 -160 250h-98v80l84 -3q-2 17 -2 53t2 54h-84z" />
    <glyph glyph-name="cent.fitted" unicode="&#xe005;" horiz-adv-x="987" 
d="M242 626q0 -138 77 -223q68 -68 179 -77q6 318 6 663q-118 -17 -190 -121t-72 -242zM90 608q0 184 114 318t304 164q0 141 2 208q43 10 104 15q-4 -66 -4 -213q10 2 39 2q123 0 230 -51q0 -27 -22 -68t-44 -53q-119 63 -207 63l-8 -669q123 6 272 69q8 -20 27 -86
q-162 -74 -299 -86l-2 -217q-29 -4 -98 -8q0 141 2 221q-176 7 -293 107t-117 284z" />
    <glyph glyph-name="degree.oldstyle" unicode="&#xe006;" horiz-adv-x="643" 
d="M324 1161q-53 0 -84 -39t-31 -93t33 -89t84 -35t81 36q29 36 29 92t-29 92q-30 36 -83 36zM96 1022q0 92 67 158t165 67q98 0 159 -59q61 -60 61 -152t-65 -155q-67 -63 -161 -63t-160 56t-66 148z" />
    <glyph glyph-name="dollar.fitted" unicode="&#xe007;" horiz-adv-x="952" 
d="M739 370q0 93 -51 136t-170 82q-4 -299 -8 -428q102 12 166 64t63 146zM233 950q-1 -86 49 -125t167 -75q4 293 6 391q-98 -8 -152 -54q-70 -51 -70 -137zM92 922q0 68 38 132t99 105q96 66 230 74l2 209q41 10 104 14q-4 -113 -6 -219q178 2 285 -59q0 -23 -22 -64
t-44 -53q-123 72 -223 80q-4 -293 -8 -416q164 -51 247 -121t83 -190q-1 -156 -107 -245t-262 -103l-2 -207q-25 -2 -96 -9l2 211q-90 -4 -196 18t-175 60q25 80 76 115q158 -94 295 -98q4 135 8 454q-162 55 -245 121t-83 191z" />
    <glyph glyph-name="florin.fitted" unicode="&#xe00a;" horiz-adv-x="958" 
d="M41 -322q-70 0 -119 19q2 20 22 61q19 41 36 62q98 -18 129 -19q78 0 139 67t74 202q16 207 26 575h-246q0 41 4 98q164 4 236 5q6 0 10 14q6 190 34 274t112 164q141 141 346 141q84 0 137 -26q0 -19 -23 -65t-40 -64q-100 28 -183 28t-133 -58t-70 -141t-28 -267l389 2
q0 -57 -6 -103q-272 0 -387 -2q-18 -449 -39 -586q-23 -165 -151 -273t-269 -108z" />
    <glyph glyph-name="florin.oldstyle" unicode="&#xe00b;" horiz-adv-x="870" 
d="M737 1036q78 0 123 -20q0 -23 -18 -64t-37 -57q-75 23 -155 23t-120 -54q-68 -80 -69 -307l321 2q0 -39 -4 -100h-319q-20 -385 -33 -469q-18 -127 -128 -222t-232 -96q-70 0 -111 17q0 55 51 116q53 -16 107 -16q160 0 176 221q16 184 20 449h-203l3 96l196 2q8 0 8 12
q6 151 31 217t94 134q119 116 299 116z" />
    <glyph glyph-name="numbersign.oldstyle" unicode="&#xe00c;" horiz-adv-x="1081" 
d="M446 623q-35 -223 -45 -283h238q9 66 23 154t20 129h-236zM115 623q0 39 4 92q82 2 239 2q27 148 50 295q39 4 110 4q-16 -98 -53 -299h235q29 154 50 297q37 2 110 2q-13 -71 -51 -297h209q0 -53 -6 -96h-224q-15 -95 -47 -283h228q0 -49 -6 -94l-238 -2
q-9 -55 -29 -167t-30 -167q-68 -4 -101 -2q30 205 56 336h-238q-41 -242 -57 -334q-63 -4 -101 -2q35 207 54 336l-211 -2q0 43 4 100q78 -2 225 -2q16 94 45 283h-227z" />
    <glyph glyph-name="bullet.001" unicode="&#xe00d;" horiz-adv-x="2048" 
d="M778 -197l2 340q345 0 482 -4q6 -377 2 -493q-322 -4 -484 0q-2 68 -2 157zM1845 723q0 -371 -2 -496q-242 -6 -483 0q-6 258 0 498q86 2 268 0t217 -2zM684 723q4 -70 3 -243t1 -249q-193 -10 -487 -6q-6 207 2 496q139 6 481 2zM778 805v493q138 9 482 5q4 -81 5 -261
t3 -233q-102 -4 -490 -4z" />
    <glyph glyph-name="bullet.002" unicode="&#xe00e;" horiz-adv-x="2048" 
d="M719 53l8 21q543 0 606 -2q-123 -334 -264 -625h-65q-111 205 -285 606zM0 436v51q276 145 625 293q4 -170 4 -643q-443 197 -629 299zM2044 504q0 -41 -2 -62q-373 -199 -612 -295q-2 51 -3 639q402 -159 617 -282zM1055 1503q156 -307 274 -614q0 -2 -8 -15
q-233 -8 -602 -4q82 223 280 633h56z" />
    <glyph glyph-name="bullet.003" unicode="&#xe00f;" horiz-adv-x="2048" 
d="M1849 133q0 -238 -8 -491q-174 -2 -487 2q0 340 4 491q212 6 491 -2zM684 137q6 -199 2 -493q-143 -6 -487 0q-10 250 0 489q192 8 485 4zM1266 717q4 -279 4 -492q-254 -6 -494 0q-4 106 2 494q347 0 488 -2zM1847 1300q0 -197 -4 -491q-272 -4 -489 0q-2 174 2 496
q208 3 491 -5zM197 807l-2 491q129 6 489 2q2 -72 3 -242t3 -245q-164 -6 -493 -6z" />
    <glyph glyph-name="bullet.004" unicode="&#xe010;" horiz-adv-x="2048" 
d="M334 125h344q2 -35 2 -354q-229 -4 -346 -2q-4 229 0 356zM1603 -219l-233 2v348q94 4 342 4q4 -115 4 -352q-55 -2 -113 -2zM1202 315q-12 -385 -4 -696q621 -6 682 -6q4 473 0 692q-477 12 -678 10zM1067 463q342 2 946 -2q4 -543 0 -996q-412 -6 -948 3q-8 520 2 995z
M1360 1161q51 2 344 2q4 -94 4 -354q-219 -8 -346 0q-2 55 -2 352zM334 1159q68 4 340 4q4 -98 4 -352q-106 -4 -344 0q-4 182 0 348zM166 1331q-6 -537 2 -694q164 -8 682 6q2 150 -10 692q-70 2 -674 -4zM31 483v998q139 2 944 2q18 -449 2 -996q-180 -4 -946 -4z" />
    <glyph glyph-name="bullet.005" unicode="&#xe011;" horiz-adv-x="1875" 
d="M1034 -326l6 -2q244 6 289 9q0 164 -6 299q-211 0 -297 -5q0 -205 8 -301zM887 117q381 0 579 -2v-570q-251 -6 -575 -2q-4 360 -4 574zM553 971q201 -4 295 2q0 168 -6 303q-70 -2 -299 -8q6 -229 10 -297zM410 836v571q371 4 575 2q2 -93 2 -281v-288q-124 -4 -577 -4z
M1265 408q-668 0 -941 -7q-6 -176 0 -860q-86 -4 -138 -2l-14 10q2 215 2 544v442l14 8q981 0 1368 8q4 621 -2 862q96 4 152 0q-2 -395 -2 -995l-16 -10h-423z" />
    <glyph glyph-name="bullet.006" unicode="&#xe012;" horiz-adv-x="2048" 
d="M1415 72l-10 815q-274 6 -770 6l-2 -503q0 -151 2 -314q414 -10 780 -4zM1554 879v-174h478v-138q-145 -4 -478 -4v-172q328 0 478 -4v-133q-139 -2 -478 -2v-168l478 -4v-135q-147 -2 -484 -2v-480l-137 2l-6 461q-51 -2 -166 -2v-459q-18 -2 -135 -2v463h-166v-463
l-137 2l-2 459h-160q-6 -252 -6 -459h-135q-2 66 -2 241v235q-330 0 -480 2q-2 43 -2 135q258 0 480 6q-2 61 -2 172l-476 -2v133q399 6 476 6v174q-64 2 -234 2h-242q-2 25 -2 138h478v172l-476 2q-2 25 -2 137l482 2v467l135 2q4 -122 4 -457q51 2 168 2v451q43 2 133 2
q6 -332 6 -453h162q4 144 4 453q20 2 44 2l89 -2q4 -102 4 -453l164 -2q0 225 4 455h135v-465q132 -4 484 -4q4 -86 4 -133q-246 -6 -482 -6z" />
    <glyph glyph-name="bullet.007" unicode="&#xe013;" horiz-adv-x="2048" 
d="M1217 -295l10 -16q399 6 567 14q4 133 13 595t16 665l-17 2q-329 -666 -589 -1260zM102 -440v1820l21 13q504 10 731 0q0 -1078 2 -1809l-18 -22q-63 -2 -736 -2zM1946 -442q-137 0 -460 -1t-462 1l-18 28q549 1174 899 1852l37 4q4 -240 4 -1884z" />
    <glyph glyph-name="bullet.008" unicode="&#xe014;" horiz-adv-x="2048" 
d="M1239 1262l-10 -13q236 -563 577 -1255l15 2q-6 424 -29 1259q-111 7 -553 7zM1942 -487l-37 2q-358 696 -897 1853q8 20 12 29q139 2 463 1t461 -1q4 -1325 -2 -1884zM102 1395q673 0 736 -2l18 -19v-1814q-164 -4 -733 0l-19 12q-2 440 -2 1823z" />
    <glyph glyph-name="bullet.009" unicode="&#xe015;" horiz-adv-x="2048" 
d="M813 -319l8 16q-188 449 -573 1255h-19q5 -208 11 -670t8 -589q172 -8 565 -12zM1192 1395q90 0 366 1t369 -1l17 -13q2 -444 2 -1826h-736l-20 16q2 729 2 1823zM1040 -420l-12 -29q-139 -2 -464 -1t-462 1q-4 1327 2 1887l37 -2q356 -697 899 -1856z" />
    <glyph glyph-name="bullet.010" unicode="&#xe016;" horiz-adv-x="2048" 
d="M821 1241l-8 16q-401 6 -557 0q-10 -256 -20 -1263l16 -2q405 866 569 1249zM1946 1393l-2 -1825l-19 -12q-596 0 -733 4v1814l16 19q90 -2 217 -2zM104 1395h924l14 -29q-586 -1245 -899 -1851l-37 -2q-2 160 -2 1882z" />
    <glyph glyph-name="bullet.011" unicode="&#xe017;" horiz-adv-x="1761" 
d="M901 451l211 -568q126 0 297 6q8 565 8 1143q-612 -4 -1065 -12q-8 -1106 -8 -1135q193 -4 324 -4q203 537 215 570h18zM1157 -264l135 -369l-12 -14q-678 0 -799 2l-12 8q70 195 141 371q-287 0 -411 2v1435q641 6 1362 5q6 -999 4 -1438q-135 -2 -408 -2z" />
    <glyph glyph-name="bullet.012" unicode="&#xe018;" horiz-adv-x="1761" 
d="M870 375l21 -2q215 766 283 1030q-233 10 -592 6l-9 -12q254 -887 297 -1022zM1559 1155q0 -1044 -3 -1407q-782 -4 -1349 -2q0 1229 2 1407q102 2 293 2q-113 342 -125 379l12 12l668 2q172 0 293 -2l6 -14q-26 -111 -103 -377h306z" />
    <glyph glyph-name="bullet.013" unicode="&#xe019;" horiz-adv-x="2048" 
d="M1726 1022l-1054 8q-4 -238 -2 -364q178 -68 524 -211l2 -19q-233 -98 -524 -209q0 -104 4 -338q391 -8 1061 -8q-4 791 -11 1141zM520 1176l979 2q211 0 379 -2q6 -684 4 -1440q-362 -4 -1358 -4q-2 80 -2 448q-145 -59 -340 -133l-14 10q-4 451 2 797l8 10
q47 -18 164 -66t178 -73v451z" />
    <glyph glyph-name="bullet.014" unicode="&#xe01a;" horiz-adv-x="2048" 
d="M739 465l-2 -21q696 -201 992 -282q4 401 0 590l-11 12q-59 -18 -429 -129t-550 -170zM1518 -246q-1008 0 -1334 4q-8 702 -2 1393l862 2q242 0 472 -2q2 -115 2 -311q289 102 335 118l13 -10q4 -636 0 -962l-15 -6q-125 41 -333 98q2 -4 1 -162t-1 -162z" />
    <glyph glyph-name="bullet.015" unicode="&#xe01b;" horiz-adv-x="2048" 
d="M0 -549v318q135 0 841 -3t1207 5v-320h-2048zM0 115v1384h2048v-1372l-14 2q-72 90 -303 342h-15q-113 -115 -307 -336h-10q-143 201 -330 438h-12q-2 -2 -352 -423l-17 -3q-199 238 -315 361h-21q-111 -125 -338 -393h-14z" />
    <glyph glyph-name="bullet.016" unicode="&#xe01c;" horiz-adv-x="806" 
d="M377 145h39q111 -178 346 -610l-10 -16q-633 0 -705 2q185 372 330 624zM197 471q0 89 59 151t141 62t135 -59q54 -59 54 -147t-51 -150t-137 -62t-143 58q-58 58 -58 147zM424 809h-43q-113 188 -344 610l10 17q596 0 705 -2q-131 -275 -328 -625z" />
    <glyph glyph-name="bullet.017" unicode="&#xe01d;" horiz-adv-x="2048" 
d="M1208 472q0 -87 -49 -142q-49 -56 -133 -56t-135 56t-51 138q0 83 52 144q52 62 131 62t132 -58t53 -144zM694 494l2 -39q-319 -195 -596 -351l-16 11q0 641 2 712q293 -149 608 -333zM1352 446v46q125 76 594 346l16 -11q0 -641 -2 -712q-387 202 -608 331z" />
    <glyph glyph-name="bullet.018" unicode="&#xe01e;" horiz-adv-x="1175" 
d="M182 647l-182 -2v68q328 4 514 2q130 -88 234 -181t231 -229q137 0 197 2v-67q-311 -4 -514 -2q-84 47 -251 192t-229 217z" />
    <glyph glyph-name="bullet.019" unicode="&#xe01f;" horiz-adv-x="1175" 
d="M0 305h197q127 135 230 229t235 181q186 2 514 -2v-66l-183 2q-61 -72 -228 -218t-251 -193q-201 -2 -514 2v65z" />
    <glyph glyph-name="bullet.020" unicode="&#xe020;" horiz-adv-x="2011" 
d="M971 0h-312l-6 10q0 94 30 182t73 136q102 114 259 114t235 -127t87 -313q-51 -2 -366 -2zM1579 0v8q203 113 319 176q15 -41 21 -176l-6 -8h-334zM1014 594q-117 0 -199 -35t-158 -115q-125 -166 -141 -362h-10q-330 238 -377 272l2 6q231 45 416 78l2 4
q-96 276 -141 424l4 11q156 -72 413 -199h4q53 154 160 428h12q102 -221 187 -430h2q147 78 401 198l6 -8q-61 -209 -129 -428v-2q145 -39 379 -106v-11q-153 -98 -362 -217h-10q-23 211 -150 365q-117 127 -311 127zM1706 774l6 6q57 -70 94 -164t47 -159q-74 20 -221 67
q27 96 74 250zM1470 969l-4 -8q-106 -55 -213 -107q-16 41 -49 122t-47 122q86 -6 175 -45t138 -84zM840 1102l6 -6q-55 -170 -82 -240q-133 63 -238 121q40 43 138 83t176 42zM295 788h6q57 -178 80 -256q-31 -6 -219 -36q8 55 48 148t85 144zM98 190l8 7
q244 -152 300 -191l-3 -6q-49 -2 -159 -1t-156 1q-13 98 10 190z" />
    <glyph glyph-name="bullet.021" unicode="&#xe021;" horiz-adv-x="1814" 
d="M825 281q0 170 -22 950q27 25 84 39t102 6q-4 -115 -10 -498t-2 -514l4 -2q106 113 267 316t235 321q23 2 61 -49t47 -105q-67 -104 -225 -283t-287 -306l2 -4q133 2 357 17t252 28q6 -51 -3 -115t-26 -80q-150 -2 -744 0t-772 4q-31 47 -30 191q123 -31 614 -45l2 4
q-383 365 -547 585q4 45 34 95t63 65q75 -117 269 -338t271 -282h4z" />
    <glyph glyph-name="bullet.022" unicode="&#xe022;" horiz-adv-x="2048" 
d="M514 731l-8 -2q-152 -289 -336 -663l6 -7q213 -4 645 4l4 7q-118 270 -311 661zM1210 891l-6 -6q268 -520 344 -666h11q195 399 311 666l-4 6q-185 10 -656 0zM522 1006h15q250 -557 464 -1053l-6 -8q-602 -6 -999 2q-8 4 -10 8q260 535 536 1051zM1022 993l10 11
q494 8 1006 4l6 -9q-178 -418 -473 -1052h-15q-354 657 -534 1046z" />
    <glyph glyph-name="bullet.023" unicode="&#xe023;" horiz-adv-x="2048" 
d="M1001 -68l-10 -18q-254 -4 -964 2l-13 21q254 459 494 835h16q221 -371 477 -840zM1559 174l-17 -2q-217 344 -500 844l11 18q86 2 972 2l9 -20q-295 -545 -475 -842z" />
    <glyph glyph-name="bullet.024" unicode="&#xe024;" horiz-adv-x="1376" 
d="M627 -53l-6 -23q-84 -2 -598 -2l-7 23q131 207 287 438l23 2q123 -176 301 -438zM1040 555h-22q-190 283 -291 436l4 23q389 4 598 2l8 -23q-117 -178 -297 -438zM1376 383q-250 -347 -350 -481l-25 2q-305 422 -677 899q-217 -281 -324 -420v203q256 350 317 438h25
q483 -647 674 -893h18q39 51 342 455v-203z" />
    <glyph glyph-name="bullet.025" unicode="&#xe025;" horiz-adv-x="2048" 
d="M1257 348l3 4q-78 221 -146 383h-6q-180 -233 -248 -323l2 -6q157 -27 395 -58zM1380 248l-6 -6q-324 45 -657 102l-4 10q227 315 438 574l6 2q106 -307 223 -682zM1444 61l10 5q121 260 301 677l-4 15q-545 254 -1124 506l-9 -9q-2 -203 5 -1181q801 -13 821 -13z
M1522 -49l-13 -10q-669 0 -1005 4l-12 6q-2 500 2 1517l12 5q1030 -477 1421 -670l2 -17q-245 -513 -407 -835z" />
    <glyph glyph-name="bullet.026" unicode="&#xe026;" horiz-adv-x="2048" 
d="M750 573l325 -262l6 2q27 197 43 426l-4 2q-126 -52 -370 -161v-7zM557 616l-2 7q434 158 670 237l6 -6q-39 -369 -88 -688l-8 -4q-216 153 -578 454zM1427 74q0 38 11 819l-4 10q-305 145 -676 301l-15 -4q-175 -377 -505 -1122l8 -8q203 -2 1181 4zM33 -55l-4 12
q549 1176 669 1419l17 2q408 -190 833 -405l11 -12q0 -726 -5 -1006l-6 -12q-497 -2 -1515 2z" />
    <glyph glyph-name="bullet.027" unicode="&#xe027;" horiz-adv-x="2048" 
d="M924 217l4 -2q238 92 366 154v6q-190 162 -321 264l-6 -2q-16 -121 -43 -420zM821 96l-6 6q47 385 90 682l10 4q268 -190 572 -454l2 -6q-258 -99 -668 -232zM621 877q0 -36 -11 -822l4 -10q289 -133 676 -301l15 4q195 418 505 1124l-8 9q-203 2 -1181 -4zM500 -23
l-11 13q0 727 5 1005l6 13q500 2 1515 -2l4 -13q-559 -1198 -669 -1421l-17 -2q-436 206 -833 407z" />
    <glyph glyph-name="bullet.028" unicode="&#xe028;" horiz-adv-x="2048" 
d="M784 600l-2 -4q94 -285 136 -393h6q168 209 266 334l-2 6q-158 26 -404 57zM664 700l6 7q186 -23 663 -101l4 -12q-88 -125 -448 -578l-6 -2q-156 467 -219 686zM1425 877q-106 0 -821 10l-10 -4q-127 -272 -301 -678l4 -15q418 -195 1124 -505l9 8q2 205 -5 1184z
M526 999l13 11q669 0 1005 -4l12 -9q2 -498 -2 -1517l-12 -4q-997 463 -1421 669l-2 17q214 456 407 837z" />
    <glyph glyph-name="bullet.029" unicode="&#xe029;" horiz-adv-x="2048" 
d="M1456 635q141 176 201 246q63 -55 203 -187q-147 -188 -203 -256q-140 136 -201 197zM477 1470q414 -324 504 -393v-26q-125 -143 -397 -478l2 -24q352 -338 665 -623h-202q-91 86 -283 259t-289 264q-4 109 0 215q250 301 305 368l-2 19q-123 104 -303 249q-4 86 0 170z
M1587 1161l-2 -26q-384 -461 -436 -531q240 -244 516 -493h18q78 98 221 284q142 186 144 191v-203q-340 -461 -350 -475l-31 2q-225 219 -715 678q303 358 447 540q-93 72 -271 207t-215 164h203q207 -150 471 -338z" />
    <glyph glyph-name="bullet.030" unicode="&#xe02a;" horiz-adv-x="2048" 
d="M594 635q-30 -31 -98 -97t-103 -100q-55 68 -203 256q170 160 201 187q64 -74 203 -246zM1462 549l2 24q-244 303 -397 478l2 26q160 121 502 396q4 -84 0 -170q-129 -106 -303 -252v-19q109 -137 303 -368q4 -106 0 -215q-95 -89 -287 -263t-285 -260q-98 -2 -200 0
q331 301 663 623zM463 1161q299 225 450 338h205q-268 -209 -467 -371q117 -150 445 -540q-506 -478 -715 -678l-31 -2q-258 352 -350 475v203l367 -475h18q283 256 514 493q-336 414 -436 531v26z" />
    <glyph glyph-name="bullet.031" unicode="&#xe02b;" horiz-adv-x="2048" 
d="M1657 70l-203 245q86 90 201 197q115 -137 203 -254q-94 -94 -201 -188zM586 401l-2 -24q262 -324 397 -475l-2 -27q-115 -86 -502 -397q-2 84 0 170q37 31 141 118t162 136v18q-137 172 -303 367q-4 111 0 217q225 203 572 522q102 2 200 0q-268 -240 -663 -625z
M1149 346l436 -528v-27q-383 -277 -469 -340h-205q360 272 486 371q-205 262 -445 540q44 41 308 291t407 389l31 2q257 -336 350 -456v-205q-248 317 -367 461h-18q-272 -248 -514 -498z" />
    <glyph glyph-name="bullet.032" unicode="&#xe02c;" horiz-adv-x="2048" 
d="M592 315q-131 -164 -201 -245q-59 53 -203 188q68 86 203 254q88 -80 201 -197zM1464 377l-2 24q-358 352 -665 625q2 0 101 1t101 -1q126 -117 318 -291q191 -173 254 -231q4 -106 0 -217q-205 -242 -305 -367l2 -18q57 -50 166 -140t137 -114q4 -86 0 -170
q-379 303 -504 397v27q88 100 397 475zM0 588l350 456l31 -2q143 -139 400 -382t315 -298q-260 -307 -447 -540q119 -95 467 -371h-203q-96 76 -261 198t-191 142l2 27q92 108 239 288t197 240q-250 258 -516 498h-18q-90 -111 -365 -461v205z" />
    <glyph glyph-name="bullet.033" unicode="&#xe02d;" horiz-adv-x="2048" 
d="M1130 956l-14 5q-297 -324 -520 -611l4 -12q326 -98 721 -188l10 10q-66 298 -201 796zM1389 -84l-622 -4q-155 0 -302 4q-8 1049 2 1524l20 8q732 -367 1334 -725l2 -31q-123 -240 -434 -776z" />
    <glyph glyph-name="bullet.034" unicode="&#xe02e;" horiz-adv-x="2048" 
d="M528 612l-2 -14q252 -256 578 -547l14 4q98 348 191 758l-11 10q-395 -98 -770 -211zM1585 840l4 -621q0 -154 -4 -301q-1049 -8 -1526 2l-8 21q418 811 727 1331l29 2q301 -154 778 -434z" />
    <glyph glyph-name="bullet.035" unicode="&#xe02f;" horiz-adv-x="2048" 
d="M1505 371l4 12q-285 264 -610 520l-14 -4q-66 -311 -127 -754l10 -10q315 91 737 236zM465 111l-4 620q0 154 4 301q983 12 1524 0l8 -20q-395 -781 -725 -1334l-31 -2q-272 141 -776 435z" />
    <glyph glyph-name="bullet.036" unicode="&#xe030;" horiz-adv-x="2048" 
d="M887 -20l14 -3q229 223 549 574l-4 14q-287 96 -737 219l-11 -12q68 -315 189 -792zM659 1036l621 4q154 0 301 -4q12 -983 0 -1525l-22 -9q-822 424 -1332 727l-2 31q162 311 434 776z" />
    <glyph glyph-name="sterling.fitted" unicode="&#xe031;" horiz-adv-x="1073" 
d="M315 455q0 66 -8 120h-203q0 35 5 97q59 2 178 2q12 0 8 12q-27 209 -27 252q0 188 124 294t321 107q106 0 184 -30q4 -45 27 -291l-111 -12l-33 192q-8 23 -20 27q-41 14 -103 14q-97 -1 -163 -67t-66 -211q0 -12 27 -285q98 0 368 4q0 -55 -6 -105h-352q4 -49 4 -69
q0 -221 -127 -387q-14 -20 16 -21q401 0 453 15q25 2 39 43l68 200q33 -6 104 -24q-25 -121 -78 -334l-663 2l-246 -2q0 68 2 98l139 6q20 0 33 13q106 109 106 340z" />
    <glyph glyph-name="sterling.oldstyle" unicode="&#xe032;" horiz-adv-x="1026" 
d="M307 0h-250q0 33 4 94l134 2q20 0 26 10q82 84 82 248q0 39 -4 80h-188q0 33 4 94l161 2q10 0 9 9q-20 147 -21 178q0 143 108 231t300 88q113 0 186 -24q8 -78 21 -242l-105 -10l-26 145q-9 37 -114 37t-151 -45q-66 -66 -65 -166q0 -55 22 -199q227 0 367 3
q0 -68 -4 -101h-352l2 -45q0 -150 -97 -280q-14 -16 11 -17q350 0 405 12q23 4 33 31l55 154q43 -4 101 -21q-25 -111 -68 -270q-113 2 -586 2z" />
    <glyph glyph-name="yen.fitted" unicode="&#xe033;" horiz-adv-x="1073" 
d="M475 111v184l-315 -2q-2 33 2 88h313v125h-317q0 59 2 86q92 2 284 2q-70 127 -323 600q-4 10 -15 10l-83 4q0 63 2 95q72 0 168 -3l276 3q0 -63 -2 -95l-178 -6q94 -190 278 -571h11q164 336 268 561q6 10 -8 10l-164 6q0 61 2 92h239l154 3q0 -63 -2 -93l-86 -8
q-219 -412 -326 -606q190 0 279 2q0 -63 -2 -92h-316l-2 -125l314 2q0 -57 -2 -86l-312 -2l-2 -195l197 -6q0 -63 -2 -94l-260 2l-256 -2q-2 31 2 94l170 4q12 3 12 13z" />
    <glyph glyph-name="yen.oldstyle" unicode="&#xe034;" horiz-adv-x="962" 
d="M954 1016v-86l-82 -4q-231 -360 -294 -459q168 0 251 2q2 -25 -2 -80h-284l-2 -90h284q0 -49 -2 -74l-282 -2v-131l178 -4q0 -59 -2 -88l-238 2l-235 -2q0 57 2 88l160 4q8 0 8 8v123l-287 -2q0 55 2 78h285v90h-291q0 53 2 76q84 2 258 2q-102 152 -295 451q-2 4 -10 8
l-82 2l2 88h391l-2 -88l-135 -4q140 -244 244 -418h8q129 209 237 409q2 6 -8 11l-125 2q0 59 2 86q141 0 211 2h133z" />
    <glyph glyph-name="uniF634" unicode="&#xf634;" horiz-adv-x="681" 
d="M344 -86q43 0 80 -45t37 -105q0 -184 -189 -292q-18 23 -47 61q113 74 113 166q0 61 -84 84q-8 53 19 92q28 39 71 39z" />
    <glyph glyph-name="space_uni0326" unicode="&#xf6c3;" horiz-adv-x="681" 
d="M344 -106q41 0 78 -41t37 -93q0 -162 -185 -262q-29 29 -45 53q109 68 109 150q0 51 -80 76q-8 47 18 82q27 35 68 35z" />
    <glyph glyph-name="acute.cap" unicode="&#xf6c9;" horiz-adv-x="681" 
d="M735 1739q33 -39 76 -109q-219 -125 -344 -194q-29 37 -47 69q252 187 315 234z" />
    <glyph glyph-name="caron.cap" unicode="&#xf6ca;" horiz-adv-x="681" 
d="M334 1724q48 -28 225 -145l225 150q27 -25 56 -64l-246 -205q-49 0 -72 2q-141 119 -241 199q47 55 53 63z" />
    <glyph glyph-name="dieresis.cap" unicode="&#xf6cb;" horiz-adv-x="681" 
d="M649 1560q1 34 23 62t66 29q44 0 67 -28q23 -27 23 -63t-26 -62q-24 -26 -63 -26t-65 28q-26 26 -25 60zM303 1559q-1 37 23 65t67 27q43 0 65 -29q22 -28 22 -62t-24 -61t-63 -27t-65 26q-26 24 -25 61z" />
    <glyph glyph-name="grave.cap" unicode="&#xf6ce;" horiz-adv-x="681" 
d="M672 1436q-121 72 -346 194q42 70 77 111q221 -166 316 -236q-16 -29 -47 -69z" />
    <glyph glyph-name="hungarumlaut.cap" unicode="&#xf6cf;" horiz-adv-x="681" 
d="M791 1757q23 -20 73 -86q-160 -113 -293 -213q-31 33 -51 64q224 194 271 235zM268 1532l273 233q35 -33 73 -90q-94 -68 -295 -207z" />
    <glyph glyph-name="macron.cap" unicode="&#xf6d0;" horiz-adv-x="681" 
d="M799 1608v-101l-461 2q-4 45 0 95q156 4 461 4z" />
    <glyph glyph-name="R_p" unicode="&#xf6dd;" horiz-adv-x="2150" 
d="M1687 756q-114 0 -245 -94q-2 -156 -2 -480q0 -36 62 -70t147 -34t155 69q98 102 99 291q0 133 -45 215q-57 103 -171 103zM852 958q0 125 -88 198t-242 73q-86 0 -106 -10l-4 -555q12 -4 100 -5q174 0 257 87t83 212zM1624 -485q-347 0 -471 -4q0 59 2 88l119 8
q8 0 8 10v387q-66 -2 -188 -2q-74 -4 -133 -4q-39 52 -137 242t-129 237q-33 47 -69 67t-116 21q-80 0 -100 -4v-459l172 -6l-2 -96l-246 2l-223 -2q0 63 2 96l129 6q10 0 10 7v1112l-141 4q0 63 2 94q225 4 385 4t268 -30q108 -29 181 -115t73 -204t-77 -212t-202 -141v-11
q61 -27 105 -90q52 -73 168 -304q57 -112 92 -112l176 -4v637h-129q-2 31 2 82q234 58 250 60t16 -2q8 -61 11 -107l10 -2q137 74 192 93t117 20q143 0 232 -122q89 -123 89 -267t-56 -264q-113 -248 -374 -248q-104 0 -198 47l-6 -4l-2 -416l190 -4q0 -59 -2 -88z" />
    <glyph glyph-name="cent.inferior" unicode="&#xf6df;" 
d="M209 83q0 -73 59 -112q31 -20 76 -24l4 315q-59 -6 -99 -56t-40 -123zM94 78q0 100 68 173t186 87l2 117q49 4 80 4l-2 -115h12q78 0 150 -33q0 -23 -16 -51t-31 -39q-66 43 -117 43l-4 -319q63 2 153 41q14 -33 21 -66q-86 -43 -174 -53l-2 -121l-76 -4v123
q-106 4 -178 59q-72 54 -72 154z" />
    <glyph glyph-name="cent.superior" unicode="&#xf6e0;" 
d="M209 1189q0 -73 59 -112q31 -20 76 -24l4 315q-59 -6 -99 -56t-40 -123zM94 1184q0 100 68 173t186 87l2 117q49 4 80 4l-2 -115h12q78 0 150 -33q0 -23 -16 -51t-31 -39q-66 43 -117 43l-4 -319q63 2 153 41q14 -33 21 -66q-86 -43 -174 -53l-2 -121l-76 -4v123
q-106 4 -178 59q-72 54 -72 154z" />
    <glyph glyph-name="comma.inferior" unicode="&#xf6e1;" horiz-adv-x="468" 
d="M340 -199q0 -160 -184 -264q-20 23 -47 57q111 68 110 150q0 55 -84 78q-6 49 21 85q26 36 68 36q42 1 79 -43t37 -99z" />
    <glyph glyph-name="comma.superior" unicode="&#xf6e2;" horiz-adv-x="468" 
d="M340 909q0 -160 -184 -266q-20 23 -47 57q111 68 110 152q0 53 -84 76q-6 49 21 85q26 36 68 36q42 -1 79 -43t37 -97z" />
    <glyph glyph-name="dollar.inferior" unicode="&#xf6e3;" 
d="M481 -36q0 38 -25 59q-26 20 -85 36l-4 -180q47 0 81 24q34 23 33 61zM209 254q-1 -32 23 -52q24 -18 81 -32l2 164q-55 0 -79 -25q-27 -23 -27 -55zM391 336l-4 -182q201 -45 203 -166q0 -82 -60 -130t-163 -55l-2 -110q-25 -2 -74 -2l2 112q-139 0 -223 50q4 18 20 47
t31 39q88 -57 172 -60l4 197q-96 24 -147 62q-52 38 -52 109t66 114t151 49l2 112q42 6 78 6l-2 -116q106 -6 176 -39q0 -18 -15 -48t-30 -40q-72 49 -133 51z" />
    <glyph glyph-name="dollar.superior" unicode="&#xf6e4;" 
d="M481 1070q1 36 -25 56t-85 37l-4 -180q47 0 81 26q34 25 33 61zM209 1360q-1 -32 23 -52q24 -18 81 -32l2 164q-55 0 -79 -25q-27 -23 -27 -55zM98 1348q0 76 66 118t151 50l2 112q42 6 78 6l-2 -116q106 -6 176 -39q0 -18 -15 -48t-30 -40q-72 49 -133 51l-4 -185
q201 -45 203 -163q0 -84 -60 -132t-163 -55l-2 -110q-25 -2 -74 -2l2 112q-139 0 -223 49q4 18 20 48t31 38q88 -57 172 -59l4 199q-199 45 -199 166z" />
    <glyph glyph-name="hyphen.inferior" unicode="&#xf6e5;" horiz-adv-x="524" 
d="M68 55q0 61 2 92q63 3 191 3t194 2q0 -39 -4 -97h-383z" />
    <glyph glyph-name="hyphen.superior" unicode="&#xf6e6;" horiz-adv-x="524" 
d="M261 1255q128 0 194 2q0 -39 -4 -96h-383q0 61 2 92q63 2 191 2z" />
    <glyph glyph-name="period.inferior" unicode="&#xf6e7;" horiz-adv-x="468" 
d="M236 -59q42 0 64 -29t22 -64q0 -36 -25 -62t-64 -26t-65 25t-25 61q0 36 25 66q25 29 68 29z" />
    <glyph glyph-name="period.superior" unicode="&#xf6e8;" horiz-adv-x="468" 
d="M236 1047q42 0 64 -29t22 -64q0 -36 -25 -62t-64 -26t-65 25t-25 61q0 36 25 66q25 29 68 29z" />
    <glyph glyph-name="b.superior" unicode="&#xf6ea;" horiz-adv-x="796" 
d="M584 982q0 124 -45 182t-124 59q-79 0 -173 -66q-2 -111 -2 -346q0 -29 45 -51t111 -23q66 1 126 61q62 60 62 184zM484 1323q58 0 117 -50q58 -50 77 -114q43 -106 27 -209q-18 -152 -119 -233q-78 -61 -188 -61t-181 46l-33 -53q-23 2 -80 15q10 92 11 174v778l-117 4
q0 51 2 74q41 4 136 20q96 16 102 16t6 -4l-2 -477l4 -2q98 49 139 63t99 13z" />
    <glyph glyph-name="d.superior" unicode="&#xf6eb;" horiz-adv-x="835" 
d="M407 1235q-83 0 -133 -57q-59 -72 -59 -196t49 -181q43 -55 121 -55t158 53q8 6 8 20v381q-61 35 -144 35zM352 655q-117 0 -190 74q-88 84 -88 234t94 255t238 105q72 0 143 -27l4 2l-2 318l-127 2v74l256 39q4 0 4 -7l-4 -942q0 -31 16 -30h107q2 -23 2 -72
q-104 -25 -195 -25q-25 19 -45 68h-8q-133 -68 -205 -68z" />
    <glyph glyph-name="e.superior" unicode="&#xf6ec;" horiz-adv-x="716" 
d="M378 1243q-62 0 -95 -41q-59 -59 -66 -143q203 0 277 4q18 0 18 16q0 72 -37 123q-35 41 -97 41zM76 963q0 193 129 292q79 68 197 68t182 -78q59 -80 59 -215q0 -8 -19 -26t-28 -21q-197 -4 -383 -4q-4 -117 49 -172q48 -59 146 -59t204 49q12 -31 21 -78
q-125 -63 -260 -63t-216 84t-81 223z" />
    <glyph glyph-name="i.superior" unicode="&#xf6ed;" horiz-adv-x="428" 
d="M49 670v75l107 5q6 0 6 6v454l-123 4v72l248 39q2 0 2 -6l-2 -569l110 -5q0 -49 -2 -75h-346zM299 1547q0 -37 -25 -61q-26 -24 -62 -24t-60 26t-25 60q1 34 25 60t65 26t62 -25q20 -26 20 -62z" />
    <glyph glyph-name="l.superior" unicode="&#xf6ee;" horiz-adv-x="411" 
d="M385 672h-186l-176 -2q0 51 2 75l106 5q6 0 6 8v862l-127 2l2 74q33 2 92 11q60 9 106 16t52 8q6 0 6 -7q-6 -450 -6 -974l123 -5v-73z" />
    <glyph glyph-name="m.superior" unicode="&#xf6ef;" horiz-adv-x="1257" 
d="M897 670v78l86 4q6 0 6 295q-1 77 -23 127t-90 50t-174 -73v-399l101 -4v-78h-316q0 53 2 78l86 4q4 0 5 6v299q0 88 -19 121q-27 49 -99 49t-171 -76q-4 -250 -4 -399l108 -4q0 -51 -2 -78h-332v78l97 4q4 0 4 6v452l-121 4q0 49 2 70q54 8 140 23q85 16 89 16
q4 1 8 -33t5 -53l6 -2q96 59 139 75t88 15q102 0 162 -102h4q98 66 143 83t99 17q88 0 159 -98q31 -53 31 -117l-4 -356l102 -4q0 -51 -2 -78h-315z" />
    <glyph glyph-name="r.superior" unicode="&#xf6f1;" horiz-adv-x="591" 
d="M156 754v458h-117q0 49 2 72q94 12 158 26q63 13 69 13t6 -203l9 -2q61 121 107 164t96 43t92 -16q0 -25 -14 -65t-27 -54q-4 0 -27 6t-49 6q-25 0 -63 -32t-91 -132q-25 -48 -25 -118t-1 -170l149 -5q0 -49 -2 -73h-207l-168 -2l2 73l95 7q6 0 6 4z" />
    <glyph glyph-name="s.superior" unicode="&#xf6f2;" horiz-adv-x="643" 
d="M289 735q149 0 149 99q0 53 -31 72q-33 19 -133 48t-140 70t-40 106q0 98 96 154q72 39 186 39t154 -29q12 -111 17 -174q-51 -8 -84 -10l-23 96q-6 37 -84 37t-108 -30q-30 -29 -31 -69q0 -40 28 -58t125 -47t145 -67t48 -128t-96 -152q-61 -37 -181 -37t-196 29
q-4 29 -11 90t-11 92q57 13 86 15l20 -99q2 -12 12 -18q45 -29 103 -29z" />
    <glyph glyph-name="t.superior" unicode="&#xf6f3;" horiz-adv-x="579" 
d="M279 838q0 -90 98 -90q61 0 151 24q8 -53 13 -76q-115 -41 -211 -41t-136 38q-42 38 -42 122v234q2 45 2 168h-105q0 55 2 83q33 2 96 3q8 0 13 10q0 49 4 139q86 51 117 51q4 0 4 -4l-2 -196q164 0 245 2q0 -35 -4 -88h-243l-2 -164v-215z" />
    <glyph glyph-name="breve.sc" unicode="&#xf6f4;" horiz-adv-x="681" 
d="M338 1135q-90 0 -155 57t-83 139q49 18 80 27q62 -119 164 -119t154 111q33 -4 84 -21q-16 -70 -85 -132t-159 -62z" />
    <glyph glyph-name="caron.sc" unicode="&#xf6f5;" horiz-adv-x="681" 
d="M594 1399q-22 -24 -215 -252h-76q-82 100 -213 254q31 31 62 53l190 -188q145 145 193 188q35 -27 59 -55z" />
    <glyph glyph-name="circumflex.sc" unicode="&#xf6f6;" horiz-adv-x="681" 
d="M381 1421l213 -254q-39 -39 -59 -55q-130 129 -193 188q-31 -29 -190 -188q-18 16 -62 53q121 145 215 254q25 2 76 2z" />
    <glyph glyph-name="dotaccent.sc" unicode="&#xf6f7;" horiz-adv-x="681" 
d="M344 1346q47 0 70 -29q22 -29 22 -68t-26 -67t-67 -27q-42 0 -70 27q-27 28 -27 66t25 68q26 30 73 30z" />
    <glyph glyph-name="hungarumlaut.sc" unicode="&#xf6f8;" horiz-adv-x="681" 
d="M729 1401q27 -29 66 -94q-152 -86 -308 -179q-16 23 -45 68zM418 1409q27 -29 65 -94q-100 -57 -309 -176q-10 12 -45 67q215 150 289 203z" />
    <glyph glyph-name="lslash.sc" unicode="&#xf6f9;" horiz-adv-x="987" 
d="M555 94q131 0 193 10q18 2 28 33l64 172q41 -4 104 -20q-20 -104 -67 -289h-754q0 57 2 88l117 6q6 0 6 6v306q-94 -45 -148 -72q-27 49 -39 82q33 16 187 94v410l-125 6q0 63 2 90h440q0 -57 -2 -90l-151 -6q-4 0 -4 -5l-2 -335q156 80 258 131q16 -37 36 -93
q-79 -39 -294 -143l-3 -348q1 -23 11 -28t141 -5z" />
    <glyph glyph-name="oe.sc" unicode="&#xf6fa;" horiz-adv-x="1703" 
d="M621 78q102 0 184 50t123 146v482q-35 84 -115 133q-81 49 -201 49t-213 -82q-135 -123 -135 -344t105 -328q100 -106 252 -106zM1244 92q134 0 188 12q18 2 30 33l54 139q70 -12 102 -20q-20 -113 -57 -256h-629q0 20 -1 63t-1 62q-121 -145 -338 -145t-348 124
q-154 143 -154 392q0 143 64 265q63 122 168 191q132 84 316 84t292 -125l2 105h620q6 -82 15 -248q-70 -8 -105 -14l-28 133q-4 27 -41 28q-82 8 -260 9h-48l-2 -357q170 0 260 4q35 0 41 31l7 74h102l-2 -158v-151l-105 -2l-4 75q-2 20 -11 28t-59 8q-50 1 -229 1l-2 -352
q1 -21 15 -27t148 -6z" />
    <glyph glyph-name="ogonek.sc" unicode="&#xf6fb;" horiz-adv-x="681" 
d="M496 -193q0 -45 26 -69t63 -25q38 0 77 15q12 -31 18 -64q-53 -35 -125 -35t-124 41t-52 109q0 125 158 231h86q-127 -96 -127 -203z" />
    <glyph glyph-name="ring.sc" unicode="&#xf6fc;" horiz-adv-x="681" 
d="M345 1411q-48 0 -78 -30q-29 -31 -29 -73t30 -70t78 -28q47 0 74 29q26 29 26 73t-26 72t-75 27zM346 1485q88 0 142 -49t54 -124t-56 -125q-58 -50 -143 -50t-143 47t-58 122t58 127t146 52z" />
    <glyph glyph-name="scaron.sc" unicode="&#xf6fd;" horiz-adv-x="913" 
d="M289 1487l192 -189q137 137 193 189q27 -18 59 -55q-35 -39 -111 -129t-104 -123q-37 -4 -76 0q-127 152 -215 254q41 37 62 53zM498 936q-98 0 -154 -46q-55 -46 -55 -117t45 -105t188 -89q143 -56 212 -122q69 -65 69 -185q-1 -120 -105 -206t-319 -86q-156 0 -264 40
l-12 135q-7 89 -11 128q68 12 111 14l28 -164q4 -14 15 -20q52 -35 174 -35t176 53t53 135q0 82 -86 133q-33 15 -163 69t-198 119t-67 179q0 114 109 192q102 78 299 78q137 0 223 -39q12 -115 18 -247l-108 -11l-29 150q-6 14 -10 18q-41 29 -139 29z" />
    <glyph glyph-name="tilde.sc" unicode="&#xf6fe;" horiz-adv-x="681" 
d="M459 1143q-52 0 -149 76q-13 10 -21 14l-20 10q-22 12 -44 12q-47 0 -67 -102q-51 0 -76 2q16 203 149 203q47 0 65 -12q63 -45 71 -50q8 -4 32 -24t38 -22q13 -3 34 -3q41 0 53 105h76q-12 -209 -141 -209z" />
    <glyph glyph-name="zcaron.sc" unicode="&#xf6ff;" horiz-adv-x="1034" 
d="M336 1487l192 -189l97 97q66 66 94 92q35 -29 59 -55q-203 -242 -213 -254h-76l-90 108q-80 96 -123 146q25 29 60 55zM895 -2l-492 2h-305q-4 12 -14 37l-14 35q223 264 671 835l-2 6q-365 2 -424 -6q-25 -4 -34 -37l-54 -165l-110 18q23 139 53 293h743q8 -20 29 -88
q-613 -756 -668 -822l2 -4q418 -2 478 15q33 6 45 41l55 161q51 -4 113 -20q-31 -141 -72 -301z" />
    <glyph glyph-name="exclam.sc" unicode="&#xf721;" horiz-adv-x="544" 
d="M279 193q49 0 77 -34t27 -75q0 -41 -31 -72q-31 -30 -77 -30q-45 0 -77 28t-32 72q0 43 32 77t81 34zM221 295l-47 713q86 28 195 28q4 0 4 -4q-3 -82 -21 -345t-24 -380q-31 -6 -107 -12z" />
    <glyph glyph-name="dollar.oldstyle" unicode="&#xf724;" horiz-adv-x="847" 
d="M463 403l-8 -311q74 4 118 39q55 39 55 107t-40 106q-41 36 -125 59zM219 685q0 -56 42 -88t130 -50l6 280q-84 -4 -131 -45t-47 -97zM760 274q0 -119 -80 -188q-82 -76 -225 -84l-4 -162q-33 -4 -91 -8l2 168q-195 0 -309 66q10 57 66 112q121 -82 246 -84l6 330
q-135 33 -209 89t-74 162t100 179q74 55 209 66l2 163q51 10 97 11l-4 -172q147 0 247 -52q0 -26 -20 -62t-43 -50q-113 67 -187 71l-8 -305q279 -57 279 -250z" />
    <glyph glyph-name="ampersand.sc" unicode="&#xf726;" horiz-adv-x="1294" 
d="M244 281q0 -93 72 -147t170 -54t177 29t123 73q-193 203 -372 326q-170 -78 -170 -227zM655 807q0 59 -40 99q-41 40 -119 40t-123 -38t-45 -102q0 -62 37 -104t114 -92q176 68 176 197zM459 -20q-162 0 -256 65q-119 80 -119 215q0 96 67 176t177 125v6
q-148 99 -148 217t93 186t231 66q138 0 216 -60q79 -60 79 -153q-1 -172 -230 -264v-8q90 -61 194 -161q105 -101 124 -118q35 39 65 114q31 74 32 108t-5 34l-113 4q0 59 2 89h357q4 -45 0 -89l-99 -4q-49 -199 -172 -323q29 -33 90 -94q18 -20 60 -21l125 -2q2 -35 -2 -88
q-29 -2 -111 -5t-147 -7l-115 129q-166 -137 -395 -137z" />
    <glyph glyph-name="zero.oldstyle" unicode="&#xf730;" horiz-adv-x="1103" 
d="M551 94q121 0 201 74q104 98 104 276t-113 275q-73 65 -185 65t-191 -69q-117 -111 -117 -282t104 -269q76 -70 197 -70zM539 -20q-181 0 -297 98q-152 123 -152 344q0 104 44 204t122 165q123 109 304 109t292 -87q162 -127 162 -363t-172 -374q-122 -96 -303 -96z" />
    <glyph glyph-name="one.oldstyle" unicode="&#xf731;" horiz-adv-x="878" 
d="M414 111v612q-119 -35 -295 -84q-8 27 -25 88q465 182 472 182t7 -8l-4 -801l265 -6q2 -33 -3 -94l-344 2l-378 -2q0 61 2 94l295 6q8 0 8 11z" />
    <glyph glyph-name="two.oldstyle" unicode="&#xf732;" horiz-adv-x="901" 
d="M414 782q-156 0 -273 -145q-33 25 -73 65q150 197 397 197q156 0 239 -83q82 -84 82 -204t-80 -221q-121 -150 -430 -270l3 -10l552 2q0 -80 -4 -113h-747q-16 49 -29 104q170 84 300 162t198 157q67 79 67 166t-45 136q-57 57 -157 57z" />
    <glyph glyph-name="three.oldstyle" unicode="&#xf733;" horiz-adv-x="876" 
d="M438 899q148 0 232 -84q74 -77 74 -185t-70 -186q-70 -77 -174 -110v-12q139 -6 219 -90t80 -197q0 -166 -125 -271q-141 -121 -381 -120q-174 0 -283 57q23 72 35 98q98 -49 257 -49t245 80t86 192t-86 172t-236 60l-108 -2q-2 33 -2 98q184 2 282 73q99 71 99 164
q1 197 -195 197q-84 0 -156 -40t-118 -99q-35 33 -68 68q51 70 147 128q98 58 246 58z" />
    <glyph glyph-name="four.oldstyle" unicode="&#xf734;" horiz-adv-x="1015" 
d="M641 739h-10q-270 -354 -443 -608q-8 -14 7 -14q180 -4 440 -4zM999 111q0 -53 -6 -103h-211l-2 -368q-59 -9 -147 -9q2 115 2 375l-551 -2q-25 53 -47 117q376 521 598 778q55 0 153 -4q0 -14 -6 -782q88 -2 217 -2z" />
    <glyph glyph-name="five.oldstyle" unicode="&#xf735;" horiz-adv-x="899" 
d="M788 881q0 -66 -6 -117q-333 0 -489 -4q-25 -137 -51 -309q39 4 145 4q205 1 315 -103t111 -254q1 -211 -149 -334t-392 -122q-139 0 -239 47q20 66 33 96q94 -37 213 -37q180 0 278 88q96 90 96 224t-88 206t-256 72q-98 0 -184 -8l-14 14q51 391 73 537h604z" />
    <glyph glyph-name="six.oldstyle" unicode="&#xf736;" horiz-adv-x="1011" 
d="M508 78q104 0 166 61q84 85 84 233t-66 230q-55 74 -160 74q-182 0 -278 -176v-70q0 -166 84 -270q66 -82 170 -82zM580 786q147 0 241 -94q45 -49 73 -123t28 -139q0 -219 -140 -350q-110 -100 -286 -100q-277 0 -372 267q-34 95 -34 195q0 367 254 629q152 154 389 223
q23 -35 43 -92q-193 -60 -327 -200t-191 -355l14 -4q119 143 308 143z" />
    <glyph glyph-name="seven.oldstyle" unicode="&#xf737;" horiz-adv-x="878" 
d="M41 881h760q18 -47 33 -107q-169 -312 -451 -948q-70 -158 -80 -180q-84 23 -125 41q49 106 209 469q159 363 268 596l-4 10q-610 -6 -622 -6q4 74 12 125z" />
    <glyph glyph-name="eight.oldstyle" unicode="&#xf738;" horiz-adv-x="1026" 
d="M786 312q0 110 -73 172q-74 62 -236 116q-100 -33 -168 -113q-67 -80 -67 -182t74 -168q74 -65 198 -65t198 65t74 175zM297 944q0 -82 59 -135t187 -100q199 82 198 247q0 84 -47 136q-51 63 -169 65t-181 -74q-47 -57 -47 -139zM940 338q0 -166 -129 -266
q-115 -92 -303 -92t-301 79q-121 92 -121 238q0 113 75 207t210 141v10q-221 88 -221 281q0 113 92 205q111 106 291 106t276 -92q78 -74 78 -182q-1 -203 -232 -301v-10q139 -41 212 -128t73 -196z" />
    <glyph glyph-name="nine.oldstyle" unicode="&#xf739;" horiz-adv-x="1001" 
d="M745 442q-1 170 -73 264t-180 95q-108 0 -168 -66q-84 -90 -84 -229t71 -217q59 -70 145 -70t162 44t125 122q2 20 2 57zM440 115q-150 0 -247 88q-113 109 -113 288t141 304q117 104 288 104t271 -106q129 -135 129 -381q1 -188 -71 -352t-185 -265q-162 -143 -381 -192
q-25 45 -43 98q201 51 320 168q149 139 196 381l-10 6q-111 -141 -295 -141z" />
    <glyph glyph-name="question.sc" unicode="&#xf73f;" horiz-adv-x="841" 
d="M303 76q0 38 30 70t78 32q49 0 77 -30t28 -70t-31 -68t-75 -28t-75 28q-32 28 -32 66zM758 790q0 -108 -70 -185t-209 -150q-41 -23 -41 -58t31 -114q-41 -16 -109 -31q-24 30 -52 96t-27 107q173 94 239 157q66 64 66 152q0 170 -185 170q-102 0 -159 -47q-8 -4 -11 -19
l-30 -141q-41 2 -113 10q12 156 18 226q130 73 304 73t261 -68q87 -70 87 -178z" />
    <glyph glyph-name="grave.sc" unicode="&#xf760;" horiz-adv-x="681" 
d="M211 1417l326 -209q-18 -37 -43 -73q-41 21 -163 83t-186 93q9 14 66 106z" />
    <glyph glyph-name="a.sc" unicode="&#xf761;" horiz-adv-x="1089" 
d="M547 860h-12q-25 -66 -87 -222t-78 -198t-10 -43h355q-18 51 -168 463zM1090 0l-166 2l-240 -2l2 90l133 4q8 0 3 13t-74 192q-2 8 -11 8l-415 -2q-25 -63 -80 -211l155 -4q0 -61 -2 -90l-245 2l-148 -2q0 57 2 88l90 6q10 4 12 8q379 903 390 928q33 2 125 2
q71 -174 368 -938l103 -4q0 -61 -2 -90z" />
    <glyph glyph-name="b.sc" unicode="&#xf762;" horiz-adv-x="1058" 
d="M547 90q100 0 178 47t78 141t-75 148q-75 55 -241 55q-84 0 -102 -2l-2 -332q0 -35 32 -46t132 -11zM748 752q0 84 -66 130t-197 46q-71 0 -98 -6l-2 -349l84 -2q119 1 199 49t80 132zM444 1018q242 0 315 -34q146 -69 146 -198q0 -84 -56 -146t-149 -91v-10
q117 -14 193 -83t76 -161q0 -133 -113 -214t-303 -81h-455v88l121 4q10 0 10 10v820l-131 4l2 90q102 2 344 2z" />
    <glyph glyph-name="c.sc" unicode="&#xf763;" horiz-adv-x="1060" 
d="M664 930q-162 0 -263 -99q-139 -133 -139 -344q0 -99 22 -167t78 -127q92 -102 275 -103q131 0 299 62q20 -80 22 -101q-209 -72 -352 -71q-346 0 -468 252q-48 99 -48 219q0 293 219 462q154 123 393 123q150 0 226 -32q12 -139 18 -285q-57 -6 -112 -12l-29 174
q-4 23 -12 24q-49 25 -129 25z" />
    <glyph glyph-name="d.sc" unicode="&#xf764;" horiz-adv-x="1212" 
d="M952 510q0 104 -32 184q-32 78 -113 142q-113 90 -330 90q-39 0 -94 -6l-4 -773q1 -35 23 -46t100 -9q211 0 321 92q57 50 93 136t36 190zM1122 539q0 -293 -209 -441q-147 -98 -395 -98h-424q0 57 2 88l119 4q8 0 8 10v818l-127 6v90l371 2q281 0 424 -82
q103 -56 167 -162t64 -235z" />
    <glyph glyph-name="e.sc" unicode="&#xf765;" horiz-adv-x="1001" 
d="M540 94q136 0 189 12q20 2 31 31l53 137q61 -10 102 -18q-18 -104 -57 -256h-764q0 57 2 90l119 4q6 0 6 6v820l-125 4v92h754q6 -90 14 -250q-31 -4 -104 -12l-27 131q-6 25 -41 28q-164 8 -264 9l-47 -2l-2 -353q174 0 264 4q35 0 41 31l6 74h103l-2 -160v-149
q-66 -4 -105 -2l-4 73q-4 35 -43 35q-76 2 -260 2l-2 -348q0 -21 14 -27q13 -6 149 -6z" />
    <glyph glyph-name="f.sc" unicode="&#xf766;" horiz-adv-x="968" 
d="M799 483v-151h-103l-8 82q-2 18 -12 25q-11 7 -291 7l-2 -350l203 -6q0 -61 -2 -90h-482q0 59 2 90l115 6q8 0 8 8v816l-127 6q0 61 2 90l213 -2l385 2q106 0 158 2q10 -129 19 -264l-107 -11l-31 142q-6 27 -41 28q-90 8 -270 9l-41 -2l-2 -379l260 2q39 0 45 30l10 78
h103q-4 -111 -4 -168z" />
    <glyph glyph-name="g.sc" unicode="&#xf767;" horiz-adv-x="1167" 
d="M987 715q-21 0 -113 -8l-24 163q-4 20 -14 29q-57 35 -160 35q-164 0 -268 -94q-142 -127 -142 -334t112 -319t308 -111q55 0 99 10t44 23v253l-227 5q0 63 2 92h481q0 -61 -2 -92l-90 -5q-6 0 -6 -6l-4 -323q-101 -53 -335 -53t-372 106q-182 147 -182 395q0 143 65 261
t177 194q152 100 375 100q164 0 264 -45q12 -254 12 -276z" />
    <glyph glyph-name="h.sc" unicode="&#xf768;" horiz-adv-x="1284" 
d="M225 104v818l-125 4v90l209 -2l223 2q0 -59 -2 -90l-141 -4q-4 0 -4 -7l-2 -323q0 -6 8 -6h516v336l-147 4l2 88h227l197 2q0 -59 -2 -90l-113 -4q-4 0 -4 -7l-4 -819l129 -4q0 -61 -2 -90h-207l-221 -2l2 92l135 4q8 0 8 8v379q0 4 -8 4l-516 -2l-2 -389l154 -4
q0 -61 -3 -90h-227l-203 -2v92l115 4q8 0 8 8z" />
    <glyph glyph-name="i.sc" unicode="&#xf769;" horiz-adv-x="612" 
d="M227 106v814l-137 6q0 61 2 90l227 -2l211 2q0 -57 -2 -90l-137 -6q-4 0 -4 -7l-4 -815l147 -6q0 -61 -2 -92l-213 2l-223 -2q0 59 2 92l125 6q8 0 8 8z" />
    <glyph glyph-name="j.sc" unicode="&#xf76a;" horiz-adv-x="929" 
d="M721 915v-522q-1 -109 -19 -177t-67 -124q-109 -127 -338 -127q-117 0 -213 23q-8 68 -35 258q59 16 105 22l43 -166q7 -36 134 -36q126 0 185 84q47 72 47 251q0 350 -2 521l-213 6q0 61 2 88h502q0 -57 -2 -88l-123 -6q-6 0 -6 -7z" />
    <glyph glyph-name="k.sc" unicode="&#xf76b;" horiz-adv-x="1150" 
d="M514 1016v-90l-121 -6q-6 0 -6 -11l-2 -346q98 8 111 12q96 82 303 336q4 8 -4 9l-105 4q0 63 2 90l240 2h143l-2 -90l-106 -6q-117 -125 -349 -367v-8q92 -63 192 -211t144 -207q18 -25 62 -27l117 -6q0 -63 -3 -92l-149 -2l-127 -2q-35 41 -174 258q-138 217 -198 217
t-97 -4l-2 -373l139 -4q0 -61 -2 -92l-205 2l-211 -2q0 59 2 90l115 6q6 0 6 6v818l-123 6l2 90h408z" />
    <glyph glyph-name="l.sc" unicode="&#xf76c;" horiz-adv-x="966" 
d="M545 1016q0 -57 -2 -90l-152 -6q-4 0 -4 -5l-4 -788q0 -23 10 -28q9 -5 141 -5t193 10q18 2 29 33l63 172q41 -4 105 -20q-20 -104 -68 -289h-754q0 57 2 88l117 6q6 0 6 6v820l-125 6q0 63 2 90h441z" />
    <glyph glyph-name="m.sc" unicode="&#xf76d;" horiz-adv-x="1509" 
d="M1155 102v758h-12q-205 -508 -355 -811q-25 -2 -96 -2q-184 393 -342 817h-14q0 -37 -6 -768l149 -6q0 -61 -2 -90l-217 2l-172 -2q0 59 2 90l109 6q10 0 10 6q0 429 6 816l-121 6l2 90h334l326 -799h8q186 459 330 799l319 2l-2 -92l-108 -4q-6 0 -7 -9q0 -555 2 -815
l119 -6q0 -61 -2 -90l-198 2l-203 -2q0 59 2 90l129 6q10 0 10 6z" />
    <glyph glyph-name="n.sc" unicode="&#xf76e;" horiz-adv-x="1267" 
d="M104 0q0 59 2 90l107 6q10 0 10 8v816l-125 4q-2 35 2 92l277 -2q297 -412 571 -834l8 2q0 371 -6 738l-162 4q0 63 3 90h217l180 2v-90l-105 -6q-6 0 -6 -9l-6 -901q-57 -20 -123 -20q-270 348 -594 827h-10l-2 -721l174 -4q0 -63 -2 -92h-410z" />
    <glyph glyph-name="o.sc" unicode="&#xf76f;" horiz-adv-x="1245" 
d="M626 74q146 0 238 100q119 135 119 340t-117 328q-92 100 -227 100t-236 -84q-139 -121 -139 -346t119 -342q97 -96 243 -96zM608 -20q-228 0 -372 137q-143 137 -144 375q0 147 65 268q148 276 481 276t462 -259q55 -112 55 -242q0 -266 -176 -429q-143 -126 -371 -126z
" />
    <glyph glyph-name="p.sc" unicode="&#xf770;" horiz-adv-x="1005" 
d="M756 707q0 219 -287 219q-68 0 -86 -6l-2 -428q13 -14 107 -14t159 36q109 59 109 193zM456 1018q154 0 254 -28t154 -100q56 -72 56 -169q0 -96 -58 -177t-153 -121q-94 -40 -204 -40t-124 2l-2 -289l192 -4q0 -61 -2 -92h-465q0 59 2 90l111 6q8 0 8 8v818l-121 4
q0 61 2 88q196 4 350 4z" />
    <glyph glyph-name="q.sc" unicode="&#xf771;" horiz-adv-x="1245" 
d="M262 504q0 -221 125 -340q95 -92 239 -92t240 100q117 130 117 350t-123 332q-96 90 -229 90t-232 -84q-59 -51 -98 -146t-39 -210zM1148 -143q66 0 157 22q8 -41 12 -92q-167 -47 -237 -47t-150 40t-295 202q-10 -2 -35 -2q-216 0 -364 139t-148 377q0 147 68 266
t176 190q135 84 309 84q175 0 287 -70t170 -185q58 -116 59 -248q0 -133 -50 -243t-132 -184t-184 -102v-8q228 -139 357 -139z" />
    <glyph glyph-name="r.sc" unicode="&#xf772;" horiz-adv-x="1105" 
d="M469 516q141 0 213 65t72 142q0 203 -277 203q-86 0 -96 -8l-2 -398q12 -4 90 -4zM473 424q-76 0 -94 -4l-2 -324l145 -6l-2 -90h-418v90l113 6q8 0 8 6v820l-123 4q0 61 2 90l373 2q150 0 238 -24t146 -90q59 -66 59 -154q0 -90 -62 -164t-164 -109v-8q45 -19 70 -49
q24 -30 32 -42t24 -38q16 -27 24 -41t26 -49t42 -77q45 -79 79 -81l103 -4q0 -57 -2 -86q-94 0 -136 -2h-114q-31 39 -108 180t-99 174q-51 70 -160 70z" />
    <glyph glyph-name="s.sc" unicode="&#xf773;" horiz-adv-x="913" 
d="M498 936q-98 0 -154 -46q-55 -46 -55 -117t45 -105t188 -89q143 -56 212 -122q69 -65 69 -185q-1 -120 -105 -206t-319 -86q-156 0 -264 40l-12 135q-7 89 -11 128q68 12 111 14l28 -164q4 -14 15 -20q52 -35 174 -35t176 53t53 135q0 82 -86 133q-33 15 -163 69
t-198 119t-67 179q0 114 109 192q102 78 299 78q137 0 223 -39q12 -115 18 -247l-108 -11l-29 150q-6 14 -10 18q-41 29 -139 29z" />
    <glyph glyph-name="t.sc" unicode="&#xf774;" horiz-adv-x="1034" 
d="M440 102v818q-152 0 -198 -4t-49 -31l-29 -162q-74 4 -109 8q7 190 15 287l168 -2h577q68 2 158 2q11 -208 14 -285l-113 -10l-24 162q-6 27 -60 31t-190 4l-4 -824l158 -6q0 -59 -2 -88h-226l-233 -2v90l141 6q6 0 6 6z" />
    <glyph glyph-name="u.sc" unicode="&#xf775;" horiz-adv-x="1200" 
d="M598 -20q-195 0 -299 92q-66 59 -87 137q-22 78 -22 201v501q0 10 -8 11l-106 4q0 63 2 90h426q0 -57 -2 -90l-152 -6l-2 -488q0 -119 16 -177t54 -99q68 -76 184 -76t192 74q78 74 78 268q0 340 -2 491q0 6 -6 7l-145 4l2 90h215l188 2q0 -57 -2 -92l-110 -4l-4 -508
q0 -217 -117 -334q-98 -98 -293 -98z" />
    <glyph glyph-name="v.sc" unicode="&#xf776;" horiz-adv-x="1103" 
d="M12 924l2 92l185 -2l268 2l-2 -92l-168 -4q15 -55 258 -766h14q204 498 287 753q4 12 -4 13l-152 4l2 90h236l164 2v-92l-96 -4q-8 -18 -170 -412q-127 -299 -230 -524q-27 -2 -127 -2q-82 193 -219 542q-8 25 -139 389q-6 6 -12 7z" />
    <glyph glyph-name="w.sc" unicode="&#xf777;" horiz-adv-x="1529" 
d="M467 1014v-88l-160 -6q34 -193 150 -754h10q25 72 129 375t149 430q20 2 109 2q29 -94 238 -811h12q127 479 182 747q4 10 -4 11l-147 4l2 90h225l174 2l-2 -90l-102 -6q-45 -156 -119 -404q-63 -227 -164 -532q-35 -2 -129 -2q-150 434 -236 753h-10
q-125 -377 -276 -751q-31 -2 -125 -2q-91 338 -149 576t-87 355q0 6 -8 7l-104 6l2 90l186 -2h254z" />
    <glyph glyph-name="x.sc" unicode="&#xf778;" horiz-adv-x="1071" 
d="M614 0q0 59 2 90l121 6q12 0 6 10q-51 76 -223 324h-10q-106 -147 -234 -334l130 -6q0 -61 -3 -90h-399q0 57 2 90l109 6q6 0 14 8q37 50 147 188t170 216v10q-80 109 -280 395q-2 6 -12 7l-113 6q0 63 2 90l186 -2l252 2q0 -57 -2 -90l-133 -6q106 -170 201 -310h10
q31 41 105 153t96 148q6 8 -6 9l-123 6l2 90l227 -2l168 2q0 -57 -2 -90l-111 -6q-211 -283 -295 -385v-13q106 -139 314 -426l119 -6q0 -61 -2 -90h-435z" />
    <glyph glyph-name="y.sc" unicode="&#xf779;" horiz-adv-x="989" 
d="M424 106v285q-150 244 -315 524q-6 6 -11 7l-94 4q0 63 2 92l170 -2l258 2l-2 -92l-143 -6q113 -219 233 -424h8q154 264 228 415q4 8 -4 9l-131 6l2 90h223l151 2q0 -57 -2 -90l-92 -8q-45 -74 -157 -257t-166 -270l-2 -295l155 -6q0 -61 -2 -92l-225 2l-234 -2
q0 59 2 92l138 4q10 2 10 10z" />
    <glyph glyph-name="z.sc" unicode="&#xf77a;" horiz-adv-x="1034" 
d="M895 -2l-492 2h-305q-4 12 -14 37l-14 35q223 264 671 835l-2 6q-365 2 -424 -6q-25 -4 -34 -37l-54 -165l-110 18q23 139 53 293h743q8 -20 29 -88q-613 -756 -668 -822l2 -4q418 -2 478 15q33 6 45 41l55 161q51 -4 113 -20q-31 -141 -72 -301z" />
    <glyph glyph-name="exclamdown.sc" unicode="&#xf7a1;" horiz-adv-x="544" 
d="M176 -20q-2 0 18 318t23 413q31 6 107 12q2 -43 10 -167t12 -230t25 -318q-86 -28 -195 -28zM266 825q-49 0 -77 34q-27 34 -27 75t31 72q31 30 77 30t77 -28q32 -28 32 -72q0 -43 -32 -77t-81 -34z" />
    <glyph glyph-name="cent.oldstyle" unicode="&#xf7a2;" horiz-adv-x="825" 
d="M430 178l6 520q-96 -16 -154 -95t-58 -185t61 -172q49 -56 145 -68zM80 400q0 150 98 262q98 111 260 133v170q33 6 101 10l-2 -174q4 2 28 2q109 0 195 -41q0 -25 -18 -61t-37 -52q-106 55 -170 53l-9 -524q92 2 222 55q14 -41 22 -79q-119 -57 -244 -72l-2 -174
q-30 -4 -96 -8l2 180q-152 4 -251 87t-99 233z" />
    <glyph glyph-name="dieresis.sc" unicode="&#xf7a8;" horiz-adv-x="681" 
d="M501 1329q45 1 67 -27t22 -64t-25 -60t-65 -25q-40 0 -63 27q-23 26 -23 60t21 62q22 27 66 27zM182 1153q-38 0 -64 25q-26 24 -26 60t24 64t67 27q44 0 65 -27q20 -28 20 -62t-24 -60t-62 -27z" />
    <glyph glyph-name="macron.sc" unicode="&#xf7af;" horiz-adv-x="681" 
d="M547 1282v-98l-412 2q-4 45 0 92q275 4 412 4z" />
    <glyph glyph-name="acute.sc" unicode="&#xf7b4;" horiz-adv-x="681" 
d="M141 1208l326 211q33 -39 68 -106q-25 -12 -351 -178q-20 41 -43 73z" />
    <glyph glyph-name="cedilla.sc" unicode="&#xf7b8;" horiz-adv-x="681" 
d="M475 -188l-18 43l151 147h103l-125 -129q55 -10 86 -45t30 -84q0 -76 -70 -123t-186 -49q-4 16 -8 70q147 10 148 90q0 36 -26 58t-85 22z" />
    <glyph glyph-name="questiondown.sc" unicode="&#xf7bf;" horiz-adv-x="841" 
d="M258 253q0 -171 193 -171q93 0 151 47q8 4 10 18l31 142q51 0 113 -10q-2 -29 -19 -226q-129 -73 -303 -73t-261 68t-87 176t70 186t209 151q41 25 41 59t-31 113q43 20 108 31q25 -30 53 -96t27 -107q-173 -93 -239 -157t-66 -151zM541 942q0 -38 -30 -70t-78 -32
t-77 30q-28 30 -28 69q0 40 30 69q31 28 75 28t76 -28t32 -66z" />
    <glyph glyph-name="agrave.sc" unicode="&#xf7e0;" horiz-adv-x="1089" 
d="M639 1151l-348 176q20 41 65 107l326 -209q-18 -37 -43 -74zM547 860h-12q-25 -66 -87 -222t-78 -198t-10 -43h355q-18 51 -168 463zM1090 0l-166 2l-240 -2l2 90l133 4q8 0 3 13t-74 192q-2 8 -11 8l-415 -2q-25 -63 -80 -211l155 -4q0 -61 -2 -90l-245 2l-148 -2
q0 57 2 88l90 6q10 4 12 8q379 903 390 928q33 2 125 2q71 -174 368 -938l103 -4q0 -61 -2 -90z" />
    <glyph glyph-name="aacute.sc" unicode="&#xf7e1;" horiz-adv-x="1089" 
d="M467 1151q-20 30 -43 76q211 137 328 209q37 -49 65 -107q-12 -6 -350 -178zM547 860h-12q-25 -66 -87 -222t-78 -198t-10 -43h355q-18 51 -168 463zM1090 0l-166 2l-240 -2l2 90l133 4q8 0 3 13t-74 192q-2 8 -11 8l-415 -2q-25 -63 -80 -211l155 -4q0 -61 -2 -90
l-245 2l-148 -2q0 57 2 88l90 6q10 4 12 8q379 903 390 928q33 2 125 2q71 -174 368 -938l103 -4q0 -61 -2 -90z" />
    <glyph glyph-name="acircumflex.sc" unicode="&#xf7e2;" horiz-adv-x="1089" 
d="M600 1440l213 -254q-39 -39 -59 -56q-130 130 -193 189q-57 -55 -190 -189l-62 54q121 145 215 254q25 2 76 2zM547 860h-12q-25 -66 -87 -222t-78 -198t-10 -43h355q-18 51 -168 463zM1090 0l-166 2l-240 -2l2 90l133 4q8 0 3 13t-74 192q-2 8 -11 8l-415 -2
q-25 -63 -80 -211l155 -4q0 -61 -2 -90l-245 2l-148 -2q0 57 2 88l90 6q10 4 12 8q379 903 390 928q33 2 125 2q71 -174 368 -938l103 -4q0 -61 -2 -90z" />
    <glyph glyph-name="atilde.sc" unicode="&#xf7e3;" horiz-adv-x="1089" 
d="M672 1159q-47 0 -129 62q-35 26 -43 30q-8 3 -25 13t-39 10q-47 0 -67 -103h-76q16 205 149 205q45 0 70 -16q26 -16 44 -30t24 -18q8 -4 23 -16t30 -22t43 -10t42 26q13 26 19 78h76q-12 -209 -141 -209zM547 860h-10q-171 -438 -177 -450t0 -13h355q-162 445 -168 463z
M1090 0l-166 2l-240 -2l2 90l133 4q8 0 3 13t-74 192q-2 8 -11 8l-415 -2q-25 -63 -80 -211l155 -4q0 -61 -2 -90l-245 2l-148 -2q0 57 2 88l90 6q10 4 12 8q379 903 390 928q33 2 125 2q71 -174 368 -938l103 -4q0 -61 -2 -90z" />
    <glyph glyph-name="adieresis.sc" unicode="&#xf7e4;" horiz-adv-x="1089" 
d="M716 1346q44 0 66 -28t23 -64q0 -36 -25 -60q-24 -24 -64 -25q-40 0 -64 27q-24 26 -24 60t22 62t66 28zM397 1169q-39 0 -65 25q-26 24 -25 60q-1 36 23 64t68 28t64 -28t21 -62t-23 -60t-63 -27zM547 860h-10q-159 -402 -171 -432t-6 -31h355q-162 445 -168 463z
M1090 0l-166 2l-240 -2l2 90l133 4q8 0 3 13t-74 192q-2 8 -11 8l-415 -2q-25 -63 -80 -211l155 -4q0 -61 -2 -90l-245 2l-148 -2q0 57 2 88l90 6q10 4 12 8q379 903 390 928q33 2 125 2q71 -174 368 -938l103 -4q0 -61 -2 -90z" />
    <glyph glyph-name="aring.sc" unicode="&#xf7e5;" horiz-adv-x="1089" 
d="M558 1430q-48 0 -77 -30t-29 -72t32 -70q30 -28 76 -28t73 28t26 73q0 45 -26 72q-27 27 -75 27zM560 1503q87 0 141 -48q55 -48 55 -123t-58 -125t-141 -50q-84 0 -142 47q-59 47 -59 120t58 126t146 53zM547 860h-12q-25 -66 -87 -222t-78 -198t-10 -43h355
q-18 51 -168 463zM1090 0l-166 2l-240 -2l2 90l133 4q8 0 3 13t-74 192q-2 8 -11 8l-415 -2q-25 -63 -80 -211l155 -4q0 -61 -2 -90l-245 2l-148 -2q0 57 2 88l90 6q10 4 12 8q379 903 390 928q33 2 125 2q71 -174 368 -938l103 -4q0 -61 -2 -90z" />
    <glyph glyph-name="ae.sc" unicode="&#xf7e6;" horiz-adv-x="1517" 
d="M745 922h-12q-37 -59 -254 -426q-8 -12 6 -13h260v439zM899 125q0 -19 14 -25q15 -6 155 -6t179 12q20 2 31 31l51 131q68 -10 105 -20q-27 -135 -56 -248h-766q0 59 2 88l125 6q6 0 6 6v285q0 8 -8 8l-315 -2q-14 -23 -174 -297l145 -4q0 -61 -2 -90h-405q0 57 2 90
l104 6q6 0 12 6q20 33 241 385q220 352 329 523q6 6 14 6l148 -2l368 2h166q8 -119 12 -252q-49 -6 -104 -12l-27 133q-6 27 -41 28q-86 8 -260 9h-47l-4 -400q176 0 262 4q35 0 41 33l6 76q55 4 103 0q0 -109 -2 -162v-145q-35 -2 -105 -2l-4 67q-2 33 -43 33
q-156 4 -258 2v-303z" />
    <glyph glyph-name="ccedilla.sc" unicode="&#xf7e7;" horiz-adv-x="1060" 
d="M578 -18q-178 0 -312 94q-80 59 -128 157t-48 218q0 291 219 464q156 121 393 121q150 0 226 -32q12 -139 18 -285q-41 -6 -112 -12l-27 174q-4 20 -14 24q-49 25 -129 25q-158 0 -263 -96q-139 -135 -139 -334t97 -303t280 -105q127 0 297 60q16 -51 25 -101
q-143 -49 -259 -63l-112 -115q55 -10 86 -45t31 -84q0 -76 -71 -123t-185 -49q-2 10 -6 35q-3 25 -5 35q150 10 150 90t-113 80l-7 21q-5 16 -9 22l131 127h-14z" />
    <glyph glyph-name="egrave.sc" unicode="&#xf7e8;" horiz-adv-x="1001" 
d="M602 1167q-74 36 -350 176q24 44 67 107l326 -209zM540 94q136 0 189 12q20 2 31 31l53 137q61 -10 102 -18q-18 -104 -57 -256h-764q0 57 2 90l119 4q6 0 6 6v820l-125 4v92h754q6 -90 14 -250q-31 -4 -104 -12l-27 131q-6 25 -41 28q-164 8 -264 9l-47 -2l-2 -353
q174 0 264 4q35 0 41 31l6 74h103l-2 -160v-149q-66 -4 -105 -2l-4 73q-4 35 -43 35q-76 2 -260 2l-2 -348q0 -21 14 -27q13 -6 149 -6z" />
    <glyph glyph-name="eacute.sc" unicode="&#xf7e9;" horiz-adv-x="1001" 
d="M760 1343q-212 -108 -350 -176l-43 74q173 113 327 211q29 -37 66 -109zM540 94q136 0 189 12q20 2 31 31l53 137q61 -10 102 -18q-18 -104 -57 -256h-764q0 57 2 90l119 4q6 0 6 6v820l-125 4v92h754q6 -90 14 -250q-31 -4 -104 -12l-27 131q-6 25 -41 28q-164 8 -264 9
l-47 -2l-2 -353q174 0 264 4q35 0 41 31l6 74h103l-2 -160v-149q-66 -4 -105 -2l-4 73q-4 35 -43 35q-76 2 -260 2l-2 -348q0 -21 14 -27q13 -6 149 -6z" />
    <glyph glyph-name="ecircumflex.sc" unicode="&#xf7ea;" horiz-adv-x="1001" 
d="M535 1456l215 -254q-39 -39 -60 -55q-129 129 -192 188q-59 -55 -193 -188q-41 37 -59 53q121 145 215 254q25 2 74 2zM540 94q136 0 189 12q20 2 31 31l53 137q61 -10 102 -18q-18 -104 -57 -256h-764q0 57 2 90l119 4q6 0 6 6v820l-125 4v92h754q6 -90 14 -250
q-31 -4 -104 -12l-27 131q-6 25 -41 28q-164 8 -264 9l-47 -2l-2 -353q174 0 264 4q35 0 41 31l6 74h103l-2 -160v-149q-66 -4 -105 -2l-4 73q-4 35 -43 35q-76 2 -260 2l-2 -348q0 -21 14 -27q13 -6 149 -6z" />
    <glyph glyph-name="edieresis.sc" unicode="&#xf7eb;" horiz-adv-x="1001" 
d="M667 1362q45 0 67 -28t22 -64t-25 -60t-65 -24t-63 26t-23 61q0 33 22 61t65 28zM349 1362q45 0 65 -28t20 -62t-24 -60t-62 -26t-64 24t-26 61q0 35 24 63t67 28zM540 94q136 0 189 12q20 2 31 31l53 137q61 -10 102 -18q-18 -104 -57 -256h-764q0 57 2 90l119 4
q6 0 6 6v820l-125 4v92h754q6 -90 14 -250q-31 -4 -104 -12l-27 131q-6 25 -41 28q-164 8 -264 9l-47 -2l-2 -353q174 0 264 4q35 0 41 31l6 74h103l-2 -160v-149q-66 -4 -105 -2l-4 73q-4 35 -43 35q-76 2 -260 2l-2 -348q0 -21 14 -27q13 -6 149 -6z" />
    <glyph glyph-name="igrave.sc" unicode="&#xf7ec;" horiz-adv-x="612" 
d="M410 1167l-349 176q21 41 66 107l326 -209q-18 -37 -43 -74zM227 106v814l-137 6q0 61 2 90l227 -2l211 2q0 -57 -2 -90l-137 -6q-4 0 -4 -7l-4 -815l147 -6q0 -61 -2 -92l-213 2l-223 -2q0 59 2 92l125 6q8 0 8 8z" />
    <glyph glyph-name="iacute.sc" unicode="&#xf7ed;" horiz-adv-x="612" 
d="M492 1450q37 -45 67 -107q-8 -4 -350 -178q-20 31 -43 76q105 70 326 209zM227 106v814l-137 6q0 61 2 90l227 -2l211 2q0 -57 -2 -90l-137 -6q-4 0 -4 -7l-4 -815l147 -6q0 -61 -2 -92l-213 2l-223 -2q0 59 2 92l125 6q8 0 8 8z" />
    <glyph glyph-name="icircumflex.sc" unicode="&#xf7ee;" horiz-adv-x="612" 
d="M309 1335q-59 -55 -192 -188q-41 37 -60 53q113 139 215 254q25 2 74 2q10 -12 213 -254q-25 -27 -59 -55q-130 129 -191 188zM227 106v814l-137 6q0 61 2 90l227 -2l211 2q0 -57 -2 -90l-137 -6q-4 0 -4 -7l-4 -815l147 -6q0 -61 -2 -92l-213 2l-223 -2q0 59 2 92l125 6
q8 0 8 8z" />
    <glyph glyph-name="idieresis.sc" unicode="&#xf7ef;" horiz-adv-x="612" 
d="M466 1362q44 0 66 -28t23 -64q0 -36 -25 -60q-24 -24 -64 -24t-64 26t-24 61q0 33 22 61t66 28zM148 1362q44 0 64 -28t21 -62t-23 -60t-63 -26t-65 24t-25 61q-1 35 23 63t68 28zM227 106v814l-137 6q0 61 2 90l227 -2l211 2q0 -57 -2 -90l-137 -6q-4 0 -4 -7l-4 -815
l147 -6q0 -61 -2 -92l-213 2l-223 -2q0 59 2 92l125 6q8 0 8 8z" />
    <glyph glyph-name="eth.sc" unicode="&#xf7f0;" horiz-adv-x="1226" 
d="M967 510q0 104 -33 182q-33 80 -113 144q-113 90 -332 90q-39 0 -94 -6l-2 -373q92 2 312 2q0 -35 -5 -96h-307l-2 -306q0 -35 23 -46t100 -9q213 0 324 92q57 50 93 136t36 190zM532 0h-423v88l118 4q8 0 9 10v351h-148q0 63 2 94h146v373l-127 6v90l370 2
q283 0 426 -82q103 -56 167 -162t65 -235q0 -293 -209 -441q-147 -98 -396 -98z" />
    <glyph glyph-name="ntilde.sc" unicode="&#xf7f1;" horiz-adv-x="1267" 
d="M559 1290q-47 0 -67 -102h-76q16 205 149 205q42 -1 62 -13q63 -39 73 -49q8 -4 34 -24t38 -23q12 -2 33 -2q41 0 53 102h76q-6 -92 -36 -150t-105 -56q-47 0 -115 50t-87 56t-32 6zM104 0q0 59 2 90l107 6q10 0 10 8v816l-125 4q-2 35 2 92l277 -2q297 -412 571 -834
l8 2q0 371 -6 738l-162 4q0 63 3 90h217l180 2v-90l-105 -6q-6 0 -6 -9l-6 -901q-57 -20 -123 -20q-270 348 -594 827h-10l-2 -721l174 -4q0 -63 -2 -92h-410z" />
    <glyph glyph-name="ograve.sc" unicode="&#xf7f2;" horiz-adv-x="1245" 
d="M729 1167q-74 36 -350 176q24 44 67 107l326 -209q-18 -37 -43 -74zM626 74q146 0 238 100q119 135 119 340t-117 328q-92 100 -227 100t-236 -84q-139 -121 -139 -346t119 -342q97 -96 243 -96zM608 -20q-228 0 -372 137q-143 137 -144 375q0 147 65 268
q148 276 481 276t462 -259q55 -112 55 -242q0 -266 -176 -429q-143 -126 -371 -126z" />
    <glyph glyph-name="oacute.sc" unicode="&#xf7f3;" horiz-adv-x="1245" 
d="M831 1452q33 -39 68 -106q-25 -12 -350 -179q-25 37 -43 74q180 119 325 211zM626 74q146 0 238 100q119 135 119 340t-117 328q-92 100 -227 100t-236 -84q-139 -121 -139 -346t119 -342q97 -96 243 -96zM608 -20q-228 0 -372 137q-143 137 -144 375q0 147 65 268
q148 276 481 276t462 -259q55 -112 55 -242q0 -266 -176 -429q-143 -126 -371 -126z" />
    </font>
</defs>
</svg>
