<?xml version="1.0" standalone="no"?>
<!DOCTYPE svg PUBLIC "-//W3C//DTD SVG 1.1//EN" "http://www.w3.org/Graphics/SVG/1.1/DTD/svg11.dtd" >
<svg xmlns="http://www.w3.org/2000/svg">
<metadata>
Created by FontPrep 20130207 at Wed Mar 25 10:59:16 2015
 By Bradley Gorman
(c) 1997, 2000 Adobe Systems Incorporated. All rights reserved.
</metadata>
<defs>
<font id="ba58dfe155ca410f0ebb2f101d571d37" horiz-adv-x='1024' >
  <font-face 
    font-family="ChaparralPro-Italic"
    font-weight="400"
    font-style="italic"
    font-stretch="normal"
    units-per-em="2048"
    panose-1="2 6 5 3 4 5 5 9 2 3"
    ascent="1516"
    descent="-532"
    x-height="860"
    cap-height="1331"
    bbox="-350 -647 2134 1776"
    underline-thickness="110"
    underline-position="-94"
    slope="-10"
    unicode-range="U+0020-FB04"
  />
<missing-glyph horiz-adv-x="1024" 
d="M102 1239v-1044l349 522zM164 102h696l-348 523zM573 717l349 -522v1044zM512 809l348 522h-696zM0 0v1434h1024v-1434h-1024z" />
    <glyph glyph-name="T_h" unicode="Th" horiz-adv-x="1970" 
d="M1847 711q0 -162 -164 -615q-8 -12 9 -12q39 0 145 27q10 -43 12 -86q-123 -43 -268 -43q-8 0 -29 21q-20 22 -24 40q82 238 125 409t43 220q0 74 -64 73q-90 1 -228 -121t-163 -214q-82 -339 -102 -410h-142l283 1184q4 24 -3 30t-38 9q-166 6 -473 6l-197 -1129l199 -6
q-2 -14 -18 -96l-263 2q-41 0 -128 -1t-128 -1q8 59 19 96l162 6q8 0 8 9l188 1120q-190 0 -278 -6q-45 -4 -58 -39l-61 -199q-74 4 -100 8q49 246 69 338l191 -2h735l326 2q26 4 22 -18q-141 -553 -176 -692l10 -5q227 256 412 263q37 -6 76 -34t59 -73q12 -20 12 -61z" />
    <glyph glyph-name="Tcaron_h" unicode="&#x164;h" horiz-adv-x="1970" 
d="M1012 1661q-183 -137 -277 -203q-47 0 -67 2q-135 135 -205 201q25 31 57 59q86 -61 199 -149q236 143 248 151q18 -16 45 -61zM1847 711q0 -162 -164 -615q-8 -12 9 -12q39 0 145 27q10 -43 12 -86q-123 -43 -268 -43q-8 0 -29 21q-20 22 -24 40q82 238 125 409t43 220
q0 74 -64 73q-90 1 -228 -121t-163 -214q-82 -339 -102 -410h-142l283 1184q4 24 -3 30t-38 9q-166 6 -473 6l-197 -1129l199 -6q-2 -14 -18 -96l-263 2q-41 0 -128 -1t-128 -1q8 59 19 96l162 6q8 0 8 9l188 1120q-190 0 -278 -6q-45 -4 -58 -39l-61 -199q-74 4 -100 8
q49 246 69 338l191 -2h735l326 2q26 4 22 -18q-141 -553 -176 -692l10 -5q227 256 412 263q37 -6 76 -34t59 -73q12 -20 12 -61z" />
    <glyph glyph-name="Tcommaaccent_h" unicode="&#x162;h" horiz-adv-x="1970" 
d="M598 -207q0 -100 -72 -188t-172 -142q-33 41 -47 64q145 94 146 182q0 57 -80 80q2 61 39 99t81 38q45 0 75 -39t30 -94zM1847 711q0 -162 -164 -615q-8 -12 9 -12q39 0 145 27q10 -43 12 -86q-123 -43 -268 -43q-8 0 -29 21q-20 22 -24 40q82 238 125 409t43 220
q0 74 -64 73q-90 1 -227 -121t-162 -214q-12 -45 -53 -213t-49 -197h-144l283 1184q4 24 -3 30t-38 9q-166 6 -473 6l-195 -1129l197 -6q-8 -59 -18 -96l-261 2q-41 0 -128 -1t-128 -1q11 37 19 96l160 6q10 0 10 9l188 1120q-188 0 -280 -6q-43 -4 -56 -39l-61 -199
q-74 4 -102 8l69 338l191 -2h735l326 2q26 4 22 -18q-141 -553 -176 -692l10 -5q227 256 412 263q37 -6 76 -34t59 -73q12 -20 12 -61z" />
    <glyph glyph-name="f_f_j" unicode="ffj" horiz-adv-x="1574" 
d="M1309 1382q125 0 223 -47q0 -27 -30 -73t-56 -56q-125 60 -221 60t-162 -78q-43 -53 -66 -123t-47 -209h305q186 27 213 27t58 -47q-80 -442 -119 -636t-68 -277q-55 -156 -184 -288q-109 -109 -149 -107q-16 1 -58 39q-41 38 -45 60q164 61 234 153t114 335
q70 375 111 641q-221 4 -428 0q-113 -639 -197 -1084q-20 0 -66 -1t-71 -1q80 449 191 1084h-422q-53 -303 -191 -1082q-90 -4 -137 -4q53 301 184 1084h-168q6 47 17 94q49 4 159 8q12 0 13 14q26 146 58 222t102 143q137 137 356 137q82 0 121 -24q0 -27 -28 -71t-50 -54
q-53 31 -154 31q-161 -1 -222 -195q-22 -70 -46 -203q23 2 418 2q6 2 10 12q23 146 57 226t107 151q139 137 334 137z" />
    <glyph glyph-name="f_j" unicode="fj" horiz-adv-x="1036" 
d="M752 1380q133 0 225 -47q0 -25 -30 -71t-54 -58q-119 60 -221 60t-166 -78q-45 -53 -69 -125t-46 -209q37 2 123 5t142 6t146 11q89 8 116 9q18 0 47 -52q-94 -517 -127 -673t-62 -239q-55 -158 -184 -287q-112 -110 -150 -106q-16 2 -58 39q-42 38 -44 60
q166 63 234 153t114 333q4 23 39 213t74 428h-424q-66 -377 -197 -1082q-45 -2 -139 -2q74 410 190 1084h-165q8 68 14 92q49 4 160 8q10 0 10 14q24 142 60 224t108 153q139 137 334 137z" />
    <glyph glyph-name="f_f" unicode="ff" horiz-adv-x="1206" 
d="M768 1372q80 0 119 -24q0 -29 -27 -72t-51 -55q-67 33 -159 33q-176 -1 -233 -257q-9 -39 -30 -143q287 0 416 2q8 0 12 14q25 144 57 226t103 149q139 139 334 139q78 0 118 -26q1 -29 -27 -74t-50 -55q-82 35 -155 35q-149 0 -213 -262q-9 -40 -30 -146q50 0 156 1
t156 1q-8 -68 -19 -102q-217 0 -309 -2q-49 -283 -195 -1082q-23 0 -67 -1t-70 -1q164 940 189 1084h-422q-27 -154 -191 -1084q-45 -2 -137 -2q53 301 184 1084h-166q6 47 17 94q51 4 158 8q10 0 14 14q26 146 56 222t100 143q141 139 362 139z" />
    <glyph glyph-name="f_f_i" unicode="ffi" horiz-adv-x="1630" 
d="M768 1370q78 0 119 -22q0 -29 -27 -72t-51 -55q-61 31 -157 31t-156 -74q-40 -51 -60 -119t-47 -205q285 0 412 2q10 0 12 14q23 142 59 224t107 151q139 137 330 137q131 0 225 -47q0 -25 -30 -71t-54 -58q-271 128 -383 -18q-45 -53 -68 -123t-47 -211q352 0 490 23
q18 2 24 2q6 -1 26 -19t28 -33q-92 -377 -177 -733q-4 -14 7 -14q35 0 155 33q12 -57 15 -86q-127 -45 -254 -45q-10 0 -37 22t-33 41q20 94 78 341q57 247 84 368h-422l-193 -1082q-23 0 -67 -1t-70 -1q111 633 187 1084h-422q-35 -197 -109 -611t-84 -473q-45 -2 -137 -2
q115 655 186 1084h-166q10 72 15 94q53 4 160 8q10 0 14 14q24 142 56 220t102 147q139 135 360 135z" />
    <glyph glyph-name="f_f_l" unicode="ffl" horiz-adv-x="1652" 
d="M1266 1268q-197 0 -264 -204q-24 -73 -48 -208q303 0 435 2q41 178 86 371q-82 39 -209 39zM766 1370q84 0 123 -24q0 -29 -27 -72t-51 -55q-57 33 -155 33q-183 -1 -239 -256q-9 -40 -30 -142h416q8 0 12 16q20 138 57 220t111 155q137 135 348 135q74 0 166 -20
t141 -49q-61 -256 -282 -1215q-4 -12 6 -12q63 0 178 31q8 -63 10 -88q-154 -45 -280 -45q-8 0 -32 19t-34 40q4 20 162 715q-305 0 -428 -2q-113 -637 -195 -1082q-23 0 -67 -1t-70 -1q8 43 189 1084l-422 -2q-104 -608 -189 -1082q-45 -2 -137 -2q129 768 182 1084h-168
q6 47 17 94q53 4 160 8q8 0 12 14q26 146 56 222t100 143q141 137 360 137z" />
    <glyph glyph-name="f_i" unicode="fi" horiz-adv-x="1069" 
d="M748 1380q129 0 227 -47q0 -25 -30 -71t-54 -58q-119 60 -223 60t-164 -78q-45 -53 -69 -125t-46 -209q310 0 467 20l47 7q7 -1 27 -19t28 -33q-92 -377 -176 -733q-4 -14 6 -14q35 0 156 33q8 -35 14 -86q-127 -45 -253 -45q-10 0 -37 22t-35 41q138 610 164 709
l-422 -2q-119 -670 -197 -1082q-45 -2 -139 -2q80 449 190 1084q-106 0 -166 -2q8 66 15 94q49 4 160 8q10 0 10 14q20 140 57 222t111 155q139 137 332 137z" />
    <glyph glyph-name="f_l" unicode="fl" horiz-adv-x="1091" 
d="M700 1268q-129 0 -192 -78q-47 -55 -71 -129t-46 -209q300 0 434 4q78 342 86 373q-82 39 -211 39zM766 1380q76 0 168 -20t141 -49q-61 -256 -282 -1215q-4 -12 6 -12q63 0 178 31q8 -63 10 -88q-154 -45 -282 -45q-8 0 -31 20t-35 41q10 43 69 296q58 253 95 415h-428
q-102 -584 -195 -1084q-45 -2 -139 -2q96 535 188 1084h-166q4 37 17 94q106 4 158 6q12 0 12 14q24 142 60 224t110 157q139 133 346 133z" />
    <glyph glyph-name="uni021A_h" unicode="&#x21a;h" horiz-adv-x="1970" 
d="M598 -207q0 -100 -72 -188t-172 -142q-33 41 -47 64q145 94 146 182q0 57 -80 80q2 61 39 99t81 38q45 0 75 -39t30 -94zM1847 711q0 -162 -164 -613q-8 -14 9 -14q43 0 145 29q10 -43 12 -88q-123 -43 -268 -43q-8 0 -29 21q-20 22 -24 42q78 221 131 422q37 160 37 205
q0 74 -64 73q-92 1 -228 -121t-161 -216q-12 -45 -53 -213t-49 -195h-144l283 1184q4 24 -3 30t-38 9q-166 6 -473 6l-195 -1129l197 -6q-8 -59 -18 -96l-261 2q-41 0 -128 -1t-128 -1q11 37 19 96l160 6q10 0 10 9l188 1120q-188 0 -280 -6q-43 -4 -56 -39l-61 -199
q-74 4 -102 8l69 338l191 -2h735l326 2q14 0 19 -4t3 -14q-141 -553 -176 -692l10 -5q227 256 412 263q37 -6 76 -34t59 -73q12 -20 12 -61z" />
    <glyph glyph-name=".notdef" horiz-adv-x="1024" 
d="M102 1239v-1044l349 522zM164 102h696l-348 523zM573 717l349 -522v1044zM512 809l348 522h-696zM0 0v1434h1024v-1434h-1024z" />
    <glyph glyph-name=".null" horiz-adv-x="0" 
 />
    <glyph glyph-name="nonmarkingreturn" horiz-adv-x="681" 
 />
    <glyph glyph-name="space" unicode=" " horiz-adv-x="409" 
 />
    <glyph glyph-name="exclam" unicode="!" horiz-adv-x="518" 
d="M186 186q47 0 73 -32t26 -72q0 -41 -32 -71q-32 -29 -78 -29t-74 26q-27 26 -27 68q0 43 32 77q33 33 80 33zM489 1348q2 -2 3 -7q-55 -256 -216 -999q-57 -8 -104 -8q10 65 32 244q24 178 46 352t45 387q29 11 100 21t94 10z" />
    <glyph glyph-name="quotedbl" unicode="&#x22;" horiz-adv-x="628" 
d="M674 1430q-66 -276 -99 -437q-33 -10 -100 -10q12 102 39 426q54 21 160 21zM381 1430q-66 -276 -98 -437q-33 -10 -101 -10q25 246 39 426q54 21 160 21z" />
    <glyph glyph-name="numbersign" unicode="#" horiz-adv-x="1048" 
d="M639 573l94 287h-223q-66 -193 -96 -287h225zM766 958q63 188 125 365q43 0 108 -4q-16 -47 -59 -170t-66 -191q123 0 213 3q-6 -45 -20 -101h-227l-97 -287q164 0 230 -2q-6 -37 -21 -94h-241q-25 -70 -74 -210t-70 -197q-35 -2 -100 2q74 197 139 405q-72 -2 -225 -2
q-25 -66 -143 -405q-31 -2 -99 2q23 68 69 202t68 201q-40 0 -114 -1t-105 -1q10 55 23 100h229q43 127 94 287q-168 0 -231 2q9 32 18 94h246q16 45 125 367q47 0 109 -4q-35 -97 -127 -363q70 2 223 2z" />
    <glyph glyph-name="dollar" unicode="$" horiz-adv-x="1048" 
d="M752 391q0 70 -40 112t-134 81q-49 -266 -80 -432q96 8 164 57q90 69 90 182zM350 922q0 -62 38 -100t136 -77q12 72 36 206t34 194q-84 0 -148 -43q-96 -67 -96 -180zM891 422q0 -164 -148 -270q-98 -72 -262 -91l-18 -99q-12 -67 -19 -99q-92 -6 -94 -6q12 66 37 200
q-227 -4 -342 72q18 74 82 117q127 -92 279 -94q37 199 81 464q-137 56 -207 120t-69 162q0 98 53 170q53 71 119 106q98 57 229 63q12 66 35 201q43 10 103 14q-4 -24 -18 -96t-21 -115q182 0 258 -51q-16 -74 -74 -119q-102 66 -205 74l-78 -432q147 -53 213 -119t66 -172
z" />
    <glyph glyph-name="percent" unicode="%" horiz-adv-x="1542" 
d="M1106 59q116 0 174 167q27 77 27 163t-34 134q-35 48 -99 48t-111 -45t-73 -128q-26 -84 -26 -168t39 -128q37 -44 103 -43zM1088 -20q-112 0 -182 68q-71 68 -70 198q0 200 157 336q80 70 197 69q117 0 178 -73q66 -70 66 -201q0 -80 -37 -168t-105 -152
q-92 -77 -204 -77zM384 750q64 0 112 49q92 96 92 277t-131 184q-134 0 -188 -172q-25 -82 -25 -167t38 -128t102 -43zM370 670q-114 0 -177 63q-78 74 -78 203q0 88 40 178q39 90 119 158t197 67q729 8 780 13q18 -25 41 -68q-181 -241 -507 -693q-325 -452 -466 -644
q-10 6 -83 51q198 266 907 1257l-2 9q-158 -2 -490 -2q63 -59 64 -193q0 -193 -144 -321q-87 -78 -201 -78z" />
    <glyph glyph-name="ampersand" unicode="&#x26;" horiz-adv-x="1372" 
d="M193 330q0 -115 75 -185q76 -66 195 -65q205 0 375 166q-195 287 -381 426q-264 -119 -264 -342zM780 1069q0 80 -45 131q-47 49 -135 49q-88 1 -150 -59t-63 -159q0 -99 68 -175q25 -27 77 -76q248 100 248 289zM242 1008q0 146 123 249q101 84 253 84t226 -75
q76 -72 76 -187q0 -225 -304 -356v-8q195 -174 324 -375q100 123 131 301q4 23 -12 23l-119 4q6 41 16 88h205q29 0 87 1t85 1q-10 -66 -14 -90l-113 -4q-53 -240 -211 -402l90 -135q23 -35 54 -35l145 -2q-8 -53 -18 -88q-115 -8 -260 -12q-44 63 -113 174
q-104 -82 -175 -119q-124 -65 -298 -65t-279 88t-105 232q0 142 94 258q93 116 257 179l2 8q-147 117 -147 263z" />
    <glyph glyph-name="quotesingle" unicode="'" horiz-adv-x="358" 
d="M387 1430q-66 -276 -98 -437q-33 -10 -101 -10q25 246 39 426q54 21 160 21z" />
    <glyph glyph-name="parenleft" unicode="(" horiz-adv-x="684" 
d="M117 387q0 317 184 621t455 452q20 -31 35 -76q-199 -124 -363 -406t-164 -607q0 -209 60 -347t168 -253q-20 -29 -62 -66q-143 129 -228 285t-85 397z" />
    <glyph glyph-name="parenright" unicode=")" horiz-adv-x="684" 
d="M592 782q0 -332 -186 -630t-451 -445q-18 33 -39 76q193 128 350 377q80 127 129 295t49 344q0 373 -229 598q37 45 57 65q136 -109 228 -279t92 -401z" />
    <glyph glyph-name="asterisk" unicode="*" horiz-adv-x="737" 
d="M406 1176l32 256q51 4 94 0l-53 -256l223 149q20 -27 48 -82l-248 -135l205 -143q-23 -39 -60 -76l-190 162l-35 -265q-51 -4 -94 2l55 261l-219 -150q-45 82 -45 84l246 133l-207 141q27 39 57 74z" />
    <glyph glyph-name="plus" unicode="+" horiz-adv-x="1048" 
d="M578 539q244 0 354 2q2 -23 -4 -115h-350q0 -242 -3 -401q-49 -6 -110 -7v408h-350q0 39 4 109q225 0 346 2v381q57 6 117 6q-4 -114 -4 -385z" />
    <glyph glyph-name="comma" unicode="," horiz-adv-x="499" 
d="M305 55q0 -104 -74 -195t-178 -147q-25 29 -49 66q150 98 150 188q0 61 -82 82q4 63 41 103t82 41q45 -1 77 -41t33 -97z" />
    <glyph glyph-name="hyphen" unicode="-" horiz-adv-x="614" 
d="M295 547q168 0 250 4q-4 -31 -19 -113h-467q6 47 17 109h219z" />
    <glyph glyph-name="period" unicode="." horiz-adv-x="499" 
d="M201 203q53 0 78 -35t25 -78t-34 -76q-33 -32 -81 -32q-49 0 -77 30t-28 74q0 45 32 81t85 36z" />
    <glyph glyph-name="slash" unicode="/" horiz-adv-x="806" 
d="M895 1339q-216 -360 -889 -1450q-39 20 -86 54q335 544 571 942q236 397 310 516q45 -25 94 -62z" />
    <glyph glyph-name="zero" unicode="0" horiz-adv-x="1048" 
d="M648 1247q-104 0 -191 -89q-89 -89 -151 -314q-62 -226 -62 -408t46 -272t152 -90t192 88q87 88 150 313q64 225 64 415t-41 261q-55 96 -159 96zM664 1341q342 -1 342 -457q0 -232 -81 -457q-161 -449 -505 -447q-146 0 -240 104t-94 335q0 230 75 453t205 346t298 123z
" />
    <glyph glyph-name="one" unicode="1" horiz-adv-x="1048" 
d="M753 1346q5 0 3 -9q-100 -586 -217 -1235l315 -4q-6 -43 -16 -98l-389 2q-59 0 -183 -1t-186 -1q4 30 16 96l289 6q8 0 8 11q124 682 178 1028q-268 -59 -354 -80q-8 59 -10 92q230 71 385 132q156 61 161 61z" />
    <glyph glyph-name="two" unicode="2" horiz-adv-x="1048" 
d="M965 1004q0 -84 -37 -174t-80 -154t-121 -144t-112 -110t-135 -117q-101 -88 -236 -182v-10q193 0 633 10l6 -2q-10 -70 -29 -123l-520 2h-285q-20 68 -24 84q654 492 748 742q32 83 32 173t-47 158q-60 80 -186 80t-201 -53q-13 -13 -15 -25l-53 -196l-108 10
q31 174 53 295q168 74 352 74t274 -97q91 -96 91 -241z" />
    <glyph glyph-name="three" unicode="3" horiz-adv-x="1048" 
d="M371 -20q-217 0 -305 28q-7 186 -7 291q45 10 109 14l27 -184q4 -16 14 -23q59 -27 168 -26q156 0 250 70q113 82 112 233q0 111 -82 181t-219 69h-121q4 55 13 102q211 -4 342 82t131 221q0 82 -45 136q-53 68 -191 67q-45 0 -116 -16t-84 -51l-50 -187q-50 0 -110 12
q33 184 51 275q147 68 341 68t279 -86q85 -84 85 -206q-1 -122 -93 -213t-231 -128l-2 -13q129 -26 199 -108t69 -193q0 -199 -184 -321q-133 -94 -350 -94z" />
    <glyph glyph-name="four" unicode="4" horiz-adv-x="1048" 
d="M758 1137l-13 2q-55 -67 -221 -261t-344 -403q-10 -14 4 -14q205 -4 449 -4zM614 2q-45 0 -131 -1t-121 -1q7 31 19 88l178 6q12 0 12 8q8 45 24 129q15 84 21 123q-80 -2 -542 -2q-27 80 -37 121q41 45 318 362t440 494q90 0 133 -4q-52 -322 -152 -866q170 0 219 2
q-14 -80 -22 -105h-215q-14 -86 -47 -262l172 -4q-6 -47 -19 -88h-250z" />
    <glyph glyph-name="five" unicode="5" horiz-adv-x="1048" 
d="M489 850q207 0 313 -111t105 -249q0 -138 -58 -242t-140 -160q-150 -109 -390 -108q-150 0 -241 24q0 10 -12 289q34 6 108 14l27 -182q0 -14 12 -23q53 -23 145 -22q170 0 271 86q125 104 125 283q0 129 -86 205t-236 75q-150 0 -223 -18l-12 12q41 160 157 596h328
q231 0 338 2q-10 -70 -29 -127l-547 2q-8 -31 -43 -159t-53 -195q111 8 141 8z" />
    <glyph glyph-name="six" unicode="6" horiz-adv-x="1048" 
d="M569 698q-71 0 -155 -44t-144 -128q-52 -326 103 -426q47 -31 110 -30q102 0 183 75q111 104 110 306q0 103 -48 175t-159 72zM623 811q141 0 225 -95q84 -96 84 -230t-53 -242t-134 -170q-119 -94 -283 -94t-261 112q-101 119 -101 333t76 416q188 500 606 500
q111 0 183 -28q0 -178 -2 -269q-33 -6 -107 -14l-18 168q-4 16 -11 21q-27 20 -102 20q-156 0 -262 -135q-123 -157 -178 -436h10q152 143 328 143z" />
    <glyph glyph-name="seven" unicode="7" horiz-adv-x="1048" 
d="M225 1321l174 -2h621q12 -37 27 -119q-287 -414 -543 -954q-47 -98 -72 -244q-68 -6 -164 -6q20 141 84 262q217 410 539 926l-4 10q-473 4 -520 0t-66 -47l-55 -162q-89 15 -103 19q53 213 82 317z" />
    <glyph glyph-name="eight" unicode="8" horiz-adv-x="1048" 
d="M795 360q0 102 -74 172t-236 125q-121 -47 -203 -141t-83 -200q0 -106 57 -166q74 -78 202 -78t216 61q121 84 121 227zM365 993q0 -84 52 -137t189 -108q242 102 242 294q0 140 -112 187q-48 20 -97 20q-115 0 -182 -57q-92 -70 -92 -199zM946 387q0 -205 -192 -328
q-120 -79 -306 -79t-294 86t-108 220t92 242q93 108 247 174l2 9q-168 100 -168 268q0 88 48 163t106 118q121 82 280 81q78 1 148 -25t106 -63q84 -80 84 -188q1 -237 -280 -358l-2 -11q113 -49 175 -131t62 -178z" />
    <glyph glyph-name="nine" unicode="9" horiz-adv-x="1048" 
d="M518 625q156 0 293 149q39 251 -35 377q-53 100 -167 100t-181 -67q-119 -119 -119 -301t114 -237q46 -21 95 -21zM471 520q-73 0 -137 30q-180 84 -180 318q0 109 56 215t144 172q119 86 277 86q158 1 254 -113t96 -342t-79 -434t-175 -305q-170 -168 -420 -167
q-100 0 -188 16q-4 47 -9 137t-8 135q31 6 107 15l31 -168q2 -14 14 -23q27 -16 100 -16q164 0 277 135t170 436l-8 2q-162 -129 -322 -129z" />
    <glyph glyph-name="colon" unicode=":" horiz-adv-x="499" 
d="M201 201q53 0 77 -34t24 -77t-34 -76q-33 -32 -80 -32q-48 0 -76 30t-28 74q0 45 32 80t85 35zM317 850q53 0 77 -34t24 -77t-33 -75t-80 -33t-76 29t-29 74t32 80t85 36z" />
    <glyph glyph-name="semicolon" unicode=";" horiz-adv-x="499" 
d="M197 193q45 0 77 -39t31 -97q0 -104 -74 -196t-178 -146q-20 23 -49 64q150 98 150 190q0 57 -82 82q4 63 42 103t83 39zM316 850q54 0 78 -34t24 -77t-33 -75t-80 -33t-76 29t-28 75q0 45 30 80q31 35 85 35z" />
    <glyph glyph-name="less" unicode="&#x3c;" horiz-adv-x="1048" 
d="M348 487q80 -68 479 -397q-31 -49 -63 -84q-102 80 -286 222t-269 208q-2 31 -2 96q250 184 559 412q37 -41 61 -86q-424 -328 -479 -371z" />
    <glyph glyph-name="equal" unicode="=" horiz-adv-x="1048" 
d="M942 387q0 -39 -4 -108q-43 -1 -817 -7q0 66 6 115h815zM123 580q0 43 4 108q41 0 815 6q4 -49 -4 -114h-815z" />
    <glyph glyph-name="greater" unicode="&#x3e;" horiz-adv-x="1048" 
d="M711 481q-178 147 -480 387q29 49 62 84q233 -174 559 -420v-96q-508 -385 -559 -422q-25 29 -64 84q240 186 482 383z" />
    <glyph glyph-name="question" unicode="?" horiz-adv-x="880" 
d="M346 182q94 0 94 -102q0 -41 -34 -70q-34 -28 -78 -28q-45 0 -72 24t-27 67q0 41 35 75t82 34zM295 522q0 34 4 64q107 68 165 110q174 124 220 227q29 62 29 142t-51 131q-52 51 -144 51t-145 -37q-14 -10 -21 -24l-57 -178q-78 8 -109 14q43 199 62 272q141 58 307 58
t247 -79t82 -204q2 -251 -382 -473q-62 -41 -64 -92t11 -150q-45 -18 -109 -30q-14 32 -30 98t-15 100z" />
    <glyph glyph-name="at" unicode="@" horiz-adv-x="1271" 
d="M461 342q0 -43 44 -43t128 68t106 116q18 55 39 138q-45 57 -127 57q-49 0 -91 -45t-64 -115q-35 -88 -35 -176zM1098 643q0 141 -88 231t-258 90t-304 -96q-134 -98 -207 -244t-73 -306t98 -244t248 -84t266 71q16 -29 25 -65q-143 -80 -323 -80t-299 103
q-118 103 -117 298q0 123 51 249t141 232t228 172t311 66t287 -102t114 -279q0 -229 -151 -358q-113 -96 -289 -96q-33 0 -62 37q6 37 23 102l-12 4q-150 -141 -246 -141q-23 1 -66 25t-52 42t-9 74q0 54 32 154t106 181q76 81 168 81t155 -58h8l35 60q25 -4 94 -21
q-68 -250 -115 -450q-4 -14 14 -15q86 6 158 72q109 100 109 295z" />
    <glyph glyph-name="A" unicode="A" horiz-adv-x="1198" 
d="M381 512h430q-96 564 -104 612h-15q-30 -59 -144 -276t-171 -324q-6 -12 4 -12zM1143 0h-449q4 33 17 94l161 8q8 0 9 13q-37 203 -54 291q0 8 -12 8l-493 -2q-51 -96 -158 -310l182 -6q-4 -31 -16 -96h-447q17 84 19 94l108 8q8 0 17 11q111 197 348 636
q238 439 325 597q18 4 107 4q41 -211 124 -666t107 -582l123 -6q-6 -49 -18 -96z" />
    <glyph glyph-name="B" unicode="B" horiz-adv-x="1146" 
d="M487 90q158 0 271 82t112 225q0 85 -61 159q-75 90 -279 90q-104 0 -122 -5l-84 -473q-8 -45 25 -62q34 -16 138 -16zM530 737q145 0 257 78t112 207q0 92 -65 156q-66 63 -207 63q-80 0 -117 -8l-84 -492q29 -4 104 -4zM610 1333q210 0 318 -59q63 -35 97 -97t34 -130
q0 -115 -85 -206t-204 -128v-13q125 -24 196 -102t70 -180q0 -180 -158 -299t-405 -119h-479q4 24 16 94l142 4q14 0 16 15l188 1118l-153 4q16 84 18 94q179 4 389 4z" />
    <glyph glyph-name="C" unicode="C" horiz-adv-x="1171" 
d="M868 1239q-193 0 -329 -123q-125 -108 -191 -264t-66 -331q1 -284 203 -387q80 -40 194 -40t343 78q8 -63 6 -102q-256 -90 -401 -90q-219 0 -361 135q-150 137 -149 399q0 213 101 398t251 294q197 145 461 146q178 0 256 -45q-10 -100 -41 -353q-32 -4 -107 -4l6 230
q0 20 -8 26q-57 33 -168 33z" />
    <glyph glyph-name="D" unicode="D" horiz-adv-x="1368" 
d="M631 1239q-82 0 -117 -8l-184 -1059q-8 -49 20 -64t142 -16q268 0 411 125q94 82 160 220q65 138 65 340t-112 325q-131 137 -385 137zM637 1333q483 0 610 -310q49 -120 49 -247q0 -201 -91 -377t-238 -276q-182 -125 -492 -125l-242 2q-35 0 -113 -1t-118 -1
q10 51 16 94l136 6q14 0 16 13l188 1120l-145 4q2 20 18 94q213 4 406 4z" />
    <glyph glyph-name="E" unicode="E" horiz-adv-x="1089" 
d="M936 1010v176q0 33 -45 39q-106 8 -363 8q-16 0 -18 -8l-84 -498q218 0 286 2q69 2 81 11t16 32l27 98h94q-12 -78 -26 -147t-23 -131q-10 -62 -19 -109q-31 -2 -96 -2l10 103q4 27 -6 36t-74 10t-288 1l-82 -494q-4 -27 13 -34t182 -7t235 17q27 4 47 41l90 186
q43 -8 88 -27q-90 -264 -109 -315l-634 2q-43 0 -123 -1t-115 -1q12 65 18 96l140 6q8 0 12 9l186 1122l-149 6q12 50 18 94h840q-27 -223 -39 -315q-42 -6 -90 -6z" />
    <glyph glyph-name="F" unicode="F" horiz-adv-x="1067" 
d="M557 1231h-43l-94 -533q213 0 315 4q51 0 64 41l26 103q68 0 99 -2q-10 -46 -28 -142l-30 -160t-16 -91q-31 -2 -98 -2l10 106q2 25 -7 34t-69 11t-283 2l-86 -500l236 -6q-14 -72 -21 -96l-292 2q-43 0 -122 -1t-114 -1q12 57 16 94l136 6q12 2 12 13l190 1118l-145 4
l18 94h228l442 2q123 0 166 2q-12 -121 -35 -327q-49 -7 -98 -7l-6 187q0 35 -41 39q-78 6 -330 6z" />
    <glyph glyph-name="G" unicode="G" horiz-adv-x="1310" 
d="M956 1352q195 0 289 -66q-29 -221 -43 -334q-70 -4 -104 -4l8 207q0 25 -14 37q-61 55 -203 55q-358 0 -533 -373q-72 -156 -72 -340t83 -294q127 -164 366 -164q115 0 164 27q20 11 23 22l57 348l-215 4q4 33 16 98h482q-5 -32 -17 -98l-104 -4q-6 0 -11 -8l-73 -414
q-115 -71 -376 -71t-413 150t-152 378t104 418q103 188 259 291q205 135 479 135z" />
    <glyph glyph-name="H" unicode="H" horiz-adv-x="1462" 
d="M1276 1331q36 0 110 1t103 1q-4 -37 -16 -94l-134 -8q-8 0 -8 -8l-194 -1121l151 -6q-6 -49 -18 -96l-226 2q-40 0 -124 -1t-121 -1q4 27 16 96l162 6q10 0 12 13l88 522q0 8 -8 8l-655 -4l-97 -539l185 -6q-4 -31 -17 -96l-252 2q-37 0 -115 -1t-112 -1q14 56 19 96
l133 6q10 0 12 13l186 1116l-143 6q12 70 16 94h476q-4 -37 -17 -94l-170 -6q-6 0 -6 -8l-82 -471q4 -8 12 -9h654l82 488l-174 4q12 66 18 96h254z" />
    <glyph glyph-name="I" unicode="I" horiz-adv-x="641" 
d="M217 1331l248 -2q39 0 118 1t111 1q-6 -43 -20 -94l-156 -6q-4 0 -8 -8l-193 -1121l175 -6q-6 -39 -21 -96l-235 2q-39 0 -121 -1t-117 -1q6 30 18 96l140 6q12 0 12 11l188 1118l-157 6z" />
    <glyph glyph-name="J" unicode="J" horiz-adv-x="987" 
d="M242 -29q-135 0 -230 35q8 221 15 313q47 8 102 9l10 -199q0 -16 13 -25q49 -29 129 -28q147 0 226 92t114 330q18 119 106 735l-248 6l6 30q3 19 7 35t6 27l336 -2q40 0 114 1t103 1q-7 -49 -19 -92l-143 -6q-6 0 -6 -8q-100 -662 -116 -754q-41 -236 -140 -346
q-143 -154 -385 -154z" />
    <glyph glyph-name="K" unicode="K" horiz-adv-x="1251" 
d="M1169 1329q27 0 78 1t72 1q-6 -49 -19 -94l-100 -8q-303 -313 -522 -516l-2 -11q102 -70 180 -260t129 -288q27 -51 64 -52l143 -4q-8 -55 -18 -94q-153 -6 -283 -6q-45 68 -162 352q-105 281 -201 281t-122 -2l-91 -527l168 -6q-8 -55 -18 -96l-234 2q-37 0 -113 -1
t-108 -1q13 57 17 96l131 6q6 0 10 9l188 1118l-143 8l18 94l232 -2q37 0 109 1t104 1q-8 -53 -19 -96l-139 -4q-6 0 -10 -12l-86 -492q106 6 135 14q67 53 217 209t246 269q10 10 -2 10l-129 6q11 43 18 94h262z" />
    <glyph glyph-name="L" unicode="L" horiz-adv-x="1050" 
d="M510 96q168 0 221 13q27 8 45 43l103 213q33 -4 98 -23q-66 -190 -127 -344l-612 2h-234q1 4 19 94l137 6q8 0 8 9l197 1120l-148 6q14 70 21 94h481q-8 -57 -21 -96l-174 -4q-4 0 -8 -8l-192 -1082q-4 -29 7 -36t179 -7z" />
    <glyph glyph-name="M" unicode="M" horiz-adv-x="1699" 
d="M553 1331q0 -4 93 -440t145 -672h10q125 219 358 653t248 459h336q-4 -39 -17 -96l-129 -6q-8 0 -9 -12t-183 -1117l145 -4q-8 -61 -16 -96l-223 2q-39 0 -117 -1t-109 -1q9 61 17 94l151 6q10 0 15 11q31 180 93 552l81 486h-17q-418 -786 -628 -1124q-18 -2 -92 -2
q-109 418 -250 1134h-15q-82 -467 -186 -1057l180 -4q-6 -45 -18 -96l-248 2q-35 0 -98 -1t-90 -1q10 70 16 94l131 6q10 0 14 11q97 551 193 1118l-141 4l18 98h342z" />
    <glyph glyph-name="N" unicode="N" horiz-adv-x="1427" 
d="M1292 1329q35 0 101 1t92 1q-4 -31 -17 -96l-125 -4q-4 0 -8 -12l-209 -1215q-41 -16 -108 -16q-266 467 -567 1124h-15q-29 -168 -85 -505t-85 -505l203 -4q-16 -92 -18 -96h-271q-36 0 -100 -1t-90 -1q8 64 16 96l131 4q12 2 13 13l190 1118l-152 4q5 40 19 96l289 -2
q20 -41 124 -253t222 -458q119 -246 198 -409l13 2q82 512 161 1020l-194 2q12 66 18 96h254z" />
    <glyph glyph-name="O" unicode="O" horiz-adv-x="1439" 
d="M838 1251q-324 1 -486 -371q-68 -154 -67 -359q0 -205 98 -323q97 -118 279 -118t309 119q98 89 165 245q66 156 66 360t-92 322q-92 125 -272 125zM1370 805q0 -209 -87 -389q-212 -438 -658 -436q-219 0 -363 139t-145 403q0 214 94 400t229 288q180 141 430 142
q212 0 356 -142t144 -405z" />
    <glyph glyph-name="P" unicode="P" horiz-adv-x="1103" 
d="M911 971q1 121 -75 193t-230 73q-82 0 -96 -6l-102 -594q-3 -17 119 -18t210 47q174 84 174 305zM590 1333q332 0 431 -165q50 -85 50 -187q0 -145 -86 -258t-206 -160t-290 -47q-63 0 -104 4l-72 -418l228 -6q-6 -49 -19 -94h-297q-147 0 -213 -2q13 65 19 94l127 6
q10 2 12 13l188 1118l-137 4q8 63 19 94q180 4 350 4z" />
    <glyph glyph-name="Q" unicode="Q" horiz-adv-x="1437" 
d="M287 516q0 -196 96 -316q97 -120 283 -120t327 141q209 209 209 586q0 201 -93 323t-272 122t-315 -122q-102 -92 -168 -255t-67 -359zM1143 -315q-152 0 -471 295h-39q-244 0 -379 152t-135 384t96 416q96 186 236 287q178 133 417 133q180 0 290 -80q212 -155 212 -467
q0 -199 -82 -377t-203 -279t-258 -141l-2 -10q156 -113 246 -151q156 -66 334 -11q10 -39 14 -96q-162 -55 -276 -55z" />
    <glyph glyph-name="R" unicode="R" horiz-adv-x="1187" 
d="M524 664q182 0 287 97q104 97 104 221q-1 124 -73 190t-207 67q-88 0 -125 -8l-96 -563q14 -4 110 -4zM592 1333q176 0 279 -35t157 -115q53 -81 53 -171q0 -136 -97 -242t-236 -149v-11q72 -27 122 -162q26 -71 41 -119q16 -47 38 -107t42 -89t49 -31l109 -4
q-8 -66 -16 -94q-74 -4 -256 -4q-31 49 -95 233q-63 184 -86 236q-24 51 -62 77t-127 26t-110 -5l-82 -465l168 -6q-8 -61 -16 -96l-242 2q-41 0 -113 -1t-104 -1q13 69 17 94l131 8q12 0 12 11l188 1118l-141 4q4 33 16 94q185 4 361 4z" />
    <glyph glyph-name="S" unicode="S" horiz-adv-x="999" 
d="M643 1247q-127 0 -197 -61q-96 -80 -96 -197q0 -84 45 -126q45 -43 117 -79t78 -40q8 -4 16 -9q141 -72 203 -146q61 -75 61 -183q0 -199 -155 -322q-131 -104 -344 -104t-326 59q16 162 31 319q33 6 102 7l4 -209q0 -20 11 -27q61 -45 209 -45t234 75q85 75 85 206
q0 51 -15 88t-73 82t-181 110q-124 64 -188 136q-63 73 -63 173t48 180q132 218 451 218q170 0 252 -54q-12 -158 -30 -301l-99 -6l-4 185q0 20 -8 28q-41 43 -168 43z" />
    <glyph glyph-name="T" unicode="T" horiz-adv-x="1142" 
d="M1057 1329q56 0 104 2t66 2q-14 -129 -45 -338q-31 -4 -101 -8l4 197q0 20 -8 28q-17 17 -311 17l-195 -1127l197 -6q-8 -53 -18 -96l-261 2q-43 0 -129 -1t-127 -1q4 14 9 48q4 34 8 48l162 6q10 0 10 9l188 1118q-188 0 -280 -6q-45 -4 -58 -39l-59 -197q-57 0 -102 6
l69 338l191 -2h686z" />
    <glyph glyph-name="U" unicode="U" horiz-adv-x="1325" 
d="M583 -20q-216 0 -321 118q-134 149 -72 441l117 692l-133 4q12 66 19 96h466q-6 -49 -18 -96l-168 -6q-10 0 -12 -12l-115 -666q-43 -247 28 -355t222 -108t256 96q47 43 91 135q45 93 59 177q79 463 118 725q0 8 -8 8l-170 4q14 80 19 96h237q37 0 107 1t98 1
q-8 -61 -14 -96l-134 -6l-118 -686q-49 -291 -205 -434q-133 -129 -349 -129z" />
    <glyph glyph-name="V" unicode="V" horiz-adv-x="1216" 
d="M86 1237q8 60 16 94h484q-8 -66 -17 -94l-198 -8q63 -484 159 -1051h15q91 168 261 495t269 544q4 12 -6 12l-176 6l14 96h449q-9 -61 -17 -94l-110 -8q-53 -98 -248 -463t-438 -784q-49 -4 -113 -5q-91 413 -221 1246q0 8 -8 8z" />
    <glyph glyph-name="W" unicode="W" horiz-adv-x="1726" 
d="M1407 1327l270 2q121 0 174 2q-16 -78 -20 -96l-105 -6q-37 -88 -233 -555q-193 -442 -309 -694q-23 -2 -115 -3q-63 408 -123 1018h-12q-291 -602 -518 -1015q-23 -2 -113 -3q-26 298 -44 729q-17 431 -21 515q0 8 -11 8l-118 6q11 43 18 94h481q-4 -30 -20 -96l-191 -4
q0 -197 6 -459q0 -157 13 -557h16q49 98 514 1061q18 2 109 2l112 -1071h15q147 365 213 526q133 344 178 486q4 12 -4 12l-183 4q20 90 21 94z" />
    <glyph glyph-name="X" unicode="X" horiz-adv-x="1208" 
d="M377 1329q193 0 272 2q-8 -53 -18 -96l-172 -6q106 -260 190 -445h15q279 350 331 435q4 12 -4 12l-162 6q16 55 21 92h264q31 0 91 1t85 1q-14 -70 -20 -94l-107 -6q-248 -303 -454 -535l-2 -14q229 -492 274 -582l135 -6q-6 -49 -18 -92h-199q-49 0 -140 -1t-130 -1
q4 18 10 52t8 42l154 8q14 0 8 13q-123 283 -207 460h-14q-221 -266 -375 -473l168 -6q-8 -55 -19 -94h-270q-31 0 -92 -1t-88 -1q7 55 18 94l111 6q8 0 18 13q119 135 480 557l4 14q-203 442 -250 539q-4 8 -10 8l-125 6l20 92h199z" />
    <glyph glyph-name="Y" unicode="Y" horiz-adv-x="1091" 
d="M1075 1331q27 0 85 1t81 1q-9 -32 -18 -94l-99 -8q-477 -659 -518 -715l-71 -414l184 -6q-8 -53 -19 -96l-251 2q-39 0 -125 -1t-127 -1q4 24 20 96l154 6q14 0 14 13l68 401q-27 74 -258 707q-6 10 -13 10l-104 4q10 40 18 96l187 -2q51 0 143 1t129 1q-8 -55 -18 -96
l-177 -6q90 -274 199 -596h14q236 332 394 586q4 10 -6 10l-164 6q18 88 20 94h258z" />
    <glyph glyph-name="Z" unicode="Z" horiz-adv-x="1136" 
d="M909 -2l-337 2h-574q-20 74 -25 90q52 57 988 1124l-3 9q-483 6 -540 -6q-33 -8 -49 -48l-80 -215q-41 4 -103 17q72 264 101 360h182l653 -2q12 -45 25 -117q-705 -809 -979 -1097l2 -9q526 0 612 19q45 10 64 55l86 211q53 -10 102 -22q-43 -137 -125 -371z" />
    <glyph glyph-name="bracketleft" unicode="[" horiz-adv-x="649" 
d="M238 -168l247 -6q-10 -72 -16 -92q-242 4 -377 4l291 1698q118 4 377 4q-8 -61 -17 -88l-231 -6q-14 0 -14 -17z" />
    <glyph glyph-name="backslash" unicode="\" horiz-adv-x="1107" 
d="M952 -111q-78 127 -260 425t-211 345q-246 420 -405 680q47 35 96 62q72 -119 220 -373t224 -378t422 -707q-47 -34 -86 -54z" />
    <glyph glyph-name="bracketright" unicode="]" horiz-adv-x="649" 
d="M-86 -266q4 32 14 92l250 6l266 1497q4 16 -10 17l-227 6q2 37 14 88q63 0 191 -1t186 -1l-309 -1700q-118 -4 -375 -4z" />
    <glyph glyph-name="asciicircum" unicode="^" horiz-adv-x="1048" 
d="M608 1296q62 -94 377 -559q-35 -28 -84 -63q-70 98 -189 262q-120 164 -151 207q-91 -129 -332 -467q-74 51 -86 61q43 63 176 263t197 294q29 2 92 2z" />
    <glyph glyph-name="underscore" unicode="_" horiz-adv-x="1024" 
d="M-92 -150h1024v-110h-1024v110z" />
    <glyph glyph-name="grave" unicode="`" horiz-adv-x="937" 
d="M625 971l-314 248q27 31 86 86q74 -68 283 -273z" />
    <glyph glyph-name="a" unicode="a" horiz-adv-x="944" 
d="M500 770q-70 0 -132 -73t-106 -175q-76 -186 -76 -336q0 -42 18 -66t48 -24q70 0 202 123t160 202t64 249q-65 100 -178 100zM35 164q0 131 60 297q61 166 167 292t230 126t210 -99h13l45 107q68 -18 112 -33q-115 -401 -190 -760q0 -10 18 -10t131 35q12 -45 19 -86
q-143 -51 -250 -51q-8 0 -29 16q-20 16 -26 33q26 115 53 209l-14 6q-128 -142 -228 -206t-159 -65q-37 6 -79 36q-83 59 -83 153z" />
    <glyph glyph-name="b" unicode="b" horiz-adv-x="954" 
d="M399 80q141 0 236 180q94 180 94 395q0 43 -18 71t-52 28q-88 0 -225 -140t-170 -239q-6 -18 -25 -93t-22 -85q25 -47 78 -82t104 -35zM512 1389q-175 -680 -207 -793l12 -6q225 293 410 293q84 -14 135 -113q44 -76 -12 -303q-69 -276 -238 -413q-92 -74 -209 -74
t-219 102l-51 -109q-35 8 -104 29q31 123 165 682t150 623l-176 -13q-8 64 -8 86l301 54q20 0 51 -45z" />
    <glyph glyph-name="c" unicode="c" horiz-adv-x="737" 
d="M318 -20q-116 0 -196 70q-79 70 -79 188q0 116 47 249t132 225t166 130q81 37 183 37t150 -39q-4 -29 -34 -72t-50 -53q-111 47 -150 47q-88 0 -157 -86q-55 -74 -93 -189t-38 -213q0 -184 155 -184q92 0 252 70q14 -33 25 -80q-197 -100 -313 -100z" />
    <glyph glyph-name="d" unicode="d" horiz-adv-x="978" 
d="M186 193q0 -97 79 -97t218 132t164 214q33 129 55 248q-68 80 -182 80q-160 0 -276 -296q-58 -146 -58 -281zM732 84q24 0 116 33q14 -47 16 -86q-139 -49 -239 -49q-8 0 -29 16q-20 16 -27 33q9 47 52 215l-15 6q-112 -129 -220 -202t-179 -75q-39 4 -83 34
q-87 59 -87 155q0 137 63 305q64 168 170 289t232 121t219 -74h12q57 244 111 495l-180 -8q-6 47 -7 86q152 20 222 38q71 18 77 18q23 0 54 -45l-301 -1295q-1 -10 23 -10z" />
    <glyph glyph-name="e" unicode="e" horiz-adv-x="827" 
d="M504 780q-86 0 -156 -88t-102 -205q182 -4 291 52q84 37 84 110q0 53 -30 92t-87 39zM45 218q0 110 50 252t145 249q143 160 307 160q101 0 161 -66t62 -151q-8 -54 -39 -108t-74 -77q-147 -78 -432 -78q-57 -195 11 -269q37 -40 102 -40q131 0 324 109q12 -27 32 -80
q-227 -139 -409 -139q-90 0 -165 64t-75 174z" />
    <glyph glyph-name="f" unicode="f" horiz-adv-x="641" 
d="M780 1382q74 0 119 -24q-2 -29 -31 -74t-51 -55q-92 35 -143 35q-82 0 -148 -74q-56 -67 -83 -189q-9 -39 -33 -147q200 0 290 4q-6 -41 -22 -102q-80 -2 -287 -2q-174 -829 -227 -1084q-47 -2 -141 -2q162 782 223 1084h-166q2 10 8 44t10 50q53 4 160 8q12 0 12 14
q29 144 65 226t107 151q145 137 338 137z" />
    <glyph glyph-name="g" unicode="g" horiz-adv-x="872" 
d="M623 -215q0 55 -38 75t-152 34q-114 13 -177 22q-164 -100 -197 -134t-32 -73q1 -61 75 -93t200 -32t224 52t97 149zM233 442q0 -184 148 -184q92 0 159 96t66 242q0 94 -30 146t-121 52q-90 0 -156 -102q-66 -103 -66 -250zM84 451q0 166 112 297t287 131q79 -1 107 -11
t51 -10q227 0 281 2q2 -29 -2 -94q-107 0 -203 -6l-2 -8q41 -49 41 -172t-74 -236q-49 -74 -140 -127t-229 -39q-96 -64 -104 -80t-8 -24q0 -43 229 -62q14 -2 23 -2q174 -16 221 -45q98 -60 98 -151q0 -124 -135 -220t-391 -96q-164 0 -265 54t-101 140q0 85 46 118
q76 49 224 131v12q-96 31 -97 123q0 16 27 39t135 88v10q-131 72 -131 238z" />
    <glyph glyph-name="h" unicode="h" horiz-adv-x="1013" 
d="M891 711q0 -152 -164 -615q-8 -12 8 -12q39 0 146 27l12 -86q-123 -43 -268 -43q-10 0 -31 21q-20 22 -23 40q168 511 168 629q0 30 -16 52t-47 21q-90 0 -229 -121q-138 -122 -162 -214q-11 -45 -53 -213t-50 -197h-143q104 415 307 1298l-180 -12q-6 43 -6 84
q158 29 299 64q8 0 27 -14t30 -31q-20 -76 -197 -768l13 -5q122 140 230 200t179 63q37 -6 77 -34t61 -73q12 -20 12 -61z" />
    <glyph glyph-name="i" unicode="i" horiz-adv-x="514" 
d="M238 80q33 0 155 33q12 -57 15 -86q-141 -45 -256 -45q-10 0 -37 22t-35 41q158 678 164 707l-174 -11l-4 86q139 20 209 35q71 16 78 16t25 -18t28 -33q-84 -354 -175 -733q-6 -14 7 -14zM378 1276q48 0 74 -32t26 -70t-34 -72q-34 -33 -76 -33t-73 31q-31 30 -31 70
t33 73t81 33z" />
    <glyph glyph-name="j" unicode="j" horiz-adv-x="501" 
d="M53 739v86q135 18 217 35q82 18 90 18t26 -16t28 -31q-61 -340 -125 -679q-31 -152 -60 -235q-55 -158 -184 -287q-111 -110 -149 -106q-16 2 -59 38q-42 37 -44 59q164 61 235 153t113 335q76 434 109 641zM365 1274q49 0 75 -32t25 -70q0 -38 -31 -72q-31 -33 -75 -33
q-43 0 -73 30q-30 29 -30 71t30 74t79 32z" />
    <glyph glyph-name="k" unicode="k" horiz-adv-x="917" 
d="M827 881q18 0 43 -37t29 -78q-180 -27 -410 -246v-10q100 -47 160 -229q41 -129 66 -175q9 -16 39 -15t120 26q8 -49 11 -86q-129 -43 -273 -43q-47 78 -94 231q-70 207 -123 207q-16 0 -46 -28t-95 -99q-12 -45 -38 -154t-36 -145h-141q117 485 305 1298l-176 -12
q-2 31 -6 88q125 17 297 60q8 0 26 -16t29 -29q-85 -356 -235 -940l12 -7q172 207 316 323t220 116z" />
    <glyph glyph-name="l" unicode="l" horiz-adv-x="509" 
d="M217 84q59 0 176 31q6 -33 10 -90q-137 -43 -282 -43q-8 0 -32 20t-34 41q27 109 143 619t148 638l-194 -10q-7 49 -7 88q147 15 312 56q25 0 55 -45q-129 -526 -303 -1293q-4 -12 8 -12z" />
    <glyph glyph-name="m" unicode="m" horiz-adv-x="1513" 
d="M866 734q0 -36 -16 -118l12 -4q203 258 377 262q33 -4 73 -32q72 -51 72 -131q0 -129 -149 -615q-8 -12 6 -12q41 0 143 31q6 -29 15 -86q-145 -47 -262 -47q-8 0 -28 20q-19 20 -28 41q55 170 113 393q45 211 45 239q0 27 -17 49t-53 21q-83 0 -209 -131t-151 -225
q-76 -311 -94 -387q-47 -2 -140 -2q152 580 152 686q0 25 -15 44t-44 20q-86 0 -212 -129t-151 -226q-12 -43 -49 -201t-45 -192q-45 -2 -139 -2q57 232 174 756l-166 -19q-4 61 -4 88q93 13 256 54q25 0 55 -43q-16 -74 -47 -209l16 -4q109 133 206 194t167 62
q82 -8 125 -88q12 -21 12 -57z" />
    <glyph glyph-name="n" unicode="n" horiz-adv-x="1044" 
d="M766 82q31 0 147 33q8 -43 13 -86q-127 -47 -264 -47q-10 0 -31 19q-20 19 -27 42q166 502 166 629q0 74 -63 73q-92 0 -232 -123q-139 -124 -164 -219q-12 -43 -53 -211t-47 -190q-47 -2 -141 -2q106 443 176 750l-162 -15q-4 61 -4 86l262 58q10 1 28 -13t25 -28
q-18 -86 -55 -224l14 -4q113 133 229 200t193 69q88 -14 133 -105q12 -25 13 -63q0 -152 -164 -615q-4 -14 8 -14z" />
    <glyph glyph-name="o" unicode="o" horiz-adv-x="899" 
d="M512 786q-106 0 -190 -110q-45 -59 -81 -172q-36 -114 -36 -220t33 -157q32 -57 123 -57t171 96q54 66 90 182t35 223q0 215 -145 215zM545 879q121 1 195 -79t73 -218q0 -138 -53 -266t-163 -232t-282 -104q-135 0 -200 82t-65 212t56 264q57 136 152 226
q123 115 287 115z" />
    <glyph glyph-name="p" unicode="p" horiz-adv-x="966" 
d="M748 659q0 39 -18 67t-52 28q-90 0 -226 -142t-165 -241q-14 -51 -41 -201q31 -41 80 -66t94 -24q152 0 239 184q89 178 89 395zM899 692q0 -250 -119 -463q-55 -102 -145 -176q-90 -73 -205 -73t-205 77q-35 -184 -108 -536q-45 -2 -140 -2q23 119 112 571t130 664
l-168 -11v88q127 16 254 48q11 -1 29 -15t28 -28q-1 -8 -55 -254l19 -4q229 303 417 305q37 -4 79 -38q77 -62 77 -153z" />
    <glyph glyph-name="q" unicode="q" horiz-adv-x="946" 
d="M190 182q0 -38 18 -62t48 -24q76 0 219 135t172 227t53 222q-68 90 -184 90q-154 0 -260 -268q-66 -175 -66 -320zM504 879q130 0 225 -88h10l41 96q55 -12 111 -31q-129 -489 -289 -1223q-6 -12 20 -12t144 35q12 -57 14 -86q-158 -51 -262 -51q-10 1 -34 23t-33 42
q89 373 163 666l-12 4q-246 -272 -397 -279q-86 12 -142 95q-25 37 -24 92q-1 147 65 316t168 285t232 116z" />
    <glyph glyph-name="r" unicode="r" horiz-adv-x="745" 
d="M666 879q54 0 102 -29q0 -37 -25 -91t-43 -63q-43 18 -84 19q-63 0 -178 -136t-147 -262q-18 -70 -74 -317h-139q80 344 168 756l-160 -17q-4 61 -4 88q66 9 160 30t99 21t23 -16t27 -28q-25 -96 -59 -254l14 -7q92 137 179 221t141 85z" />
    <glyph glyph-name="s" unicode="s" horiz-adv-x="747" 
d="M256 637q0 -53 32 -80t127 -69t147 -94t52 -134q0 -152 -141 -231q-89 -49 -237 -49t-213 36q4 82 12 250q29 4 90 4l14 -147q0 -16 13 -25q40 -26 126 -26t140 36t55 108q0 70 -34 100q-33 30 -127 71t-146 89q-51 48 -51 129t46 140t107 91q92 43 222 43t198 -43
q-4 -35 -11 -113t-11 -117q-49 -4 -88 -4l-11 133q0 14 -12 25q-41 26 -107 26t-116 -24q-76 -43 -76 -125z" />
    <glyph glyph-name="t" unicode="t" horiz-adv-x="706" 
d="M283 -18q-45 0 -109 43t-63 137q0 35 122 590h-159l18 92q102 8 152 10q14 0 19 22t24 91q18 68 24 92q76 35 133 35q6 0 7 -9q-18 -92 -52 -231q209 0 310 2q-6 -47 -21 -104h-311q-25 -94 -55 -244q-60 -266 -60 -334q0 -82 91 -82t235 41q4 -27 8 -88
q-172 -63 -313 -63z" />
    <glyph glyph-name="u" unicode="u" horiz-adv-x="997" 
d="M750 86q43 0 147 33q12 -45 18 -84q-133 -53 -251 -53q-8 0 -28 18q-19 18 -30 37q20 104 41 199l-12 4q-238 -260 -379 -265q-78 12 -131 86q-25 33 -25 89q1 145 138 602l-154 -17q-4 57 -8 86q197 39 274 58q10 -1 28 -19t23 -35q-80 -247 -118 -419
q-37 -172 -37 -220q1 -84 63 -86q74 0 205 126t156 211t92 419q49 2 143 2q-137 -625 -164 -760q-4 -12 9 -12z" />
    <glyph glyph-name="v" unicode="v" horiz-adv-x="917" 
d="M725 745q0 16 -18 17l-119 -12q-4 29 -8 86q221 41 230 41t36 -28t26 -36q0 -100 -80 -259q-130 -261 -305 -436q-133 -135 -159 -132q-82 0 -152 10q-2 234 27 758l-154 -15q-4 29 -8 86q43 9 105 23t102 22t48 8t28 -16t32 -35q-39 -555 -45 -731q0 -20 19 -6
q90 76 180 202t152 254q62 130 63 199z" />
    <glyph glyph-name="w" unicode="w" horiz-adv-x="1380" 
d="M315 106q-1 -8 5 -10t12 4q82 104 160 238q150 256 206 479q47 16 129 17q4 -516 15 -736q0 -8 6 -8t10 4q170 201 279 472q49 124 49 182q0 18 -17 16l-120 -10q-6 45 -7 88l222 35q12 -2 39 -29t28 -37q-3 -90 -69 -243q-152 -349 -354 -542q-40 -40 -48 -40
q-80 0 -141 10q-14 223 -4 575l-13 2q-66 -164 -154 -309t-146 -212t-70 -66q-78 0 -148 12q-8 367 9 756l-156 -19q-8 57 -10 86q230 56 246 58q15 3 37 -15t30 -37q-25 -586 -25 -721z" />
    <glyph glyph-name="x" unicode="x" horiz-adv-x="892" 
d="M63 801l232 78q25 0 67 -29q85 -270 93 -293h10q99 119 203 220t141 102q20 0 53 -36t39 -69q-193 -94 -403 -305l-2 -10q90 -240 137 -350q6 -16 26 -17q53 0 136 25q6 -23 14 -86q-109 -43 -279 -43q-25 59 -143 389h-10q-188 -211 -246 -395q-43 -4 -172 -5
q16 72 131 214t254 278l2 10q-57 154 -104 275l-158 -35q-6 20 -21 82z" />
    <glyph glyph-name="y" unicode="y" horiz-adv-x="880" 
d="M698 748q0 20 -18 16l-123 -10l-6 86q43 6 98 16l88 16q33 6 42 6t36 -27q27 -28 27 -38q0 -94 -62 -256q-187 -484 -563 -885q-67 -72 -131 -123t-86 -51t-60 35t-42 66q112 55 220 143t167 176q-52 318 -107 832l-160 -29q-8 66 -10 86l248 72q27 0 61 -43
q45 -492 80 -785h11q102 164 149 264q141 303 141 433z" />
    <glyph glyph-name="z" unicode="z" horiz-adv-x="849" 
d="M408 0h-396q-4 16 -30 82l628 672l-2 12q-160 0 -307 -4q-45 0 -57 -31l-62 -164q-47 6 -94 17l72 276l192 -2h410q14 -45 24 -108q-90 -100 -296 -314t-328 -334l2 -10q262 0 368 8q49 4 68 43l68 160q31 -4 94 -18q-31 -111 -88 -287q-45 2 -266 2z" />
    <glyph glyph-name="braceleft" unicode="{" horiz-adv-x="684" 
d="M248 -20q0 -76 58 -127t173 -54q-2 -29 -14 -82q-164 0 -257 75t-93 194q0 86 66 250q67 164 67 216t-35 78t-123 23q4 45 12 86q127 -2 174 55q23 27 30 75t7 182t25 216t86 148q125 133 362 135q-2 -39 -16 -86q-178 0 -254 -107q-41 -57 -54 -135t-13 -233
q0 -238 -170 -289l-3 -12q96 -20 97 -133q-1 -59 -63 -229t-62 -246z" />
    <glyph glyph-name="bar" unicode="|" horiz-adv-x="1048" 
d="M471 1536h109v-2048h-109v2048z" />
    <glyph glyph-name="braceright" unicode="}" horiz-adv-x="684" 
d="M336 737q0 55 56 216t57 239q0 174 -226 176q4 43 13 82q172 0 259 -72t87 -192q0 -88 -60 -253t-61 -208q0 -94 162 -92q-8 -63 -15 -86q-155 10 -194 -92q-15 -38 -15 -102v-152q0 -225 -100 -338q-129 -145 -367 -146q2 31 15 88q166 0 250 105q43 53 55 129t12 223
t38 221t130 103v14q-96 35 -96 137z" />
    <glyph glyph-name="asciitilde" unicode="~" horiz-adv-x="1048" 
d="M334 635q86 0 201 -72t167 -71q100 0 113 149q51 2 100 0q-4 -113 -63 -195t-154 -81q-70 0 -194 75q-93 70 -168 70q-102 0 -131 -145q-63 0 -96 2q11 115 75 191t150 77z" />
    <glyph glyph-name="uni00A0" unicode="&#xa0;" horiz-adv-x="409" 
 />
    <glyph glyph-name="exclamdown" unicode="&#xa1;" horiz-adv-x="518" 
d="M305 674q-47 0 -72 31t-25 71t33 72q33 31 77 31t72 -27t28 -70q0 -44 -33 -76t-80 -32zM6 -479q-2 2 -2 6q164 767 213 993q39 8 105 8q-4 -38 -46 -343q-41 -306 -75 -636q-31 -10 -101 -19t-94 -9z" />
    <glyph glyph-name="cent" unicode="&#xa2;" horiz-adv-x="1048" 
d="M313 541q0 -79 41 -143t127 -76q100 580 115 663q-119 -27 -201 -162t-82 -282zM160 544q0 162 129 334t323 209q25 139 35 203q43 10 103 15q-6 -37 -18 -109t-17 -98q12 2 45 2q115 0 178 -47q-4 -29 -30 -67t-48 -50q-74 53 -168 55q-20 -116 -119 -669q119 8 242 73
q12 -31 21 -82q-141 -78 -279 -92q-24 -148 -37 -213q-27 -4 -96 -8q14 70 37 215q-121 2 -211 84q-90 83 -90 245z" />
    <glyph glyph-name="sterling" unicode="&#xa3;" horiz-adv-x="1048" 
d="M752 1239q-100 -1 -171 -65t-98 -216q-8 -43 -22 -280q231 0 364 2q-6 -49 -20 -98h-350q-2 -27 -13 -86q-41 -229 -176 -377q-25 -20 13 -21q385 0 462 13q23 8 45 43l95 200q31 -4 96 -22q-49 -150 -123 -334l-664 2q-42 0 -122 -1t-123 -1l18 98l133 6q23 0 35 13
q121 109 158 338q6 43 14 129h-211l19 90q126 0 188 4q10 0 10 10q14 217 23 260q36 182 158 289t323 106q104 0 180 -32q-8 -133 -22 -291q-70 -8 -107 -10l-4 186q-2 14 -16 29q-35 16 -92 16z" />
    <glyph glyph-name="currency" unicode="&#xa4;" horiz-adv-x="1048" 
d="M537 920q-104 0 -164 -60q-90 -86 -90 -225t82 -217q65 -56 165 -56t160 54q92 76 92 225t-86 225q-55 54 -159 54zM545 1016q123 0 205 -58q133 154 139 162q37 -31 78 -76q-129 -141 -142 -155q78 -94 78 -246t-98 -250q106 -123 158 -178q-31 -31 -76 -65
q-49 59 -156 178q-86 -60 -204 -60t-197 49l-152 -170q-49 41 -74 66q40 47 150 166q-92 92 -92 244t92 254q-57 68 -148 165q53 53 80 76q111 -130 148 -170q88 68 211 68z" />
    <glyph glyph-name="yen" unicode="&#xa5;" horiz-adv-x="1048" 
d="M743 1204l19 92h248q27 0 81 1t76 1q-8 -66 -16 -92l-98 -8q-266 -391 -424 -604q186 0 276 2q-8 -57 -18 -84h-314l-20 -137q213 0 313 2q-8 -53 -18 -82h-309l-33 -195l190 -6q-8 -53 -18 -94l-250 2l-250 -2q0 6 19 94l159 4q12 2 19 13l28 184h-311q10 66 14 78
q102 2 312 2l20 137h-315q6 37 16 78q92 2 283 2q-119 322 -215 598q-6 10 -14 10l-103 4q8 63 19 94l172 -2q51 0 141 1t127 1q-6 -49 -19 -94l-170 -6q75 -228 181 -571h10q150 227 358 561q4 12 -6 12z" />
    <glyph glyph-name="brokenbar" unicode="&#xa6;" horiz-adv-x="1048" 
d="M471 358h109v-716h-109v716zM471 1382h109v-716h-109v716z" />
    <glyph glyph-name="section" unicode="&#xa7;" horiz-adv-x="923" 
d="M254 612q0 -51 25 -97t53 -72t113 -92q86 -66 141 -132q86 68 86 195q0 51 -26 98t-53 74q-28 27 -122 106t-125 111q-92 -72 -92 -191zM797 446q0 -176 -164 -294q29 -51 29 -123q0 -184 -136 -295q-111 -92 -266 -92q-92 0 -179 32t-136 86q14 29 41 55t53 31
q102 -106 244 -106q98 0 166 61q80 68 79 197q0 80 -41 130t-147 129t-158 150q-51 71 -51 168q0 164 166 293q-33 52 -33 132t41 154t111 122q98 72 260 72t254 -97q-27 -61 -90 -86q-102 84 -198 84t-170 -55q-75 -54 -75 -146t38 -138q37 -46 151 -134t162 -162t49 -168z
" />
    <glyph glyph-name="dieresis" unicode="&#xa8;" horiz-adv-x="937" 
d="M716 1190q40 0 62 -26t23 -58q0 -32 -25 -62q-24 -28 -64 -28t-63 24t-23 58q0 32 26 62q24 30 64 30zM307 1094q-1 36 25 66t68 30t62 -25t19 -59q1 -34 -25 -62t-64 -28t-62 22t-23 56z" />
    <glyph glyph-name="copyright" unicode="&#xa9;" horiz-adv-x="1525" 
d="M811 956q-76 0 -135 -57q-104 -98 -105 -258q1 -119 67 -192t174 -73t212 50q14 -47 16 -80q-128 -59 -254 -59t-223 71q-125 94 -125 256q0 205 158 340q109 88 268 88q104 0 154 -24q10 -104 12 -219q-47 -9 -84 -11l-18 132q0 10 -20 23t-97 13zM782 1274
q-248 0 -410 -178t-161 -432q0 -254 161 -430q162 -176 408 -177q246 1 410 179t164 432t-162 430t-410 176zM788 1352q286 0 476 -197t190 -483t-197 -490q-197 -202 -481 -202t-475 196q-190 196 -190 484q0 286 196 489t481 203z" />
    <glyph glyph-name="ordfeminine" unicode="&#xaa;" horiz-adv-x="745" 
d="M469 1233q-94 0 -172 -174q-53 -127 -53 -240q0 -27 12 -44t31 -17q47 0 140 80t118 139q45 182 47 192q-43 64 -123 64zM117 795q0 111 47 231t126 209q79 88 172 88t154 -66h7l32 70q39 -10 90 -29q-82 -313 -131 -550q-2 -8 12 -8t97 18q8 -45 10 -70
q-111 -33 -190 -33q-20 0 -43 39q6 40 35 144l-11 2q-72 -80 -150 -132t-115 -52q-38 0 -80 26q-42 27 -54 57q-8 16 -8 56z" />
    <glyph glyph-name="guillemotleft" unicode="&#xab;" horiz-adv-x="862" 
d="M561 446q59 -117 158 -274l-74 -55q-117 156 -229 297q2 12 6 38t6 37q16 14 315 291q23 -20 58 -63q-123 -136 -240 -271zM229 446q76 -147 162 -286q-31 -25 -74 -54q-158 211 -237 306q0 12 12 80q158 143 330 301q37 -33 57 -66q-82 -93 -250 -281z" />
    <glyph glyph-name="logicalnot" unicode="&#xac;" horiz-adv-x="1048" 
d="M813 70v387h-704q0 39 4 108q409 0 805 6q8 0 8 -8l-4 -489q-70 -4 -109 -4z" />
    <glyph glyph-name="uni00AD" unicode="&#xad;" horiz-adv-x="614" 
d="M295 547q168 0 250 4q-4 -31 -19 -113h-467q6 47 17 109h219z" />
    <glyph glyph-name="registered" unicode="&#xae;" horiz-adv-x="937" 
d="M483 1120v-141h25q47 -1 71 21t23 55q0 66 -90 65h-29zM395 819v301h-45q0 37 2 54q47 2 133 2t125 -10t62 -38q23 -27 22 -55q0 -80 -86 -115v-8q31 -14 76 -104q12 -27 31 -27h28v-53h-112q-12 16 -38 72t-37 71q-11 16 -46 17h-27v-107h49v-53h-180v53h43zM528 1290
q-133 0 -219 -94t-86 -230t86 -228t218 -93q132 0 221 94q88 95 88 231t-87 228q-88 92 -221 92zM530 1352h5q160 0 266 -110t106 -270q1 -160 -111 -275q-112 -113 -272 -113t-266 110t-106 270t109 274t269 114z" />
    <glyph glyph-name="macron" unicode="&#xaf;" horiz-adv-x="937" 
d="M762 1135q-6 -53 -19 -99q-59 0 -201 1t-210 1q4 35 16 92q279 5 414 5z" />
    <glyph glyph-name="degree" unicode="&#xb0;" horiz-adv-x="643" 
d="M274 1126q0 -58 31 -90t78 -32t77 36t30 94t-27 91t-76 33t-81 -38q-32 -36 -32 -94zM377 920q-94 0 -156 53q-61 53 -61 144t66 158q67 67 165 67q97 0 155 -56q58 -55 58 -146t-66 -156q-67 -64 -161 -64z" />
    <glyph glyph-name="plusminus" unicode="&#xb1;" horiz-adv-x="1048" 
d="M511 111q280 0 407 2q0 -41 -5 -111q-559 0 -813 -2q0 76 4 109q127 2 407 2zM453 537h-351q0 74 2 108q228 0 349 2v314q55 6 112 6l-2 -318q244 0 357 2q0 -45 -5 -114h-352q-2 -111 -2 -299q-66 -4 -108 -5v304z" />
    <glyph glyph-name="twosuperior" unicode="&#xb2;" 
d="M424 1550q221 0 221 -184q0 -135 -229 -313q-53 -39 -115 -76l2 -10q234 12 295 12q2 -1 2 -23t-14 -73h-455q-4 14 -14 57q131 88 205 147q199 158 198 275q0 47 -26 79t-84 32q-57 0 -93 -25l-6 -12l-32 -109q-51 8 -82 10q4 25 16 85t18 91q78 37 193 37z" />
    <glyph glyph-name="threesuperior" unicode="&#xb3;" 
d="M330 942q82 0 124 33t42 89t-42 87t-110 31h-80q4 53 8 75q109 -4 182 32t72 100q0 33 -26 59t-86 25q-61 0 -95 -21q-8 -8 -8 -12l-28 -90q-59 4 -82 8q14 74 30 155q92 35 207 35t164 -47t49 -103t-46 -100t-132 -61v-12q72 -8 111 -50t39 -102q-1 -94 -85 -150
q-84 -57 -214 -57t-183 15q0 54 -8 178q51 8 82 10l18 -102l5 -4q10 -21 92 -21z" />
    <glyph glyph-name="acute" unicode="&#xb4;" horiz-adv-x="937" 
d="M412 1036q4 3 303 258q31 -31 76 -96l-328 -225q-4 4 -51 63z" />
    <glyph glyph-name="mu" unicode="&#xb5;" horiz-adv-x="1048" 
d="M266 195q0 -39 20 -63t52 -23q74 -1 205 121t153 206q12 47 97 420q49 2 143 2q-135 -618 -164 -756q-4 -16 10 -16q47 0 146 35q12 -43 18 -86q-131 -53 -254 -53q-10 0 -29 18t-30 39q4 30 39 186l-10 6q-94 -102 -196 -177t-163 -74q-25 0 -51 16t-37 37l-10 -2
q-39 -268 -60 -508q-61 -25 -157 -25q132 813 274 1356q90 4 146 4q-51 -186 -117 -489q-25 -135 -25 -174z" />
    <glyph glyph-name="paragraph" unicode="&#xb6;" horiz-adv-x="1056" 
d="M475 467q-92 0 -168 39q-205 90 -205 342q0 145 79 257q79 113 209 171t435 57q35 0 293 -6q-10 -74 -14 -96h-113l-243 -1479q-8 -2 -107 -18l238 1499h-136l-247 -1497q-47 -12 -107 -19l121 750h-35z" />
    <glyph glyph-name="periodcentered" unicode="&#xb7;" horiz-adv-x="499" 
d="M260 647q53 0 78 -35q24 -36 24 -78t-32 -75t-81 -33q-48 0 -77 30t-29 74t32 81q32 36 85 36z" />
    <glyph glyph-name="cedilla" unicode="&#xb8;" horiz-adv-x="937" 
d="M406 -242q0 -80 -78 -130t-201 -54l2 72q158 10 158 100q0 74 -103 74l-12 43l176 162h107l-158 -148q49 -8 79 -41t30 -78z" />
    <glyph glyph-name="onesuperior" unicode="&#xb9;" 
d="M545 1552q4 0 2 -6q-61 -348 -105 -585l164 -3q-8 -55 -14 -75h-440q8 55 14 73l158 5q4 0 4 4q63 371 78 446q-84 -14 -170 -35q-8 47 -11 76q67 15 189 58q122 42 131 42z" />
    <glyph glyph-name="ordmasculine" unicode="&#xba;" horiz-adv-x="710" 
d="M258 881q0 -152 102 -152q125 0 190 201q28 86 28 168q0 151 -99 151q-76 0 -131 -78q-34 -45 -62 -125t-28 -165zM482 1323q224 0 223 -224q0 -224 -144 -358q-90 -86 -209 -86t-174 68q-47 55 -47 154q0 213 148 360q93 86 203 86z" />
    <glyph glyph-name="guillemotright" unicode="&#xbb;" horiz-adv-x="862" 
d="M594 451q-66 121 -162 284q43 35 74 53q156 -205 237 -305q-4 -47 -12 -80q-55 -49 -165 -149l-165 -150q-12 10 -59 64q133 140 252 283zM262 451q-66 127 -156 272q43 35 72 53q174 -225 230 -293q-4 -43 -13 -77q-16 -14 -315 -291q-12 10 -60 63q164 181 242 273z
" />
    <glyph glyph-name="onequarter" unicode="&#xbc;" horiz-adv-x="1564" 
d="M958 236h232l57 313h-12q-47 -55 -143 -154q-104 -115 -136 -149q-10 -10 2 -10zM1346 0l-150 2q-27 0 -80 -1t-78 -1q2 10 5 33q4 23 6 33l110 2q6 0 19 92h-308q-6 16 -26 76q227 247 403 423q43 0 117 -4q-31 -197 -70 -419h123q-4 -39 -12 -74h-125q-8 -53 -16 -94
l92 -2q-2 -29 -10 -66zM1348 1298l-949 -1329q-23 12 -75 45q244 338 499 702t445 634q47 -23 80 -52zM578 1339q6 0 6 -6q-47 -283 -107 -585l164 -3q-10 -55 -14 -75h-441q9 55 15 73l157 5q4 0 4 4q37 201 78 446q-84 -14 -170 -35q-8 47 -10 76q67 15 189 58
q123 42 129 42z" />
    <glyph glyph-name="onehalf" unicode="&#xbd;" horiz-adv-x="1564" 
d="M1212 666q222 0 222 -185q0 -137 -230 -311q-53 -41 -114 -78l2 -10l294 14q2 0 2 -24t-14 -72h-454q-4 14 -15 57q100 66 205 146q199 158 199 274q0 47 -27 79t-85 32t-91 -25q-4 -2 -6 -12l-33 -109q-51 8 -82 11q12 72 35 176q78 37 192 37zM274 14q254 352 945 1336
q46 -23 79 -52q-78 -110 -330 -464t-412 -578t-206 -287q-23 12 -76 45zM528 1339q6 0 7 -6q-26 -153 -107 -585l164 -3q-10 -55 -14 -75h-441q9 55 15 73l157 5q4 0 4 4q37 201 78 446q-84 -14 -170 -35q-8 47 -10 76q67 15 189 58q122 42 128 42z" />
    <glyph glyph-name="threequarters" unicode="&#xbe;" horiz-adv-x="1564" 
d="M971 236h231l58 313h-13q-47 -55 -143 -154q-104 -115 -135 -149q-10 -10 2 -10zM1358 0l-150 2q-27 0 -81 -1t-76 -1q2 10 5 33t5 33l110 2q7 0 19 92h-307q-6 16 -27 76q271 295 404 423q43 0 116 -4q-31 -197 -69 -419h123q-4 -39 -13 -74h-125q-8 -53 -16 -94l92 -2
q-2 -29 -10 -66zM1372 1298l-948 -1329q-23 12 -76 45q244 338 499 702t445 634q47 -23 80 -52zM501 1335q114 0 163 -47t49 -102q0 -54 -46 -100t-130 -64l-2 -10q73 -8 111 -50t38 -102q0 -94 -82 -150t-214 -56t-183 14q0 54 -8 178q51 8 82 10l18 -102l2 -4q4 -4 6 -7
q39 -14 103 -14t107 33q42 33 42 89t-41 87t-110 31h-78q4 53 8 75q106 -4 179 32t73 100q0 32 -26 58t-86 26t-95 -21l-8 -10l-27 -92q-59 4 -82 8q14 74 31 155q92 35 206 35z" />
    <glyph glyph-name="questiondown" unicode="&#xbf;" horiz-adv-x="880" 
d="M346 -481q-168 0 -248 81t-82 193q2 135 92 249t289 228q66 43 66 88q2 70 -10 150q45 20 108 31q17 -31 31 -97t14 -99t-4 -67q-211 -129 -312 -231t-102 -231q0 -88 50 -140t143 -51q92 0 149 37q14 10 21 25l57 178q43 -2 111 -15q-33 -150 -64 -272
q-141 -57 -309 -57zM555 678q-94 0 -94 100q0 41 34 71q35 30 79 30t71 -25q27 -24 27 -66t-35 -76t-82 -34z" />
    <glyph glyph-name="Agrave" unicode="&#xc0;" horiz-adv-x="1198" 
d="M850 1436l-365 182q39 68 70 111q332 -223 338 -228q-20 -38 -43 -65zM381 512h430q-96 564 -104 612h-15q-30 -59 -144 -276t-171 -324q-6 -12 4 -12zM1143 0h-449q4 33 17 94l161 8q8 0 9 13q-37 203 -54 291q0 8 -12 8l-493 -2q-51 -96 -158 -310l182 -6
q-4 -31 -16 -96h-447q17 84 19 94l108 8q8 0 17 11q111 197 348 636q238 439 325 597q18 4 107 4q41 -211 124 -666t107 -582l123 -6q-6 -49 -18 -96z" />
    <glyph glyph-name="Aacute" unicode="&#xc1;" horiz-adv-x="1198" 
d="M940 1726q37 -51 64 -112q-330 -162 -365 -178q-31 49 -39 69q201 131 340 221zM381 512h430q-96 564 -104 612h-15q-30 -59 -144 -276t-171 -324q-6 -12 4 -12zM1143 0h-449q4 33 17 94l161 8q8 0 9 13q-37 203 -54 291q0 8 -12 8l-493 -2q-51 -96 -158 -310l182 -6
q-4 -31 -16 -96h-447q17 84 19 94l108 8q8 0 17 11q111 197 348 636q238 439 325 597q18 4 107 4q41 -211 124 -666t107 -582l123 -6q-6 -49 -18 -96z" />
    <glyph glyph-name="Acircumflex" unicode="&#xc2;" horiz-adv-x="1198" 
d="M778 1593q-178 -104 -246 -149q-35 39 -49 63q193 143 271 201q23 2 73 2q80 -80 199 -203q-16 -20 -59 -59q-111 90 -189 145zM381 512h430q-96 564 -104 612h-15q-30 -59 -144 -276t-171 -324q-6 -12 4 -12zM1143 0h-449q4 33 17 94l161 8q8 0 9 13q-37 203 -54 291
q0 8 -12 8l-493 -2q-51 -96 -158 -310l182 -6q-4 -31 -16 -96h-447q17 84 19 94l108 8q8 0 17 11q111 197 348 636q238 439 325 597q18 4 107 4q41 -211 124 -666t107 -582l123 -6q-6 -49 -18 -96z" />
    <glyph glyph-name="Atilde" unicode="&#xc3;" horiz-adv-x="1198" 
d="M654 1653q62 -1 134 -49t106 -48t56 26t29 65q41 4 78 0q-7 -73 -59 -135t-128 -62q-36 0 -114 48t-112 48t-60 -26t-35 -62q-51 0 -76 2q10 74 65 134q54 60 116 59zM381 512h432q-20 106 -106 612h-15q-68 -125 -315 -600q-6 -12 4 -12zM346 96q-5 -21 -16 -96h-447
q9 61 17 94l110 8q8 0 17 11q350 634 671 1233q20 4 109 4q49 -244 231 -1248l123 -6q-4 -31 -16 -96h-451q6 50 15 94l163 8q12 0 9 13q-16 109 -52 291q-2 8 -14 8l-493 -2q-51 -96 -158 -310z" />
    <glyph glyph-name="Adieresis" unicode="&#xc4;" horiz-adv-x="1198" 
d="M852 1554q0 34 24 64q24 29 68 29q42 0 62 -25q20 -26 20 -60t-25 -62t-63 -28t-62 24t-24 58zM512 1552q0 36 26 65q26 30 67 30t61 -25q20 -26 20 -60t-26 -62t-62 -28t-62 22q-24 22 -24 58zM381 512h432q-86 506 -106 612h-15q-30 -59 -144 -276t-171 -324
q-4 -12 4 -12zM1145 0h-451q4 33 17 94l161 8q12 0 9 13q-16 109 -52 291q-2 8 -12 8l-495 -2q-147 -289 -158 -310l182 -6q-4 -31 -16 -96h-447q7 33 19 94l108 8q10 0 17 11q119 213 377 689l296 544q18 4 109 4q39 -208 120 -654t109 -594l123 -6q-8 -66 -16 -96z" />
    <glyph glyph-name="Aring" unicode="&#xc5;" horiz-adv-x="1198" 
d="M763 1507q40 0 72 28q31 28 31 73q0 44 -24 70t-67 26q-44 0 -75 -30q-30 -30 -30 -74t26 -68t67 -25zM761 1434q-89 0 -140 42t-51 118t62 129t148 53t136 -43t50 -114t-58 -128t-147 -57zM383 512h430q-86 506 -106 612h-15q-43 -82 -97 -186t-120 -229t-96 -185
q-6 -12 4 -12zM1161 96l-18 -96h-449q4 33 17 94l161 8q8 0 9 13q-8 41 -26 142q-17 101 -26 149q-2 8 -14 8l-491 -2q-29 -55 -85 -165t-75 -145l182 -6q-8 -66 -16 -96h-445q5 33 17 94l110 8q8 0 17 11q350 634 671 1233q18 4 107 4q41 -211 124 -666t107 -582z" />
    <glyph glyph-name="AE" unicode="&#xc6;" horiz-adv-x="1705" 
d="M557 643h324l96 582h-12q-283 -393 -408 -570q-12 -12 0 -12zM-119 0q0 26 19 94l108 8q10 0 19 11q145 193 454 617t434 593q6 8 15 8h753q-27 -223 -38 -315q-53 -4 -91 -4v172q0 37 -45 39q-86 10 -362 10q-14 0 -17 -10l-98 -574q220 0 326 4q49 0 59 41l27 99h94
q-6 -29 -12 -62l-16 -88t-40 -227q-31 -2 -94 -2l8 94q4 25 -6 34t-74 10t-286 1l-74 -416q-4 -27 12 -34t182 -7t236 17q27 4 47 41l86 178q43 -8 90 -27q-25 -74 -106 -307l-635 2q-43 0 -123 -1t-115 -1q6 33 19 94l143 8q8 0 11 9l73 430q0 8 -8 8l-375 -2
q-143 -199 -311 -445l176 -6q-8 -66 -16 -94h-449z" />
    <glyph glyph-name="Ccedilla" unicode="&#xc7;" horiz-adv-x="1171" 
d="M610 -20q-202 0 -348 137t-145 397q0 213 101 398t251 294q197 145 459 146q176 0 258 -45q-20 -186 -43 -353q-32 -4 -105 -4l6 230q0 20 -10 26q-53 33 -168 33q-190 0 -321 -116q-131 -115 -197 -271t-66 -331q1 -283 202 -387q80 -40 194 -40t344 78q6 -47 6 -102
q-156 -55 -268 -76l-164 -139q121 -25 121 -129q0 -76 -84 -132t-217 -55l2 74q78 2 123 32q45 29 45 65t-23 57q-20 23 -88 28q-2 7 -5 25t-5 26l158 134h-13z" />
    <glyph glyph-name="Egrave" unicode="&#xc8;" horiz-adv-x="1089" 
d="M532 1729q125 -82 338 -226q-25 -42 -43 -67q-139 70 -364 184q39 70 69 109zM936 1010v176q0 33 -45 39q-106 8 -363 8q-16 0 -18 -8l-84 -498q218 0 286 2q69 2 81 11t16 32l27 98h94q-12 -78 -26 -147t-23 -131q-10 -62 -19 -109q-31 -2 -96 -2l10 103q4 27 -6 36
t-74 10t-288 1l-82 -494q-4 -27 13 -34t182 -7t235 17q27 4 47 41l90 186q43 -8 88 -27q-90 -264 -109 -315l-634 2q-43 0 -123 -1t-115 -1q12 65 18 96l140 6q8 0 12 9l186 1122l-149 6q12 50 18 94h840q-27 -223 -39 -315q-42 -6 -90 -6z" />
    <glyph glyph-name="Eacute" unicode="&#xc9;" horiz-adv-x="1089" 
d="M971 1616q-321 -158 -365 -180q-27 39 -41 71q72 46 342 222q41 -59 64 -113zM936 1010v176q0 33 -45 39q-106 8 -363 8q-16 0 -18 -8l-84 -498q218 0 286 2q69 2 81 11t16 32l27 98h94q-12 -78 -26 -147t-23 -131q-10 -62 -19 -109q-31 -2 -96 -2l10 103q4 27 -6 36
t-74 10t-288 1l-82 -494q-4 -27 13 -34t182 -7t235 17q27 4 47 41l90 186q43 -8 88 -27q-90 -264 -109 -315l-634 2q-43 0 -123 -1t-115 -1q12 65 18 96l140 6q8 0 12 9l186 1122l-149 6q12 50 18 94h840q-27 -223 -39 -315q-42 -6 -90 -6z" />
    <glyph glyph-name="Ecircumflex" unicode="&#xca;" horiz-adv-x="1089" 
d="M774 1712l199 -201q-39 -43 -60 -59q-20 16 -188 145l-246 -149q-29 31 -51 63q152 111 270 201h76zM936 1010v176q0 33 -45 39q-106 8 -363 8q-16 0 -18 -8l-84 -498q218 0 286 2q69 2 81 11t16 32l27 98h94q-12 -78 -26 -147t-23 -131q-10 -62 -19 -109q-31 -2 -96 -2
l10 103q4 27 -6 36t-74 10t-288 1l-82 -494q-4 -27 13 -34t182 -7t235 17q27 4 47 41l90 186q43 -8 88 -27q-90 -264 -109 -315l-634 2q-43 0 -123 -1t-115 -1q12 65 18 96l140 6q8 0 12 9l186 1122l-149 6q12 50 18 94h840q-27 -223 -39 -315q-42 -6 -90 -6z" />
    <glyph glyph-name="Edieresis" unicode="&#xcb;" horiz-adv-x="1089" 
d="M885 1649q43 0 62 -25q19 -26 19 -60t-24 -62q-26 -28 -64 -28t-62 24t-24 58t25 64q25 29 68 29zM546 1649q42 0 61 -25q19 -26 19 -60t-25 -62q-27 -28 -63 -28t-61 22t-25 58t26 65q26 30 68 30zM528 1233q-16 0 -18 -8l-86 -498q214 0 326 4q49 0 59 41l25 98h96
q-12 -78 -26 -147t-23 -131q-10 -62 -19 -109q-31 -2 -96 -2l10 103q2 27 -8 36t-74 10t-286 1l-82 -494q-4 -27 12 -34t182 -7t236 17q29 6 47 41l88 186q43 -8 90 -27q-61 -182 -111 -315l-632 2q-43 0 -123 -1t-115 -1q12 65 18 96l140 6q4 0 12 9l186 1122l-149 6
q12 50 18 94h838q-2 -12 -37 -315l-92 -6l2 176q0 33 -45 39q-106 8 -363 8z" />
    <glyph glyph-name="Igrave" unicode="&#xcc;" horiz-adv-x="641" 
d="M297 1729q165 -115 336 -226q-14 -32 -43 -67l-363 182q39 68 70 111zM217 1331l248 -2q39 0 118 1t111 1q-6 -43 -20 -94l-156 -6q-4 0 -8 -8l-193 -1121l175 -6q-6 -39 -21 -96l-235 2q-39 0 -121 -1t-117 -1q6 30 18 96l140 6q12 0 12 11l188 1118l-157 6z" />
    <glyph glyph-name="Iacute" unicode="&#xcd;" horiz-adv-x="641" 
d="M330 1505q214 138 342 221q33 -49 63 -110q-293 -144 -364 -180q-27 39 -41 69zM219 1331l248 -2q39 0 117 1t112 1q-4 -18 -11 -52t-9 -42l-158 -6q-2 0 -6 -8l-193 -1121l175 -6q-16 -78 -21 -96l-237 2q-39 0 -120 -1t-116 -1q6 30 18 96l140 6q12 0 12 11l188 1118
l-157 6z" />
    <glyph glyph-name="Icircumflex" unicode="&#xce;" horiz-adv-x="641" 
d="M487 1597l-245 -149q-37 43 -49 63q95 72 270 199q25 2 74 2q41 -41 198 -203q-31 -35 -59 -57q-78 63 -189 145zM219 1331l248 -2q39 0 117 1t112 1q-6 -43 -20 -94l-158 -6q-2 0 -6 -8l-193 -1121l175 -6q-6 -39 -21 -96l-237 2q-39 0 -120 -1t-116 -1q6 30 18 96
l140 6q12 0 12 11l188 1118l-157 6z" />
    <glyph glyph-name="Idieresis" unicode="&#xcf;" horiz-adv-x="641" 
d="M660 1649q43 0 62 -25q19 -26 19 -60q-1 -34 -25 -62t-63 -28t-63 24t-23 58q0 34 25 64q25 29 68 29zM321 1649q42 0 61 -25q19 -26 19 -60q1 -34 -25 -62t-63 -28t-61 22t-25 58q0 36 26 65q26 30 68 30zM219 1331l246 -2q41 0 119 1t110 1q-6 -43 -20 -94l-156 -6
q-6 0 -6 -8l-195 -1121l175 -6q-8 -55 -19 -96l-237 2q-39 0 -120 -1t-116 -1q6 30 18 96l140 6q8 0 12 11l188 1118l-157 6z" />
    <glyph glyph-name="Eth" unicode="&#xd0;" horiz-adv-x="1368" 
d="M631 1239q-82 0 -117 -8l-94 -524q209 0 346 2q-6 -49 -18 -93h-345l-73 -446q-8 -47 20 -62t142 -16q264 0 411 125q94 80 160 219q65 139 65 341t-112 325q-131 137 -385 137zM637 1333q487 0 611 -310q48 -120 48 -243q0 -203 -92 -380t-239 -277q-180 -125 -490 -125
l-242 2q-35 0 -113 -1t-118 -1q10 51 16 94l136 6q14 0 16 13l84 505h-186q10 68 14 86q61 2 186 3l90 526l-145 4q2 20 18 94q213 4 406 4z" />
    <glyph glyph-name="Ntilde" unicode="&#xd1;" horiz-adv-x="1427" 
d="M764 1653q58 -1 132 -49q72 -48 108 -48t58 26t28 65q41 4 77 0q-8 -73 -59 -135t-125 -62q-43 0 -94 35l-25 16q-78 45 -110 45t-58 -26q-27 -26 -34 -62q-51 0 -76 2q10 74 65 134t113 59zM1292 1329q35 0 101 1t92 1q-4 -31 -17 -96l-125 -4q-8 0 -8 -12l-209 -1215
q-41 -16 -106 -16q-88 152 -258 482t-311 642h-13q-152 -895 -172 -1010l203 -4q-4 -39 -16 -96h-271q-34 0 -100 -1t-90 -1q4 26 16 96l129 4q10 2 15 13l188 1118l-150 4q7 56 17 96l289 -2q20 -41 124 -253t222 -458q119 -246 198 -409l13 2q82 514 159 1020l-192 2
q12 66 18 96h254z" />
    <glyph glyph-name="Ograve" unicode="&#xd2;" horiz-adv-x="1439" 
d="M698 1741l338 -225q-25 -43 -43 -68l-364 182q39 68 69 111zM838 1251q-324 1 -486 -371q-68 -154 -67 -359q0 -205 98 -323q97 -118 279 -118t309 119q98 89 165 245q66 156 66 360t-92 322q-92 125 -272 125zM1370 805q0 -209 -87 -389q-212 -438 -658 -436
q-219 0 -363 139t-145 403q0 214 94 400t229 288q180 141 430 142q212 0 356 -142t144 -405z" />
    <glyph glyph-name="Oacute" unicode="&#xd3;" horiz-adv-x="1439" 
d="M1128 1628l-366 -180q-31 49 -39 70q223 145 342 221q33 -49 63 -111zM838 1251q-324 1 -486 -371q-68 -154 -67 -359q0 -205 98 -323q97 -118 279 -118t309 119q98 89 165 245q66 156 66 360t-92 322q-92 125 -272 125zM1370 805q0 -209 -87 -389q-212 -438 -658 -436
q-219 0 -363 139t-145 403q0 214 94 400t229 288q180 141 430 142q212 0 356 -142t144 -405z" />
    <glyph glyph-name="Ocircumflex" unicode="&#xd4;" horiz-adv-x="1439" 
d="M901 1597q-137 -80 -248 -149q-23 25 -49 63q50 37 146 109t124 92q25 2 76 2q123 -127 199 -203l-59 -59q-89 71 -189 145zM838 1251q-324 1 -486 -371q-68 -154 -67 -359q0 -205 98 -323q97 -118 279 -118t309 119q98 89 165 245q66 156 66 360t-92 322
q-92 125 -272 125zM1370 805q0 -209 -87 -389q-212 -438 -658 -436q-219 0 -363 139t-145 403q0 214 94 400t229 288q180 141 430 142q212 0 356 -142t144 -405z" />
    <glyph glyph-name="Otilde" unicode="&#xd5;" horiz-adv-x="1439" 
d="M762 1663q58 0 145 -53q59 -41 95 -41q36 -1 58 25t27 65q41 4 78 0q-8 -74 -59 -135t-125 -62q-37 0 -54 12t-37 22q-20 12 -64 36q-42 24 -74 24t-58 -24q-27 -24 -35 -62h-75q10 74 65 134t113 59zM285 521q0 -205 97 -323q98 -118 280 -118t309 119q98 89 165 245
q66 156 66 360t-92 322q-92 125 -275 125t-321 -129q-92 -90 -160 -244t-69 -357zM1370 805q0 -209 -87 -389q-212 -438 -658 -436q-219 0 -363 139t-145 403q0 214 94 400t229 288q180 141 430 142q212 0 356 -142t144 -405z" />
    <glyph glyph-name="Odieresis" unicode="&#xd6;" horiz-adv-x="1439" 
d="M1075 1649q43 0 63 -25q20 -26 19 -60t-25 -62t-63 -28t-63 24t-23 58t25 64q24 29 67 29zM736 1649q42 0 62 -25q20 -26 19 -60q1 -34 -25 -62t-63 -28t-61 22t-25 58t25 65q26 30 68 30zM285 521q0 -205 99 -323q98 -118 280 -118t307 119q98 89 165 245q66 156 66 360
t-92 322q-92 125 -273 125t-323 -129q-92 -90 -160 -244t-69 -357zM1370 805q0 -209 -87 -389q-212 -438 -658 -436q-219 0 -363 139t-145 403q0 214 94 400t229 288q184 142 416 142t361 -133q153 -152 153 -414z" />
    <glyph glyph-name="multiply" unicode="&#xd7;" horiz-adv-x="1048" 
d="M598 473q221 -229 324 -334q-20 -25 -72 -71q-154 160 -328 333q-225 -225 -329 -331q-39 33 -72 71q281 287 323 332q-158 162 -307 307q35 41 80 82q88 -88 305 -309q201 205 309 315q43 -37 82 -82q-202 -198 -315 -313z" />
    <glyph glyph-name="Oslash" unicode="&#xd8;" horiz-adv-x="1439" 
d="M680 78q178 0 303 129q227 223 227 606q0 180 -67 264q-35 -43 -235 -299t-494 -612q88 -88 266 -88zM829 1253q-176 0 -301 -118q-102 -94 -176 -249q-74 -154 -74 -350t76 -303l736 926q-53 51 -110 73t-151 21zM1370 830q0 -212 -75 -390t-201 -290
q-190 -170 -457 -170q-184 0 -305 92l-148 -172q-35 20 -78 57q29 33 154 176q-141 139 -141 382t104 431t250 291q168 115 395 115q178 0 297 -97l131 164q37 -25 82 -69q-20 -25 -135 -162q127 -147 127 -358z" />
    <glyph glyph-name="Ugrave" unicode="&#xd9;" horiz-adv-x="1325" 
d="M627 1729q125 -82 338 -226q-14 -32 -43 -67q-139 70 -365 184q39 70 70 109zM583 -20q-216 0 -321 118q-134 149 -72 441l117 692l-133 4q12 66 19 96h466q-6 -49 -18 -96l-168 -6q-10 0 -12 -12l-115 -666q-43 -247 28 -355t222 -108t256 96q47 43 91 135q45 93 59 177
q79 463 118 725q0 8 -8 8l-170 4q14 80 19 96h237q37 0 107 1t98 1q-8 -61 -14 -96l-134 -6l-118 -686q-49 -291 -205 -434q-133 -129 -349 -129z" />
    <glyph glyph-name="Uacute" unicode="&#xda;" horiz-adv-x="1325" 
d="M1108 1616l-365 -180q-29 49 -38 71q159 103 339 222q41 -59 64 -113zM583 -20q-216 0 -321 118q-134 149 -72 441l117 692l-133 4q12 66 19 96h466q-6 -49 -18 -96l-168 -6q-10 0 -12 -12l-115 -666q-43 -247 28 -355t222 -108t256 96q47 43 91 135q45 93 59 177
q79 463 118 725q0 8 -8 8l-170 4q14 80 19 96h237q37 0 107 1t98 1q-8 -61 -14 -96l-134 -6l-118 -686q-49 -291 -205 -434q-133 -129 -349 -129z" />
    <glyph glyph-name="Ucircumflex" unicode="&#xdb;" horiz-adv-x="1325" 
d="M907 1712q83 -78 199 -201q-27 -33 -59 -59q-78 63 -189 145l-246 -149q-37 43 -49 63l271 201h73zM583 -20q-216 0 -321 118q-134 149 -72 441l117 692l-133 4q12 66 19 96h466q-6 -49 -18 -96l-168 -6q-10 0 -12 -12l-115 -666q-43 -247 28 -355t222 -108t256 96
q47 43 91 135q45 93 59 177q79 463 118 725q0 8 -8 8l-170 4q14 80 19 96h237q37 0 107 1t98 1q-8 -61 -14 -96l-134 -6l-118 -686q-49 -291 -205 -434q-133 -129 -349 -129z" />
    <glyph glyph-name="Udieresis" unicode="&#xdc;" horiz-adv-x="1325" 
d="M1024 1649q43 0 62 -25q20 -26 20 -60t-25 -62t-63 -28t-63 24q-23 24 -23 58t24 64q25 29 68 29zM685 1649q42 0 61 -25q20 -26 20 -60t-26 -62t-62 -28t-62 22q-24 22 -24 58t25 65q26 30 68 30zM583 -20q-216 0 -321 118q-134 149 -72 441l117 692l-133 4q12 66 19 96
h466q-6 -49 -18 -96l-168 -6q-10 0 -12 -12l-115 -666q-43 -247 28 -355t222 -108t256 96q47 43 91 135q45 93 59 177q79 463 118 725q0 8 -8 8l-170 4q14 80 19 96h237q37 0 107 1t98 1q-8 -61 -14 -96l-134 -6l-118 -686q-49 -291 -205 -434q-133 -129 -349 -129z" />
    <glyph glyph-name="Yacute" unicode="&#xdd;" horiz-adv-x="1091" 
d="M594 1507l342 222q43 -66 63 -113l-364 -178q-27 39 -41 69zM1075 1331q27 0 85 1t81 1q-9 -32 -18 -94l-99 -8q-477 -659 -518 -715l-71 -414l184 -6q-8 -53 -19 -96l-251 2q-39 0 -125 -1t-127 -1q4 24 20 96l154 6q14 0 14 13l68 401q-27 74 -258 707q-6 10 -13 10
l-104 4q10 40 18 96l187 -2q51 0 143 1t129 1q-8 -55 -18 -96l-177 -6q90 -274 199 -596h14q236 332 394 586q4 10 -6 10l-164 6q18 88 20 94h258z" />
    <glyph glyph-name="Thorn" unicode="&#xde;" horiz-adv-x="1079" 
d="M493 383q123 0 203 43q174 86 174 305q0 119 -75 191q-76 72 -230 71q-90 0 -102 -6l-101 -586q8 -18 131 -18zM1028 739q0 -143 -81 -249t-199 -155q-118 -48 -295 -48q-60 0 -109 6l-33 -191l224 -6q-6 -51 -19 -94h-293q-145 0 -211 -2q12 66 19 94l125 6q10 4 10 13
l186 1118l-137 6l21 94h450q-2 -39 -18 -94l-156 -6q-8 0 -8 -10l-23 -140l66 2q179 0 281 -40q102 -39 151 -123t49 -181z" />
    <glyph glyph-name="germandbls" unicode="&#xdf;" horiz-adv-x="1118" 
d="M704 1384q146 0 220 -92q90 -111 61 -329q-25 -21 -88 -59t-92 -58q-119 -80 -119 -170q0 -47 29 -77t117 -77t138 -103t50 -138q0 -152 -131 -238q-97 -63 -237 -63t-214 34q6 139 15 250q27 4 90 4l14 -147q0 -16 12 -23q43 -24 120 -24t133 44t56 116t-31 108
q-32 37 -120 83t-135 94t-47 132q0 123 168 242q109 74 137 111q14 145 -43 215q-51 57 -137 57t-160 -78q-78 -88 -135 -397q-88 -504 -207 -1131q-45 -2 -137 -2q31 176 97 540q67 364 99 544h-166q1 16 7 49l8 45l160 8q10 0 10 14q26 142 64 230t112 157
q136 129 282 129z" />
    <glyph glyph-name="agrave" unicode="&#xe0;" horiz-adv-x="944" 
d="M465 1303q153 -141 283 -271q-25 -33 -56 -61q-281 221 -313 246q41 47 86 86zM500 770q-70 0 -132 -73t-106 -175q-76 -186 -76 -336q0 -42 18 -66t48 -24q70 0 202 123t160 202t64 249q-65 100 -178 100zM35 164q0 131 60 297q61 166 167 292t230 126t210 -99h13
l45 107q68 -18 112 -33q-115 -401 -190 -760q0 -10 18 -10t131 35q12 -45 19 -86q-143 -51 -250 -51q-8 0 -29 16q-20 16 -26 33q26 115 53 209l-14 6q-128 -142 -228 -206t-159 -65q-37 6 -79 36q-83 59 -83 153z" />
    <glyph glyph-name="aacute" unicode="&#xe1;" horiz-adv-x="944" 
d="M506 1036q4 3 303 258q31 -31 76 -96q-45 -31 -326 -227q-29 31 -53 65zM500 770q-70 0 -132 -73t-106 -175q-76 -186 -76 -336q0 -42 18 -66t48 -24q70 0 202 123t160 202t64 249q-65 100 -178 100zM35 164q0 131 60 297q61 166 167 292t230 126t210 -99h13l45 107
q68 -18 112 -33q-115 -401 -190 -760q0 -10 18 -10t131 35q12 -45 19 -86q-143 -51 -250 -51q-8 0 -29 16q-20 16 -26 33q26 115 53 209l-14 6q-128 -142 -228 -206t-159 -65q-37 6 -79 36q-83 59 -83 153z" />
    <glyph glyph-name="acircumflex" unicode="&#xe2;" horiz-adv-x="944" 
d="M610 1149l-213 -180q-20 20 -53 57q82 80 242 240h78q16 -23 161 -244q-4 -4 -63 -51q-76 92 -152 178zM500 770q-70 0 -132 -73t-106 -175q-76 -186 -76 -336q0 -42 18 -66t48 -24q70 0 202 123t160 202t64 249q-65 100 -178 100zM35 164q0 131 60 297q61 166 167 292
t230 126t210 -99h13l45 107q68 -18 112 -33q-115 -401 -190 -760q0 -10 18 -10t131 35q12 -45 19 -86q-143 -51 -250 -51q-8 0 -29 16q-20 16 -26 33q26 115 53 209l-14 6q-128 -142 -228 -206t-159 -65q-37 6 -79 36q-83 59 -83 153z" />
    <glyph glyph-name="atilde" unicode="&#xe3;" horiz-adv-x="944" 
d="M506 1116q-51 0 -82 -102h-74q14 92 62 148t103 57q54 -1 117 -57q64 -57 99 -56q55 0 74 108h74q-11 -92 -55 -152t-109 -61q-45 -1 -114 57t-95 58zM500 770q-70 0 -132 -73t-106 -175q-76 -186 -76 -336q0 -42 18 -66t48 -24q70 0 202 123t160 202t64 249
q-65 100 -178 100zM35 164q0 131 60 297q61 166 167 292t230 126t210 -99h13l45 107q68 -18 112 -33q-115 -401 -190 -760q0 -10 18 -10t131 35q12 -45 19 -86q-143 -51 -250 -51q-8 0 -29 16q-20 16 -26 33q26 115 53 209l-14 6q-128 -142 -228 -206t-159 -65q-37 6 -79 36
q-83 59 -83 153z" />
    <glyph glyph-name="adieresis" unicode="&#xe4;" horiz-adv-x="944" 
d="M763 1184q41 0 63 -26t22 -58t-25 -62q-25 -28 -65 -28t-62 24t-22 58q0 32 24 62q25 30 65 30zM448 1184q42 0 61 -25t19 -59t-26 -62t-63 -28t-61 22t-24 56t26 65t68 31zM500 770q-70 0 -132 -74t-104 -174q-78 -182 -78 -336q0 -42 18 -66t48 -24q70 0 202 123
t160 205q16 39 64 246q-65 100 -178 100zM35 164q0 131 60 297t168 292t230 126t209 -99h11l45 107q78 -20 112 -33q-106 -373 -188 -760q-4 -10 13 -10t136 35l19 -86q-143 -51 -252 -51q-6 0 -27 16q-20 16 -26 33q4 29 51 209l-12 6q-242 -270 -387 -271q-37 6 -79 36
q-83 59 -83 153z" />
    <glyph glyph-name="aring" unicode="&#xe5;" horiz-adv-x="944" 
d="M711 1180q0 84 -88 84q-41 0 -73 -31t-32 -75t26 -70t64 -25q38 0 71 31q32 31 32 86zM631 1333q82 0 129 -42q47 -43 47 -115q-1 -72 -63 -127t-141 -55t-130 41q-51 42 -51 117t63 128q64 53 146 53zM500 770q-70 0 -132 -74t-104 -174q-78 -182 -78 -336q0 -42 18 -66
t48 -24q70 0 203 123t157 195t68 256q-65 100 -180 100zM35 164q0 131 60 297t168 292t229 126t213 -99h10l45 107q68 -18 112 -33q-119 -418 -188 -760q-4 -10 14 -10t133 35q12 -45 19 -86q-143 -51 -250 -51q-8 0 -29 16q-20 16 -26 33q8 49 53 209l-14 6
q-240 -270 -387 -271q-37 6 -79 36q-83 59 -83 153z" />
    <glyph glyph-name="ae" unicode="&#xe6;" horiz-adv-x="1351" 
d="M188 182q0 -38 18 -62t46 -24q72 0 194 115t160 199q43 143 90 237q-68 123 -188 123q-137 0 -246 -256q-74 -176 -74 -332zM1028 780q-100 0 -164 -86t-98 -207q195 -4 295 52q84 39 84 112q0 53 -31 91t-86 38zM723 238q0 -70 37 -109t104 -39q123 0 322 109
q12 -27 33 -80q-238 -139 -410 -139q-90 0 -152 55q-61 55 -69 141q-2 16 -2 55l-8 5q-98 -113 -202 -186t-177 -75q-35 4 -79 36q-83 60 -83 151q0 133 62 301q63 168 167 292q104 123 242 123t248 -147h12q133 147 311 148q93 0 153 -65t62 -144q-4 -50 -34 -106t-70 -83
q-147 -82 -440 -82q-27 -91 -27 -161z" />
    <glyph glyph-name="ccedilla" unicode="&#xe7;" horiz-adv-x="737" 
d="M287 -18q-88 0 -166 70t-78 186t47 249t132 225t166 130q81 37 183 37t150 -39q-4 -29 -34 -72t-50 -53q-111 47 -150 47q-88 0 -157 -86q-55 -74 -93 -188t-38 -212q0 -186 155 -186q96 0 252 72q6 -18 27 -82q-115 -57 -205 -80l-131 -123q49 -8 79 -42t30 -77
q0 -80 -78 -130t-201 -54l2 72q72 4 115 30t43 68q0 72 -103 76q-12 24 -12 41l129 123q-6 -2 -14 -2z" />
    <glyph glyph-name="egrave" unicode="&#xe8;" horiz-adv-x="827" 
d="M647 969l-313 245q37 43 84 86q80 -74 284 -272q-37 -41 -55 -59zM504 780q-86 0 -156 -88t-102 -205q182 -4 291 52q84 37 84 110q0 53 -30 92t-87 39zM45 218q0 110 50 252t145 249q143 160 307 160q101 0 161 -66t62 -151q-8 -54 -39 -108t-74 -77q-147 -78 -432 -78
q-57 -195 11 -269q37 -40 102 -40q131 0 324 109q12 -27 32 -80q-227 -139 -409 -139q-90 0 -165 64t-75 174z" />
    <glyph glyph-name="eacute" unicode="&#xe9;" horiz-adv-x="827" 
d="M432 1032q4 3 303 258q37 -37 74 -96q-193 -135 -326 -225q-31 35 -51 63zM504 780q-86 0 -156 -88t-102 -205q182 -4 291 52q84 37 84 110q0 53 -30 92t-87 39zM45 218q0 110 50 252t145 249q143 160 307 160q101 0 161 -66t62 -151q-8 -54 -39 -108t-74 -77
q-147 -78 -432 -78q-57 -195 11 -269q37 -40 102 -40q131 0 324 109q12 -27 32 -80q-227 -139 -409 -139q-90 0 -165 64t-75 174z" />
    <glyph glyph-name="ecircumflex" unicode="&#xea;" horiz-adv-x="827" 
d="M727 969l-152 178q-4 -4 -215 -180q-20 20 -53 57q82 78 244 240h78l162 -244q-4 -4 -64 -51zM504 780q-86 0 -156 -88t-102 -205q182 -4 291 52q84 37 84 110q0 53 -30 92t-87 39zM45 218q0 110 50 252t145 249q143 160 307 160q101 0 161 -66t62 -151q-8 -54 -39 -108
t-74 -77q-147 -78 -432 -78q-57 -195 11 -269q37 -40 102 -40q131 0 324 109q12 -27 32 -80q-227 -139 -409 -139q-90 0 -165 64t-75 174z" />
    <glyph glyph-name="edieresis" unicode="&#xeb;" horiz-adv-x="827" 
d="M643 1090q1 32 25 62t64 30t63 -26t23 -58t-26 -62q-24 -28 -64 -28t-62 24q-22 26 -23 58zM417 1182q42 0 61 -25q20 -25 20 -59t-26 -62t-64 -28t-61 22t-23 56t25 65q26 31 68 31zM504 780q-86 0 -156 -88t-102 -205q182 -4 291 52q84 37 84 110q0 53 -30 92t-87 39z
M45 218q0 110 50 252t145 249q143 160 307 160q101 0 161 -66t62 -151q-8 -54 -39 -108t-74 -77q-147 -78 -432 -78q-57 -195 11 -269q37 -40 102 -40q129 0 321 109q18 -35 33 -80q-223 -139 -407 -139q-90 0 -165 64t-75 174z" />
    <glyph glyph-name="igrave" unicode="&#xec;" horiz-adv-x="514" 
d="M186 1305l283 -273l-55 -61q-295 231 -314 246q37 41 86 88zM238 80q31 0 153 33q12 -61 17 -86q-141 -45 -256 -45q-10 0 -37 22t-35 41q27 117 87 376q61 259 77 331l-174 -11q-4 57 -4 86q144 21 211 36t74 15t27 -18t28 -33q-8 -33 -177 -733q-4 -14 9 -14z" />
    <glyph glyph-name="iacute" unicode="&#xed;" horiz-adv-x="514" 
d="M236 1036q4 3 303 258q31 -31 75 -96q-270 -186 -325 -225q-27 27 -53 63zM238 80q33 0 153 33q10 -33 17 -86q-141 -45 -256 -45q-10 0 -37 22t-35 41q131 568 164 707l-174 -11q-4 57 -4 86q144 21 211 36t74 15t27 -18t28 -33q-20 -87 -58 -243l-76 -312
q-37 -156 -42 -174t8 -18z" />
    <glyph glyph-name="icircumflex" unicode="&#xee;" horiz-adv-x="514" 
d="M414 1266l161 -244q-4 -4 -63 -51q-76 92 -152 178l-213 -180q-20 20 -53 57q168 168 242 240h78zM238 80q31 0 153 33q12 -61 17 -86q-141 -45 -256 -45q-10 0 -37 22t-35 41q27 117 87 376q61 259 77 331l-174 -11q-4 57 -4 86q144 21 211 36t74 15t27 -18t28 -33
q-8 -33 -177 -733q-4 -14 9 -14z" />
    <glyph glyph-name="idieresis" unicode="&#xef;" horiz-adv-x="514" 
d="M501 1184q41 0 63 -26t22 -58t-25 -62q-25 -28 -65 -28t-62 24t-22 58q0 32 24 62q25 30 65 30zM183 1184q41 0 61 -25t20 -59t-26 -62t-63 -28t-61 22t-24 56t26 65t67 31zM236 80q33 0 155 33q10 -33 17 -86q-141 -45 -258 -45q-10 0 -37 22t-35 41q158 678 164 707
l-172 -11q-4 29 -4 86q144 21 211 36t74 15t27 -18t28 -33q-8 -33 -177 -733q-4 -14 7 -14z" />
    <glyph glyph-name="eth" unicode="&#xf0;" horiz-adv-x="884" 
d="M203 272q0 -204 145 -204q96 0 174 98q55 74 95 196t40 216q0 93 -24 127q-47 61 -139 61t-181 -113q-37 -45 -73 -155t-37 -226zM47 276q0 130 56 262t145 212q115 106 254 106q98 0 162 -68l10 5q-27 201 -105 319q-256 -115 -272 -123q-20 39 -39 82q188 86 264 117
q-104 129 -260 164q10 33 35 84q104 -16 192 -72t142 -127q211 96 237 109q23 -45 37 -89q-33 -16 -107 -48t-112 -50q57 -84 89 -209t32 -243q0 -412 -203 -613q-119 -114 -270 -114t-219 82t-68 214z" />
    <glyph glyph-name="ntilde" unicode="&#xf1;" horiz-adv-x="1044" 
d="M548 1214q52 0 122 -56t96 -56q51 0 74 106h73q-12 -92 -55 -152t-108 -61q-41 1 -113 59t-98 58q-49 0 -80 -102h-76q16 92 64 148q49 56 101 56zM766 82q31 0 147 33q8 -43 13 -86q-127 -47 -264 -47q-10 0 -31 19q-20 19 -27 42q166 502 166 629q0 74 -63 73
q-92 0 -232 -123q-139 -124 -164 -219q-12 -43 -53 -211t-47 -190q-47 -2 -141 -2q106 443 176 750l-162 -15q-4 61 -4 86l262 58q10 1 28 -13t25 -28q-18 -86 -55 -224l14 -4q113 133 229 200t193 69q88 -14 133 -105q12 -25 13 -63q0 -152 -164 -615q-4 -14 8 -14z" />
    <glyph glyph-name="ograve" unicode="&#xf2;" horiz-adv-x="899" 
d="M430 1300q51 -45 283 -272q-25 -31 -56 -61q-217 176 -313 247q27 31 86 86zM512 786q-106 0 -190 -110q-45 -59 -81 -172q-36 -114 -36 -220t33 -157q32 -57 123 -57t171 96q54 66 90 182t35 223q0 215 -145 215zM545 879q121 1 195 -79t73 -218q0 -138 -53 -266
t-163 -232t-282 -104q-135 0 -200 82t-65 212t56 264q57 136 152 226q123 115 287 115z" />
    <glyph glyph-name="oacute" unicode="&#xf3;" horiz-adv-x="899" 
d="M444 1032q35 29 304 258q31 -31 75 -96q-79 -53 -327 -225q-31 35 -52 63zM512 786q-106 0 -190 -110q-45 -59 -81 -172q-36 -114 -36 -220t33 -157q32 -57 123 -57t171 96q54 66 90 182t35 223q0 215 -145 215zM545 879q121 1 195 -79t73 -218q0 -138 -53 -266
t-163 -232t-282 -104q-135 0 -200 82t-65 212t56 264q57 136 152 226q123 115 287 115z" />
    <glyph glyph-name="ocircumflex" unicode="&#xf4;" horiz-adv-x="899" 
d="M623 1264l161 -244q-4 -4 -63 -51q-76 92 -152 178q-4 -4 -215 -180q-37 37 -53 57q82 78 244 240h78zM512 786q-106 0 -190 -110q-45 -59 -81 -172q-36 -114 -36 -220t33 -157q32 -57 123 -57t171 96q54 66 90 182t35 223q0 215 -145 215zM545 879q121 1 195 -79
t73 -218q0 -138 -53 -266t-163 -232t-282 -104q-135 0 -200 82t-65 212t56 264q57 136 152 226q123 115 287 115z" />
    <glyph glyph-name="otilde" unicode="&#xf5;" horiz-adv-x="899" 
d="M700 1104q51 0 74 106h74q-12 -92 -55 -152t-109 -61q-41 1 -113 59t-98 58q-49 0 -80 -102h-76q17 92 65 148t102 57q54 -1 117 -57q64 -56 99 -56zM512 786q-106 0 -190 -110q-45 -59 -81 -172q-36 -114 -36 -220t33 -157q32 -57 123 -57t171 96q54 66 90 182t35 223
q0 215 -145 215zM545 879q121 1 195 -79t73 -218q0 -138 -53 -266t-163 -232t-282 -104q-135 0 -200 82t-65 212t56 264q57 136 152 226q123 115 287 115z" />
    <glyph glyph-name="odieresis" unicode="&#xf6;" horiz-adv-x="899" 
d="M751 1182q41 0 63 -26t22 -58t-25 -62q-25 -28 -65 -28t-62 24t-22 58q0 32 24 62q25 30 65 30zM340 1086q0 34 26 65t67 31t61 -25t20 -59t-26 -62t-64 -28t-60 22q-24 22 -24 56zM512 786q-106 0 -190 -110q-45 -59 -81 -172q-36 -114 -36 -220t33 -157q32 -57 123 -57
t171 96q54 66 90 182t35 223q0 215 -145 215zM545 879q121 1 195 -79t73 -218q0 -138 -53 -266t-163 -232t-282 -104q-135 0 -200 82t-65 212t56 264q57 136 152 226q123 115 287 115z" />
    <glyph glyph-name="divide" unicode="&#xf7;" horiz-adv-x="1048" 
d="M516 301q43 0 70 -30q28 -29 26 -69t-26 -71t-70 -31q-45 0 -71 30t-25 71q0 41 26 71t70 29zM928 545q0 -61 -6 -113h-813q0 41 4 107q399 6 815 6zM518 872q43 0 69 -28q25 -28 25 -69q0 -40 -26 -72q-26 -31 -70 -31q-45 0 -71 30q-25 30 -25 71q0 40 27 70
q28 29 71 29z" />
    <glyph glyph-name="oslash" unicode="&#xf8;" horiz-adv-x="899" 
d="M363 70q97 0 178 100q55 64 92 166t37 192t-4 117q-147 -174 -439 -514q39 -61 136 -61zM503 786q-99 0 -186 -114q-45 -59 -92 -185t-24 -282q145 176 432 520q-31 61 -130 61zM545 879q109 0 162 -60q35 41 100 115q35 -27 65 -64l-104 -120q45 -72 45 -188t-52 -245
t-162 -233t-265 -104q-113 0 -184 61q-92 -96 -111 -115q-41 33 -62 56l117 122q-45 72 -45 190t57 248q57 132 165 234t274 103z" />
    <glyph glyph-name="ugrave" unicode="&#xf9;" horiz-adv-x="997" 
d="M731 1032l-55 -61q-285 225 -314 246q45 51 84 88zM750 86q43 0 147 33q12 -45 18 -84q-133 -53 -251 -53q-8 0 -28 18q-19 18 -30 37q20 104 41 199l-12 4q-238 -260 -379 -265q-78 12 -131 86q-25 33 -25 89q1 145 138 602l-154 -17q-4 57 -8 86q197 39 274 58
q10 -1 28 -19t23 -35q-80 -247 -118 -419q-37 -172 -37 -220q1 -84 63 -86q74 0 205 126t156 211t92 419q49 2 143 2q-137 -625 -164 -760q-4 -12 9 -12z" />
    <glyph glyph-name="uacute" unicode="&#xfa;" horiz-adv-x="997" 
d="M520 1036q4 3 303 258q31 -31 76 -96l-328 -225q-27 29 -51 63zM750 86q43 0 147 33q12 -45 18 -84q-133 -53 -251 -53q-8 0 -28 18q-19 18 -30 37q20 104 41 199l-12 4q-238 -260 -379 -265q-78 12 -131 86q-25 33 -25 89q1 145 138 602l-154 -17q-4 57 -8 86
q197 39 274 58q10 -1 28 -19t23 -35q-80 -247 -118 -419q-37 -172 -37 -220q1 -84 63 -86q74 0 205 126t156 211t92 419q49 2 143 2q-137 -625 -164 -760q-4 -12 9 -12z" />
    <glyph glyph-name="ucircumflex" unicode="&#xfb;" horiz-adv-x="997" 
d="M795 971l-152 178q-4 -4 -215 -180q-20 20 -53 57q127 121 243 240h78l162 -244q-4 -4 -63 -51zM750 86q43 0 147 33q12 -45 18 -84q-133 -53 -251 -53q-8 0 -28 18q-19 18 -30 37q20 104 41 199l-12 4q-238 -260 -379 -265q-78 12 -131 86q-25 33 -25 89q1 145 138 602
l-154 -17q-4 57 -8 86q197 39 274 58q10 -1 28 -19t23 -35q-80 -247 -118 -419q-37 -172 -37 -220q1 -84 63 -86q74 0 205 126t156 211t92 419q49 2 143 2q-137 -625 -164 -760q-4 -12 9 -12z" />
    <glyph glyph-name="udieresis" unicode="&#xfc;" horiz-adv-x="997" 
d="M694 1092q0 32 24 62t65 30q40 0 63 -26q22 -26 22 -58t-24 -62q-24 -28 -65 -28t-63 24q-22 26 -22 58zM466 1184q42 0 61 -25t19 -59t-25 -62t-63 -28t-62 22t-24 56t26 65t68 31zM750 86q47 0 147 33q12 -45 18 -84q-133 -53 -249 -53q-10 0 -30 18q-19 18 -30 37
q20 104 41 199l-12 4q-238 -260 -379 -265q-78 12 -131 86q-25 33 -25 89q1 145 138 602l-154 -17q-4 57 -8 86q197 39 274 58q10 -1 28 -19t23 -35q-80 -247 -118 -419q-37 -172 -37 -220q1 -84 63 -86q74 0 205 126t154 206q8 31 96 424q47 2 143 2q-156 -709 -166 -760
q-4 -12 9 -12z" />
    <glyph glyph-name="yacute" unicode="&#xfd;" horiz-adv-x="880" 
d="M426 1036q4 3 303 258q31 -31 76 -96q-104 -69 -328 -225q-31 33 -51 63zM698 748q0 20 -18 16l-123 -10l-6 86q43 6 98 16l88 16q33 6 42 6t36 -27q27 -28 27 -38q0 -94 -62 -256q-187 -484 -563 -885q-67 -72 -131 -123t-86 -51t-60 35t-42 66q112 55 220 143t167 176
q-52 318 -107 832l-160 -29q-8 66 -10 86l248 72q27 0 61 -43q45 -492 80 -785h11q102 164 149 264q141 303 141 433z" />
    <glyph glyph-name="thorn" unicode="&#xfe;" horiz-adv-x="962" 
d="M741 657q0 96 -73 97q-86 0 -224 -142t-165 -237q-14 -47 -41 -203q66 -92 178 -92q78 0 139 53t96 129q90 186 90 395zM893 694q0 -254 -119 -465q-55 -102 -146 -176q-91 -73 -209 -73t-202 77q-16 -90 -59 -302t-47 -234q-45 -2 -140 -2q193 997 310 1622l-168 -8
q-2 31 -2 88q172 22 219 34q47 13 54 13q8 0 26 -16t26 -29q-115 -555 -133 -639l16 -4q227 301 414 303q47 -6 87 -41q73 -64 73 -148z" />
    <glyph glyph-name="ydieresis" unicode="&#xff;" horiz-adv-x="880" 
d="M706 1184q40 0 62 -26t23 -58q0 -32 -25 -62q-25 -28 -65 -28q-41 0 -63 24t-22 58q0 32 25 62t65 30zM388 1184q42 0 62 -25t19 -59q0 -34 -26 -62q-25 -28 -63 -28t-62 22t-24 56t26 65t68 31zM698 748q0 20 -18 16l-123 -10l-6 86q43 6 98 16l88 16q33 6 42 6t36 -27
q27 -28 27 -38q0 -94 -62 -256q-187 -484 -563 -885q-67 -72 -131 -123t-86 -51t-60 35t-42 66q112 55 220 143t167 176q-52 318 -107 832l-160 -29q-8 66 -10 86l248 72q27 0 61 -43q45 -492 80 -785h11q102 164 149 264q141 303 141 433z" />
    <glyph glyph-name="Amacron" unicode="&#x100;" horiz-adv-x="1198" 
d="M991 1612q-4 -37 -20 -105q-61 0 -211 1t-217 1q6 53 18 99q287 4 430 4zM381 512h430q-96 564 -104 612h-15q-30 -59 -144 -276t-171 -324q-6 -12 4 -12zM1143 0h-449q4 33 17 94l161 8q8 0 9 13q-37 203 -54 291q0 8 -12 8l-493 -2q-51 -96 -158 -310l182 -6
q-4 -31 -16 -96h-447q17 84 19 94l108 8q8 0 17 11q111 197 348 636q238 439 325 597q18 4 107 4q41 -211 124 -666t107 -582l123 -6q-6 -49 -18 -96z" />
    <glyph glyph-name="amacron" unicode="&#x101;" horiz-adv-x="944" 
d="M827 1135q-2 -33 -18 -99q-57 0 -201 1t-211 1q4 35 17 92q278 5 413 5zM500 770q-70 0 -132 -73t-106 -175q-76 -186 -76 -336q0 -42 18 -66t48 -24q70 0 202 123t160 202t64 249q-65 100 -178 100zM35 164q0 131 60 297q61 166 167 292t230 126t210 -99h13l45 107
q68 -18 112 -33q-115 -401 -190 -760q0 -10 18 -10t131 35q12 -45 19 -86q-143 -51 -250 -51q-8 0 -29 16q-20 16 -26 33q26 115 53 209l-14 6q-128 -142 -228 -206t-159 -65q-37 6 -79 36q-83 59 -83 153z" />
    <glyph glyph-name="Abreve" unicode="&#x102;" horiz-adv-x="1198" 
d="M755 1489q-99 0 -158 59q-58 59 -71 142q37 12 95 24q35 -115 147 -115t168 109q55 -8 94 -18q-27 -82 -101 -142q-75 -59 -174 -59zM381 512h430q-96 564 -104 612h-15q-30 -59 -144 -276t-171 -324q-6 -12 4 -12zM1143 0h-449q4 33 17 94l161 8q8 0 9 13
q-37 203 -54 291q0 8 -12 8l-493 -2q-51 -96 -158 -310l182 -6q-4 -31 -16 -96h-447q17 84 19 94l108 8q8 0 17 11q111 197 348 636q238 439 325 597q18 4 107 4q41 -211 124 -666t107 -582l123 -6q-6 -49 -18 -96z" />
    <glyph glyph-name="abreve" unicode="&#x103;" horiz-adv-x="944" 
d="M626 997q-92 1 -145 59t-61 136q51 20 80 25q35 -117 138 -117t157 110q53 -8 82 -18q-25 -78 -92 -136t-159 -59zM500 770q-70 0 -132 -73t-106 -175q-76 -186 -76 -336q0 -42 18 -66t48 -24q70 0 202 123t160 202t64 249q-65 100 -178 100zM35 164q0 131 60 297
q61 166 167 292t230 126t210 -99h13l45 107q68 -18 112 -33q-115 -401 -190 -760q0 -10 18 -10t131 35q12 -45 19 -86q-143 -51 -250 -51q-8 0 -29 16q-20 16 -26 33q26 115 53 209l-16 6q-126 -142 -226 -206t-159 -65q-37 6 -79 36q-83 59 -83 153z" />
    <glyph glyph-name="Aogonek" unicode="&#x104;" horiz-adv-x="1198" 
d="M785 -422q-70 0 -120 38q-51 38 -51 106t44 132q44 62 130 146h-94q4 33 17 94l161 6q12 0 8 21t-21 118q-16 97 -32 167q0 8 -12 8l-493 -2q-98 -193 -158 -312l182 -4q-4 -27 -16 -96h-447q6 33 19 94l108 6q6 0 17 11q189 341 673 1235q33 4 107 4q150 -788 231 -1250
l123 -4q-6 -45 -18 -96h-260q-137 -141 -138 -244q0 -38 23 -62q42 -43 137 -9l13 -72q-63 -35 -133 -35zM381 512h430q-96 564 -104 612h-15q-30 -59 -144 -276t-171 -324q-6 -12 4 -12z" />
    <glyph glyph-name="aogonek" unicode="&#x105;" horiz-adv-x="944" 
d="M573 -208q1 -90 89 -91q38 0 83 16q8 -37 11 -67q-78 -37 -142 -37q-64 -1 -113 37q-50 38 -50 104q0 104 149 232h-10q-31 16 -47 47l53 209l-12 4q-128 -142 -228 -206t-159 -65q-37 6 -79 36q-83 59 -83 153q0 131 60 297q61 166 167 292t230 126t210 -99h13l45 107
q86 -25 112 -33q-104 -354 -190 -758q0 -12 18 -12t131 37q12 -43 19 -86q-18 -5 -76 -21t-88 -32q-45 -20 -79 -80t-34 -110zM500 770q-70 0 -131 -74t-107 -176q-76 -182 -76 -336q0 -42 18 -66t48 -24q70 0 202 124t160 206q29 72 64 244q-65 102 -178 102z" />
    <glyph glyph-name="Cacute" unicode="&#x106;" horiz-adv-x="1171" 
d="M729 1507l342 222q37 -49 64 -111q-258 -129 -365 -180q-27 39 -41 69zM868 1239q-193 0 -329 -123q-125 -108 -191 -264t-66 -331q1 -284 203 -387q80 -40 194 -40t343 78q8 -63 6 -102q-256 -90 -401 -90q-219 0 -361 135q-150 137 -149 399q0 213 101 398t251 294
q197 145 461 146q178 0 256 -45q-10 -100 -41 -353q-32 -4 -107 -4l6 230q0 20 -8 26q-57 33 -168 33z" />
    <glyph glyph-name="cacute" unicode="&#x107;" horiz-adv-x="737" 
d="M399 1036q4 3 303 258q31 -31 76 -96q-79 -53 -327 -225q-27 29 -52 63zM318 -20q-116 0 -196 70q-79 70 -79 188q0 116 47 249t132 225t166 130q81 37 183 37t150 -39q-4 -29 -34 -72t-50 -53q-111 47 -150 47q-88 0 -157 -86q-55 -74 -93 -189t-38 -213
q0 -184 155 -184q92 0 252 70q14 -33 25 -80q-197 -100 -313 -100z" />
    <glyph glyph-name="Ccaron" unicode="&#x10c;" horiz-adv-x="1171" 
d="M662 1722q134 -96 198 -149q98 57 248 151q25 -29 45 -61q-207 -152 -276 -203q-47 0 -68 2q-70 70 -205 201q33 39 58 59zM868 1239q-193 0 -329 -123q-125 -108 -191 -264t-66 -331q1 -284 203 -387q80 -40 194 -40t343 78q8 -63 6 -102q-256 -90 -401 -90
q-219 0 -361 135q-150 137 -149 399q0 213 101 398t251 294q197 145 461 146q178 0 256 -45q-10 -100 -41 -353q-32 -4 -107 -4l6 230q0 20 -8 26q-57 33 -168 33z" />
    <glyph glyph-name="ccaron" unicode="&#x10d;" horiz-adv-x="737" 
d="M512 1106q23 17 225 186q31 -23 54 -53l-118 -118q-93 -93 -136 -132h-80q-104 170 -164 262q25 20 63 43q25 -28 156 -188zM318 -20q-116 0 -196 70q-79 70 -79 188q0 116 47 249t132 225t166 130q81 37 183 37t150 -39q-4 -29 -34 -72t-50 -53q-111 47 -150 47
q-88 0 -157 -86q-55 -74 -93 -189t-38 -213q0 -184 155 -184q92 0 252 70q14 -33 25 -80q-197 -100 -313 -100z" />
    <glyph glyph-name="Dcaron" unicode="&#x10e;" horiz-adv-x="1368" 
d="M1106 1663l-277 -201h-67l-203 203q23 29 55 57q129 -94 199 -149q168 102 250 151q20 -20 43 -61zM631 1239q-82 0 -117 -8l-184 -1059q-8 -49 20 -64t142 -16q268 0 411 125q94 82 160 220q65 138 65 340t-112 325q-131 137 -385 137zM637 1333q483 0 610 -310
q49 -120 49 -247q0 -201 -91 -377t-238 -276q-182 -125 -492 -125l-242 2q-35 0 -113 -1t-118 -1q10 51 16 94l136 6q14 0 16 13l188 1120l-145 4q2 20 18 94q213 4 406 4z" />
    <glyph glyph-name="dcaron" unicode="&#x10f;" horiz-adv-x="1112" 
d="M1288 1315q0 -92 -66 -173t-157 -128q-18 23 -43 57q133 86 133 168q0 51 -72 72q2 55 35 90t73 35q41 0 69 -35t28 -86zM186 193q0 -97 79 -97t218 132t164 214q14 57 58 248q-68 80 -185 80q-160 0 -276 -296q-58 -146 -58 -281zM719 84q37 0 129 33q12 -43 18 -86
q-141 -49 -241 -49q-8 0 -29 16q-20 16 -27 33q9 47 52 215l-13 6q-110 -129 -220 -202t-181 -75q-39 4 -83 34q-87 59 -87 155q0 137 63 305q64 168 170 289t234 121t217 -74h12q35 143 113 495l-182 -8q-7 63 -7 86q158 21 299 56q23 0 54 -45q-277 -1179 -301 -1293
q0 -12 10 -12z" />
    <glyph glyph-name="Dcroat" unicode="&#x110;" horiz-adv-x="1368" 
d="M631 1239q-82 0 -117 -8l-94 -524q209 0 346 2q-6 -49 -18 -93h-345l-73 -446q-8 -47 20 -62t142 -16q264 0 411 125q94 80 160 219q65 139 65 341t-112 325q-131 137 -385 137zM637 1333q487 0 611 -310q48 -120 48 -243q0 -203 -92 -380t-239 -277q-180 -125 -490 -125
l-242 2q-35 0 -113 -1t-118 -1q10 51 16 94l136 6q14 0 16 13l84 505h-186q10 68 14 86q61 2 186 3l90 526l-145 4q2 20 18 94q213 4 406 4z" />
    <glyph glyph-name="dcroat" unicode="&#x111;" horiz-adv-x="978" 
d="M186 190q0 -96 79 -96t218 132t164 216q33 129 55 248q-68 80 -182 80q-82 0 -150 -75t-112 -185q-72 -186 -72 -320zM1094 1120q0 -39 -11 -84h-155q-180 -762 -219 -942q-1 -10 21 -10t118 33q12 -57 16 -86q-139 -49 -239 -49q-8 0 -30 16t-28 33q4 20 54 215l-15 6
q-112 -129 -220 -202t-179 -75q-39 4 -83 34q-87 59 -87 155q0 137 63 305q64 168 170 289t232 121t219 -74h12q4 18 53 231h-276q2 27 10 80q186 0 283 2q37 166 41 182l-182 -8q-4 61 -5 86q148 20 221 38q72 17 78 18q23 0 54 -45q-4 -17 -26 -109t-38 -160h148z" />
    <glyph glyph-name="Emacron" unicode="&#x112;" horiz-adv-x="1089" 
d="M928 1612q-16 -86 -21 -105q-61 0 -211 1t-219 1q6 53 19 99q287 4 432 4zM936 1010v176q0 33 -45 39q-106 8 -363 8q-16 0 -18 -8l-84 -498q218 0 286 2q69 2 81 11t16 32l27 98h94q-12 -78 -26 -147t-23 -131q-10 -62 -19 -109q-31 -2 -96 -2l10 103q4 27 -6 36t-74 10
t-288 1l-82 -494q-4 -27 13 -34t182 -7t235 17q27 4 47 41l90 186q43 -8 88 -27q-90 -264 -109 -315l-634 2q-43 0 -123 -1t-115 -1q12 65 18 96l140 6q8 0 12 9l186 1122l-149 6q12 50 18 94h840q-27 -223 -39 -315q-42 -6 -90 -6z" />
    <glyph glyph-name="emacron" unicode="&#x113;" horiz-adv-x="827" 
d="M770 1135q-6 -53 -18 -99q-60 0 -202 1t-210 1q10 66 16 92q275 5 414 5zM504 780q-86 0 -156 -88t-102 -205q182 -4 291 52q84 37 84 110q0 53 -30 92t-87 39zM45 218q0 110 50 252t145 249q143 160 307 160q101 0 161 -66t62 -151q-8 -54 -39 -108t-74 -77
q-147 -78 -432 -78q-57 -195 11 -269q37 -40 102 -40q131 0 324 109q12 -27 32 -80q-227 -139 -409 -139q-90 0 -165 64t-75 174z" />
    <glyph glyph-name="Edotaccent" unicode="&#x116;" horiz-adv-x="1089" 
d="M716 1681q44 1 68 -27t23 -68q0 -40 -29 -70t-72 -31q-44 -1 -70 25t-26 68t31 72t75 31zM936 1010v176q0 35 -43 39q-106 8 -365 8q-16 0 -18 -8l-84 -498q218 0 324 4q49 0 61 41l25 98h94q-12 -78 -26 -150t-23 -135q-10 -62 -17 -102q-33 -2 -96 -2l8 103q4 27 -6 36
t-74 10t-286 1l-84 -494q-4 -27 13 -34t182 -7t235 17q31 6 47 41l90 186q43 -8 88 -27q-47 -147 -109 -315l-634 2q-43 0 -122 -1t-114 -1q11 75 16 96l142 6q6 0 10 9l188 1122l-149 6q6 44 18 94h838q-27 -223 -39 -315q-42 -6 -90 -6z" />
    <glyph glyph-name="edotaccent" unicode="&#x117;" horiz-adv-x="827" 
d="M578 1210q44 0 66 -26t22 -63q0 -39 -28 -69t-69 -30t-67 26t-25 64q0 38 29 68t72 30zM504 780q-86 0 -156 -88t-102 -205q182 -4 291 52q84 37 84 110q0 53 -30 92t-87 39zM45 218q0 110 50 252t145 249q143 160 307 160q101 0 161 -66t62 -151q-8 -54 -39 -108
t-74 -77q-147 -78 -432 -78q-57 -195 11 -269q37 -40 102 -40q131 0 324 109q12 -27 32 -80q-227 -139 -409 -139q-90 0 -165 64t-75 174z" />
    <glyph glyph-name="Eogonek" unicode="&#x118;" horiz-adv-x="1089" 
d="M515 98q159 0 241 15q29 8 47 43l88 184q55 -10 90 -25q-74 -219 -111 -315q-133 -141 -133 -246q0 -38 23 -62q42 -43 137 -9l12 -72q-63 -35 -133 -35t-121 38q-49 38 -49 105q0 117 172 281q-158 2 -370 2t-293 -1q-80 -1 -115 -1q6 33 18 94l140 6q8 0 12 11
l186 1120l-149 6q12 61 18 94l232 -2l442 2h166q-27 -223 -39 -315l-92 -6l2 176q0 33 -45 39q-106 8 -363 8q-16 0 -18 -8l-84 -498q218 0 324 4q49 0 59 41l27 98h94q-12 -78 -26 -147t-23 -131q-10 -62 -19 -109q-31 -2 -96 -2l10 103q2 27 -8 36t-74 10t-286 1l-82 -492
q-4 -27 13 -34t176 -7z" />
    <glyph glyph-name="eogonek" unicode="&#x119;" horiz-adv-x="827" 
d="M502 -139q0 -82 86 -82q41 0 86 16q8 -37 10 -67q-78 -37 -141 -37q-63 -1 -113 37t-51 114q0 76 96 174q-104 -36 -192 -36t-163 64t-75 174t50 252t145 249q143 160 307 160q101 0 161 -66t62 -151q-8 -54 -39 -108t-72 -77q-150 -78 -434 -78q-57 -195 11 -269
q37 -40 104 -40q129 0 322 109q18 -35 32 -80q-63 -37 -78 -49q-46 -34 -80 -94t-34 -115zM504 780q-86 0 -156 -88t-102 -205q182 -4 291 52q84 37 84 110q0 53 -30 92t-87 39z" />
    <glyph glyph-name="Ecaron" unicode="&#x11a;" horiz-adv-x="1089" 
d="M1008 1661l-277 -201q-45 0 -67 2q-135 135 -205 201q25 31 57 59q86 -61 199 -149q127 74 250 151q23 -25 43 -63zM936 1010v176q0 33 -45 39q-106 8 -363 8q-16 0 -18 -8l-84 -498q218 0 286 2q69 2 81 11t16 32l27 98h94q-12 -78 -26 -147t-23 -131q-10 -62 -19 -109
q-31 -2 -96 -2l10 103q4 27 -6 36t-74 10t-288 1l-82 -494q-4 -27 13 -34t182 -7t235 17q27 4 47 41l90 186q43 -8 88 -27q-90 -264 -109 -315l-634 2q-43 0 -123 -1t-115 -1q12 65 18 96l140 6q8 0 12 9l186 1122l-149 6q12 50 18 94h840q-27 -223 -39 -315q-42 -6 -90 -6z
" />
    <glyph glyph-name="ecaron" unicode="&#x11b;" horiz-adv-x="827" 
d="M492 989l-164 262q25 20 63 43q25 -28 156 -188q45 35 133 111l90 75q31 -20 55 -53q-219 -219 -254 -250h-79zM504 780q-86 0 -156 -88t-102 -205q182 -4 291 52q84 37 84 110q0 53 -30 92t-87 39zM45 218q0 110 50 252t145 249q143 160 307 160q101 0 161 -66t62 -151
q-8 -54 -39 -108t-74 -77q-147 -78 -432 -78q-57 -195 11 -269q37 -40 102 -40q131 0 324 109q12 -27 32 -80q-227 -139 -409 -139q-90 0 -165 64t-75 174z" />
    <glyph glyph-name="Gbreve" unicode="&#x11e;" horiz-adv-x="1310" 
d="M870 1485q-98 0 -157 59t-70 142q37 12 94 24q35 -115 147 -115t169 109q59 -8 94 -18q-27 -82 -103 -142t-174 -59zM956 1352q195 0 289 -66q-29 -221 -43 -334q-70 -4 -104 -4l8 207q0 25 -14 37q-61 55 -203 55q-358 0 -533 -373q-72 -156 -72 -340t83 -294
q127 -164 366 -164q115 0 164 27q20 11 23 22l57 348l-215 4q4 33 16 98h482q-5 -32 -17 -98l-104 -4q-6 0 -11 -8l-73 -414q-115 -71 -376 -71t-413 150t-152 378t104 418q103 188 259 291q205 135 479 135z" />
    <glyph glyph-name="gbreve" unicode="&#x11f;" horiz-adv-x="872" 
d="M508 997q-92 1 -146 59t-61 136q51 20 80 25q35 -117 139 -117t158 110q49 -8 82 -18q-24 -80 -92 -138t-160 -57zM623 -215q0 55 -38 75t-152 34q-114 13 -177 22q-164 -100 -197 -134t-32 -73q1 -61 75 -93t199 -32t223 52t99 149zM233 442q0 -184 148 -184
q92 0 159 96t66 242q0 94 -30 146t-121 52q-90 0 -156 -102q-66 -103 -66 -250zM84 451q0 166 112 297t287 131q79 -1 107 -11t51 -10q227 0 281 2q2 -29 -2 -94q-107 0 -203 -6l-2 -8q41 -49 41 -172t-74 -236q-49 -74 -140 -127t-229 -39q-96 -64 -104 -80t-8 -24
q0 -43 229 -62q14 -2 23 -2q174 -16 221 -45q98 -60 98 -151q0 -124 -135 -220t-391 -96q-164 0 -265 54t-101 140q0 85 46 118q76 49 224 131v12q-96 31 -97 123q0 16 27 39t135 88v10q-131 72 -131 238z" />
    <glyph glyph-name="Gcommaaccent" unicode="&#x122;" horiz-adv-x="1310" 
d="M731 -256q0 -102 -72 -190t-172 -142q-20 27 -47 64q145 94 146 184q0 55 -80 78q2 61 39 99t81 38t74 -38t31 -93zM956 1352q195 0 287 -66q-10 -94 -41 -334q-70 -4 -104 -4l8 207q0 25 -14 37q-61 55 -203 55q-358 0 -533 -373q-72 -156 -72 -340t83 -294
q127 -164 366 -164q115 0 164 27q20 11 23 22l57 348l-215 4q4 33 16 98h482q-5 -32 -17 -98l-104 -4q-6 0 -11 -8l-73 -414q-115 -71 -376 -71t-413 150t-152 378t104 418q103 188 259 291q205 135 479 135z" />
    <glyph glyph-name="gcommaaccent" unicode="&#x123;" horiz-adv-x="872" 
d="M401 1108q0 92 66 173t158 128q18 -18 43 -55q-133 -86 -133 -170q0 -49 71 -72q-2 -55 -35 -90t-73 -35t-68 35q-29 35 -29 86zM623 -215q0 55 -38 75t-152 34q-114 13 -177 22q-164 -100 -197 -134t-32 -73q1 -61 75 -93t200 -32t224 52t97 149zM233 442
q0 -184 148 -184q92 0 159 96t66 242q0 94 -30 146t-121 52q-90 0 -156 -102q-66 -103 -66 -250zM84 451q0 166 112 297t287 131q79 -1 107 -11t51 -10q227 0 281 2q2 -29 -2 -94q-107 0 -203 -6l-2 -8q41 -49 41 -172t-74 -236q-49 -74 -140 -127t-229 -39
q-96 -64 -104 -80t-8 -24q0 -43 229 -62q14 -2 23 -2q174 -16 221 -45q98 -60 98 -151q0 -124 -135 -220t-391 -96q-164 0 -265 54t-101 140q0 85 46 118q76 49 224 131v12q-96 31 -97 123q0 16 27 39t135 88v10q-131 72 -131 238z" />
    <glyph glyph-name="Imacron" unicode="&#x12a;" horiz-adv-x="641" 
d="M719 1612q-4 -37 -21 -105q-61 0 -211 1t-219 1q5 34 11 61t8 38q287 4 432 4zM219 1331l248 -2q39 0 117 1t112 1q-4 -18 -11 -52t-9 -42l-158 -6q-6 0 -6 -8l-195 -1121l177 -6q-16 -78 -21 -96l-237 2q-39 0 -120 -1t-116 -1q6 30 18 96l140 6q12 0 12 11l188 1118
l-157 6z" />
    <glyph glyph-name="imacron" unicode="&#x12b;" horiz-adv-x="514" 
d="M543 1135q-6 -53 -19 -99q-59 0 -201 1t-210 1q6 35 16 92q279 5 414 5zM236 80q33 0 155 33q12 -61 17 -86q-141 -45 -258 -45q-8 0 -35 22t-35 41q27 117 87 376q61 259 77 331l-174 -11q-4 57 -4 86q133 19 206 35q72 16 79 16t25 -18t27 -33q-84 -354 -174 -733
q-4 -14 7 -14z" />
    <glyph glyph-name="Iogonek" unicode="&#x12e;" horiz-adv-x="641" 
d="M178 -230q0 -134 162 -81l12 -72q-66 -35 -127 -35t-116 39t-56 105q0 123 164 276q-37 0 -112 -1t-105 -1q7 55 18 94l138 6q12 0 12 11l188 1120l-157 6l18 94l248 -2q39 0 117 1t112 1q-6 -43 -20 -94l-158 -6q-2 0 -6 -8l-193 -1121l175 -6q-6 -39 -21 -96h-16
q-90 13 -144 -12q-57 -35 -95 -102t-38 -116z" />
    <glyph glyph-name="iogonek" unicode="&#x12f;" horiz-adv-x="514" 
d="M23 -244q0 98 147 228q-23 0 -33 4t-32 23t-27 34q18 82 78 330q59 248 88 377l-176 -11q-2 29 -2 86q139 20 209 35q71 16 78 16t25 -18t28 -33q-156 -653 -175 -733q-10 -14 7 -14q37 0 155 35q12 -63 15 -88q-14 -5 -66 -17t-80 -26q-45 -20 -81 -80t-36 -108
q0 -50 26 -72q27 -22 65 -21q38 0 83 16q8 -41 9 -67q-74 -37 -140 -37q-66 -1 -115 37q-50 38 -50 104zM378 1276q48 0 74 -32t26 -70t-34 -72q-34 -33 -76 -33t-73 31q-31 30 -31 70t33 73t81 33z" />
    <glyph glyph-name="Idotaccent" unicode="&#x130;" horiz-adv-x="641" 
d="M395 1572q0 42 31 72t75 31q43 1 67 -27t24 -68t-29 -71t-72 -31t-69 26t-27 68zM219 1331l248 -2q39 0 117 1t112 1q-4 -18 -11 -52t-9 -42l-158 -6q-6 0 -6 -8l-195 -1121l177 -6q-16 -78 -21 -96l-237 2q-39 0 -120 -1t-116 -1q6 30 18 96l140 6q8 0 12 11l188 1118
l-157 6z" />
    <glyph glyph-name="dotlessi" unicode="&#x131;" horiz-adv-x="514" 
d="M238 80q33 0 153 33q10 -33 17 -86q-141 -45 -256 -45q-10 0 -37 22t-35 41q131 568 164 707l-174 -11q-4 57 -4 86q144 21 211 36t74 15t27 -18t28 -33q-20 -87 -58 -243l-76 -312q-37 -156 -42 -174t8 -18z" />
    <glyph glyph-name="Kcommaaccent" unicode="&#x136;" horiz-adv-x="1251" 
d="M700 -205q0 -100 -72 -188t-171 -142q-33 41 -47 64q145 94 145 182q0 57 -80 80q2 61 39 99t81 38q45 0 75 -39t30 -94zM1171 1329q27 0 77 1t71 1q-6 -49 -19 -94l-100 -8q-303 -313 -522 -516l-2 -11q100 -68 189 -278t122 -270q25 -51 62 -52l143 -4q-8 -55 -18 -94
q-147 -6 -283 -6q-45 68 -162 352q-105 281 -201 281t-122 -2l-91 -527l170 -6q-6 -39 -20 -96l-234 2q-37 0 -113 -1t-108 -1q7 30 19 96l131 6q8 0 8 9l188 1118l-143 8l18 94l232 -2q37 0 109 1t104 1q-8 -53 -19 -96l-139 -4q-8 0 -8 -12l-88 -492q109 6 137 14
q63 53 214 209t249 269q6 10 -4 10l-129 6q11 43 18 94h264z" />
    <glyph glyph-name="kcommaaccent" unicode="&#x137;" horiz-adv-x="917" 
d="M455 -205q0 -92 -66 -174t-158 -129q-18 23 -43 57q133 86 134 168q0 53 -72 74q2 55 35 90t73 35t68 -35q29 -35 29 -86zM827 881q18 0 43 -37t29 -78q-105 -16 -201 -76t-211 -170v-10q106 -49 160 -229q47 -135 68 -175q9 -16 37 -15t122 26q4 -25 9 -86
q-125 -43 -271 -43q-40 62 -102 250t-115 188q-31 0 -143 -127q-31 -123 -72 -299h-141q117 485 305 1298l-176 -12q-6 47 -6 88q71 10 182 34q111 25 113 26q25 0 55 -45q-118 -489 -233 -940l10 -7q176 209 319 324t219 115z" />
    <glyph glyph-name="Lacute" unicode="&#x139;" horiz-adv-x="1050" 
d="M438 1505l340 221q37 -51 64 -112q-44 -22 -365 -180q-39 70 -39 71zM510 96q168 0 221 13q27 8 45 43l103 213q33 -4 98 -23q-66 -190 -127 -344l-612 2h-234q1 4 19 94l137 6q8 0 8 9l197 1120l-148 6q14 70 21 94h481q-8 -57 -21 -96l-174 -4q-4 0 -8 -8l-192 -1082
q-4 -29 7 -36t179 -7z" />
    <glyph glyph-name="lacute" unicode="&#x13a;" horiz-adv-x="509" 
d="M279 1548l342 221q35 -53 63 -112q-111 -53 -365 -180q-33 51 -40 71zM217 84q61 0 176 31q6 -33 10 -90q-137 -43 -282 -43q-8 0 -32 20t-34 41q27 109 143 619t148 638l-194 -10q-7 49 -7 88q147 15 312 56q25 0 55 -45q-129 -526 -303 -1293q-4 -12 8 -12z" />
    <glyph glyph-name="Lcommaaccent" unicode="&#x13b;" horiz-adv-x="1050" 
d="M594 -236q0 -102 -72 -190t-172 -141q-20 27 -47 63q145 94 146 185q0 55 -80 77q2 62 39 100q36 38 80 38t75 -38t31 -94zM510 96q168 0 223 13q23 8 45 43l103 213q33 -4 98 -23q-51 -147 -129 -344l-612 2h-234q1 4 19 94l137 6q8 0 10 9l195 1120l-146 6l19 94h483
q-16 -78 -21 -96l-176 -4q-6 0 -6 -8l-192 -1082q-6 -29 5 -36t179 -7z" />
    <glyph glyph-name="lcommaaccent" unicode="&#x13c;" horiz-adv-x="509" 
d="M252 -246q0 -92 -66 -174t-157 -129q-18 23 -43 57q133 86 133 168q0 49 -72 72q2 55 35 90t73 35q41 0 69 -35t28 -84zM219 84q59 0 174 31q10 -47 13 -90q-141 -43 -283 -43q-8 0 -31 20t-35 41q68 288 289 1257l-194 -10q-4 61 -5 88q147 15 312 56q25 0 55 -45
q-201 -827 -303 -1293q-4 -12 8 -12z" />
    <glyph glyph-name="Lcaron" unicode="&#x13d;" horiz-adv-x="1050" 
d="M1030 1204q0 -102 -72 -190t-172 -142q-20 27 -47 64q145 94 146 184q0 55 -80 78q2 61 39 99t81 38q45 0 75 -38t30 -93zM510 96q170 0 221 13q27 8 45 43l103 213q33 -4 98 -23q-66 -190 -127 -344l-612 2h-234q6 43 16 94l138 6q10 0 10 9l197 1120l-148 6
q14 70 21 94h481q-6 -39 -21 -96l-176 -4q-6 0 -6 -8l-192 -1082q-4 -29 6 -36t180 -7z" />
    <glyph glyph-name="lcaron" unicode="&#x13e;" horiz-adv-x="608" 
d="M784 1315q0 -92 -66 -174t-157 -129q-18 20 -43 57q133 86 133 170q0 51 -71 72q2 55 34 90q33 35 73 35q41 0 69 -35t28 -86zM217 84q59 0 176 31q6 -33 10 -90q-141 -43 -282 -43q-8 0 -31 20t-35 41q27 109 143 619t148 638l-194 -10q-6 45 -7 88q147 15 312 56
q25 0 55 -45q-201 -827 -303 -1293q-4 -12 8 -12z" />
    <glyph glyph-name="Lslash" unicode="&#x141;" horiz-adv-x="1060" 
d="M520 96q168 0 221 13q27 8 45 43l103 213q33 -4 98 -23q-66 -190 -127 -344l-612 2h-234q4 16 11 50q6 34 8 44l137 6q8 0 8 9l86 483q-20 -10 -180 -74q-14 31 -27 88q83 33 226 94l92 529l-148 6q14 70 21 94h481q-8 -57 -20 -96l-174 -4q-4 0 -9 -8l-80 -459
q23 10 125 53t172 74q18 -57 27 -98q-68 -29 -188 -77t-156 -63l-92 -512q-4 -29 7 -36t179 -7z" />
    <glyph glyph-name="lslash" unicode="&#x142;" horiz-adv-x="598" 
d="M260 82q49 0 176 31q10 -43 13 -88q-147 -43 -285 -43q-8 0 -31 20t-33 41q73 328 142 610q-59 -20 -162 -61q-12 35 -23 82q39 16 111 43t96 37q23 102 68 294t57 252l-194 -10q-4 61 -5 88q122 12 214 34q92 21 98 22q27 0 53 -45q-57 -244 -135 -576q150 57 196 78
q16 -61 21 -88q-125 -49 -240 -92q-106 -440 -143 -615q-4 -14 6 -14z" />
    <glyph glyph-name="Nacute" unicode="&#x143;" horiz-adv-x="1427" 
d="M1079 1726q37 -49 64 -110q-219 -113 -365 -180q-31 49 -39 69q201 131 340 221zM1292 1329q35 0 101 1t92 1q-4 -31 -17 -96l-125 -4q-4 0 -8 -12l-209 -1215q-41 -16 -108 -16q-266 467 -567 1124h-15q-29 -168 -85 -505t-85 -505l203 -4q-16 -92 -18 -96h-271
q-36 0 -100 -1t-90 -1q8 64 16 96l131 4q12 2 13 13l190 1118l-152 4q5 40 19 96l289 -2q20 -41 124 -253t222 -458q119 -246 198 -409l13 2q82 512 161 1020l-194 2q12 66 18 96h254z" />
    <glyph glyph-name="nacute" unicode="&#x144;" horiz-adv-x="1044" 
d="M465 1036q4 3 303 258q31 -31 76 -96l-328 -225q-27 29 -51 63zM766 82q31 0 147 33q8 -43 13 -86q-127 -47 -264 -47q-10 0 -31 19q-20 19 -27 42q166 502 166 629q0 74 -63 73q-92 0 -232 -123q-139 -124 -164 -219q-12 -43 -53 -211t-47 -190q-47 -2 -141 -2
q106 443 176 750l-162 -15q-4 61 -4 86l262 58q10 1 28 -13t25 -28q-18 -86 -55 -224l14 -4q113 133 229 200t193 69q88 -14 133 -105q12 -25 13 -63q0 -152 -164 -615q-4 -14 8 -14z" />
    <glyph glyph-name="Ncommaaccent" unicode="&#x145;" horiz-adv-x="1427" 
d="M788 -205q0 -100 -72 -189t-171 -141q-18 23 -47 62q145 94 145 184q0 55 -80 78q2 61 39 100t81 39q45 0 75 -39t30 -94zM1292 1329q35 0 101 1t92 1q-2 -6 -8 -42t-11 -54l-123 -4q-8 0 -8 -12l-209 -1215q-41 -16 -108 -16q-86 145 -255 477t-314 647h-13
q-29 -168 -85 -505t-85 -505l201 -4q-8 -66 -16 -96h-271q-36 0 -100 -1t-90 -1q4 26 16 96l131 4q8 2 13 13l188 1118l-150 4q5 40 19 96l289 -2q289 -596 542 -1120l15 2q80 514 159 1020l-192 2q16 92 18 96h254z" />
    <glyph glyph-name="ncommaaccent" unicode="&#x146;" horiz-adv-x="1044" 
d="M518 -205q0 -92 -66 -174t-157 -129q-18 23 -43 57q133 86 133 168q0 49 -72 72q2 55 35 90t73 35q41 0 69 -35t28 -84zM766 82q31 0 147 33q8 -43 13 -86q-127 -47 -267 -47q-8 0 -28 19t-27 42q166 502 166 629q0 74 -63 73q-92 0 -232 -123q-139 -124 -164 -219
q-12 -43 -53 -211t-47 -190q-47 -2 -141 -2q106 443 176 750l-162 -15q-4 61 -4 86l262 58q8 -1 26 -15t27 -26q-35 -139 -55 -224l14 -4q113 133 229 200t193 69q88 -14 133 -105q12 -25 13 -63q0 -152 -164 -615q-4 -14 8 -14z" />
    <glyph glyph-name="Ncaron" unicode="&#x147;" horiz-adv-x="1427" 
d="M676 1722l198 -149q181 107 248 149q25 -25 45 -61q-109 -78 -276 -201q-47 0 -68 2q-70 70 -205 201q8 12 58 59zM1292 1329q35 0 101 1t92 1q-4 -31 -17 -96l-125 -4q-4 0 -8 -12l-209 -1215q-41 -16 -108 -16q-266 467 -567 1124h-15q-29 -168 -85 -505t-85 -505
l203 -4q-16 -92 -18 -96h-271q-36 0 -100 -1t-90 -1q8 64 16 96l131 4q12 2 13 13l190 1118l-152 4q5 40 19 96l289 -2q20 -41 124 -253t222 -458q119 -246 198 -409l13 2q82 512 161 1020l-194 2q12 66 18 96h254z" />
    <glyph glyph-name="ncaron" unicode="&#x148;" horiz-adv-x="1044" 
d="M438 1294q82 -97 156 -188l223 186q27 -20 55 -53q-219 -219 -254 -250h-79l-164 262q16 14 63 43zM766 82q31 0 147 33q8 -43 13 -86q-127 -47 -264 -47q-10 0 -31 19q-20 19 -27 42q166 502 166 629q0 74 -63 73q-92 0 -232 -123q-139 -124 -164 -219q-12 -43 -53 -211
t-47 -190q-47 -2 -141 -2q106 443 176 750l-162 -15q-4 61 -4 86l262 58q10 1 28 -13t25 -28q-18 -86 -55 -224l14 -4q113 133 229 200t193 69q88 -14 133 -105q12 -25 13 -63q0 -152 -164 -615q-4 -14 8 -14z" />
    <glyph glyph-name="Omacron" unicode="&#x14c;" horiz-adv-x="1439" 
d="M1120 1612q-4 -37 -20 -105q-61 0 -211 1t-219 1q16 82 20 99q283 4 430 4zM838 1251q-324 1 -486 -371q-68 -154 -67 -359q0 -205 98 -323q97 -118 279 -118t309 119q98 89 165 245q66 156 66 360t-92 322q-92 125 -272 125zM1370 805q0 -209 -87 -389
q-212 -438 -658 -436q-219 0 -363 139t-145 403q0 214 94 400t229 288q180 141 430 142q212 0 356 -142t144 -405z" />
    <glyph glyph-name="omacron" unicode="&#x14d;" horiz-adv-x="899" 
d="M760 1135q-6 -53 -19 -99q-59 0 -201 1t-210 1q10 66 16 92q275 5 414 5zM512 786q-106 0 -190 -110q-45 -59 -81 -172q-36 -114 -36 -220t33 -157q32 -57 123 -57t171 96q54 66 90 182t35 223q0 215 -145 215zM545 879q121 1 195 -79t73 -218q0 -138 -53 -266t-163 -232
t-282 -104q-135 0 -200 82t-65 212t56 264q57 136 152 226q123 115 287 115z" />
    <glyph glyph-name="Ohungarumlaut" unicode="&#x150;" horiz-adv-x="1439" 
d="M987 1536l324 209q25 -33 57 -100q-41 -21 -336 -181q-27 39 -45 72zM680 1536q30 22 321 217q31 -41 62 -96l-338 -191q-6 8 -45 70zM838 1251q-324 1 -486 -371q-68 -154 -67 -359q0 -205 98 -323q97 -118 279 -118t309 119q98 89 165 245q66 156 66 360t-92 322
q-92 125 -272 125zM1370 805q0 -209 -87 -389q-212 -438 -658 -436q-219 0 -363 139t-145 403q0 214 94 400t229 288q180 141 430 142q212 0 356 -142t144 -405z" />
    <glyph glyph-name="ohungarumlaut" unicode="&#x151;" horiz-adv-x="899" 
d="M840 1294q43 -43 71 -86q-104 -80 -286 -227q-4 4 -54 59q244 231 269 254zM365 991l-56 60q150 139 269 252q37 -31 75 -86q-226 -179 -288 -226zM512 786q-106 0 -190 -110q-45 -59 -81 -172q-36 -114 -36 -220t33 -157q32 -57 123 -57t171 96q54 66 90 182t35 223
q0 215 -145 215zM545 879q121 1 195 -79t73 -218q0 -138 -53 -266t-163 -232t-282 -104q-135 0 -200 82t-65 212t56 264q57 136 152 226q123 115 287 115z" />
    <glyph glyph-name="OE" unicode="&#x152;" horiz-adv-x="1968" 
d="M281 525q0 -203 94 -325t278 -122q287 0 437 282q53 297 110 658q-92 233 -356 233q-197 0 -324 -121q-94 -90 -166 -246t-73 -359zM113 523q0 239 106 431t259 295q153 102 376 103q133 0 231 -52t150 -135q11 87 27 166h682q-36 -306 -37 -315q-50 0 -92 -6v176
q0 35 -43 39q-106 8 -240 8t-141 -4l-86 -498q217 0 288 2q70 2 82 11t17 32l26 98h92q-12 -78 -25 -147t-19 -107t-12 -71q-5 -33 -11 -62q-31 -2 -94 -2l10 103q4 27 -6 36q-11 9 -75 10t-290 1l-86 -498q-4 -27 14 -34t183 -7q164 0 237 17q29 6 45 41l88 184
q37 -4 93 -25q-61 -182 -111 -315l-516 2q-37 0 -103 -1t-94 -1q6 33 16 95q9 62 13 81q-176 -195 -455 -194q-244 0 -389 172q-110 132 -110 371z" />
    <glyph glyph-name="oe" unicode="&#x153;" horiz-adv-x="1384" 
d="M1061 780q-88 0 -157 -87t-103 -206q188 -4 293 52q84 39 84 112q0 53 -30 91t-87 38zM361 70q91 0 169 94q51 63 91 182q78 238 4 381q-31 61 -109 61q-111 0 -194 -112q-45 -57 -81 -170q-36 -112 -36 -220t33 -159q32 -57 123 -57zM537 879q188 0 229 -197h12
q78 100 156 148t174 48t156 -64q60 -65 63 -146q-6 -54 -37 -108t-69 -79q-152 -82 -441 -82q-57 -193 13 -269q37 -40 102 -40q131 0 324 109q12 -27 32 -80q-231 -139 -399 -139q-74 0 -132 42t-77 123h-10q-133 -166 -311 -165q-136 0 -204 80t-68 212t55 266
q56 134 151 224q123 117 281 117z" />
    <glyph glyph-name="Racute" unicode="&#x154;" horiz-adv-x="1187" 
d="M606 1507l342 222q37 -51 64 -113q-330 -162 -365 -178q-14 18 -41 69zM524 664q182 0 287 97q104 97 104 221q-1 124 -73 190t-207 67q-88 0 -125 -8l-96 -563q14 -4 110 -4zM592 1333q176 0 279 -35t157 -115q53 -81 53 -171q0 -136 -97 -242t-236 -149v-11
q72 -27 122 -162q26 -71 41 -119q16 -47 38 -107t42 -89t49 -31l109 -4q-8 -66 -16 -94q-74 -4 -256 -4q-31 49 -95 233q-63 184 -86 236q-24 51 -62 77t-127 26t-110 -5l-82 -465l168 -6q-8 -61 -16 -96l-242 2q-41 0 -113 -1t-104 -1q13 69 17 94l131 8q12 0 12 11
l188 1118l-141 4q4 33 16 94q185 4 361 4z" />
    <glyph glyph-name="racute" unicode="&#x155;" horiz-adv-x="745" 
d="M356 1036q4 3 303 258q37 -37 74 -96q-193 -135 -325 -225q-37 41 -52 63zM666 879q54 0 102 -29q0 -37 -25 -91t-43 -63q-43 18 -84 19q-63 0 -178 -136t-147 -262q-18 -70 -74 -317h-139q80 344 168 756l-160 -17q-4 61 -4 88q66 9 160 30t99 21t23 -16t27 -28
q-25 -96 -59 -254l14 -7q92 137 179 221t141 85z" />
    <glyph glyph-name="Rcommaaccent" unicode="&#x156;" horiz-adv-x="1187" 
d="M688 -205q0 -100 -72 -189t-172 -141q-33 41 -47 62q145 94 146 184q0 55 -80 80q2 59 39 98t81 39q45 0 75 -39t30 -94zM524 664q180 0 286 97q105 97 105 221q1 124 -73 190t-209 67q-86 0 -123 -8l-98 -563q14 -4 112 -4zM590 1333q176 0 279 -35t158 -114
q54 -80 54 -172q0 -136 -97 -242t-236 -149l-3 -11q62 -23 95 -94q12 -27 19 -42q18 -38 58 -164q40 -127 67 -167q27 -39 56 -41l109 -4q-8 -66 -16 -94q-74 -4 -256 -4q-33 52 -97 238t-85 234t-61 74t-129 26t-110 -5l-82 -465l170 -6q-6 -45 -18 -96l-242 2
q-39 0 -113 -1t-104 -1q7 33 19 94l129 8q12 0 12 11l190 1118l-143 4q4 33 16 94q185 4 361 4z" />
    <glyph glyph-name="rcommaaccent" unicode="&#x157;" horiz-adv-x="745" 
d="M293 -227q0 -92 -66 -174t-157 -127q-18 18 -43 55q133 86 133 170q0 49 -72 72q2 55 35 90t73 35t68 -35t29 -86zM666 879q54 0 102 -29q0 -37 -25 -91t-43 -63q-43 18 -84 19q-63 0 -178 -136t-147 -262q-18 -70 -74 -317h-139q80 344 168 756l-160 -17q-4 61 -4 88
q66 9 160 30t99 21t23 -16t27 -28q-25 -96 -59 -254l14 -7q92 137 179 221t141 85z" />
    <glyph glyph-name="Rcaron" unicode="&#x158;" horiz-adv-x="1187" 
d="M993 1663l-276 -201h-68l-203 203q25 33 58 57q159 -120 196 -149q168 102 250 151q20 -20 43 -61zM524 664q182 0 287 97q104 97 104 221q-1 124 -73 190t-207 67q-88 0 -125 -8l-96 -563q14 -4 110 -4zM592 1333q176 0 279 -35t157 -115q53 -81 53 -171
q0 -136 -97 -242t-236 -149v-11q72 -27 122 -162q26 -71 41 -119q16 -47 38 -107t42 -89t49 -31l109 -4q-8 -66 -16 -94q-74 -4 -256 -4q-31 49 -95 233q-63 184 -86 236q-24 51 -62 77t-127 26t-110 -5l-82 -465l168 -6q-8 -61 -16 -96l-242 2q-41 0 -113 -1t-104 -1
q13 69 17 94l131 8q12 0 12 11l188 1118l-141 4q4 33 16 94q185 4 361 4z" />
    <glyph glyph-name="rcaron" unicode="&#x159;" horiz-adv-x="745" 
d="M430 989l-166 262q25 20 64 43q24 -28 155 -188l226 186q31 -23 53 -53l-126 -126q-89 -89 -126 -124h-80zM666 879q54 0 102 -29q0 -37 -25 -91t-43 -63q-43 18 -84 19q-63 0 -178 -136t-147 -262q-18 -70 -74 -317h-139q80 344 168 756l-160 -17q-4 61 -4 88
q66 9 160 30t99 21t23 -16t27 -28q-25 -96 -59 -254l14 -7q92 137 179 221t141 85z" />
    <glyph glyph-name="Sacute" unicode="&#x15a;" horiz-adv-x="999" 
d="M524 1507l342 222q35 -53 64 -113l-367 -180q-39 70 -39 71zM643 1247q-127 0 -197 -61q-96 -80 -96 -197q0 -84 45 -126q45 -43 117 -79t78 -40q8 -4 16 -9q141 -72 203 -146q61 -75 61 -183q0 -199 -155 -322q-131 -104 -344 -104t-326 59q16 162 31 319q33 6 102 7
l4 -209q0 -20 11 -27q61 -45 209 -45t234 75q85 75 85 206q0 51 -15 88t-73 82t-181 110q-124 64 -188 136q-63 73 -63 173t48 180q132 218 451 218q170 0 252 -54q-12 -158 -30 -301l-99 -6l-4 185q0 20 -8 28q-41 43 -168 43z" />
    <glyph glyph-name="sacute" unicode="&#x15b;" horiz-adv-x="747" 
d="M346 1036q4 3 303 258q31 -31 76 -96l-328 -225q-37 41 -51 63zM256 637q0 -53 32 -80t127 -69t147 -94t52 -134q0 -152 -141 -231q-89 -49 -237 -49t-213 36q4 82 12 250q29 4 90 4l14 -147q0 -16 13 -25q40 -26 126 -26t140 36t55 108q0 70 -34 100q-33 30 -127 71
t-146 89q-51 48 -51 129t46 140t107 91q92 43 222 43t198 -43q-4 -35 -11 -113t-11 -117q-49 -4 -88 -4l-11 133q0 14 -12 25q-41 26 -107 26t-116 -24q-76 -43 -76 -125z" />
    <glyph glyph-name="Scedilla" unicode="&#x15e;" horiz-adv-x="999" 
d="M182 -459v74q80 2 125 31q45 30 45 66t-21 58t-89 27q-2 7 -5 25t-6 26l156 132h-39q-190 0 -303 59q16 162 31 319q33 6 102 7l4 -209q0 -20 11 -27q61 -45 209 -45t234 75q85 75 85 206q0 51 -15 88t-73 82t-181 110q-124 64 -188 136q-63 73 -63 173t48 180
q132 218 451 218q170 0 252 -54q-12 -158 -30 -301l-99 -6l-4 185q0 20 -8 28q-41 43 -168 43t-197 -61q-96 -80 -96 -197q0 -84 45 -126q45 -43 117 -79t78 -40q8 -4 16 -9q141 -72 203 -146q61 -75 61 -183q0 -199 -155 -322q-72 -61 -187 -86l-166 -141q121 -25 121 -129
q0 -76 -84 -132t-217 -55z" />
    <glyph glyph-name="scedilla" unicode="&#x15f;" horiz-adv-x="747" 
d="M207 -20q-119 0 -184 34q8 168 12 250q39 6 90 6l12 -149q13 -51 120 -50t161 37t55 108q0 70 -35 100q-36 30 -128 71t-144 89q-51 48 -51 129t46 140t107 91q92 43 222 43t198 -43q-4 -35 -11 -113t-11 -117q-49 -4 -88 -4l-11 133q0 14 -10 25q-45 26 -109 26
t-116 -24q-76 -43 -76 -125q0 -53 32 -80t127 -69t147 -94t52 -134q0 -150 -141 -233q-37 -20 -74 -29l-149 -141q49 -8 79 -41t29 -76q0 -80 -78 -130t-200 -54l2 71q72 4 115 30t43 69q0 74 -103 73l-12 43l147 138h-65z" />
    <glyph glyph-name="Scaron" unicode="&#x160;" horiz-adv-x="999" 
d="M676 1573q138 77 250 151q16 -16 43 -61q-16 -12 -275 -203q-47 0 -69 2q-135 135 -205 201q25 31 57 59q86 -61 199 -149zM643 1247q-127 0 -197 -61q-96 -80 -96 -197q0 -84 45 -126q45 -43 117 -79t78 -40q8 -4 16 -9q141 -72 203 -146q61 -75 61 -183
q0 -199 -155 -322q-131 -104 -344 -104t-326 59q16 162 31 319q33 6 102 7l4 -209q0 -20 11 -27q61 -45 209 -45t234 75q85 75 85 206q0 51 -15 88t-73 82t-181 110q-124 64 -188 136q-63 73 -63 173t48 180q132 218 451 218q170 0 252 -54q-12 -158 -30 -301l-99 -6l-4 185
q0 20 -8 28q-41 43 -168 43z" />
    <glyph glyph-name="scaron" unicode="&#x161;" horiz-adv-x="747" 
d="M322 1294l157 -188q45 35 135 111l88 75q20 -14 56 -53l-118 -118q-93 -93 -136 -132h-80l-166 262q25 20 64 43zM256 637q0 -53 32 -80t127 -69t147 -94t52 -134q0 -152 -141 -231q-89 -49 -237 -49t-213 36q4 82 12 250q29 4 90 4l14 -147q0 -16 13 -25q40 -26 126 -26
t140 36t55 108q0 70 -34 100q-33 30 -127 71t-146 89q-51 48 -51 129t46 140t107 91q92 43 222 43t198 -43q-4 -35 -11 -113t-11 -117q-49 -4 -88 -4l-11 133q0 14 -12 25q-41 26 -107 26t-116 -24q-76 -43 -76 -125z" />
    <glyph glyph-name="Tcommaaccent" unicode="&#x162;" horiz-adv-x="1142" 
d="M614 -205q0 -100 -72 -188t-171 -142q-20 27 -47 64q145 94 145 184q0 55 -80 78q2 61 39 99t81 38q45 0 75 -38t30 -95zM1055 1329q60 0 106 2t64 2q-20 -180 -43 -338q-27 -4 -101 -8l4 197q0 20 -8 28t-35 11q-106 6 -276 6l-197 -1127l199 -6q-2 -12 -18 -96l-261 2
q-43 0 -130 -1t-128 -1q8 59 19 96l162 6q8 0 8 9l188 1118q-190 0 -278 -6q-45 -4 -58 -39l-61 -197q-55 0 -100 6q49 246 69 338l191 -2h684z" />
    <glyph glyph-name="tcommaaccent" unicode="&#x163;" horiz-adv-x="706" 
d="M350 -238q0 -92 -66 -173t-157 -128q-18 20 -43 58q133 86 133 168q0 51 -72 71q2 55 35 90t73 35q41 0 69 -35t28 -86zM260 174q0 -82 92 -82t236 41q4 -27 8 -88q-172 -63 -313 -63q-47 0 -109 42t-63 120q0 77 59 332t63 276h-159q2 10 7 41t11 51q94 8 152 10
q14 0 16 14q12 51 51 191q76 35 133 35q6 0 7 -9q-25 -102 -52 -231q209 0 310 2q-6 -47 -21 -104h-311q-25 -94 -55 -244q-62 -277 -62 -334z" />
    <glyph glyph-name="Tcaron" unicode="&#x164;" horiz-adv-x="1142" 
d="M717 1571q166 98 250 151q16 -14 43 -61q-16 -12 -275 -203q-47 0 -69 2q-66 68 -203 201q33 39 57 59q113 -83 197 -149zM1057 1329q56 0 104 2t66 2q-14 -129 -45 -338q-31 -4 -101 -8l4 197q0 20 -8 28q-17 17 -311 17l-195 -1127l197 -6q-8 -53 -18 -96l-261 2
q-43 0 -129 -1t-127 -1q4 14 9 48q4 34 8 48l162 6q10 0 10 9l188 1118q-188 0 -280 -6q-45 -4 -58 -39l-59 -197q-57 0 -102 6l69 338l191 -2h686z" />
    <glyph glyph-name="tcaron" unicode="&#x165;" horiz-adv-x="706" 
d="M786 1243q0 -92 -66 -173t-157 -128q-18 23 -43 57q133 86 133 168q0 49 -71 72q2 55 34 90q33 35 73 35q41 0 69 -35t28 -86zM109 145q0 52 122 607h-159l18 92q100 8 152 10q14 0 19 22t24 91q18 68 24 92q72 35 135 35q4 0 5 -7q-18 -86 -52 -233q211 0 310 2
q-6 -61 -19 -104h-313q-35 -159 -75 -335q-40 -175 -40 -243q0 -82 91 -82t235 41q8 -57 8 -88q-172 -63 -311 -63q-47 0 -100 35q-52 36 -70 92q-4 25 -4 36z" />
    <glyph glyph-name="Umacron" unicode="&#x16a;" horiz-adv-x="1325" 
d="M1065 1612q-4 -37 -21 -105q-60 0 -210 1t-220 1q16 82 21 99q283 4 430 4zM583 -20q-216 0 -321 118q-134 149 -72 441l117 692l-133 4q12 66 19 96h466q-6 -49 -18 -96l-168 -6q-10 0 -12 -12l-115 -666q-43 -247 28 -355t222 -108t256 96q47 43 91 135q45 93 59 177
q79 463 118 725q0 8 -8 8l-170 4q14 80 19 96h237q37 0 107 1t98 1q-8 -61 -14 -96l-134 -6l-118 -686q-49 -291 -205 -434q-133 -129 -349 -129z" />
    <glyph glyph-name="umacron" unicode="&#x16b;" horiz-adv-x="997" 
d="M795 1139l-19 -99q-58 0 -202 1t-212 1q6 37 17 93q279 4 416 4zM750 86q43 0 147 33q12 -45 18 -84q-133 -53 -251 -53q-8 0 -28 18q-19 18 -30 37q20 104 41 199l-12 4q-238 -260 -379 -265q-78 12 -131 86q-25 33 -25 89q1 145 138 602l-154 -17q-4 57 -8 86
q197 39 274 58q10 -1 28 -19t23 -35q-80 -247 -118 -419q-37 -172 -37 -220q1 -84 63 -86q74 0 205 126t156 211t92 419q49 2 143 2q-137 -625 -164 -760q-4 -12 9 -12z" />
    <glyph glyph-name="Uring" unicode="&#x16e;" horiz-adv-x="1325" 
d="M851 1507q40 0 73 28q32 28 32 73q0 44 -24 70t-68 26q-45 0 -76 -30q-30 -30 -30 -74t26 -68t67 -25zM1057 1618q-1 -72 -59 -128t-148 -56t-141 42t-51 118t62 129t149 53t137 -43t51 -115zM582 -20q-215 0 -320 118q-134 149 -72 441l117 692l-133 4q12 66 19 96h466
q-6 -31 -18 -96l-170 -6q-8 0 -10 -12l-115 -666q-43 -247 28 -355t222 -108t256 96q47 43 91 135q45 93 59 177q79 463 118 725q0 8 -8 8l-170 4q6 35 19 96h237q37 0 107 1t98 1q-9 -61 -17 -96l-131 -6l-118 -686q-49 -289 -195 -426t-360 -137z" />
    <glyph glyph-name="uring" unicode="&#x16f;" horiz-adv-x="997" 
d="M684 1180q0 84 -88 84q-41 0 -73 -31q-31 -31 -31 -75t24 -70t65 -25q39 0 71 31t32 86zM395 1152q-1 75 63 128t146 53t129 -42q47 -43 47 -115t-62 -127t-142 -55t-130 41q-51 42 -51 117zM246 190q0 -88 63 -90q74 0 206 126t153 206q8 31 96 424q49 2 143 2
q-156 -709 -166 -760q0 -12 11 -12q45 0 145 33q12 -45 18 -84q-131 -53 -249 -53q-10 0 -30 18q-19 18 -28 37q2 23 39 199l-12 4q-238 -260 -379 -265q-78 12 -131 86q-25 33 -25 89q1 145 138 602l-154 -17q-4 57 -8 86q197 39 274 58q12 1 30 -17t23 -37
q-80 -248 -124 -456q-33 -127 -33 -179z" />
    <glyph glyph-name="Uhungarumlaut" unicode="&#x170;" horiz-adv-x="1325" 
d="M1253 1743q23 -31 58 -98q-111 -61 -336 -181q-6 8 -45 70q319 207 323 209zM944 1753q33 -43 62 -98q-109 -61 -338 -189q-27 39 -45 70q190 127 321 217zM583 -20q-216 0 -321 118q-134 149 -72 441l117 692l-133 4q12 66 19 96h466q-6 -49 -18 -96l-168 -6
q-10 0 -12 -12l-115 -666q-43 -247 28 -355t222 -108t256 96q47 43 91 135q45 93 59 177q79 463 118 725q0 8 -8 8l-170 4q14 80 19 96h237q37 0 107 1t98 1q-8 -61 -14 -96l-134 -6l-118 -686q-49 -291 -205 -434q-133 -129 -349 -129z" />
    <glyph glyph-name="uhungarumlaut" unicode="&#x171;" horiz-adv-x="997" 
d="M600 1042l268 252q43 -43 72 -86q-104 -80 -287 -227q-37 41 -53 61zM393 991l-53 62q143 133 266 250q37 -31 76 -86q-240 -186 -289 -226zM750 86q43 0 147 33q12 -45 18 -84q-133 -53 -251 -53q-8 0 -28 18q-19 18 -30 37q20 104 41 199l-12 4q-238 -260 -379 -265
q-78 12 -131 86q-25 33 -25 89q1 145 138 602l-154 -17q-4 57 -8 86q197 39 274 58q10 -1 28 -19t23 -35q-80 -247 -118 -419q-37 -172 -37 -220q1 -84 63 -86q74 0 205 126t156 211t92 419q49 2 143 2q-137 -625 -164 -760q-4 -12 9 -12z" />
    <glyph glyph-name="Uogonek" unicode="&#x172;" horiz-adv-x="1325" 
d="M541 -250q0 -134 161 -82l13 -71q-65 -35 -135 -35t-119 38t-49 106t41 129q41 62 122 145q-219 6 -315 118q-132 151 -70 441l115 692l-131 4q12 66 19 96h464q-6 -49 -18 -96l-168 -6q-8 0 -12 -12l-115 -666q-43 -248 27 -354q78 -109 227 -109t254 96q47 43 91 135
q45 93 59 177q79 463 118 725q0 8 -8 8l-170 4q14 80 19 96h237q37 0 107 1t98 1q-8 -61 -14 -96l-134 -6l-118 -686q-49 -291 -205 -434q-96 -94 -252 -132q-41 -10 -90 -94t-49 -133z" />
    <glyph glyph-name="uogonek" unicode="&#x173;" horiz-adv-x="997" 
d="M750 84q37 0 145 35q12 -45 18 -84q-27 -9 -83 -25t-85 -30q-47 -20 -81 -82t-35 -110q0 -90 86 -91q41 0 86 16q8 -37 10 -67q-78 -37 -141 -37q-64 -1 -114 37t-50 104q0 106 153 236q-2 0 -6 4q-29 12 -47 49q6 45 41 197l-12 4q-242 -260 -379 -265q-78 12 -131 86
q-25 33 -25 89q0 145 138 602l-154 -17q-4 57 -8 86q197 39 274 58q10 -1 28 -19t23 -35q-78 -237 -117 -417q-38 -180 -38 -224q1 -83 63 -86q74 0 205 126t154 208q37 145 94 424q49 2 143 2q-152 -692 -166 -762q0 -12 11 -12z" />
    <glyph glyph-name="Ydieresis" unicode="&#x178;" horiz-adv-x="1091" 
d="M809 1556q1 34 25 64q24 29 67 29t63 -25q20 -26 19 -60q0 -34 -25 -62q-26 -28 -64 -28t-62 24t-23 58zM469 1554q-1 36 25 65q26 30 68 30t62 -25q20 -26 19 -60q0 -34 -26 -62q-27 -28 -63 -28t-60 22t-25 58zM1077 1331q27 0 84 1t80 1q-6 -49 -18 -94l-97 -8
q-430 -596 -520 -715l-71 -414l186 -6q-6 -39 -21 -96l-251 2q-39 0 -125 -1t-125 -1q7 63 18 96l154 6q14 0 14 13l68 401q-27 74 -258 707q-6 10 -13 10l-104 4q10 40 18 96l187 -2q51 0 143 1t129 1q-8 -55 -18 -96l-177 -6q119 -358 201 -596h12q252 352 396 586
q2 2 0 6t-6 4l-164 6l18 94h260z" />
    <glyph glyph-name="Zacute" unicode="&#x179;" horiz-adv-x="1136" 
d="M594 1505l340 221q37 -51 63 -112l-364 -180q-39 70 -39 71zM909 -2l-337 2h-574q-20 74 -25 90q52 57 988 1124l-3 9q-483 6 -540 -6q-33 -8 -49 -48l-80 -215q-41 4 -103 17q72 264 101 360h182l653 -2q12 -45 25 -117q-705 -809 -979 -1097l2 -9q526 0 612 19
q45 10 64 55l86 211q53 -10 102 -22q-43 -137 -125 -371z" />
    <glyph glyph-name="zacute" unicode="&#x17a;" horiz-adv-x="849" 
d="M369 1036q4 3 303 258q31 -31 76 -96q-104 -69 -328 -225q-4 4 -51 63zM408 0h-396q-4 16 -30 82l628 672l-2 12q-160 0 -307 -4q-45 0 -57 -31l-62 -164q-47 6 -94 17l72 276l192 -2h410q14 -45 24 -108q-90 -100 -296 -314t-328 -334l2 -10q262 0 368 8q49 4 68 43
l68 160q31 -4 94 -18q-31 -111 -88 -287q-45 2 -266 2z" />
    <glyph glyph-name="Zdotaccent" unicode="&#x17b;" horiz-adv-x="1136" 
d="M769 1696q44 0 68 -28q23 -28 23 -68t-29 -70q-29 -31 -71 -31t-70 26q-26 25 -26 67t30 73q31 31 75 31zM909 -2l-338 2h-573q-4 12 -27 90q95 102 990 1124l-3 9q-483 6 -540 -6q-35 -8 -51 -48l-78 -215q-49 6 -103 17q72 264 101 360h182l653 -2q12 -45 25 -117
q-684 -784 -981 -1097l4 -9q526 0 612 19q45 12 64 55l86 211q53 -10 102 -22q-43 -137 -125 -371z" />
    <glyph glyph-name="zdotaccent" unicode="&#x17c;" horiz-adv-x="849" 
d="M496 1217q44 0 66 -26t22 -64q0 -39 -28 -69t-69 -30t-67 26t-25 64q0 38 29 69q29 30 72 30zM162 92q264 0 368 8q51 4 68 43l70 160q20 -2 94 -18q-57 -193 -88 -287q-47 2 -266 2h-396q-16 39 -32 82l630 672l-2 12q-160 0 -307 -4q-47 0 -59 -31l-62 -164
q-41 6 -92 17q28 124 70 276l194 -2h410q14 -45 24 -108q-319 -352 -624 -648v-10z" />
    <glyph glyph-name="Zcaron" unicode="&#x17d;" horiz-adv-x="1136" 
d="M764 1460h-68l-202 203q23 29 55 57q129 -94 199 -149q190 117 247 151q23 -20 45 -61q-109 -78 -276 -201zM909 -2l-337 2h-574q-20 74 -25 90q52 57 988 1124l-3 9q-483 6 -540 -6q-33 -8 -49 -48l-80 -215q-41 4 -103 17q72 264 101 360h182l653 -2q12 -45 25 -117
q-705 -809 -979 -1097l2 -9q526 0 612 19q45 10 64 55l86 211q53 -10 102 -22q-43 -137 -125 -371z" />
    <glyph glyph-name="zcaron" unicode="&#x17e;" horiz-adv-x="849" 
d="M350 1294q82 -97 156 -188q45 35 133 111l90 75q27 -20 55 -53q-219 -219 -254 -250q-53 0 -79 2q-29 43 -84 133t-80 127q25 20 63 43zM162 92q264 0 368 8q49 4 68 43l68 160q31 -4 94 -18q-31 -111 -88 -287q-45 2 -264 2h-398q-4 16 -30 82l628 672l-2 12
q-162 0 -305 -4q-47 0 -59 -31l-62 -164q-47 6 -94 17l72 276l194 -2h410q18 -76 22 -108q-88 -98 -294 -312t-328 -336v-10z" />
    <glyph glyph-name="florin" unicode="&#x192;" horiz-adv-x="1048" 
d="M971 1341q72 0 116 -24q-3 -27 -27 -70t-48 -57q-64 24 -154 24t-147 -59t-89 -140t-67 -267q57 0 179 1t190 1q-8 -55 -23 -99q-254 0 -364 -2q-86 -451 -127 -586q-52 -176 -182 -280t-281 -105q-63 0 -109 17q4 27 27 67t45 58q68 -18 134 -18t134 69q68 70 106 233
t107 545h-217q2 23 19 94q143 4 202 5q10 0 17 14q35 186 75 275q41 89 129 167q156 137 355 137z" />
    <glyph glyph-name="Scommaaccent" unicode="&#x218;" horiz-adv-x="999" 
d="M555 -256q0 -102 -72 -190t-172 -142q-20 27 -47 64q145 94 146 184q0 55 -80 78q2 61 39 99t81 38t74 -38t31 -93zM643 1247q-127 0 -197 -61q-96 -80 -96 -197q0 -84 45 -126q45 -43 117 -79t78 -40q8 -4 16 -9q141 -72 203 -146q61 -75 61 -183q0 -199 -155 -322
q-131 -104 -344 -104t-326 59q16 162 31 319q33 6 102 7l4 -209q0 -20 11 -27q61 -45 209 -45t234 75q85 75 85 206q0 51 -15 88t-73 82t-181 110q-124 64 -188 136q-63 73 -63 173t48 180q132 218 451 218q170 0 252 -54q-4 -43 -9 -93t-11 -112t-10 -96l-99 -6l-4 185
q0 20 -8 28q-41 43 -168 43z" />
    <glyph glyph-name="scommaaccent" unicode="&#x219;" horiz-adv-x="747" 
d="M367 -240q0 -90 -66 -172t-158 -129q-18 20 -43 58q133 86 133 168q0 49 -71 71q2 55 35 90t73 35t68 -35q29 -35 29 -86zM256 637q0 -53 32 -80t127 -69t147 -94t52 -134q0 -152 -141 -231q-87 -49 -235 -49t-218 36q2 39 8 123q5 84 7 127q27 4 90 4l12 -147
q13 -53 120 -52t161 37t55 108q0 70 -34 100q-33 30 -127 71t-146 89q-51 48 -51 129t46 140t107 91q92 43 222 43t198 -43q-4 -35 -11 -113t-11 -117q-49 -4 -88 -4l-11 133q0 14 -12 25q-41 26 -107 26t-116 -24q-76 -43 -76 -125z" />
    <glyph glyph-name="uni021A" unicode="&#x21a;" horiz-adv-x="1142" 
d="M614 -205q0 -100 -72 -188t-171 -142q-20 27 -47 64q145 94 145 184q0 55 -80 78q2 61 39 99t81 38q45 0 75 -38t30 -95zM1055 1329q60 0 106 2t64 2q-20 -180 -43 -338q-27 -4 -101 -8l4 197q0 20 -8 28t-35 11q-106 6 -276 6l-197 -1127l199 -6q-2 -12 -18 -96l-261 2
q-43 0 -130 -1t-128 -1q8 59 19 96l162 6q8 0 8 9l188 1118q-190 0 -278 -6q-45 -4 -58 -39l-61 -197q-55 0 -100 6q49 246 69 338l191 -2h684z" />
    <glyph glyph-name="uni021B" unicode="&#x21b;" horiz-adv-x="706" 
d="M350 -238q0 -92 -66 -173t-157 -128q-18 20 -43 58q133 86 133 168q0 51 -72 71q2 55 35 90t73 35q41 0 69 -35t28 -86zM260 174q0 -82 92 -82t236 41q4 -27 8 -88q-172 -63 -313 -63q-47 0 -109 42t-63 120q0 77 59 332t63 276h-159q2 10 7 41t11 51q94 8 152 10
q14 0 16 14q12 51 51 191q76 35 133 35q6 0 7 -9q-25 -102 -52 -231q209 0 310 2q-6 -47 -21 -104h-311q-25 -94 -55 -244q-62 -277 -62 -334z" />
    <glyph glyph-name="circumflex" unicode="&#x2c6;" horiz-adv-x="937" 
d="M618 1266l162 -244q-25 -23 -63 -49q-99 117 -152 176q-71 -61 -213 -178q-20 16 -53 55l242 240h77z" />
    <glyph glyph-name="caron" unicode="&#x2c7;" horiz-adv-x="937" 
d="M541 1106q45 35 135 111l88 75q31 -20 55 -53q-166 -166 -254 -248q-37 -4 -80 0q-40 69 -163 260q25 20 63 43q25 -28 156 -188z" />
    <glyph glyph-name="uni02C9" unicode="&#x2c9;" horiz-adv-x="937" 
d="M762 1135q-6 -53 -19 -99q-59 0 -201 1t-210 1q4 35 16 92q279 5 414 5z" />
    <glyph glyph-name="breve" unicode="&#x2d8;" horiz-adv-x="937" 
d="M540 997q-92 1 -145 59t-61 136q51 20 80 25q35 -117 138 -117t157 110q53 -8 82 -18q-25 -78 -92 -136t-159 -59z" />
    <glyph glyph-name="dotaccent" unicode="&#x2d9;" horiz-adv-x="937" 
d="M545 1217q43 0 65 -26t23 -64q0 -39 -28 -69q-29 -30 -69 -30t-66 26t-26 64t29 69q29 30 72 30z" />
    <glyph glyph-name="ring" unicode="&#x2da;" horiz-adv-x="937" 
d="M565 1264q-41 0 -73 -31t-31 -75q-1 -44 25 -70t65 -25q39 0 71 31t31 86q0 84 -88 84zM574 1333q82 0 128 -42q46 -43 48 -115q0 -72 -62 -127t-142 -55q-79 0 -130 41q-51 42 -51 117t63 128q64 53 146 53z" />
    <glyph glyph-name="ogonek" unicode="&#x2db;" horiz-adv-x="937" 
d="M342 -190q0 106 162 241h76q-115 -115 -115 -215q1 -39 25 -59q50 -41 147 -4q8 -37 10 -68q-78 -37 -141 -37t-114 38q-50 38 -50 104z" />
    <glyph glyph-name="tilde" unicode="&#x2dc;" horiz-adv-x="937" 
d="M686 1112q51 0 74 107h74q-12 -93 -56 -153t-108 -60q-39 0 -115 57q-70 57 -96 57q-49 0 -80 -100h-76q17 92 65 148t98 56t91 -32t45 -35q57 -45 84 -45z" />
    <glyph glyph-name="hungarumlaut" unicode="&#x2dd;" horiz-adv-x="937" 
d="M569 1042l269 252q43 -43 71 -86q-66 -51 -284 -227zM651 1217q-45 -34 -286 -224q-18 18 -56 60q143 133 266 250q37 -31 76 -86z" />
    <glyph glyph-name="pi" unicode="&#x3c0;" horiz-adv-x="1116" 
d="M399 977h727l-28 -119h-142l-102 -563q-37 -201 -25 -295h-139q-25 66 17 281l106 577h-321q-8 -30 -24 -100t-28 -107q-129 -479 -247 -651h-144q135 217 248 647q25 88 51 211q-131 0 -207 -20l-4 90q61 49 262 49z" />
    <glyph glyph-name="uni2010" unicode="&#x2010;" horiz-adv-x="614" 
d="M295 547q168 0 250 4q-4 -31 -19 -113h-467q6 47 17 109h219z" />
    <glyph glyph-name="figuredash" unicode="&#x2012;" horiz-adv-x="1048" 
d="M541 662q311 0 467 4q-4 -31 -19 -107h-917q6 45 16 103h453z" />
    <glyph glyph-name="endash" unicode="&#x2013;" horiz-adv-x="1024" 
d="M506 565q174 0 448 4q-12 -76 -20 -112h-875q8 72 17 108h430z" />
    <glyph glyph-name="emdash" unicode="&#x2014;" horiz-adv-x="2048" 
d="M1960 457h-1901q6 47 17 108q604 0 1073 2t829 2q-10 -72 -18 -112z" />
    <glyph glyph-name="quoteleft" unicode="&#x2018;" horiz-adv-x="370" 
d="M276 975q-42 0 -74 40t-32 93q0 100 71 191t173 143q25 -29 49 -66q-145 -92 -146 -184q0 -57 78 -78q-2 -61 -39 -100t-80 -39z" />
    <glyph glyph-name="quoteright" unicode="&#x2019;" horiz-adv-x="370" 
d="M412 1294q0 -98 -70 -186t-172 -143q-43 53 -49 63q143 90 143 184q0 57 -78 76q2 62 38 102t80 40t76 -40t32 -96z" />
    <glyph glyph-name="quotesinglbase" unicode="&#x201a;" horiz-adv-x="458" 
d="M185 193q44 0 76 -39t32 -95q0 -100 -70 -188t-172 -143q-37 47 -49 63q143 94 143 184q0 57 -77 76q2 61 37 102q36 40 80 40z" />
    <glyph glyph-name="quotedblleft" unicode="&#x201c;" horiz-adv-x="679" 
d="M590 985q-43 0 -75 38t-32 91q0 98 69 188t169 140q25 -25 49 -64q-141 -94 -141 -182q0 -55 78 -76q-2 -59 -38 -97t-79 -38zM274 985q-42 0 -74 38t-32 91q0 98 68 185t170 143q25 -25 49 -64q-141 -92 -142 -182q0 -55 78 -76q-2 -59 -38 -97t-79 -38z" />
    <glyph glyph-name="quotedblright" unicode="&#x201d;" horiz-adv-x="679" 
d="M614 1430q43 0 75 -38t32 -92q0 -98 -69 -186t-169 -139q-31 35 -47 61q139 92 139 183q0 53 -77 73q2 62 38 100t78 38zM300 1430q42 0 74 -38t32 -92q0 -98 -69 -186t-169 -139q-33 41 -47 61q139 90 139 183q0 55 -78 73q2 62 39 100t79 38z" />
    <glyph glyph-name="quotedblbase" unicode="&#x201e;" horiz-adv-x="761" 
d="M494 193q42 0 74 -38t32 -92q0 -98 -69 -186t-169 -139q-31 35 -47 61q139 92 140 183q0 53 -78 73q2 61 38 99t79 39zM179 193q42 0 74 -38t32 -92q0 -98 -69 -185t-169 -140q-33 41 -47 61q139 90 139 183q0 55 -78 73q2 61 39 99t79 39z" />
    <glyph glyph-name="dagger" unicode="&#x2020;" horiz-adv-x="907" 
d="M395 883q14 0 19 16q51 254 69 406q70 30 162 30l-88 -452q96 0 317 4q-4 -63 -16 -111h-319q-91 -465 -211 -1063q-45 -6 -115 -6q53 302 182 1069h-295q6 55 17 103q188 4 278 4z" />
    <glyph glyph-name="daggerdbl" unicode="&#x2021;" horiz-adv-x="911" 
d="M322 305q12 0 14 14q12 63 39 225t39 232h-295q4 53 16 103q184 4 279 4q16 0 20 14q47 283 68 406q66 32 160 32v-10q-9 -35 -91 -442q102 0 320 4q-4 -63 -17 -111h-321q-31 -156 -92 -471h321q-2 -45 -14 -102l-328 -2q-53 -274 -96 -486q-14 -2 -36 -3t-46 -3t-31 -2
q10 66 40 235t44 257q-184 0 -299 -2q2 41 19 108h287z" />
    <glyph glyph-name="bullet" unicode="&#x2022;" horiz-adv-x="630" 
d="M510 549q0 -83 -56 -145t-144 -62t-142 56q-53 56 -53 140t58 152q58 66 146 66q87 0 139 -62t52 -145z" />
    <glyph glyph-name="onedotenleader" unicode="&#x2024;" horiz-adv-x="534" 
d="M260 203q53 0 78 -35q24 -35 24 -78t-32 -76q-32 -32 -81 -32q-48 0 -77 30t-29 74q0 45 32 81t85 36z" />
    <glyph glyph-name="twodotenleader" unicode="&#x2025;" horiz-adv-x="1069" 
d="M795 203q53 0 77 -35t25 -78q0 -43 -33 -76q-33 -32 -81 -32q-49 0 -77 30t-28 74q0 45 32 81t85 36zM260 203q53 0 78 -35q24 -35 24 -78t-32 -76q-32 -32 -81 -32q-48 0 -77 30t-29 74q0 45 32 81t85 36z" />
    <glyph glyph-name="ellipsis" unicode="&#x2026;" horiz-adv-x="1603" 
d="M1329 203q53 0 78 -35t25 -78t-33 -76q-33 -32 -81 -32t-77 30t-29 74q0 45 32 81t85 36zM795 203q53 0 77 -35t25 -78q0 -43 -33 -76q-33 -32 -81 -32q-49 0 -77 30t-28 74q0 45 32 81t85 36zM260 203q53 0 78 -35q24 -35 24 -78t-32 -76q-32 -32 -81 -32q-48 0 -77 30
t-29 74q0 45 32 81t85 36z" />
    <glyph glyph-name="perthousand" unicode="&#x2030;" horiz-adv-x="2240" 
d="M1876 571q-132 0 -186 -173q-26 -84 -25 -168q0 -84 38 -128q37 -44 103 -43q116 0 174 167q27 77 27 163t-34 134t-97 48zM1106 59q116 0 174 167q27 77 27 163t-34 134q-35 48 -99 48t-111 -45t-73 -128q-26 -84 -26 -168t39 -128q37 -44 103 -43zM1790 -20
q-112 0 -183 68t-71 198q0 88 39 177t106 148q94 80 210 80t177 -73q66 -70 66 -201q0 -80 -37 -168t-104 -152q-91 -77 -203 -77zM1088 -20q-112 0 -182 68q-71 68 -70 198q0 200 157 336q80 70 197 69q117 0 178 -73q66 -70 66 -201q0 -80 -37 -168t-105 -152
q-92 -77 -204 -77zM384 750q64 0 112 49q92 96 92 277t-131 184q-134 0 -188 -172q-25 -82 -25 -167t38 -128t102 -43zM370 670q-114 0 -177 63q-78 74 -78 207q0 86 40 175q41 89 121 157t201 67q604 0 774 13q25 -35 41 -68q-181 -241 -507 -693q-325 -452 -466 -644
q-10 6 -83 51q198 266 907 1257l-2 9q-158 -2 -488 -2q61 -66 62 -195q0 -190 -142 -319q-89 -78 -203 -78z" />
    <glyph glyph-name="guilsinglleft" unicode="&#x2039;" horiz-adv-x="542" 
d="M483 727l-252 -283q51 -100 162 -286q-43 -35 -74 -54q-141 190 -237 306q0 12 12 79q188 168 330 302q39 -35 59 -64z" />
    <glyph glyph-name="guilsinglright" unicode="&#x203a;" horiz-adv-x="542" 
d="M272 453q-94 168 -161 284q18 16 73 54q150 -203 238 -306q-4 -47 -12 -79q-244 -220 -330 -302q-12 10 -60 64q119 125 252 285z" />
    <glyph glyph-name="fraction" unicode="&#x2044;" horiz-adv-x="258" 
d="M-350 14q475 664 944 1336q47 -23 80 -52q-78 -110 -331 -466t-420 -588t-195 -275q-25 12 -78 45z" />
    <glyph glyph-name="zero.superior" unicode="&#x2070;" 
d="M549 1325q0 152 -94 152q-45 0 -78 -39q-45 -46 -73 -146t-28 -196q0 -156 89 -156q51 0 81 37q45 49 74 146t29 202zM672 1308q0 -108 -42 -218q-85 -223 -282 -224q-84 0 -139 60t-55 168t36 212t106 174q71 68 172 68t153 -65q51 -67 51 -175z" />
    <glyph glyph-name="four.superior" unicode="&#x2074;" 
d="M219 1118h232l57 316h-12q-8 -8 -128 -140t-151 -166q-10 -10 2 -10zM104 1118q249 271 404 426q43 0 117 -4q-33 -213 -70 -422h123q-4 -39 -12 -74h-125q-8 -53 -17 -94l92 -2q-2 -27 -10 -65h-307q2 11 5 33t5 32l111 2q6 0 18 92h-307q-6 16 -27 76z" />
    <glyph glyph-name="five.superior" unicode="&#x2075;" 
d="M316 944q80 0 135 41q53 43 53 103t-40 99q-40 38 -132 38q-37 0 -127 -8l-6 6q66 246 82 311h391q-8 -61 -17 -86h-295q-23 -66 -47 -145q57 4 76 4q106 1 171 -51t65 -152t-87 -168t-239 -68q-100 0 -154 15q0 56 -8 172q49 8 84 10l15 -98q0 -23 80 -23z" />
    <glyph glyph-name="six.superior" unicode="&#x2076;" 
d="M428 1210q-82 0 -143 -71q-19 -105 17 -153t89 -48t95 42t42 108t-26 94q-21 28 -74 28zM469 1294q86 0 131 -52t45 -114q0 -136 -96 -208q-72 -54 -169 -54t-149 49q-69 63 -69 175t38 208q99 250 330 250q72 0 129 -16q0 -100 -2 -156q-51 -8 -84 -10l-10 82
q-2 8 -12 16q-12 6 -47 6q-148 0 -211 -235l4 -2q86 61 172 61z" />
    <glyph glyph-name="seven.superior" unicode="&#x2077;" 
d="M178 1354l47 180h453q10 -29 18 -82q-160 -211 -272 -451q-25 -51 -35 -120q-33 -4 -121 -4q8 66 41 131q103 194 269 436l-3 4q-231 0 -253 -1t-33 -22l-29 -88z" />
    <glyph glyph-name="eight.superior" unicode="&#x2078;" 
d="M248 1038q0 -106 130 -106q64 0 104 34q42 34 42 89t-34 85t-111 56q-57 -25 -94 -67t-37 -91zM330 1383q0 -47 24 -73t84 -50q113 45 113 133q0 39 -23 61q-26 29 -76 29t-81 -25q-41 -27 -41 -75zM641 1074q0 -102 -96 -163q-72 -45 -188 -45t-171 46t-55 112t48 120
q48 52 130 83v4q-90 53 -90 141t90 139q63 37 155 37t145 -42q52 -42 53 -105q-1 -109 -144 -172v-4q123 -49 123 -151z" />
    <glyph glyph-name="nine.superior" unicode="&#x2079;" 
d="M293 1325q0 -117 106 -117q70 0 133 66q20 102 -12 154t-92 51q-59 0 -97 -43t-38 -111zM316 940q66 0 120 47q63 64 94 197l-8 2q-68 -53 -156 -53t-138 48q-52 48 -52 137t75 160q75 70 182 70t165 -63t59 -173q0 -110 -42 -216q-91 -230 -322 -230q-80 0 -133 17
q-8 96 -10 155q23 6 81 11l19 -88q0 -21 66 -21z" />
    <glyph glyph-name="parenleft.superior" unicode="&#x207d;" horiz-adv-x="387" 
d="M168 1090q0 170 101 328t243 227q14 -16 27 -56q-99 -68 -179 -208t-80 -307t111 -294q-18 -23 -47 -47q-176 128 -176 357z" />
    <glyph glyph-name="parenright.superior" unicode="&#x207e;" horiz-adv-x="387" 
d="M383 1290q0 -172 -100 -324t-244 -233q-6 8 -33 58q106 75 185 207t79 307t-112 288q12 16 45 54q180 -130 180 -357z" />
    <glyph glyph-name="n.superior" unicode="&#x207f;" horiz-adv-x="802" 
d="M774 1196q0 -113 -119 -448q-4 -10 7 -11q25 0 108 25q8 -51 10 -70q-106 -37 -209 -37q-8 -1 -22 15t-21 32q126 386 124 448q-1 62 -46 62q-68 0 -169 -90t-120 -157q-30 -115 -75 -295h-115q104 428 131 549l-119 -13q-4 49 -4 72l201 43q8 0 22 -11t21 -22l-39 -155
l10 -5q84 94 168 144t146 51q66 -10 104 -80q6 -25 6 -47z" />
    <glyph glyph-name="zero.inferior" unicode="&#x2080;" 
d="M449 219q0 152 -95 152q-45 0 -78 -39q-44 -46 -72 -146t-28 -196q0 -156 88 -156q101 0 156 183q29 97 29 202zM571 202q0 -108 -42 -217q-85 -223 -273 -225q-92 0 -147 60t-55 168t35 212q37 104 107 174q70 68 172 68t152 -66q51 -66 51 -174z" />
    <glyph glyph-name="one.inferior" unicode="&#x2081;" 
d="M443 446q7 0 3 -6q-61 -348 -104 -585l164 -2q-10 -55 -14 -76h-441q9 55 15 73l157 5q4 0 4 4q63 371 78 446q-84 -14 -170 -35q-8 47 -10 76q67 15 189 58q122 42 129 42z" />
    <glyph glyph-name="two.inferior" unicode="&#x2082;" 
d="M545 260q0 -137 -230 -311q-53 -41 -114 -78l2 -10q297 18 297 10q0 -43 -15 -92h-454q-4 14 -15 57q100 66 205 146q199 158 199 274q0 47 -27 79t-85 32t-91 -25q-4 -2 -6 -12l-33 -109q-51 8 -82 10q4 25 17 85q12 60 18 92q78 37 193 36q221 0 221 -184z" />
    <glyph glyph-name="three.inferior" unicode="&#x2083;" 
d="M244 -164q64 0 107 33q42 33 42 90t-41 87t-110 30h-78q4 53 8 76q106 -4 180 32t74 97q0 35 -26 61t-87 25q-61 0 -94 -21q-8 -8 -8 -12l-29 -90q-59 4 -82 8q14 74 31 156q92 34 207 34t164 -47t49 -103t-46 -100t-132 -61l-2 -12q73 -8 111 -50t38 -102
q0 -94 -82 -150q-82 -57 -214 -57t-183 15q0 54 -8 178q51 8 82 10l18 -102l2 -4q4 -4 6 -7q39 -14 103 -14z" />
    <glyph glyph-name="four.inferior" unicode="&#x2084;" 
d="M408 328h-13q-7 -8 -127 -140t-151 -165q-10 -10 2 -11h231zM4 12q249 271 404 426q43 0 116 -4q-33 -213 -69 -422h123q-4 -39 -13 -73h-125q-6 -47 -16 -93l92 -2q-2 -27 -10 -65h-307q2 11 5 33t5 32l110 2q6 0 19 91h-307q-6 16 -27 75z" />
    <glyph glyph-name="five.inferior" unicode="&#x2085;" 
d="M216 -162q81 0 134 41t53 103q0 138 -172 137q-82 0 -127 -8l-6 6q66 246 82 311h391q-8 -61 -16 -86h-295q-23 -66 -47 -145q57 4 76 4q106 0 171 -51q64 -52 64 -152t-87 -168t-238 -68q-100 0 -154 15q0 56 -8 172q23 4 84 8l14 -96q0 -23 81 -23z" />
    <glyph glyph-name="six.inferior" unicode="&#x2086;" 
d="M328 104q-82 0 -144 -71q-20 -105 17 -153t90 -48t95 42t42 108t-27 94q-20 28 -73 28zM369 188q86 0 131 -52t45 -114q0 -134 -96 -208q-72 -54 -168 -54t-158 56t-62 168t38 208t100 158q96 92 231 92q72 0 129 -16q0 -100 -2 -156q-51 -8 -84 -10l-10 82q-2 8 -12 16
q-12 6 -48 7q-76 0 -118 -52q-61 -69 -92 -184l4 -2q86 61 172 61z" />
    <glyph glyph-name="seven.inferior" unicode="&#x2087;" 
d="M78 248q15 64 47 180h453q10 -29 18 -82q-160 -211 -272 -450q-25 -51 -35 -121q-33 -4 -121 -4q8 66 41 131q102 194 268 436l-2 4q-231 0 -253 -1t-34 -22l-28 -88q-37 11 -82 17z" />
    <glyph glyph-name="eight.inferior" unicode="&#x2088;" 
d="M147 -68q-1 -106 129 -106q64 0 106 34t42 89t-34 85t-111 56q-57 -25 -95 -66q-37 -42 -37 -92zM229 277q0 -47 25 -73t84 -50q113 45 113 133q0 39 -23 61q-25 29 -76 29t-82 -25q-41 -27 -41 -75zM541 -32q0 -102 -97 -163q-72 -45 -188 -45t-171 46q-54 46 -54 113
t48 119t130 83v4q-90 53 -90 141t90 140q63 36 156 36t145 -42t51 -105q0 -109 -143 -172v-4q123 -49 123 -151z" />
    <glyph glyph-name="nine.inferior" unicode="&#x2089;" 
d="M193 219q0 -117 106 -117q70 0 133 66q20 102 -12 154t-91 51q-58 0 -97 -43t-39 -111zM216 -166q66 0 120 47q63 64 94 197l-8 2q-68 -53 -156 -53t-139 48t-51 137t75 160q75 70 182 70t165 -63t59 -173q0 -110 -42 -216q-91 -230 -322 -230q-80 0 -134 17
q-8 96 -10 155q23 6 82 11l19 -88q0 -21 66 -21z" />
    <glyph glyph-name="parenleft.inferior" unicode="&#x208d;" horiz-adv-x="387" 
d="M68 -16q0 170 101 328t243 227q14 -16 26 -56q-100 -68 -179 -208t-79 -307t111 -294q-18 -23 -47 -47q-176 128 -176 357z" />
    <glyph glyph-name="parenright.inferior" unicode="&#x208e;" horiz-adv-x="387" 
d="M283 184q-1 -172 -101 -324t-243 -233q-6 8 -33 58q106 75 185 207t79 308t-113 287q12 16 45 54q181 -130 181 -357z" />
    <glyph glyph-name="colonmonetary" unicode="&#x20a1;" horiz-adv-x="1050" 
d="M246 524q0 -220 123 -297l174 867q-125 -54 -211 -202t-86 -368zM569 170l201 965q-74 4 -135 -15l-189 -927q49 -19 123 -23zM96 528q0 227 128 422t341 258l49 240q55 6 95 4l-50 -225q66 14 129 14l46 209q61 4 92 2l-47 -213q61 -2 123 -18t83 -37q-1 -33 -25 -71
t-50 -54q-23 23 -69 45t-85 22l-203 -954q115 6 277 66q8 -57 8 -97q-188 -68 -307 -75l-47 -220q-27 -2 -84 -2l45 219q-78 4 -125 17l-55 -232q-57 -4 -84 -2l59 258q-112 46 -178 152t-66 272z" />
    <glyph glyph-name="Euro" unicode="&#x20ac;" horiz-adv-x="1048" 
d="M897 1339q164 0 246 -45q-25 -227 -43 -348q-66 -4 -105 -4l6 225q0 20 -8 27q-53 33 -157 33q-180 0 -320 -124t-207 -312h549l-10 -84h-563q-14 -66 -19 -138h559l-10 -84h-549q10 -158 76 -249q43 -60 122 -100q80 -40 194 -40t323 76q6 -47 6 -104q-248 -88 -389 -88
q-203 0 -350 133q-143 133 -148 372h-108l10 84h100q6 80 23 138h-102l10 84h119q88 248 291 398t454 150z" />
    <glyph glyph-name="uni2113" unicode="&#x2113;" horiz-adv-x="911" 
d="M725 1184q0 135 -98 135q-61 0 -115 -73t-80 -212l-88 -465q381 344 381 615zM850 1196q0 -346 -533 -774l-4 -31q-33 -279 162 -278q142 0 277 178l69 -70q-143 -236 -379 -235q-145 0 -214 91t-60 234l2 23q-43 -31 -117 -76l-37 82q133 86 172 119l105 542
q41 219 135 323t202 106q108 0 164 -64t56 -170z" />
    <glyph glyph-name="trademark" unicode="&#x2122;" horiz-adv-x="1265" 
d="M653 1329h195l121 -373h8q100 297 123 373h184v-63l-67 -2v-381l69 -2v-66l-110 2l-93 -2q0 43 2 66l50 2q4 217 4 325h-13q-39 -129 -127 -368h-67q-55 145 -125 377h-12q2 -100 2 -334l51 -2q0 -45 -2 -66l-90 2l-105 -2v66l68 2q2 123 2 381l-68 2v63zM330 1266
q-63 0 -97 -6l-14 -103q-23 0 -67 4q2 63 6 170q76 -2 227 -2l213 2q4 -106 6 -170q-23 0 -67 -4l-15 103q-35 6 -98 6v-383h82q0 -47 -2 -68l-123 2l-125 -2v66l74 2v383z" />
    <glyph glyph-name="Omega" unicode="&#x2126;" horiz-adv-x="1400" 
d="M324 119v6q-78 78 -129 198t-52 257q0 326 196 548t486 224q233 0 373 -152t139 -378t-109 -408t-261 -289v-6h268l-18 -119h-474l19 98q166 94 294 286t128 423q0 174 -96 299t-265 125q-167 1 -289 -101t-180 -247t-59 -306t57 -286t148 -193l-19 -98h-469l23 119h289z
" />
    <glyph glyph-name="estimated" unicode="&#x212e;" horiz-adv-x="1671" 
d="M1354 688v375q0 27 -19 45q-189 195 -461 195t-466 -199q-18 -18 -19 -49v-367q0 -10 10 -10h947q8 0 8 10zM1634 639h-1235q-10 0 -10 -10v-371q0 -25 17 -45q188 -201 476 -201t482 226h111q-103 -123 -263 -195t-340 -72q-315 0 -539 200q-224 201 -224 485t224 486
t539 202t539 -202q223 -202 223 -487v-16z" />
    <glyph glyph-name="onethird" unicode="&#x2153;" horiz-adv-x="1564" 
d="M1284 181q0 56 -41 86t-110 30h-78q4 53 8 76q109 -5 181 31t73 100q0 34 -26 60t-88 26t-93 -23q-8 -4 -8 -10l-29 -92q-25 4 -82 8q12 72 31 158q92 35 207 35t164 -48t49 -104q0 -58 -46 -102t-132 -60l-2 -12q72 -8 110 -50t39 -102q0 -92 -82 -148q-81 -56 -211 -56
t-186 12q0 54 -8 178q51 8 82 10l18 -100q12 -23 94 -24t124 32t42 89zM1307 1298l-949 -1329q-51 25 -77 45q248 338 400 559t546 777q47 -23 80 -52zM537 1339q7 0 -103 -591l166 -3q-8 -53 -16 -75h-439q9 55 15 73l157 5q4 0 5 4q63 371 77 446q-76 -12 -172 -35
q-8 49 -8 76q67 15 189 58q122 42 129 42z" />
    <glyph glyph-name="twothirds" unicode="&#x2154;" horiz-adv-x="1564" 
d="M1296 181q0 56 -41 86t-110 30h-78q4 53 8 76q106 -5 179 31t73 100q1 34 -25 60t-86 26t-96 -23q-6 -6 -8 -10l-27 -92q-25 4 -81 8q12 72 30 158q92 35 206 35t163 -48t49 -104q0 -58 -46 -102t-130 -60l-2 -12q72 -8 110 -50t39 -102q0 -92 -82 -148q-81 -56 -211 -56
t-186 12q0 54 -8 178q51 8 82 10l18 -100q12 -23 94 -24t124 32t42 89zM293 14q220 300 944 1336q47 -23 80 -52l-946 -1329q-41 20 -78 45zM426 1335q221 0 221 -184q0 -137 -229 -311q-53 -41 -115 -78l2 -10q297 18 297 10q0 -41 -14 -92h-455q-4 14 -14 57
q100 66 205 145q199 158 198 275q0 47 -26 79t-85 32q-58 0 -92 -25q-4 -4 -6 -12l-32 -109q-51 8 -82 10q4 25 16 85t18 91q78 37 193 37z" />
    <glyph glyph-name="oneeighth" unicode="&#x215b;" horiz-adv-x="1564" 
d="M1152 49q64 0 106 34t42 89t-33 85q-34 30 -112 56q-57 -25 -94 -67t-37 -91q0 -50 33 -75q31 -31 95 -31zM1104 501q0 -48 24 -73t86 -51q113 45 113 133q1 38 -23 64t-76 26t-83 -25q-41 -26 -41 -74zM1417 194q0 -102 -96 -165q-71 -45 -187 -45t-172 46t-55 112
q0 66 48 118t128 84v4q-90 53 -90 141t90 140q63 37 157 37t146 -42q51 -42 52 -106q-1 -111 -146 -172v-4q125 -46 125 -148zM1309 1298l-947 -1329q-33 16 -77 45q268 373 486 683t460 653q43 -21 78 -52zM543 1339q4 -1 -40 -243t-65 -348l166 -3q-8 -53 -16 -75h-438
q8 55 14 73l158 5q4 0 4 4q47 270 75 446q-76 -12 -170 -35q-8 49 -8 76q67 15 189 58q122 42 131 42z" />
    <glyph glyph-name="threeeighths" unicode="&#x215c;" horiz-adv-x="1564" 
d="M1166 49q64 0 107 34q42 34 42 89t-34 85t-112 56q-57 -25 -94 -67t-37 -91q0 -50 33 -75q31 -31 95 -31zM1120 501q0 -48 25 -74t84 -50q113 45 112 133q1 38 -23 64t-75 26t-82 -25q-41 -26 -41 -74zM1432 192q0 -100 -97 -163q-71 -45 -187 -45t-171 46t-55 112
t48 118t130 84v4q-90 53 -90 141t90 140q63 37 155 37q93 0 145 -42t52 -106q0 -109 -143 -172v-4q123 -50 123 -150zM1335 1298q-860 -1205 -946 -1329q-25 12 -78 45q307 426 488 687t456 649q47 -23 80 -52zM358 729q82 0 124 33t42 89t-42 87t-109 31h-80q4 53 8 75
q106 -4 180 32t74 100q0 32 -26 58t-87 26t-94 -21q-8 -8 -8 -10l-29 -92q-59 4 -82 8q14 74 31 155q92 35 207 35t164 -47t49 -103q0 -57 -46 -101t-132 -62v-10q72 -8 110 -50t39 -102q0 -94 -84 -150q-85 -56 -215 -56t-182 14q0 54 -8 178q51 8 82 10l18 -102l4 -4
q10 -21 92 -21z" />
    <glyph glyph-name="fiveeighths" unicode="&#x215d;" horiz-adv-x="1564" 
d="M1305 172q0 55 -34 85t-112 56q-57 -25 -94 -67t-37 -91q0 -50 33 -75q31 -31 95 -31t101 31q48 37 48 92zM1110 501q0 -48 24 -73t85 -51q113 45 112 133q1 38 -23 64t-75 26t-82 -25q-41 -26 -41 -74zM1421 194q0 -102 -96 -165q-73 -45 -189 -45t-170 46t-54 112
t47 118q48 52 131 84v4q-90 53 -90 141t90 140q63 37 156 37q92 0 144 -42t52 -106q-1 -109 -144 -172v-4q123 -46 123 -148zM301 14l946 1336q43 -21 78 -52q-225 -314 -424 -596t-524 -733q-23 12 -76 45zM343 729q81 0 134 42q53 41 53 103t-40 100t-132 38
q-37 0 -127 -8l-6 6q74 276 82 309h391q-8 -61 -16 -86h-295q-29 -80 -47 -143q57 4 76 4q106 0 170 -52t65 -150q0 -98 -84 -169q-90 -70 -241 -70q-100 0 -154 15q0 58 -8 174q23 4 84 8l14 -98q0 -23 81 -23z" />
    <glyph glyph-name="seveneighths" unicode="&#x215e;" horiz-adv-x="1564" 
d="M1088 49q64 0 107 34q42 34 42 89t-34 85t-111 56q-57 -25 -95 -66q-37 -42 -37 -92t33 -75q31 -31 95 -31zM1042 501q0 -48 24 -73t85 -51q113 45 113 133q0 39 -23 61q-25 29 -76 29t-82 -25q-41 -26 -41 -74zM1354 194q0 -102 -97 -165q-71 -45 -187 -45t-171 46
t-55 112t48 118t130 84v4q-90 53 -90 141t90 140q64 37 156 37t144 -42t52 -106q0 -109 -143 -172v-4q123 -46 123 -148zM223 14q414 576 944 1336q49 -23 78 -52q-74 -104 -296 -419t-421 -591q-198 -277 -227 -319q-33 16 -78 45zM303 1122q-26 9 -84 17q23 84 49 180h453
q14 -57 18 -84q-164 -215 -274 -449q-20 -51 -35 -120q-66 -4 -121 -4q12 78 41 131q116 215 268 436l-2 4q-228 0 -252 -1t-32 -22z" />
    <glyph glyph-name="partialdiff" unicode="&#x2202;" horiz-adv-x="1046" 
d="M543 770q-145 0 -245 -122t-101 -296q0 -118 57 -188t156 -70h2q145 0 253 136t150 337q-27 82 -102 143q-76 60 -170 60zM548 1468q194 0 322 -154t129 -433q-1 -227 -71 -430t-212 -338t-316 -135t-263 106q-88 106 -88 264q1 221 145 380t357 159q102 -1 184 -57
t109 -123h4q16 94 16 182q0 221 -99 340t-251 119t-268 -80l-37 96q145 104 339 104z" />
    <glyph glyph-name="Delta" unicode="&#x2206;" horiz-adv-x="1226" 
d="M938 121l-143 760q-23 115 -50 315h-8q-41 -90 -141 -274l-430 -801h772zM-4 88l694 1253h162l235 -1253l-16 -88h-1089z" />
    <glyph glyph-name="product" unicode="&#x220f;" horiz-adv-x="1153" 
d="M1098 1192l-275 -1370h-143l278 1370h-518l-276 -1370h-141l276 1370h-158l27 129h1112l-27 -129h-155z" />
    <glyph glyph-name="summation" unicode="&#x2211;" horiz-adv-x="915" 
d="M322 1194v-6l342 -617l-564 -614v-6h768l-22 -127h-965l17 92l608 659l-354 644l18 102h874l-22 -127h-700z" />
    <glyph glyph-name="minus" unicode="&#x2212;" horiz-adv-x="1048" 
d="M909 539q0 -43 -4 -113h-815q0 41 4 106q458 7 815 7z" />
    <glyph glyph-name="uni2215" unicode="&#x2215;" horiz-adv-x="886" 
d="M-61 14q475 664 944 1336q47 -23 80 -52q-78 -110 -331 -466t-420 -588t-196 -275q-25 12 -77 45z" />
    <glyph glyph-name="uni2219" unicode="&#x2219;" horiz-adv-x="499" 
d="M260 647q53 0 78 -35q24 -36 24 -78t-32 -75t-81 -33q-48 0 -77 30t-29 74t32 81q32 36 85 36z" />
    <glyph glyph-name="radical" unicode="&#x221a;" horiz-adv-x="1071" 
d="M1296 1675l-755 -1872h-111l-156 875l-149 -62l-25 86l275 113l117 -725q0 -4 8 -58t8 -55q6 17 20 57t21 58l631 1583h116z" />
    <glyph glyph-name="infinity" unicode="&#x221e;" horiz-adv-x="1470" 
d="M356 354q68 0 127 34t90 64t89 89q-8 6 -60 57q-52 52 -73 68q-84 63 -159 62t-129 -56q-55 -55 -55 -133q0 -77 52 -131q50 -54 118 -54zM1100 354q78 0 131 56t53 133q0 78 -51 131t-117 53t-128 -34q-60 -33 -91 -63t-88 -89l58 -58q52 -51 74 -67t69 -39t90 -23z
M1096 248q-73 0 -112 20q-90 47 -136 89q-46 43 -52 47t-31 31l-30 30q-79 -76 -113 -108q-34 -33 -111 -71t-155 -38q-124 0 -204 82t-80 207t87 211t214 86q73 0 147 -41t106 -71t109 -108q174 174 269 203q51 16 110 17q125 0 205 -82t80 -207t-87 -211t-216 -86z" />
    <glyph glyph-name="integral" unicode="&#x222b;" horiz-adv-x="563" 
d="M705 1507q-172 55 -238 -203q-32 -141 -95 -631t-90 -587q-28 -96 -65 -172t-98 -118t-129 -42t-113 23l31 102q47 -10 85 -10t77 35t68 120t49 213q20 127 62 457t64 469q76 463 344 463q47 0 84 -16z" />
    <glyph glyph-name="approxequal" unicode="&#x2248;" horiz-adv-x="1048" 
d="M719 233q-89 0 -197 54q-5 5 -82 35q-47 14 -90 14q-88 0 -178 -90l-61 73q106 119 241 119q81 0 199 -55l35 -14q26 -11 56 -23t77 -12q92 0 178 90l64 -70q-104 -121 -242 -121zM713 526q-76 0 -199 54q-2 0 -30 13t-58 25t-82 13q-92 0 -178 -90l-62 73
q111 119 242 119q75 0 159 -39q28 -12 37 -16q110 -49 184 -49q73 0 163 90l65 -72q-104 -121 -241 -121z" />
    <glyph glyph-name="notequal" unicode="&#x2260;" horiz-adv-x="1050" 
d="M942 385q0 -35 -4 -109q-272 0 -418 -2q-33 -84 -71 -198q-61 23 -103 41q19 56 57 155q-193 0 -280 -2q-4 57 4 115h317q23 63 68 195h-389q0 39 4 108l424 2q55 152 70 197q39 -12 106 -43q-18 -49 -55 -152l270 2q4 -53 -4 -114h-307l-72 -195h383z" />
    <glyph glyph-name="lessequal" unicode="&#x2264;" horiz-adv-x="1048" 
d="M940 109q0 -35 -4 -109q-596 0 -817 -6q0 104 6 115h815zM346 702q72 -61 479 -399q-35 -51 -63 -82q-428 332 -555 430q-2 33 -2 97q125 92 559 413q37 -41 61 -86q-31 -25 -243 -191t-236 -182z" />
    <glyph glyph-name="greaterequal" unicode="&#x2265;" horiz-adv-x="1050" 
d="M123 -4q0 102 6 113q559 0 815 2q0 -37 -4 -111q-653 0 -817 -4zM707 690q-311 258 -480 387q31 51 64 84q381 -287 557 -420q4 -45 0 -96q-461 -348 -557 -420q-31 31 -64 82q15 10 227 179t253 204z" />
    <glyph glyph-name="lozenge" unicode="&#x25ca;" horiz-adv-x="1005" 
d="M647 1217l-10 38h-4q-6 -16 -25 -41l-362 -546l172 -555q2 -7 5 -21t5 -20h2q12 20 27 43l362 547zM958 664l-491 -717h-125l-236 719l494 716h123z" />
    <glyph glyph-name="Euro.fitted" unicode="&#xe000;" horiz-adv-x="1157" 
d="M963 1337q172 0 254 -45q-25 -227 -43 -348q-66 -4 -103 -4l6 225q-4 23 -10 27q-53 33 -168 33q-186 0 -326 -121q-143 -129 -208 -316h567l-10 -83h-582q-14 -70 -18 -140h577l-10 -84h-567q10 -156 75 -248q103 -139 329 -139q120 0 329 76q6 -49 6 -104
q-260 -88 -399 -89q-214 -1 -358 133t-148 371h-109l10 84h101q6 82 22 140h-102l10 83h119q88 248 291 398t465 151z" />
    <glyph glyph-name="Euro.oldstyle" unicode="&#xe001;" horiz-adv-x="1038" 
d="M724 936q-150 0 -263 -94q-119 -94 -166 -248h512l-10 -78h-521q-8 -41 -8 -110h508l-10 -76h-490q12 -86 62 -148q80 -100 248 -100q113 0 297 57q6 -43 6 -94q-197 -66 -332 -65q-203 0 -311 97t-129 253h-117l10 76h103q0 41 12 110h-94l10 78h102q66 205 248 332
q158 111 389 110q141 0 221 -35q-20 -188 -30 -284l-99 -4l2 176q0 47 -150 47z" />
    <glyph glyph-name="cent.fitted" unicode="&#xe005;" horiz-adv-x="917" 
d="M264 541q0 -79 41 -143t127 -76q100 580 115 663q-119 -27 -201 -162t-82 -282zM111 544q0 162 129 334t323 209q25 139 35 203q43 10 102 15q-6 -37 -18 -109t-16 -98q12 2 45 2q115 0 178 -47q-4 -29 -30 -67t-48 -50q-74 53 -168 55q-20 -116 -119 -669q119 8 242 73
q12 -31 20 -82q-141 -78 -278 -92q-6 -37 -18 -107t-19 -106q-27 -4 -96 -8q14 70 37 215q-121 2 -211 84q-90 83 -90 245z" />
    <glyph glyph-name="degree.oldstyle" unicode="&#xe006;" horiz-adv-x="561" 
d="M297 911q47 0 78 36t31 93t-27 90t-76 33t-82 -36t-33 -93t31 -90t78 -33zM518 1046q0 -91 -66 -155t-158 -64q-92 1 -156 55t-64 144t66 156q67 66 165 66q97 0 155 -56q58 -55 58 -146z" />
    <glyph glyph-name="dollar.fitted" unicode="&#xe007;" horiz-adv-x="964" 
d="M715 391q0 70 -40 112t-134 81q-49 -266 -80 -432q96 8 164 57q90 69 90 182zM313 922q0 -62 38 -100t136 -77q12 72 36 206t34 194q-84 0 -147 -43q-97 -67 -97 -180zM854 422q0 -164 -147 -270q-98 -72 -263 -91l-18 -99q-12 -67 -18 -99q-92 -6 -95 -6q12 66 37 200
q-227 -4 -342 72q18 74 82 117q127 -92 279 -94q37 199 82 464q-137 56 -207 120t-70 162t53 170q53 71 119 106q98 57 229 63q12 66 35 201q43 10 103 14q-3 -24 -17 -96t-22 -115q182 0 258 -51q-16 -74 -74 -119q-102 66 -205 74l-78 -432q147 -53 213 -119t66 -172z" />
    <glyph glyph-name="florin.fitted" unicode="&#xe00a;" horiz-adv-x="915" 
d="M918 1341q72 0 116 -24q-2 -27 -26 -70t-50 -57q-63 24 -153 24q-89 0 -147 -59t-90 -140t-66 -267q57 0 179 1t189 1q-8 -55 -22 -99q-254 0 -365 -2q-86 -451 -127 -586q-53 -176 -182 -280t-280 -105q-63 0 -109 17q4 27 27 67t45 58q68 -18 133 -18t134 69
q68 70 106 233t108 545h-217q2 23 18 94q143 4 203 5q10 0 16 14q35 186 76 275t129 167q156 137 355 137z" />
    <glyph glyph-name="florin.oldstyle" unicode="&#xe00b;" horiz-adv-x="839" 
d="M754 1036q66 0 114 -22q-2 -23 -22 -63t-43 -54q-71 25 -141 25t-115 -50q-41 -41 -65 -104t-48 -213q203 0 311 2q-6 -47 -18 -90q-213 0 -307 -2q-49 -344 -91 -482q-42 -139 -150 -225t-238 -86q-61 0 -105 19q4 27 22 63t42 51q48 -20 108 -20t116 56q56 57 80 157
t83 467h-181q6 47 19 88l164 2q10 0 12 12q29 158 58 228q30 70 100 129q129 112 295 112z" />
    <glyph glyph-name="numbersign.oldstyle" unicode="&#xe00c;" horiz-adv-x="1095" 
d="M477 627l-98 -291h242q41 131 94 291h-238zM588 246h-240q-55 -169 -117 -334q-43 -6 -102 -2q68 195 115 336q-37 0 -113 -1t-106 -1q6 47 20 94h231q61 188 73 222q11 34 22 67h-234q8 51 19 90q166 0 247 2q12 33 99 293q63 6 112 4q-63 -172 -104 -297h238
q53 150 100 295q74 4 113 2q-33 -100 -105 -297q39 0 112 1t103 1q-6 -49 -22 -94h-228q-33 -94 -98 -291h233q-6 -45 -18 -90h-246q-74 -207 -117 -334q-35 -2 -102 -2q64 189 115 336z" />
    <glyph glyph-name="bullet.001" unicode="&#xe00d;" horiz-adv-x="2048" 
d="M778 -197l2 340q345 0 482 -4q6 -377 2 -493h-484q-2 68 -2 157zM1845 723q0 -371 -2 -496q-242 -6 -483 0q-6 258 0 498q86 2 268 0t217 -2zM684 723q4 -70 3 -243t1 -249q-193 -10 -487 -6q-6 207 2 496q139 6 481 2zM778 803v493q138 8 482 4q4 -80 5 -260t3 -233
q-102 -4 -490 -4z" />
    <glyph glyph-name="bullet.002" unicode="&#xe00e;" horiz-adv-x="2048" 
d="M719 53l8 21q543 0 606 -2q-123 -334 -264 -625h-65q-111 205 -285 606zM0 436v51q276 145 625 293q4 -170 4 -643q-443 197 -629 299zM2044 504q0 -41 -2 -62q-373 -199 -612 -295q-2 51 -3 639q402 -159 617 -282zM1055 1503q156 -307 274 -614q0 -2 -8 -15
q-233 -8 -602 -4q82 223 280 633h56z" />
    <glyph glyph-name="bullet.003" unicode="&#xe00f;" horiz-adv-x="2048" 
d="M1849 135q0 -238 -8 -491q-174 -2 -487 2q0 340 4 491q284 4 491 -2zM684 139q6 -197 2 -495q-137 -4 -487 2q-10 250 0 489q143 4 485 4zM1266 717q4 -279 4 -492q-254 -6 -494 0q-4 106 2 494q347 0 488 -2zM1847 1298q0 -197 -4 -491q-272 -4 -489 0q-2 174 2 496
q208 3 491 -5zM197 805l-2 491q129 6 489 2q2 -72 3 -242t3 -245q-164 -6 -493 -6z" />
    <glyph glyph-name="bullet.004" unicode="&#xe010;" horiz-adv-x="2048" 
d="M334 125h344q2 -35 2 -354q-229 -4 -346 -2q-4 229 0 356zM1603 -219l-233 2v348q94 4 342 4q4 -115 4 -352q-55 -2 -113 -2zM1202 315q-12 -385 -4 -696q621 -6 682 -6q4 473 0 692q-477 12 -678 10zM1067 463q342 2 946 -2q4 -543 0 -996q-412 -6 -948 3q-8 520 2 995z
M1360 1161q51 2 344 2q4 -94 4 -354q-219 -8 -346 0q-2 55 -2 352zM334 1159q68 4 340 4q4 -98 4 -352q-106 -4 -344 0q-4 182 0 348zM166 1331q-6 -537 2 -694q164 -8 682 6q2 150 -10 692q-70 2 -674 -4zM31 483v998q139 2 944 2q18 -449 2 -996q-180 -4 -946 -4z" />
    <glyph glyph-name="bullet.005" unicode="&#xe011;" horiz-adv-x="1875" 
d="M1034 -326l6 -2q244 6 289 9q0 164 -6 299q-211 0 -297 -5q0 -205 8 -301zM887 117q381 0 579 -2v-570q-251 -6 -575 -2q-4 360 -4 574zM553 971q201 -4 295 2q0 168 -6 303q-70 -2 -299 -8q6 -229 10 -297zM410 836v571q371 4 575 2q2 -93 2 -281v-288q-124 -4 -577 -4z
M1265 408q-668 0 -941 -7q-6 -176 0 -860q-86 -4 -138 -2l-14 10q2 215 2 544v442l14 8q981 0 1368 8q4 621 -2 862q96 4 152 0q-2 -395 -2 -995l-16 -10h-423z" />
    <glyph glyph-name="bullet.006" unicode="&#xe012;" horiz-adv-x="2048" 
d="M1415 72l-10 815q-274 6 -770 6l-2 -503q0 -151 2 -314q414 -10 780 -4zM1554 879v-174h478v-138q-145 -4 -478 -4v-172q328 0 478 -4v-133q-139 -2 -478 -2v-168l478 -4v-135q-147 -2 -484 -2v-480l-137 2l-6 461q-51 -2 -166 -2v-459q-18 -2 -135 -2v463h-166v-463
l-137 2l-2 459h-160q-6 -252 -6 -459h-135q-2 66 -2 241v235q-330 0 -480 2q-2 43 -2 135q258 0 480 6q-2 61 -2 172l-476 -2v133q399 6 476 6v174q-64 2 -234 2h-242q-2 25 -2 138h478v172l-476 2q-2 25 -2 137l482 2v467l135 2q4 -122 4 -457q51 2 168 2v451q43 2 133 2
q6 -332 6 -453h162q4 144 4 453q20 2 44 2l89 -2q4 -102 4 -453l164 -2q0 225 4 455h135v-465q132 -4 484 -4q4 -86 4 -133q-246 -6 -482 -6z" />
    <glyph glyph-name="bullet.007" unicode="&#xe013;" horiz-adv-x="2048" 
d="M1217 -295l10 -16q399 6 567 14q4 133 13 595t16 665l-17 2q-329 -666 -589 -1260zM102 -440v1820l21 13q504 10 731 0q0 -1078 2 -1809l-18 -22q-63 -2 -736 -2zM1946 -442q-137 0 -460 -1t-462 1l-18 28q549 1174 899 1852l37 4q4 -240 4 -1884z" />
    <glyph glyph-name="bullet.008" unicode="&#xe014;" horiz-adv-x="2048" 
d="M1239 1262l-10 -13q236 -563 577 -1255l15 2q-6 424 -29 1259q-111 7 -553 7zM1942 -485h-37q-373 727 -897 1853q8 20 12 29q139 2 463 1t461 -1q4 -1325 -2 -1882zM102 1395q673 0 736 -2l18 -19v-1814q-164 -4 -733 0l-19 14q-2 438 -2 1821z" />
    <glyph glyph-name="bullet.009" unicode="&#xe015;" horiz-adv-x="2048" 
d="M813 -319l8 16q-188 449 -573 1255h-19q5 -208 11 -670t8 -589q172 -8 565 -12zM1192 1393q90 0 366 1t369 -1l17 -13q2 -442 2 -1824h-736l-20 16q2 729 2 1821zM1040 -420l-12 -29q-139 -2 -464 -1t-462 1q-4 1327 2 1885l37 -2q352 -689 899 -1854z" />
    <glyph glyph-name="bullet.010" unicode="&#xe016;" horiz-adv-x="2048" 
d="M821 1241l-8 16q-401 6 -557 0q-10 -254 -20 -1263l16 -4q395 843 569 1251zM1946 1393l-2 -1827l-19 -12q-596 0 -733 4v1816l16 19q90 -2 217 -2zM104 1395h924l14 -29q-584 -1243 -899 -1853l-37 -2q-2 160 -2 1884z" />
    <glyph glyph-name="bullet.011" unicode="&#xe017;" horiz-adv-x="1761" 
d="M901 451l211 -568q126 0 297 6q8 565 8 1143q-612 -4 -1065 -12q-8 -1106 -8 -1135q193 -4 324 -4q203 537 215 570h18zM1157 -264l135 -369l-12 -14q-678 0 -799 2l-12 8q70 195 141 371q-287 0 -411 2v1435q641 6 1362 5q6 -999 4 -1438q-135 -2 -408 -2z" />
    <glyph glyph-name="bullet.012" unicode="&#xe018;" horiz-adv-x="1761" 
d="M870 375l21 -2q215 766 283 1030q-233 10 -592 6l-9 -12q254 -887 297 -1022zM1559 1155q0 -1044 -3 -1407q-782 -4 -1349 -2q0 1229 2 1407q102 2 293 2q-113 342 -125 379l12 12l668 2q172 0 293 -2l6 -14q-26 -111 -103 -377h306z" />
    <glyph glyph-name="bullet.013" unicode="&#xe019;" horiz-adv-x="2048" 
d="M1726 1022l-1054 8q-4 -238 -2 -364q178 -68 524 -211l2 -19q-233 -98 -524 -209q0 -104 4 -338q391 -8 1061 -8q-4 791 -11 1141zM522 1176l977 2q211 0 379 -2q6 -684 4 -1440q-362 -4 -1358 -4q-2 158 -2 448q-145 -59 -340 -133l-14 10q-4 451 2 797l8 10
q92 -37 342 -139q0 305 2 451z" />
    <glyph glyph-name="bullet.014" unicode="&#xe01a;" horiz-adv-x="2048" 
d="M739 465l-2 -21q696 -201 992 -282q4 401 0 590l-11 12q-59 -18 -429 -129t-550 -170zM1518 -246q-1008 0 -1334 4q-8 702 -2 1393l862 2q242 0 472 -2q2 -115 2 -311q289 102 335 118l13 -10q4 -636 0 -962l-15 -6q-125 41 -333 98q2 -4 1 -162t-1 -162z" />
    <glyph glyph-name="bullet.015" unicode="&#xe01b;" horiz-adv-x="2048" 
d="M0 -549v318q135 0 841 -3t1207 5v-320h-2048zM0 115v1384h2048v-1372l-14 2q-72 90 -303 342h-15q-113 -115 -307 -336h-10q-143 201 -330 438h-12q-2 -2 -352 -423l-17 -3q-199 238 -315 361h-21q-111 -125 -338 -393h-14z" />
    <glyph glyph-name="bullet.016" unicode="&#xe01c;" horiz-adv-x="806" 
d="M377 143h39q111 -178 346 -610l-10 -16q-633 0 -705 2q185 372 330 624zM197 471q0 89 59 151t141 62t135 -59q54 -59 54 -147t-51 -150t-137 -62t-143 58q-58 58 -58 147zM424 809h-43q-113 188 -344 610l10 17q596 0 705 -2q-131 -275 -328 -625z" />
    <glyph glyph-name="bullet.017" unicode="&#xe01d;" horiz-adv-x="2048" 
d="M1208 472q0 -87 -49 -142q-49 -56 -133 -56t-135 56t-51 138q0 83 52 144q52 62 131 62t132 -58t53 -144zM694 494l2 -39q-319 -195 -596 -351l-16 11q0 641 2 712q293 -149 608 -333zM1352 446v46q125 76 594 346l16 -11q0 -641 -2 -712q-387 202 -608 331z" />
    <glyph glyph-name="bullet.018" unicode="&#xe01e;" horiz-adv-x="1175" 
d="M182 647l-182 -2v68q328 4 514 2q130 -88 234 -181t231 -229q137 0 197 2v-67q-311 -4 -514 -2q-84 47 -251 192t-229 217z" />
    <glyph glyph-name="bullet.019" unicode="&#xe01f;" horiz-adv-x="1175" 
d="M0 305h197q127 135 230 229t235 181q186 2 514 -2v-66l-183 2q-61 -72 -228 -218t-251 -193q-201 -2 -514 2v65z" />
    <glyph glyph-name="bullet.020" unicode="&#xe020;" horiz-adv-x="2011" 
d="M971 0h-312l-6 10q0 94 30 182t73 136q102 114 259 114t235 -127t87 -313q-51 -2 -366 -2zM1579 0v8q203 113 319 176q15 -41 21 -176l-6 -8h-334zM1014 594q-117 0 -199 -35t-158 -115q-125 -166 -141 -362h-10q-330 238 -377 272l2 6q231 45 416 78l2 4
q-96 276 -141 424l4 11q127 -57 415 -199q76 208 162 428h12q102 -221 187 -430h2q147 78 401 198l6 -8q-90 -305 -129 -430q145 -39 379 -106v-11q-153 -98 -362 -217h-10q-23 211 -150 365q-117 127 -311 127zM1706 774l6 6q57 -70 94 -164t47 -159q-74 20 -221 67
q27 96 74 250zM1470 969l-4 -8q-106 -55 -213 -107q-16 41 -49 122t-47 122q86 -6 175 -45t138 -84zM840 1102l6 -6q-66 -199 -82 -240q-80 37 -238 121q40 43 138 83t176 42zM295 788h6q57 -178 80 -256q-31 -6 -219 -36q8 57 48 150t85 142zM98 190l8 7q244 -152 300 -191
l-3 -6q-49 -2 -159 -1t-156 1q-13 98 10 190z" />
    <glyph glyph-name="bullet.021" unicode="&#xe021;" horiz-adv-x="1814" 
d="M823 281q0 170 -22 950q29 25 86 39t102 6q-4 -115 -10 -498t-2 -514l4 -2q106 113 267 316t235 321q23 2 61 -49t47 -105q-67 -104 -225 -283t-287 -306l2 -4q133 2 357 17t252 28q6 -51 -3 -115t-26 -80q-150 -2 -741 0t-777 4q-31 47 -30 191q123 -31 614 -45l2 4
q-383 365 -547 585q4 45 34 95t63 65q75 -117 269 -338t271 -282h4z" />
    <glyph glyph-name="bullet.022" unicode="&#xe022;" horiz-adv-x="2048" 
d="M514 731l-8 -2q-152 -289 -336 -663l6 -7q213 -4 645 4l4 7q-118 270 -311 661zM1210 891l-6 -6q268 -520 344 -666h11q195 399 311 666l-4 6q-185 10 -656 0zM522 1006h15q250 -557 464 -1053l-6 -8q-567 -6 -999 0q-6 4 -10 10q260 535 536 1051zM1022 993l10 11
q494 8 1006 4l6 -9q-178 -418 -473 -1052h-15q-354 657 -534 1046z" />
    <glyph glyph-name="bullet.023" unicode="&#xe023;" horiz-adv-x="2048" 
d="M1001 -68l-10 -18q-254 -4 -964 2l-13 21q254 459 494 835h16q221 -371 477 -840zM1559 174l-17 -2q-217 344 -500 844l11 18q86 2 972 2l9 -20q-295 -545 -475 -842z" />
    <glyph glyph-name="bullet.024" unicode="&#xe024;" horiz-adv-x="1376" 
d="M627 -53l-6 -23q-84 -2 -598 -2l-7 23q131 207 287 438l23 2q123 -176 301 -438zM1040 555h-22q-190 283 -291 436l4 23q389 4 598 2l8 -23q-117 -178 -297 -438zM1376 383q-250 -347 -350 -481l-25 2q-305 422 -677 899q-217 -281 -324 -420v203q256 350 317 438h25
q483 -647 674 -893h18q39 51 342 455v-203z" />
    <glyph glyph-name="bullet.025" unicode="&#xe025;" horiz-adv-x="2048" 
d="M1257 348l3 4q-78 221 -146 383h-6q-180 -233 -248 -323l2 -6q157 -27 395 -58zM1380 248l-6 -6q-324 45 -657 102l-4 10q227 315 438 574l6 2q106 -307 223 -682zM1444 61l10 5q121 260 301 677l-4 15q-545 254 -1124 506l-9 -9q-2 -203 5 -1181q801 -13 821 -13z
M1522 -49l-13 -10q-669 0 -1005 4l-12 6q-2 500 2 1517l12 5q1030 -477 1421 -670l2 -17q-245 -513 -407 -835z" />
    <glyph glyph-name="bullet.026" unicode="&#xe026;" horiz-adv-x="2048" 
d="M750 573l325 -262l6 2q27 197 43 426l-4 2q-126 -52 -370 -161v-7zM557 616l-2 7q434 158 670 237l6 -6q-39 -369 -88 -688l-8 -4q-216 153 -578 454zM1427 74q0 38 11 819l-4 10q-305 145 -676 301l-15 -4q-175 -377 -505 -1122l8 -8q203 -2 1181 4zM33 -55l-4 12
q549 1176 669 1419l17 2q408 -190 833 -405l11 -12q0 -726 -5 -1006l-6 -12q-497 -2 -1515 2z" />
    <glyph glyph-name="bullet.027" unicode="&#xe027;" horiz-adv-x="2048" 
d="M924 217l4 -2q238 92 366 154v6q-190 162 -321 264l-6 -2q-16 -121 -43 -420zM821 96l-6 6q47 385 90 682l10 4q268 -190 572 -454l2 -6q-258 -99 -668 -232zM621 877q0 -36 -11 -822l4 -10q289 -133 676 -301l15 4q195 418 505 1124l-8 9q-203 2 -1181 -4zM500 -23
l-11 13q0 727 5 1005l6 13q500 2 1515 -2l4 -13q-559 -1198 -669 -1421l-17 -2q-436 206 -833 407z" />
    <glyph glyph-name="bullet.028" unicode="&#xe028;" horiz-adv-x="2048" 
d="M784 600l-2 -4q94 -285 136 -393h6q168 209 266 334l-2 6q-158 26 -404 57zM664 700l6 7q186 -23 663 -101l4 -12q-88 -125 -448 -578l-6 -2q-156 467 -219 686zM1425 877q-106 0 -821 10l-10 -4q-127 -272 -301 -678l4 -15q418 -195 1124 -505l9 8q2 205 -5 1184z
M526 999l13 11q669 0 1005 -4l12 -9q2 -498 -2 -1517l-12 -4q-997 463 -1421 669l-2 17q214 456 407 837z" />
    <glyph glyph-name="bullet.029" unicode="&#xe029;" horiz-adv-x="2048" 
d="M1456 635q141 176 201 246q63 -55 203 -187q-147 -188 -203 -256q-140 136 -201 197zM477 1470q414 -324 504 -393v-26q-125 -143 -397 -478l2 -24q352 -338 665 -623h-202q-91 86 -283 259t-289 264q-4 109 0 215q250 301 305 368l-2 19q-123 104 -303 249q-4 86 0 170z
M1587 1161l-2 -26q-384 -461 -436 -531q240 -244 516 -493h18q78 98 221 284q142 186 144 191v-203q-340 -461 -350 -475l-31 2q-225 219 -715 678q303 358 447 540q-93 72 -271 207t-215 164h203q207 -150 471 -338z" />
    <glyph glyph-name="bullet.030" unicode="&#xe02a;" horiz-adv-x="2048" 
d="M594 635q-30 -31 -98 -97t-103 -100q-55 68 -203 256q170 160 201 187q64 -74 203 -246zM1462 549l2 24q-244 303 -397 478l2 26q160 121 502 396q4 -84 0 -170q-129 -106 -303 -252v-19q109 -137 303 -368q4 -106 0 -215q-95 -89 -287 -263t-285 -260q-98 -2 -200 0
q331 301 663 623zM463 1161q299 225 450 338h205q-268 -209 -467 -371q117 -150 445 -540q-506 -478 -715 -678l-31 -2q-258 352 -350 475v203l367 -475h18q283 256 514 493q-336 414 -436 531v26z" />
    <glyph glyph-name="bullet.031" unicode="&#xe02b;" horiz-adv-x="2048" 
d="M1657 70l-203 245q33 33 201 197q152 -186 203 -256q-137 -129 -201 -186zM586 399l-2 -24q262 -324 397 -475l-2 -27q-127 -94 -502 -395q-4 84 0 170q129 106 303 252v18q-109 137 -303 369q-4 109 0 215l572 522q102 2 200 0q-268 -240 -663 -625zM1149 346l436 -530
v-27q-453 -326 -469 -338h-205q360 272 486 371q-184 236 -445 538q92 88 336 318t379 362l31 2q257 -336 350 -456v-203q-291 367 -367 459h-18q-264 -240 -514 -496z" />
    <glyph glyph-name="bullet.032" unicode="&#xe02c;" horiz-adv-x="2048" 
d="M592 315q-131 -164 -201 -245q-59 53 -203 188q68 86 203 254q88 -80 201 -197zM1464 377l-2 24q-358 352 -665 625q2 0 101 1t101 -1q126 -117 318 -291q191 -173 254 -231q4 -106 0 -217q-205 -242 -305 -367l2 -18q57 -50 166 -140t137 -114q4 -86 0 -170
q-379 303 -504 397v27q88 100 397 475zM0 588l350 456l31 -2q143 -139 400 -382t315 -298q-260 -307 -447 -540q119 -95 467 -371h-203q-96 76 -261 198t-191 142l2 27q92 108 239 288t197 240q-250 258 -516 498h-18q-90 -111 -365 -461v205z" />
    <glyph glyph-name="bullet.033" unicode="&#xe02d;" horiz-adv-x="2048" 
d="M1130 956l-14 5q-297 -324 -520 -611l4 -12q326 -98 721 -188l10 10q-66 298 -201 796zM1389 -84l-622 -4q-155 0 -302 4q-8 1049 2 1524l20 8q732 -367 1334 -725l2 -31q-123 -240 -434 -776z" />
    <glyph glyph-name="bullet.034" unicode="&#xe02e;" horiz-adv-x="2048" 
d="M528 612l-2 -14q252 -256 578 -547l14 4q98 348 191 758l-11 10q-395 -98 -770 -211zM1585 840l4 -621q0 -154 -4 -301q-1049 -8 -1526 2l-8 21q418 811 727 1331l29 2q301 -154 778 -434z" />
    <glyph glyph-name="bullet.035" unicode="&#xe02f;" horiz-adv-x="2048" 
d="M1505 371l4 12q-285 264 -610 520l-14 -4q-66 -311 -127 -754l10 -10q315 91 737 236zM465 111l-4 620q0 154 4 301q983 12 1524 0l8 -20q-395 -781 -725 -1334l-31 -2q-272 141 -776 435z" />
    <glyph glyph-name="bullet.036" unicode="&#xe030;" horiz-adv-x="2048" 
d="M887 -20l14 -3q229 223 549 574l-4 14q-287 96 -737 219l-11 -12q68 -315 189 -792zM659 1036l621 4q154 0 301 -4q12 -983 0 -1525l-22 -9q-822 424 -1332 727l-2 31q162 311 434 776z" />
    <glyph glyph-name="sterling.fitted" unicode="&#xe031;" horiz-adv-x="1077" 
d="M778 1239q-100 -1 -171 -65t-97 -216q-8 -43 -23 -280q231 0 365 2q-6 -49 -21 -98h-350q-2 -27 -12 -86q-41 -229 -176 -377q-25 -20 12 -21q385 0 463 13q23 8 45 43l94 200q31 -4 97 -22q-49 -150 -123 -334l-664 2q-41 0 -122 -1t-124 -1l19 98l133 6q23 0 35 13
q121 109 157 338q6 25 15 129h-211l18 90q125 0 189 4q10 0 10 10q14 217 22 260q37 182 159 289t323 106q104 0 180 -32q-8 -133 -23 -291q-70 -8 -106 -10l-4 186q-2 14 -17 29q-35 16 -92 16z" />
    <glyph glyph-name="sterling.oldstyle" unicode="&#xe032;" horiz-adv-x="1017" 
d="M287 524q8 0 8 11q10 168 14 190q27 135 129 224t287 89q102 0 182 -34q-6 -125 -18 -236q-31 -2 -96 -6l-5 145q0 8 -12 21q-30 18 -108 18t-137 -51t-80 -162q-4 -23 -15 -207q203 0 332 2q-8 -51 -18 -88h-318q-4 -16 -8 -57q-29 -162 -131 -274q-14 -16 8 -17
q313 0 410 10q20 6 34 33l72 160q45 -6 92 -23q-35 -109 -96 -272h-813q4 14 8 45t8 45l119 4q18 0 29 10q88 76 117 244q8 61 10 92h-185q15 51 19 82q55 2 162 2z" />
    <glyph glyph-name="yen.fitted" unicode="&#xe033;" horiz-adv-x="1083" 
d="M1044 1296q27 0 81 1t77 1q-8 -66 -16 -92l-99 -8q-266 -391 -423 -604q186 0 276 2q-8 -57 -18 -84h-314l-20 -137q213 0 313 2q-8 -53 -18 -82h-310l-32 -195l190 -6q-8 -53 -18 -94l-250 2l-250 -2q0 6 18 94l160 4q12 2 19 13l28 184h-311q10 66 14 78q102 2 312 2
l20 137h-315q6 37 16 78q92 2 283 2q-119 322 -215 598q-6 10 -15 10l-102 4q7 55 18 94l172 -2q51 0 141 1t128 1q-6 -49 -19 -94l-170 -6l180 -571h11q150 227 358 561q2 8 -6 12l-160 4l19 92h247z" />
    <glyph glyph-name="yen.oldstyle" unicode="&#xe034;" horiz-adv-x="948" 
d="M877 1016q20 0 66 1t67 1q-10 -68 -17 -88l-82 -4q-209 -276 -354 -455h234q-2 -33 -15 -76h-268l-16 -94q178 0 268 2q-10 -59 -15 -76h-266l-22 -133l164 -4q-4 -37 -17 -90l-219 2q-35 0 -107 -1t-110 -1q11 38 18 88l140 4q12 4 12 10l20 125h-266l12 74h267l16 94
h-270l12 74h240q-135 303 -199 449q-2 8 -10 8l-92 2q8 61 14 88h371q-6 -41 -17 -88l-127 -4q66 -174 168 -422h8q166 227 295 413q6 10 -6 11l-119 2q4 16 15 88h207z" />
    <glyph glyph-name="uniF634" unicode="&#xf634;" horiz-adv-x="937" 
d="M543 -207q0 -100 -72 -188t-172 -142q-33 41 -47 64q145 94 145 182q0 57 -80 80q2 61 39 99t81 38t75 -39t31 -94z" />
    <glyph glyph-name="space_uni0326" unicode="&#xf6c3;" horiz-adv-x="937" 
d="M465 -205q0 -92 -66 -173t-157 -128q-27 31 -43 57q133 86 133 168q0 51 -72 72q2 55 35 90t73 35t68 -35t29 -86z" />
    <glyph glyph-name="acute.cap" unicode="&#xf6c9;" horiz-adv-x="937" 
d="M494 1505q214 138 342 221q35 -53 63 -112l-364 -178q-27 39 -41 69z" />
    <glyph glyph-name="caron.cap" unicode="&#xf6ca;" horiz-adv-x="937" 
d="M680 1573q138 77 250 151q20 -20 43 -61q-172 -125 -275 -203q-47 0 -67 2q-70 70 -205 201q33 39 57 59q113 -83 197 -149z" />
    <glyph glyph-name="dieresis.cap" unicode="&#xf6cb;" horiz-adv-x="937" 
d="M844 1649q43 0 62 -25q20 -26 20 -60t-25 -62t-63 -28t-63 24q-23 24 -23 58t24 64q25 29 68 29zM505 1649q42 0 61 -25q20 -26 20 -60t-26 -62t-62 -28t-62 22q-24 22 -24 58t25 65q26 30 68 30z" />
    <glyph glyph-name="grave.cap" unicode="&#xf6ce;" horiz-adv-x="937" 
d="M508 1729q165 -115 336 -226q-14 -32 -43 -67q-192 99 -363 182q39 68 70 111z" />
    <glyph glyph-name="hungarumlaut.cap" unicode="&#xf6cf;" horiz-adv-x="937" 
d="M1116 1645q-41 -21 -336 -181q-27 39 -45 72q222 144 324 207q23 -31 57 -98zM811 1655q-261 -145 -338 -189q-6 8 -45 70q191 127 322 217q35 -43 61 -98z" />
    <glyph glyph-name="macron.cap" unicode="&#xf6d0;" horiz-adv-x="937" 
d="M924 1612q-4 -37 -21 -105q-61 0 -211 1t-219 1q2 8 8 44t11 55q287 4 432 4z" />
    <glyph glyph-name="R_p" unicode="&#xf6dd;" horiz-adv-x="2035" 
d="M1817 662q-1 38 -19 64t-45 26q-86 0 -220 -140t-163 -239q-16 -59 -41 -201q29 -41 75 -66t87 -24q76 0 138 54t100 130q88 183 88 396zM895 975q0 123 -72 189t-198 65q-78 0 -115 -8l-96 -557q8 -4 96 -5q176 1 280 97t105 219zM578 1323q170 0 273 -35t156 -113
q52 -79 52 -171q-1 -135 -97 -240t-235 -148v-10q36 -15 50 -33q15 -18 25 -29t19 -35t17 -38t19 -46t17 -50l20 -59q14 -40 34 -98q40 -112 92 -116l154 -4q14 76 61 310t68 348l-140 -11v89q96 15 159 30l67 17q10 -1 28 -15t29 -28q-51 -229 -55 -252l18 -4
q229 297 412 299q33 -4 71 -36q76 -63 76 -151q0 -252 -121 -463q-53 -102 -142 -176q-89 -73 -201 -73t-195 77q-12 -68 -48 -243t-59 -295q-45 -2 -141 -2q51 246 94 483h-178q-39 -2 -121 -2q-31 49 -94 232t-80 221q-49 115 -180 114q-96 0 -105 -4l-82 -461l166 -6
q-16 -90 -18 -96l-238 2q-39 0 -113 -1t-104 -1q12 70 17 94l131 8q12 0 12 11l188 1108l-141 4q8 61 16 94q177 4 347 4z" />
    <glyph glyph-name="cent.inferior" unicode="&#xf6df;" 
d="M184 51q0 -102 103 -112q11 60 55 327q-61 -10 -110 -73q-48 -64 -48 -142zM72 52q0 98 83 187t201 101q12 78 19 115q49 8 76 8q-14 -88 -21 -121h19q72 0 118 -33q-4 -18 -19 -44t-30 -34q-47 33 -102 35q-18 -111 -60 -332q82 8 150 50q10 -31 16 -62
q-78 -49 -176 -59q-6 -39 -22 -117q-35 -6 -72 -6q8 41 20 123q-90 2 -145 47q-55 44 -55 142z" />
    <glyph glyph-name="cent.superior" unicode="&#xf6e0;" 
d="M285 1159q0 -104 102 -115q32 169 55 328q-61 -8 -109 -72t-48 -141zM172 1158q0 98 83 187t202 103q12 52 18 113q49 8 76 8q-14 -88 -21 -121h19q76 0 119 -33q-4 -18 -20 -44t-30 -34q-53 35 -102 35q-18 -111 -59 -332q82 8 149 50q10 -31 17 -62q-78 -49 -177 -59
q-6 -39 -22 -117q-35 -6 -72 -6q8 41 21 123q-90 2 -146 47q-55 44 -55 142z" />
    <glyph glyph-name="comma.inferior" unicode="&#xf6e1;" horiz-adv-x="329" 
d="M225 -176q0 -84 -61 -158t-148 -119q-8 11 -21 29t-18 25q121 78 121 153q0 49 -69 66q2 51 34 84q33 33 70 33t65 -33t27 -80z" />
    <glyph glyph-name="comma.superior" unicode="&#xf6e2;" horiz-adv-x="329" 
d="M326 930q0 -84 -62 -159t-147 -120q-28 36 -39 54q121 78 121 155q0 45 -70 64q2 51 35 84q34 32 70 32t64 -32t28 -78z" />
    <glyph glyph-name="dollar.inferior" unicode="&#xf6e3;" 
d="M424 -25q0 59 -90 86l-35 -194q57 0 91 32t34 76zM205 250q0 -53 92 -82l31 180q-59 -4 -91 -31t-32 -67zM104 238q0 80 68 128t168 50l18 108q23 4 76 8l-22 -116q92 0 151 -33q-14 -59 -45 -82q-49 41 -119 45l-34 -196q162 -45 161 -158q0 -90 -75 -142
q-66 -49 -164 -53l-21 -106q-23 -2 -69 -2l20 108q-121 0 -190 43q8 57 47 86q75 -57 155 -59l37 211q-162 51 -162 160z" />
    <glyph glyph-name="dollar.superior" unicode="&#xf6e4;" 
d="M434 1167l-35 -194q57 0 95 33q31 31 30 75q0 59 -90 86zM305 1356q0 -53 92 -82l31 180q-59 -4 -91 -31t-32 -67zM205 1343q0 81 67 129t168 50l19 108q23 4 76 8l-23 -116q92 0 152 -33q-14 -59 -46 -82q-49 41 -118 45l-35 -197q162 -45 162 -157q0 -90 -76 -142
q-66 -49 -164 -53l-20 -106q-23 -2 -70 -2l20 108q-121 0 -190 43q8 57 47 86q76 -57 156 -59l37 211q-162 51 -162 159z" />
    <glyph glyph-name="hyphen.inferior" unicode="&#xf6e5;" horiz-adv-x="495" 
d="M383 41h-344q10 70 14 90q228 0 346 4q-4 -39 -16 -94z" />
    <glyph glyph-name="hyphen.superior" unicode="&#xf6e6;" horiz-adv-x="495" 
d="M483 1147h-344q10 70 15 90q226 0 346 4q-4 -39 -17 -94z" />
    <glyph glyph-name="period.inferior" unicode="&#xf6e7;" horiz-adv-x="329" 
d="M121 -61q43 0 62 -27q19 -26 19 -62t-25 -62q-27 -26 -65 -26t-62 24t-24 60t26 64q26 29 69 29z" />
    <glyph glyph-name="period.superior" unicode="&#xf6e8;" horiz-adv-x="329" 
d="M221 1044q82 0 82 -89q1 -35 -25 -61t-65 -26t-63 24t-23 60q-1 36 25 64t69 28z" />
    <glyph glyph-name="b.superior" unicode="&#xf6ea;" horiz-adv-x="763" 
d="M401 739q100 0 172 131q70 133 70 279q0 68 -53 68q-60 1 -162 -101t-125 -174q-4 -10 -17 -60t-16 -59q18 -35 56 -59t75 -25zM768 1176q0 -170 -86 -326q-100 -193 -279 -193q-90 0 -161 72l-35 -74q-18 3 -90 21q18 74 113 466t120 488l-131 -10q-2 27 -6 72
q189 26 229 39q25 0 43 -33q-122 -469 -153 -578l12 -4q162 207 305 207q66 -14 107 -82q12 -25 12 -65z" />
    <glyph glyph-name="d.superior" unicode="&#xf6eb;" horiz-adv-x="768" 
d="M238 815q0 -59 56 -59t159 96q102 96 118 156q12 27 41 168q-50 57 -120 57t-120 -54t-92 -161t-42 -203zM559 659q-6 1 -22 13t-21 22q2 13 37 152l-10 4q-80 -92 -160 -141t-137 -52q-76 8 -117 74q-14 23 -14 62q0 109 46 231t127 210q81 89 180 89t161 -51h10
q14 59 42 184t38 168l-135 -4l-2 72q73 8 148 23t85 15t39 -32q-16 -66 -116 -496t-103 -445q-4 -15 4 -16q29 0 96 23q11 -43 13 -68q-111 -37 -189 -37z" />
    <glyph glyph-name="e.superior" unicode="&#xf6ec;" horiz-adv-x="684" 
d="M483 1243q-118 0 -188 -207q133 0 209 37q61 33 61 82q0 88 -82 88zM514 1323q80 0 126 -49t48 -113q-16 -94 -84 -139q-129 -57 -323 -57q-20 -57 -21 -109q0 -111 102 -111q92 0 242 80l25 -67q-166 -100 -310 -101q-74 -1 -130 47t-56 133t36 185t103 180
q107 121 242 121z" />
    <glyph glyph-name="i.superior" unicode="&#xf6ed;" horiz-adv-x="421" 
d="M213 657q-8 1 -30 17t-27 31q20 91 68 291t55 225l-132 -9l-2 72l220 39q16 0 43 -39q-49 -209 -129 -536q-4 -10 6 -11q27 0 114 25q8 -51 11 -70q-92 -35 -197 -35zM382 1622q38 0 58 -25t20 -57t-25 -56q-25 -26 -59 -26t-59 25t-25 57t26 56q26 26 64 26z" />
    <glyph glyph-name="l.superior" unicode="&#xf6ee;" horiz-adv-x="407" 
d="M180 657q-8 1 -26 15t-27 30q16 68 59 249q42 181 92 399t64 274l-143 -6q-4 49 -4 72q137 14 237 39q18 0 47 -33q-133 -539 -225 -948q-4 -10 4 -11q43 0 133 23q4 -27 8 -72q-106 -31 -219 -31z" />
    <glyph glyph-name="m.superior" unicode="&#xf6ef;" horiz-adv-x="1165" 
d="M631 1171q0 44 -39 46q-60 1 -154 -93t-112 -163q-27 -106 -70 -291h-115q20 84 129 553l-120 -13q-4 45 -5 72q107 17 149 29t46 12q23 0 45 -37q-16 -76 -33 -145l10 -2q156 184 281 184q61 -8 92 -68q8 -15 8 -39t-10 -81l8 -5q147 188 281 189q26 -5 56 -25t46 -53
q8 -25 9 -45q0 -96 -111 -448q-4 -8 6 -9q27 0 105 23l12 -70q-119 -35 -205 -35q-8 -1 -22 15t-21 30q35 100 75 261t40 206t-51 45t-145 -94t-114 -164l-71 -286h-113q80 332 96 402t17 99z" />
    <glyph glyph-name="r.superior" unicode="&#xf6f1;" horiz-adv-x="585" 
d="M582 1321q49 0 80 -23q0 -30 -18 -70t-36 -50q-37 14 -63 14q-47 0 -133 -99t-111 -192q-43 -184 -53 -231q-39 -2 -115 -2q14 63 125 555l-119 -13q0 48 -4 72l199 39q6 0 21 -14t18 -23q-14 -72 -41 -178l8 -4q152 219 242 219z" />
    <glyph glyph-name="s.superior" unicode="&#xf6f2;" horiz-adv-x="618" 
d="M526 1208q0 37 -89 37q-52 0 -79 -16q-55 -31 -55 -82t48 -77q17 -9 79 -37q62 -27 102 -67t39 -104q0 -113 -106 -170q-67 -37 -179 -37t-169 27l12 190q23 4 74 5l10 -109q0 -12 10 -16q29 -20 89 -20t102 26q42 27 41 74q0 48 -27 70q-26 22 -96 52t-108 67
q-38 36 -38 97q0 62 34 106q76 100 253 99q92 0 150 -33q-4 -66 -17 -176q-41 -4 -74 -4z" />
    <glyph glyph-name="t.superior" unicode="&#xf6f3;" horiz-adv-x="577" 
d="M404 1479q26 0 26 -4q-8 -35 -37 -170q41 0 123 1t121 1q-4 -35 -16 -84h-246q-23 -85 -55 -235t-31 -183q1 -59 69 -59t174 30q7 -49 7 -71q-131 -47 -242 -48q-37 0 -76 26t-51 69l-6 28q0 12 46 226t48 217h-121q8 52 15 75l110 7q12 1 16 17q13 53 35 130
q65 27 91 27z" />
    <glyph glyph-name="breve.sc" unicode="&#xf6f4;" horiz-adv-x="937" 
d="M592 1133q-92 0 -146 59q-53 59 -61 137q35 12 80 25q35 -119 138 -119t157 111q31 -2 82 -17q-26 -80 -92 -138t-158 -58z" />
    <glyph glyph-name="caron.sc" unicode="&#xf6f5;" horiz-adv-x="937" 
d="M360 1448q88 -103 152 -184q6 4 219 182q27 -20 55 -53q-229 -229 -247 -246h-80l-164 258q18 14 65 43z" />
    <glyph glyph-name="circumflex.sc" unicode="&#xf6f6;" horiz-adv-x="937" 
d="M391 1114l-53 55l242 242h77q29 -37 87 -128t75 -116q-25 -23 -63 -49q-99 117 -152 176q-99 -79 -213 -180z" />
    <glyph glyph-name="dotaccent.sc" unicode="&#xf6f7;" horiz-adv-x="937" 
d="M577 1341q43 -1 65 -25t22 -63t-27 -69t-69 -31q-42 0 -68 26q-26 27 -25 65q0 38 29 68t73 29z" />
    <glyph glyph-name="hungarumlaut.sc" unicode="&#xf6f8;" horiz-adv-x="937" 
d="M1049 1401q25 -33 55 -101q-166 -84 -336 -174l-43 74q193 119 324 201zM389 1210l322 201q29 -35 59 -102q-219 -111 -338 -170q-6 10 -43 71z" />
    <glyph glyph-name="lslash.sc" unicode="&#xf6f9;" horiz-adv-x="925" 
d="M466 88q132 0 166 8t48 35l82 166q49 -6 94 -23q-57 -162 -104 -274h-721q4 35 16 88l113 4q8 0 8 6l59 342q-76 -31 -141 -53q-16 41 -25 82q150 55 183 70l65 385l-121 4q6 45 17 88h416q-6 -41 -17 -88l-143 -4q-6 0 -6 -6l-58 -326q207 83 238 96q10 -25 24 -90
q-109 -43 -280 -106l-66 -371q-3 -21 9 -27t144 -6z" />
    <glyph glyph-name="oe.sc" unicode="&#xf6fa;" horiz-adv-x="1667" 
d="M256 424q0 -162 81 -257t226 -95q221 0 344 198q53 301 82 490q-39 82 -121 132t-180 50q-158 0 -258 -90q-174 -149 -174 -428zM1184 88q134 0 190 12q23 6 37 33l70 137q39 -8 86 -26q-57 -164 -86 -244h-611q1 8 21 123q-131 -143 -350 -143t-344 139q-99 113 -99 297
t74 315t178 205q139 100 350 100q106 0 190 -46t126 -113q2 14 20 139h586q-16 -170 -29 -252q-31 0 -88 -4l-2 131q0 25 -48 30q-49 5 -169 5t-127 -4l-61 -357q180 0 266 4q41 0 49 31l19 72q45 4 88 0q-9 -39 -54 -305h-90l8 75q2 18 -6 26t-60 8q-52 1 -235 1l-61 -358
q-4 -19 12 -25t150 -6z" />
    <glyph glyph-name="ogonek.sc" unicode="&#xf6fb;" horiz-adv-x="937" 
d="M578 -332q-64 0 -114 38t-50 101q-1 109 161 244h76q-115 -115 -114 -215q1 -39 25 -59q50 -41 147 -4q8 -37 10 -68q-77 -37 -141 -37z" />
    <glyph glyph-name="ring.sc" unicode="&#xf6fc;" horiz-adv-x="937" 
d="M692 1316q0 89 -91 89q-40 0 -74 -30q-33 -30 -33 -73q0 -44 26 -68t67 -24t73 30t32 76zM393 1296q-1 74 65 128t150 53q84 0 134 -42t50 -114t-65 -127q-66 -55 -146 -55t-134 42q-54 41 -54 115z" />
    <glyph glyph-name="scaron.sc" unicode="&#xf6fd;" horiz-adv-x="860" 
d="M852 1415l-250 -246h-80q-102 164 -162 258q47 33 66 43q121 -147 152 -184q10 8 219 182q27 -20 55 -53zM536 940q-102 0 -159 -41q-74 -57 -74 -134t44 -111q44 -36 164 -90t173 -114t53 -147q-1 -147 -113 -235t-294 -88t-289 49q12 164 20 256q49 6 97 6l6 -162
q0 -14 10 -20q51 -33 170 -33q120 0 186 54t66 144q0 50 -31 90t-65 59t-132 65t-152 106t-54 136q0 77 38 138q106 170 371 168q141 0 232 -43q-4 -61 -23 -243l-94 -5l-6 144q0 16 -8 20q-34 31 -136 31z" />
    <glyph glyph-name="tilde.sc" unicode="&#xf6fe;" horiz-adv-x="937" 
d="M726 1143q-54 0 -124 57t-96 57q-49 0 -80 -102h-76q16 93 64 149t95 56t69 -16q65 -48 96 -72q30 -26 59 -25q51 0 74 109h74q-12 -92 -56 -152q-45 -60 -99 -61z" />
    <glyph glyph-name="zcaron.sc" unicode="&#xf6ff;" horiz-adv-x="968" 
d="M604 1284l219 182q31 -25 56 -51q-168 -168 -250 -246q-37 -4 -80 0q-111 176 -164 256q45 33 66 45q14 -16 153 -186zM227 1018l164 -2h537q14 -45 24 -105q-461 -504 -768 -811l4 -4q422 0 472 10t63 46l70 163q39 -8 96 -22q-41 -129 -101 -295l-481 2h-280
q-23 74 -25 82q334 340 772 829l-2 9q-377 2 -414 -4t-51 -37l-63 -168l-99 18z" />
    <glyph glyph-name="exclam.sc" unicode="&#xf721;" horiz-adv-x="522" 
d="M190 184q47 0 72 -32t25 -71q0 -40 -32 -70q-32 -29 -77 -29t-73 26q-27 26 -27 67t32 75t80 34zM440 1036q4 0 4 -4q-145 -595 -180 -735q-18 -4 -104 -10q18 117 34 252t35 273q18 138 25 200q73 24 186 24z" />
    <glyph glyph-name="dollar.oldstyle" unicode="&#xf724;" horiz-adv-x="804" 
d="M567 246q0 66 -36 98q-36 33 -111 59q-24 -120 -58 -323q96 8 151 54q54 46 54 112zM225 680q0 -60 35 -88q35 -29 111 -53q31 160 53 290q-82 -1 -140 -45t-59 -104zM102 663q0 97 92 173t244 82q27 137 31 163q27 6 88 11q-16 -84 -31 -172q156 -4 228 -52
q-12 -63 -64 -102q-86 59 -182 65q-31 -166 -57 -317q125 -37 183 -91t58 -157q0 -102 -96 -182t-250 -88q-4 -18 -14 -74t-17 -88q-53 -4 -82 -4q23 121 29 162q-201 8 -282 63q20 76 65 107q100 -76 236 -82q39 233 59 342q-122 45 -180 94t-58 147z" />
    <glyph glyph-name="ampersand.sc" unicode="&#xf726;" horiz-adv-x="1198" 
d="M418 74q178 0 303 114q-164 217 -315 320q-213 -82 -213 -248q-1 -92 61 -139t164 -47zM668 811q0 61 -38 98t-112 37t-125 -44t-51 -108t30 -104q30 -39 97 -88q199 70 199 209zM43 226q0 112 77 200t212 137l2 6q-131 91 -131 203t95 186q96 74 234 72q138 0 203 -60
t66 -149q0 -174 -252 -268l2 -6q154 -119 268 -279q82 94 101 217q2 16 -11 17l-96 4q8 57 14 82h330q-8 -59 -14 -82l-92 -4q-45 -188 -174 -305q53 -72 63 -84q20 -29 57 -29l125 -2q-8 -57 -16 -82q-205 -10 -238 -10q-6 6 -92 127q-86 -68 -171 -103q-85 -36 -233 -34
t-239 68q-90 66 -90 178z" />
    <glyph glyph-name="zero.oldstyle" unicode="&#xf730;" horiz-adv-x="1079" 
d="M221 395q0 -141 76 -224t207 -83q130 0 232 102t102 274q0 171 -76 249t-202 78t-214 -82q-125 -113 -125 -314zM494 -20q-194 0 -301 108q-115 119 -115 305q0 104 44 212t138 186q132 109 316 109t294 -108q110 -106 111 -296q0 -229 -156 -383q-137 -133 -331 -133z
" />
    <glyph glyph-name="one.oldstyle" unicode="&#xf731;" horiz-adv-x="825" 
d="M692 0l-327 2q-57 0 -172 -1t-170 -1q2 14 8 45t8 47l262 6q6 0 10 8q29 156 109 617l-283 -72q-6 27 -14 84l471 174q6 0 4 -8q-39 -229 -145 -803l258 -6q-8 -55 -19 -92z" />
    <glyph glyph-name="two.oldstyle" unicode="&#xf732;" horiz-adv-x="897" 
d="M635 616q0 82 -49 126t-129 44q-158 0 -289 -151q-31 27 -66 72q168 193 394 192q141 0 219 -78q74 -68 73 -182q0 -290 -573 -518l2 -17q200 7 563 7q-6 -55 -22 -111h-733q-16 63 -21 104q192 92 338 177q292 171 293 335z" />
    <glyph glyph-name="three.oldstyle" unicode="&#xf733;" horiz-adv-x="858" 
d="M446 899q137 0 213 -73q76 -74 76 -186t-73 -193q-74 -80 -203 -121v-15q113 -12 175 -87t62 -175q0 -178 -142 -292t-382 -113q-182 0 -283 55q20 51 41 92q90 -45 247 -45t260 76t103 194t-75 180q-76 60 -209 60l-86 -2l-2 96q194 2 306 76t112 195q0 71 -46 119
t-141 48q-156 0 -274 -139q-41 41 -62 68q152 182 383 182z" />
    <glyph glyph-name="four.oldstyle" unicode="&#xf734;" horiz-adv-x="1013" 
d="M154 115l432 -2l121 630l-13 2q-57 -66 -263 -296t-281 -318q-12 -16 4 -16zM35 6l-39 115q342 375 406 447t311 331q57 0 159 -4q-30 -156 -82 -451t-61 -333h211q-4 -37 -20 -101h-209q-12 -61 -34 -185t-34 -187q-45 -7 -143 -7q43 227 69 377z" />
    <glyph glyph-name="five.oldstyle" unicode="&#xf735;" horiz-adv-x="854" 
d="M326 455q193 -1 293 -99t100 -250q-1 -190 -143 -326t-408 -136q-145 0 -236 47q20 51 41 92q96 -37 203 -37q188 0 290 97t101 245q0 98 -57 162q-84 90 -266 90q-23 0 -146 -8l-12 14l137 533h582q-6 -43 -27 -115q-144 -4 -465 -4q-18 -61 -51 -170t-41 -139
q41 4 105 4z" />
    <glyph glyph-name="six.oldstyle" unicode="&#xf736;" horiz-adv-x="976" 
d="M729 444q0 234 -188 234q-172 0 -293 -178q-14 -59 -15 -133q0 -152 74 -232q56 -61 154 -61t168 73q100 106 100 297zM590 788q135 0 214 -91t79 -234q0 -95 -37 -197t-111 -172q-119 -114 -283 -114t-259 90q-113 102 -113 288q0 387 289 689q178 182 424 245
q16 -35 30 -90q-207 -61 -336 -201q-141 -141 -221 -356l10 -4q133 147 314 147z" />
    <glyph glyph-name="seven.oldstyle" unicode="&#xf737;" horiz-adv-x="878" 
d="M88 881l494 -2h231q16 -39 33 -107q-143 -229 -380 -648t-273 -480q-74 25 -113 43q137 238 592 1065l-2 10q-479 0 -604 -6q14 92 22 125z" />
    <glyph glyph-name="eight.oldstyle" unicode="&#xf738;" horiz-adv-x="999" 
d="M745 326q0 108 -63 166t-197 112q-123 -41 -201 -127t-79 -185q0 -99 57 -157q70 -63 196 -63t210 78q77 68 77 176zM780 975q0 84 -49 132t-147 48q-98 -1 -167 -63t-69 -145t46 -137t155 -108q231 94 231 273zM891 352q0 -150 -121 -262t-324 -110q-203 0 -295 85
t-92 205t85 224t241 155l2 10q-180 109 -180 263q0 121 96 211q119 115 291 115t256 -81q70 -74 70 -179t-70 -190t-193 -130l-2 -11q236 -104 236 -305z" />
    <glyph glyph-name="nine.oldstyle" unicode="&#xf739;" horiz-adv-x="976" 
d="M725 548q-1 116 -63 186q-62 71 -166 71t-181 -88q-88 -105 -88 -241t66 -206q51 -51 133 -51q164 0 287 168q12 45 12 161zM389 113q-133 0 -223 85q-90 84 -90 256t128 308t309 137q181 0 271 -106q94 -115 94 -305t-85 -379q-86 -190 -238 -318q-188 -152 -401 -186
q-12 31 -31 92q213 51 340 170q158 137 242 387l-11 6q-141 -147 -305 -147z" />
    <glyph glyph-name="question.sc" unicode="&#xf73f;" horiz-adv-x="903" 
d="M373 174q47 0 71 -30t25 -70q0 -40 -33 -66t-77 -26q-45 0 -71 24t-26 65q0 39 32 71t79 32zM476 1036q170 0 252 -68t81 -174q0 -104 -81 -188t-241 -164q-49 -26 -49 -66t13 -97q-47 -20 -103 -29q-18 30 -34 96t-9 109q182 93 261 163t79 155t-51 125t-129 40
t-135 -31q-14 -6 -21 -22l-43 -142q-39 2 -102 15q31 162 45 221q97 57 267 57z" />
    <glyph glyph-name="grave.sc" unicode="&#xf760;" horiz-adv-x="937" 
d="M360 1419q49 -27 345 -205q-14 -35 -46 -79q-293 141 -366 174q24 42 67 110z" />
    <glyph glyph-name="a.sc" unicode="&#xf761;" horiz-adv-x="1034" 
d="M342 393h340q-88 445 -90 457h-10q-39 -70 -123 -224t-123 -223q-4 -10 6 -10zM979 0l-168 2q-39 0 -113 -1t-108 -1q8 63 14 88l129 4q8 0 4 10q-25 127 -39 199q-2 8 -10 8l-401 -2q-86 -164 -113 -215l145 -4q-2 -33 -14 -88l-229 2q-25 0 -77 -1t-79 -1q2 14 8 44
q7 30 9 44l94 4q8 0 10 8q82 139 269 467t268 463q27 2 104 2q39 -168 122 -547t85 -393l104 -4q-2 -25 -14 -88z" />
    <glyph glyph-name="b.sc" unicode="&#xf762;" horiz-adv-x="997" 
d="M430 84q133 0 222 55t89 160q0 74 -60 129t-212 55q-88 0 -104 -2l-58 -340q-6 -33 21 -45t102 -12zM488 569q94 -1 182 55t88 148q0 162 -221 162q-68 0 -97 -6l-59 -357q13 -2 107 -2zM897 313q0 -137 -126 -225t-333 -88h-424q7 39 17 86l116 4q12 0 13 12l135 822
l-127 4q13 77 16 88l314 2q217 0 301 -45q109 -59 108 -178q1 -86 -67 -155t-168 -97v-11q106 -14 166 -75t59 -144z" />
    <glyph glyph-name="c.sc" unicode="&#xf763;" horiz-adv-x="1005" 
d="M712 936q-150 0 -256 -86t-154 -199t-48 -246t75 -228t242 -95q113 0 297 57q8 -57 9 -94q-201 -66 -334 -65q-203 0 -324 108t-121 291q0 184 77 322t202 225q158 111 389 110q141 0 221 -35q-20 -188 -31 -284l-98 -4l4 176q0 47 -150 47z" />
    <glyph glyph-name="d.sc" unicode="&#xf764;" horiz-adv-x="1169" 
d="M432 84q219 0 336 98q70 58 119 160t49 248t-95 244q-95 97 -311 98q-49 0 -90 -4l-135 -783q-6 -37 19 -49t108 -12zM541 1018q250 0 383 -88q168 -111 168 -342q0 -154 -71 -285t-190 -211q-143 -92 -401 -92h-412q11 72 15 86l112 4q10 0 13 16l135 818l-123 4
q2 10 7 38t11 48q184 4 353 4z" />
    <glyph glyph-name="e.sc" unicode="&#xf765;" horiz-adv-x="948" 
d="M455 88q124 0 196 10q25 6 37 35l70 137q20 -4 86 -24q-33 -102 -84 -246h-744q7 39 17 86l114 6q8 0 11 12l133 820l-125 4q12 53 16 88h719q-12 -117 -31 -250q-28 -4 -86 -4l-2 129q-2 25 -34 29q-63 6 -293 6q-16 0 -19 -6l-59 -355q174 0 264 4q41 0 49 31l21 72h88
q-10 -51 -31 -173t-23 -132q-29 -2 -90 -2l7 77q2 18 -6 26t-59 8q-52 1 -235 1l-61 -358q-2 -19 14 -25t140 -6z" />
    <glyph glyph-name="f.sc" unicode="&#xf766;" horiz-adv-x="927" 
d="M479 926h-41l-67 -385l260 2q41 0 49 30l22 78h91q-9 -73 -21 -133t-21 -112t-14 -70q-29 -2 -92 -2l6 82q2 20 -8 28t-287 7l-61 -357l201 -6q-8 -51 -19 -88l-254 2q-39 0 -107 -1t-98 -1q5 35 17 88l110 4q8 0 11 8l135 824l-121 4q17 83 18 88l201 -2l373 2
q100 0 143 2q-18 -182 -28 -260q-29 -2 -95 -6l-4 139q-2 27 -49 31t-250 4z" />
    <glyph glyph-name="g.sc" unicode="&#xf767;" horiz-adv-x="1124" 
d="M576 -20q-232 0 -356 118t-124 296q0 176 81 318t206 222q166 102 403 102q168 0 250 -51q-20 -176 -32 -268l-99 -6l6 163q0 18 -12 27q-53 41 -168 41q-168 0 -282 -94q-83 -66 -139 -180t-56 -256t76 -230q94 -113 295 -112q57 0 97 11t42 23l43 261l-201 2
q8 62 15 86h442q-10 -68 -14 -86l-88 -2q-8 0 -9 -9l-55 -321q-89 -55 -321 -55z" />
    <glyph glyph-name="h.sc" unicode="&#xf768;" horiz-adv-x="1247" 
d="M389 582h516l60 342l-142 4q13 76 17 88h213q33 0 97 1t93 1q-10 -72 -14 -88l-111 -6q-4 0 -8 -4l-141 -826l127 -4q-10 -66 -17 -90l-198 2q-35 0 -105 -1t-102 -1q8 63 14 88l131 6q8 0 8 8l64 381q0 6 -8 6l-516 -2l-68 -393l150 -4l-15 -90l-215 2q-31 0 -99 -1
t-100 -1q2 14 8 44q5 30 7 44l110 6q10 0 13 8l135 822l-123 6q12 61 18 88l203 -2q35 0 104 1t99 1q-8 -63 -14 -88l-136 -6q-6 0 -6 -6l-55 -328q-2 -8 6 -8z" />
    <glyph glyph-name="i.sc" unicode="&#xf769;" horiz-adv-x="579" 
d="M426 0l-205 2q-33 0 -101 -1t-104 -1q7 45 17 88l117 6q6 0 10 6l135 822l-133 6q6 45 16 88h414q-8 -51 -19 -88l-127 -6q-6 0 -6 -4l-139 -824l143 -4q-8 -51 -18 -90z" />
    <glyph glyph-name="j.sc" unicode="&#xf76a;" horiz-adv-x="854" 
d="M215 -25q-119 0 -211 29q2 43 5 129t5 129q49 6 97 6l12 -157q0 -12 10 -19q35 -23 107 -22q127 0 188 69t86 250q0 2 76 537l-203 4q6 39 16 86h474q-7 -35 -17 -86l-117 -4q-6 0 -6 -6q-31 -189 -78 -519q-33 -221 -116 -307q-115 -119 -328 -119z" />
    <glyph glyph-name="k.sc" unicode="&#xf76b;" horiz-adv-x="1071" 
d="M450 475q-72 0 -90 -2l-63 -379l135 -4q-6 -41 -16 -90l-195 2q-33 0 -101 -1t-97 -1q6 45 16 88l111 6q6 0 6 4l135 824l-119 6q6 45 16 88h385q-10 -68 -16 -88l-113 -4q-6 0 -10 -11l-59 -352q68 0 98 8q86 61 363 344q8 8 -5 9l-100 4q4 37 17 90h362q-6 -41 -16 -88
l-95 -6q-231 -223 -407 -379l-2 -6q80 -49 140 -183t110 -223q20 -37 55 -37l121 -4q-8 -61 -17 -88l-147 -2l-104 -2q-54 82 -140 280t-158 197z" />
    <glyph glyph-name="l.sc" unicode="&#xf76c;" horiz-adv-x="913" 
d="M441 88q120 0 192 10q20 6 35 33l82 166q49 -6 94 -23q-70 -190 -105 -274h-721q5 35 17 88l112 4q8 0 9 6l141 826l-121 4q6 45 17 88h415q-10 -68 -16 -88l-143 -4q-6 0 -7 -6l-141 -797q-4 -21 8 -27t132 -6z" />
    <glyph glyph-name="m.sc" unicode="&#xf76d;" horiz-adv-x="1454" 
d="M379 0l-207 2q-29 0 -85 -1t-83 -1q6 58 14 88l109 6q10 0 12 6q20 131 71 418q50 287 69 404l-117 4q6 41 16 90h305q33 -123 197 -830h8q78 135 258 460t209 370h301q-8 -61 -16 -90l-105 -4q-8 0 -8 -9q-89 -562 -131 -819l119 -6q-12 -76 -15 -88l-196 2
q-34 0 -98 -1t-91 -1q8 61 15 88l123 6q10 0 10 6q38 216 77 449q38 234 52 313h-14q-309 -567 -486 -844h-90q-80 266 -209 848h-12q-23 -143 -72 -428t-59 -344l145 -6q-4 -27 -16 -88z" />
    <glyph glyph-name="n.sc" unicode="&#xf76e;" horiz-adv-x="1214" 
d="M1065 1014q29 0 86 1t84 1q-6 -41 -16 -88l-103 -4q-6 0 -6 -9l-156 -915q-47 -14 -108 -14q-238 393 -463 848h-10q-78 -496 -119 -740l166 -4q-4 -37 -17 -90h-395q9 63 15 88l108 4q10 0 10 8l135 824l-122 4q4 35 16 88l258 -2q258 -481 442 -840l11 2
q47 339 112 748l-159 2q8 61 16 88h215z" />
    <glyph glyph-name="o.sc" unicode="&#xf76f;" horiz-adv-x="1214" 
d="M256 414q0 -156 83 -249t229 -93t253 94q72 63 118 173q46 109 46 265t-80 248q-81 92 -225 92q-255 0 -373 -261q-51 -113 -51 -269zM1143 576q-1 -124 -59 -253q-58 -130 -158 -214q-158 -129 -378 -129t-335 129t-115 308t77 312q178 307 536 307q162 0 278 -88
q74 -56 114 -152t40 -220z" />
    <glyph glyph-name="p.sc" unicode="&#xf770;" horiz-adv-x="958" 
d="M760 737q0 193 -250 193q-56 0 -72 -4l-76 -434q2 -14 94 -14t169 34q135 63 135 225zM506 1018q149 0 235 -31t129 -97t43 -164q-1 -96 -69 -182t-165 -121q-97 -36 -245 -36l-90 2l-49 -295l188 -4q-4 -37 -16 -90h-442q4 14 8 44t8 44l106 4q8 0 9 10l137 822l-115 4
q8 62 15 86q164 4 313 4z" />
    <glyph glyph-name="q.sc" unicode="&#xf771;" horiz-adv-x="1214" 
d="M258 436q0 -180 88 -278q84 -88 232 -88t251 104q154 150 154 418q0 168 -79 260t-222 92t-252 -92q-78 -66 -125 -178t-47 -238zM961 -252q-45 0 -141 49t-240 183h-37q-205 0 -324 124t-119 304q0 182 73 316t183 208q147 104 355 104q152 0 245 -65q185 -129 185 -377
q-1 -143 -61 -272t-158 -209t-197 -109v-8q180 -137 322 -135q66 0 137 22q10 -37 14 -90q-131 -45 -237 -45z" />
    <glyph glyph-name="r.sc" unicode="&#xf772;" horiz-adv-x="1028" 
d="M453 512q141 0 225 72t84 164t-60 138t-154 46t-114 -6l-69 -410q10 -4 88 -4zM915 753q1 -87 -75 -167t-189 -113v-8q45 -18 78 -77t76 -187q25 -63 44 -85t46 -24l90 -2q-8 -57 -16 -88q-86 0 -121 -2h-107q-25 39 -77 178q-53 139 -68 168q-41 82 -150 82l-81 -2h-15
l-57 -334l139 -4q-4 -35 -16 -88h-398q5 35 17 88l106 4q10 0 11 8l137 824l-121 4q4 35 16 88l279 2q199 0 281 -27t127 -89q44 -62 44 -149z" />
    <glyph glyph-name="s.sc" unicode="&#xf773;" horiz-adv-x="860" 
d="M536 940q-102 0 -159 -41q-74 -57 -74 -134t44 -111q44 -36 164 -90t173 -114t53 -147q-1 -147 -113 -235t-294 -88t-289 49q12 164 20 256q49 6 97 6l6 -162q0 -14 10 -20q51 -33 170 -33q120 0 186 54t66 144q0 50 -31 90t-65 59t-132 65t-152 106t-54 136q0 77 38 138
q106 170 371 168q141 0 232 -43q-4 -61 -23 -243l-94 -5l-6 144q0 16 -8 20q-34 31 -136 31z" />
    <glyph glyph-name="t.sc" unicode="&#xf774;" horiz-adv-x="991" 
d="M903 891q0 14 -5 20q-12 15 -251 15l-139 -832l162 -4q-5 -32 -17 -90l-223 2q-34 0 -108 -1t-113 -1q10 68 14 88l133 6q8 0 9 6l137 826q-146 0 -202 -4t-64 -31l-48 -154q-53 0 -98 6q23 121 55 275l166 -2h578q66 2 141 2q-23 -193 -35 -275l-92 -6v154z" />
    <glyph glyph-name="u.sc" unicode="&#xf775;" horiz-adv-x="1130" 
d="M295 284q0 -75 37 -126q61 -80 177 -80q264 0 318 334q37 201 82 503q0 8 -4 9l-141 2q6 41 16 88h203q31 0 91 1t89 1q-8 -63 -14 -88l-107 -4l-86 -502q-39 -229 -161 -342q-113 -100 -296 -100t-267 87t-85 220q0 39 13 125l86 512l-111 4q4 35 17 88l190 -2
q37 0 108 1t105 1q-4 -35 -16 -88l-140 -4q-8 0 -8 -11l-86 -491q-10 -63 -10 -138z" />
    <glyph glyph-name="v.sc" unicode="&#xf776;" horiz-adv-x="1044" 
d="M975 1014q27 0 82 1t80 1q-11 -72 -15 -88l-96 -6q-104 -182 -231 -414q-160 -276 -312 -524l-108 -2q-73 294 -105 462t-92 474q0 6 -6 6l-100 4q6 58 14 88h418q-2 -31 -15 -88l-157 -6q54 -377 135 -770h12q226 401 402 759q4 10 -4 11l-142 4q8 61 15 88h225z" />
    <glyph glyph-name="w.sc" unicode="&#xf777;" horiz-adv-x="1458" 
d="M266 -16q-25 285 -69 936q0 4 -11 4l-98 6q10 68 14 88l181 -2h233q-6 -41 -16 -88l-152 -4q0 -149 25 -742h10q100 189 231 454t168 339q20 2 103 2l102 -799h8q29 68 83 201t98 235t112 301q4 8 -4 9l-147 4q10 66 16 88h229l152 2q-2 -41 -16 -88l-88 -6
q-35 -76 -156 -356t-270 -582q-29 -2 -109 -2q-68 362 -109 757h-10q-184 -379 -399 -755q-29 -2 -111 -2z" />
    <glyph glyph-name="x.sc" unicode="&#xf778;" horiz-adv-x="1040" 
d="M926 1014q27 0 78 1t75 1q-6 -41 -16 -88l-94 -6q-182 -209 -355 -390l-2 -12q223 -420 226 -426l120 -6l-16 -88h-407q6 45 16 88l119 4q6 4 4 10q-135 283 -158 328h-10q-39 -43 -279 -336l131 -6q-6 -41 -16 -88h-389q4 35 16 88l99 6q6 0 12 8q229 246 375 408l2 12
q-139 270 -203 396q-6 6 -8 6l-111 4q6 39 17 86h407q-4 -27 -16 -88l-131 -4q57 -129 145 -314h8q33 37 127 153t121 152q2 8 -4 9l-127 6l7 42q5 30 9 44h228z" />
    <glyph glyph-name="y.sc" unicode="&#xf779;" horiz-adv-x="950" 
d="M246 1016q43 0 120 1t111 1q-4 -35 -16 -88l-135 -6q84 -240 159 -432h11q158 217 295 423q4 8 -5 9l-131 4q6 45 17 88h221q25 0 75 1t72 1q-4 -35 -16 -88l-88 -6q-287 -381 -406 -531l-49 -299l152 -4l-19 -90l-215 2q-33 0 -105 -1t-110 -1q9 61 17 88l127 6
q10 0 10 8l47 291q-176 430 -215 525q-4 8 -10 8l-94 4q6 47 16 86h164z" />
    <glyph glyph-name="z.sc" unicode="&#xf77a;" horiz-adv-x="968" 
d="M227 1018l164 -2h537q14 -45 24 -105q-461 -504 -768 -811l4 -4q422 0 472 10t63 46l70 163q39 -8 96 -22q-41 -129 -101 -295l-481 2h-280q-23 74 -25 82q334 340 772 829l-2 9q-377 2 -414 -4t-51 -37l-63 -168l-99 18z" />
    <glyph glyph-name="exclamdown.sc" unicode="&#xf7a1;" horiz-adv-x="522" 
d="M84 -20q-4 0 74 319q79 319 104 422q51 10 105 10q-18 -117 -34 -245l-34 -272q-18 -144 -27 -210q-77 -24 -188 -24zM336 834q-47 0 -72 32q-24 32 -24 71q0 40 31 70q32 29 77 29t73 -26t28 -67t-33 -75t-80 -34z" />
    <glyph glyph-name="cent.oldstyle" unicode="&#xf7a2;" horiz-adv-x="790" 
d="M209 350q0 -162 151 -176q14 90 48 271q33 181 45 257q-104 -20 -174 -124t-70 -228zM74 356q0 136 113 275q114 139 280 164l16 88q10 55 15 78q37 10 92 14q-12 -66 -31 -174q14 2 43 2q96 0 150 -39q-4 -29 -24 -61t-40 -44q-76 45 -147 46q-45 -252 -92 -529
q92 6 202 57q12 -27 21 -75q-123 -63 -240 -74q-14 -92 -31 -178q-64 -8 -88 -8q10 53 31 180q-118 2 -194 72t-76 206z" />
    <glyph glyph-name="dieresis.sc" unicode="&#xf7a8;" horiz-adv-x="937" 
d="M753 1325q41 0 63 -26q22 -27 22 -59t-25 -60t-65 -29q-40 0 -62 25q-22 26 -22 58t24 62t65 29zM342 1229q0 35 26 65t67 31q41 0 61 -25q20 -24 20 -58t-26 -62t-64 -29t-60 21q-24 22 -24 57z" />
    <glyph glyph-name="macron.sc" unicode="&#xf7af;" horiz-adv-x="937" 
d="M809 1282q-6 -53 -18 -98q-59 0 -201 1t-211 1q6 37 16 92q279 4 414 4z" />
    <glyph glyph-name="acute.sc" unicode="&#xf7b4;" horiz-adv-x="937" 
d="M885 1286l-363 -151l-41 82q98 51 348 186q27 -41 56 -117z" />
    <glyph glyph-name="cedilla.sc" unicode="&#xf7b8;" horiz-adv-x="937" 
d="M365 -436l2 76q158 10 157 100q0 74 -102 74l-12 43l178 168h112l-161 -152q51 -8 82 -42t30 -79q-1 -80 -81 -132t-205 -56z" />
    <glyph glyph-name="questiondown.sc" unicode="&#xf7bf;" horiz-adv-x="903" 
d="M429 -20q-169 0 -251 68t-82 174q0 104 81 189t243 164q49 23 49 64t-12 98q37 18 102 29q17 -30 33 -96t10 -109q-184 -92 -263 -163t-79 -156q0 -84 51 -124t129 -40t135 31q14 6 21 22l43 141q39 -2 102 -14q-31 -162 -45 -221q-98 -57 -267 -57zM535 844
q-47 0 -72 30t-25 68q0 39 33 67q33 27 77 27t70 -24t27 -65q1 -39 -31 -71t-79 -32z" />
    </font>
</defs>
</svg>
