<svg xmlns="http://www.w3.org/2000/svg" viewBox="0 0 384 384"><defs><style>.cls-1{fill:#c4922c;}</style></defs><title>instagram</title><g id="Art"><path id="INSTAGRAM" class="cls-1" d="M404.5,388.53v-162H370.75a108.84,108.84,0,0,1,5,32.78,111,111,0,0,1-16,58.13,116.77,116.77,0,0,1-43.5,42.15,119.87,119.87,0,0,1-60,15.53q-49.28,0-84.23-33.9c-23.33-22.58-35.1-50-35.1-82a106.53,106.53,0,0,1,5-32.77H106.75v162A14.87,14.87,0,0,0,122,403.67H389.2a14.72,14.72,0,0,0,10.72-4.35A14.17,14.17,0,0,0,404.5,388.53Zm-71-133.28q0-31.05-22.65-52.87c-15.08-14.55-33.3-21.9-54.6-21.9s-39.3,7.27-54.37,21.9-22.65,32.17-22.65,52.88,7.58,38.33,22.65,52.88S235.07,330,256.22,330s39.53-7.28,54.6-21.9S333.47,276,333.47,255.25Zm71-90V124a16.78,16.78,0,0,0-5-12.15,16.37,16.37,0,0,0-12.22-5.1h-43.5a16.53,16.53,0,0,0-12.22,5.1,17,17,0,0,0-5,12.15v41.25a16.47,16.47,0,0,0,5,12.23,16.75,16.75,0,0,0,12.22,5h43.5a17.16,17.16,0,0,0,17.25-17.25Zm43.5-52V398.8A49.42,49.42,0,0,1,398.8,448H113.27a47.31,47.31,0,0,1-34.72-14.47A47.25,47.25,0,0,1,64,398.72V113.27A47.31,47.31,0,0,1,78.47,78.55,47.54,47.54,0,0,1,113.27,64H398.8a47.31,47.31,0,0,1,34.72,14.47A47.47,47.47,0,0,1,448,113.27Z" transform="translate(-64 -64)"/></g></svg>