<?xml version="1.0" standalone="no"?>
<!DOCTYPE svg PUBLIC "-//W3C//DTD SVG 1.1//EN" "http://www.w3.org/Graphics/SVG/1.1/DTD/svg11.dtd" >
<svg xmlns="http://www.w3.org/2000/svg">
<metadata>
Created by FontPrep 20130207 at Thu Nov 17 19:10:42 2016
 By Bradley Gorman
Copyright  2005, Joshua Darden &#38; Phil's Fonts, Inc. All rights reserved. Published by Garagefonts USA 301-260-2285 www.garagefonts.com
</metadata>
<defs>
<font id="55b84cccd761d397aa37b937e852348f" horiz-adv-x='1024' >
  <font-face 
    font-family="FreightDispMedium"
    font-weight="400"
    font-stretch="normal"
    units-per-em="2048"
    panose-1="2 0 6 3 8 0 0 2 0 4"
    ascent="1536"
    descent="-512"
    x-height="881"
    cap-height="1280"
    bbox="-168 -555 2005 1769"
    underline-thickness="40"
    underline-position="-299"
    unicode-range="U+0020-FB02"
  />
<missing-glyph horiz-adv-x="1024" 
 />
    <glyph glyph-name=".notdef" horiz-adv-x="1024" 
 />
    <glyph glyph-name=".null" horiz-adv-x="0" 
 />
    <glyph glyph-name=".null" horiz-adv-x="0" 
 />
    <glyph glyph-name="nonmarkingreturn" horiz-adv-x="681" 
 />
    <glyph glyph-name="space" unicode=" " horiz-adv-x="284" 
 />
    <glyph glyph-name="exclam" unicode="!" horiz-adv-x="532" 
d="M268 -31q-53 0 -89 37t-36 84t36 83t89 36t87 -36t34 -83t-34 -84t-87 -37zM266 1311h4q70 0 91 -31q17 -21 12 -72l-90 -833q-1 -8 -13 -8t-14 8l-90 833q-4 41 11 72t89 31z" />
    <glyph glyph-name="quotedbl" unicode="&#x22;" horiz-adv-x="684" 
d="M225 1323h4l136 -55l-330 -443h-29zM559 1323h2l135 -55l-327 -443h-29z" />
    <glyph glyph-name="numbersign" unicode="#" horiz-adv-x="1056" 
d="M-20 387v35h286l113 432h-277v35h287l107 405h41l-109 -405h338l108 405h39l-106 -405h276v-35h-286l-113 -432h277v-35h-287l-105 -397h-39l105 397h-338l-107 -397h-38l104 397h-276zM643 422l115 432h-338l-115 -432h338z" />
    <glyph glyph-name="dollar" unicode="$" horiz-adv-x="966" 
d="M750 278q0 192 -267 281l-139 -526q128 -41 235 1q107 43 149 139q22 47 22 105zM254 1034q0 -146 145 -222q45 -24 99 -44l125 471q-61 25 -122 26q-115 2 -181 -68t-66 -163zM926 364q0 -78 -33 -146q-70 -146 -240 -213q-87 -34 -171 -34t-152 6l-84 -315h-39l84 320
q-144 25 -221 51l-15 327h35l121 -264q43 -29 96 -53l139 530q-2 2 -4 2t-42 15q-308 116 -308 352q0 144 112 254t298 111q89 0 135 -11l59 217h39l-59 -223q34 -5 96 -22l84 26l2 -354h-33l-110 252q-25 16 -58 33l-122 -471q197 -73 264 -132t97 -120q30 -60 30 -138z
" />
    <glyph glyph-name="percent" unicode="%" horiz-adv-x="1216" 
d="M1044 1311h50l-924 -1340h-51zM1194 248q0 -120 -76 -201q-76 -82 -202 -82t-204 83q-77 83 -77 201q0 119 77 202q77 84 201 84t203 -84q78 -83 78 -203zM913 8q109 0 171 70t62 170t-63 171q-64 71 -170 72q-105 1 -168 -71t-63 -172t61 -170t170 -70zM302 748
q-127 0 -203 82t-76 201q0 120 77 203t200 83q124 0 203 -82t80 -202t-76 -202q-78 -83 -205 -83zM470 858q65 67 66 169q0 103 -62 175t-172 72t-171 -72t-61 -173t64 -170q64 -68 167 -68q104 0 169 67z" />
    <glyph glyph-name="ampersand" unicode="&#x26;" horiz-adv-x="1458" 
d="M408 733q-203 -127 -203 -307q0 -78 22 -131q48 -109 161 -155q56 -22 134 -23q164 0 330 178q-68 155 -182 267t-262 171zM350 1077q0 -91 56 -145t172 -103q126 61 124 232q0 132 -96 192q-33 21 -76 21q-44 0 -76 -16q-104 -54 -104 -181zM422 -31q-182 0 -291 109
t-107 257q1 148 97 256t254 161q-183 91 -185 260q0 114 107 207q107 92 249 92q143 0 232 -73q88 -73 86 -163q0 -179 -250 -262q157 -77 300 -264q42 -55 71 -109q162 204 162 283q0 64 -146 80l-26 4l-6 29h501l-6 -29l-28 -4q-107 -12 -199 -106q-33 -34 -70 -83
l-161 -211q78 -167 140 -235t148 -68t172 84l21 -24q-165 -188 -288 -189q-121 -2 -195 74t-134 211q-237 -287 -448 -287z" />
    <glyph glyph-name="quotesingle" unicode="'" horiz-adv-x="354" 
d="M225 1323h4l136 -55l-330 -443h-29z" />
    <glyph glyph-name="parenleft" unicode="(" horiz-adv-x="696" 
d="M131 393q0 186 53 342q101 299 308 479q94 84 176 127l22 -34q-80 -43 -169 -126t-166 -200q-177 -269 -177 -588t177 -590q77 -117 166 -199t169 -126l-22 -33q-82 43 -176 127q-206 184 -308 480q-53 155 -53 341z" />
    <glyph glyph-name="parenright" unicode=")" horiz-adv-x="696" 
d="M516 392q0 318 -176 589q-76 117 -165 200t-169 126l23 34q82 -43 176 -127t174 -204q186 -278 186 -616t-186 -617q-80 -121 -174 -205t-176 -127l-23 33q80 43 169 126t165 199q176 271 176 589z" />
    <glyph glyph-name="asterisk" unicode="*" horiz-adv-x="649" 
d="M295 975q0 6 -4 10l-207 64l-53 125q0 4 4 10t8 6l139 -8l117 -189q2 -4 10 -1t8 7v226l101 82q2 2 10 -1t8 -6l37 -126l-143 -179q-2 -4 3 -11t7 -5l215 76l109 -74q2 0 2 -8t-2 -8l-109 -76l-215 80q-2 0 -7 -7t-3 -12l139 -178l-37 -125q0 -2 -8 -5t-10 -1l-103 86
l4 221q0 4 -6 7t-8 -1l-119 -180l-135 -10q-4 0 -9 6t-3 8l49 129l207 58q4 4 4 10z" />
    <glyph glyph-name="plus" unicode="+" horiz-adv-x="915" 
d="M434 461h-405l6 47h399v405h49v-405h400l4 -47h-404v-412h-49v412z" />
    <glyph glyph-name="comma" unicode="," horiz-adv-x="397" 
d="M223 -40q0 58 -18 87q-34 55 -97 62q-28 2 -45 -11q-17 49 15 95q33 45 105 46q71 1 122 -45t51 -135t-87 -188q-87 -98 -195 -147l-21 16q68 37 119 100q51 62 51 120z" />
    <glyph glyph-name="hyphen" unicode="-" horiz-adv-x="602" 
d="M53 524h504l-4 -90h-506z" />
    <glyph glyph-name="period" unicode="." horiz-adv-x="430" 
d="M216 -27q-56 0 -93 38t-37 88t37 87t93 37t91 -37t35 -87t-35 -88t-91 -38z" />
    <glyph glyph-name="slash" unicode="/" horiz-adv-x="528" 
d="M461 1313h43l-432 -1796h-45z" />
    <glyph glyph-name="zero" unicode="0" horiz-adv-x="1122" 
d="M1057 483q0 -221 -141 -364q-141 -144 -357 -144q-215 0 -355 141t-139 365q1 223 142 366q141 144 357 144q215 0 354 -144q139 -143 139 -364zM331 155q83 -130 228 -130q144 0 231 129q86 129 85 323t-87 328q-86 133 -227 133q-140 0 -228 -128q-87 -128 -86 -327
q1 -198 84 -328z" />
    <glyph glyph-name="one" unicode="1" horiz-adv-x="716" 
d="M455 72q0 -27 92 -33l86 -8l6 -31h-520l6 31l88 8q41 4 58 11t18 26v796l-217 29l6 27l377 53v-909z" />
    <glyph glyph-name="two" unicode="2" horiz-adv-x="923" 
d="M449 989q119 0 201 -77q83 -77 81 -187q0 -72 -35 -134q-36 -62 -102 -129t-161 -143t-218 -172v-4h381q101 0 153 43q51 43 101 162l16 39l31 -2l-70 -385h-780l-6 47q315 254 392 338q76 84 105 143q28 59 27 121q0 93 -60 153q-61 60 -149 60t-148 -43t-112 -129
l-22 12q138 287 375 287z" />
    <glyph glyph-name="three" unicode="3" horiz-adv-x="831" 
d="M520 662q0 78 -57 140q-57 60 -152 60q-172 0 -262 -172q-4 0 -15 6t-7 6q59 131 154 209t220 78t207 -76t80 -182q0 -147 -179 -271q-52 -36 -112 -71v-4q168 8 273 -91q106 -99 104 -249q0 -88 -40 -171q-81 -169 -270 -248q-94 -38 -206 -38t-178 45t-66 93t29 78
q29 28 66 28q104 0 138 -111q9 -33 5 -69l90 -12q103 0 190 89q86 89 85 225q-1 137 -84 225q-83 87 -223 87q-73 0 -163 -33l-10 27q80 53 150 95q151 91 203 180q30 49 30 127z" />
    <glyph glyph-name="four" unicode="4" horiz-adv-x="974" 
d="M557 27h-539l-2 24l650 922h51v-813h241l-34 -133h-207v-404h-160v404zM557 160v590h-4l-416 -590h420z" />
    <glyph glyph-name="five" unicode="5" horiz-adv-x="817" 
d="M212 -412q-114 0 -177 39t-64 105q0 42 28 70t66 28q37 0 63 -16q71 -45 95 -162q43 -12 85 -12t92 24t88 65q85 94 83 226q0 158 -132 263t-359 147l151 593h533l-35 -172h-496l-69 -268q281 -59 420 -182t139 -299t-149 -312q-148 -137 -362 -137z" />
    <glyph glyph-name="six" unicode="6" horiz-adv-x="1019" 
d="M63 471q0 178 70 329q141 303 475 449q164 72 353 88l2 -32q-286 -44 -465 -229q-161 -162 -228 -404l2 -4q60 53 144 91t168 38q162 0 267 -107t103 -276q0 -202 -129 -321q-129 -120 -318 -120q-97 0 -182 40q-166 78 -231 268q-31 90 -31 190zM539 12q113 0 179 94
t64 247q0 153 -84 255q-84 103 -211 103q-126 0 -221 -93q-22 -22 -22 -130q0 -326 163 -438q56 -38 132 -38z" />
    <glyph glyph-name="seven" unicode="7" horiz-adv-x="890" 
d="M459 797q-207 1 -254 -15t-67 -42t-36 -72l-20 -52h-35l41 342h770l6 -34l-569 -1301h-127l594 1165l-2 9h-301z" />
    <glyph glyph-name="eight" unicode="8" horiz-adv-x="985" 
d="M491 -29q-176 0 -302 96q-125 96 -123 240q0 117 85 202t224 120v4q-135 71 -180 120q-86 93 -86 213q0 119 107 233t274 114q168 0 278 -95q109 -95 109 -235q0 -96 -75 -168t-192 -113v-4q148 -73 205 -129q57 -55 82 -108t25 -125t-32 -138q-66 -136 -228 -197
q-80 -30 -171 -30zM403 612q-170 -104 -172 -305q0 -117 78 -209t204 -92t192 71q65 71 65 157t-32 140q-59 100 -201 174q-66 34 -134 64zM713 983q0 109 -66 203t-169 94q-104 0 -160 -69t-56 -149q0 -79 27 -128q52 -94 170 -159q58 -31 119 -60q135 100 135 268z" />
    <glyph glyph-name="nine" unicode="9" horiz-adv-x="1019" 
d="M434 176q-84 0 -150 28q-136 57 -193 198q-28 71 -28 165q0 188 130 311t320 122q191 -1 317 -147t125 -336q-2 -366 -259 -607t-639 -275l-2 31q288 48 465 231q157 159 228 404l-3 2q-59 -53 -143 -90t-168 -37zM611 922q-56 37 -134 36q-111 0 -177 -93t-64 -244
q0 -151 83 -256t211 -105t222 94q22 22 22 131q0 326 -163 437z" />
    <glyph glyph-name="colon" unicode=":" horiz-adv-x="425" 
d="M216 -27q-56 0 -93 38t-37 87t37 86t93 37t91 -37t35 -86t-35 -87t-91 -38zM216 598q-56 0 -93 39t-37 87t37 85t93 37t91 -37t35 -85t-35 -87t-91 -39z" />
    <glyph glyph-name="semicolon" unicode=";" horiz-adv-x="397" 
d="M223 -37q0 55 -18 83q-36 55 -97 60q-28 2 -45 -8q-17 48 16 93q32 45 104 46q71 1 122 -45t51 -114q0 -113 -87 -207q-87 -95 -195 -145l-21 16q76 39 123 103q47 63 47 118zM205 598q-55 0 -92 38t-37 87t37 86t92 37t91 -37t36 -86t-36 -87t-91 -38z" />
    <glyph glyph-name="less" unicode="&#x3c;" horiz-adv-x="897" 
d="M25 467v31l817 397l16 -45l-756 -365v-4l756 -368l-16 -45z" />
    <glyph glyph-name="equal" unicode="=" horiz-adv-x="909" 
d="M53 326h803l6 -47h-815zM47 684h815l-6 -47h-803z" />
    <glyph glyph-name="greater" unicode="&#x3e;" horiz-adv-x="897" 
d="M41 113l754 368v4l-754 365l14 45l817 -397v-31l-817 -399z" />
    <glyph glyph-name="question" unicode="?" horiz-adv-x="651" 
d="M297 -29q-53 0 -89 37t-36 84t36 82t89 35t87 -35t34 -82t-34 -84t-87 -37zM68 1223q0 88 158 88t262 -115t104 -260q0 -109 -42 -160t-155 -100q-35 -16 -86 -38t-67 -49t-16 -65q-1 -60 96 -155h-33q-46 37 -101 109t-55 121q0 93 51 137q27 24 68 43q42 19 120 53
t128 65q49 31 49 70q0 79 -78 130q-78 52 -233 52q-73 0 -146 -19q-25 35 -24 93z" />
    <glyph glyph-name="at" unicode="@" horiz-adv-x="1609" 
d="M770 -225q-127 0 -264 54q-136 55 -236 151t-154 232t-50 300t68 311q133 300 427 428q145 63 302 61q308 -3 503 -189q92 -87 143 -208t48 -251q-5 -235 -152 -402q-66 -74 -148 -115q-83 -41 -157 -41t-117 16q-112 40 -104 152q0 43 17 109t26 82h-13
q-100 -156 -183 -253t-161 -97t-132 53q-54 52 -54 122q0 192 186 426q102 130 218 198q59 34 115 34t87 -54t37 -124h8l70 207l139 -6l-125 -326l-76 -272q-63 -191 100 -191q149 0 261 136q113 136 117 335q4 133 -45 247q-97 231 -342 327q-119 47 -267 49t-284 -58
q-278 -122 -406 -412q-60 -140 -64 -296q-7 -307 190 -502q198 -196 509 -196q168 0 313 79t226 205l20 -28q-129 -202 -385 -270q-84 -22 -211 -23zM547 344q1 -60 29 -92t57 -33q29 0 63 29q108 94 242 336q49 107 48 128t-22 58t-68 58q-48 22 -88 22t-75 -33t-86 -121
t-76 -190q-24 -102 -24 -162z" />
    <glyph glyph-name="A" unicode="A" horiz-adv-x="1263" 
d="M569 1085h-6q-51 -143 -79 -224t-44 -127t-28 -82t-21 -58l-8 -23h344zM299 328q-62 -175 -52 -216q9 -41 40 -54t88 -19l55 -8l6 -31h-452l6 31l39 6q43 6 71 20q56 28 121 192q35 87 90 240l228 639l-17 66q60 23 117 86q16 18 23 33h24l352 -1082q38 -120 59 -147
t41 -35t52 -10l72 -8l6 -31h-574l6 31l76 8q72 4 79 51t-28 158l-88 282h-368z" />
    <glyph glyph-name="B" unicode="B" horiz-adv-x="1191" 
d="M233 74v1138q0 12 -17 18t-87 13l-61 6l-7 31h506q377 0 462 -174q24 -49 24 -102q0 -109 -91 -192t-286 -112v-6q205 -11 332 -113q112 -94 110 -231q0 -158 -140 -254t-409 -96h-510l7 31l77 8q90 7 90 35zM545 672q-93 0 -117 -6v-592l127 -37l41 4q137 4 224 90
t86 219t-101 228q-99 94 -260 94zM518 1239h-90v-528h104q151 4 226 77q76 74 78 185q0 266 -318 266z" />
    <glyph glyph-name="C" unicode="C" horiz-adv-x="1398" 
d="M788 -31q-315 0 -518 180q-202 180 -202 483t205 491t530 188q123 0 274 -49q37 -12 60 -25l133 49l4 -405h-37l-150 313q-99 74 -290 76q-236 0 -376 -177t-139 -451q1 -275 148 -454q148 -178 375 -178q145 0 235 62t168 174l62 147h39l-66 -348l-78 -4
q-110 -46 -218 -59t-159 -13z" />
    <glyph glyph-name="D" unicode="D" horiz-adv-x="1376" 
d="M233 74v1138q0 12 -17 18t-87 13l-61 6l-7 31l504 6q358 8 553 -166t195 -458t-198 -464q-215 -198 -595 -198h-461l7 31l77 8q90 7 90 35zM428 1243v-1163l139 -41q254 4 395 170q142 167 142 424t-145 433q-145 177 -431 177h-100z" />
    <glyph glyph-name="E" unicode="E" horiz-adv-x="1214" 
d="M233 74v1138q0 12 -17 18t-87 13l-61 6l-7 31h990l20 -393h-39l-20 78q-22 67 -46 119q-48 105 -182 141q-72 18 -190 18h-166v-567l82 2q151 4 195 23q45 17 64 43t34 69l20 61l35 -2l-43 -436l-35 2l-6 60q-4 84 -60 110q-56 25 -216 29l-70 2v-594l193 -6
q302 0 401 177q29 52 53 112l25 75l41 -2l-64 -401h-1018l7 31l71 8q96 8 96 35z" />
    <glyph glyph-name="F" unicode="F" horiz-adv-x="1153" 
d="M233 74v1138q0 13 -17 20t-83 11l-65 6l-7 31h994l24 -393h-39l-20 78q-24 67 -48 119q-48 105 -184 141q-72 18 -190 18h-170v-579l88 2q149 4 194 22q46 18 65 44t34 67l22 61l33 -2l-43 -434l-33 2l-6 59q-4 85 -58 109t-218 31l-78 2v-559q0 -12 17 -20t87 -11
l107 -6l6 -31h-586l7 31l81 8q86 7 86 35z" />
    <glyph glyph-name="G" unicode="G" horiz-adv-x="1445" 
d="M778 -29q-309 0 -510 178q-200 178 -200 482q0 303 208 492q208 188 533 188q139 0 270 -45q35 -12 56 -25l127 45l6 -405h-37l-144 313q-95 74 -288 76q-236 0 -377 -178t-140 -450t150 -452t367 -180q156 0 260 70v414q0 22 -111 28l-86 8l-6 31h565l-6 -31l-78 -10
q-88 -7 -90 -33v-378h103l2 -23q-213 -75 -432 -104q-76 -11 -142 -11z" />
    <glyph glyph-name="H" unicode="H" horiz-adv-x="1505" 
d="M233 74v1138q0 12 -17 18t-87 13l-61 6l-7 31h545l-6 -31l-82 -8q-87 -7 -90 -35v-534h649v540q0 12 -17 18t-87 13l-66 6l-6 31h545l-6 -31l-78 -8q-90 -7 -90 -35v-1138q0 -12 17 -18t87 -13l62 -6l6 -31h-545l6 31l82 8q90 7 90 35v559h-649v-565q0 -12 17 -18t87 -13
l66 -6l6 -31h-545l7 31l77 8q90 7 90 35z" />
    <glyph glyph-name="I" unicode="I" horiz-adv-x="704" 
d="M256 74v1138q0 12 -17 18t-87 13l-74 6l-6 31h563l-6 -31l-88 -8q-90 -7 -90 -35v-1138q0 -12 17 -18t87 -13l72 -6l6 -31h-563l6 31l90 8q90 7 90 35z" />
    <glyph glyph-name="J" unicode="J" horiz-adv-x="704" 
d="M283 186v1026q1 12 -17 20t-88 11l-80 6l-6 31h570l-7 -31l-88 -8q-87 -7 -90 -35v-1032q0 -139 -123 -281q-123 -141 -268 -141q-78 0 -127 37t-49 88t32 83t77 32t71 -18q54 -37 52 -113q-1 -35 -19 -66q160 4 160 391z" />
    <glyph glyph-name="K" unicode="K" horiz-adv-x="1357" 
d="M233 74v1138q0 13 -17 20t-83 11l-65 6l-7 31h560l-7 -31l-96 -8q-87 -7 -90 -35v-639l334 336q200 200 222 269q11 36 -15 51q-27 14 -86 20l-82 6l-2 31h514l-6 -31l-37 -4q-51 -4 -99 -20t-140 -111q-93 -94 -200 -203l-106 -104l399 -623q67 -101 89 -121t83 -28
l52 -4l6 -31h-535l4 31l62 6q55 4 53 42t-61 138l-285 459l-164 -164v-444q0 -12 17 -18t87 -13l80 -6l6 -31h-559l7 31l81 8q86 7 86 35z" />
    <glyph glyph-name="L" unicode="L" horiz-adv-x="1148" 
d="M233 74v1138q0 13 -17 20t-83 11l-65 6l-7 31h580l-6 -31l-117 -8q-87 -7 -90 -35v-1161l160 -8q216 0 305 81q45 40 73 96t56 128l27 86h41l-60 -428h-971l7 31l81 8q86 7 86 35z" />
    <glyph glyph-name="M" unicode="M" horiz-adv-x="1697" 
d="M45 31l64 6q82 4 107 38q24 34 28 140l26 950q-22 64 -106 76l-76 8l-6 31h405l367 -1001h4l379 1001h408l-7 -31l-112 -8q-42 -4 -62 -16t-20 -25l20 -1020q4 -86 21 -110q17 -23 80 -31l75 -8l7 -31h-553l6 31l102 10q45 4 61 35q15 31 11 108l-23 996h-6l-444 -1168
h-41l-416 1116q-4 16 -16 30t-17 22l-22 -967q-4 -101 18 -129t52 -36t77 -11l60 -6l6 -31h-463z" />
    <glyph glyph-name="N" unicode="N" horiz-adv-x="1429" 
d="M279 1114h-5l2 -899q0 -97 30 -133q30 -35 116 -43l57 -8l6 -31h-442l6 31l57 8q73 9 92 34q35 46 35 146l7 883q-44 118 -160 141l-47 8l-6 31h368l768 -991l4 2l-2 772q0 98 -23 126q-23 27 -51 37t-71 13l-57 8l-7 31h443l-6 -31l-58 -8q-68 -4 -97 -41
q-28 -37 -30 -139l-4 -1073h-43z" />
    <glyph glyph-name="O" unicode="O" horiz-adv-x="1505" 
d="M743 -31q-293 0 -484 186t-191 478q0 131 53 253t147 216t220 150t272 56q292 1 484 -184t194 -481q0 -131 -54 -253q-111 -254 -368 -365q-128 -56 -273 -56zM758 8q207 0 335 171t128 456t-137 460t-341 175t-333 -171t-128 -456t135 -460t341 -175z" />
    <glyph glyph-name="P" unicode="P" horiz-adv-x="1146" 
d="M428 68q0 -12 17 -20t87 -11l107 -6l6 -31h-606l6 31l98 8q90 7 90 35v1138q0 12 -17 18t-87 13l-82 6l-6 31h567q248 0 367 -87t119 -228q0 -172 -143 -274q-181 -130 -523 -91v-532zM885 932q0 317 -318 309h-139v-592q70 -20 160 -20q135 0 216 80t81 223z" />
    <glyph glyph-name="Q" unicode="Q" horiz-adv-x="1505" 
d="M68 633q0 131 53 253t147 216t220 150t272 56q293 1 484 -185q192 -187 194 -480q0 -214 -140 -398q-140 -183 -352 -245q96 -209 245 -274q123 -56 349 -29l4 -29q-104 -35 -288 -35q-281 0 -430 166q-58 66 -101 170q-285 8 -471 192t-186 472zM758 8q207 0 335 171
t128 456t-137 460t-341 175t-333 -173t-128 -456t135 -458t341 -175z" />
    <glyph glyph-name="R" unicode="R" horiz-adv-x="1298" 
d="M233 1212q0 12 -17 18t-87 13l-82 6l-6 31h545q252 0 376 -86t123 -246q0 -119 -86 -206t-223 -119l279 -424q63 -92 103 -123t110 -39l37 -6l8 -31h-369l-371 616q-12 2 -31 6t-48 8q-29 5 -66 17v-579q0 -20 104 -31l86 -6l7 -31h-586l6 31l98 8q33 4 62 14t28 21v1138
zM877 948q0 141 -85 221t-262 72h-18l-84 -4v-551q89 -27 160 -27q135 4 212 76t77 213z" />
    <glyph glyph-name="S" unicode="S" horiz-adv-x="1026" 
d="M544 1309q116 0 255 -39l84 26l4 -356h-33l-111 256q-106 70 -217 71t-178 -64t-67 -159q0 -152 178 -233q53 -25 127 -51q179 -64 263 -143q107 -98 106 -251t-131 -274q-131 -121 -339 -121q-169 -4 -389 68l-14 323h35l65 -167q100 -185 316 -185q120 0 200 79t80 198
q0 167 -177 249q-56 26 -128 52q-169 60 -251 133q-105 94 -104 235t112 247q112 106 314 106z" />
    <glyph glyph-name="T" unicode="T" horiz-adv-x="1323" 
d="M563 74v1169h-61q-206 -5 -319 -164q-32 -45 -56 -94l-27 -84h-41l64 379h1091l39 -379h-39l-22 78q-61 137 -140 199t-229 65h-65v-1175q0 -12 18 -18t86 -13l94 -6l7 -31h-605l7 31l108 8q90 7 90 35z" />
    <glyph glyph-name="U" unicode="U" horiz-adv-x="1421" 
d="M727 -29q-262 0 -383 111t-121 362v770q0 10 -17 16t-87 13l-82 8l-6 31h579l-6 -31l-96 -8q-90 -7 -90 -35v-719q0 -231 96 -333t278 -102t282 111q101 112 102 333l-2 567q0 97 -31 134q-31 36 -117 44l-57 8l-6 31h444l-6 -31l-60 -8q-70 -8 -97 -44q-27 -35 -27 -138
l-5 -574q0 -376 -265 -480q-91 -36 -220 -36z" />
    <glyph glyph-name="V" unicode="V" horiz-adv-x="1284" 
d="M217 1051q-51 135 -70 161t-84 29l-75 10l-6 31h571l-6 -31l-86 -6q-41 -2 -61 -9t-25 -32q-4 -25 39 -141l301 -848h10l246 684q74 213 61 275q-8 37 -43 52t-98 21l-45 4l-6 31h463l-7 -31l-41 -8q-39 -4 -65 -16t-63 -61q-36 -49 -119 -285l-328 -904h-70z" />
    <glyph glyph-name="W" unicode="W" horiz-adv-x="1986" 
d="M219 1051q-39 115 -60 143t-43 36t-57 11l-73 8l-6 31h569l-6 -31l-76 -6q-71 -4 -81 -35q-9 -33 32 -145l287 -832h6l276 715l-37 105q-49 127 -75 157q-25 30 -87 33l-73 8l-6 31h565l-6 -31l-76 -6q-39 -2 -58 -9t-24 -30t35 -141l293 -827h6l231 653q39 111 57 177
q33 124 -33 153q-34 14 -97 22l-54 8l-6 31h463l-6 -31l-37 -6q-39 -6 -66 -18q-50 -22 -104 -155q-29 -69 -72 -189l-323 -904h-51l-332 914h-4l-353 -914h-51z" />
    <glyph glyph-name="X" unicode="X" horiz-adv-x="1314" 
d="M-2 31l47 6q82 8 133 53t156 191l237 337l-295 433q-35 53 -72 107t-60 68q-23 13 -48 15l-71 8l-11 31h559l-4 -31l-80 -4q-35 -2 -51 -12q-33 -21 14 -101q24 -42 68 -110l178 -270h4l168 249q86 126 82 177t-92 63l-61 8l-6 31h473l-6 -31l-48 -6q-80 -7 -136 -56
t-152 -188l-199 -280l387 -572q23 -31 37 -50q39 -53 92 -58l68 -8l8 -31h-555l4 31l80 4q70 4 69 37q0 33 -47 104l-270 408h-4l-66 -97l-50 -75t-84 -124q-133 -192 -61 -230q24 -13 66 -19l60 -8l6 -31h-473z" />
    <glyph glyph-name="Y" unicode="Y" horiz-adv-x="1265" 
d="M733 68q1 -12 19 -18t88 -13l92 -6l6 -31h-604l6 31l109 8q87 7 90 35v487l-320 551q-39 70 -73 98t-89 31l-61 8l-6 31h559l-6 -31l-58 -4q-80 -6 -81 -46t55 -136l243 -432h5l192 356q76 143 74 182q-2 38 -27 53t-72 21l-47 6l-6 31h430l-6 -31l-47 -6q-61 -8 -99 -44
q-67 -64 -141 -200l-225 -407v-524z" />
    <glyph glyph-name="Z" unicode="Z" horiz-adv-x="1181" 
d="M870 1241h-221q-349 0 -443 -167q-28 -50 -48 -105l-17 -66h-37l25 377h973v-31l-801 -1204v-6h250q258 0 365 77q54 38 86 93t61 125l22 72h43l-57 -406h-1003v27l802 1208v6z" />
    <glyph glyph-name="bracketleft" unicode="[" horiz-adv-x="665" 
d="M133 1296h506v-41h-459v-1704h459v-40h-506v1785z" />
    <glyph glyph-name="backslash" unicode="\" horiz-adv-x="503" 
d="M-4 1313h45l432 -1796h-43z" />
    <glyph glyph-name="bracketright" unicode="]" horiz-adv-x="665" 
d="M25 -449h458v1704h-458v41h505v-1785h-505v40z" />
    <glyph glyph-name="asciicircum" unicode="^" 
d="M373 1399h30l273 -398h-25l-260 226h-4l-264 -226h-23z" />
    <glyph glyph-name="underscore" unicode="_" horiz-adv-x="927" 
d="M29 2h872l6 -76h-884z" />
    <glyph glyph-name="grave" unicode="`" 
d="M90 1401h197l190 -383h-20z" />
    <glyph glyph-name="a" unicode="a" horiz-adv-x="868" 
d="M772 80q37 0 90 51l19 -18q-54 -68 -100 -103q-45 -35 -97 -35q-129 0 -141 152l-4 2q-135 -151 -241 -151q-62 0 -102 16q-134 55 -137 192q0 112 108 189t384 141l2 51q7 281 -201 281q-82 0 -139 -41q-14 -10 -14 -16q0 -7 8 -17q43 -56 43 -92q0 -37 -27 -65
q-27 -27 -73 -27t-74 26q-29 26 -29 63q0 38 41 79q91 91 232 133t267 4q108 -32 133 -164q13 -68 7 -172l-18 -379q-6 -100 63 -100zM365 86q49 0 88 16t86 62l12 319q-268 -63 -307 -173q-12 -34 -12 -87t42 -95t91 -42z" />
    <glyph glyph-name="b" unicode="b" horiz-adv-x="1009" 
d="M113 -41v1231q1 35 -13 50t-53 26l-74 26l2 21l306 82v-666l6 -2q149 172 310 172t263 -122q103 -122 103 -308q0 -227 -143 -362q-143 -136 -340 -136q-102 0 -238 56h-2l-111 -68h-16zM520 14q119 0 185 110q67 110 67 286q0 246 -158 340q-49 29 -110 28
q-125 0 -223 -110v-465q37 -77 104 -133t135 -56z" />
    <glyph glyph-name="c" unicode="c" horiz-adv-x="854" 
d="M457 -29q-176 0 -293 128t-117 326t131 342t336 144q129 0 216 -54t85 -136q0 -49 -32 -78q-33 -29 -77 -29t-75 38t-29 80t16 60t15 27q-6 19 -44 37t-88 18q-49 0 -101 -28q-107 -57 -149 -198q-22 -72 -22 -158q0 -172 90 -281t228 -109q80 0 142 30t118 116l24 -13
q-143 -262 -374 -262z" />
    <glyph glyph-name="d" unicode="d" horiz-adv-x="1032" 
d="M727 862v344q0 35 -12 51t-53 25l-91 23l4 20l322 70v-1268q0 -31 6 -41t23 -14l110 -27l-2 -22l-307 -56v174h-6q-138 -168 -302 -168t-268 124t-104 329q0 204 142 338q142 135 331 135q120 0 203 -37h4zM490 856q-68 0 -113 -31q-141 -97 -141 -358q0 -165 77 -270
t197 -105t217 101v481q-35 76 -103 129q-66 53 -134 53z" />
    <glyph glyph-name="e" unicode="e" horiz-adv-x="888" 
d="M459 -29q-178 0 -295 128t-117 327q0 200 128 343q128 142 327 142q154 0 240 -80t87 -208q0 -23 -6 -54l-587 4q-7 -28 -7 -100q0 -71 25 -143t67 -123q88 -107 226 -107q81 0 147 30t123 116l23 -13q-147 -262 -381 -262zM442 608h201q0 185 -91 245q-32 21 -75 21
q-83 -1 -149 -75t-88 -193q115 2 202 2z" />
    <glyph glyph-name="f" unicode="f" horiz-adv-x="616" 
d="M176 66v727l-162 4l31 84h127l4 53q15 207 139 327q124 119 273 117q78 0 118 -32t40 -75q0 -42 -30 -70q-30 -27 -73 -27t-81 36t-50 97l-4 12l-35 4q-73 -35 -99 -121t-26 -229v-92h254l-31 -86h-223v-732q0 -14 16 -20t80 -10l80 -2l6 -31h-483l6 31l43 2q43 4 62 9
q18 5 18 24z" />
    <glyph glyph-name="g" unicode="g" horiz-adv-x="935" 
d="M18 -289q0 150 234 246v6q-92 10 -148 53q-55 44 -55 92q1 48 19 80q53 94 194 134q0 2 1 2t1 2v2q-72 30 -126 98t-54 151q0 147 100 240q101 92 240 91t250 -74l258 34l-14 -110l-203 30l-2 -8q73 -73 71 -174q0 -131 -104 -220t-252 -89q-53 0 -123 14
q-45 -10 -78 -36t-32 -66q0 -88 157 -88l234 6q141 0 220 -66t79 -165q0 -186 -148 -296t-381 -110q-160 0 -248 58t-90 163zM764 -230q0 91 -57 139q-77 65 -300 50q-60 -4 -112 -8q-77 -27 -121 -124q-12 -30 -12 -63q0 -102 86 -164t216 -61q130 0 215 70t85 161z
M260 610q0 -124 47 -202t129 -78t130 68t48 190q0 203 -98 266q-35 23 -84 23q-78 0 -125 -72t-47 -195z" />
    <glyph glyph-name="h" unicode="h" horiz-adv-x="1034" 
d="M719 586q0 110 -45 154t-153 44t-204 -84v-637q1 -14 17 -20t80 -10l41 -2l6 -31h-443l7 31l41 2q43 4 61 10t18 25v1120q0 35 -12 51t-51 27l-74 24l2 23l307 80v-648l5 -2q103 84 148 110q98 56 194 56t159 -59q68 -72 68 -211v-573q0 -13 13 -19t85 -14l35 -2l6 -31
h-440l6 31l43 2q51 4 66 12q14 8 14 23v518z" />
    <glyph glyph-name="i" unicode="i" horiz-adv-x="499" 
d="M168 68v565q0 94 -12 116q-12 23 -30 31t-44 15l-47 10l2 22l301 80v-844q0 -14 16 -20t80 -10l37 -2l6 -31h-440l6 31l43 2q45 4 64 10q18 6 18 25zM233 1081q-59 0 -87 39q-55 77 0 156q28 39 87 39t87 -39q56 -76 1 -156q-29 -39 -88 -39z" />
    <glyph glyph-name="j" unicode="j" horiz-adv-x="477" 
d="M162 633q0 95 -12 117t-30 30q-17 8 -44 15l-47 10l2 22l301 80v-962q-4 -177 -121 -324q-113 -139 -235 -139q-64 0 -104 32t-40 78t32 75q32 28 78 28t84 -40t58 -99q76 30 78 260v817zM229 1081q-59 0 -88 39q-57 77 0 156q29 39 88 39t86 -39t27 -78t-27 -78t-86 -39
z" />
    <glyph glyph-name="k" unicode="k" horiz-adv-x="980" 
d="M145 68v1120q0 35 -12 51t-51 27l-74 24l2 23l307 80v-973l181 176q153 137 153 197q0 47 -102 55l-27 2l-4 31h408l-6 -31l-39 -4q-60 -4 -108 -43t-90 -80t-103 -100l-60 -56l258 -403q25 -37 47 -70q36 -54 107 -59l35 -4l6 -31h-309l-41 72l-226 374l-80 -75v-308
q1 -14 17 -19t80 -11l35 -2l6 -31h-437l7 31l41 2q43 4 61 10t18 25z" />
    <glyph glyph-name="l" unicode="l" horiz-adv-x="493" 
d="M160 1139q0 73 -12 95t-54 32l-71 24l2 23l307 80v-1330q0 -14 16 -19t78 -11l39 -2l6 -31h-438l4 31l43 2q45 4 62 10t18 25v1071z" />
    <glyph glyph-name="m" unicode="m" horiz-adv-x="1568" 
d="M709 584q0 112 -41 156t-135 44t-195 -82v-639q0 -14 16 -20t78 -10l43 -2l4 -31h-442l6 31l43 2q45 4 64 10q18 6 18 25v563q0 96 -12 118q-12 23 -30 31t-44 15l-47 10l2 22l303 80l-4 -162l6 -2q117 117 215 151q43 15 94 15q141 0 197 -108q14 -29 20 -64l4 -2
q163 174 320 174q102 0 164 -59q67 -71 67 -219v-565q0 -13 14 -19t83 -14l34 -2l7 -31h-439l6 31l43 2q51 4 66 12q14 8 14 23v516q0 112 -41 156q-40 44 -116 44t-132 -28t-79 -62l-2 -30v-598q1 -20 31 -24q30 -5 65 -9l37 -2l6 -31h-436l6 31l41 2q51 4 64 12t14 23v516
z" />
    <glyph glyph-name="n" unicode="n" horiz-adv-x="1058" 
d="M682 909q229 0 229 -272v-571q0 -13 14 -19t85 -14l34 -2l7 -31h-437l7 31l41 2q51 4 64 12t13 23v516q0 112 -45 156t-151 44t-205 -84v-637q0 -14 16 -20t78 -10l43 -2l4 -31h-442l6 31l43 2q45 4 64 10q18 6 18 25v563q0 96 -12 118q-12 23 -30 31t-44 15l-47 10l2 22
l303 80l-4 -164h6q101 82 148 109q100 57 192 57z" />
    <glyph glyph-name="o" unicode="o" horiz-adv-x="1032" 
d="M47 438q0 198 134 335q134 138 339 138t335 -131t130 -331t-136 -339t-338 -139t-333 134q-131 135 -131 333zM248 475q0 -282 113 -400q64 -67 170 -67q105 0 179 116t74 264q0 299 -110 415q-73 73 -164 71q-122 0 -192 -117t-70 -282z" />
    <glyph glyph-name="p" unicode="p" horiz-adv-x="1034" 
d="M309 10v-463q-1 -12 15 -18t79 -10l74 -2l6 -31h-475l6 31l43 2q43 4 63 10q19 6 19 22v1082q0 90 -13 114q-14 25 -30 33t-43 15l-47 10l2 22l303 80l-2 -178l6 -2q149 172 309 172t264 -123q103 -123 101 -307q0 -224 -145 -367q-137 -131 -332 -131q-98 0 -201 39h-2z
M546 14q118 0 186 111q67 111 68 277t-75 272t-199 105q-124 -1 -217 -111v-467q37 -75 103 -131t134 -56z" />
    <glyph glyph-name="q" unicode="q" horiz-adv-x="1019" 
d="M550 899q118 0 222 -55h2l107 76h16v-1369q0 -16 18 -22t68 -10l41 -2l6 -31h-475l6 31l72 2q63 4 79 11q15 7 15 19v592h-6q-138 -168 -302 -168t-268 124t-104 329q0 204 142 338q142 135 361 135zM470 856q-48 0 -93 -30q-141 -94 -141 -355q0 -165 78 -272t197 -107
q120 0 216 101v475q-63 129 -172 173q-37 15 -85 15z" />
    <glyph glyph-name="r" unicode="r" horiz-adv-x="757" 
d="M168 68v563q0 96 -12 118q-12 23 -30 31t-44 15l-47 10l2 22l303 80l-4 -305h6q53 150 118 228t156 79q55 0 94 -32q38 -33 38 -79t-29 -81t-76 -35t-82 28t-43 83q-102 -33 -180 -275v-455q0 -14 17 -20t79 -10l70 -2l6 -31h-473l6 31l43 2q45 4 64 10q18 6 18 25z" />
    <glyph glyph-name="s" unicode="s" horiz-adv-x="759" 
d="M412 911q89 0 172 -34l65 22l10 -258l-38 -2l-91 178q-71 57 -147 57t-119 -40t-43 -92q1 -52 15 -78q26 -48 86 -75q61 -27 112 -47q50 -20 100 -42q168 -78 166 -240q0 -115 -94 -202t-251 -87q-156 0 -277 47l-17 261l39 2l45 -119q81 -154 222 -154q82 0 136 48
t54 123t-61 119t-167 82t-154 79q-93 78 -92 190q1 111 85 187q83 75 244 75z" />
    <glyph glyph-name="t" unicode="t" horiz-adv-x="679" 
d="M481 82q98 0 172 61l11 -20q-147 -152 -285 -152q-105 1 -163 57t-56 181l12 579l-164 5l6 34l308 244l24 -6l-2 -182h315l-28 -86h-287l-14 -568q-4 -147 151 -147z" />
    <glyph glyph-name="u" unicode="u" horiz-adv-x="1011" 
d="M503 98q102 0 202 80v590q-1 47 -19 61t-78 19l-43 4l-6 31h318v-740q0 -29 6 -40t22 -15l111 -27l-2 -22l-307 -72v170h-5q-90 -79 -140 -107q-102 -57 -197 -58q-94 -1 -160 61q-64 68 -66 213l2 571q0 14 -14 20q-25 8 -86 11l-35 4l-6 31h315l-6 -586q0 -111 46 -155
t148 -44z" />
    <glyph glyph-name="v" unicode="v" horiz-adv-x="948" 
d="M137 733q-27 68 -47 88t-63 23l-41 6l-9 31h451l-4 -31l-43 -4q-51 -4 -63 -24t10 -72l221 -545l164 436q45 118 32 158q-13 39 -104 47l-37 4l-6 31h360l-6 -31l-37 -4q-57 -4 -80 -36q-22 -32 -39 -74t-46 -113l-248 -643h-49z" />
    <glyph glyph-name="w" unicode="w" horiz-adv-x="1464" 
d="M145 709q-32 85 -53 109q-22 24 -69 28l-39 4l-7 31h449l-4 -31l-39 -4q-53 -4 -69 -20t5 -68l209 -555l185 446l-39 94q-23 59 -45 79t-74 24l-35 4l-6 31h444l-4 -31l-39 -4q-51 -4 -63 -24t4 -64l227 -559l148 428q42 127 31 159q-10 32 -36 44t-73 16l-33 4l-6 31
h361l-7 -31l-32 -4q-64 -4 -88 -42q-25 -38 -76 -186l-225 -638h-50l-262 620l-258 -620h-51z" />
    <glyph glyph-name="x" unicode="x" horiz-adv-x="950" 
d="M616 73q0 30 -49 101l-141 203h-2l-125 -182q-59 -86 -61 -121t55 -39l55 -6l6 -29h-358l6 29l53 8q48 8 87 40t124 144l137 185l-206 292q-60 87 -92 116t-70 32l-31 4l-6 31h440l-6 -31l-45 -6q-47 -4 -45 -36t51 -103l121 -175h2l107 156q59 86 57 120t-62 38l-45 6
l-6 31h361l-6 -31l-54 -6q-50 -4 -93 -41q-44 -37 -120 -146l-116 -155l227 -320q53 -74 86 -108t74 -39l30 -4l7 -31h-441l6 29l39 8q49 6 49 36z" />
    <glyph glyph-name="y" unicode="y" horiz-adv-x="942" 
d="M174 -317q85 0 121 -89q35 10 57 54t49 119l74 221h-2l-336 745q-26 65 -47 86t-67 25l-41 6l-7 31h449l-6 -31l-39 -4q-51 -4 -63 -24t12 -72l229 -531l154 426q43 115 28 157q-9 22 -33 31t-69 13l-37 4l-6 31h362l-6 -31l-39 -4q-60 -4 -82 -36t-38 -74t-43 -113
l-228 -609l-86 -268q-43 -134 -95 -204t-140 -70q-53 0 -90 30t-37 76q0 45 28 75q29 30 74 30z" />
    <glyph glyph-name="z" unicode="z" horiz-adv-x="884" 
d="M508 844q-171 0 -247 -50q-37 -26 -61 -67t-46 -98l-25 -74h-39v326h719v-29l-555 -815l100 -2q176 0 262 53t144 160l43 78h37l-70 -326h-725v27l557 817h-94z" />
    <glyph glyph-name="braceleft" unicode="{" horiz-adv-x="638" 
d="M188 -219q0 88 28 185q28 98 42 148t14 98t-20 78q-52 78 -264 91l-11 25l11 22q132 10 185 35q101 50 99 133q0 66 -28 160t-42 150t-14 124q-1 129 116 214t298 91l2 -28q-152 -19 -215 -71t-63 -137t43 -213q43 -127 44 -202q1 -76 -25 -119q-78 -129 -298 -155v-11
q216 -25 298 -154q26 -42 26 -112t-30 -165t-44 -146t-14 -103q0 -92 63 -145t215 -72l-2 -28q-180 8 -297 91t-117 216z" />
    <glyph glyph-name="bar" unicode="|" horiz-adv-x="389" 
d="M174 1327h41v-1796h-41v1796z" />
    <glyph glyph-name="braceright" unicode="}" horiz-adv-x="638" 
d="M208 565q-26 43 -26 111t30 165t43 148t13 105q0 90 -63 142t-213 71l2 28q281 -13 382 -183q32 -54 32 -122q0 -94 -43 -231t-43 -193q0 -55 24 -86q61 -77 262 -92l10 -22l-10 -25q-138 -9 -192 -35t-74 -56t-20 -88t30 -150q30 -91 42 -147q14 -56 14 -124
q1 -132 -118 -217q-119 -84 -296 -90l-2 28q150 18 213 72t63 136q0 83 -42 215q-74 230 -18 320q80 129 296 154v11q-221 26 -296 155z" />
    <glyph glyph-name="asciitilde" unicode="~" 
d="M123 508q35 53 109 53t191 -66q116 -66 155 -66q40 -1 64 19t38 97h25q-14 -119 -50 -173t-112 -55q-76 0 -190 66q-115 66 -154 67q-39 2 -64 -18t-39 -98h-24q16 121 51 174z" />
    <glyph glyph-name="nonbreakingspace" unicode="&#xa0;" horiz-adv-x="284" 
 />
    <glyph glyph-name="exclamdown" unicode="&#xa1;" horiz-adv-x="532" 
d="M264 -39q-70 0 -84 30t-10 70l82 836q2 8 13 8t14 -8l83 -836q4 -41 -10 -71t-84 -29h-4zM266 1061q-53 0 -88 36t-35 83t35 84q35 36 88 36t88 -36t35 -84q0 -47 -35 -83t-88 -36z" />
    <glyph glyph-name="cent" unicode="&#xa2;" horiz-adv-x="858" 
d="M442 -29q-8 0 -18 2l-82 -301h-37l82 308q-150 28 -245 151t-95 310t131 329q131 141 336 141q51 0 119 -14l96 358h39l-100 -368q66 -23 106 -66t41 -94q0 -51 -30 -81q-29 -30 -67 -30t-65 22t-37 54l-155 -577q58 -15 113 -15q137 0 235 146l22 -13
q-143 -262 -370 -262h-19zM229 467q1 -111 55 -205t142 -135l190 711q-45 36 -105 36q-59 0 -111 -28q-170 -92 -171 -379z" />
    <glyph glyph-name="sterling" unicode="&#xa3;" horiz-adv-x="1056" 
d="M303 791q0 83 35 177q74 200 255 282q91 42 197 42t161 -39q56 -39 57 -110q0 -41 -34 -73t-74 -32t-62 18q-46 36 -44 100q1 30 11 56q-31 31 -82 31q-165 0 -226 -172q-22 -59 -22 -131t11 -150q11 -79 22 -169h264l6 -39h-268q6 -57 6 -123q0 -120 -74 -250
q92 -29 184 -57t152 -27q62 0 92 10q87 29 113 223l27 -4q-7 -254 -161 -350q-51 -31 -139 -31t-176 41t-165 86q-109 -127 -219 -127q-68 0 -108 35t-40 91q0 57 50 107t142 50t181 -27q8 36 8 91q0 54 -17 122t-36 140h-219l6 39h205q-19 87 -19 170zM33 99q0 -45 34 -71
t84 -26t97 35t82 88q-117 76 -176 76q-58 0 -90 -28t-31 -74z" />
    <glyph glyph-name="currency" unicode="&#xa4;" horiz-adv-x="1028" 
d="M133 608q0 51 8 105h-127l6 39h127q44 248 207 394t361 146q127 0 204 -43t76 -114q-1 -41 -29 -70t-69 -29t-75 25t-38 72t4 71q-14 10 -38 26t-80 17q-58 0 -120 -36q-127 -74 -191 -257q-32 -92 -42 -202h410l6 -39h-418v-70q0 -80 9 -154h403l6 -38h-399
q35 -169 138 -261q102 -92 212 -92t182 37t133 127l25 -14q-155 -277 -403 -277q-172 0 -305 130t-171 350h-131l6 38h119q-6 68 -6 119z" />
    <glyph glyph-name="yen" unicode="&#xa5;" horiz-adv-x="1243" 
d="M530 80v250h-370l6 39h364v221h-366l-2 41h348l-281 483q-41 66 -73 94t-88 33l-62 8l-6 31h557l-6 -31l-59 -4q-80 -6 -83 -45t56 -137l229 -408h6l187 353q70 132 61 177t-106 58l-47 6l-7 31h431l-7 -31l-47 -6q-67 -9 -97 -39q-57 -56 -125 -185q-162 -308 -212 -388
h363l-2 -41h-371v-221h369l6 -39h-375v-254q0 -12 16 -20t82 -15l101 -10l6 -31h-602l6 31l116 12q84 7 84 37z" />
    <glyph glyph-name="section" unicode="&#xa7;" horiz-adv-x="798" 
d="M374 -63q52 0 82 14q53 25 79 90q10 29 10 61q0 67 -68 123q-68 55 -185 123q-118 68 -171 120q-101 97 -101 189q0 160 173 242q-53 69 -53 133q-1 116 88 197q90 82 229 82q98 0 161 -37t64 -105q0 -37 -28 -65t-64 -29q-92 0 -100 107q-1 29 6 53q-37 37 -95 37
t-103 -48q-44 -48 -44 -96q0 -109 156 -202l96 -58q140 -85 183 -128q91 -91 90 -179q-2 -160 -173 -248q56 -68 56 -133t-24 -113q-51 -101 -170 -147q-60 -22 -145 -22t-152 36t-67 105q0 35 24 65t61 29q62 0 86 -50t10 -110q37 -36 89 -36zM211 881q-74 -53 -75 -132
q-1 -80 50 -131q52 -51 136 -103t152 -93t116 -90q72 56 73 135q1 78 -49 129t-136 104q-84 54 -152 94t-115 87z" />
    <glyph glyph-name="dieresis" unicode="&#xa8;" 
d="M199 1065q-57 0 -85 38t-28 75q0 38 28 78t85 40t84 -41q51 -77 0 -152q-27 -38 -84 -38zM580 1065q-57 0 -85 38t-28 75q0 38 28 78t85 40t84 -41q51 -77 0 -152q-27 -38 -84 -38z" />
    <glyph glyph-name="copyright" unicode="&#xa9;" horiz-adv-x="1460" 
d="M731 -29q-139 1 -261 53t-213 143t-143 213t-53 261q0 139 53 261q105 247 356 358q122 53 261 53t261 -53q248 -108 357 -358q52 -122 52 -261t-52 -261q-106 -249 -357 -356q-122 -53 -261 -53zM731 4q131 0 246 50t201 137t135 203t49 247t-49 247t-135 203t-201 137
t-246 50t-247 -50q-234 -101 -337 -340q-49 -116 -49 -247q0 -265 185 -450q85 -87 201 -137t247 -50zM769 1032q105 0 185 -41l80 29l2 -248h-22l-94 184q-56 45 -147 45q-226 0 -293 -213q-19 -63 -19 -142q0 -163 86 -269q86 -105 217 -105q86 0 137 38t92 106l43 84h23
l-39 -215l-47 -4q-97 -39 -206 -39q-202 0 -320 108q-117 108 -116 284t119 287t319 111z" />
    <glyph glyph-name="ordfeminine" unicode="&#xaa;" horiz-adv-x="675" 
d="M195 586q-66 0 -112 43t-46 111t90 137q90 70 301 116l2 49q0 153 -106 192q-31 11 -70 11t-64 -16q-24 -15 -24 -25t17 -36q39 -60 -6 -100q-23 -22 -59 -22t-59 24q-23 22 -23 54q1 63 111 120t213 58q103 0 162 -52t56 -156l-13 -330q-4 -90 56 -90q35 0 69 39l8 -15
q-37 -67 -108 -101q-25 -11 -53 -11q-102 0 -115 135h-2q-114 -135 -225 -135zM284 680q70 0 136 72l8 213q-124 -27 -194 -82q-46 -37 -47 -89t29 -83t68 -31z" />
    <glyph glyph-name="guillemotleft" unicode="&#xab;" horiz-adv-x="925" 
d="M430 434v39l444 340l11 -18l-279 -340l279 -340l-11 -19zM41 434v39l444 318l11 -19l-273 -317l273 -320l-11 -18z" />
    <glyph glyph-name="registered" unicode="&#xae;" horiz-adv-x="1460" 
d="M731 -29q-139 1 -261 53t-213 143t-143 213t-53 261q0 139 53 261q105 247 356 358q122 53 261 53t261 -53q248 -108 357 -358q52 -122 52 -261t-52 -261q-106 -249 -357 -356q-122 -53 -261 -53zM731 4q131 0 246 50t201 137t135 203t49 247t-49 247t-135 203t-201 137
t-246 50t-247 -50q-234 -101 -337 -340q-49 -116 -49 -247q0 -265 185 -450q85 -87 201 -137t247 -50zM500 965q0 14 -60 20l-49 6l-4 29h324q151 0 223 -53t72 -135t-50 -134q-50 -53 -133 -69l160 -242q35 -53 59 -69q25 -15 64 -21l31 -4l4 -27h-223l-19 35l-199 322
q-14 4 -41 8t-43 8v-317q0 -15 60 -21l53 -8l4 -27h-348l4 27l62 8q47 12 49 23v641zM881 822q-1 83 -53 125t-158 36l-54 -2v-309q65 -17 95 -17q78 2 124 43t46 124z" />
    <glyph glyph-name="macron" unicode="&#xaf;" horiz-adv-x="774" 
d="M137 1141h512l-8 -62h-516z" />
    <glyph glyph-name="degree" unicode="&#xb0;" horiz-adv-x="659" 
d="M332 750q-127 0 -204 81t-78 201t75 202q76 83 203 83q126 0 208 -84q74 -79 74 -199q0 -119 -74 -200q-77 -84 -204 -84zM330 791q109 1 172 71t63 172t-64 171t-170 70q-105 1 -169 -68t-65 -172t61 -173t172 -71z" />
    <glyph glyph-name="plusminus" unicode="&#xb1;" horiz-adv-x="706" 
d="M270 76v811q0 12 -13 20t-73 13l-86 8l-6 30h520l-6 -30l-88 -8q-82 -2 -82 -37v-811q0 -12 14 -20t72 -13l86 -8l6 -31h-520l6 31l88 8q41 4 62 11q20 7 20 26z" />
    <glyph glyph-name="acute" unicode="&#xb4;" 
d="M487 1401h199l-367 -383h-22z" />
    <glyph glyph-name="paragraph" unicode="&#xb6;" horiz-adv-x="925" 
d="M555 518q-233 0 -363 104t-131 286q0 184 127 278t357 94h254v-1346h-45v601q-116 -17 -199 -17z" />
    <glyph glyph-name="periodcentered" unicode="&#xb7;" horiz-adv-x="432" 
d="M216 334q-56 0 -93 38t-37 88t37 87t93 37t91 -37t35 -87t-35 -88t-91 -38z" />
    <glyph glyph-name="cedilla" unicode="&#xb8;" 
d="M502 -346q0 122 -175 121q-75 0 -132 -21v23l208 231h43l-124 -137q128 16 214 -31q87 -47 87 -131q0 -110 -131 -177q-90 -46 -293 -79l-11 23q147 29 231 69q83 41 83 109z" />
    <glyph glyph-name="ordmasculine" unicode="&#xba;" horiz-adv-x="802" 
d="M666 688q-104 -104 -265 -104t-266 103q-106 103 -105 254q2 151 108 257t264 107t262 -103t104 -257t-102 -257zM207 958q0 -344 204 -344q76 0 128 91q53 91 53 202q0 238 -74 312q-49 53 -110 53q-103 0 -152 -91q-49 -90 -49 -223z" />
    <glyph glyph-name="guillemotright" unicode="&#xbb;" horiz-adv-x="925" 
d="M45 115l277 340l-277 340l10 18l445 -340v-39l-445 -338zM434 135l271 320l-271 317l10 19l445 -318v-39l-445 -317z" />
    <glyph glyph-name="questiondown" unicode="&#xbf;" horiz-adv-x="651" 
d="M586 57q0 -86 -158 -86t-262 116q-105 116 -105 259q0 107 41 157q44 55 223 131q103 43 103 114q0 49 -28 86t-68 77h33q46 -33 101 -106q54 -73 54 -123q0 -93 -51 -136q-36 -32 -152 -82t-164 -80q-49 -30 -49 -69q-1 -78 77 -131t235 -53q74 0 145 19q25 -35 25 -93z
M356 1071q-53 0 -87 35q-33 35 -33 83t33 85q34 37 87 37t89 -37t36 -85t-36 -83t-89 -35z" />
    <glyph glyph-name="Agrave" unicode="&#xc0;" horiz-adv-x="1263" 
d="M303 1743h197l190 -383h-20zM569 1085h-6q-51 -143 -79 -224t-44 -127t-28 -82t-21 -58l-8 -23h344zM299 328q-62 -175 -52 -216q9 -41 40 -54t88 -19l55 -8l6 -31h-452l6 31l39 6q43 6 71 20q56 28 121 192q35 87 90 240l228 639l-17 66q60 23 117 86q16 18 23 33h24
l352 -1082q38 -120 59 -147t41 -35t52 -10l72 -8l6 -31h-574l6 31l76 8q72 4 79 51t-28 158l-88 282h-368z" />
    <glyph glyph-name="Aacute" unicode="&#xc1;" horiz-adv-x="1263" 
d="M748 1743h198l-366 -383h-23zM569 1085h-6q-51 -143 -79 -224t-44 -127t-28 -82t-21 -58l-8 -23h344zM299 328q-62 -175 -52 -216q9 -41 40 -54t88 -19l55 -8l6 -31h-452l6 31l39 6q43 6 71 20q56 28 121 192q35 87 90 240l228 639l-17 66q60 23 117 86q16 18 23 33h24
l352 -1082q38 -120 59 -147t41 -35t52 -10l72 -8l6 -31h-574l6 31l76 8q72 4 79 51t-28 158l-88 282h-368z" />
    <glyph glyph-name="Acircumflex" unicode="&#xc2;" horiz-adv-x="1263" 
d="M631 1741h31l272 -398h-25l-260 226h-4l-264 -226h-23zM569 1085h-6q-51 -143 -79 -224t-44 -127t-28 -82t-21 -58l-8 -23h344zM299 328q-62 -175 -52 -216q9 -41 40 -54t88 -19l55 -8l6 -31h-452l6 31l39 6q43 6 71 20q56 28 121 192q35 87 90 240l228 639l-17 66
q60 23 117 86q16 18 23 33h24l352 -1082q38 -120 59 -147t41 -35t52 -10l72 -8l6 -31h-574l6 31l76 8q72 4 79 51t-28 158l-88 282h-368z" />
    <glyph glyph-name="Atilde" unicode="&#xc3;" horiz-adv-x="1263" 
d="M368 1565q36 53 108 53t191 -66t157 -67q38 0 63 20t39 97h24q-14 -120 -50 -174t-111 -54t-190 66q-115 67 -155 67t-64 -19t-38 -97h-25q15 121 51 174zM569 1085h-6q-51 -143 -79 -224t-44 -127t-28 -82t-21 -58l-8 -23h344zM299 328q-62 -175 -52 -216q9 -41 40 -54
t88 -19l55 -8l6 -31h-452l6 31l39 6q43 6 71 20q56 28 121 192q35 87 90 240l228 639l-17 66q60 23 117 86q16 18 23 33h24l352 -1082q38 -120 59 -147t41 -35t52 -10l72 -8l6 -31h-574l6 31l76 8q72 4 79 51t-28 158l-88 282h-368z" />
    <glyph glyph-name="Adieresis" unicode="&#xc4;" horiz-adv-x="1263" 
d="M444 1407q-57 0 -85 38t-27 75q0 38 28 78t84 40q57 0 84 -41t27 -77t-27 -75q-27 -38 -84 -38zM825 1407q-57 0 -85 38t-27 75q-1 38 27 78t85 40t84 -41t27 -77t-27 -75q-27 -38 -84 -38zM569 1085h-6q-51 -143 -79 -224t-44 -127t-28 -82t-21 -58l-8 -23h344zM299 328
q-62 -175 -52 -216q9 -41 40 -54t88 -19l55 -8l6 -31h-452l6 31l39 6q43 6 71 20q56 28 121 192q35 87 90 240l228 639l-17 66q60 23 117 86q16 18 23 33h24l352 -1082q38 -120 59 -147t41 -35t52 -10l72 -8l6 -31h-574l6 31l76 8q72 4 79 51t-28 158l-88 282h-368z" />
    <glyph glyph-name="Aring" unicode="&#xc5;" horiz-adv-x="1263" 
d="M727 571l-158 516h-6l-180 -516h344zM635 1616q86 0 134 -54t48 -120t-31 -114q-31 -46 -84 -64l336 -1033q38 -120 59 -147t41 -35t52 -10l72 -8l6 -31h-574l6 31l76 8q72 4 79 51t-28 158l-86 278h-374l-68 -198q-62 -175 -52 -216q9 -41 40 -54t88 -19l55 -8l6 -31
h-452l6 31l39 6q43 6 71 20q56 28 121 192q35 87 90 240l275 768q-66 19 -100 67t-34 116t49 122q48 54 134 54zM485 1431q0 -61 39 -107t110 -46q70 0 110 45t40 107t-40 110q-40 47 -110 47t-110 -47q-39 -47 -39 -109z" />
    <glyph glyph-name="AE" unicode="&#xc6;" horiz-adv-x="1722" 
d="M1141 1241h-158v-565l61 2q149 4 189 23q41 17 58 43t32 69l20 61l33 -2l-43 -436l-30 2l-7 60q-2 44 -13 70q-20 47 -119 61q-50 6 -132 8l-49 2v-594l156 -6q304 0 403 177q29 52 53 112l23 75l39 -2l-62 -401h-995l6 31l105 12q80 7 82 37v446h-396l-106 -190
q-90 -164 -88 -224q0 -34 21 -51q22 -16 65 -22l61 -8l6 -31h-462l6 31l69 10q65 8 128 80t177 278l418 738q29 52 16 67q-22 27 -114 35l-72 6l-6 35h1053l18 -393h-35l-22 78q-23 69 -41 119q-38 108 -161 140q-67 17 -187 17zM793 571v648h-9l-362 -648h371z" />
    <glyph glyph-name="Ccedilla" unicode="&#xc7;" horiz-adv-x="1398" 
d="M897 -346q0 122 -175 121q-75 0 -132 -21v23l174 192q-310 8 -503 188q-193 179 -193 479q0 299 205 487t530 188q123 0 274 -49q37 -12 60 -25l133 49l4 -405h-37l-150 313q-99 74 -290 76q-236 0 -376 -177t-139 -451q1 -275 148 -454q148 -178 375 -178q145 0 235 62
t168 174l62 147h39l-66 -348l-78 -4q-82 -37 -196 -53q-113 -17 -162 -19l-90 -98q130 16 215 -31q86 -47 86 -131q0 -110 -131 -177q-91 -46 -293 -79l-10 23q147 30 230 70t83 108z" />
    <glyph glyph-name="Egrave" unicode="&#xc8;" horiz-adv-x="1214" 
d="M291 1743h196l191 -383h-21zM233 74v1138q0 12 -17 18t-87 13l-61 6l-7 31h990l20 -393h-39l-20 78q-22 67 -46 119q-48 105 -182 141q-72 18 -190 18h-166v-567l82 2q151 4 195 23q45 17 64 43t34 69l20 61l35 -2l-43 -436l-35 2l-6 60q-4 84 -60 110q-56 25 -216 29
l-70 2v-594l193 -6q302 0 401 177q29 52 53 112l25 75l41 -2l-64 -401h-1018l7 31l71 8q96 8 96 35z" />
    <glyph glyph-name="Eacute" unicode="&#xc9;" horiz-adv-x="1214" 
d="M741 1743h199l-367 -383h-22zM233 74v1138q0 12 -17 18t-87 13l-61 6l-7 31h990l20 -393h-39l-20 78q-22 67 -46 119q-48 105 -182 141q-72 18 -190 18h-166v-567l82 2q151 4 195 23q45 17 64 43t34 69l20 61l35 -2l-43 -436l-35 2l-6 60q-4 84 -60 110q-56 25 -216 29
l-70 2v-594l193 -6q302 0 401 177q29 52 53 112l25 75l41 -2l-64 -401h-1018l7 31l71 8q96 8 96 35z" />
    <glyph glyph-name="Ecircumflex" unicode="&#xca;" horiz-adv-x="1214" 
d="M594 1741h31l272 -398h-25l-260 226h-4l-264 -226h-22zM233 74v1138q0 12 -17 18t-87 13l-61 6l-7 31h990l20 -393h-39l-20 78q-22 67 -46 119q-48 105 -182 141q-72 18 -190 18h-166v-567l82 2q151 4 195 23q45 17 64 43t34 69l20 61l35 -2l-43 -436l-35 2l-6 60
q-4 84 -60 110q-56 25 -216 29l-70 2v-594l193 -6q302 0 401 177q29 52 53 112l25 75l41 -2l-64 -401h-1018l7 31l71 8q96 8 96 35z" />
    <glyph glyph-name="Edieresis" unicode="&#xcb;" horiz-adv-x="1214" 
d="M414 1407q-57 0 -85 38t-28 75q0 38 28 78t85 40t84 -41q51 -77 0 -152q-27 -38 -84 -38zM795 1407q-57 0 -85 38t-28 75q0 38 28 78t85 40t84 -41q51 -77 0 -152q-27 -38 -84 -38zM233 74v1138q0 12 -17 18t-87 13l-61 6l-7 31h990l20 -393h-39l-20 78q-22 67 -46 119
q-48 105 -182 141q-72 18 -190 18h-166v-567l82 2q151 4 195 23q45 17 64 43t34 69l20 61l35 -2l-43 -436l-35 2l-6 60q-4 84 -60 110q-56 25 -216 29l-70 2v-594l193 -6q302 0 401 177q29 52 53 112l25 75l41 -2l-64 -401h-1018l7 31l71 8q96 8 96 35z" />
    <glyph glyph-name="Igrave" unicode="&#xcc;" horiz-adv-x="704" 
d="M33 1743h196l191 -383h-21zM256 74v1138q0 12 -17 18t-87 13l-74 6l-6 31h563l-6 -31l-88 -8q-90 -7 -90 -35v-1138q0 -12 17 -18t87 -13l72 -6l6 -31h-563l6 31l90 8q90 7 90 35z" />
    <glyph glyph-name="Iacute" unicode="&#xcd;" horiz-adv-x="704" 
d="M467 1743h199l-367 -383h-23zM256 74v1138q0 12 -17 18t-87 13l-74 6l-6 31h563l-6 -31l-88 -8q-90 -7 -90 -35v-1138q0 -12 17 -18t87 -13l72 -6l6 -31h-563l6 31l90 8q90 7 90 35z" />
    <glyph glyph-name="Icircumflex" unicode="&#xce;" horiz-adv-x="704" 
d="M340 1741h31l272 -398h-25l-260 226h-4l-264 -226h-22zM256 74v1138q0 12 -17 18t-87 13l-74 6l-6 31h563l-6 -31l-88 -8q-90 -7 -90 -35v-1138q0 -12 17 -18t87 -13l72 -6l6 -31h-563l6 31l90 8q90 7 90 35z" />
    <glyph glyph-name="Idieresis" unicode="&#xcf;" horiz-adv-x="704" 
d="M168 1407q-57 0 -85 38t-28 75q0 38 28 78t85 40t84 -41t27 -77t-27 -75q-27 -38 -84 -38zM549 1407q-57 0 -85 38t-28 75q0 38 28 78t85 40t84 -41q51 -77 0 -152q-27 -38 -84 -38zM256 74v1138q0 12 -17 18t-87 13l-74 6l-6 31h563l-6 -31l-88 -8q-90 -7 -90 -35v-1138
q0 -12 17 -18t87 -13l72 -6l6 -31h-563l6 31l90 8q90 7 90 35z" />
    <glyph glyph-name="Eth" unicode="&#xd0;" horiz-adv-x="1368" 
d="M233 668v536q0 23 -98 35l-88 10l-6 31l518 6q353 8 552 -165q198 -173 198 -460t-205 -474t-588 -187h-477l6 31l105 12q83 7 83 37v545h-192l6 43h186zM424 625v-545l139 -41q256 0 399 168q142 168 142 425q0 258 -146 435q-146 176 -436 176h-98v-575h291l6 -43h-297
z" />
    <glyph glyph-name="Ntilde" unicode="&#xd1;" horiz-adv-x="1429" 
d="M561 1507q-39 0 -63 -19t-39 -97h-25q16 121 51 174t108 53t192 -67q46 -26 86 -46t74 -20t59 20t38 97h25q-14 -120 -50 -174t-111 -54t-190 66q-116 66 -155 67zM279 1114h-5l2 -899q0 -97 30 -133q30 -35 116 -43l57 -8l6 -31h-442l6 31l57 8q73 9 92 34q35 46 35 146
l7 883q-44 118 -160 141l-47 8l-6 31h368l768 -991l4 2l-2 772q0 98 -23 126q-23 27 -51 37t-71 13l-57 8l-7 31h443l-6 -31l-58 -8q-68 -4 -97 -41q-28 -37 -30 -139l-4 -1073h-43z" />
    <glyph glyph-name="Ograve" unicode="&#xd2;" horiz-adv-x="1505" 
d="M446 1743h197l191 -383h-21zM743 -31q-293 0 -484 186t-191 478q0 131 53 253t147 216t220 150t272 56q292 1 484 -184t194 -481q0 -131 -54 -253q-111 -254 -368 -365q-128 -56 -273 -56zM758 8q207 0 335 171t128 456t-137 460t-341 175t-333 -171t-128 -456t135 -460
t341 -175z" />
    <glyph glyph-name="Oacute" unicode="&#xd3;" horiz-adv-x="1505" 
d="M858 1743h199l-367 -383h-22zM743 -31q-293 0 -484 186t-191 478q0 131 53 253t147 216t220 150t272 56q292 1 484 -184t194 -481q0 -131 -54 -253q-111 -254 -368 -365q-128 -56 -273 -56zM758 8q207 0 335 171t128 456t-137 460t-341 175t-333 -171t-128 -456t135 -460
t341 -175z" />
    <glyph glyph-name="Ocircumflex" unicode="&#xd4;" horiz-adv-x="1505" 
d="M741 1741h31l272 -398h-24l-260 226h-4l-264 -226h-23zM743 -31q-293 0 -484 186t-191 478q0 131 53 253t147 216t220 150t272 56q292 1 484 -184t194 -481q0 -131 -54 -253q-111 -254 -368 -365q-128 -56 -273 -56zM758 8q207 0 335 171t128 456t-137 460t-341 175
t-333 -171t-128 -456t135 -460t341 -175z" />
    <glyph glyph-name="Otilde" unicode="&#xd5;" horiz-adv-x="1505" 
d="M569 1507q-39 0 -63 -19t-39 -97h-25q16 121 52 174t107 53q72 0 191 -66t157 -67q38 0 63 20t39 97h24q-14 -120 -50 -174t-111 -54t-190 66q-116 66 -155 67zM743 -31q-293 0 -484 186t-191 478q0 131 53 253t147 216t220 150t272 56q292 1 484 -184t194 -481
q0 -131 -54 -253q-111 -254 -368 -365q-128 -56 -273 -56zM758 8q207 0 335 171t128 456t-137 460t-341 175t-333 -171t-128 -456t135 -460t341 -175z" />
    <glyph glyph-name="Odieresis" unicode="&#xd6;" horiz-adv-x="1505" 
d="M569 1407q-57 0 -85 38t-27 75q-1 38 27 78t85 40t84 -41t27 -77t-27 -75q-27 -38 -84 -38zM950 1407q-57 0 -85 38t-27 75q0 38 28 78t84 40q57 0 84 -41t27 -77t-27 -75q-27 -38 -84 -38zM743 -31q-293 0 -484 186t-191 478q0 131 53 253t147 216t220 150t272 56
q292 1 484 -184t194 -481q0 -131 -54 -253q-111 -254 -368 -365q-128 -56 -273 -56zM758 8q207 0 335 171t128 456t-137 460t-341 175t-333 -171t-128 -456t135 -460t341 -175z" />
    <glyph glyph-name="Oslash" unicode="&#xd8;" horiz-adv-x="1505" 
d="M68 633q0 131 53 253t147 216t220 150t288 56t305 -71l101 174h45l-111 -192q146 -85 234 -233t88 -343q0 -131 -54 -253t-147 -216q-94 -94 -221 -149t-282 -55t-304 67l-106 -187h-45l116 203q-151 85 -239 233t-88 347zM756 8q209 0 337 171t128 465t-160 480
l-584 -1007q121 -109 279 -109zM745 1270q-207 0 -335 -173q-129 -173 -128 -473t167 -479l583 1008q-126 117 -287 117z" />
    <glyph glyph-name="Ugrave" unicode="&#xd9;" horiz-adv-x="1421" 
d="M430 1743h197l190 -383h-20zM727 -29q-262 0 -383 111t-121 362v770q0 10 -17 16t-87 13l-82 8l-6 31h579l-6 -31l-96 -8q-90 -7 -90 -35v-719q0 -231 96 -333t278 -102t282 111q101 112 102 333l-2 567q0 97 -31 134q-31 36 -117 44l-57 8l-6 31h444l-6 -31l-60 -8
q-70 -8 -97 -44q-27 -35 -27 -138l-5 -574q0 -376 -265 -480q-91 -36 -220 -36z" />
    <glyph glyph-name="Uacute" unicode="&#xda;" horiz-adv-x="1421" 
d="M852 1743h199l-367 -383h-22zM727 -29q-262 0 -383 111t-121 362v770q0 10 -17 16t-87 13l-82 8l-6 31h579l-6 -31l-96 -8q-90 -7 -90 -35v-719q0 -231 96 -333t278 -102t282 111q101 112 102 333l-2 567q0 97 -31 134q-31 36 -117 44l-57 8l-6 31h444l-6 -31l-60 -8
q-70 -8 -97 -44q-27 -35 -27 -138l-5 -574q0 -376 -265 -480q-91 -36 -220 -36z" />
    <glyph glyph-name="Ucircumflex" unicode="&#xdb;" horiz-adv-x="1421" 
d="M725 1741h31l272 -398h-24l-261 226h-4l-264 -226h-22zM727 -29q-262 0 -383 111t-121 362v770q0 10 -17 16t-87 13l-82 8l-6 31h579l-6 -31l-96 -8q-90 -7 -90 -35v-719q0 -231 96 -333t278 -102t282 111q101 112 102 333l-2 567q0 97 -31 134q-31 36 -117 44l-57 8
l-6 31h444l-6 -31l-60 -8q-70 -8 -97 -44q-27 -35 -27 -138l-5 -574q0 -376 -265 -480q-91 -36 -220 -36z" />
    <glyph glyph-name="Udieresis" unicode="&#xdc;" horiz-adv-x="1421" 
d="M582 1407q-57 0 -85 38t-28 75q0 38 28 78t85 40t84 -41q51 -77 0 -152q-27 -38 -84 -38zM963 1407q-57 0 -85 38t-28 75q0 38 28 78t85 40t84 -41q51 -77 0 -152q-27 -38 -84 -38zM727 -29q-262 0 -383 111t-121 362v770q0 10 -17 16t-87 13l-82 8l-6 31h579l-6 -31
l-96 -8q-90 -7 -90 -35v-719q0 -231 96 -333t278 -102t282 111q101 112 102 333l-2 567q0 97 -31 134q-31 36 -117 44l-57 8l-6 31h444l-6 -31l-60 -8q-70 -8 -97 -44q-27 -35 -27 -138l-5 -574q0 -376 -265 -480q-91 -36 -220 -36z" />
    <glyph glyph-name="Yacute" unicode="&#xdd;" horiz-adv-x="1265" 
d="M784 1743h199l-367 -383h-22zM733 68q1 -12 19 -18t88 -13l92 -6l6 -31h-604l6 31l109 8q87 7 90 35v487l-320 551q-39 70 -73 98t-89 31l-61 8l-6 31h559l-6 -31l-58 -4q-80 -6 -81 -46t55 -136l243 -432h5l192 356q76 143 74 182q-2 38 -27 53t-72 21l-47 6l-6 31h430
l-6 -31l-47 -6q-61 -8 -99 -44q-67 -64 -141 -200l-225 -407v-524z" />
    <glyph glyph-name="Thorn" unicode="&#xde;" horiz-adv-x="1155" 
d="M608 297q-93 0 -180 14v-243q0 -12 17 -20t87 -11l107 -6l6 -31h-606l6 31l98 8q90 7 90 35v1138q0 12 -17 18t-87 13l-82 6l-6 31h580l-7 -31l-96 -8q-90 -10 -90 -35v-186h104q37 0 76 -2q239 0 367 -94q119 -91 119 -251q0 -159 -143 -267q-67 -50 -159 -80
q-92 -29 -184 -29zM594 340q135 0 213 86t78 232t-80 236q-80 89 -258 87h-55q-27 0 -64 -2v-619q88 -20 166 -20z" />
    <glyph glyph-name="germandbls" unicode="&#xdf;" horiz-adv-x="1054" 
d="M465 130q0 60 33 95t86 35t79 -32q25 -32 23 -70t-27 -68q-25 -31 -71 -29q8 -14 35 -32t69 -19q78 0 127 60t49 147q0 257 -226 468q-75 71 -173 128v21q135 22 201 88t66 177t-56 172q-55 62 -147 62q-93 0 -139 -76t-46 -247v-1008h-301l6 29l47 4q41 4 59 9
q17 5 17 24v725l-162 4l31 84l131 2l2 45q20 215 122 333q102 117 263 117q160 0 251 -72t91 -186t-70 -177q-71 -62 -173 -91q130 -71 244 -214t114 -290t-98 -260q-100 -113 -236 -113q-90 0 -156 48q-65 47 -65 107z" />
    <glyph glyph-name="agrave" unicode="&#xe0;" horiz-adv-x="868" 
d="M131 1401h197l190 -383h-20zM772 80q37 0 90 51l19 -18q-54 -68 -100 -103q-45 -35 -97 -35q-129 0 -141 152l-4 2q-135 -151 -241 -151q-62 0 -102 16q-134 55 -137 192q0 112 108 189t384 141l2 51q7 281 -201 281q-82 0 -139 -41q-14 -10 -14 -16q0 -7 8 -17
q43 -56 43 -92q0 -37 -27 -65q-27 -27 -73 -27t-74 26q-29 26 -29 63q0 38 41 79q91 91 232 133t267 4q108 -32 133 -164q13 -68 7 -172l-18 -379q-6 -100 63 -100zM365 86q49 0 88 16t86 62l12 319q-268 -63 -307 -173q-12 -34 -12 -87t42 -95t91 -42z" />
    <glyph glyph-name="aacute" unicode="&#xe1;" horiz-adv-x="868" 
d="M541 1401h198l-366 -383h-23zM772 80q37 0 90 51l19 -18q-54 -68 -100 -103q-45 -35 -97 -35q-129 0 -141 152l-4 2q-135 -151 -241 -151q-62 0 -102 16q-134 55 -137 192q0 112 108 189t384 141l2 51q7 281 -201 281q-82 0 -139 -41q-14 -10 -14 -16q0 -7 8 -17
q43 -56 43 -92q0 -37 -27 -65q-27 -27 -73 -27t-74 26q-29 26 -29 63q0 38 41 79q91 91 232 133t267 4q108 -32 133 -164q13 -68 7 -172l-18 -379q-6 -100 63 -100zM365 86q49 0 88 16t86 62l12 319q-268 -63 -307 -173q-12 -34 -12 -87t42 -95t91 -42z" />
    <glyph glyph-name="acircumflex" unicode="&#xe2;" horiz-adv-x="868" 
d="M399 1399h31l272 -398h-24l-260 226h-4l-264 -226h-23zM772 80q37 0 90 51l19 -18q-54 -68 -100 -103q-45 -35 -97 -35q-129 0 -141 152l-4 2q-135 -151 -241 -151q-62 0 -102 16q-134 55 -137 192q0 112 108 189t384 141l2 51q7 281 -201 281q-82 0 -139 -41
q-14 -10 -14 -16q0 -7 8 -17q43 -56 43 -92q0 -37 -27 -65q-27 -27 -73 -27t-74 26q-29 26 -29 63q0 38 41 79q91 91 232 133t267 4q108 -32 133 -164q13 -68 7 -172l-18 -379q-6 -100 63 -100zM365 86q49 0 88 16t86 62l12 319q-268 -63 -307 -173q-12 -34 -12 -87t42 -95
t91 -42z" />
    <glyph glyph-name="atilde" unicode="&#xe3;" horiz-adv-x="868" 
d="M150 1223q36 53 107 53q72 0 191 -66t157 -67q38 0 63 20t39 97h24q-14 -120 -50 -174t-111 -54t-190 66q-115 67 -155 67q-39 0 -63 -19t-39 -97h-25q16 121 52 174zM772 80q37 0 90 51l19 -18q-54 -68 -100 -103q-45 -35 -97 -35q-129 0 -141 152l-4 2
q-135 -151 -241 -151q-62 0 -102 16q-134 55 -137 192q0 112 108 189t384 141l2 51q7 281 -201 281q-82 0 -139 -41q-14 -10 -14 -16q0 -7 8 -17q43 -56 43 -92q0 -37 -27 -65q-27 -27 -73 -27t-74 26q-29 26 -29 63q0 38 41 79q91 91 232 133t267 4q108 -32 133 -164
q13 -68 7 -172l-18 -379q-6 -100 63 -100zM365 86q49 0 88 16t86 62l12 319q-268 -63 -307 -173q-12 -34 -12 -87t42 -95t91 -42z" />
    <glyph glyph-name="adieresis" unicode="&#xe4;" horiz-adv-x="868" 
d="M217 1065q-57 0 -85 38t-28 75q0 38 28 78t85 40t84 -41t27 -77t-27 -75q-27 -38 -84 -38zM598 1065q-57 0 -85 38t-28 75q0 38 28 78t85 40t84 -41t27 -77t-27 -75q-27 -38 -84 -38zM772 80q37 0 90 51l19 -18q-54 -68 -100 -103q-45 -35 -97 -35q-129 0 -141 152l-4 2
q-135 -151 -241 -151q-62 0 -102 16q-134 55 -137 192q0 112 108 189t384 141l2 51q7 281 -201 281q-82 0 -139 -41q-14 -10 -14 -16q0 -7 8 -17q43 -56 43 -92q0 -37 -27 -65q-27 -27 -73 -27t-74 26q-29 26 -29 63q0 38 41 79q91 91 232 133t267 4q108 -32 133 -164
q13 -68 7 -172l-18 -379q-6 -100 63 -100zM365 86q49 0 88 16t86 62l12 319q-268 -63 -307 -173q-12 -34 -12 -87t42 -95t91 -42z" />
    <glyph glyph-name="aring" unicode="&#xe5;" horiz-adv-x="868" 
d="M426 1032q-86 0 -134 54t-48 130t48 130q48 55 134 55t134 -55t48 -130q0 -76 -48 -130t-134 -54zM276 1216q0 -62 39 -108t110 -47q71 0 110 46q39 47 39 109t-39 108t-110 46t-110 -46t-39 -108zM772 80q37 0 90 51l19 -18q-54 -68 -100 -103q-45 -35 -97 -35
q-129 0 -141 152l-4 2q-135 -151 -241 -151q-62 0 -102 16q-134 55 -137 192q0 112 108 189t384 141l2 51q7 281 -201 281q-82 0 -139 -41q-14 -10 -14 -16q0 -7 8 -17q43 -56 43 -92q0 -37 -27 -65q-27 -27 -73 -27t-74 26q-29 26 -29 63q0 38 41 79q91 91 232 133t267 4
q108 -32 133 -164q13 -68 7 -172l-18 -379q-6 -100 63 -100zM365 86q49 0 88 16t86 62l12 319q-268 -63 -307 -173q-12 -34 -12 -87t42 -95t91 -42z" />
    <glyph glyph-name="ae" unicode="&#xe6;" horiz-adv-x="1386" 
d="M436 28q-72 -56 -158 -57q-87 0 -152 61t-66 132q-1 70 22 118q73 151 469 234l2 53q8 152 -50 215t-151 64q-82 0 -139 -41q-14 -10 -14 -16q0 -7 8 -17q43 -56 43 -92q0 -37 -27 -65q-27 -27 -73 -27t-74 26q-29 26 -29 63q0 38 40 79q88 90 237 132q74 22 152 22
q168 -1 216 -124q129 125 294 124t252 -81t87 -208q0 -23 -6 -54q-164 0 -291 2l-201 2h-96q-4 -32 -4 -102q0 -69 25 -141q51 -146 166 -202q58 -28 132 -28t141 30t124 116l22 -13q-147 -262 -383 -262q-123 -1 -214 59t-138 152q-94 -98 -166 -154zM545 424q0 29 4 57
q-266 -66 -305 -177q-12 -34 -12 -86t42 -96q42 -42 98 -42t97 26t117 105q-41 107 -41 213zM938 608l139 2h62q7 180 -89 243q-32 21 -76 21q-83 -1 -150 -75t-89 -193q113 0 203 2z" />
    <glyph glyph-name="ccedilla" unicode="&#xe7;" horiz-adv-x="854" 
d="M600 -346q0 122 -175 121q-75 0 -132 -21v23l176 194h-12q-176 0 -293 128t-117 326t131 342t336 144q129 0 216 -54t85 -136q0 -49 -32 -78q-33 -29 -77 -29t-75 38t-29 80t16 60t15 27q-6 19 -44 37t-88 18q-49 0 -101 -28q-107 -57 -149 -198q-22 -72 -22 -158
q0 -172 90 -281t228 -109q80 0 142 30t118 116l24 -13q-121 -228 -315 -258l-96 -104q130 16 215 -31q86 -47 86 -131q0 -110 -131 -177q-91 -46 -293 -79l-10 23q147 30 230 70t83 108z" />
    <glyph glyph-name="egrave" unicode="&#xe8;" horiz-adv-x="888" 
d="M172 1401h197l190 -383h-20zM459 -29q-178 0 -295 128t-117 327q0 200 128 343q128 142 327 142q154 0 240 -80t87 -208q0 -23 -6 -54l-587 4q-7 -28 -7 -100q0 -71 25 -143t67 -123q88 -107 226 -107q81 0 147 30t123 116l23 -13q-147 -262 -381 -262zM442 608h201
q0 185 -91 245q-32 21 -75 21q-83 -1 -149 -75t-88 -193q115 2 202 2z" />
    <glyph glyph-name="eacute" unicode="&#xe9;" horiz-adv-x="888" 
d="M569 1401h199l-367 -383h-22zM459 -29q-178 0 -295 128t-117 327q0 200 128 343q128 142 327 142q154 0 240 -80t87 -208q0 -23 -6 -54l-587 4q-7 -28 -7 -100q0 -71 25 -143t67 -123q88 -107 226 -107q81 0 147 30t123 116l23 -13q-147 -262 -381 -262zM442 608h201
q0 185 -91 245q-32 21 -75 21q-83 -1 -149 -75t-88 -193q115 2 202 2z" />
    <glyph glyph-name="ecircumflex" unicode="&#xea;" horiz-adv-x="888" 
d="M455 1399h30l273 -398h-25l-260 226h-4l-264 -226h-23zM459 -29q-178 0 -295 128t-117 327q0 200 128 343q128 142 327 142q154 0 240 -80t87 -208q0 -23 -6 -54l-587 4q-7 -28 -7 -100q0 -71 25 -143t67 -123q88 -107 226 -107q81 0 147 30t123 116l23 -13
q-147 -262 -381 -262zM442 608h201q0 185 -91 245q-32 21 -75 21q-83 -1 -149 -75t-88 -193q115 2 202 2z" />
    <glyph glyph-name="edieresis" unicode="&#xeb;" horiz-adv-x="888" 
d="M266 1065q-57 0 -85 38t-27 75q0 38 28 78t84 40q57 0 84 -41t27 -77t-27 -75q-27 -38 -84 -38zM647 1065q-57 0 -85 38t-27 75q-1 38 27 78t85 40t84 -41t27 -77t-27 -75q-27 -38 -84 -38zM459 -29q-178 0 -295 128t-117 327q0 200 128 343q128 142 327 142
q154 0 240 -80t87 -208q0 -23 -6 -54l-587 4q-7 -28 -7 -100q0 -71 25 -143t67 -123q88 -107 226 -107q81 0 147 30t123 116l23 -13q-147 -262 -381 -262zM442 608h201q0 185 -91 245q-32 21 -75 21q-83 -1 -149 -75t-88 -193q115 2 202 2z" />
    <glyph glyph-name="igrave" unicode="&#xec;" horiz-adv-x="499" 
d="M-49 1401h196l191 -383h-21zM168 68v565q0 94 -12 116q-12 23 -30 31t-44 15l-47 10l2 22l301 80v-844q0 -14 16 -20t80 -10l37 -2l6 -31h-440l6 31l43 2q45 4 64 10q18 6 18 25z" />
    <glyph glyph-name="iacute" unicode="&#xed;" horiz-adv-x="499" 
d="M365 1401h198l-366 -383h-23zM168 68v565q0 94 -12 116q-12 23 -30 31t-44 15l-47 10l2 22l301 80v-844q0 -14 16 -20t80 -10l37 -2l6 -31h-440l6 31l43 2q45 4 64 10q18 6 18 25z" />
    <glyph glyph-name="icircumflex" unicode="&#xee;" horiz-adv-x="499" 
d="M168 68v565q0 94 -12 116q-12 23 -30 31t-44 15l-47 10l2 22l301 80v-844q0 -14 16 -20t80 -10l37 -2l6 -31h-440l6 31l43 2q45 4 64 10q18 6 18 25zM248 1399h31l243 -398h-24l-234 226h-4l-233 -226h-25z" />
    <glyph glyph-name="idieresis" unicode="&#xef;" horiz-adv-x="499" 
d="M76 1065q-57 0 -85 38t-28 75q0 38 28 78t85 40t84 -41q51 -77 0 -152q-27 -38 -84 -38zM457 1065q-57 0 -85 38t-28 75q0 38 28 78t85 40t84 -41q51 -77 0 -152q-27 -38 -84 -38zM168 68v565q0 94 -12 116q-12 23 -30 31t-44 15l-47 10l2 22l301 80v-844q0 -14 16 -20
t80 -10l37 -2l6 -31h-440l6 31l43 2q45 4 64 10q18 6 18 25z" />
    <glyph glyph-name="eth" unicode="&#xf0;" horiz-adv-x="1003" 
d="M963 494q0 -104 -33 -202q-69 -202 -239 -281q-85 -40 -187 -40t-186 36q-167 71 -237 246q-34 85 -34 187q0 204 125 335q125 132 320 132q113 0 192 -37q-85 170 -223 269l-281 -90l4 45l232 75q-118 72 -271 103l11 28q184 -18 352 -100l254 82l4 -43l-207 -68
q287 -167 377 -479q27 -94 27 -198zM506 10q124 0 190 104t66 298q0 316 -156 427q-49 34 -110 33q-119 0 -185 -105q-65 -105 -65 -306t68 -326t192 -125z" />
    <glyph glyph-name="ntilde" unicode="&#xf1;" horiz-adv-x="1058" 
d="M352 1165q-40 0 -64 -19t-38 -97h-25q16 121 51 174t107 53t192 -66q119 -66 157 -67q38 0 63 20t39 97h24q-14 -120 -50 -174t-111 -54t-190 66q-116 66 -155 67zM682 909q229 0 229 -272v-571q0 -13 14 -19t85 -14l34 -2l7 -31h-437l7 31l41 2q51 4 64 12t13 23v516
q0 112 -45 156t-151 44t-205 -84v-637q0 -14 16 -20t78 -10l43 -2l4 -31h-442l6 31l43 2q45 4 64 10q18 6 18 25v563q0 96 -12 118q-12 23 -30 31t-44 15l-47 10l2 22l303 80l-4 -164h6q101 82 148 109q100 57 192 57z" />
    <glyph glyph-name="ograve" unicode="&#xf2;" horiz-adv-x="1032" 
d="M197 1401h196l191 -383h-21zM47 438q0 198 134 335q134 138 339 138t335 -131t130 -331t-136 -339t-338 -139t-333 134q-131 135 -131 333zM248 475q0 -282 113 -400q64 -67 170 -67q105 0 179 116t74 264q0 299 -110 415q-73 73 -164 71q-122 0 -192 -117t-70 -282z" />
    <glyph glyph-name="oacute" unicode="&#xf3;" horiz-adv-x="1032" 
d="M635 1401h199l-367 -383h-23zM47 438q0 198 134 335q134 138 339 138t335 -131t130 -331t-136 -339t-338 -139t-333 134q-131 135 -131 333zM248 475q0 -282 113 -400q64 -67 170 -67q105 0 179 116t74 264q0 299 -110 415q-73 73 -164 71q-122 0 -192 -117t-70 -282z
" />
    <glyph glyph-name="ocircumflex" unicode="&#xf4;" horiz-adv-x="1032" 
d="M500 1399h30l273 -398h-25l-260 226h-4l-264 -226h-23zM47 438q0 198 134 335q134 138 339 138t335 -131t130 -331t-136 -339t-338 -139t-333 134q-131 135 -131 333zM248 475q0 -282 113 -400q64 -67 170 -67q105 0 179 116t74 264q0 299 -110 415q-73 73 -164 71
q-122 0 -192 -117t-70 -282z" />
    <glyph glyph-name="otilde" unicode="&#xf5;" horiz-adv-x="1032" 
d="M326 1165q-39 0 -64 -19t-39 -97h-24q16 121 51 174t108 53t192 -67q46 -26 86 -46t74 -20t58 20t39 97h24q-13 -120 -49 -174t-112 -54t-190 66q-115 66 -154 67zM47 438q0 198 134 335q134 138 339 138t335 -131t130 -331t-136 -339t-338 -139t-333 134
q-131 135 -131 333zM248 475q0 -282 113 -400q64 -67 170 -67q105 0 179 116t74 264q0 299 -110 415q-73 73 -164 71q-122 0 -192 -117t-70 -282z" />
    <glyph glyph-name="odieresis" unicode="&#xf6;" horiz-adv-x="1032" 
d="M326 1065q-57 0 -85 38t-28 75q0 38 28 78t85 40t84 -41q51 -77 0 -152q-27 -38 -84 -38zM707 1065q-57 0 -85 38t-28 75q0 38 28 78t85 40t84 -41q51 -77 0 -152q-27 -38 -84 -38zM47 438q0 198 134 335q134 138 339 138t335 -131t130 -331t-136 -339t-338 -139
t-333 134q-131 135 -131 333zM248 475q0 -282 113 -400q64 -67 170 -67q105 0 179 116t74 264q0 299 -110 415q-73 73 -164 71q-122 0 -192 -117t-70 -282z" />
    <glyph glyph-name="divide" unicode="&#xf7;" horiz-adv-x="1122" 
d="M916 848q141 -143 141 -363t-142 -365t-357 -145q-214 0 -354 143t-139 363t142 365t354 145q214 0 355 -143zM878 157q126 130 126 327q0 196 -127 327t-316 131t-316 -133q-126 -133 -126 -326q0 -194 126 -327q123 -129 315 -129t318 130z" />
    <glyph glyph-name="oslash" unicode="&#xf8;" horiz-adv-x="1032" 
d="M47 422q0 213 134 351t341 138q117 0 211 -47l191 330h39l-199 -344q104 -60 162 -164t59 -218q0 -218 -136 -358q-136 -139 -339 -139q-125 0 -225 54l-166 -287h-39l176 303q-98 61 -154 165q-56 102 -55 216zM248 450q0 -190 65 -309l375 645q-4 4 -14 19t-58 43
q-47 26 -108 26q-120 -1 -190 -117q-70 -117 -70 -307zM356 82q69 -74 175 -74q105 0 179 116t74 313q0 196 -75 319l-375 -647q5 -10 22 -27z" />
    <glyph glyph-name="ugrave" unicode="&#xf9;" horiz-adv-x="1011" 
d="M195 1401h196l191 -383h-21zM503 98q102 0 202 80v590q-1 47 -19 61t-78 19l-43 4l-6 31h318v-740q0 -29 6 -40t22 -15l111 -27l-2 -22l-307 -72v170h-5q-90 -79 -140 -107q-102 -57 -197 -58q-94 -1 -160 61q-64 68 -66 213l2 571q0 14 -14 20q-25 8 -86 11l-35 4l-6 31
h315l-6 -586q0 -111 46 -155t148 -44z" />
    <glyph glyph-name="uacute" unicode="&#xfa;" horiz-adv-x="1011" 
d="M604 1401h199l-367 -383h-22zM503 98q102 0 202 80v590q-1 47 -19 61t-78 19l-43 4l-6 31h318v-740q0 -29 6 -40t22 -15l111 -27l-2 -22l-307 -72v170h-5q-90 -79 -140 -107q-102 -57 -197 -58q-94 -1 -160 61q-64 68 -66 213l2 571q0 14 -14 20q-25 8 -86 11l-35 4
l-6 31h315l-6 -586q0 -111 46 -155t148 -44z" />
    <glyph glyph-name="ucircumflex" unicode="&#xfb;" horiz-adv-x="1011" 
d="M483 1399h31l272 -398h-24l-260 226h-4l-265 -226h-22zM503 98q102 0 202 80v590q-1 47 -19 61t-78 19l-43 4l-6 31h318v-740q0 -29 6 -40t22 -15l111 -27l-2 -22l-307 -72v170h-5q-90 -79 -140 -107q-102 -57 -197 -58q-94 -1 -160 61q-64 68 -66 213l2 571q0 14 -14 20
q-25 8 -86 11l-35 4l-6 31h315l-6 -586q0 -111 46 -155t148 -44z" />
    <glyph glyph-name="udieresis" unicode="&#xfc;" horiz-adv-x="1011" 
d="M319 1065q-57 0 -85 38t-27 75q-1 38 27 78t85 40t84 -41t27 -77t-27 -75q-27 -38 -84 -38zM700 1065q-57 0 -85 38t-27 75q0 38 28 78t84 40q57 0 84 -41t27 -77t-27 -75q-27 -38 -84 -38zM503 98q102 0 202 80v590q-1 47 -19 61t-78 19l-43 4l-6 31h318v-740
q0 -29 6 -40t22 -15l111 -27l-2 -22l-307 -72v170h-5q-90 -79 -140 -107q-102 -57 -197 -58q-94 -1 -160 61q-64 68 -66 213l2 571q0 14 -14 20q-25 8 -86 11l-35 4l-6 31h315l-6 -586q0 -111 46 -155t148 -44z" />
    <glyph glyph-name="yacute" unicode="&#xfd;" horiz-adv-x="942" 
d="M598 1401h199l-367 -383h-22zM174 -317q85 0 121 -89q35 10 57 54t49 119l74 221h-2l-336 745q-26 65 -47 86t-67 25l-41 6l-7 31h449l-6 -31l-39 -4q-51 -4 -63 -24t12 -72l229 -531l154 426q43 115 28 157q-9 22 -33 31t-69 13l-37 4l-6 31h362l-6 -31l-39 -4
q-60 -4 -82 -36t-38 -74t-43 -113l-228 -609l-86 -268q-43 -134 -95 -204t-140 -70q-53 0 -90 30t-37 76q0 45 28 75q29 30 74 30z" />
    <glyph glyph-name="thorn" unicode="&#xfe;" horiz-adv-x="1009" 
d="M281 10v-463q0 -12 16 -18t82 -10l72 -2l6 -31h-475l6 31l43 2q43 4 62 10t20 25v1632q1 35 -13 51t-53 27l-74 26l2 23l306 80v-664l6 -2q149 172 310 172t263 -122q103 -122 103 -328t-142 -342t-337 -136q-100 0 -199 39h-4zM520 14q119 0 185 110q67 110 67 280
q0 169 -76 272q-76 104 -196 103q-121 -1 -219 -111v-467q37 -75 104 -131t135 -56z" />
    <glyph glyph-name="ydieresis" unicode="&#xff;" horiz-adv-x="942" 
d="M301 1065q-57 0 -85 38t-28 75q0 38 28 78t85 40t84 -41t27 -77t-27 -75q-27 -38 -84 -38zM682 1065q-57 0 -85 38t-28 75q0 38 28 78t85 40t84 -41t27 -77t-27 -75q-27 -38 -84 -38zM174 -317q85 0 121 -89q35 10 57 54t49 119l74 221h-2l-336 745q-26 65 -47 86t-67 25
l-41 6l-7 31h449l-6 -31l-39 -4q-51 -4 -63 -24t12 -72l229 -531l154 426q43 115 28 157q-9 22 -33 31t-69 13l-37 4l-6 31h362l-6 -31l-39 -4q-60 -4 -82 -36t-38 -74t-43 -113l-228 -609l-86 -268q-43 -134 -95 -204t-140 -70q-53 0 -90 30t-37 76q0 45 28 75q29 30 74 30
z" />
    <glyph glyph-name="dotlessi" unicode="&#x131;" horiz-adv-x="499" 
d="M168 68v565q0 94 -12 116q-12 23 -30 31t-44 15l-47 10l2 22l301 80v-844q0 -14 16 -20t80 -10l37 -2l6 -31h-440l6 31l43 2q45 4 64 10q18 6 18 25z" />
    <glyph glyph-name="Lslash" unicode="&#x141;" horiz-adv-x="1148" 
d="M233 530q-1 2 -31 -8t-70 -21t-95 -30l2 45l194 59v629q0 12 -16 20t-82 15l-88 10l-6 31h600l-6 -31l-125 -12q-82 -7 -82 -37v-565l211 65l4 -43l-106 -32q-109 -32 -109 -35v-545l160 -8q217 0 304 81q44 40 72 96t56 128l24 86h46l-60 -428h-991l6 31l105 12
q83 7 83 37v450z" />
    <glyph glyph-name="lslash" unicode="&#x142;" horiz-adv-x="493" 
d="M160 1135q0 70 -13 92t-53 35l-71 24l2 23l307 84v-803q0 2 25 8t124 39l2 -43l-151 -45v-477q0 -14 15 -22t69 -11l55 -8l6 -31h-444l4 31l49 8q41 4 57 10t17 25v424l-154 -47l4 41l150 47v596z" />
    <glyph glyph-name="OE" unicode="&#x152;" horiz-adv-x="1916" 
d="M860 1280h895l21 -393h-37l-23 78q-24 69 -46 119q-48 108 -179 140q-72 17 -193 17h-155v-565l74 2q152 4 196 23q43 18 63 43q19 26 33 69l23 61l31 -2l-43 -436l-31 2l-6 60q-4 84 -61 109q-57 26 -218 30l-61 2v-594l182 -6q310 0 405 177q28 52 52 112l22 75l41 -2
l-63 -401h-967q-355 -4 -551 168t-196 455t206 470t586 187zM952 43v1163l-139 35q-257 -4 -399 -167t-142 -421t147 -434t433 -176h100z" />
    <glyph glyph-name="oe" unicode="&#x153;" horiz-adv-x="1628" 
d="M516 -29q-208 0 -338 132t-131 330q0 199 134 339q134 139 341 139q119 0 213 -47t154 -127q61 80 151 127t201 47q154 0 241 -80t87 -208q0 -23 -6 -54q-164 0 -291 2l-201 2h-98q-4 -32 -4 -102q1 -69 25 -141t66 -123q88 -107 226 -107q80 0 147 30t123 116l23 -13
q-147 -262 -383 -262q-110 0 -186 47t-133 121q-63 -78 -157 -123q-96 -45 -204 -45zM248 471q0 -270 116 -395q63 -68 168 -68t179 115q73 115 73 263q0 293 -106 413q-77 77 -168 75q-124 0 -193 -115t-69 -288zM1382 610q0 183 -91 243q-32 21 -75 21q-81 -1 -148 -75
t-89 -193q115 0 203 2l139 2h61z" />
    <glyph glyph-name="Scaron" unicode="&#x160;" horiz-adv-x="1026" 
d="M242 1769h22l264 -225h4l263 225h22l-272 -397h-31zM544 1309q116 0 255 -39l84 26l4 -356h-33l-111 256q-106 70 -217 71t-178 -64t-67 -159q0 -152 178 -233q53 -25 127 -51q179 -64 263 -143q107 -98 106 -251t-131 -274q-131 -121 -339 -121q-169 -4 -389 68l-14 323
h35l65 -167q100 -185 316 -185q120 0 200 79t80 198q0 167 -177 249q-56 26 -128 52q-169 60 -251 133q-105 94 -104 235t112 247q112 106 314 106z" />
    <glyph glyph-name="scaron" unicode="&#x161;" horiz-adv-x="759" 
d="M94 1372h23l264 -225h4l262 225h23l-273 -397h-30zM412 911q89 0 172 -34l65 22l10 -258l-38 -2l-91 178q-71 57 -147 57t-119 -40t-43 -92q1 -52 15 -78q26 -48 86 -75q61 -27 112 -47q50 -20 100 -42q168 -78 166 -240q0 -115 -94 -202t-251 -87q-156 0 -277 47
l-17 261l39 2l45 -119q81 -154 222 -154q82 0 136 48t54 123t-61 119t-167 82t-154 79q-93 78 -92 190q1 111 85 187q83 75 244 75z" />
    <glyph glyph-name="Ydieresis" unicode="&#x178;" horiz-adv-x="1265" 
d="M451 1407q-57 0 -85 38t-28 75q0 38 28 78t85 40t84 -41q51 -77 0 -152q-27 -38 -84 -38zM831 1407q-57 0 -85 38t-27 75q-1 38 27 78t85 40t84 -41t27 -77t-27 -75q-27 -38 -84 -38zM733 68q1 -12 19 -18t88 -13l92 -6l6 -31h-604l6 31l109 8q87 7 90 35v487l-320 551
q-39 70 -73 98t-89 31l-61 8l-6 31h559l-6 -31l-58 -4q-80 -6 -81 -46t55 -136l243 -432h5l192 356q76 143 74 182q-2 38 -27 53t-72 21l-47 6l-6 31h430l-6 -31l-47 -6q-61 -8 -99 -44q-67 -64 -141 -200l-225 -407v-524z" />
    <glyph glyph-name="Zcaron" unicode="&#x17d;" horiz-adv-x="1181" 
d="M315 1755h23l264 -225h4l262 225h23l-273 -397h-30zM870 1241h-221q-349 0 -443 -167q-28 -50 -48 -105l-17 -66h-37l25 377h973v-31l-801 -1204v-6h250q258 0 365 77q54 38 86 93t61 125l22 72h43l-57 -406h-1003v27l802 1208v6z" />
    <glyph glyph-name="zcaron" unicode="&#x17e;" horiz-adv-x="884" 
d="M152 1372h22l264 -225h4l263 225h22l-272 -397h-31zM508 844q-171 0 -247 -50q-37 -26 -61 -67t-46 -98l-25 -74h-39v326h719v-29l-555 -815l100 -2q176 0 262 53t144 160l43 78h37l-70 -326h-725v27l557 817h-94z" />
    <glyph glyph-name="florin" unicode="&#x192;" horiz-adv-x="1021" 
d="M145 -111q-69 0 -115 33t-46 79t27 78q28 32 65 32q36 -1 60 -15q46 -28 53 -88q3 -29 -9 -59h31l41 2q49 12 88 130t100 421l41 233l-213 6l23 66l213 16q61 256 182 379q104 103 250 103q72 0 118 -35t46 -84t-33 -82t-70 -33q-71 0 -92 58t19 112q-64 8 -80 8
q-62 -11 -105 -136q-29 -85 -73 -294l247 -2l2 -80h-262l-43 -178q-47 -209 -102 -353t-138 -230t-225 -87z" />
    <glyph glyph-name="circumflex" unicode="&#x2c6;" 
d="M373 1399h30l273 -398h-25l-260 226h-4l-264 -226h-23z" />
    <glyph glyph-name="caron" unicode="&#x2c7;" 
d="M100 1399h23l264 -225h4l262 225h23l-273 -398h-30z" />
    <glyph glyph-name="breve" unicode="&#x2d8;" 
d="M390 1008q-125 0 -187 118q-39 71 -80 260h20q45 -124 103 -194t145 -70q88 0 146 71q57 71 102 193h20q-14 -70 -32 -138q-38 -146 -123 -208q-45 -32 -114 -32z" />
    <glyph glyph-name="dotaccent" unicode="&#x2d9;" 
d="M389 1087q-57 0 -85 38t-28 76t28 78t85 40t84 -40t27 -78t-27 -76t-84 -38z" />
    <glyph glyph-name="ring" unicode="&#x2da;" 
d="M389 1032q-86 0 -134 54t-48 130t48 130q48 55 134 55t134 -55t48 -130q0 -76 -48 -130t-134 -54zM388 1370q-72 0 -110 -46t-38 -108t38 -108t110 -47q71 0 110 46q39 47 39 109t-39 108t-110 46z" />
    <glyph glyph-name="ogonek" unicode="&#x2db;" 
d="M301 -250q0 -70 44 -115t116 -45t137 54l10 -21q-97 -108 -213 -108q-87 0 -147 55t-61 126q-2 118 104 217q78 73 196 120h54q-240 -121 -240 -283z" />
    <glyph glyph-name="tilde" unicode="&#x2dc;" 
d="M199 1165q-39 0 -64 -19t-39 -97h-24q16 121 51 174t108 53t192 -67q46 -26 86 -46t74 -20q35 0 59 20t38 97h25q-14 -120 -50 -174t-112 -54t-190 66q-115 66 -154 67z" />
    <glyph glyph-name="hungarumlaut" unicode="&#x2dd;" 
d="M326 1401h182l-338 -383h-27zM637 1401h182l-338 -383h-26z" />
    <glyph glyph-name="pi" unicode="&#x3c0;" horiz-adv-x="1460" 
d="M731 -29q-139 1 -261 53t-213 143t-143 213t-53 261q0 139 53 261q105 247 356 358q122 53 261 53t261 -53q248 -108 357 -358q52 -122 52 -261t-52 -261q-106 -249 -357 -356q-122 -53 -261 -53zM731 4q131 0 246 50t201 137t135 203t49 247t-49 247t-135 203t-201 137
t-246 50t-247 -50q-234 -101 -337 -340q-49 -116 -49 -247q0 -265 185 -450q85 -87 201 -137t247 -50zM783 584q-57 0 -101 8v-281q0 -17 57 -20l68 -6l2 -29h-358l2 29l61 6q51 6 51 22v643q0 10 -9 12t-50 7l-51 8l-4 27h333q147 0 217 -56t70 -147q0 -92 -83 -157
q-83 -66 -205 -66zM793 614q61 0 107 48t46 133q0 184 -190 184h-74v-352q50 -13 111 -13z" />
    <glyph glyph-name="endash" unicode="&#x2013;" horiz-adv-x="899" 
d="M29 524h845l-2 -90h-849z" />
    <glyph glyph-name="emdash" unicode="&#x2014;" horiz-adv-x="1861" 
d="M29 524h1810l-2 -90h-1814z" />
    <glyph glyph-name="quoteleft" unicode="&#x2018;" horiz-adv-x="401" 
d="M221 823q-68 0 -119 50q-51 51 -51 143t78 179t205 144l20 -16q-68 -37 -118 -100t-52 -124q0 -61 36 -99t84 -48q49 -10 48 -12q0 -43 -32 -80t-99 -37z" />
    <glyph glyph-name="quoteright" unicode="&#x2019;" horiz-adv-x="401" 
d="M219 1078q0 42 -34 80t-106 53q-26 5 -26 8q0 43 32 81q33 38 99 37q66 0 117 -51t51 -143t-78 -179t-202 -143l-23 17q35 18 66 43q104 84 104 197z" />
    <glyph glyph-name="quotesinglbase" unicode="&#x201a;" horiz-adv-x="401" 
d="M219 -18q0 42 -33 79t-83 49q-50 11 -50 13q0 43 32 81q33 38 99 38t117 -52t51 -143q0 -92 -78 -179t-202 -142l-23 16q35 18 66 43q104 83 104 197z" />
    <glyph glyph-name="quotedblleft" unicode="&#x201c;" 
d="M604 823q-68 0 -118 50q-50 51 -50 143t78 179t203 144l22 -16q-67 -37 -119 -100t-52 -124t35 -99q36 -38 84 -48q49 -10 48 -12q1 -43 -31 -80t-100 -37zM221 823q-68 0 -119 50q-51 51 -51 143t78 179t205 144l20 -16q-68 -37 -118 -100t-52 -124q0 -61 36 -99t84 -48
q49 -10 48 -12q0 -43 -32 -80t-99 -37z" />
    <glyph glyph-name="quotedblright" unicode="&#x201d;" 
d="M219 1078q0 42 -34 80t-106 53q-26 5 -26 8q0 43 32 81q33 38 99 37q66 0 117 -51t51 -143t-78 -179t-202 -143l-23 17q35 18 66 43q104 84 104 197zM604 1078q0 42 -36 81t-84 48t-48 12q0 43 32 81t100 37q68 0 118 -51q51 -51 51 -143t-78 -179t-204 -143l-21 17
q35 18 66 43q104 84 104 197z" />
    <glyph glyph-name="quotedblbase" unicode="&#x201e;" 
d="M219 -18q0 42 -33 79t-83 49q-50 11 -50 13q0 43 32 81q33 38 99 38t117 -52t51 -143q0 -92 -78 -179t-202 -142l-23 16q35 18 66 43q104 83 104 197zM604 -18q0 42 -35 80t-84 48q-49 11 -49 13q0 43 32 81t100 38t118 -52q51 -52 51 -143q0 -92 -78 -179t-204 -142
l-21 16q35 18 66 43q104 83 104 197z" />
    <glyph glyph-name="dagger" unicode="&#x2020;" horiz-adv-x="909" 
d="M436 834h-401l-2 38h403v408h39v-408h406l-4 -38h-402v-1153h-39v1153z" />
    <glyph glyph-name="daggerdbl" unicode="&#x2021;" horiz-adv-x="909" 
d="M436 63h-403l2 41h401v750h-401l-2 41h403v385h39v-385h406l-4 -41h-402v-750h402l4 -41h-406v-382h-39v382z" />
    <glyph glyph-name="bullet" unicode="&#x2022;" horiz-adv-x="888" 
d="M591 122q-106 -42 -148 -42q-43 0 -146 42q-102 42 -129 75q-55 63 -105 216q-12 41 -12 63q0 81 82 225q19 37 35 53t69 44t121 49t90 21q70 0 225 -78q38 -19 52 -36q26 -22 69 -127q44 -104 45 -139q1 -36 -11 -76q-54 -170 -103 -215q-28 -33 -134 -75z" />
    <glyph glyph-name="ellipsis" unicode="&#x2026;" horiz-adv-x="1292" 
d="M1094 -27q-55 0 -93 38q-37 38 -37 88t37 87t93 37t91 -37q36 -37 36 -87t-36 -88t-91 -38zM203 -27q-55 0 -92 38t-37 88t37 87t92 37t91 -37t36 -87t-36 -88t-91 -38zM648 -27q-56 0 -93 38t-37 88t37 87t93 37t91 -37t35 -87t-35 -88t-91 -38z" />
    <glyph glyph-name="perthousand" unicode="&#x2030;" horiz-adv-x="1863" 
d="M913 6q109 0 171 70t62 172t-63 173q-64 71 -170 72q-105 1 -168 -71t-63 -174t61 -172t170 -70zM1561 6q109 0 171 70t62 173t-64 173t-169 71t-170 -71q-64 -72 -64 -174q1 -102 63 -172t171 -70zM470 857q65 69 66 172t-63 174t-171 72q-106 1 -169 -71t-63 -174
t62 -170q65 -72 169 -72t169 69zM1194 248q0 -120 -76 -201q-76 -82 -202 -82t-204 83q-77 83 -77 201q0 119 77 202q77 84 201 84t203 -84q78 -83 78 -203zM1841 248q0 -120 -76 -201q-76 -82 -203 -82t-205 83q-77 83 -77 201q0 119 77 202q77 84 202 84t204 -84
q78 -83 78 -203zM1044 1311h50l-924 -1340h-51zM302 748q-127 0 -203 82t-76 201q0 120 77 203t200 83q124 0 203 -82t80 -202t-76 -202q-78 -83 -205 -83z" />
    <glyph glyph-name="guilsinglleft" unicode="&#x2039;" horiz-adv-x="550" 
d="M41 434v39l444 340l11 -18l-273 -340l273 -340l-11 -19z" />
    <glyph glyph-name="guilsinglright" unicode="&#x203a;" horiz-adv-x="550" 
d="M57 115l273 340l-273 340l13 18l444 -340v-39l-444 -338z" />
    <glyph glyph-name="fraction" unicode="&#x2044;" horiz-adv-x="980" 
d="M942 1311h55l-958 -1340h-55z" />
    <glyph glyph-name="Euro" unicode="&#x20ac;" horiz-adv-x="1028" 
d="M133 608q0 51 8 105h-127l6 39h127q44 248 207 394t361 146q127 0 204 -43t76 -114q-1 -41 -29 -70t-69 -29t-75 25t-38 72t4 71q-14 10 -38 26t-80 17q-58 0 -120 -36q-127 -74 -191 -257q-32 -92 -42 -202h410l6 -39h-418v-70q0 -80 9 -154h403l6 -38h-399
q35 -169 138 -261q102 -92 212 -92t182 37t133 127l25 -14q-155 -277 -403 -277q-172 0 -305 130t-171 350h-131l6 38h119q-6 68 -6 119z" />
    <glyph glyph-name="trademark" unicode="&#x2122;" horiz-adv-x="1144" 
d="M217 1257h-14q-51 -3 -80 -33t-51 -83l-9 -19h-18l14 158h412l8 -156h-20q-21 68 -52 101t-85 32h-17v-393q0 -6 29 -12l37 -4l2 -23h-228l5 23l43 4q25 2 24 14v391zM897 825v23l37 4q14 4 18 12t2 33l-4 338h-8l-145 -401h-35l-129 395h-8l-7 -289q0 -78 19 -85
q8 -3 22 -5l27 -2l2 -23h-166l4 23l25 2q25 2 33 16t8 78l8 287q-8 20 -31 22l-32 7l-2 20h172l100 -332h8l115 332h176l-2 -20l-37 -7q-27 -2 -27 -14l7 -344q2 -27 8 -33t24 -10l31 -4l2 -23h-215z" />
    <glyph glyph-name="Omega" unicode="&#x2126;" horiz-adv-x="1167" 
d="M1296 1271q0 -42 -28 -70q-28 -27 -72 -27q-43 0 -83 37t-50 108l-37 4q-74 -35 -100 -121t-25 -229v-92h254l-29 -86h-225v-732q1 -14 17 -20t77 -10l82 -2l6 -31h-483l6 31l43 2q41 4 61 10q19 6 19 25v729h-381v-725q0 -14 14 -22t70 -11l90 -8l6 -31h-481l6 31l49 8
q41 4 58 10q16 6 16 25v719l-162 4l31 84h127l4 30q27 219 152 333q126 114 288 114q78 0 127 -34t49 -81t-27 -76q-28 -29 -78 -29t-88 47q-38 46 -38 111l-59 15q-86 -35 -120 -125t-34 -234v-71h377l4 53q15 206 138 326t279 118q74 0 112 -32t38 -75z" />
    <glyph glyph-name="Delta" unicode="&#x2206;" horiz-adv-x="927" 
d="M134 285q50 0 81 -31t31 -66q0 -86 -72 -104q16 -28 57 -50t101 -22q117 0 165 73t48 247v874q0 29 -96 35l-101 10l-6 31h596l-6 -31l-109 -12q-82 -7 -84 -39v-885q0 -131 -127 -236q-126 -106 -284 -106t-233 56q-74 56 -76 121q-1 65 32 100t83 35z" />
    <glyph glyph-name="radical" unicode="&#x221a;" horiz-adv-x="1615" 
d="M1282 1157h-12q-63 0 -101 43q-37 43 -36 109l-76 18q-88 -35 -122 -123t-34 -231v-92h381v276zM1454 63q0 -14 16 -19t80 -11l37 -2l6 -31h-438l6 31l41 2q45 4 63 10q17 6 17 25v727h-381v-732q1 -14 17 -20t77 -10l78 -2l6 -31h-479l6 31l43 2q41 4 61 10q19 6 19 25
v729h-381v-725q0 -14 14 -22t70 -11l90 -8l6 -31h-481l6 31l49 8q41 4 58 10q16 6 16 25v719l-162 4l31 84h127l4 30q27 219 152 333q126 114 288 114q78 0 127 -34t49 -81t-27 -76q-28 -29 -78 -29t-88 46q-38 45 -38 112l-59 15q-86 -35 -120 -125t-34 -234v-71h377l4 53
q15 213 149 329q134 117 306 115q68 0 119 -28l151 43v-1330z" />
    <glyph glyph-name="approxequal" unicode="&#x2248;" horiz-adv-x="1619" 
d="M176 74v719l-162 4l31 84h127l4 30q27 219 152 333q126 114 288 114q78 0 127 -34t49 -81t-27 -76q-28 -29 -78 -29t-88 47q-38 46 -38 111l-59 15q-86 -35 -120 -125t-34 -234v-71h377l4 53q15 213 149 329q134 117 308 115q123 0 169 -74q15 -24 15 -60t-30 -64
t-80 -29q-50 0 -89 45q-37 45 -36 113l-78 18q-88 -35 -122 -123t-34 -231v-92h361l192 22v-840q0 -14 16 -20t80 -10l37 -2l6 -31h-438l6 31l43 4q43 4 61 9q17 5 17 24v727h-381v-732q1 -14 17 -20t77 -10l78 -2l6 -31h-479l6 31l43 2q41 4 61 10q19 6 19 25v729h-381
v-725q0 -14 14 -22t70 -11l90 -8l6 -31h-481l6 31l49 8q41 4 58 10q16 6 16 25z" />
    <glyph glyph-name="apple" unicode="&#xf8ff;" horiz-adv-x="1552" 
d="M602 236l-383 -140l139 383l-370 176l370 170l-139 387l383 -141l176 371l170 -371l387 141l-141 -387l369 -168l-369 -174l141 -387l-387 142l-174 -371zM905 346l361 -180l-179 362l377 129l-377 125l179 361l-361 -178l-127 378l-131 -378l-358 178l178 -361
l-381 -127l381 -131l-178 -358l358 180l127 -381z" />
    <glyph glyph-name="fi" unicode="&#xfb01;" horiz-adv-x="1069" 
d="M176 68v725l-162 4l31 84h127l4 53q15 213 149 329q134 117 306 115q74 0 129 -34t55 -84q0 -52 -28 -80q-27 -28 -79 -29q-52 0 -88 45t-38 113l-78 18q-86 -35 -121 -123t-35 -231v-92h361l192 22v-840q1 -14 17 -20t77 -10l39 -2l4 -31h-438l6 31l43 2q47 4 64 10
q16 6 16 25v727h-381v-732q0 -14 16 -20t76 -10l78 -2l6 -31h-477l6 31l43 2q43 4 62 10q18 6 18 25z" />
    <glyph glyph-name="fl" unicode="&#xfb02;" horiz-adv-x="1062" 
d="M702 1157q-59 0 -98 43t-37 109l-65 18q-86 -35 -120 -123t-34 -231v-92h381v280q-16 -4 -27 -4zM901 63q1 -14 17 -19t77 -11l39 -2l4 -31h-438l6 31l41 2q45 4 64 10q18 6 18 25v727h-381v-732q0 -14 16 -20t76 -10l78 -2l6 -31h-477l6 31l43 2q43 4 62 10q18 6 18 25
v725l-162 4l31 84h127l4 53q15 212 147 329t306 115q74 0 116 -30l156 45v-1330z" />
    </font>
</defs>
</svg>
