<?xml version="1.0" standalone="no"?>
<!DOCTYPE svg PUBLIC "-//W3C//DTD SVG 1.1//EN" "http://www.w3.org/Graphics/SVG/1.1/DTD/svg11.dtd" >
<svg xmlns="http://www.w3.org/2000/svg">
<metadata>
Created by FontPrep 20130207 at Thu Nov 17 19:10:39 2016
 By Bradley Gorman
Copyright  2005, Joshua Darden &#38; Phil's Fonts, Inc. All rights reserved. Published by Garagefonts USA 301-260-2285 www.garagefonts.com
</metadata>
<defs>
<font id="9aff7a4fe8e625c3e2aad7cfdf659a64" horiz-adv-x='1024' >
  <font-face 
    font-family="FreightDispLight"
    font-weight="400"
    font-stretch="normal"
    units-per-em="2048"
    panose-1="2 0 6 3 8 0 0 2 0 4"
    ascent="1536"
    descent="-512"
    x-height="877"
    cap-height="1280"
    bbox="-152 -553 1960 1759"
    underline-thickness="40"
    underline-position="-299"
    unicode-range="U+0020-FB02"
  />
<missing-glyph horiz-adv-x="1024" 
 />
    <glyph glyph-name=".notdef" horiz-adv-x="1024" 
 />
    <glyph glyph-name=".null" horiz-adv-x="0" 
 />
    <glyph glyph-name=".null" horiz-adv-x="0" 
 />
    <glyph glyph-name="nonmarkingreturn" horiz-adv-x="681" 
 />
    <glyph glyph-name="space" unicode=" " horiz-adv-x="284" 
 />
    <glyph glyph-name="exclam" unicode="!" horiz-adv-x="483" 
d="M245 154q41 0 67 -27t26 -63t-26 -66t-67 -29q-42 0 -71 30q-29 31 -29 65t29 62t71 28zM260 1311q59 0 59 -70q0 -18 -2 -35l-59 -827q-2 -10 -12 -10t-13 10l-61 827q-13 102 59 105h29z" />
    <glyph glyph-name="quotedbl" unicode="&#x22;" horiz-adv-x="595" 
d="M27 825h-17l170 281zM260 1325l33 -14v-2zM520 1325h2l80 -35l-311 -465h-15zM180 1106l113 203l8 -4z" />
    <glyph glyph-name="numbersign" unicode="#" horiz-adv-x="1046" 
d="M-25 389v29h287l117 438h-281v31h289l109 407h32l-108 -407h348l106 407h35l-108 -407h280v-31h-288l-115 -438h278v-29h-286l-107 -399h-33l107 399h-348l-105 -399h-34l106 399h-281zM643 418l117 438h-346l-117 -438h346z" />
    <glyph glyph-name="dollar" unicode="$" horiz-adv-x="911" 
d="M311 23q59 -19 133 -19q145 -1 240 82q94 82 93 207t-77 197t-233 126l-6 -24q-8 -25 -25 -93t-49 -189q-33 -121 -76 -287zM476 1276q-129 0 -206 -71t-77 -179q0 -148 163 -225q51 -25 115 -49l133 503q-61 21 -128 21zM446 -29q-82 0 -145 9l-84 -316h-33l84 320
q-116 18 -192 49l-33 301h31l45 -146q59 -109 162 -155l157 594l-131 52q-205 97 -205 286q0 150 107 246t274 96q74 0 131 -13l60 222h33l-62 -230q41 -10 62 -20l94 26l24 -319h-32l-109 241q-25 20 -51 29l-133 -502q48 -12 131 -51q82 -39 132 -83q111 -97 110 -257
q-1 -159 -127 -268q-58 -51 -138 -81t-162 -30z" />
    <glyph glyph-name="percent" unicode="%" horiz-adv-x="1216" 
d="M1049 1311h45l-930 -1340h-45zM1194 248q0 -120 -76 -201q-76 -82 -202 -82t-204 83q-77 83 -77 201q0 119 77 202q77 84 201 84t203 -84q78 -83 78 -203zM1012 24q140 62 141 224q0 106 -66 178q-66 71 -173 71q-106 1 -172 -71t-66 -178q0 -105 65 -174q65 -70 172 -70
q55 0 99 20zM302 748q-127 0 -203 82t-76 201q0 120 77 203t200 83q124 0 203 -82t80 -202t-76 -202q-78 -83 -205 -83zM473 854q66 70 68 176q0 163 -141 230q-44 20 -99 20q-108 0 -172 -71t-65 -177q-1 -105 64 -176q65 -72 172 -72t173 70z" />
    <glyph glyph-name="ampersand" unicode="&#x26;" horiz-adv-x="1390" 
d="M257 869q-54 62 -54 157t90 190t224 95q133 0 213 -74q79 -74 79 -158q-1 -85 -63 -161t-199 -123q98 -50 199 -152q102 -102 167 -215q213 262 221 326q2 12 -26 26q-27 14 -100 23l-58 6l-6 29h440l-6 -29l-53 -6q-64 -4 -85 -21q-20 -18 -36 -38t-41 -50l-231 -291
q116 -224 155 -273q38 -50 67 -69q30 -18 75 -18t82 29t80 75l20 -20q-18 -20 -43 -48q-24 -27 -56 -51q-114 -85 -219 -44q-105 37 -239 321q-55 -68 -108 -129q-175 -205 -371 -205q-148 0 -248 102t-99 243t99 260t272 182q-88 49 -142 111zM147 396q0 -237 178 -311
q55 -24 119 -24q64 1 113 21t95 56t90 86t94 108q-174 315 -406 411q-141 -57 -212 -158t-71 -189zM516 805q189 88 189 240q0 151 -121 215q-37 18 -80 18q-89 0 -140 -63q-55 -64 -56 -152q-1 -87 48 -147t160 -111z" />
    <glyph glyph-name="quotesingle" unicode="'" horiz-adv-x="305" 
d="M27 825h-17l170 281zM260 1325l33 -14v-2zM180 1106l113 203l8 -4z" />
    <glyph glyph-name="parenleft" unicode="(" horiz-adv-x="696" 
d="M319 -220q-186 278 -186 614t186 615q79 121 173 203t176 125q18 -18 18 -32q-80 -43 -170 -125t-165 -199q-175 -273 -175 -588t175 -590q75 -117 165 -199t170 -124q0 -2 -6 -14t-12 -19q-82 45 -175 129t-174 204z" />
    <glyph glyph-name="parenright" unicode=")" horiz-adv-x="696" 
d="M520 392q0 176 -50 324t-125 265t-165 199t-170 125q0 7 21 32q80 -43 173 -126t173 -203q186 -278 186 -614q0 -337 -186 -614q-80 -120 -173 -204t-173 -129q-21 32 -21 33q80 43 170 125q193 176 290 464q50 148 50 323z" />
    <glyph glyph-name="asterisk" unicode="*" horiz-adv-x="645" 
d="M293 997q0 6 -4 9l-172 71l-66 99q-2 4 2 10t8 6l119 -25l117 -151q2 -4 10 -1t8 7l19 195l74 86q6 3 16 -5l16 -116l-112 -166q-2 -4 3 -11t7 -6l190 50l107 -50q4 2 4 -6t-4 -10l-107 -45l-190 49q-2 2 -7 -5t-3 -11l104 -164l-8 -115l-21 -4l-77 92l-13 189q0 4 -6 7
t-8 -1l-119 -144l-114 -28q-2 0 -8 6q-5 6 -5 8l64 103l172 67q4 4 4 10z" />
    <glyph glyph-name="plus" unicode="+" horiz-adv-x="915" 
d="M436 463h-405l6 41h399v405h43v-405h400l6 -41h-404l-2 -412h-43v412z" />
    <glyph glyph-name="comma" unicode="," horiz-adv-x="342" 
d="M155 211q58 0 98 -43q40 -42 40 -100q0 -147 -142 -258q-42 -33 -88 -54l-14 17q71 45 97 79q53 67 54 138t-47 99q-48 29 -85 9q-16 39 6 76q23 37 81 37z" />
    <glyph glyph-name="hyphen" unicode="-" horiz-adv-x="602" 
d="M55 522h498l-2 -57h-502z" />
    <glyph glyph-name="period" unicode="." horiz-adv-x="374" 
d="M187 -27q-41 0 -69 28t-28 65q0 38 28 66t70 28t68 -29q27 -29 27 -65t-27 -65q-27 -28 -69 -28z" />
    <glyph glyph-name="slash" unicode="/" horiz-adv-x="528" 
d="M463 1309h39l-432 -1792h-39z" />
    <glyph glyph-name="zero" unicode="0" horiz-adv-x="1083" 
d="M542 -25q-102 0 -188 38q-175 77 -248 267q-34 94 -34 202t36 201q75 193 249 269q87 39 187 39q197 0 334 -145q134 -147 134 -361q0 -111 -35 -204q-71 -190 -247 -268q-86 -38 -188 -38zM544 8q148 0 247 131q100 131 100 338t-97 341t-250 134q-154 0 -253 -131
q-100 -131 -98 -317q0 -113 24 -205q51 -189 181 -257q66 -34 146 -34z" />
    <glyph glyph-name="one" unicode="1" horiz-adv-x="647" 
d="M393 61q-1 -10 13 -15t67 -9l94 -6l6 -31h-456l6 31l102 6q37 2 51 7t15 22v829l-223 16l6 23l319 49v-922z" />
    <glyph glyph-name="two" unicode="2" horiz-adv-x="866" 
d="M571 100q98 0 142 41t82 152l16 51l27 -2l-64 -342h-723l-6 35q331 273 410 363t106 150t27 141t-56 145t-150 63q-95 0 -163 -43t-125 -139l-20 12q61 119 153 191t205 72t193 -72q79 -71 77 -177q0 -137 -133 -284q-66 -74 -165 -159t-228 -192v-4h256l113 -2h26z" />
    <glyph glyph-name="three" unicode="3" horiz-adv-x="804" 
d="M251 -412q-232 0 -237 136q0 38 26 62t70 24t73 -50q28 -50 18 -114q7 0 31 -7q77 -22 160 8q247 88 247 345q0 125 -77 206t-218 81q-74 0 -180 -46l-12 21q96 66 170 116q225 152 225 299q-1 103 -61 168t-164 64q-168 0 -269 -182l-20 16q123 256 358 254
q116 0 191 -74t75 -182q0 -152 -176 -287q-51 -39 -106 -75v-2q265 6 349 -195q26 -61 26 -141t-40 -162q-80 -165 -278 -245q-96 -38 -181 -38z" />
    <glyph glyph-name="four" unicode="4" horiz-adv-x="909" 
d="M561 35h-538l-3 24l617 914h27v-846l237 -4l-31 -88h-206v-412h-103v412zM561 127v672h-2l-455 -672h457z" />
    <glyph glyph-name="five" unicode="5" horiz-adv-x="774" 
d="M596 4q0 244 -291 367q-92 39 -205 61l138 531h485l-21 -113h-458l-84 -322q252 -49 392 -171t140 -296q0 -90 -41 -175q-41 -84 -111 -150q-159 -148 -363 -148t-206 121q0 35 25 57q26 22 68 22t68 -44q26 -43 30 -96q112 -33 212 15q62 30 111 81q111 116 111 260z
" />
    <glyph glyph-name="six" unicode="6" horiz-adv-x="956" 
d="M484 -25q-88 0 -168 37q-256 120 -255 490q0 134 65 278q135 301 443 460q154 79 334 97l10 -20q-292 -51 -481 -254t-237 -469l4 -4q67 82 159 136t184 54q167 0 266 -110t98 -281t-128 -296q-120 -118 -294 -118zM275 137q90 -131 219 -131t210 95q80 95 80 249
q0 155 -82 256t-206 101q-177 0 -301 -150q-9 -36 -9 -113t24 -161t65 -146z" />
    <glyph glyph-name="seven" unicode="7" horiz-adv-x="845" 
d="M760 858h-522q-69 0 -95 -30t-49 -111l-8 -21q-4 -10 -5 -17t-3 -11l-17 2h-10l35 293h733l4 -27l-549 -1315h-100l586 1227v10z" />
    <glyph glyph-name="eight" unicode="8" horiz-adv-x="919" 
d="M193 768q-87 88 -88 210t107 228q108 105 254 105t251 -92q104 -95 102 -226q0 -92 -73 -174t-185 -133v-2q147 -80 198 -132q95 -99 95 -237q0 -139 -116 -241q-116 -101 -282 -101q-167 0 -279 97q-113 97 -111 235q0 166 187 283q56 35 122 57v2q-134 72 -182 121z
M473 4q137 0 215 75t78 191q0 173 -227 295q-66 35 -136 68q-95 -41 -163 -124t-68 -208t82 -211t219 -86zM715 966q-1 78 -21 132q-42 112 -141 157q-49 23 -105 23q-110 0 -180 -73q-71 -73 -71 -173q0 -165 207 -272q63 -33 133 -64q78 47 128 120q50 72 50 150z" />
    <glyph glyph-name="nine" unicode="9" horiz-adv-x="956" 
d="M893 483q0 -154 -65 -298q-134 -298 -443 -453q-154 -78 -332 -97l-12 21q291 50 493 263q178 190 228 456h-6q-66 -80 -157 -135q-91 -56 -182 -56q-170 -1 -267 114q-97 114 -97 283q0 170 124 293t301 122t297 -144q118 -143 118 -369zM459 260q178 0 301 148
q12 60 12 126t-24 150q-51 171 -167 245q-57 36 -123 36t-118 -25q-106 -50 -150 -179q-20 -62 -20 -140q0 -152 81 -257q82 -104 208 -104z" />
    <glyph glyph-name="colon" unicode=":" horiz-adv-x="370" 
d="M187 -27q-41 0 -69 28t-28 65q0 38 28 64t70 26t68 -27q27 -27 27 -63t-27 -65q-27 -28 -69 -28zM283 701q0 -35 -27 -65t-69 -30q-41 0 -69 30t-28 66t28 63q28 28 70 28t68 -28q27 -28 27 -64z" />
    <glyph glyph-name="semicolon" unicode=";" horiz-adv-x="342" 
d="M155 207q58 0 98 -42q40 -41 40 -99q0 -147 -142 -255q-42 -32 -88 -53l-14 15q149 95 152 225q0 63 -48 91q-48 29 -85 9q-16 39 6 74q23 35 81 35zM177 606q-41 0 -69 30t-28 66t28 63q28 28 70 28t68 -28t26 -64q0 -35 -26 -65t-69 -30z" />
    <glyph glyph-name="less" unicode="&#x3c;" horiz-adv-x="897" 
d="M27 467v29l813 395l14 -39l-756 -365v-8l756 -368l-14 -39z" />
    <glyph glyph-name="equal" unicode="=" horiz-adv-x="909" 
d="M55 324h799l6 -41h-811zM49 682h811l-6 -43h-799z" />
    <glyph glyph-name="greater" unicode="&#x3e;" horiz-adv-x="897" 
d="M43 111l756 368v8l-756 365l14 39l813 -395v-29l-813 -395z" />
    <glyph glyph-name="question" unicode="?" horiz-adv-x="638" 
d="M298 -27q-42 0 -70 28t-28 64q0 35 28 63t70 28t68 -27t26 -63t-26 -65q-26 -28 -68 -28zM72 1239q0 70 144 71q144 2 252 -106t105 -248q0 -102 -52 -152q-34 -34 -140 -81q-106 -48 -132 -66q-52 -36 -52 -89q0 -92 122 -203h-26q-105 84 -148 175q-16 34 -16 70
q0 108 120 171q41 23 117 57t124 66q79 53 31 151q-35 77 -154 119q-59 20 -137 20t-144 -18q-14 23 -14 63z" />
    <glyph glyph-name="at" unicode="@" horiz-adv-x="1609" 
d="M766 -225q-127 0 -263 53q-278 108 -387 376q-54 132 -54 294t62 312q127 304 425 437q145 66 301 66q306 0 504 -181t198 -462q0 -218 -139 -388q-63 -77 -147 -123t-176 -46t-147 42q-54 42 -54 107q0 26 27 142t49 155h-9q-138 -217 -198 -287q-60 -69 -104 -101
t-100 -32q-56 1 -104 55q-89 98 -17 295q72 198 269 383q84 80 170 78q60 0 102 -45t50 -133h8l72 213l94 -6l-143 -389l-47 -205q-72 -181 32 -213q32 -10 92 -10t133 40t129 110q126 156 126 356q0 265 -189 440q-189 174 -475 174q-158 0 -296 -62t-242 -170t-163 -251
q-61 -143 -61 -298q-1 -308 198 -501q198 -193 513 -195q259 0 445 173q56 52 93 112l17 -22q-130 -202 -383 -270q-84 -22 -211 -23zM502 356q0 -62 34 -102t73 -39q68 0 156 110t191 298q37 71 37 106q-8 53 -45 94q-65 74 -119 74q-92 0 -183 -136q-144 -217 -144 -405z
" />
    <glyph glyph-name="A" unicode="A" horiz-adv-x="1259" 
d="M788 569l-8 25q-56 174 -190 551h-4l-205 -576h407zM549 1231q69 28 88 67h18l410 -1159q26 -67 43 -84t68 -20l84 -6l6 -29h-482l7 29l92 4q33 2 59 13t14 40l-153 446h-434l-123 -342q-36 -99 -28 -118q9 -20 34 -26t72 -11l75 -6l7 -29h-420l6 29l63 6q35 4 57 13
t41 37t91 208l319 887z" />
    <glyph glyph-name="B" unicode="B" horiz-adv-x="1126" 
d="M238 1219q0 10 -14 15t-72 9l-82 8l-7 29h482q217 0 327 -76t109 -198q0 -179 -184 -264q-66 -30 -162 -44v-6q205 -14 306 -107t101 -229q0 -168 -130 -262t-365 -94h-486l7 29l98 10q70 7 72 24v1156zM596 37h8q153 11 236 101q71 81 71 217q0 137 -109 228t-288 91
h-31l-118 -4v-609l176 -30l32 4q12 2 23 2zM848 979q0 264 -340 264h-143v-538l141 2q168 4 255 83t87 189z" />
    <glyph glyph-name="C" unicode="C" horiz-adv-x="1327" 
d="M769 1311q163 0 321 -74l110 43l21 -367h-29l-119 283q-41 30 -122 56t-201 26t-222 -47q-209 -96 -286 -333q-39 -116 -39 -256q0 -284 151 -461t400 -177q210 0 338 131q39 41 73 92l60 142h30l-69 -318l-70 -2q-164 -78 -388 -78q-126 0 -252 47q-254 95 -359 339
q-51 120 -51 269t51 274q103 254 362 360q127 52 290 51z" />
    <glyph glyph-name="D" unicode="D" horiz-adv-x="1316" 
d="M238 1221q0 10 -14 14t-72 8l-82 8l-7 29l467 6q341 0 532 -168t191 -458t-206 -475t-553 -185h-433l7 29l98 10q70 7 72 24v1158zM974 217q144 158 144 422t-158 437t-456 173h-139v-1190l180 -24q272 8 429 182z" />
    <glyph glyph-name="E" unicode="E" horiz-adv-x="1148" 
d="M238 1221q0 10 -14 14t-70 8l-91 8l-6 29h918l33 -334h-25l-22 88q-41 120 -110 168q-70 47 -235 47h-251v-559h204q126 4 152 20q26 17 37 40q10 23 20 57l21 59l22 -2l-39 -391l-22 2l-4 55q-4 83 -32 101t-165 22l-194 2v-616l253 -6q201 0 281 59t125 176l25 86
l30 -2l-78 -352h-946l6 29l107 10q68 7 70 24v1158z" />
    <glyph glyph-name="F" unicode="F" horiz-adv-x="1083" 
d="M238 1221q0 10 -14 14t-70 8l-91 8l-6 29h922l33 -346l-29 -2l-18 84q-40 128 -113 180q-72 53 -266 53h-221v-571h176q126 4 153 21q26 17 36 40q9 23 20 58l20 55h23l-39 -391l-23 2l-4 55q-2 41 -8 65q-11 43 -81 52q-38 4 -108 6l-165 2v-577q0 -21 86 -27l129 -8
l6 -31h-531l6 29l105 10q70 7 72 24v1158z" />
    <glyph glyph-name="G" unicode="G" horiz-adv-x="1386" 
d="M768 1313q160 0 319 -76l113 43l4 -360h-28l-105 276q-116 82 -319 82q-246 0 -397 -181q-152 -181 -152 -462q0 -280 155 -454q155 -175 410 -175q120 0 234 38q34 11 57 26v428q-1 10 -17 14t-73 8l-113 8l-6 29h504l-6 -29l-97 -10q-71 -7 -71 -24v-396l127 13l2 -23
q-196 -76 -420 -108q-72 -11 -133 -11q-301 0 -496 178q-194 178 -194 474t194 492q198 200 508 200z" />
    <glyph glyph-name="H" unicode="H" horiz-adv-x="1454" 
d="M238 1221q0 10 -14 14t-72 8l-82 8l-7 29h484l-6 -29l-105 -10q-71 -7 -71 -24v-545h725v549q0 10 -14 14t-72 8l-91 8l-6 29h486l-7 -29l-100 -10q-72 -6 -72 -24v-1158q0 -10 14 -14t72 -8l84 -8l7 -29h-484l6 29l105 10q72 6 72 24v572h-725v-576q0 -10 14 -14t72 -8
l88 -8l6 -29h-484l7 29l98 10q70 7 72 24v1158z" />
    <glyph glyph-name="I" unicode="I" horiz-adv-x="643" 
d="M258 63v1158q0 10 -13 14t-73 8l-94 8l-6 29h501l-6 -29l-110 -10q-72 -7 -72 -24v-1158q0 -10 14 -14t72 -8l94 -8l6 -29h-501l6 29l110 10q72 7 72 24z" />
    <glyph glyph-name="J" unicode="J" horiz-adv-x="626" 
d="M55 -246q-73 0 -113 28t-40 70t24 66t58 25t56 -15q44 -32 40 -88q-2 -27 -17 -47q96 -2 153 86q56 88 56 285v1057q0 10 -13 14t-73 8l-94 8l-6 29h496l-7 -29l-104 -10q-70 -7 -72 -24v-1074q0 -47 -26 -113q-61 -148 -183 -232q-64 -44 -135 -44z" />
    <glyph glyph-name="K" unicode="K" horiz-adv-x="1302" 
d="M238 1221q0 10 -14 14t-72 8l-82 8l-7 29h484l-6 -29l-105 -10q-71 -7 -71 -24v-668l426 440q169 169 180 202q10 32 -13 40t-71 12l-99 8l-6 29h465l-6 -29l-53 -4q-27 -2 -53 -3t-62 -30q-35 -28 -103 -98q-69 -71 -139 -143l-169 -174l432 -660q46 -74 63 -87t68 -17
l65 -6l6 -29h-456l8 29l72 6q53 4 58 31t-9 49l-387 604l-217 -219v-441q0 -10 14 -14t72 -8l88 -8l6 -29h-484l7 29l98 10q70 7 72 24v1158z" />
    <glyph glyph-name="L" unicode="L" horiz-adv-x="1091" 
d="M238 1221q0 10 -14 14t-70 8l-84 8l-7 29h519l-7 -29l-139 -10q-71 -7 -71 -27v-1175l204 -4q200 0 276 55q77 55 128 178l26 103h31l-80 -371h-889l7 29l100 10q68 7 70 24v1158z" />
    <glyph glyph-name="M" unicode="M" horiz-adv-x="1667" 
d="M39 29l96 6q49 4 77 13t28 32l36 1132q-27 19 -102 29l-100 10l-6 29h350l426 -1085h4l434 1085h332l-4 -29l-125 -6q-54 -6 -62 -28l25 -1158q0 -20 84 -26l90 -4l6 -29h-493l6 29l121 6q61 3 61 28l-27 1131h-6l-479 -1182h-25l-444 1137q-6 15 -15 25t-14 18
l-30 -1114q0 -39 139 -43l78 -6l6 -29h-473z" />
    <glyph glyph-name="N" unicode="N" horiz-adv-x="1423" 
d="M1217 -8h-35l-875 1175h-4l2 -1089q0 -36 121 -43l82 -6l6 -29h-444l6 29l84 6q108 9 106 47v1102q-31 39 -137 57l-68 10l-6 29h320l803 -1077h2l-2 1001q0 16 -28 24t-93 17l-82 6l-6 29h444l-6 -29l-84 -6q-47 -4 -77 -13t-29 -32v-1208z" />
    <glyph glyph-name="O" unicode="O" horiz-adv-x="1447" 
d="M721 -27q-137 1 -258 49t-209 135q-188 186 -188 480q0 137 53 259t143 214t209 146t255 54t257 -48q121 -50 210 -138q189 -188 189 -485q0 -135 -53 -257t-143 -212t-209 -144t-256 -53zM733 6q230 0 371 170t141 455t-150 466t-377 181t-370 -172t-143 -461
q0 -288 149 -464q149 -175 379 -175z" />
    <glyph glyph-name="P" unicode="P" horiz-adv-x="1077" 
d="M573 594q-86 0 -208 14v-549q0 -10 14 -14t72 -8l129 -8l6 -29h-545l6 29l119 10q70 7 72 24v1158q0 10 -14 14t-70 8l-105 8l-6 29h516q233 0 351 -86t118 -236q0 -82 -35 -149q-69 -135 -247 -189q-88 -26 -173 -26zM895 938q0 316 -379 309l-151 -2v-598
q84 -24 192 -24q166 1 252 81t86 234z" />
    <glyph glyph-name="Q" unicode="Q" horiz-adv-x="1447" 
d="M1481 -336q-103 -31 -255 -31q-357 0 -501 340q-283 0 -471 186t-188 478q0 137 53 259t143 214t209 146t255 54t257 -48t210 -138q189 -190 189 -485q0 -227 -146 -414q-143 -178 -359 -233q95 -211 231 -271t369 -30zM733 6q230 0 371 170t141 454t-151 466t-377 182
t-369 -172t-143 -461q0 -288 149 -464q149 -175 379 -175z" />
    <glyph glyph-name="R" unicode="R" horiz-adv-x="1208" 
d="M557 608q-125 0 -192 25v-574q-1 -10 29 -14t57 -8l102 -8l6 -29h-518l6 29l119 10q72 6 72 24v1158q0 10 -14 14t-72 8l-103 8l-6 29h504q225 0 342 -85t117 -220t-90 -226t-236 -131l313 -481q46 -66 72 -84t74 -18l57 -6l8 -29h-270l-35 61zM365 672q93 -31 213 -31
q131 8 213 89t81 222q0 142 -97 222t-288 73l-122 -4v-571z" />
    <glyph glyph-name="S" unicode="S" horiz-adv-x="970" 
d="M536 1311q104 0 203 -43l97 24l22 -319h-31l-110 246q-87 59 -212 59t-201 -70q-77 -70 -79 -180q0 -154 188 -237q58 -27 129 -52q176 -62 255 -130q112 -96 111 -255q-1 -158 -126 -271q-125 -112 -321 -112t-350 62l-35 301h30l46 -144q98 -186 325 -186q147 0 242 82
q90 82 90 209t-80 199q-80 73 -250 132t-245 120q-99 86 -99 228t106 239q107 98 295 98z" />
    <glyph glyph-name="T" unicode="T" horiz-adv-x="1236" 
d="M555 63v1186h-133q-180 -5 -257 -126q-24 -36 -46 -79l-27 -92h-31l76 328h983l47 -330h-28l-19 94q-52 122 -108 161q-56 40 -203 44h-127v-1190q0 -10 13 -14t73 -8l109 -8l6 -29h-531l6 29l125 10q72 7 72 24z" />
    <glyph glyph-name="U" unicode="U" horiz-adv-x="1359" 
d="M1163 473q-1 -248 -119 -375t-348 -127t-352 108q-123 108 -123 361v779q0 10 -13 15t-73 9l-102 8l-6 29h518l-6 -29l-119 -10q-70 -7 -72 -27v-780q0 -213 104 -303t299 -90q197 0 285 111t88 321v731q0 32 -139 41l-82 6l-6 29h459l-6 -29l-84 -6q-47 -4 -75 -13
t-28 -32v-727z" />
    <glyph glyph-name="V" unicode="V" horiz-adv-x="1267" 
d="M184 1141q-23 59 -42 80q-19 20 -68 24l-84 6l-6 29h477l-6 -29l-93 -4q-32 -4 -58 -14t-15 -41l395 -1053h4l336 948q16 49 25 78q15 55 -31 68q-25 6 -72 10l-74 8l-6 29h420l-6 -29l-66 -6q-34 -4 -56 -12q-38 -14 -69 -87q-30 -73 -61 -159l-360 -1007h-41z" />
    <glyph glyph-name="W" unicode="W" horiz-adv-x="1972" 
d="M186 1141q-23 59 -40 79t-70 25l-82 6l-4 29h477l-6 -29l-92 -4q-33 -2 -58 -13t-14 -42l369 -1055h4l307 826l-64 178q-21 59 -41 79t-73 25l-82 6l-6 29h477l-6 -29l-92 -4q-33 -2 -58 -14t-14 -41l377 -1053h2l311 942q33 93 23 116q-17 38 -109 46l-78 8l-6 29h422
l-6 -29l-64 -6q-35 -4 -54 -12q-36 -15 -61 -88q-26 -72 -57 -158l-338 -1007h-43l-340 931h-2l-350 -931h-47z" />
    <glyph glyph-name="X" unicode="X" horiz-adv-x="1253" 
d="M-8 29l65 4q71 4 109 35q39 31 117 145l286 424l-338 500q-38 62 -61 83t-68 25l-77 6l-7 29h490l-6 -25l-101 -6q-51 1 -59 -21t20 -75l281 -424h2l238 358q66 108 53 131t-98 27l-86 6l-9 29h467l-4 -29l-67 -4q-33 -2 -57 -5q-45 -6 -92 -68q-26 -33 -64 -93
l-258 -381q286 -424 404 -603q26 -40 49 -50t53 -12l77 -6l4 -29h-487l6 29l96 4q51 2 62 22q10 20 -21 70l-317 481h-2l-133 -198q-164 -244 -180 -283q-17 -39 -12 -56q8 -28 93 -32l84 -8l9 -29h-467z" />
    <glyph glyph-name="Y" unicode="Y" horiz-adv-x="1220" 
d="M547 63v504l-336 568q-31 55 -55 81t-80 29l-78 6l-6 29h485l-6 -29l-96 -4q-51 -2 -59 -19t24 -71l309 -536h6l252 450q56 102 47 128q-8 25 -31 35q-24 9 -69 13l-84 4l-6 29h448l-6 -29l-65 -4q-72 -4 -101 -28t-92 -146l-276 -487v-527q0 -10 14 -14t74 -8l108 -8
l6 -29h-530l6 29l125 10q72 6 72 24z" />
    <glyph glyph-name="Z" unicode="Z" horiz-adv-x="1118" 
d="M887 1249h-387q-162 0 -229 -54q-68 -54 -117 -189l-21 -86h-29l35 360h897v-23l-819 -1218v-4l395 -4q200 0 277 66t117 210l26 96h33l-59 -403h-943v23l824 1220v6z" />
    <glyph glyph-name="bracketleft" unicode="[" horiz-adv-x="665" 
d="M137 1296h500v-36h-459v-1711h459v-34h-500v1781z" />
    <glyph glyph-name="backslash" unicode="\" horiz-adv-x="503" 
d="M0 1309h39l432 -1792h-39z" />
    <glyph glyph-name="bracketright" unicode="]" horiz-adv-x="665" 
d="M29 -451h456v1711h-456v36h499v-1781h-499v34z" />
    <glyph glyph-name="asciicircum" unicode="^" 
d="M379 1380h18l252 -381h-20l-238 258h-4l-240 -258h-20z" />
    <glyph glyph-name="underscore" unicode="_" horiz-adv-x="927" 
d="M31 0h866l6 -70h-878z" />
    <glyph glyph-name="grave" unicode="`" 
d="M100 1393h140l241 -377h-16z" />
    <glyph glyph-name="a" unicode="a" horiz-adv-x="817" 
d="M716 49q36 0 95 66l16 -19q-35 -39 -73 -79t-87 -40q-48 0 -85 37t-35 103l-2 4q-152 -143 -256 -142t-164 57q-59 56 -59 126t24 118q48 92 237 162q95 37 236 74l2 90q13 252 -205 252q-69 0 -127 -31q-59 -31 -59 -55q0 -8 22 -28t22 -52q0 -34 -24 -56
q-22 -22 -56 -22q-79 0 -79 76q0 70 123 142q123 73 248 73t186 -65q62 -65 56 -228l-21 -493q-3 -43 13 -57t52 -13zM329 51q69 0 122 34t100 75l10 323q-224 -60 -302 -122t-80 -146q-1 -84 40 -124t110 -40z" />
    <glyph glyph-name="b" unicode="b" horiz-adv-x="966" 
d="M115 -39v1247q1 58 -11 78t-51 25l-90 8l4 24l256 54v-660l4 -4q150 166 310 166q161 0 270 -120q110 -120 109 -322q-1 -201 -135 -344q-127 -140 -289 -140t-281 76h-6l-74 -88h-16zM478 8q145 0 230 116t85 293q0 178 -86 294t-222 114q-86 0 -147 -40t-115 -93v-542
q43 -58 111 -100t144 -42z" />
    <glyph glyph-name="c" unicode="c" horiz-adv-x="845" 
d="M457 -25q-169 0 -287 127q-119 127 -119 324t128 338t325 141q123 0 206 -53q81 -53 81 -131q0 -39 -25 -65q-24 -26 -60 -26t-59 28q-23 26 -12 71q0 35 14 46q36 28 -28 64q-64 35 -127 35q-127 0 -226 -114q-98 -115 -98 -290t94 -294t236 -119q96 0 163 40t123 128
l25 -14q-128 -236 -354 -236z" />
    <glyph glyph-name="d" unicode="d" horiz-adv-x="997" 
d="M489 864q-76 0 -133 -30q-115 -60 -158 -212q-22 -75 -22 -164q0 -178 85 -295q85 -116 229 -116q78 0 140 40t113 93v541q-41 59 -109 101t-145 42zM739 135q-149 -159 -310 -160q-162 -2 -270 121t-108 325t132 340t321 138q129 0 235 -63h4v374q0 60 -10 80t-51 23
l-104 10l4 23l270 51v-1297q0 -27 8 -41t43 -18l94 -6l-2 -23l-250 -43l-2 164z" />
    <glyph glyph-name="e" unicode="e" horiz-adv-x="854" 
d="M457 -25q-169 0 -287 127q-119 127 -119 323t121 338t309 142q141 0 226 -79q84 -79 86 -195q0 -30 -5 -53l-608 4q-10 -58 -10 -130q0 -73 26 -149q52 -153 174 -215q60 -31 143 -31q164 0 275 168l23 -14q-128 -236 -354 -236zM469 872q-93 0 -173 -75t-110 -187l482 4
q0 181 -114 239q-38 19 -85 19z" />
    <glyph glyph-name="f" unicode="f" horiz-adv-x="552" 
d="M289 948v-74h229l-18 -69h-211v-752q0 -10 8 -14t57 -6l105 -4l6 -29h-422l6 29l70 4q33 2 47 4t14 18v750l-151 4l16 65h131l4 54q15 208 121 330t244 120q55 0 90 -26t35 -59t-20 -55t-55 -22q-36 0 -65 30q-29 28 -36 69l-5 14l-28 4q-172 -43 -172 -385z" />
    <glyph glyph-name="g" unicode="g" horiz-adv-x="890" 
d="M854 -120q0 -176 -142 -282t-350 -106q-156 0 -250 64t-94 157q0 94 67 161t157 108v2q-191 22 -191 133q0 69 68 127q68 57 149 75v3q-78 26 -135 98t-57 154q0 149 99 241t228 91t215 -62l246 28l-8 -81l-194 18l-3 -6q89 -84 89 -208t-102 -213t-243 -87
q-60 0 -102 12q-53 -12 -96 -47t-43 -80q0 -92 160 -92l231 4q147 0 224 -61t77 -151zM776 -203q0 180 -250 189h-47q-23 0 -51 -2t-62 -4t-83 -5q-107 -43 -154 -140t2 -173q81 -127 295 -127q133 0 242 76q108 77 108 186zM411 324q95 0 157 74t62 201q0 126 -56 202
q-58 76 -157 76t-161 -78q-61 -78 -61 -200t60 -199q61 -76 156 -76z" />
    <glyph glyph-name="h" unicode="h" horiz-adv-x="991" 
d="M537 819q-139 0 -277 -133v-633q0 -10 12 -13t62 -7l65 -4l7 -29h-390l7 29l65 4q35 2 48 5t14 19v1143q0 66 -12 86t-52 27l-80 6l2 20l252 54v-666l2 -2q100 83 148 114q101 66 198 66q96 1 160 -63t63 -195v-592q-1 -10 9 -15t65 -7l64 -4l6 -29h-391l6 29l72 4
q61 3 61 24v551q0 111 -50 161t-136 50z" />
    <glyph glyph-name="i" unicode="i" horiz-adv-x="448" 
d="M172 57v639q0 72 -12 94t-54 25l-79 10l4 21l252 57v-850q0 -10 12 -13t61 -7l66 -4l6 -29h-395l6 29l72 4q35 2 48 5t13 19zM206 1104q-44 0 -66 30q-43 58 1 120q23 32 68 32t64 -32t19 -60t-20 -60q-22 -30 -66 -30z" />
    <glyph glyph-name="j" unicode="j" horiz-adv-x="415" 
d="M158 -178v874q0 72 -12 94t-54 25l-80 10l4 21l252 57v-977q0 -177 -81 -311q-81 -133 -203 -133q-66 0 -101 28t-35 66t22 57q22 21 58 21t62 -33q27 -33 35 -94q133 22 133 295zM190 1104q-45 0 -65 30q-41 61 1 120q22 32 67 32t65 -32q40 -64 -1 -119
q-22 -31 -67 -31z" />
    <glyph glyph-name="k" unicode="k" horiz-adv-x="919" 
d="M150 1200q0 66 -12 88t-52 25l-80 6l2 20l252 54v-981l264 254q99 104 99 138t-74 40l-66 6l-4 27h385l-6 -29l-63 -6q-63 -5 -145 -98q-30 -32 -72 -74q-37 -33 -62 -57t-44 -41t-19 -19l286 -434q36 -56 52 -69t65 -17l47 -4l6 -29h-233l-303 479l-113 -108v-318
q0 -10 12 -13t60 -7l65 -4l6 -29h-387l7 29l65 4q35 2 48 5t14 19v1143z" />
    <glyph glyph-name="l" unicode="l" horiz-adv-x="442" 
d="M164 57v1133q0 72 -12 94t-54 29l-86 6l4 20l256 54v-1340q0 -10 12 -14t62 -6l66 -4l6 -29h-391l6 29l67 4q35 2 50 5q14 3 14 19z" />
    <glyph glyph-name="m" unicode="m" horiz-adv-x="1525" 
d="M281 731q176 176 295 176t180 -61q46 -53 57 -119h2q180 180 322 180q102 0 163 -67q66 -66 66 -191v-594q0 -10 9 -14t65 -8l61 -4l6 -29h-387l6 29l68 4q61 3 61 24v557q0 205 -182 205q-72 0 -142 -35t-108 -86v-643q-1 -10 9 -14t65 -8l68 -4l6 -29h-391l6 29l67 4
q58 3 60 24v557q0 205 -181 205q-135 0 -251 -119v-647q0 -10 13 -13t62 -7l68 -4l6 -29h-395l6 29l68 4q35 2 49 5t14 19v637q0 72 -12 96t-54 25l-79 10l2 21l254 57l-9 -172h7z" />
    <glyph glyph-name="n" unicode="n" horiz-adv-x="1011" 
d="M557 819q-133 0 -276 -133v-633q0 -10 13 -13t62 -7l64 -4l8 -29h-393l6 29l68 4q35 2 49 5t14 19v641q0 70 -12 92t-49 25l-84 10l2 21l254 57l-4 -176l6 -4q95 84 145 116q102 66 199 66q155 0 208 -143q17 -49 17 -117v-590q0 -10 10 -14t64 -8l65 -4l6 -29h-391l6 29
l70 4q62 3 64 24v551q0 111 -52 161t-139 50z" />
    <glyph glyph-name="o" unicode="o" horiz-adv-x="995" 
d="M183 104q-130 132 -130 331t129 334q129 136 318 136q188 0 316 -132t128 -332q0 -199 -130 -333q-131 -135 -315 -135q-185 0 -316 131zM705 786q-84 88 -213 88t-222 -120q-94 -120 -94 -297q0 -251 134 -386q68 -69 198 -69q129 0 220 126t89 300q0 246 -112 358z" />
    <glyph glyph-name="p" unicode="p" horiz-adv-x="995" 
d="M252 35v-496q0 -10 12 -14t62 -6l100 -4l6 -29h-428l6 29l70 4q35 4 49 6t14 16v1159q0 68 -11 90t-50 25l-84 10l2 21l254 57l-2 -166l6 -4q144 166 306 166t271 -119t109 -321q0 -201 -131 -343q-131 -143 -324 -143q-103 0 -233 62h-4zM508 8q146 0 230 118
q83 118 82 296q-1 179 -86 292t-220 111q-86 0 -148 -40t-114 -93v-553q42 -53 110 -92t146 -39z" />
    <glyph glyph-name="q" unicode="q" horiz-adv-x="980" 
d="M523 899q109 0 235 -80h6l74 96h14v-1374q0 -14 14 -16t49 -6l70 -4l6 -29h-426l6 29l99 4q49 2 61 6t12 14v594l-4 2q-149 -159 -310 -160q-162 -2 -270 121t-108 325t134 340q135 138 338 138zM489 864q-76 0 -133 -30q-116 -60 -158 -211q-22 -76 -22 -164
q0 -176 85 -294t229 -118q78 0 140 40t113 93v539q-41 61 -109 103t-145 42z" />
    <glyph glyph-name="r" unicode="r" horiz-adv-x="677" 
d="M172 57v641q0 70 -12 92t-49 25l-82 10l4 21l250 57l-7 -334h3q59 166 127 253t151 87q53 -1 79 -29t26 -62t-22 -60t-56 -27q-34 0 -61 26q-26 26 -29 74q-70 -23 -121 -101t-92 -218v-459q0 -10 8 -14t55 -6l98 -4l7 -29h-414l6 29l68 4q35 2 49 5t14 19z" />
    <glyph glyph-name="s" unicode="s" horiz-adv-x="724" 
d="M382 907q73 0 163 -37l65 19l15 -230h-31l-78 168q-78 49 -160 49q-82 2 -131 -44t-49 -104t16 -88q31 -56 116 -91q40 -16 129 -47t133 -66q92 -71 92 -187q0 -115 -91 -195q-91 -81 -233 -81q-141 0 -254 45l-23 234h29l41 -121q80 -129 215 -129q98 0 160 52
q61 52 61 142t-64 135q-65 45 -141 69t-120 43q-92 41 -134 119q-22 40 -22 94t22 100q73 151 274 151z" />
    <glyph glyph-name="t" unicode="t" horiz-adv-x="612" 
d="M594 106q-138 -133 -222 -133q-54 1 -86 9q-118 30 -118 182l10 643l-155 4l16 59l141 7l8 176l103 -2l-2 -177h291l-19 -67h-272q-4 -329 -13 -596v-27q-4 -78 33 -110t93 -31q56 0 96 27t82 55z" />
    <glyph glyph-name="u" unicode="u" horiz-adv-x="968" 
d="M719 766q0 47 -14 61t-62 17l-63 6l-7 27h256v-775q1 -27 9 -40t45 -17l92 -6l-4 -21l-252 -49l4 181h-4q-33 -27 -71 -59q-38 -31 -81 -57q-99 -59 -170 -60q-71 -2 -111 14t-75 49q-62 58 -64 196v590q0 9 -9 13t-66 8l-64 6l-6 27h254v-607q0 -211 193 -213
q131 0 270 129v580z" />
    <glyph glyph-name="v" unicode="v" horiz-adv-x="913" 
d="M135 750q-23 59 -36 75q-13 15 -50 19l-57 6l-6 27h374l-4 -27l-59 -6q-43 -2 -52 -20t7 -60l244 -627l204 539q38 112 34 132q-5 20 -24 26t-57 8l-57 8l-6 27h336l-6 -27l-41 -6q-50 -4 -69 -30t-75 -152l-262 -678h-41z" />
    <glyph glyph-name="w" unicode="w" horiz-adv-x="1409" 
d="M135 743q-26 86 -54 96q-11 3 -30 5l-57 6l-4 27h377l-9 -27l-55 -6q-45 -2 -55 -18t6 -60l221 -629l211 518l-35 97q-23 59 -38 74t-52 18l-57 6l-8 27h378l-6 -27l-57 -6q-45 -2 -53 -18t8 -60l250 -633l176 541q33 104 26 126q-6 23 -26 31t-57 11l-52 8l-6 27h330
l-6 -27l-37 -6q-50 -4 -73 -35t-66 -152l-221 -673h-43l-254 624l-258 -624h-41z" />
    <glyph glyph-name="x" unicode="x" horiz-adv-x="903" 
d="M8 29l62 8q68 8 125 94l206 285l-256 362q-23 33 -41 47t-49 19l-49 6l-6 27h377l-6 -27l-60 -6q-63 -8 -39 -58l199 -278h2l176 258q38 69 -31 76l-69 8l-6 27h331l-6 -27l-59 -8q-69 -8 -129 -101l-186 -258l274 -383q23 -35 40 -49t48 -18l49 -4l6 -29h-374l6 29l57 6
q67 8 33 57l-209 303h-2l-195 -286q-16 -27 -12 -49t43 -23l72 -8l6 -29h-334z" />
    <glyph glyph-name="y" unicode="y" horiz-adv-x="890" 
d="M158 -530q-49 0 -82 26t-33 60t23 60q24 26 60 26t62 -27t33 -74q61 14 98 83t82 208l45 143v2l-313 773q-23 59 -36 75t-48 19l-59 6l-6 27h374l-4 -27l-55 -6q-43 -2 -52 -20t7 -60l250 -633l198 547q35 100 27 124q-7 22 -27 30t-57 10l-57 8l-6 27h338l-7 -27l-47 -6
q-49 -4 -66 -29q-16 -26 -30 -61t-37 -92l-248 -666l-65 -213q-46 -161 -106 -237t-156 -76z" />
    <glyph glyph-name="z" unicode="z" horiz-adv-x="825" 
d="M422 848q-151 0 -209 -39q-31 -20 -48 -53t-34 -78l-18 -94h-27l8 293h654v-21l-580 -825l219 -2q201 0 277 94q25 31 49 72l45 98h24l-73 -293h-668v23l575 825h-194z" />
    <glyph glyph-name="braceleft" unicode="{" horiz-adv-x="604" 
d="M197 -215q1 92 29 186q28 93 41 143t13 99q1 122 -171 158q-53 10 -119 16l-10 19l10 20q131 10 186 37q55 28 80 59t25 80q1 49 -13 98q-14 50 -29 102t-29 108q-13 56 -13 122q0 137 99 215t273 88l4 -24q-152 -19 -215 -71t-63 -133q1 -81 31 -176t44 -151t15 -118
q0 -104 -84 -169t-219 -83v-7q135 -19 219 -83t84 -159q-1 -95 -31 -192q-30 -96 -44 -146t-15 -104q0 -90 63 -145t215 -74l-4 -22q-174 10 -273 89t-99 218z" />
    <glyph glyph-name="bar" unicode="|" horiz-adv-x="391" 
d="M176 1325h37v-1792h-37v1792z" />
    <glyph glyph-name="braceright" unicode="}" horiz-adv-x="604" 
d="M219 156q0 100 83 163t218 84v7q-135 18 -218 83t-83 165q1 100 31 191t44 142q13 51 13 105q0 92 -62 144t-214 71l2 24q176 -10 275 -88t100 -215q0 -90 -30 -186t-42 -146q-14 -50 -14 -98q0 -155 292 -176l9 -20l-9 -19q-149 -14 -199 -39q-51 -26 -73 -56t-20 -88
q1 -58 30 -150q29 -93 42 -148t14 -121q0 -139 -100 -218t-275 -89l-2 22q152 18 214 74t62 139q0 84 -44 214q-44 129 -44 229z" />
    <glyph glyph-name="asciitilde" unicode="~" 
d="M530 317q-54 1 -127 45t-111 63t-71 19t-59 -20t-37 -92h-23q25 193 148 192q57 0 160 -63t145 -64q77 0 98 113h21q-25 -193 -144 -193z" />
    <glyph glyph-name="nonbreakingspace" unicode="&#xa0;" horiz-adv-x="284" 
 />
    <glyph glyph-name="exclamdown" unicode="&#xa1;" horiz-adv-x="483" 
d="M227 -37q-64 0 -60 67q1 17 3 33l59 832q3 8 13 8t12 -8l61 -832q0 -16 1 -33q4 -67 -58 -67h-31zM241 1303q41 0 69 -30t28 -67q0 -38 -28 -64t-69 -26q-42 0 -69 27t-27 63t27 67q27 30 69 30z" />
    <glyph glyph-name="cent" unicode="&#xa2;" horiz-adv-x="845" 
d="M369 -14q-137 31 -228 153q-92 122 -92 303t129 323t326 142q63 0 108 -12l17 57q8 37 33 125l49 180h32l-100 -370q63 -19 97 -55t34 -72t-24 -58q-25 -20 -57 -20q-31 0 -53 25t-26 67l-190 -708q37 -10 76 -11q98 0 166 42t120 128l25 -12q-132 -240 -356 -240
q-27 0 -56 7l-82 -306h-32zM170 489q0 -161 62 -267t161 -146l209 780q-39 19 -105 20q-135 2 -231 -112t-96 -275z" />
    <glyph glyph-name="sterling" unicode="&#xa3;" horiz-adv-x="983" 
d="M303 833q0 84 30 169q64 183 213 254q77 38 171 38t157 -38t64 -103q0 -29 -19 -53t-47 -23q-50 0 -69 43q-18 43 12 94q-59 41 -127 41q-126 -1 -200 -89t-74 -236q0 -84 11 -162t21 -156h263l6 -34h-264q10 -88 10 -144q0 -154 -80 -289q82 -29 164 -55q81 -26 163 -27
q82 1 136 51t76 187l22 -4q-4 -154 -80 -241t-188 -87t-252 79q-39 22 -76 42q-92 -123 -205 -123q-55 0 -91 29t-36 82t42 83q84 60 288 -3q35 76 35 159t-43 261h-223l6 34h211q-27 137 -27 221zM43 74q0 -38 29 -58q28 -20 74 -20q90 0 169 110q-95 46 -159 48
q-113 0 -113 -80z" />
    <glyph glyph-name="currency" unicode="&#xa4;" horiz-adv-x="968" 
d="M631 47q196 0 297 195l20 -15q-57 -111 -142 -183t-214 -73q-172 0 -294 130t-161 348h-131l6 34h119q-6 59 -6 127t6 105h-125l6 37h125q37 242 173 394t329 152q126 0 209 -53q82 -53 82 -129q0 -34 -25 -58t-55 -24t-50 18q-38 37 -23 95q7 27 26 43q-21 32 -65 56
t-112 24t-132 -40t-114 -110q-106 -148 -130 -368h422l6 -37h-434l-2 -72q0 -92 14 -160h416l6 -34h-416q37 -184 134 -293t235 -109z" />
    <glyph glyph-name="yen" unicode="&#xa5;" horiz-adv-x="1214" 
d="M553 63v252h-406l7 37h399v232h-401l-2 34h385l-312 517q-31 55 -55 81t-80 29l-78 6l-6 29h481l-6 -29l-96 -4q-51 0 -57 -18t22 -72l309 -522h7l239 436q55 103 47 128t-31 35q-24 9 -69 13l-84 4l-6 29h450l-6 -29l-65 -4q-72 -4 -95 -23q-22 -18 -42 -54t-54 -97
l-258 -455h373l-2 -34h-385v-232h383l6 -37h-389v-256q0 -10 14 -14t72 -8l110 -8l7 -29h-531l6 29l125 10q74 7 74 24z" />
    <glyph glyph-name="section" unicode="&#xa7;" horiz-adv-x="843" 
d="M563 1223q-51 59 -124 59q-81 0 -128 -55t-47 -114q0 -60 22 -94q42 -65 136 -117q45 -26 94 -52q124 -65 187 -119q90 -79 90 -180q0 -138 -195 -248q55 -61 55 -153t-77 -171t-188 -79t-183 43t-74 102q0 27 17 49q16 22 56 21q40 0 57 -41t-9 -88q51 -58 140 -58
t137 54q47 54 48 113t-21 93q-44 68 -136 118q-45 26 -134 74t-137 91q-96 84 -96 186q0 144 195 246q-55 61 -55 155t74 175q74 80 180 80q107 0 173 -46t66 -104q0 -25 -18 -47t-58 -22t-56 41q-17 41 9 88zM127 718q0 -123 151 -212q44 -27 140 -76t164 -108
q84 40 117 116q33 75 -4 144q-47 92 -218 172q-59 32 -115 62t-98 69q-49 -17 -93 -67t-44 -100z" />
    <glyph glyph-name="dieresis" unicode="&#xa8;" 
d="M226 1053q-42 -1 -62 27q-40 56 0 114q20 31 62 31t64 -31q42 -59 0 -114q-22 -27 -64 -27zM550 1053q-42 -1 -64 27q-42 53 0 114q22 31 64 31t62 -31q20 -30 20 -58t-20 -56t-62 -27z" />
    <glyph glyph-name="copyright" unicode="&#xa9;" horiz-adv-x="1460" 
d="M731 -29q-139 1 -261 53t-213 143t-143 213t-53 261q0 139 53 261q105 247 356 358q122 53 261 53t261 -53q248 -108 357 -358q52 -122 52 -261t-52 -261q-106 -249 -357 -356q-122 -53 -261 -53zM731 4q131 0 247 50t202 136t136 203t50 248t-50 248t-136 204t-202 137
t-247 50t-248 -50q-234 -100 -339 -341q-50 -117 -50 -248t50 -248q101 -236 339 -339q117 -50 248 -50zM426 642q0 -163 91 -272q91 -108 239 -108q90 0 143 36t96 101l37 84h19l-41 -196l-43 -4q-108 -43 -206 -43q-99 0 -175 28t-130 81q-54 52 -85 124t-31 160t30 162
t84 128t129 85q75 30 176 30t189 -45l70 25l12 -219h-18l-74 162q-90 54 -179 54q-88 1 -145 -27q-118 -58 -164 -194q-24 -69 -24 -152z" />
    <glyph glyph-name="ordfeminine" unicode="&#xaa;" horiz-adv-x="614" 
d="M217 588q-78 0 -122 44t-44 103q0 83 86 143t287 105l4 94q5 146 -94 174q-84 23 -141 -7q-56 -30 -56 -46q-1 -6 15 -22t16 -41t-16 -41t-43 -17q-62 0 -62 60q0 50 93 107q93 56 189 56q95 0 142 -50t43 -177l-14 -366q-4 -62 47 -62q23 0 41 13t39 30l6 -12
q-23 -27 -55 -58q-32 -30 -69 -30q-38 0 -65 28t-30 74v2q-119 -104 -197 -104zM172 677q29 -32 90 -32t156 72l6 241q-230 -49 -268 -139q-12 -29 -12 -69t28 -73z" />
    <glyph glyph-name="guillemotleft" unicode="&#xab;" horiz-adv-x="823" 
d="M360 440v29l398 340l10 -16l-279 -338l281 -340l-10 -17zM27 440v29l385 305l10 -16l-260 -303l262 -305l-10 -17z" />
    <glyph glyph-name="registered" unicode="&#xae;" horiz-adv-x="1460" 
d="M731 -29q-139 1 -261 53t-213 143t-143 213t-53 261q0 139 53 261q105 247 356 358q122 53 261 53t261 -53q248 -108 357 -358q52 -122 52 -261t-52 -261q-106 -249 -357 -356q-122 -53 -261 -53zM731 4q131 0 247 50t202 136t136 203t50 248t-50 248t-136 204t-202 137
t-247 50t-248 -50q-234 -100 -339 -341q-50 -117 -50 -248t50 -248q101 -236 339 -339q117 -50 248 -50zM522 313v666q0 6 -6 9t-41 7l-72 6l-6 23h318q135 0 206 -52t71 -133t-56 -135q-55 -54 -135 -73l182 -283q24 -37 40 -44q15 -8 50 -13l35 -2l6 -25h-170l-20 37
l-201 320q-68 6 -121 16v-328q0 -10 51 -16l74 -4l4 -25h-334l4 25l78 6q43 6 43 18zM907 826q0 83 -59 131t-170 42l-76 -2v-331q47 -19 124 -17t129 48t52 129z" />
    <glyph glyph-name="macron" unicode="&#xaf;" horiz-adv-x="774" 
d="M143 1135h502l-8 -58h-506z" />
    <glyph glyph-name="degree" unicode="&#xb0;" horiz-adv-x="659" 
d="M128 831q-75 81 -76 201q-1 119 75 202t202 83q125 0 207 -84q74 -79 74 -199q0 -119 -74 -200q-78 -84 -205 -84q-128 0 -203 81zM573 1032q0 51 -17 97q-34 93 -126 134q-45 19 -100 19q-110 0 -175 -71t-65 -179t67 -178t174 -70t175 72q67 71 67 176z" />
    <glyph glyph-name="plusminus" unicode="&#xb1;" horiz-adv-x="636" 
d="M268 903q0 11 -11 17t-64 8l-95 6l-6 31h457l-6 -31l-103 -6q-70 -2 -69 -29v-838q0 -10 11 -15t62 -9l95 -6l6 -31h-457l6 31l103 6q72 2 71 29v837z" />
    <glyph glyph-name="acute" unicode="&#xb4;" 
d="M537 1393h139l-363 -377h-18z" />
    <glyph glyph-name="paragraph" unicode="&#xb6;" horiz-adv-x="864" 
d="M514 600q-223 0 -338 93t-115 253t111 247t338 87h233v-1346h-38v684q-77 -18 -191 -18z" />
    <glyph glyph-name="periodcentered" unicode="&#xb7;" horiz-adv-x="372" 
d="M283 434q0 -36 -27 -64t-69 -28q-41 0 -69 28t-28 64t28 66q28 28 70 28t68 -28q27 -28 27 -66z" />
    <glyph glyph-name="cedilla" unicode="&#xb8;" 
d="M500 -324q0 116 -148 115q-68 0 -135 -18v18l193 219h36l-135 -153q109 16 187 -23q77 -40 76 -126t-101 -145q-100 -58 -270 -73l-6 14q143 16 223 64t80 108z" />
    <glyph glyph-name="ordmasculine" unicode="&#xba;" horiz-adv-x="743" 
d="M372 584q-146 0 -245 103q-98 105 -97 251q1 147 101 256q100 108 244 107q145 -1 241 -104q97 -103 97 -253q0 -74 -26 -139q-53 -135 -180 -193q-62 -28 -135 -28zM236 659q51 -51 145 -51t162 89q67 89 67 233q0 194 -88 280q-61 68 -158 68t-163 -89t-68 -228
q0 -199 103 -302z" />
    <glyph glyph-name="guillemotright" unicode="&#xbb;" horiz-adv-x="835" 
d="M51 115l281 340l-279 338l10 16l396 -340v-29l-398 -342zM397 150l262 305l-262 303l11 16l385 -305v-29l-387 -307z" />
    <glyph glyph-name="questiondown" unicode="&#xbf;" horiz-adv-x="638" 
d="M567 43q0 -72 -143 -72t-252 109t-106 248q0 103 52 151q32 31 141 82t133 67q50 35 50 88q0 52 -39 107t-84 95h27q106 -85 148 -174q16 -34 16 -66q0 -82 -52 -128t-156 -92t-154 -78q-48 -32 -48 -73q0 -138 173 -196q60 -21 141 -21t141 19q12 -18 12 -66zM341 1128
q-42 0 -68 27q-25 27 -25 64t26 65t67 27q42 0 70 -28q27 -29 27 -65t-28 -63t-69 -27z" />
    <glyph glyph-name="Agrave" unicode="&#xc0;" horiz-adv-x="1259" 
d="M299 1739h139l242 -377h-16zM788 569l-8 25q-56 174 -190 551h-4l-205 -576h407zM549 1231q69 28 88 67h18l410 -1159q26 -67 43 -84t68 -20l84 -6l6 -29h-482l7 29l92 4q33 2 59 13t14 40l-153 446h-434l-123 -342q-36 -99 -28 -118q9 -20 34 -26t72 -11l75 -6l7 -29
h-420l6 29l63 6q35 4 57 13t41 37t91 208l319 887z" />
    <glyph glyph-name="Aacute" unicode="&#xc1;" horiz-adv-x="1259" 
d="M788 1739h140l-363 -377h-18zM788 569l-8 25q-56 174 -190 551h-4l-205 -576h407zM549 1231q69 28 88 67h18l410 -1159q26 -67 43 -84t68 -20l84 -6l6 -29h-482l7 29l92 4q33 2 59 13t14 40l-153 446h-434l-123 -342q-36 -99 -28 -118q9 -20 34 -26t72 -11l75 -6l7 -29
h-420l6 29l63 6q35 4 57 13t41 37t91 208l319 887z" />
    <glyph glyph-name="Acircumflex" unicode="&#xc2;" horiz-adv-x="1259" 
d="M623 1726h18l252 -380h-21l-237 258h-4l-240 -258h-20zM788 569l-8 25q-56 174 -190 551h-4l-205 -576h407zM549 1231q69 28 88 67h18l410 -1159q26 -67 43 -84t68 -20l84 -6l6 -29h-482l7 29l92 4q33 2 59 13t14 40l-153 446h-434l-123 -342q-36 -99 -28 -118
q9 -20 34 -26t72 -11l75 -6l7 -29h-420l6 29l63 6q35 4 57 13t41 37t91 208l319 887z" />
    <glyph glyph-name="Atilde" unicode="&#xc3;" horiz-adv-x="1259" 
d="M764 1378q-55 0 -159 64t-144 63q-39 0 -65 -20t-38 -92h-22q25 193 147 192q57 0 160 -63t145 -64q78 0 99 113h20q-24 -193 -143 -193zM788 569l-8 25q-56 174 -190 551h-4l-205 -576h407zM549 1231q69 28 88 67h18l410 -1159q26 -67 43 -84t68 -20l84 -6l6 -29h-482
l7 29l92 4q33 2 59 13t14 40l-153 446h-434l-123 -342q-36 -99 -28 -118q9 -20 34 -26t72 -11l75 -6l7 -29h-420l6 29l63 6q35 4 57 13t41 37t91 208l319 887z" />
    <glyph glyph-name="Adieresis" unicode="&#xc4;" horiz-adv-x="1259" 
d="M460 1559q42 0 64 -31t21 -59q1 -27 -21 -55t-64 -28t-63 28q-20 28 -20 56t20 58q21 31 63 31zM784 1559q42 0 62 -31t20 -59q0 -27 -20 -55t-63 -28q-41 0 -63 28t-22 56t22 58q22 31 64 31zM788 569l-8 25q-56 174 -190 551h-4l-205 -576h407zM549 1231q69 28 88 67
h18l410 -1159q26 -67 43 -84t68 -20l84 -6l6 -29h-482l7 29l92 4q33 2 59 13t14 40l-153 446h-434l-123 -342q-36 -99 -28 -118q9 -20 34 -26t72 -11l75 -6l7 -29h-420l6 29l63 6q35 4 57 13t41 37t91 208l319 887z" />
    <glyph glyph-name="Aring" unicode="&#xc5;" horiz-adv-x="1259" 
d="M788 569l-8 25q-56 174 -190 551h-4l-205 -576h407zM444 1437q0 71 48 126t135 55q86 0 134 -55t48 -125t-36 -119t-101 -64l393 -1116q26 -67 43 -84t68 -20l84 -6l6 -29h-482l7 29l92 4q33 2 59 13t14 40l-153 446h-434l-123 -342q-36 -99 -28 -118q9 -20 34 -26
t72 -11l75 -6l7 -29h-420l6 29l63 6q35 4 57 13t41 37t91 208l348 958q-70 11 -109 63t-39 123zM475 1433q0 -63 40 -109t111 -46q70 0 110 46t40 108t-40 110q-40 47 -110 47t-111 -47q-40 -47 -40 -109z" />
    <glyph glyph-name="AE" unicode="&#xc6;" horiz-adv-x="1697" 
d="M1169 1247h-243v-557h178q128 4 157 22q30 17 43 40t23 57l21 59l20 -4l-39 -391l-20 4l-6 55q-4 78 -38 98q-35 19 -171 23l-168 2v-614l215 -6q206 4 297 61q92 57 135 172l24 86l29 -2l-76 -352h-946l6 31l119 10q70 7 72 29v462h-402l-168 -294q-70 -125 -72 -152
q-3 -27 17 -37t68 -14l102 -10l6 -25h-463l7 29l102 8q43 4 83 44t118 173l546 952q8 14 -11 24t-97 13l-105 8l-6 29h996l34 -334h-24l-21 88q-50 127 -114 170t-228 43zM801 569v654h-8l-373 -654h381z" />
    <glyph glyph-name="Ccedilla" unicode="&#xc7;" horiz-adv-x="1327" 
d="M881 -324q-1 116 -149 115q-68 0 -134 -18v18l158 180h-4q-304 0 -495 182t-191 477t195 488t499 193q172 0 330 -74l110 43l21 -367h-29l-119 283q-41 30 -122 56t-201 26t-222 -47q-209 -96 -286 -333q-39 -116 -39 -256q0 -284 151 -461t400 -177h32l5 6h36l-2 -4
q125 14 202 72t138 149l60 142h30l-69 -318l-70 -2q-151 -69 -321 -76l-103 -116q109 16 187 -23q77 -40 76 -126t-101 -145q-100 -58 -270 -73l-6 14q143 16 223 64t80 108z" />
    <glyph glyph-name="Egrave" unicode="&#xc8;" horiz-adv-x="1148" 
d="M297 1739h139l242 -377h-16zM238 1221q0 10 -14 14t-70 8l-91 8l-6 29h918l33 -334h-25l-22 88q-41 120 -110 168q-70 47 -235 47h-251v-559h204q126 4 152 20q26 17 37 40q10 23 20 57l21 59l22 -2l-39 -391l-22 2l-4 55q-4 83 -32 101t-165 22l-194 2v-616l253 -6
q201 0 281 59t125 176l25 86l30 -2l-78 -352h-946l6 29l107 10q68 7 70 24v1158z" />
    <glyph glyph-name="Eacute" unicode="&#xc9;" horiz-adv-x="1148" 
d="M752 1739h139l-363 -377h-18zM238 1221q0 10 -14 14t-70 8l-91 8l-6 29h918l33 -334h-25l-22 88q-41 120 -110 168q-70 47 -235 47h-251v-559h204q126 4 152 20q26 17 37 40q10 23 20 57l21 59l22 -2l-39 -391l-22 2l-4 55q-4 83 -32 101t-165 22l-194 2v-616l253 -6
q201 0 281 59t125 176l25 86l30 -2l-78 -352h-946l6 29l107 10q68 7 70 24v1158z" />
    <glyph glyph-name="Ecircumflex" unicode="&#xca;" horiz-adv-x="1148" 
d="M557 1726h18l252 -380h-20l-238 258h-4l-239 -258h-21zM238 1221q0 10 -14 14t-70 8l-91 8l-6 29h918l33 -334h-25l-22 88q-41 120 -110 168q-70 47 -235 47h-251v-559h204q126 4 152 20q26 17 37 40q10 23 20 57l21 59l22 -2l-39 -391l-22 2l-4 55q-4 83 -32 101
t-165 22l-194 2v-616l253 -6q201 0 281 59t125 176l25 86l30 -2l-78 -352h-946l6 29l107 10q68 7 70 24v1158z" />
    <glyph glyph-name="Edieresis" unicode="&#xcb;" horiz-adv-x="1148" 
d="M398 1386q-42 0 -62 28q-40 55 0 114q20 31 62 31t64 -31t22 -59q0 -27 -22 -55t-64 -28zM722 1386q-42 0 -64 28q-41 53 0 114q22 31 64 31t62 -31t20 -59q0 -27 -20 -55t-62 -28zM238 1221q0 10 -14 14t-70 8l-91 8l-6 29h918l33 -334h-25l-22 88q-41 120 -110 168
q-70 47 -235 47h-251v-559h204q126 4 152 20q26 17 37 40q10 23 20 57l21 59l22 -2l-39 -391l-22 2l-4 55q-4 83 -32 101t-165 22l-194 2v-616l253 -6q201 0 281 59t125 176l25 86l30 -2l-78 -352h-946l6 29l107 10q68 7 70 24v1158z" />
    <glyph glyph-name="Igrave" unicode="&#xcc;" horiz-adv-x="643" 
d="M16 1739h140l241 -377h-16zM258 63v1158q0 10 -13 14t-73 8l-94 8l-6 29h501l-6 -29l-110 -10q-72 -7 -72 -24v-1158q0 -10 14 -14t72 -8l94 -8l6 -29h-501l6 29l110 10q72 7 72 24z" />
    <glyph glyph-name="Iacute" unicode="&#xcd;" horiz-adv-x="643" 
d="M492 1739h139l-363 -377h-18zM258 63v1158q0 10 -13 14t-73 8l-94 8l-6 29h501l-6 -29l-110 -10q-72 -7 -72 -24v-1158q0 -10 14 -14t72 -8l94 -8l6 -29h-501l6 29l110 10q72 7 72 24z" />
    <glyph glyph-name="Icircumflex" unicode="&#xce;" horiz-adv-x="643" 
d="M313 1726h19l252 -380h-21l-237 258h-4l-240 -258h-21zM258 63v1158q0 10 -13 14t-73 8l-94 8l-6 29h501l-6 -29l-110 -10q-72 -7 -72 -24v-1158q0 -10 14 -14t72 -8l94 -8l6 -29h-501l6 29l110 10q72 7 72 24z" />
    <glyph glyph-name="Idieresis" unicode="&#xcf;" horiz-adv-x="643" 
d="M78 1476q0 28 20 58t62 31q42 0 64 -31q22 -30 22 -58t-22 -56t-63 -27q-42 0 -63 27q-20 28 -20 56zM484 1393q-42 -1 -64 27t-21 56q0 28 22 58q21 30 63 31q42 0 62 -31q20 -30 21 -58q0 -28 -20 -56q-21 -27 -63 -27zM258 63v1158q0 10 -13 14t-73 8l-94 8l-6 29h501
l-6 -29l-110 -10q-72 -7 -72 -24v-1158q0 -10 14 -14t72 -8l94 -8l6 -29h-501l6 29l110 10q72 7 72 24z" />
    <glyph glyph-name="Eth" unicode="&#xd0;" horiz-adv-x="1359" 
d="M238 666v555q0 10 -14 14t-72 8l-82 8l-7 29l467 6q341 0 532 -168t191 -458t-206 -475t-553 -185h-433l7 29l98 10q70 7 72 24v566h-168l6 37h162zM365 629v-570l180 -24q272 8 429 182q144 158 144 422t-158 437t-456 173h-139v-583h307l6 -37h-313z" />
    <glyph glyph-name="Ntilde" unicode="&#xd1;" horiz-adv-x="1423" 
d="M874 1378q-54 0 -127 44t-111 64q-38 19 -71 19t-59 -20t-37 -92h-23q25 193 148 192q57 0 160 -63t145 -64q77 0 98 113h21q-25 -193 -144 -193zM1217 -8h-35l-875 1175h-4l2 -1089q0 -36 121 -43l82 -6l6 -29h-444l6 29l84 6q108 9 106 47v1102q-31 39 -137 57l-68 10
l-6 29h320l803 -1077h2l-2 1001q0 16 -28 24t-93 17l-82 6l-6 29h444l-6 -29l-84 -6q-47 -4 -77 -13t-29 -32v-1208z" />
    <glyph glyph-name="Ograve" unicode="&#xd2;" horiz-adv-x="1447" 
d="M387 1739h139l242 -377h-16zM721 -27q-137 1 -258 49t-209 135q-188 186 -188 480q0 137 53 259t143 214t209 146t255 54t257 -48q121 -50 210 -138q189 -188 189 -485q0 -135 -53 -257t-143 -212t-209 -144t-256 -53zM733 6q230 0 371 170t141 455t-150 466t-377 181
t-370 -172t-143 -461q0 -288 149 -464q149 -175 379 -175z" />
    <glyph glyph-name="Oacute" unicode="&#xd3;" horiz-adv-x="1447" 
d="M901 1739h139l-362 -377h-19zM721 -27q-137 1 -258 49t-209 135q-188 186 -188 480q0 137 53 259t143 214t209 146t255 54t257 -48q121 -50 210 -138q189 -188 189 -485q0 -135 -53 -257t-143 -212t-209 -144t-256 -53zM733 6q230 0 371 170t141 455t-150 466t-377 181
t-370 -172t-143 -461q0 -288 149 -464q149 -175 379 -175z" />
    <glyph glyph-name="Ocircumflex" unicode="&#xd4;" horiz-adv-x="1447" 
d="M715 1726h18l252 -380h-20l-238 258h-4l-240 -258h-20zM721 -27q-137 1 -258 49t-209 135q-188 186 -188 480q0 137 53 259t143 214t209 146t255 54t257 -48q121 -50 210 -138q189 -188 189 -485q0 -135 -53 -257t-143 -212t-209 -144t-256 -53zM733 6q230 0 371 170
t141 455t-150 466t-377 181t-370 -172t-143 -461q0 -288 149 -464q149 -175 379 -175z" />
    <glyph glyph-name="Otilde" unicode="&#xd5;" horiz-adv-x="1447" 
d="M866 1378q-57 0 -159 64q-103 64 -143 63q-40 0 -66 -20t-37 -92h-23q25 193 148 192q58 0 160 -63t145 -64q77 0 98 113h21q-25 -193 -144 -193zM721 -27q-137 1 -258 49t-209 135q-188 186 -188 480q0 137 53 259t143 214t209 146t255 54t257 -48q121 -50 210 -138
q189 -188 189 -485q0 -135 -53 -257t-143 -212t-209 -144t-256 -53zM733 6q230 0 371 170t141 455t-150 466t-377 181t-370 -172t-143 -461q0 -288 149 -464q149 -175 379 -175z" />
    <glyph glyph-name="Odieresis" unicode="&#xd6;" horiz-adv-x="1447" 
d="M562 1386q-42 0 -62 28q-40 55 0 114q20 31 62 31t64 -31t22 -59q0 -27 -22 -55t-64 -28zM886 1386q-42 0 -64 28q-41 53 0 114q22 31 64 31t62 -31t20 -59q0 -27 -20 -55t-62 -28zM721 -27q-137 1 -258 49t-209 135q-188 186 -188 480q0 137 53 259t143 214t209 146
t255 54t257 -48q121 -50 210 -138q189 -188 189 -485q0 -135 -53 -257t-143 -212t-209 -144t-256 -53zM733 6q230 0 371 170t141 455t-150 466t-377 181t-370 -172t-143 -461q0 -288 149 -464q149 -175 379 -175z" />
    <glyph glyph-name="Oslash" unicode="&#xd8;" horiz-adv-x="1447" 
d="M66 637q0 137 53 259t143 214t209 146t275 54t305 -81l106 182h39l-115 -199q137 -86 219 -233t82 -340q0 -135 -53 -257t-143 -212t-209 -143t-270 -53t-301 73q-81 -146 -113 -197h-39l123 213q-141 81 -226 229t-85 345zM729 6q234 0 375 170t141 455q0 332 -201 518
l-303 -524q-57 -99 -111 -193t-98 -168t-69 -119l-25 -45q125 -94 291 -94zM205 628q0 -160 55 -290q55 -131 152 -215l606 1048q-129 104 -297 105q-229 0 -372 -170q-144 -172 -144 -478z" />
    <glyph glyph-name="Ugrave" unicode="&#xd9;" horiz-adv-x="1359" 
d="M414 1739h139l242 -377h-17zM1163 473q-1 -248 -119 -375t-348 -127t-352 108q-123 108 -123 361v779q0 10 -13 15t-73 9l-102 8l-6 29h518l-6 -29l-119 -10q-70 -7 -72 -27v-780q0 -213 104 -303t299 -90q197 0 285 111t88 321v731q0 32 -139 41l-82 6l-6 29h459l-6 -29
l-84 -6q-47 -4 -75 -13t-28 -32v-727z" />
    <glyph glyph-name="Uacute" unicode="&#xda;" horiz-adv-x="1359" 
d="M874 1739h140l-363 -377h-18zM1163 473q-1 -248 -119 -375t-348 -127t-352 108q-123 108 -123 361v779q0 10 -13 15t-73 9l-102 8l-6 29h518l-6 -29l-119 -10q-70 -7 -72 -27v-780q0 -213 104 -303t299 -90q197 0 285 111t88 321v731q0 32 -139 41l-82 6l-6 29h459
l-6 -29l-84 -6q-47 -4 -75 -13t-28 -32v-727z" />
    <glyph glyph-name="Ucircumflex" unicode="&#xdb;" horiz-adv-x="1359" 
d="M715 1726h18l252 -380h-20l-238 258h-4l-240 -258h-20zM1163 473q-1 -248 -119 -375t-348 -127t-352 108q-123 108 -123 361v779q0 10 -13 15t-73 9l-102 8l-6 29h518l-6 -29l-119 -10q-70 -7 -72 -27v-780q0 -213 104 -303t299 -90q197 0 285 111t88 321v731
q0 32 -139 41l-82 6l-6 29h459l-6 -29l-84 -6q-47 -4 -75 -13t-28 -32v-727z" />
    <glyph glyph-name="Udieresis" unicode="&#xdc;" horiz-adv-x="1359" 
d="M560 1386q-42 0 -62 28q-40 55 0 114q20 31 62 31t64 -31t22 -59q0 -27 -22 -55t-64 -28zM884 1386q-42 0 -64 28q-41 53 0 114q22 31 64 31t62 -31t20 -59q0 -27 -20 -55t-62 -28zM1163 473q-1 -248 -119 -375t-348 -127t-352 108q-123 108 -123 361v779q0 10 -13 15
t-73 9l-102 8l-6 29h518l-6 -29l-119 -10q-70 -7 -72 -27v-780q0 -213 104 -303t299 -90q197 0 285 111t88 321v731q0 32 -139 41l-82 6l-6 29h459l-6 -29l-84 -6q-47 -4 -75 -13t-28 -32v-727z" />
    <glyph glyph-name="Yacute" unicode="&#xdd;" horiz-adv-x="1220" 
d="M823 1745h140l-363 -377h-18zM547 63v504l-336 568q-31 55 -55 81t-80 29l-78 6l-6 29h485l-6 -29l-96 -4q-51 -2 -59 -19t24 -71l309 -536h6l252 450q56 102 47 128q-8 25 -31 35q-24 9 -69 13l-84 4l-6 29h448l-6 -29l-65 -4q-72 -4 -101 -28t-92 -146l-276 -487v-527
q0 -10 14 -14t74 -8l108 -8l6 -29h-530l6 29l125 10q72 6 72 24z" />
    <glyph glyph-name="Thorn" unicode="&#xde;" horiz-adv-x="1089" 
d="M1028 676q0 -158 -132 -260q-62 -48 -150 -74q-88 -27 -151 -27q-64 0 -230 19v-275q0 -10 14 -14t72 -8l129 -8l6 -29h-545l6 29l119 10q70 7 72 24v1158q0 10 -14 14t-70 8l-105 8l-6 29h518l-6 -29l-119 -10q-71 -7 -71 -24v-211h194q233 0 351 -86t118 -244zM557 350
q166 0 252 80t86 232t-88 232t-291 77l-151 -2v-594q109 -25 192 -25z" />
    <glyph glyph-name="germandbls" unicode="&#xdf;" horiz-adv-x="985" 
d="M289 1008v-1008h-246l6 29l70 4q33 2 47 4t14 18v748l-151 6l14 59l133 9l4 63q25 308 211 409q59 32 131 31q143 0 223 -72t80 -183q0 -110 -68 -181q-68 -70 -184 -102q132 -71 247 -216q116 -145 116 -291t-85 -253q-86 -105 -198 -105t-179 41t-66 113q0 37 23 63
t57 26t52 -20q18 -19 20 -45q3 -26 -11 -49t-47 -28q39 -72 134 -73t147 69q53 70 53 201t-94 281t-291 265v10q133 25 201 92t69 181q0 114 -58 182q-58 67 -147 68q-227 0 -227 -346z" />
    <glyph glyph-name="agrave" unicode="&#xe0;" horiz-adv-x="817" 
d="M94 1393h139l242 -377h-16zM716 49q36 0 95 66l16 -19q-35 -39 -73 -79t-87 -40q-48 0 -85 37t-35 103l-2 4q-152 -143 -256 -142t-164 57q-59 56 -59 126t24 118q48 92 237 162q95 37 236 74l2 90q13 252 -205 252q-69 0 -127 -31q-59 -31 -59 -55q0 -8 22 -28t22 -52
q0 -34 -24 -56q-22 -22 -56 -22q-79 0 -79 76q0 70 123 142q123 73 248 73t186 -65q62 -65 56 -228l-21 -493q-3 -43 13 -57t52 -13zM329 51q69 0 122 34t100 75l10 323q-224 -60 -302 -122t-80 -146q-1 -84 40 -124t110 -40z" />
    <glyph glyph-name="aacute" unicode="&#xe1;" horiz-adv-x="817" 
d="M567 1393h140l-363 -377h-18zM716 49q36 0 95 66l16 -19q-35 -39 -73 -79t-87 -40q-48 0 -85 37t-35 103l-2 4q-152 -143 -256 -142t-164 57q-59 56 -59 126t24 118q48 92 237 162q95 37 236 74l2 90q13 252 -205 252q-69 0 -127 -31q-59 -31 -59 -55q0 -8 22 -28t22 -52
q0 -34 -24 -56q-22 -22 -56 -22q-79 0 -79 76q0 70 123 142q123 73 248 73t186 -65q62 -65 56 -228l-21 -493q-3 -43 13 -57t52 -13zM329 51q69 0 122 34t100 75l10 323q-224 -60 -302 -122t-80 -146q-1 -84 40 -124t110 -40z" />
    <glyph glyph-name="acircumflex" unicode="&#xe2;" horiz-adv-x="817" 
d="M375 1380h18l252 -381h-20l-238 258h-4l-240 -258h-20zM716 49q36 0 95 66l16 -19q-35 -39 -73 -79t-87 -40q-48 0 -85 37t-35 103l-2 4q-152 -143 -256 -142t-164 57q-59 56 -59 126t24 118q48 92 237 162q95 37 236 74l2 90q13 252 -205 252q-69 0 -127 -31
q-59 -31 -59 -55q0 -8 22 -28t22 -52q0 -34 -24 -56q-22 -22 -56 -22q-79 0 -79 76q0 70 123 142q123 73 248 73t186 -65q62 -65 56 -228l-21 -493q-3 -43 13 -57t52 -13zM329 51q69 0 122 34t100 75l10 323q-224 -60 -302 -122t-80 -146q-1 -84 40 -124t110 -40z" />
    <glyph glyph-name="atilde" unicode="&#xe3;" horiz-adv-x="817" 
d="M561 1032q-55 0 -159 64t-144 63q-38 0 -64 -20t-38 -92h-23q25 193 148 192q56 0 128 -44t110 -63t67 -20q77 0 98 113h21q-25 -193 -144 -193zM716 49q36 0 95 66l16 -19q-35 -39 -73 -79t-87 -40q-48 0 -85 37t-35 103l-2 4q-152 -143 -256 -142t-164 57
q-59 56 -59 126t24 118q48 92 237 162q95 37 236 74l2 90q13 252 -205 252q-69 0 -127 -31q-59 -31 -59 -55q0 -8 22 -28t22 -52q0 -34 -24 -56q-22 -22 -56 -22q-79 0 -79 76q0 70 123 142q123 73 248 73t186 -65q62 -65 56 -228l-21 -493q-3 -43 13 -57t52 -13zM329 51
q69 0 122 34t100 75l10 323q-224 -60 -302 -122t-80 -146q-1 -84 40 -124t110 -40z" />
    <glyph glyph-name="adieresis" unicode="&#xe4;" horiz-adv-x="817" 
d="M224 1053q-42 -1 -62 27q-40 56 0 114q20 31 62 31t64 -31q42 -59 0 -114q-22 -27 -64 -27zM548 1053q-42 -1 -64 27q-42 53 0 114q22 31 64 31t62 -31q20 -30 20 -58t-20 -56t-62 -27zM716 49q36 0 95 66l16 -19q-35 -39 -73 -79t-87 -40q-48 0 -85 37t-35 103l-2 4
q-152 -143 -256 -142t-164 57q-59 56 -59 126t24 118q48 92 237 162q95 37 236 74l2 90q13 252 -205 252q-69 0 -127 -31q-59 -31 -59 -55q0 -8 22 -28t22 -52q0 -34 -24 -56q-22 -22 -56 -22q-79 0 -79 76q0 70 123 142q123 73 248 73t186 -65q62 -65 56 -228l-21 -493
q-3 -43 13 -57t52 -13zM329 51q69 0 122 34t100 75l10 323q-224 -60 -302 -122t-80 -146q-1 -84 40 -124t110 -40z" />
    <glyph glyph-name="aring" unicode="&#xe5;" horiz-adv-x="817" 
d="M422 1028q-86 0 -134 54t-48 130t48 130t134 54t134 -54t48 -130t-48 -130t-134 -54zM421 1057q71 0 111 46t39 109q0 64 -40 110q-41 46 -111 46t-110 -46t-40 -110t40 -109q40 -46 111 -46zM716 49q36 0 95 66l16 -19q-35 -39 -73 -79t-87 -40q-48 0 -85 37t-35 103
l-2 4q-152 -143 -256 -142t-164 57q-59 56 -59 126t24 118q48 92 237 162q95 37 236 74l2 90q13 252 -205 252q-69 0 -127 -31q-59 -31 -59 -55q0 -8 22 -28t22 -52q0 -34 -24 -56q-22 -22 -56 -22q-79 0 -79 76q0 70 123 142q123 73 248 73t186 -65q62 -65 56 -228
l-21 -493q-3 -43 13 -57t52 -13zM329 51q69 0 122 34t100 75l10 323q-224 -60 -302 -122t-80 -146q-1 -84 40 -124t110 -40z" />
    <glyph glyph-name="ae" unicode="&#xe6;" horiz-adv-x="1363" 
d="M66 162q0 70 24 116q50 94 235 165q95 38 236 75l8 88q7 138 -52 195t-142 57t-142 -31t-59 -55q0 -8 22 -28t22 -52q0 -34 -24 -56q-22 -22 -56 -22q-79 0 -79 76q0 70 123 142q123 73 235 73q113 0 169 -39t73 -125q124 164 328 164q141 1 226 -79t85 -195
q0 -25 -4 -53l-612 4q-8 -46 -8 -124q0 -170 94 -286q94 -115 233 -115q96 0 166 40t125 128l25 -14q-131 -234 -356 -236q-113 -1 -205 59t-144 159q-171 -220 -323 -220q-99 -1 -161 59t-62 130zM339 45q132 0 259 174q-41 94 -41 201v33q0 18 2 30q-220 -60 -299 -123
t-81 -146q-1 -83 43 -126t117 -43zM1174 614q2 111 -50 185q-52 73 -147 73q-96 0 -177 -75t-112 -187z" />
    <glyph glyph-name="ccedilla" unicode="&#xe7;" horiz-adv-x="845" 
d="M423 -209q-68 0 -134 -18v18l162 184q-171 4 -285 132q-115 128 -115 322t128 335t325 141q123 0 206 -53q81 -53 81 -131q0 -39 -25 -65q-24 -26 -60 -26t-59 28q-23 26 -12 71q0 35 14 46q36 28 -28 64q-64 35 -127 35q-127 0 -226 -114q-98 -115 -98 -290t94 -294
t236 -119q96 0 163 40t123 128l25 -14q-120 -217 -322 -234l-106 -120q108 16 186 -24t77 -125t-101 -144t-271 -74l-6 14q144 16 224 64t79 117q0 51 -40 79t-108 27z" />
    <glyph glyph-name="egrave" unicode="&#xe8;" horiz-adv-x="854" 
d="M150 1393h139l241 -377h-16zM457 -25q-169 0 -287 127q-119 127 -119 323t121 338t309 142q141 0 226 -79q84 -79 86 -195q0 -30 -5 -53l-608 4q-10 -58 -10 -130q0 -73 26 -149q52 -153 174 -215q60 -31 143 -31q164 0 275 168l23 -14q-128 -236 -354 -236zM469 872
q-93 0 -173 -75t-110 -187l482 4q0 181 -114 239q-38 19 -85 19z" />
    <glyph glyph-name="eacute" unicode="&#xe9;" horiz-adv-x="854" 
d="M612 1393h140l-363 -377h-18zM457 -25q-169 0 -287 127q-119 127 -119 323t121 338t309 142q141 0 226 -79q84 -79 86 -195q0 -30 -5 -53l-608 4q-10 -58 -10 -130q0 -73 26 -149q52 -153 174 -215q60 -31 143 -31q164 0 275 168l23 -14q-128 -236 -354 -236zM469 872
q-93 0 -173 -75t-110 -187l482 4q0 181 -114 239q-38 19 -85 19z" />
    <glyph glyph-name="ecircumflex" unicode="&#xea;" horiz-adv-x="854" 
d="M444 1380h19l252 -381h-21l-237 258h-4l-240 -258h-20zM457 -25q-169 0 -287 127q-119 127 -119 323t121 338t309 142q141 0 226 -79q84 -79 86 -195q0 -30 -5 -53l-608 4q-10 -58 -10 -130q0 -73 26 -149q52 -153 174 -215q60 -31 143 -31q164 0 275 168l23 -14
q-128 -236 -354 -236zM469 872q-93 0 -173 -75t-110 -187l482 4q0 181 -114 239q-38 19 -85 19z" />
    <glyph glyph-name="edieresis" unicode="&#xeb;" horiz-adv-x="854" 
d="M203 1136q0 28 20 58q21 30 63 31q42 0 64 -31q22 -30 21 -58q1 -28 -21 -56t-64 -27q-42 0 -63 27q-20 28 -20 56zM609 1053q-41 -1 -63 27t-22 56t22 58t64 31q42 0 62 -31q20 -30 20 -58t-20 -56q-21 -27 -63 -27zM457 -25q-169 0 -287 127q-119 127 -119 323t121 338
t309 142q141 0 226 -79q84 -79 86 -195q0 -30 -5 -53l-608 4q-10 -58 -10 -130q0 -73 26 -149q52 -153 174 -215q60 -31 143 -31q164 0 275 168l23 -14q-128 -236 -354 -236zM469 872q-93 0 -173 -75t-110 -187l482 4q0 181 -114 239q-38 19 -85 19z" />
    <glyph glyph-name="igrave" unicode="&#xec;" horiz-adv-x="448" 
d="M-82 1393h139l242 -377h-16zM172 57v639q0 72 -12 94t-54 25l-79 10l4 21l252 57v-850q0 -10 12 -13t61 -7l66 -4l6 -29h-395l6 29l72 4q35 2 48 5t13 19z" />
    <glyph glyph-name="iacute" unicode="&#xed;" horiz-adv-x="448" 
d="M373 1393h139l-362 -377h-19zM172 57v639q0 72 -12 94t-54 25l-79 10l4 21l252 57v-850q0 -10 12 -13t61 -7l66 -4l6 -29h-395l6 29l72 4q35 2 48 5t13 19z" />
    <glyph glyph-name="icircumflex" unicode="&#xee;" horiz-adv-x="448" 
d="M172 57v639q0 72 -12 94t-54 25l-79 10l4 21l252 57v-850q0 -10 12 -13t61 -7l66 -4l6 -29h-395l6 29l72 4q35 2 48 5t13 19zM211 1380h20l234 -381h-21l-221 256h-4l-225 -256h-21z" />
    <glyph glyph-name="idieresis" unicode="&#xef;" horiz-adv-x="448" 
d="M60 1053q-42 -1 -62 27q-40 56 0 114q20 31 62 31t64 -31q42 -59 0 -114q-22 -27 -64 -27zM384 1053q-42 -1 -64 27t-21 56q0 28 22 58q21 30 63 31q42 0 62 -31q20 -30 20 -58t-20 -56t-62 -27zM172 57v639q0 72 -12 94t-54 25l-79 10l4 21l252 57v-850q0 -10 12 -13
t61 -7l66 -4l6 -29h-395l6 29l72 4q35 2 48 5t13 19z" />
    <glyph glyph-name="eth" unicode="&#xf0;" horiz-adv-x="972" 
d="M518 1171q188 -111 294 -296t106 -390t-124 -358q-124 -154 -317 -154q-194 0 -318 134t-124 326t127 332t311 140q152 0 248 -100q-88 220 -268 346l-281 -92l4 41l234 78q-113 68 -275 100l15 20q172 -22 321 -100l248 82l4 -41zM478 0q138 0 224 110t86 312t-89 328
t-226 125q-138 -1 -225 -118t-87 -315q1 -198 90 -320t227 -122z" />
    <glyph glyph-name="ntilde" unicode="&#xf1;" horiz-adv-x="1011" 
d="M647 1032q-55 0 -159 64t-144 63q-38 0 -64 -20t-38 -92h-23q25 193 148 192q56 0 128 -44t110 -63t67 -20q77 0 98 113h21q-25 -193 -144 -193zM557 819q-133 0 -276 -133v-633q0 -10 13 -13t62 -7l64 -4l8 -29h-393l6 29l68 4q35 2 49 5t14 19v641q0 70 -12 92t-49 25
l-84 10l2 21l254 57l-4 -176l6 -4q95 84 145 116q102 66 199 66q155 0 208 -143q17 -49 17 -117v-590q0 -10 10 -14t64 -8l65 -4l6 -29h-391l6 29l70 4q62 3 64 24v551q0 111 -52 161t-139 50z" />
    <glyph glyph-name="ograve" unicode="&#xf2;" horiz-adv-x="995" 
d="M160 1393h139l242 -377h-17zM183 104q-130 132 -130 331t129 334q129 136 318 136q188 0 316 -132t128 -332q0 -199 -130 -333q-131 -135 -315 -135q-185 0 -316 131zM705 786q-84 88 -213 88t-222 -120q-94 -120 -94 -297q0 -251 134 -386q68 -69 198 -69q129 0 220 126
t89 300q0 246 -112 358z" />
    <glyph glyph-name="oacute" unicode="&#xf3;" horiz-adv-x="995" 
d="M680 1393h139l-362 -377h-19zM183 104q-130 132 -130 331t129 334q129 136 318 136q188 0 316 -132t128 -332q0 -199 -130 -333q-131 -135 -315 -135q-185 0 -316 131zM705 786q-84 88 -213 88t-222 -120q-94 -120 -94 -297q0 -251 134 -386q68 -69 198 -69
q129 0 220 126t89 300q0 246 -112 358z" />
    <glyph glyph-name="ocircumflex" unicode="&#xf4;" horiz-adv-x="995" 
d="M487 1380h19l252 -381h-21l-237 258h-4l-240 -258h-20zM183 104q-130 132 -130 331t129 334q129 136 318 136q188 0 316 -132t128 -332q0 -199 -130 -333q-131 -135 -315 -135q-185 0 -316 131zM705 786q-84 88 -213 88t-222 -120q-94 -120 -94 -297q0 -251 134 -386
q68 -69 198 -69q129 0 220 126t89 300q0 246 -112 358z" />
    <glyph glyph-name="otilde" unicode="&#xf5;" horiz-adv-x="995" 
d="M639 1032q-55 0 -159 64t-144 63q-39 0 -65 -20t-38 -92h-22q25 193 147 192q57 0 160 -63t146 -64q77 0 98 113h20q-24 -193 -143 -193zM183 104q-130 132 -130 331t129 334q129 136 318 136q188 0 316 -132t128 -332q0 -199 -130 -333q-131 -135 -315 -135
q-185 0 -316 131zM705 786q-84 88 -213 88t-222 -120q-94 -120 -94 -297q0 -251 134 -386q68 -69 198 -69q129 0 220 126t89 300q0 246 -112 358z" />
    <glyph glyph-name="odieresis" unicode="&#xf6;" horiz-adv-x="995" 
d="M252 1136q0 28 20 58t62 31q42 0 64 -31q22 -30 22 -58t-22 -56t-63 -27q-42 0 -63 27q-20 28 -20 56zM658 1053q-42 -1 -64 27t-21 56q0 28 22 58q21 30 63 31q42 0 62 -31q20 -30 21 -58q0 -28 -20 -56q-21 -27 -63 -27zM183 104q-130 132 -130 331t129 334
q129 136 318 136q188 0 316 -132t128 -332q0 -199 -130 -333q-131 -135 -315 -135q-185 0 -316 131zM705 786q-84 88 -213 88t-222 -120q-94 -120 -94 -297q0 -251 134 -386q68 -69 198 -69q129 0 220 126t89 300q0 246 -112 358z" />
    <glyph glyph-name="divide" unicode="&#xf7;" horiz-adv-x="1126" 
d="M72 482q0 220 141 364q141 145 353 145q211 0 350 -144t139 -363q0 -220 -142 -364q-142 -145 -352 -145q-106 0 -196 38q-182 77 -256 266q-37 93 -37 203zM1014 484q0 200 -129 336t-323 135t-324 -138q-129 -137 -128 -337t130 -333t323 -133t322 135q129 135 129 335
z" />
    <glyph glyph-name="oslash" unicode="&#xf8;" horiz-adv-x="995" 
d="M485 -27q-107 0 -213 62q-18 -35 -44 -79t-50 -85l-57 -98h-37l162 278q-88 59 -140 159t-53 212q0 112 35 198q71 176 238 249q82 36 184 36t199 -51l170 291h39l-181 -309q95 -60 151 -160t56 -216t-35 -203t-95 -149t-141 -98t-188 -37zM176 437q0 -196 100 -331
l406 701q-76 68 -184 67q-135 0 -228 -120q-94 -121 -94 -317zM299 82q80 -80 209 -80t220 126t89 300q0 238 -108 354l-31 -51q-29 -51 -75 -129t-120 -208t-153 -259z" />
    <glyph glyph-name="ugrave" unicode="&#xf9;" horiz-adv-x="968" 
d="M215 1393h139l242 -377h-16zM719 766q0 47 -14 61t-62 17l-63 6l-7 27h256v-775q1 -27 9 -40t45 -17l92 -6l-4 -21l-252 -49l4 181h-4q-33 -27 -71 -59q-38 -31 -81 -57q-99 -59 -170 -60q-71 -2 -111 14t-75 49q-62 58 -64 196v590q0 9 -9 13t-66 8l-64 6l-6 27h254
v-607q0 -211 193 -213q131 0 270 129v580z" />
    <glyph glyph-name="uacute" unicode="&#xfa;" horiz-adv-x="968" 
d="M670 1393h139l-363 -377h-18zM719 766q0 47 -14 61t-62 17l-63 6l-7 27h256v-775q1 -27 9 -40t45 -17l92 -6l-4 -21l-252 -49l4 181h-4q-33 -27 -71 -59q-38 -31 -81 -57q-99 -59 -170 -60q-71 -2 -111 14t-75 49q-62 58 -64 196v590q0 9 -9 13t-66 8l-64 6l-6 27h254
v-607q0 -211 193 -213q131 0 270 129v580z" />
    <glyph glyph-name="ucircumflex" unicode="&#xfb;" horiz-adv-x="968" 
d="M465 1380h18l252 -381h-20l-238 258h-4l-240 -258h-20zM719 766q0 47 -14 61t-62 17l-63 6l-7 27h256v-775q1 -27 9 -40t45 -17l92 -6l-4 -21l-252 -49l4 181h-4q-33 -27 -71 -59q-38 -31 -81 -57q-99 -59 -170 -60q-71 -2 -111 14t-75 49q-62 58 -64 196v590q0 9 -9 13
t-66 8l-64 6l-6 27h254v-607q0 -211 193 -213q131 0 270 129v580z" />
    <glyph glyph-name="udieresis" unicode="&#xfc;" horiz-adv-x="968" 
d="M312 1053q-42 -1 -62 27q-40 56 0 114q20 31 62 31t64 -31q42 -59 0 -114q-22 -27 -64 -27zM636 1053q-42 -1 -64 27q-42 53 0 114q22 31 64 31t62 -31q20 -30 20 -58t-20 -56t-62 -27zM719 766q0 47 -14 61t-62 17l-63 6l-7 27h256v-775q1 -27 9 -40t45 -17l92 -6
l-4 -21l-252 -49l4 181h-4q-33 -27 -71 -59q-38 -31 -81 -57q-99 -59 -170 -60q-71 -2 -111 14t-75 49q-62 58 -64 196v590q0 9 -9 13t-66 8l-64 6l-6 27h254v-607q0 -211 193 -213q131 0 270 129v580z" />
    <glyph glyph-name="yacute" unicode="&#xfd;" horiz-adv-x="890" 
d="M627 1393h139l-363 -377h-18zM158 -530q-49 0 -82 26t-33 60t23 60q24 26 60 26t62 -27t33 -74q61 14 98 83t82 208l45 143v2l-313 773q-23 59 -36 75t-48 19l-59 6l-6 27h374l-4 -27l-55 -6q-43 -2 -52 -20t7 -60l250 -633l198 547q35 100 27 124q-7 22 -27 30t-57 10
l-57 8l-6 27h338l-7 -27l-47 -6q-49 -4 -66 -29q-16 -26 -30 -61t-37 -92l-248 -666l-65 -213q-46 -161 -106 -237t-156 -76z" />
    <glyph glyph-name="thorn" unicode="&#xfe;" horiz-adv-x="966" 
d="M227 729q165 170 307 170q167 0 275 -121t107 -318t-136 -343q-129 -144 -327 -144q-104 0 -224 60h-6v-494q1 -10 13 -14t63 -6l98 -4l6 -29h-428l7 29l71 4q35 4 48 6t14 18v1659q-1 61 -13 83t-53 26l-86 6l4 22l256 54v-660zM477 8q138 0 226 115t88 292
q0 178 -85 294t-223 114q-82 0 -144 -42t-116 -95v-547q43 -53 113 -92t141 -39z" />
    <glyph glyph-name="ydieresis" unicode="&#xff;" horiz-adv-x="890" 
d="M302 1053q-42 -1 -62 27q-40 56 0 114q20 31 62 31t64 -31q42 -59 0 -114q-22 -27 -64 -27zM626 1053q-42 -1 -64 27q-42 53 0 114q22 31 64 31t62 -31q20 -30 20 -58t-20 -56t-62 -27zM158 -530q-49 0 -82 26t-33 60t23 60q24 26 60 26t62 -27t33 -74q61 14 98 83
t82 208l45 143v2l-313 773q-23 59 -36 75t-48 19l-59 6l-6 27h374l-4 -27l-55 -6q-43 -2 -52 -20t7 -60l250 -633l198 547q35 100 27 124q-7 22 -27 30t-57 10l-57 8l-6 27h338l-7 -27l-47 -6q-49 -4 -66 -29q-16 -26 -30 -61t-37 -92l-248 -666l-65 -213
q-46 -161 -106 -237t-156 -76z" />
    <glyph glyph-name="dotlessi" unicode="&#x131;" horiz-adv-x="448" 
d="M172 57v639q0 72 -12 94t-54 25l-79 10l4 21l252 57v-850q0 -10 12 -13t61 -7l66 -4l6 -29h-395l6 29l72 4q35 2 48 5t13 19z" />
    <glyph glyph-name="Lslash" unicode="&#x141;" horiz-adv-x="1101" 
d="M238 1221q0 10 -14 14t-70 8l-84 8l-7 29h519l-7 -29l-139 -10q-71 -7 -71 -27v-600l219 70l4 -41l-223 -68v-536l204 -4q200 0 276 55q77 55 128 178l26 103h31l-80 -371h-889l7 29l100 10q68 7 70 24v474l-195 -60l-2 37l197 61v646z" />
    <glyph glyph-name="lslash" unicode="&#x142;" horiz-adv-x="432" 
d="M164 1190q0 73 -12 95t-54 26l-86 6l4 22l256 54v-815l138 43l2 -39l-140 -43v-486q0 -10 12 -14t62 -6l66 -4l6 -29h-391l6 29l67 4q35 2 50 5q14 3 14 19v449l-150 -45l2 39l148 45v645z" />
    <glyph glyph-name="OE" unicode="&#x152;" horiz-adv-x="1851" 
d="M66 620q0 146 52 266q107 247 391 342q142 48 320 48l848 4l33 -334h-22l-23 88q-41 121 -116 167t-240 46h-228v-557h176q128 4 158 21q31 16 43 39t23 57l20 59l23 -2l-39 -391l-23 2l-4 55q-4 81 -38 100t-173 23l-166 2v-614l230 -6q204 4 287 58t131 175l24 86
l29 -2l-78 -352h-913q-168 -2 -303 41q-272 87 -372 319q-50 114 -50 260zM956 37v1180l-178 24q-278 -8 -425 -171q-148 -163 -148 -404q0 -286 158 -458t456 -171h137z" />
    <glyph glyph-name="oe" unicode="&#x153;" horiz-adv-x="1619" 
d="M516 -27q-202 0 -333 131q-130 132 -130 329t130 335q130 137 319 137q129 -1 229 -65t152 -176q53 110 147 176t227 66t218 -80q84 -79 86 -195q0 -33 -7 -53l-608 4q-8 -46 -8 -124q0 -168 93 -285q95 -116 235 -116q96 0 164 40t126 128l23 -14q-127 -234 -358 -236
q-115 -1 -205 63t-139 171q-55 -109 -153 -173t-208 -63zM176 453q0 -245 136 -381q70 -70 197 -70q128 0 219 126t89 300q0 246 -112 358q-84 88 -214 88t-223 -120q-92 -122 -92 -301zM1237 872q-95 0 -173 -74t-110 -188l482 4q0 181 -114 239q-38 19 -85 19z" />
    <glyph glyph-name="Scaron" unicode="&#x160;" horiz-adv-x="970" 
d="M242 1759h20l240 -260h4l237 260h21l-252 -381h-18zM536 1311q104 0 203 -43l97 24l22 -319h-31l-110 246q-87 59 -212 59t-201 -70q-77 -70 -79 -180q0 -154 188 -237q58 -27 129 -52q176 -62 255 -130q112 -96 111 -255q-1 -158 -126 -271q-125 -112 -321 -112t-350 62
l-35 301h30l46 -144q98 -186 325 -186q147 0 242 82q90 82 90 209t-80 199q-80 73 -250 132t-245 120q-99 86 -99 228t106 239q107 98 295 98z" />
    <glyph glyph-name="scaron" unicode="&#x161;" horiz-adv-x="724" 
d="M98 1380h21l239 -260h4l238 260h21l-252 -381h-19zM382 907q73 0 163 -37l65 19l15 -230h-31l-78 168q-78 49 -160 49q-82 2 -131 -44t-49 -104t16 -88q31 -56 116 -91q40 -16 129 -47t133 -66q92 -71 92 -187q0 -115 -91 -195q-91 -81 -233 -81q-141 0 -254 45l-23 234
h29l41 -121q80 -129 215 -129q98 0 160 52q61 52 61 142t-64 135q-65 45 -141 69t-120 43q-92 41 -134 119q-22 40 -22 94t22 100q73 151 274 151z" />
    <glyph glyph-name="Ydieresis" unicode="&#x178;" horiz-adv-x="1220" 
d="M470 1395q-42 -1 -62 27q-40 56 0 114q20 31 62 31t64 -31q42 -59 0 -114q-22 -27 -64 -27zM794 1395q-42 -1 -64 27q-42 53 0 114q22 31 64 31t62 -31q20 -30 20 -58t-20 -56t-62 -27zM547 63v504l-336 568q-31 55 -55 81t-80 29l-78 6l-6 29h485l-6 -29l-96 -4
q-51 -2 -59 -19t24 -71l309 -536h6l252 450q56 102 47 128q-8 25 -31 35q-24 9 -69 13l-84 4l-6 29h448l-6 -29l-65 -4q-72 -4 -101 -28t-92 -146l-276 -487v-527q0 -10 14 -14t74 -8l108 -8l6 -29h-530l6 29l125 10q72 6 72 24z" />
    <glyph glyph-name="Zcaron" unicode="&#x17d;" horiz-adv-x="1118" 
d="M299 1733h20l240 -260h4l238 260h20l-252 -381h-18zM887 1249h-387q-162 0 -229 -54q-68 -54 -117 -189l-21 -86h-29l35 360h897v-23l-819 -1218v-4l395 -4q200 0 277 66t117 210l26 96h33l-59 -403h-943v23l824 1220v6z" />
    <glyph glyph-name="zcaron" unicode="&#x17e;" horiz-adv-x="825" 
d="M135 1380h21l239 -260h4l238 260h20l-251 -381h-19zM422 848q-151 0 -209 -39q-31 -20 -48 -53t-34 -78l-18 -94h-27l8 293h654v-21l-580 -825l219 -2q201 0 277 94q25 31 49 72l45 98h24l-73 -293h-668v23l575 825h-194z" />
    <glyph glyph-name="florin" unicode="&#x192;" horiz-adv-x="950" 
d="M128 -111q-58 0 -94 31t-36 71t24 59q46 37 86 13t36 -60t-25 -62q13 -6 43 1q31 7 54 11q24 4 52 29q79 72 164 524l45 242l-201 4l17 53l201 12q73 302 180 402q86 86 200 88q62 0 106 -31t44 -74q0 -44 -24 -66t-50 -22q-53 0 -71 42t24 91q-45 10 -100 10
q-101 -16 -158 -249q-20 -82 -43 -197h262l-14 -63h-258l-41 -183q-63 -308 -162 -500q-62 -121 -157 -157q-46 -19 -104 -19z" />
    <glyph glyph-name="circumflex" unicode="&#x2c6;" 
d="M379 1380h18l252 -381h-20l-238 258h-4l-240 -258h-20z" />
    <glyph glyph-name="caron" unicode="&#x2c7;" 
d="M127 1380h20l240 -260h4l238 260h20l-252 -381h-18z" />
    <glyph glyph-name="breve" unicode="&#x2d8;" 
d="M567 1112q-67 -104 -176 -104t-176 104q-39 60 -76 209h23q41 -111 96 -173t133 -62t133 62t97 173h22q-34 -143 -76 -209z" />
    <glyph glyph-name="dotaccent" unicode="&#x2d9;" 
d="M388 1083q-44 0 -66 30q-22 31 -21 59q0 28 22 59q21 31 65 31t66 -31t22 -60t-22 -59t-66 -29z" />
    <glyph glyph-name="ring" unicode="&#x2da;" 
d="M389 1028q-86 0 -134 54t-48 130t48 130t134 54t134 -54t48 -130t-48 -130t-134 -54zM539 1212q0 64 -40 110t-111 46q-70 0 -110 -46t-40 -110t40 -109q40 -46 110 -46q71 0 111 46t40 109z" />
    <glyph glyph-name="ogonek" unicode="&#x2db;" 
d="M569 -338q-93 -119 -177 -119q-135 0 -184 104q-15 33 -15 79q0 93 95 177q95 85 210 130h39q-256 -123 -254 -293q0 -66 38 -102t103 -37q65 0 135 75z" />
    <glyph glyph-name="tilde" unicode="&#x2dc;" 
d="M530 1032q-54 0 -127 44t-111 64q-38 19 -71 19t-59 -20t-37 -92h-23q25 193 148 192q57 0 160 -63t145 -64q77 0 98 113h21q-25 -193 -144 -193z" />
    <glyph glyph-name="hungarumlaut" unicode="&#x2dd;" 
d="M381 1393h125l-332 -377h-20zM662 1393h124l-331 -377h-21z" />
    <glyph glyph-name="pi" unicode="&#x3c0;" horiz-adv-x="1460" 
d="M731 -29q-139 1 -261 53t-213 143t-143 213t-53 261q0 139 53 261q105 247 356 358q122 53 261 53t261 -53q248 -108 357 -358q52 -122 52 -261t-52 -261q-106 -249 -357 -356q-122 -53 -261 -53zM731 4q131 0 247 50t202 136t136 203t50 248t-50 248t-136 204t-202 137
t-247 50t-248 -50q-234 -100 -339 -341q-50 -117 -50 -248t50 -248q101 -236 339 -339q117 -50 248 -50zM777 598q-46 0 -122 8v-307q0 -12 50 -18l86 -7l4 -22h-346l4 22l77 9q43 3 43 18v664q0 8 -8 11t-43 7l-67 4l-6 25h321q139 0 209 -51t70 -144t-81 -156t-191 -63z
M768 621q199 0 199 190q0 180 -224 176h-45q-20 0 -43 -2v-348q72 -16 113 -16z" />
    <glyph glyph-name="endash" unicode="&#x2013;" horiz-adv-x="899" 
d="M27 514h850l-3 -53h-854z" />
    <glyph glyph-name="emdash" unicode="&#x2014;" horiz-adv-x="1857" 
d="M27 514h1808l-2 -53h-1813z" />
    <glyph glyph-name="quoteleft" unicode="&#x2018;" horiz-adv-x="350" 
d="M193 881q-55 0 -97 40q-41 40 -41 99q0 143 149 260q42 33 83 55l12 -14q-74 -59 -100 -89q-54 -61 -55 -134t44 -100t97 -13q17 -29 -10 -67q-27 -37 -82 -37z" />
    <glyph glyph-name="quoteright" unicode="&#x2019;" horiz-adv-x="346" 
d="M155 1323q56 0 96 -42q40 -41 40 -101q-1 -60 -21 -105q-56 -123 -209 -209l-14 17l53 42q67 54 84 98q37 93 5 144q-23 41 -63 49q-40 7 -63 1q-14 33 11 69q25 37 81 37z" />
    <glyph glyph-name="quotesinglbase" unicode="&#x201a;" horiz-adv-x="346" 
d="M155 211q56 0 96 -42q40 -41 40 -101q-1 -60 -21 -105q-56 -123 -209 -209l-14 17l53 42q67 54 84 98q37 93 5 144q-24 42 -78 51q-25 4 -48 -2q-14 33 11 70t81 37z" />
    <glyph glyph-name="quotedblleft" unicode="&#x201c;" horiz-adv-x="659" 
d="M492 881q-43 0 -84 40t-41 99q0 99 69 182q69 84 160 133l14 -14q-74 -59 -100 -89q-55 -62 -55 -135t45 -99t94 -13q8 -14 5 -42t-34 -45q-30 -17 -73 -17zM193 881q-55 0 -97 40q-41 40 -41 99q0 143 149 260q42 33 83 55l12 -14q-74 -59 -100 -89q-54 -61 -55 -134
t44 -100t97 -13q17 -29 -10 -67q-27 -37 -82 -37z" />
    <glyph glyph-name="quotedblright" unicode="&#x201d;" horiz-adv-x="657" 
d="M155 1323q56 0 96 -42q40 -41 40 -101q-1 -60 -21 -105q-56 -123 -209 -209l-14 17l53 42q67 54 84 98q37 93 5 144q-23 41 -63 49q-40 7 -63 1q-14 33 11 69q25 37 81 37zM411 925q103 81 103 178t-92 116q-25 4 -47 -2q-14 32 3 57q32 49 87 49t95 -42q40 -41 40 -101
q0 -145 -147 -259q-41 -32 -82 -55l-13 17q25 20 53 42z" />
    <glyph glyph-name="quotedblbase" unicode="&#x201e;" horiz-adv-x="657" 
d="M155 211q56 0 96 -42q40 -41 40 -101q-1 -60 -21 -105q-56 -123 -209 -209l-14 17l53 42q67 54 84 98q37 93 5 144q-24 42 -78 51q-25 4 -48 -2q-14 33 11 70t81 37zM411 -187q103 81 103 180t-92 113q-25 4 -47 -2q-14 33 3 58q32 49 87 49t95 -42q40 -41 40 -101
q0 -145 -147 -259q-41 -32 -82 -55l-13 17q25 20 53 42z" />
    <glyph glyph-name="dagger" unicode="&#x2020;" horiz-adv-x="909" 
d="M436 838h-399l-4 34h403v408h37v-408h406l-5 -34h-401v-1157h-37v1157z" />
    <glyph glyph-name="daggerdbl" unicode="&#x2021;" horiz-adv-x="909" 
d="M436 63h-403l4 37h399v758h-399l-4 37h403v385h37v-385h406l-5 -37h-401v-758h401l5 -37h-406v-382h-37v382z" />
    <glyph glyph-name="bullet" unicode="&#x2022;" horiz-adv-x="888" 
d="M591 122q-106 -42 -148 -42q-43 0 -146 42q-102 42 -129 75q-55 63 -105 216q-12 41 -12 63q0 81 82 225q19 37 35 53t69 44t121 49t90 21q70 0 225 -78q38 -19 52 -36q26 -22 69 -127q44 -104 45 -139q1 -36 -11 -76q-54 -170 -103 -215q-28 -33 -134 -75z" />
    <glyph glyph-name="ellipsis" unicode="&#x2026;" horiz-adv-x="1118" 
d="M764 66q0 -36 -26 -65q-26 -28 -62 -28t-62 17q-22 -16 -54 -16t-54 16q-22 -16 -60 -16t-66 27q-28 28 -28 65q0 38 28 66t64 28t60 -17q62 37 110 0q27 17 63 17q35 0 61 -29t26 -65z" />
    <glyph glyph-name="perthousand" unicode="&#x2030;" horiz-adv-x="1863" 
d="M1012 22q140 62 141 226q0 108 -66 178q-66 71 -173 71q-106 1 -172 -71t-66 -179q0 -106 65 -175q65 -70 172 -70q55 0 99 20zM1735 73q63 71 63 176t-65 176t-172 72t-172 -71q-66 -72 -66 -179q0 -106 65 -175q65 -70 175 -70q109 0 172 71zM473 854q66 70 68 176
q0 163 -141 230q-44 20 -99 20q-108 0 -172 -71t-65 -177q-1 -105 64 -176q65 -72 172 -72t173 70zM1194 248q0 -120 -76 -201q-76 -82 -202 -82t-204 83q-77 83 -77 201q0 119 77 202q77 84 201 84t203 -84q78 -83 78 -203zM1841 248q0 -120 -76 -201q-76 -82 -203 -82
t-205 83q-77 83 -77 201q0 119 77 202q77 84 202 84t204 -84q78 -83 78 -203zM1049 1311h45l-930 -1340h-45zM302 748q-127 0 -203 82t-76 201q0 120 77 203t200 83q124 0 203 -82t80 -202t-76 -202q-78 -83 -205 -83z" />
    <glyph glyph-name="guilsinglleft" unicode="&#x2039;" horiz-adv-x="497" 
d="M39 440v29l397 340l10 -16l-280 -338l280 -340l-8 -17z" />
    <glyph glyph-name="guilsinglright" unicode="&#x203a;" horiz-adv-x="497" 
d="M47 115l281 340l-279 338l10 16l396 -340v-29l-398 -342z" />
    <glyph glyph-name="fraction" unicode="&#x2044;" horiz-adv-x="1015" 
d="M977 1311h49l-987 -1340h-49z" />
    <glyph glyph-name="Euro" unicode="&#x20ac;" horiz-adv-x="968" 
d="M631 47q196 0 297 195l20 -15q-57 -111 -142 -183t-214 -73q-172 0 -294 130t-161 348h-131l6 34h119q-6 59 -6 127t6 105h-125l6 37h125q37 242 173 394t329 152q126 0 209 -53q82 -53 82 -129q0 -34 -25 -58t-55 -24t-50 18q-38 37 -23 95q7 27 26 43q-21 32 -65 56
t-112 24t-132 -40t-114 -110q-106 -148 -130 -368h422l6 -37h-434l-2 -72q0 -92 14 -160h416l6 -34h-416q37 -184 134 -293t235 -109z" />
    <glyph glyph-name="trademark" unicode="&#x2122;" horiz-adv-x="1126" 
d="M229 860v400h-26q-65 -2 -87 -18t-34 -46l-12 -47h-19l17 131h391l6 -133h-16l-11 49q-10 35 -32 49q-23 14 -87 15h-26v-402q0 -4 3 -4t19 -2l52 -4l2 -23h-217l2 23l57 4q18 4 18 8zM1033 854q3 0 20 -2l45 -4l2 -23h-205v23l53 4q16 2 17 8l-9 383h-6l-157 -409h-23
l-143 401q0 2 -2 2t-4 2l-11 -367q0 -14 6 -18t29 -4l43 -2l2 -23h-180l4 23l43 2q18 0 24 4q5 4 5 20l12 365q-7 12 -27 16l-47 5l-2 20h152l125 -358h6l133 358h154l-5 -20l-53 -5q-14 -2 -14 -10l10 -387q0 -4 3 -4z" />
    <glyph glyph-name="Omega" unicode="&#x2126;" horiz-adv-x="1077" 
d="M725 1266q-1 -78 -73 -78q-36 0 -64 36t-27 83l-55 16q-117 -23 -167 -122t-50 -269v-58h413l3 48q15 209 121 334q106 124 245 122q55 0 90 -26t35 -59t-20 -55t-54 -22t-66 30q-31 29 -38 83l-33 4q-172 -62 -172 -385v-74h234l-19 -69h-215v-752q0 -10 9 -14t57 -6
l104 -4l6 -29h-422l6 29l72 4q35 2 48 5t14 19v750h-418v-754q0 -10 7 -14t58 -6l105 -4l6 -29h-424l6 29l72 4q33 2 47 5t14 19v748l-151 4l16 65h131l4 37q19 214 128 330q108 117 265 117q78 0 115 -28t37 -64z" />
    <glyph glyph-name="Delta" unicode="&#x2206;" horiz-adv-x="919" 
d="M47 156q0 42 26 70q27 28 67 28t64 -27q41 -46 10 -108q-13 -27 -64 -41q59 -72 176 -72t172 77t55 251v887q0 10 -13 14t-73 8l-109 8l-6 31h525l-7 -31l-118 -10q-72 -6 -72 -24v-914q0 -123 -102 -225q-102 -103 -244 -103q-143 0 -215 57t-72 124z" />
    <glyph glyph-name="radical" unicode="&#x221a;" horiz-adv-x="1513" 
d="M813 950v-76h420v318h-6q-45 0 -75 35t-30 92l-86 24q-223 -45 -223 -393zM725 1266q-1 -78 -73 -78q-36 0 -64 36t-27 83l-55 16q-117 -23 -167 -122t-50 -269v-58h413l3 52q19 213 133 333q113 121 276 119q92 0 139 -35l86 50v-1340q-1 -10 13 -14t63 -6l66 -4l6 -29
h-393l6 29l69 4q35 2 50 5q14 3 14 19v750h-420v-754q0 -10 7 -14t59 -6l104 -4l6 -29h-422l6 29l72 4q35 2 48 5t14 19v750h-418v-754q0 -10 7 -14t58 -6l105 -4l6 -29h-424l6 29l72 4q33 2 47 5t14 19v748l-151 4l16 65h131l4 37q19 214 128 330q108 117 265 117
q78 0 115 -28t37 -64z" />
    <glyph glyph-name="approxequal" unicode="&#x2248;" horiz-adv-x="1505" 
d="M725 1266q-1 -78 -73 -78q-36 0 -66 36t-25 83l-55 16q-117 -23 -167 -122t-50 -269v-58h413l3 52q19 214 134 334t277 118q82 0 129 -32t47 -89q0 -27 -22 -49t-58 -20q-38 0 -68 38t-26 97l-78 20q-227 -45 -227 -393v-76h391l135 27v-848q-1 -10 13 -13t63 -7l66 -4
l6 -29h-393l6 27l71 4q35 4 49 7q13 3 13 19v750h-420v-754q0 -10 7 -14t59 -6l104 -4l6 -29h-422l6 29l72 4q35 2 48 5t14 19v750h-418v-754q0 -10 7 -14t58 -6l105 -4l6 -29h-424l6 29l72 4q33 2 47 5t14 19v748l-151 4l16 65h131l4 37q19 214 128 330q108 117 265 117
q78 0 115 -28t37 -64z" />
    <glyph glyph-name="apple" unicode="&#xf8ff;" horiz-adv-x="1552" 
d="M602 236l-383 -140l139 383l-370 176l370 170l-139 387l383 -141l176 371l170 -371l387 141l-141 -387l369 -168l-369 -174l141 -387l-387 142l-174 -371zM905 346l361 -180l-179 362l377 129l-377 125l179 361l-361 -178l-127 378l-131 -378l-358 178l178 -361
l-381 -127l381 -131l-178 -358l358 180l127 -381z" />
    <glyph glyph-name="fi" unicode="&#xfb01;" horiz-adv-x="985" 
d="M289 950v-76h391l133 27v-848q0 -10 13 -13t65 -7l65 -4l5 -29h-394l6 29l72 4q35 2 48 5t14 19v750h-418v-754q0 -10 7 -14t58 -6l105 -4l6 -29h-424l6 29l72 4q33 2 47 5t14 19v748l-151 4l16 65h131l4 52q15 214 130 334t280 118q82 0 129 -32t47 -89q0 -27 -20 -49
t-59 -20q-37 0 -67 38t-26 97l-82 20q-223 -45 -223 -393z" />
    <glyph glyph-name="fl" unicode="&#xfb02;" horiz-adv-x="987" 
d="M707 1192h-5q-46 0 -76 35t-30 92l-84 24q-117 -23 -170 -121t-53 -272v-76h418v318zM813 53q0 -10 13 -14t65 -6l65 -4l5 -29h-394l6 29l70 4q35 2 49 5t15 19v750h-418v-754q0 -10 7 -14t58 -6l105 -4l6 -29h-424l6 29l72 4q33 2 47 5t14 19v748l-151 4l16 65h131l4 52
q15 214 130 334t278 118q92 0 139 -35l86 50v-1340z" />
    </font>
</defs>
</svg>
