<?xml version="1.0" standalone="no"?>
<!DOCTYPE svg PUBLIC "-//W3C//DTD SVG 1.1//EN" "http://www.w3.org/Graphics/SVG/1.1/DTD/svg11.dtd" >
<svg xmlns="http://www.w3.org/2000/svg">
<metadata>
Created by FontPrep 20130207 at Thu Nov 17 19:10:34 2016
 By Bradley Gorman
Copyright  2005, Joshua Darden &#38; Phil's Fonts, Inc. All rights reserved. Published by Garagefonts USA 301-260-2285 www.garagefonts.com
</metadata>
<defs>
<font id="3e90ade512f1f57e334098083696daf9" horiz-adv-x='1024' >
  <font-face 
    font-family="FreightDispBold"
    font-weight="400"
    font-stretch="normal"
    units-per-em="2048"
    panose-1="2 0 8 3 9 0 0 2 0 4"
    ascent="1536"
    descent="-512"
    x-height="891"
    cap-height="1280"
    bbox="-192 -557 2050 1772"
    underline-thickness="40"
    underline-position="-299"
    unicode-range="U+0020-FB02"
  />
<missing-glyph horiz-adv-x="1024" 
 />
    <glyph glyph-name=".notdef" horiz-adv-x="1024" 
 />
    <glyph glyph-name=".null" horiz-adv-x="0" 
 />
    <glyph glyph-name=".null" horiz-adv-x="0" 
 />
    <glyph glyph-name="nonmarkingreturn" horiz-adv-x="681" 
 />
    <glyph glyph-name="space" unicode=" " horiz-adv-x="284" 
 />
    <glyph glyph-name="exclam" unicode="!" horiz-adv-x="567" 
d="M285 -29q-59 0 -100 41q-40 42 -40 98t40 96q39 40 99 40t100 -41t40 -95t-40 -96t-99 -43zM289 1309q89 0 113 -39t16 -88l-117 -783q-4 -10 -15 -10t-16 10l-116 783q-9 58 9 82q33 43 120 45h6z" />
    <glyph glyph-name="quotedbl" unicode="&#x22;" horiz-adv-x="724" 
d="M221 1321h4l158 -64l-346 -432h-35zM573 1321h2l158 -64l-344 -432h-35z" />
    <glyph glyph-name="numbersign" unicode="#" horiz-adv-x="1067" 
d="M-16 385v41h284l113 424h-277v41h287l107 403h47l-109 -403h330l106 403h48l-107 -403h274v-41h-286l-111 -424h275v-41h-285l-105 -395h-47l105 395h-328l-106 -395h-45l104 395h-274zM645 426l111 424h-330l-113 -424h332z" />
    <glyph glyph-name="dollar" unicode="$" horiz-adv-x="1026" 
d="M508 20q124 0 196 68t72 174q0 151 -160 226q-49 24 -104 44l-129 -489q63 -23 125 -23zM508 1257q-86 0 -150 -58t-63 -144q0 -132 147 -202q45 -22 97 -40l57 213q23 95 33 127q9 32 22 84q-57 20 -143 20zM520 -27q-88 0 -153 4l-80 -307h-47l82 314q-125 14 -230 53
l-22 350h51l112 -248q51 -49 109 -78l127 488q-19 0 -120 46q-103 46 -151 89q-106 94 -106 246t125 263q125 112 322 112q71 0 127 -9l57 215h45l-29 -110q-28 -113 -30 -113q47 -6 112 -26l90 28l4 -377h-45l-147 293q-8 4 -15 8t-16 9l-110 -426q203 -73 273 -133
t101 -123t31 -149q0 -173 -134 -292q-65 -57 -155 -92t-178 -35z" />
    <glyph glyph-name="percent" unicode="%" horiz-adv-x="1216" 
d="M1044 1311h50l-924 -1340h-51zM1194 248q0 -120 -76 -201q-76 -82 -202 -82t-204 83q-77 83 -77 201q0 119 77 202q77 84 201 84t203 -84q78 -83 78 -203zM913 8q109 0 171 70t62 170t-63 171q-64 71 -170 72q-105 1 -168 -71t-63 -172t61 -170t170 -70zM302 748
q-127 0 -203 82t-76 201q0 120 77 203t200 83q124 0 203 -82t80 -202t-76 -202q-78 -83 -205 -83zM470 858q65 67 66 169q0 103 -62 175t-172 72t-171 -72t-61 -173t64 -170q64 -68 167 -68q104 0 169 67z" />
    <glyph glyph-name="ampersand" unicode="&#x26;" horiz-adv-x="1484" 
d="M418 707q-160 -105 -160 -273q0 -132 84 -214t226 -83q143 0 274 137q-63 146 -171 260t-253 173zM623 838q88 60 90 213q1 82 -29 130t-60 66q-30 19 -86 19t-99 -54q-42 -54 -42 -131q1 -153 226 -243zM858 236q-230 -265 -422 -265q-110 0 -182 29q-141 57 -197 191
t0 272q81 188 326 260q-86 41 -142 113q-57 72 -57 150q-1 135 119 227q119 92 269 92t250 -68t100 -164t-74 -161t-191 -91q98 -46 197 -145t164 -209q138 185 141 252q14 80 -135 96l-31 6l-6 33h512l-6 -33l-37 -6q-71 -4 -122 -40q-51 -37 -128 -138l-166 -211
q84 -176 130 -227q48 -52 84 -69t79 -17q84 0 160 73l20 -20q-83 -89 -132 -122q-102 -71 -210 -72t-183 67t-130 197z" />
    <glyph glyph-name="quotesingle" unicode="'" horiz-adv-x="376" 
d="M221 1321h4l158 -64l-346 -432h-35z" />
    <glyph glyph-name="parenleft" unicode="(" horiz-adv-x="696" 
d="M129 401q0 186 53 342q100 294 310 480q94 84 176 127l24 -37q-80 -43 -170 -126t-166 -200q-176 -271 -176 -588t176 -586q76 -116 166 -199t170 -126l-24 -35q-82 43 -176 127q-209 187 -310 480q-53 155 -53 341z" />
    <glyph glyph-name="parenright" unicode=")" horiz-adv-x="696" 
d="M514 400q0 174 -50 322t-125 265t-165 200t-170 126l25 37q82 -43 176 -127t175 -204q187 -277 187 -617t-187 -617q-81 -121 -175 -205t-176 -127l-25 35q80 43 170 126t165 199t125 264t50 323z" />
    <glyph glyph-name="asterisk" unicode="*" horiz-adv-x="665" 
d="M301 974q0 7 -4 11l-238 70l-26 131q0 4 5 9t9 5l137 8l121 -213q2 -4 10 -2t9 4l-11 254l117 64q4 4 19 -6l51 -117l-164 -197q-2 -2 3 -10t7 -6l236 92l98 -88q2 -4 2 -12t-2 -8l-98 -89l-236 95q-2 0 -7 -8t-3 -13l162 -192l-52 -117q-2 -2 -10 -6t-8 -2l-115 65
l11 250q0 4 -8 8t-9 0l-123 -211l-135 7q-9 0 -16 14l26 133l238 66q4 4 4 11z" />
    <glyph glyph-name="plus" unicode="+" horiz-adv-x="915" 
d="M432 459h-405l6 51h399v403h53v-403h400l4 -51h-404v-410h-53v410z" />
    <glyph glyph-name="comma" unicode="," horiz-adv-x="428" 
d="M201 276q84 0 136 -56t52 -124q0 -122 -85 -225q-85 -104 -222 -166l-23 23q177 97 179 245q0 82 -69 121t-116 15q-18 55 23 109q41 58 125 58z" />
    <glyph glyph-name="hyphen" unicode="-" horiz-adv-x="606" 
d="M53 532h508l-4 -94h-510z" />
    <glyph glyph-name="period" unicode="." horiz-adv-x="450" 
d="M225 -27q-61 0 -103 43q-42 44 -42 102t42 100t103 42t103 -43t41 -100q0 -57 -41 -101q-42 -43 -103 -43z" />
    <glyph glyph-name="slash" unicode="/" horiz-adv-x="528" 
d="M459 1323h47l-432 -1796h-49z" />
    <glyph glyph-name="zero" unicode="0" horiz-adv-x="1171" 
d="M65 489q1 225 154 372t376 147t367 -146t144 -370t-152 -371q-152 -148 -376 -148q-223 0 -368 145q-146 146 -145 371zM856 494q0 212 -72 340t-195 127q-123 0 -197 -128q-75 -128 -76 -346q-1 -219 69 -343t194 -124t201 131q76 131 76 343z" />
    <glyph glyph-name="one" unicode="1" horiz-adv-x="737" 
d="M262 80v790l-201 25l7 31l434 75v-925q0 -26 94 -33l70 -8l6 -35h-570l7 35l73 8q41 4 61 11q19 7 19 26z" />
    <glyph glyph-name="two" unicode="2" horiz-adv-x="974" 
d="M543 652q1 80 -59 138t-147 58t-147 -40t-106 -122l-25 12q59 148 168 228t246 80t223 -78t85 -196q-1 -119 -144 -251q-70 -63 -169 -134t-226 -163v-6h403q98 0 147 43t99 162l20 43l35 -4l-80 -422h-813l-10 82q133 100 227 175q190 153 244 259q29 58 29 136z" />
    <glyph glyph-name="three" unicode="3" horiz-adv-x="886" 
d="M305 850q-162 0 -246 -164q-4 0 -24 12q55 144 161 226t243 82q136 0 224 -75q89 -75 89 -183q0 -156 -184 -270q-54 -34 -113 -66v-4q172 0 276 -102q105 -102 105 -251q0 -190 -157 -328q-157 -139 -376 -139q-129 0 -208 50t-79 122q0 47 34 80t77 33q81 0 126 -71
q45 -65 36 -152q20 -10 67 -10q100 0 176 88t76 228t-78 226t-206 86q-73 0 -172 -41l-13 35q219 124 274 171q56 46 82 93t25 109q0 95 -60 155t-155 60z" />
    <glyph glyph-name="four" unicode="4" horiz-adv-x="1042" 
d="M561 16h-534l-4 37l651 934h112v-815h242l-39 -156h-203v-393h-225v393zM561 172v573h-4l-401 -573h405z" />
    <glyph glyph-name="five" unicode="5" horiz-adv-x="862" 
d="M575 -59q0 325 -503 389l164 643h569l-35 -215h-541l-57 -228q313 -38 465 -169q139 -116 139 -301t-159 -327q-159 -143 -361 -143q-147 0 -215 46t-68 124q0 49 34 83t78 34q78 0 119 -66t34 -147q40 -20 90 -20q104 0 176 84q71 84 71 213z" />
    <glyph glyph-name="six" unicode="6" horiz-adv-x="1083" 
d="M344 696q147 119 309 119t266 -108q103 -108 103 -289q0 -182 -140 -318q-137 -129 -345 -129q-207 0 -341 149t-135 369q0 174 73 326q73 153 200 267t299 187t371 87l8 -35q-267 -37 -456 -230q-155 -159 -216 -391zM569 16q101 0 153 92t52 259q0 166 -73 257t-181 91
t-178 -70q-20 -40 -20 -152q0 -333 137 -441q47 -36 110 -36z" />
    <glyph glyph-name="seven" unicode="7" horiz-adv-x="948" 
d="M795 774h-326q-211 0 -262 -20t-69 -47t-32 -72l-20 -49h-37l47 389h819l7 -37l-572 -1315h-188l633 1145v6z" />
    <glyph glyph-name="eight" unicode="8" horiz-adv-x="1038" 
d="M523 -31q-196 0 -327 96q-132 96 -130 244q0 101 85 182t214 113v2q-127 62 -177 116q-94 100 -94 212q0 149 114 263t304 114q190 -1 309 -89t119 -229q0 -98 -80 -167t-196 -105v-2q143 -66 219 -140q92 -94 92 -221q0 -78 -33 -148q-66 -144 -236 -209
q-84 -32 -183 -32zM540 12q110 0 171 66t61 144t-29 130q-54 96 -193 168q-67 35 -142 66q-119 -83 -121 -264q0 -120 71 -215q72 -95 182 -95zM723 975q0 119 -62 209t-157 90q-96 0 -150 -65q-55 -65 -55 -139t24 -120q48 -92 166 -151q60 -31 132 -62q102 78 102 238z
" />
    <glyph glyph-name="nine" unicode="9" horiz-adv-x="1083" 
d="M735 285q-143 -119 -305 -119q-163 0 -268 106t-105 293t143 316t347 129t337 -149q134 -149 134 -367q0 -174 -73 -326q-146 -305 -496 -454q-172 -73 -371 -89l-8 35q270 37 455 231q160 166 214 392zM758 488q0 320 -132 437q-46 40 -114 40q-92 0 -150 -89t-57 -252
q0 -163 72 -260q72 -96 181 -96t179 68q21 48 21 152z" />
    <glyph glyph-name="colon" unicode=":" horiz-adv-x="446" 
d="M225 -25q-61 0 -103 42q-42 41 -42 99t42 100t103 42t103 -42t41 -99q0 -57 -41 -100q-42 -42 -103 -42zM225 586q-61 0 -103 43t-42 100t42 99t103 42t103 -42t41 -99q1 -57 -41 -100t-103 -43z" />
    <glyph glyph-name="semicolon" unicode=";" horiz-adv-x="428" 
d="M202 276q83 0 135 -57t52 -123q0 -122 -86 -225t-221 -164l-23 23q177 97 179 243q0 82 -69 121t-116 15q-18 56 23 108q43 59 126 59zM216 586q-60 0 -103 42t-43 100t43 100t103 42t101 -43t41 -100t-41 -99t-101 -42z" />
    <glyph glyph-name="less" unicode="&#x3c;" horiz-adv-x="897" 
d="M23 465v35l821 395l16 -47l-756 -363v-4l756 -366l-16 -47z" />
    <glyph glyph-name="equal" unicode="=" horiz-adv-x="909" 
d="M51 328h807l6 -49h-819zM45 684h819l-6 -49h-807z" />
    <glyph glyph-name="greater" unicode="&#x3e;" horiz-adv-x="897" 
d="M39 115l754 366v4l-754 363l14 47l821 -395v-35l-821 -397z" />
    <glyph glyph-name="question" unicode="?" horiz-adv-x="702" 
d="M328 -27q-59 0 -100 41q-40 40 -40 96t40 96t100 40t98 -41q39 -41 39 -95t-39 -96t-98 -41zM274 1102q-73 0 -163 -21q-46 37 -50 97q-4 61 34 96t128 35t166 -36q154 -73 217 -229q31 -76 31 -143t-10 -108q-19 -78 -91 -119q-36 -20 -104 -48t-116 -51t-48 -63t23 -71
q23 -30 61 -66l-35 -4q-110 82 -149 167t-5 145q33 61 127 99q44 18 122 45t126 54q46 27 46 67q0 58 -82 106t-228 48z" />
    <glyph glyph-name="at" unicode="@" horiz-adv-x="1634" 
d="M887 961q65 -1 97 -59t30 -136h8l82 225l192 -6l-131 -342l-86 -272q-54 -170 125 -170q122 0 225 134t107 329q4 270 -183 446t-479 176q-158 0 -296 -62q-282 -126 -410 -421q-60 -143 -62 -300q-3 -309 196 -504q200 -196 519 -198q162 0 313 80t228 205l20 -29
q-81 -126 -233 -211q-152 -84 -330 -84q-331 0 -546 207q-214 208 -212 531q2 170 67 320q66 150 176 264q110 112 257 177t307 65t290 -50q262 -100 369 -346q52 -121 51 -252q-2 -242 -146 -409t-332 -167q-115 0 -172 52t-54 122q0 35 22 108t30 91h-11
q-122 -196 -173 -253q-99 -110 -183 -110q-84 1 -142 58q-57 56 -59 130q-3 126 74 270q77 143 193 253q134 138 262 138zM658 246q42 0 115 85t151 228q12 20 27 61q15 40 25 67t-11 65q-62 112 -144 112q-38 0 -68 -30q-66 -66 -125 -210q-58 -144 -60 -258q0 -56 24 -88
t66 -32z" />
    <glyph glyph-name="A" unicode="A" horiz-adv-x="1329" 
d="M557 1038h-8l-168 -481h332zM307 344q-31 -92 -47 -148t-10 -90t36 -46q30 -13 91 -19l47 -6l6 -35h-457l7 35l38 6q45 6 75 19q57 25 117 173q32 78 81 213l233 650l-16 69q49 12 109 59q61 48 77 91h37l365 -1065q48 -132 78 -167q30 -36 92 -40l61 -8l6 -35h-635l7 35
l59 6q71 8 81 47q9 42 -28 148l-90 276h-362z" />
    <glyph glyph-name="B" unicode="B" horiz-adv-x="1251" 
d="M598 1280q532 0 528 -285q0 -115 -95 -189t-273 -101v-7q206 -16 318 -107t112 -243t-140 -250t-434 -98h-569l6 33l76 8q90 11 90 37v1130q0 13 -17 18t-89 13l-58 6l-6 35h551zM518 666q-25 0 -35 -4v-592l109 -31l26 4q128 8 210 95q81 87 80 219q-1 133 -99 221
t-248 88h-43zM551 705q137 1 218 71t81 198t-81 194t-224 67h-62v-530h68z" />
    <glyph glyph-name="C" unicode="C" horiz-adv-x="1419" 
d="M801 -27q-331 0 -533 181t-202 477t203 486t548 192q97 0 187 -23t137 -47l147 43l10 -424h-51l-172 342q-91 60 -256 62q-214 0 -340 -173q-125 -173 -125 -449t129 -449t332 -173q139 0 229 60t158 170l76 178h55l-61 -381h-88q-116 -48 -275 -65q-55 -7 -108 -7z" />
    <glyph glyph-name="D" unicode="D" horiz-adv-x="1427" 
d="M1366 659q0 -135 -53 -255q-109 -246 -391 -352q-141 -52 -318 -52h-559l6 33l76 8q90 11 90 37v1130q0 12 -18 18t-88 13l-58 8l-6 33q166 0 295 2l203 2h86q349 4 542 -165q193 -170 193 -460zM580 1237h-97v-1161l140 -35q210 0 333 167t121 406q0 445 -275 578
q-93 45 -222 45z" />
    <glyph glyph-name="E" unicode="E" horiz-adv-x="1267" 
d="M217 1208q0 19 -36 24t-70 7l-58 8l-6 33h1067l14 -420h-53l-18 68q-50 176 -140 242q-90 67 -296 67l-138 -2v-561l76 2q121 4 181 37t87 116l23 66h43l-51 -492l-41 3l-8 63q-8 92 -60 125t-188 37l-62 2v-584l170 -6q287 0 404 183q37 58 63 132l21 62h53l-53 -420
h-1096l6 33l74 8q94 12 92 37v1130z" />
    <glyph glyph-name="F" unicode="F" horiz-adv-x="1193" 
d="M217 78v1130q0 19 -35 24t-69 7l-60 8l-6 33h1063l14 -403h-51l-20 67q-57 164 -145 229q-89 64 -290 64l-135 -2v-573l78 2q121 4 181 34t87 115l25 68h41l-51 -492l-41 2l-6 64q-8 92 -61 126q-52 35 -189 35l-64 2v-546q1 -12 17 -20t86 -11l94 -8l6 -33h-641l6 33
l78 8q88 10 88 37z" />
    <glyph glyph-name="G" unicode="G" horiz-adv-x="1478" 
d="M788 -33q-332 0 -527 186t-195 479q0 294 203 485q203 190 548 192q143 0 272 -43q36 -12 58 -25l145 41l4 -422h-53l-166 338q-89 64 -264 66q-216 0 -337 -173q-120 -173 -120 -456q0 -282 129 -453q129 -170 320 -170q68 0 129 20t90 38v422q0 25 -121 32l-74 6l-6 35
h625l-6 -35l-84 -8q-80 -7 -80 -30v-371l119 10l4 -25q-197 -90 -458 -128q-83 -11 -155 -11z" />
    <glyph glyph-name="H" unicode="H" horiz-adv-x="1536" 
d="M217 78v1130q0 19 -36 24t-70 7l-58 8l-6 33h606l-6 -33l-76 -8q-88 -11 -90 -37v-528h574v534q1 12 -17 18t-88 13l-59 8l-6 33h606l-6 -33l-76 -8q-88 -11 -88 -37v-1130q0 -12 17 -18t87 -13l58 -8l6 -33h-606l6 33l78 8q86 11 88 37v551h-574v-557q-1 -12 17 -18
t88 -13l59 -8l6 -33h-606l6 33l76 8q90 11 90 37z" />
    <glyph glyph-name="I" unicode="I" horiz-adv-x="747" 
d="M242 78v1130q0 19 -36 24t-71 7l-67 8l-7 33h625l-6 -33l-84 -8q-90 -7 -90 -37v-1130q0 -12 18 -18t86 -13l68 -8l6 -33h-623l7 33l84 8q90 8 90 37z" />
    <glyph glyph-name="J" unicode="J" horiz-adv-x="745" 
d="M254 156v1052q0 12 -17 20t-87 11l-74 8l-6 33h626l-6 -33l-80 -8q-88 -11 -90 -37v-1012q0 -80 -41 -166t-107 -161q-66 -74 -152 -121q-85 -47 -175 -47t-148 43q-59 43 -59 102q0 60 38 98t89 38q96 -1 130 -79q35 -77 -11 -155q170 12 170 414z" />
    <glyph glyph-name="K" unicode="K" horiz-adv-x="1417" 
d="M217 78v1130q0 19 -35 24t-69 7l-60 8l-6 33h617l-7 -33l-86 -8q-87 -7 -90 -37v-614l320 327q183 187 194 251q6 36 -23 52q-30 15 -89 21l-64 8l-4 33h549l-6 -33l-55 -8q-98 -12 -164 -64t-258 -249l-82 -80l395 -639q61 -104 93 -132q32 -27 95 -36l39 -6l6 -33h-598
l5 33l40 8q31 4 48 13q30 17 -3 90q-17 38 -53 100l-250 420l-135 -136v-456q1 -12 19 -18t88 -13l67 -8l7 -33h-617l6 33l78 8q88 11 88 37z" />
    <glyph glyph-name="L" unicode="L" horiz-adv-x="1181" 
d="M217 78v1128q0 15 -13 19q-35 11 -91 14l-60 8l-6 33h631l-6 -33l-101 -10q-90 -6 -90 -35v-1153l117 -8q184 0 281 80q51 41 90 107t80 157l24 68h53l-59 -453h-1022l6 33l78 10q88 7 88 35z" />
    <glyph glyph-name="M" unicode="M" horiz-adv-x="1755" 
d="M37 33l59 6q83 8 108 42t29 142l27 932q-37 70 -125 82l-74 8l-6 35h492l327 -922h7l333 922h494l-6 -35l-111 -8q-80 -7 -82 -43l23 -1016q0 -82 15 -101t35 -25t50 -9l74 -10l6 -33h-629l7 33l100 10q43 4 58 33t14 106l-25 994h-8l-430 -1164h-68l-405 1116
q-4 8 -12 14t-9 11l-22 -942q-4 -98 17 -124q21 -27 51 -35t77 -13l59 -6l7 -33h-463z" />
    <glyph glyph-name="N" unicode="N" horiz-adv-x="1452" 
d="M289 1067h-6l2 -850q0 -99 30 -133t121 -43l62 -8l6 -33h-463l6 33l57 8q74 6 102 44t27 142l7 867q-72 123 -179 141l-43 12l-6 33h457l713 -895h6l-2 676q0 102 -31 136t-121 42l-59 8l-6 33h461l-7 -33l-57 -8q-72 -6 -100 -44t-29 -144l-6 -1063h-72z" />
    <glyph glyph-name="O" unicode="O" horiz-adv-x="1527" 
d="M750 -29q-301 0 -492 184q-192 184 -192 480q0 137 56 259q116 252 378 359q130 53 278 53q299 1 491 -183q193 -185 193 -482q0 -137 -56 -259t-152 -213t-226 -145t-278 -53zM770 16q188 0 294 154q105 154 105 457t-112 469t-300 166q-189 0 -295 -154t-108 -460
q0 -306 114 -469t302 -163z" />
    <glyph glyph-name="P" unicode="P" horiz-adv-x="1212" 
d="M483 72q1 -12 17 -20t86 -11l90 -8l6 -33h-647l6 33l86 8q90 11 90 37v1130q0 19 -36 24t-70 7l-68 8l-6 33h588q270 0 403 -83t133 -246t-154 -266q-73 -48 -174 -74q-170 -44 -350 -17v-522zM602 627q123 0 199 82t76 219q0 311 -289 311h-60q-23 0 -45 -2v-596
q87 -14 119 -14z" />
    <glyph glyph-name="Q" unicode="Q" horiz-adv-x="1525" 
d="M1216 -371q-279 0 -426 180q-56 67 -104 166q-278 20 -449 205t-171 455q0 135 56 257q114 248 378 358q128 54 278 54t277 -50t218 -139q189 -185 189 -474q0 -210 -130 -379q-130 -170 -341 -244q96 -208 226 -275q116 -61 344 -36l6 -31q-136 -47 -351 -47zM1064 169
q105 155 105 458t-112 469t-300 166q-189 0 -295 -156t-108 -458q0 -302 112 -468t302 -166t296 155z" />
    <glyph glyph-name="R" unicode="R" horiz-adv-x="1368" 
d="M1167 958q0 -118 -83 -204t-226 -121l266 -420q62 -99 102 -132q40 -34 103 -42l33 -6l8 -33h-430l-37 72l-305 542q-20 4 -58 10t-57 15v-567q0 -23 103 -31l73 -8l7 -33h-631l6 33l86 8q92 9 90 37v1130q0 19 -36 24t-70 7l-68 8l-6 33l610 2q520 0 520 -324zM885 949
q0 138 -83 216t-237 74h-43q-18 0 -39 -2v-557q72 -16 109 -16q137 4 215 76t78 209z" />
    <glyph glyph-name="S" unicode="S" horiz-adv-x="1075" 
d="M569 1307q118 0 265 -43l90 28l6 -379h-45l-148 295q-84 52 -192 53q-107 1 -171 -57t-64 -130q0 -70 23 -110q45 -74 157 -120q54 -22 127 -48q182 -64 267 -141q111 -100 110 -264t-135 -291t-345 -129q-210 -2 -410 70l-22 348h49l86 -203q111 -168 305 -168
q129 2 199 71t70 177q0 164 -191 244q-57 26 -129 50q-73 24 -139 54q-224 103 -221 314q0 78 30 146q63 140 227 202q82 31 201 31z" />
    <glyph glyph-name="T" unicode="T" horiz-adv-x="1359" 
d="M547 1239h-49q-130 -4 -233 -93q-84 -76 -132 -190l-22 -73h-56l54 397h1159l26 -395h-49l-22 71q-83 199 -231 259q-56 24 -126 24h-53v-1167q0 -12 18 -18t87 -13l79 -8l7 -33h-648l6 33l97 8q86 7 88 37v1161z" />
    <glyph glyph-name="U" unicode="U" horiz-adv-x="1435" 
d="M827 74q361 0 361 420l-2 567q0 102 -31 136t-121 42l-61 8l-6 33h463l-7 -33l-57 -8q-72 -6 -100 -44t-29 -144l-4 -570q-2 -246 -121 -381t-381 -135q-262 1 -393 107t-131 338v800q0 23 -103 29l-69 8l-6 33h624l-6 -33l-86 -8q-86 -7 -88 -35v-733q0 -397 354 -397z
" />
    <glyph glyph-name="V" unicode="V" horiz-adv-x="1339" 
d="M219 1040q-27 63 -51 118t-66 70q-20 7 -51 9l-63 10l-4 33h624l-4 -33l-72 -6q-43 -2 -63 -10q-40 -16 -17 -82q11 -35 31 -90l295 -766h13l225 616q74 205 67 250q-8 45 -41 61t-94 21l-45 6l-6 33h463l-6 -33l-39 -8q-43 -6 -73 -17t-68 -64t-117 -279l-338 -893h-90z
" />
    <glyph glyph-name="W" unicode="W" horiz-adv-x="2015" 
d="M207 1040q-48 123 -75 158t-89 39l-59 8l-7 35h627l-6 -35l-72 -4q-74 -4 -81 -35t24 -121l283 -790h8l244 645l-35 100q-43 117 -65 146q-24 29 -44 39t-51 12l-68 8l-6 35h635l-6 -35l-70 -4q-73 -4 -83 -35q-11 -31 22 -127l264 -774h8l203 580q75 210 67 260
q-7 51 -40 68t-99 26l-51 6l-6 35h471l-6 -35l-37 -6q-45 -8 -75 -21q-53 -23 -106 -155q-28 -68 -69 -182l-323 -904h-80l-320 900h-6l-342 -900h-82z" />
    <glyph glyph-name="X" unicode="X" horiz-adv-x="1339" 
d="M969 1178q0 29 -27 42t-80 19l-53 8l-6 33h483l-6 -33l-57 -10q-80 -8 -137 -63t-183 -226l-143 -198l356 -549q29 -43 59 -88t54 -56q24 -12 47 -14l57 -10l8 -33h-618l4 33l66 6q68 4 74 38q7 34 -40 103l-239 375h-4q2 0 -24 -36t-58 -85q-32 -48 -82 -120
q-51 -72 -77 -124t-25 -84q1 -31 28 -45t76 -20l53 -8l6 -33h-487l6 33l63 10q77 8 129 60t173 219l196 268l-291 440q-35 55 -74 115t-64 74t-50 16l-72 12l-8 33h631l-4 -33l-66 -6q-65 -4 -69 -42t65 -142l170 -273h4l125 183q111 160 111 211z" />
    <glyph glyph-name="Y" unicode="Y" horiz-adv-x="1300" 
d="M518 78v487l-295 516q-57 94 -87 121t-87 35l-47 8l-6 35h618l-6 -35l-45 -4q-82 -10 -91 -44t36 -112l242 -438h8l162 299q93 171 90 226q-2 32 -31 46t-86 21l-47 6l-6 35h460l-6 -35l-51 -8q-78 -13 -114 -52q-63 -68 -156 -243l-189 -338v-532q0 -12 18 -18t87 -13
l78 -8l6 -33h-645l6 33l96 8q88 7 88 37z" />
    <glyph glyph-name="Z" unicode="Z" horiz-adv-x="1234" 
d="M838 1235h-197q-286 0 -396 -171q-36 -56 -63 -132l-16 -62h-51l18 410h1018v-37l-786 -1190v-6l215 -4q233 -4 343 78q58 43 100 111t81 163l22 64h54l-60 -459h-1054v35l772 1194v6z" />
    <glyph glyph-name="bracketleft" unicode="[" horiz-adv-x="665" 
d="M131 1305h510v-43h-459v-1700h459v-43h-510v1786z" />
    <glyph glyph-name="backslash" unicode="\" horiz-adv-x="503" 
d="M-6 1323h49l432 -1796h-47z" />
    <glyph glyph-name="bracketright" unicode="]" horiz-adv-x="665" 
d="M23 -438h458v1700h-458v43h509v-1786h-509v43z" />
    <glyph glyph-name="asciicircum" unicode="^" horiz-adv-x="776" 
d="M369 1409h39l278 -403h-31l-264 200h-4l-268 -200h-29z" />
    <glyph glyph-name="underscore" unicode="_" horiz-adv-x="927" 
d="M29 0h872l6 -74h-884z" />
    <glyph glyph-name="grave" unicode="`" horiz-adv-x="819" 
d="M80 1399h248l202 -379h-34z" />
    <glyph glyph-name="a" unicode="a" horiz-adv-x="946" 
d="M961 139q-121 -166 -253 -166q-54 0 -96 44q-43 44 -53 130l-4 3q-152 -174 -261 -175t-174 59t-66 133q-1 75 26 123q80 143 483 240l2 54q4 132 -50 198t-153 66q-55 0 -93 -16t-38 -33q-1 -5 9 -17q48 -59 49 -101q0 -42 -33 -75t-84 -33t-86 27t-35 74t44 92
q91 93 256 135q79 20 149 21q168 0 240 -77t61 -267l-17 -369q-8 -107 67 -107q34 0 89 58zM283 248q0 -52 37 -90t84 -39q80 0 149 69l12 306q-86 -20 -140 -47q-105 -51 -130 -117q-12 -30 -12 -82z" />
    <glyph glyph-name="b" unicode="b" horiz-adv-x="1079" 
d="M111 -43v1184q-1 55 -15 75t-55 33l-64 23l3 24l362 97v-656l8 -2q59 74 139 125q81 51 167 51q166 0 270 -125t104 -311q0 -225 -147 -364q-147 -140 -359 -140q-105 0 -258 60h-2l-137 -74h-16zM561 14q100 0 156 109q57 109 57 275t-67 267t-171 101t-194 -82v-491
q44 -75 104 -127t115 -52z" />
    <glyph glyph-name="c" unicode="c" horiz-adv-x="903" 
d="M475 -31q-183 0 -305 128q-121 128 -121 332t139 348q139 145 353 145q139 0 231 -58t90 -147q0 -57 -36 -91t-91 -34t-90 44t-31 103q0 33 19 56q18 23 16 37t-34 28q-32 16 -72 17q-104 -1 -173 -99t-69 -275t81 -279t218 -103q162 0 254 151l25 -12
q-128 -291 -404 -291z" />
    <glyph glyph-name="d" unicode="d" horiz-adv-x="1099" 
d="M49 428q0 108 42 199q82 180 271 252q90 33 192 33t177 -31h2v278q0 55 -13 77t-54 32l-84 22l4 23l381 78v-1217q0 -52 10 -70t41 -28l84 -21l-4 -24l-365 -62v178l-4 3q-59 -74 -139 -126t-165 -52q-164 -1 -270 125q-106 127 -106 331zM520 866q-103 0 -160 -107
t-57 -273t69 -269q69 -102 173 -102t188 84v493q-41 76 -100 125t-113 49z" />
    <glyph glyph-name="e" unicode="e" horiz-adv-x="933" 
d="M475 -31q-186 0 -306 131t-120 334t137 347q137 143 344 143q162 0 255 -86q92 -86 92 -213q0 -29 -7 -58q-150 0 -270 2l-299 6q-4 -16 -4 -38v-39q0 -169 86 -274t219 -103q168 0 260 151l25 -12q-128 -291 -412 -291zM504 879q-72 0 -129 -74t-72 -195l344 2
q0 184 -77 244q-28 23 -66 23z" />
    <glyph glyph-name="f" unicode="f" horiz-adv-x="673" 
d="M172 70v706l-162 4l37 107h123l4 94q12 178 147 289q135 110 297 108q98 0 146 -37t47 -87q0 -50 -35 -83t-84 -32q-106 0 -143 159l-4 13l-41 8q-56 -25 -76 -93t-20 -210v-129h260l-29 -107h-231v-712q0 -14 15 -22t79 -11l73 -2l7 -33h-537l6 33l41 2q43 4 62 10
q18 6 18 25z" />
    <glyph glyph-name="g" unicode="g" horiz-adv-x="987" 
d="M457 311q-79 0 -135 15q-43 -10 -72 -37t-29 -62q0 -80 156 -80q25 0 59 1l68 2l71 2q37 2 64 2q139 0 222 -69t83 -187q0 -172 -158 -286t-395 -114q-180 0 -274 54t-94 159q0 139 239 228v4q-92 10 -151 61q-59 50 -59 104q-1 87 60 142q62 55 160 86q0 2 2 4
q-82 32 -135 96t-53 148q0 149 108 242q108 94 257 94q150 0 260 -68l278 35l-16 -121l-203 31l-2 -9q70 -66 71 -149q2 -146 -107 -237t-275 -91zM786 -232q0 87 -54 127q-79 59 -282 46q-65 -4 -141 -9q-47 -18 -76 -63t-28 -107q0 -92 80 -150t209 -58t211 64
q81 63 81 150zM461 881q-146 0 -146 -260q0 -133 39 -203t107 -70q153 0 153 266t-153 267z" />
    <glyph glyph-name="h" unicode="h" horiz-adv-x="1101" 
d="M553 764q-88 0 -176 -62v-634q0 -14 15 -22t73 -11l37 -2l6 -33h-488l7 33l34 2q45 4 63 10q17 6 17 25v1069q0 55 -12 75t-53 33l-66 23l4 24l365 97v-641l4 -2q95 80 149 110q224 127 363 -4q66 -69 68 -229v-555q0 -10 15 -18t85 -17l29 -2l6 -33h-486l6 33l39 2
q51 4 62 13q10 9 10 22v499q0 111 -44 153t-132 42z" />
    <glyph glyph-name="i" unicode="i" horiz-adv-x="559" 
d="M164 621q0 94 -16 122q-16 27 -70 39l-43 11l2 24l362 101v-850q1 -14 17 -20t80 -13l28 -2l6 -33h-489l6 33l35 2q45 4 63 10t19 25v551zM267 1057q-71 0 -109 46t-37 99q0 54 38 100q39 46 109 46t108 -46t38 -100t-38 -99q-38 -46 -109 -46z" />
    <glyph glyph-name="j" unicode="j" horiz-adv-x="536" 
d="M158 -127v748q0 91 -18 120t-68 41l-45 11l2 24l362 101v-961q-4 -162 -139 -322q-59 -69 -132 -113t-147 -44q-73 0 -119 37t-46 90t35 86q36 33 77 33t68 -16q53 -33 64 -100q5 -32 -1 -63q107 15 107 328zM261 1057q-71 0 -109 46t-37 99q0 54 38 100q39 46 109 46
t107 -46t37 -100t-37 -99q-37 -46 -108 -46z" />
    <glyph glyph-name="k" unicode="k" horiz-adv-x="1060" 
d="M141 70v1069q0 55 -12 75t-53 33l-66 23l4 24l365 97v-957l135 125q92 86 138 140t46 86t-23 49q-24 16 -91 22l-25 2l-4 33h461l-6 -33l-37 -6q-71 -8 -131 -50t-187 -163q-21 -17 -22 -21q-2 -4 -12 -14l256 -438q52 -83 74 -102t71 -27l31 -4l6 -33h-367l-39 78
l-204 368l-70 -63v-315q0 -14 16 -20t76 -13l35 -2l4 -33h-485l6 33l32 2q43 6 61 11q17 5 17 24z" />
    <glyph glyph-name="l" unicode="l" horiz-adv-x="546" 
d="M154 1114q0 74 -14 98t-54 35l-61 23l2 24l364 97v-1323q1 -14 17 -20t71 -13l33 -2l6 -33h-481l6 33l35 2q45 4 60 10t16 25v1044z" />
    <glyph glyph-name="m" unicode="m" horiz-adv-x="1667" 
d="M1294 565q0 199 -152 199q-66 0 -114 -22q-47 -22 -63 -50v-12l-2 -51v-561q0 -12 13 -18t77 -15l32 -2l7 -33h-480l6 33l37 2q74 6 74 35v495q0 113 -43 156t-122 43t-167 -59v-637q1 -14 15 -22t73 -11l35 -2l6 -33h-487l6 33l35 2q45 4 63 10t19 25v548q0 97 -16 125
q-16 27 -70 39l-43 11l2 24l364 101l-4 -170h6q180 169 328 172q96 0 166 -66q41 -43 55 -111l6 -2q72 70 156 124q84 55 181 55t167 -66q66 -70 68 -260v-524q0 -13 16 -20t82 -15l29 -2l6 -33h-485l6 33l39 2q51 4 62 13t11 22v495z" />
    <glyph glyph-name="n" unicode="n" horiz-adv-x="1122" 
d="M573 764q-87 0 -176 -62v-634q1 -14 15 -22t71 -11l39 -2l4 -33h-487l6 33l35 2q45 4 63 10t19 25v548q0 97 -16 125q-16 27 -70 39l-43 11l2 24l364 101l-4 -170h6q96 81 151 111q107 59 201 60q95 1 163 -67t67 -227v-555q0 -13 18 -21q18 -7 80 -14l29 -2l6 -33h-483
l6 33l37 2q51 4 62 13t12 22v495q0 115 -45 157t-132 42z" />
    <glyph glyph-name="o" unicode="o" 
d="M49 446q0 199 143 338q143 138 357 138t348 -134q133 -134 133 -336q0 -201 -142 -341t-358 -140t-349 138q-132 138 -132 337zM539 12q105 0 166 115t61 297q0 450 -229 455q-107 0 -169 -117q-57 -104 -59 -289q0 -461 230 -461z" />
    <glyph glyph-name="p" unicode="p" horiz-adv-x="1101" 
d="M556 -29q-101 0 -183 33h-4v-453q0 -12 16 -19t80 -9l72 -4l6 -33h-539l6 33l43 4q43 4 63 9q19 5 19 24v1065q0 90 -17 120t-69 41l-45 11l2 24l365 101l-2 -181l6 -2q145 176 310 176t265 -124q105 -124 105 -312q0 -229 -154 -372q-142 -132 -345 -132zM587 14
q100 0 155 108t56 274t-67 267t-171 101t-191 -80v-494q43 -78 103 -127t115 -49z" />
    <glyph glyph-name="q" unicode="q" horiz-adv-x="1087" 
d="M967 928v-1374q0 -16 19 -22t67 -9l39 -4l6 -33h-537l6 33l74 4q61 2 77 9q15 7 15 19v596l-4 3q-59 -74 -139 -126t-165 -52q-164 -1 -270 125q-106 127 -106 317q0 231 154 370q143 128 369 128q120 0 241 -60h2l137 76h15zM553 115q96 0 180 84v491q-41 76 -100 126
t-113 50q-104 0 -161 -106q-56 -106 -56 -275q0 -249 147 -342q46 -28 103 -28z" />
    <glyph glyph-name="r" unicode="r" horiz-adv-x="831" 
d="M397 68q-1 -14 17 -22t82 -11l53 -2l6 -33h-514l6 33l33 2q45 4 63 10t19 25v548q0 97 -16 125q-16 27 -70 39l-43 11l2 24l364 101l-4 -304h6q53 146 118 226t159 80q63 0 105 -37t42 -93q-1 -56 -35 -98q-34 -41 -88 -41t-91 33q-36 33 -48 86q-95 -27 -166 -252v-450z
" />
    <glyph glyph-name="s" unicode="s" horiz-adv-x="804" 
d="M252 734q0 -68 59 -104t171 -77t165 -84q101 -82 101 -201t-98 -208t-273 -89q-174 0 -307 52l-13 262l49 -2l52 -117q45 -74 97 -114t130 -40t126 43t48 113q0 94 -134 154q-40 18 -89 36t-98 42q-168 83 -166 239q0 125 92 202t260 79q91 0 188 -33l84 20l11 -276
l-48 -2l-122 205q-68 43 -135 44q-68 1 -109 -37t-41 -107z" />
    <glyph glyph-name="t" unicode="t" horiz-adv-x="729" 
d="M547 102q84 0 164 60l8 -25q-155 -164 -313 -164q-254 0 -246 271l10 530l-166 4l31 70l330 256l34 -4l-2 -211h314l-27 -109h-289l-10 -497q-2 -97 38 -139t124 -42z" />
    <glyph glyph-name="u" unicode="u" horiz-adv-x="1081" 
d="M547 129q88 0 168 59v611q1 31 -17 42t-80 15l-36 2l-9 33h375v-694q0 -53 10 -71t41 -28l84 -20l-4 -23l-364 -88l2 178h-4q-192 -171 -346 -174q-90 0 -164 70q-68 72 -66 229l2 555q0 14 -16 18q-16 5 -84 13l-33 2l-6 33h377l-6 -567q-2 -111 43 -153t133 -42z" />
    <glyph glyph-name="v" unicode="v" horiz-adv-x="985" 
d="M129 748q-21 55 -44 78q-22 22 -65 26l-36 6l-9 33h517l-5 -33l-43 -6q-53 -4 -65 -24t4 -68l207 -518l149 393q47 118 33 162q-14 45 -96 53l-43 8l-6 33h370l-6 -33l-39 -6q-61 -8 -84 -41q-22 -33 -84 -186l-249 -645h-84z" />
    <glyph glyph-name="w" unicode="w" horiz-adv-x="1521" 
d="M133 733q-32 79 -52 97t-63 22l-36 6l-5 33h500l-4 -33l-43 -6q-47 -4 -59 -22t6 -66l194 -526l166 426l-32 88q-25 59 -48 76t-63 24l-37 6l-6 33h502l-4 -33l-43 -6q-52 -6 -60 -26t6 -62l197 -520l129 381q65 173 -3 205q-26 13 -69 20l-37 8l-6 33h369l-6 -33l-37 -8
q-60 -4 -85 -41t-77 -186l-225 -643h-86l-254 626l-248 -626h-86z" />
    <glyph glyph-name="x" unicode="x" horiz-adv-x="999" 
d="M420 817q0 -29 39 -86l116 -178h3l86 117q76 103 74 132q-1 28 -20 38t-61 12l-32 6l-7 33h373l-6 -33l-49 -10q-61 -12 -105 -51t-126 -146l-103 -131l232 -342q46 -72 80 -102t69 -37l33 -6l6 -33h-508l6 33l35 6q51 4 51 34t-37 83l-137 209h-2l-106 -144
q-79 -103 -77 -140t79 -44l36 -4l7 -33h-371l6 33l45 8q61 12 103 47q42 36 131 152l125 157l-213 316q-49 71 -83 103t-75 36l-33 6l-6 33h514l-6 -33l-39 -6q-47 -6 -47 -35z" />
    <glyph glyph-name="y" unicode="y" horiz-adv-x="983" 
d="M209 -528q-55 0 -99 34t-44 86q0 54 32 89q33 35 89 35t88 -34q32 -32 42 -73q35 10 59 48t50 116l70 198h-19l-348 777q-27 60 -48 79t-65 23l-36 8l-7 33h512l-6 -33l-41 -6q-53 -6 -64 -26t9 -66l215 -506l139 385q45 121 34 153t-35 42t-66 16l-41 8l-6 33h370
l-6 -33l-41 -6q-58 -4 -84 -42t-80 -183l-227 -604l-92 -281q-47 -138 -105 -204t-149 -66z" />
    <glyph glyph-name="z" unicode="z" horiz-adv-x="929" 
d="M82 545v346h774v-31l-543 -817h99q232 6 332 135q32 41 57 88l43 84h43l-70 -350h-774v29l537 821l-91 -2q-147 -4 -214 -50t-109 -151l-41 -102h-43z" />
    <glyph glyph-name="braceleft" unicode="{" horiz-adv-x="673" 
d="M379 -291q0 -165 264 -196l-2 -31q-195 12 -329 104q-128 92 -128 228q0 80 36 176t52 143t17 90q0 82 -65 117t-206 47l-10 27l10 26q127 12 199 46t72 118q0 41 -17 89q-16 48 -51 146q-128 353 236 473q84 28 184 34l2 -31q-135 -17 -200 -69t-64 -130q0 -49 16 -100
t52 -153t36 -179q0 -227 -377 -266v-10q377 -39 377 -267q1 -81 -35 -179t-52 -151q-16 -52 -17 -102z" />
    <glyph glyph-name="bar" unicode="|" horiz-adv-x="387" 
d="M172 1346h45v-1797h-45v1797z" />
    <glyph glyph-name="braceright" unicode="}" horiz-adv-x="673" 
d="M170 684q0 82 52 225q20 55 36 107t16 100q0 78 -64 130q-65 52 -200 69l4 31q199 -12 327 -106t128 -226q0 -85 -52 -220q-19 -52 -35 -100t-17 -90q-1 -84 73 -118t199 -46l8 -26l-8 -27q-141 -12 -207 -47t-65 -117q-1 -54 35 -147q36 -94 52 -150t17 -118
q0 -129 -128 -222q-128 -92 -327 -104l-4 31q135 16 200 67q64 51 64 124t-36 170q-36 98 -52 154t-16 113q0 227 377 267v10q-377 39 -377 266z" />
    <glyph glyph-name="asciitilde" unicode="~" horiz-adv-x="804" 
d="M121 536q39 58 117 58t203 -66t164 -67q38 0 62 19t35 95h33q-12 -143 -51 -201t-118 -59q-79 0 -202 66q-124 66 -165 67q-42 1 -62 -19t-33 -95h-36q14 144 53 202z" />
    <glyph glyph-name="nonbreakingspace" unicode="&#xa0;" horiz-adv-x="284" 
 />
    <glyph glyph-name="exclamdown" unicode="&#xa1;" horiz-adv-x="567" 
d="M283 -33q-88 0 -113 39t-16 88l114 783q4 10 16 10t15 -10l113 -783q9 -58 -10 -82q-36 -45 -115 -45h-4zM285 1030q-59 0 -100 41q-40 41 -40 95t40 96q39 42 99 43q60 0 100 -42q40 -41 40 -97t-40 -96t-99 -40z" />
    <glyph glyph-name="cent" unicode="&#xa2;" horiz-adv-x="899" 
d="M477 -31q-20 0 -31 2l-79 -297h-41l77 301q-154 24 -254 149q-100 126 -100 302q0 214 140 356t352 142q42 0 110 -13l90 344h45l-96 -354q78 -23 125 -71t47 -107t-34 -94t-78 -35t-75 24q-30 24 -42 58l-141 -529q53 -27 110 -26q158 0 254 151l25 -10
q-59 -137 -161 -215t-243 -78zM301 532q0 -268 152 -366l182 682q-43 29 -92 31q-104 1 -173 -99t-69 -248z" />
    <glyph glyph-name="sterling" unicode="&#xa3;" horiz-adv-x="1126" 
d="M297 834q0 90 39 176q78 174 273 245q95 35 212 35t181 -46t65 -132q0 -47 -38 -85t-86 -38q-88 0 -118 78t13 147q-32 31 -82 31q-96 0 -154 -69q-59 -69 -59 -213q0 -59 13 -145t22 -187h266l6 -43h-268q2 -16 2 -35v-37q0 -124 -74 -266q90 -31 178 -59
q88 -27 150 -27t97 10q33 10 57 37q45 52 63 186l28 -6q0 -179 -85 -301q-85 -121 -226 -121t-283 83q-41 24 -79 48q-118 -131 -246 -131q-72 0 -118 41t-46 114t66 128t164 55t196 -31q2 10 2 63t-76 249h-227l6 43h205q-39 114 -39 203zM39 114q0 -50 37 -79t90 -29
q52 0 108 34t95 87q-57 39 -109 66t-102 27q-51 0 -85 -29q-34 -27 -34 -77z" />
    <glyph glyph-name="currency" unicode="&#xa4;" horiz-adv-x="1058" 
d="M129 618q0 59 10 105h-129l6 43h129q49 239 211 382q161 142 363 142q141 0 223 -47t82 -133q0 -47 -37 -83t-85 -36q-89 0 -121 77t12 144q-15 10 -35 20t-73 11q-53 0 -107 -36q-113 -76 -161 -249q-26 -88 -36 -192h393l6 -43h-403v-68q0 -86 10 -151h387l6 -43h-383
q37 -160 128 -248t223 -88q183 0 284 160l23 -15q-143 -297 -422 -297q-183 0 -318 129t-174 359h-131l6 43h119q-6 55 -6 114z" />
    <glyph glyph-name="yen" unicode="&#xa5;" horiz-adv-x="1271" 
d="M508 317h-373l6 43h369v220h-371l-2 45h350l-12 20q-16 32 -56 100q-41 68 -65 111l-135 229q-53 87 -88 117q-36 31 -92 35l-51 8l-8 35h634l-6 -35l-55 -4q-72 -4 -81 -44t40 -126l231 -428h5l124 238q110 217 108 268q-1 51 -32 67t-90 25l-45 6l-8 33h473l-6 -33
l-43 -8q-73 -14 -111 -51q-65 -65 -129 -184q-146 -274 -166 -312q-20 -37 -28 -53l-11 -14h367l-2 -45h-375v-220h373l6 -43h-379v-237q0 -14 16 -22t82 -13l89 -10l6 -35h-652l7 35l104 12q80 7 82 37v233z" />
    <glyph glyph-name="section" unicode="&#xa7;" horiz-adv-x="860" 
d="M414 1268q-52 0 -90 -43t-39 -89q0 -46 20 -76q48 -73 236 -159q137 -67 191 -114q54 -46 81 -91q27 -44 27 -116t-54 -134t-127 -102q70 -70 70 -146q0 -132 -108 -216t-233 -84q-126 0 -201 41t-74 118q0 43 28 77q29 34 71 34q82 0 112 -61t6 -140q47 -26 106 -26
q60 0 101 45t41 90q0 77 -77 133q-45 34 -138 82q-93 49 -147 79q-195 109 -194 243q1 94 55 154t126 99q-68 72 -68 146t29 126q59 105 186 149q60 22 152 22t164 -40t71 -118q1 -45 -31 -78t-74 -33t-68 18q-78 53 -50 183q-48 27 -100 27zM702 482q0 73 -63 121t-166 97
q-69 39 -135 73t-113 75q-65 -52 -65 -121q0 -70 63 -118t149 -92t152 -78t115 -77q63 47 63 120z" />
    <glyph glyph-name="dieresis" unicode="&#xa8;" horiz-adv-x="808" 
d="M201 1053q-61 0 -96 40q-71 84 0 174q33 42 95 42t94 -42t32 -88t-32 -86t-93 -40zM610 1053q-61 0 -93 40t-32 86t32 88t93 42t93 -42t32 -88t-32 -86t-93 -40z" />
    <glyph glyph-name="copyright" unicode="&#xa9;" horiz-adv-x="1480" 
d="M741 -43q-141 0 -266 53q-125 52 -218 146q-198 199 -200 483q0 143 54 268q107 253 364 366q125 54 266 54t267 -54q126 -53 218 -147q93 -94 146 -219t53 -267t-53 -266q-108 -254 -364 -364q-126 -53 -267 -53zM741 -8q133 0 250 51t205 139t138 206t50 251t-50 252
t-138 208t-205 140t-250 51t-251 -51q-235 -102 -343 -348q-51 -119 -51 -252t51 -251q104 -241 343 -345q118 -51 251 -51zM789 1008q-81 0 -131 -27q-156 -85 -156 -334q0 -172 78 -277q78 -104 196 -104q80 0 132 38t91 104l50 106h30l-35 -231l-53 -2q-97 -43 -212 -43
q-213 0 -332 114t-118 287t125 286t330 113q112 0 181 -41l88 27l6 -260h-31l-104 201q-53 43 -135 43z" />
    <glyph glyph-name="ordfeminine" unicode="&#xaa;" horiz-adv-x="733" 
d="M209 578q-68 0 -116 44t-48 118q0 161 399 253l2 56q2 94 -46 143t-107 49t-79 -15q-20 -16 -21 -24q0 -8 18 -34t18 -58q1 -32 -27 -54q-28 -24 -68 -24t-68 23t-27 61q0 38 38 72t93 60q117 54 235 56q118 0 177 -58t53 -175l-12 -297q-2 -92 55 -92q37 0 72 35l8 -17
q-85 -122 -187 -122q-113 0 -131 139h-4q-112 -139 -227 -139zM258 720q27 -30 75 -30t103 58l8 215q-211 -50 -213 -164q0 -49 27 -79z" />
    <glyph glyph-name="guillemotleft" unicode="&#xab;" horiz-adv-x="950" 
d="M442 426v57l465 346l13 -16l-265 -360l263 -357l-11 -16zM35 426v57l454 324l11 -16l-244 -338l244 -336l-11 -17z" />
    <glyph glyph-name="registered" unicode="&#xae;" horiz-adv-x="1480" 
d="M741 -43q-141 0 -266 53q-125 52 -218 146t-146 219t-54 266q0 141 54 266q107 253 364 366q125 54 266 54t267 -54q126 -53 218 -147q93 -94 146 -219t53 -266t-53 -266q-108 -254 -364 -365q-126 -53 -267 -53zM741 -6q133 0 251 51t205 139t137 206t50 251t-50 252
t-137 207t-205 139t-251 51t-251 -51q-236 -102 -343 -346q-51 -119 -51 -252t51 -251q104 -241 343 -345q118 -51 251 -51zM717 1024q332 0 332 -197q1 -72 -51 -125t-138 -73l154 -238q37 -59 64 -75q28 -15 67 -23l22 -4l4 -31h-268l-20 41l-185 322q-12 4 -34 8t-37 8
v-324q0 -12 57 -18l49 -6l4 -31h-379l7 31l53 6q51 6 51 22v650q0 14 -59 20l-45 8l-5 29h357zM881 826q1 85 -55 126t-148 37h-51v-317q28 -11 90 -19q76 2 120 45t44 128z" />
    <glyph glyph-name="macron" unicode="&#xaf;" horiz-adv-x="774" 
d="M129 1180h537l-17 -97h-543z" />
    <glyph glyph-name="degree" unicode="&#xb0;" horiz-adv-x="659" 
d="M332 750q-127 0 -204 81t-78 201t75 202q76 83 203 83q126 0 208 -84q74 -79 74 -199q0 -119 -74 -200q-77 -84 -204 -84zM330 791q109 1 172 71t63 172t-64 171t-170 70q-105 1 -169 -68t-65 -172t61 -173t172 -71z" />
    <glyph glyph-name="plusminus" unicode="&#xb1;" horiz-adv-x="733" 
d="M250 899q0 26 -90 33l-72 8l-6 35h571l-6 -35l-74 -8q-41 -4 -63 -11t-21 -26v-819q0 -26 91 -33l71 -8l6 -35h-571l6 35l76 8q41 4 61 11t21 26v819z" />
    <glyph glyph-name="acute" unicode="&#xb4;" horiz-adv-x="819" 
d="M492 1399h245l-413 -379h-37z" />
    <glyph glyph-name="paragraph" unicode="&#xb6;" horiz-adv-x="919" 
d="M564 500q-228 0 -369 104q-140 104 -140 283q0 393 543 393h205v-1346h-55v580q-76 -14 -184 -14z" />
    <glyph glyph-name="periodcentered" unicode="&#xb7;" horiz-adv-x="452" 
d="M225 336q-61 0 -103 43t-42 101t42 100t103 43q61 0 103 -43q42 -42 41 -100q1 -58 -41 -101t-103 -43z" />
    <glyph glyph-name="cedilla" unicode="&#xb8;" horiz-adv-x="802" 
d="M190 -535q318 52 318 173q0 122 -177 120q-75 0 -147 -22v22l232 248h47l-127 -133q132 16 224 -34q93 -50 91 -136q0 -210 -450 -260z" />
    <glyph glyph-name="ordmasculine" unicode="&#xba;" horiz-adv-x="831" 
d="M138 677q-106 106 -104 256q1 151 108 261q107 109 277 109t273 -106t103 -259t-107 -260q-108 -107 -276 -107t-274 106zM246 952q0 -348 170 -348q73 0 117 86q45 86 46 218q3 307 -116 350q-70 27 -124 -15q-93 -73 -93 -291z" />
    <glyph glyph-name="guillemotright" unicode="&#xbb;" horiz-adv-x="948" 
d="M37 96l262 357l-260 360l10 16l467 -346v-57l-467 -346zM457 117l241 336l-239 338l8 16l455 -324v-57l-455 -326z" />
    <glyph glyph-name="questiondown" unicode="&#xbf;" horiz-adv-x="702" 
d="M121 334q0 -60 81 -108t197 -48t195 23q45 -36 48 -98q6 -132 -167 -132q-174 0 -292 128q-117 128 -115 294q0 113 40 162t142 92q92 35 138 59t46 64t-21 71q-22 30 -63 64l35 6q112 -83 155 -178q15 -33 15 -69q0 -75 -67 -122q-46 -34 -161 -74q-116 -40 -161 -68
t-45 -66zM376 1034q-58 0 -98 41t-40 95t40 96t98 43q58 0 99 -41q41 -42 41 -98t-41 -96t-99 -40z" />
    <glyph glyph-name="Agrave" unicode="&#xc0;" horiz-adv-x="1329" 
d="M279 1741h247l203 -379h-35zM557 1038h-8l-168 -481h332zM307 344q-31 -92 -47 -148t-10 -90t36 -46q30 -13 91 -19l47 -6l6 -35h-457l7 35l38 6q45 6 75 19q57 25 117 173q32 78 81 213l233 650l-16 69q49 12 109 59q61 48 77 91h37l365 -1065q48 -132 78 -167
q30 -36 92 -40l61 -8l6 -35h-635l7 35l59 6q71 8 81 47q9 42 -28 148l-90 276h-362z" />
    <glyph glyph-name="Aacute" unicode="&#xc1;" horiz-adv-x="1329" 
d="M760 1741h246l-414 -379h-37zM557 1038h-8l-168 -481h332zM307 344q-31 -92 -47 -148t-10 -90t36 -46q30 -13 91 -19l47 -6l6 -35h-457l7 35l38 6q45 6 75 19q57 25 117 173q32 78 81 213l233 650l-16 69q49 12 109 59q61 48 77 91h37l365 -1065q48 -132 78 -167
q30 -36 92 -40l61 -8l6 -35h-635l7 35l59 6q71 8 81 47q9 42 -28 148l-90 276h-362z" />
    <glyph glyph-name="Acircumflex" unicode="&#xc2;" horiz-adv-x="1329" 
d="M651 1751h39l279 -403h-31l-264 200h-4l-269 -200h-28zM557 1038h-8l-168 -481h332zM307 344q-31 -92 -47 -148t-10 -90t36 -46q30 -13 91 -19l47 -6l6 -35h-457l7 35l38 6q45 6 75 19q57 25 117 173q32 78 81 213l233 650l-16 69q49 12 109 59q61 48 77 91h37l365 -1065
q48 -132 78 -167q30 -36 92 -40l61 -8l6 -35h-635l7 35l59 6q71 8 81 47q9 42 -28 148l-90 276h-362z" />
    <glyph glyph-name="Atilde" unicode="&#xc3;" horiz-adv-x="1329" 
d="M867 1522q38 0 62 19t36 95h32q-12 -144 -51 -202t-119 -58t-202 66q-123 66 -165 67q-42 0 -62 -21t-31 -93h-37q14 145 53 202q80 117 322 -9q124 -66 162 -66zM557 1038h-8l-168 -481h332zM307 344q-31 -92 -47 -148t-10 -90t36 -46q30 -13 91 -19l47 -6l6 -35h-457
l7 35l38 6q45 6 75 19q57 25 117 173q32 78 81 213l233 650l-16 69q49 12 109 59q61 48 77 91h37l365 -1065q48 -132 78 -167q30 -36 92 -40l61 -8l6 -35h-635l7 35l59 6q71 8 81 47q9 42 -28 148l-90 276h-362z" />
    <glyph glyph-name="Adieresis" unicode="&#xc4;" horiz-adv-x="1329" 
d="M461 1395q-61 0 -95 40t-34 86t34 88t95 42t93 -42t32 -88t-32 -86t-93 -40zM870 1395q-61 0 -93 40t-32 86t32 88t93 42q62 0 94 -42q68 -87 0 -174q-33 -40 -94 -40zM557 1038h-8l-168 -481h332zM307 344q-31 -92 -47 -148t-10 -90t36 -46q30 -13 91 -19l47 -6l6 -35
h-457l7 35l38 6q45 6 75 19q57 25 117 173q32 78 81 213l233 650l-16 69q49 12 109 59q61 48 77 91h37l365 -1065q48 -132 78 -167q30 -36 92 -40l61 -8l6 -35h-635l7 35l59 6q71 8 81 47q9 42 -28 148l-90 276h-362z" />
    <glyph glyph-name="Aring" unicode="&#xc5;" horiz-adv-x="1329" 
d="M713 557l-6 21q-6 20 -18 54q-11 34 -25 78t-29 89l-78 241h-8l-168 -483h332zM473 1434q0 78 50 134q49 56 137 56t138 -56t50 -122q0 -132 -98 -178l346 -1018q48 -132 78 -167q30 -36 92 -40l61 -8l6 -35h-635l7 35l59 6q71 8 81 47q9 42 -28 148l-88 274h-364
l-58 -166q-31 -92 -47 -148t-10 -90t36 -46q30 -13 91 -19l47 -6l6 -35h-457l7 35l38 6q45 6 76 19q59 25 117 173q31 78 80 213l295 816q-113 47 -113 172zM662 1276q72 0 112 47t39 111q0 64 -40 110q-39 47 -111 47t-113 -47t-41 -110q0 -62 41 -110t113 -48z" />
    <glyph glyph-name="AE" unicode="&#xc6;" horiz-adv-x="1796" 
d="M778 84v432h-383l-90 -172q-83 -158 -79 -227q5 -61 96 -76l57 -6l6 -35h-481l6 35l67 8q71 14 129 77q57 64 175 281l389 725q29 56 15 74q-23 31 -114 39l-75 8l-7 33h1156l14 -420h-51l-19 68q-25 88 -55 147q-63 119 -196 148q-69 14 -171 14l-127 -2v-561l60 2
q122 4 165 30q42 25 62 53t33 70l22 66h43l-53 -492l-39 3l-6 63q-8 91 -56 125q-48 33 -188 37l-43 2v-584l144 -6q288 0 405 183q37 58 64 132l18 62h53l-51 -420h-1085l6 33l102 12q82 11 82 39zM778 563v654h-8l-348 -654h356z" />
    <glyph glyph-name="Ccedilla" unicode="&#xc7;" horiz-adv-x="1419" 
d="M588 -535q317 51 317 173t-177 120q-75 0 -146 -22v22l200 215q-320 4 -518 185t-198 471q0 145 52 270q107 256 386 358q139 51 274 51q225 1 363 -69l147 43l10 -424h-51l-172 342q-91 60 -256 62q-214 0 -340 -173q-125 -173 -125 -449t129 -449t332 -173
q139 0 229 60t158 170l76 178h55l-61 -381h-88q-132 -59 -355 -72l-96 -100q132 16 224 -33t92 -137q0 -119 -145 -186q-110 -52 -306 -74z" />
    <glyph glyph-name="Egrave" unicode="&#xc8;" horiz-adv-x="1267" 
d="M291 1741h248l202 -379h-34zM217 1208q0 19 -36 24t-70 7l-58 8l-6 33h1067l14 -420h-53l-18 68q-50 176 -140 242q-90 67 -296 67l-138 -2v-561l76 2q121 4 181 37t87 116l23 66h43l-51 -492l-41 3l-8 63q-8 92 -60 125t-188 37l-62 2v-584l170 -6q287 0 404 183
q37 58 63 132l21 62h53l-53 -420h-1096l6 33l74 8q94 12 92 37v1130z" />
    <glyph glyph-name="Eacute" unicode="&#xc9;" horiz-adv-x="1267" 
d="M733 1741h246l-414 -379h-37zM217 1208q0 19 -36 24t-70 7l-58 8l-6 33h1067l14 -420h-53l-18 68q-50 176 -140 242q-90 67 -296 67l-138 -2v-561l76 2q121 4 181 37t87 116l23 66h43l-51 -492l-41 3l-8 63q-8 92 -60 125t-188 37l-62 2v-584l170 -6q287 0 404 183
q37 58 63 132l21 62h53l-53 -420h-1096l6 33l74 8q94 12 92 37v1130z" />
    <glyph glyph-name="Ecircumflex" unicode="&#xca;" horiz-adv-x="1267" 
d="M623 1751h39l278 -403h-31l-264 200h-4l-268 -200h-29zM217 1208q0 19 -36 24t-70 7l-58 8l-6 33h1067l14 -420h-53l-18 68q-50 176 -140 242q-90 67 -296 67l-138 -2v-561l76 2q121 4 181 37t87 116l23 66h43l-51 -492l-41 3l-8 63q-8 92 -60 125t-188 37l-62 2v-584
l170 -6q287 0 404 183q37 58 63 132l21 62h53l-53 -420h-1096l6 33l74 8q94 12 92 37v1130z" />
    <glyph glyph-name="Edieresis" unicode="&#xcb;" horiz-adv-x="1267" 
d="M436 1395q-61 0 -95 40t-34 86t34 88t95 42t93 -42t32 -88t-32 -86t-93 -40zM846 1395q-61 0 -93 40t-32 86t32 88t93 42t93 -42t32 -88t-32 -86t-93 -40zM217 1208q0 19 -36 24t-70 7l-58 8l-6 33h1067l14 -420h-53l-18 68q-50 176 -140 242q-90 67 -296 67l-138 -2
v-561l76 2q121 4 181 37t87 116l23 66h43l-51 -492l-41 3l-8 63q-8 92 -60 125t-188 37l-62 2v-584l170 -6q287 0 404 183q37 58 63 132l21 62h53l-53 -420h-1096l6 33l74 8q94 12 92 37v1130z" />
    <glyph glyph-name="Igrave" unicode="&#xcc;" horiz-adv-x="747" 
d="M18 1741h248l203 -379h-35zM242 78v1130q0 19 -36 24t-71 7l-67 8l-7 33h625l-6 -33l-84 -8q-90 -7 -90 -37v-1130q0 -12 18 -18t86 -13l68 -8l6 -33h-623l7 33l84 8q90 8 90 37z" />
    <glyph glyph-name="Iacute" unicode="&#xcd;" horiz-adv-x="747" 
d="M489 1741h246l-413 -379h-37zM242 78v1130q0 19 -36 24t-71 7l-67 8l-7 33h625l-6 -33l-84 -8q-90 -7 -90 -37v-1130q0 -12 18 -18t86 -13l68 -8l6 -33h-623l7 33l84 8q90 8 90 37z" />
    <glyph glyph-name="Icircumflex" unicode="&#xce;" horiz-adv-x="747" 
d="M356 1751h39l279 -403h-31l-264 200h-4l-269 -200h-28zM242 78v1130q0 19 -36 24t-71 7l-67 8l-7 33h625l-6 -33l-84 -8q-90 -7 -90 -37v-1130q0 -12 18 -18t86 -13l68 -8l6 -33h-623l7 33l84 8q90 8 90 37z" />
    <glyph glyph-name="Idieresis" unicode="&#xcf;" horiz-adv-x="747" 
d="M174 1395q-61 0 -95 40t-34 86t34 88t95 42t93 -42t32 -88t-32 -86t-93 -40zM584 1395q-61 0 -94 40q-67 83 0 174q32 42 94 42t93 -42q32 -42 32 -88t-32 -86t-93 -40zM242 78v1130q0 19 -36 24t-71 7l-67 8l-7 33h625l-6 -33l-84 -8q-90 -7 -90 -37v-1130q0 -12 18 -18
t86 -13l68 -8l6 -33h-623l7 33l84 8q90 8 90 37z" />
    <glyph glyph-name="Eth" unicode="&#xd0;" horiz-adv-x="1421" 
d="M1364 659q0 -135 -53 -256q-107 -244 -391 -351q-141 -52 -318 -52h-567l6 33l94 14q82 7 82 37v537h-176l6 47h170v532q0 25 -96 35l-78 12l-6 33q168 0 299 2l203 2h88q351 4 544 -165q193 -170 193 -460zM481 621v-543l140 -35q215 0 337 165q121 165 119 404
q0 447 -278 580q-94 45 -224 45h-94v-569h252l6 -47h-258z" />
    <glyph glyph-name="Ntilde" unicode="&#xd1;" horiz-adv-x="1452" 
d="M960 1522q38 0 62 19t35 95h33q-12 -144 -52 -202t-119 -58q-80 0 -202 66q-123 66 -165 67q-42 0 -62 -21t-31 -93h-37q14 145 53 202q80 117 322 -9q125 -66 163 -66zM289 1067h-6l2 -850q0 -99 30 -133t121 -43l62 -8l6 -33h-463l6 33l57 8q74 6 102 44t27 142l7 867
q-72 123 -179 141l-43 12l-6 33h457l713 -895h6l-2 676q0 102 -31 136t-121 42l-59 8l-6 33h461l-7 -33l-57 -8q-72 -6 -100 -44t-29 -144l-6 -1063h-72z" />
    <glyph glyph-name="Ograve" unicode="&#xd2;" horiz-adv-x="1527" 
d="M410 1741h247l203 -379h-35zM750 -29q-301 0 -492 184q-192 184 -192 480q0 137 56 259q116 252 378 359q130 53 278 53q299 1 491 -183q193 -185 193 -482q0 -137 -56 -259t-152 -213t-226 -145t-278 -53zM770 16q188 0 294 154q105 154 105 457t-112 469t-300 166
q-189 0 -295 -154t-108 -460q0 -306 114 -469t302 -163z" />
    <glyph glyph-name="Oacute" unicode="&#xd3;" horiz-adv-x="1527" 
d="M881 1741h245l-413 -379h-37zM750 -29q-301 0 -492 184q-192 184 -192 480q0 137 56 259q116 252 378 359q130 53 278 53q299 1 491 -183q193 -185 193 -482q0 -137 -56 -259t-152 -213t-226 -145t-278 -53zM770 16q188 0 294 154q105 154 105 457t-112 469t-300 166
q-189 0 -295 -154t-108 -460q0 -306 114 -469t302 -163z" />
    <glyph glyph-name="Ocircumflex" unicode="&#xd4;" horiz-adv-x="1527" 
d="M745 1751h39l279 -403h-31l-264 200h-4l-268 -200h-29zM750 -29q-301 0 -492 184q-192 184 -192 480q0 137 56 259q116 252 378 359q130 53 278 53q299 1 491 -183q193 -185 193 -482q0 -137 -56 -259t-152 -213t-226 -145t-278 -53zM770 16q188 0 294 154
q105 154 105 457t-112 469t-300 166q-189 0 -295 -154t-108 -460q0 -306 114 -469t302 -163z" />
    <glyph glyph-name="Otilde" unicode="&#xd5;" horiz-adv-x="1527" 
d="M939 1376q-79 0 -203 66t-165 67q-42 0 -61 -20t-33 -94h-37q14 145 54 202q82 118 321 -9q124 -66 163 -66q38 0 62 19t35 95h33q-12 -144 -51 -202t-118 -58zM750 -29q-301 0 -492 184q-192 184 -192 480q0 137 56 259q116 252 378 359q130 53 278 53q299 1 491 -183
q193 -185 193 -482q0 -137 -56 -259t-152 -213t-226 -145t-278 -53zM770 16q188 0 294 154q105 154 105 457t-112 469t-300 166q-189 0 -295 -154t-108 -460q0 -306 114 -469t302 -163z" />
    <glyph glyph-name="Odieresis" unicode="&#xd6;" horiz-adv-x="1527" 
d="M559 1395q-61 0 -95 40t-34 86t34 88t95 42t93 -42t32 -88t-32 -86t-93 -40zM969 1395q-61 0 -93 40t-32 86t32 88t93 42t93 -42t32 -88t-32 -86t-93 -40zM750 -29q-301 0 -492 184q-192 184 -192 480q0 137 56 259q116 252 378 359q130 53 278 53q299 1 491 -183
q193 -185 193 -482q0 -137 -56 -259t-152 -213t-226 -145t-278 -53zM770 16q188 0 294 154q105 154 105 457t-112 469t-300 166q-189 0 -295 -154t-108 -460q0 -306 114 -469t302 -163z" />
    <glyph glyph-name="Oslash" unicode="&#xd8;" horiz-adv-x="1527" 
d="M1462 641q0 -137 -56 -259t-152 -213t-226 -144q-128 -53 -286 -53t-298 61l-106 -185h-49l117 203q-158 80 -249 231t-91 353q0 137 56 259q116 252 378 359q130 53 290 53t304 -65l98 168h49l-108 -188q153 -82 241 -232t88 -348zM770 16q188 0 294 154
q105 154 105 454t-110 470l-555 -959q106 -119 266 -119zM1030 1130q-102 132 -282 132t-286 -155t-108 -462q0 -307 121 -475z" />
    <glyph glyph-name="Ugrave" unicode="&#xd9;" horiz-adv-x="1435" 
d="M397 1741h248l203 -379h-35zM827 74q361 0 361 420l-2 567q0 102 -31 136t-121 42l-61 8l-6 33h463l-7 -33l-57 -8q-72 -6 -100 -44t-29 -144l-4 -570q-2 -246 -121 -381t-381 -135q-262 1 -393 107t-131 338v800q0 23 -103 29l-69 8l-6 33h624l-6 -33l-86 -8
q-86 -7 -88 -35v-733q0 -397 354 -397z" />
    <glyph glyph-name="Uacute" unicode="&#xda;" horiz-adv-x="1435" 
d="M897 1741h246l-414 -379h-37zM827 74q361 0 361 420l-2 567q0 102 -31 136t-121 42l-61 8l-6 33h463l-7 -33l-57 -8q-72 -6 -100 -44t-29 -144l-4 -570q-2 -246 -121 -381t-381 -135q-262 1 -393 107t-131 338v800q0 23 -103 29l-69 8l-6 33h624l-6 -33l-86 -8
q-86 -7 -88 -35v-733q0 -397 354 -397z" />
    <glyph glyph-name="Ucircumflex" unicode="&#xdb;" horiz-adv-x="1435" 
d="M756 1751h39l278 -403h-31l-264 200h-4l-268 -200h-29zM827 74q361 0 361 420l-2 567q0 102 -31 136t-121 42l-61 8l-6 33h463l-7 -33l-57 -8q-72 -6 -100 -44t-29 -144l-4 -570q-2 -246 -121 -381t-381 -135q-262 1 -393 107t-131 338v800q0 23 -103 29l-69 8l-6 33h624
l-6 -33l-86 -8q-86 -7 -88 -35v-733q0 -397 354 -397z" />
    <glyph glyph-name="Udieresis" unicode="&#xdc;" horiz-adv-x="1435" 
d="M582 1395q-61 0 -96 40q-71 84 0 174q34 42 96 42t93 -42q32 -42 32 -88t-32 -86t-93 -40zM991 1395q-61 0 -93 40t-32 86t32 88t93 42t93 -42t32 -88t-32 -86t-93 -40zM827 74q361 0 361 420l-2 567q0 102 -31 136t-121 42l-61 8l-6 33h463l-7 -33l-57 -8
q-72 -6 -100 -44t-29 -144l-4 -570q-2 -246 -121 -381t-381 -135q-262 1 -393 107t-131 338v800q0 23 -103 29l-69 8l-6 33h624l-6 -33l-86 -8q-86 -7 -88 -35v-733q0 -397 354 -397z" />
    <glyph glyph-name="Yacute" unicode="&#xdd;" horiz-adv-x="1300" 
d="M793 1741h245l-413 -379h-37zM518 78v487l-295 516q-57 94 -87 121t-87 35l-47 8l-6 35h618l-6 -35l-45 -4q-82 -10 -91 -44t36 -112l242 -438h8l162 299q93 171 90 226q-2 32 -31 46t-86 21l-47 6l-6 35h460l-6 -35l-51 -8q-78 -13 -114 -52q-63 -68 -156 -243
l-189 -338v-532q0 -12 18 -18t87 -13l78 -8l6 -33h-645l6 33l96 8q88 7 88 37z" />
    <glyph glyph-name="Thorn" unicode="&#xde;" horiz-adv-x="1228" 
d="M223 78v1128q0 12 -17 18t-87 13l-68 6l-6 37h623l-6 -37l-84 -8q-88 -8 -89 -33v-188h82q25 0 54 -2q270 0 403 -87t133 -252t-154 -267q-154 -103 -395 -103q-76 0 -123 10v-239q-1 -12 17 -20t88 -11l90 -6l6 -37h-647l6 37l86 8q88 7 88 33zM608 348q119 0 194 84
t75 227t-73 227t-226 87h-43q-20 0 -46 -2v-609q81 -14 119 -14z" />
    <glyph glyph-name="germandbls" unicode="&#xdf;" horiz-adv-x="1150" 
d="M989 1106q0 -186 -248 -240q154 -75 259 -213q106 -138 106 -290t-108 -271t-253 -119q-111 -1 -177 49t-66 114t37 102t90 36q53 0 81 -28q56 -55 19 -136q-16 -36 -51 -51q12 -43 98 -43q52 0 94 50t41 136q0 259 -218 462q-75 70 -179 127v53q132 32 192 93t60 167
t-49 166t-137 61t-130 -65t-42 -230v-1036h-363l6 37l43 2q41 4 60 9q18 5 18 24v704l-162 4l37 109l125 -2l4 92q12 180 133 290q121 111 299 110t280 -73q101 -73 101 -200z" />
    <glyph glyph-name="agrave" unicode="&#xe0;" horiz-adv-x="946" 
d="M115 1399h247l203 -379h-35zM961 139q-121 -166 -253 -166q-54 0 -96 44q-43 44 -53 130l-4 3q-152 -174 -261 -175t-174 59t-66 133q-1 75 26 123q80 143 483 240l2 54q4 132 -50 198t-153 66q-55 0 -93 -16t-38 -33q-1 -5 9 -17q48 -59 49 -101q0 -42 -33 -75t-84 -33
t-86 27t-35 74t44 92q91 93 256 135q79 20 149 21q168 0 240 -77t61 -267l-17 -369q-8 -107 67 -107q34 0 89 58zM283 248q0 -52 37 -90t84 -39q80 0 149 69l12 306q-86 -20 -140 -47q-105 -51 -130 -117q-12 -30 -12 -82z" />
    <glyph glyph-name="aacute" unicode="&#xe1;" horiz-adv-x="946" 
d="M565 1399h246l-414 -379h-37zM961 139q-121 -166 -253 -166q-54 0 -96 44q-43 44 -53 130l-4 3q-152 -174 -261 -175t-174 59t-66 133q-1 75 26 123q80 143 483 240l2 54q4 132 -50 198t-153 66q-55 0 -93 -16t-38 -33q-1 -5 9 -17q48 -59 49 -101q0 -42 -33 -75t-84 -33
t-86 27t-35 74t44 92q91 93 256 135q79 20 149 21q168 0 240 -77t61 -267l-17 -369q-8 -107 67 -107q34 0 89 58zM283 248q0 -52 37 -90t84 -39q80 0 149 69l12 306q-86 -20 -140 -47q-105 -51 -130 -117q-12 -30 -12 -82z" />
    <glyph glyph-name="acircumflex" unicode="&#xe2;" horiz-adv-x="946" 
d="M432 1409h39l279 -403h-31l-264 200h-4l-269 -200h-28zM961 139q-121 -166 -253 -166q-54 0 -96 44q-43 44 -53 130l-4 3q-152 -174 -261 -175t-174 59t-66 133q-1 75 26 123q80 143 483 240l2 54q4 132 -50 198t-153 66q-55 0 -93 -16t-38 -33q-1 -5 9 -17
q48 -59 49 -101q0 -42 -33 -75t-84 -33t-86 27t-35 74t44 92q91 93 256 135q79 20 149 21q168 0 240 -77t61 -267l-17 -369q-8 -107 67 -107q34 0 89 58zM283 248q0 -52 37 -90t84 -39q80 0 149 69l12 306q-86 -20 -140 -47q-105 -51 -130 -117q-12 -30 -12 -82z" />
    <glyph glyph-name="atilde" unicode="&#xe3;" horiz-adv-x="946" 
d="M657 1180q37 0 61 19t36 95h32q-12 -144 -51 -202t-119 -58t-202 66q-123 66 -165 67q-42 0 -62 -21t-31 -93h-37q14 145 53 202q80 117 322 -9q125 -66 163 -66zM961 139q-121 -166 -253 -166q-54 0 -96 44q-43 44 -53 130l-4 3q-152 -174 -261 -175t-174 59t-66 133
q-1 75 26 123q80 143 483 240l2 54q4 132 -50 198t-153 66q-55 0 -93 -16t-38 -33q-1 -5 9 -17q48 -59 49 -101q0 -42 -33 -75t-84 -33t-86 27t-35 74t44 92q91 93 256 135q79 20 149 21q168 0 240 -77t61 -267l-17 -369q-8 -107 67 -107q34 0 89 58zM283 248q0 -52 37 -90
t84 -39q80 0 149 69l12 306q-86 -20 -140 -47q-105 -51 -130 -117q-12 -30 -12 -82z" />
    <glyph glyph-name="adieresis" unicode="&#xe4;" horiz-adv-x="946" 
d="M244 1053q-61 0 -96 40q-71 84 0 174q34 42 96 42t93 -42q32 -42 32 -88t-32 -86t-93 -40zM653 1053q-61 0 -93 40t-32 86t32 88t93 42t93 -42t32 -88t-32 -86t-93 -40zM961 139q-121 -166 -253 -166q-54 0 -96 44q-43 44 -53 130l-4 3q-152 -174 -261 -175t-174 59
t-66 133q-1 75 26 123q80 143 483 240l2 54q4 132 -50 198t-153 66q-55 0 -93 -16t-38 -33q-1 -5 9 -17q48 -59 49 -101q0 -42 -33 -75t-84 -33t-86 27t-35 74t44 92q91 93 256 135q79 20 149 21q168 0 240 -77t61 -267l-17 -369q-8 -107 67 -107q34 0 89 58zM283 248
q0 -52 37 -90t84 -39q80 0 149 69l12 306q-86 -20 -140 -47q-105 -51 -130 -117q-12 -30 -12 -82z" />
    <glyph glyph-name="aring" unicode="&#xe5;" horiz-adv-x="946" 
d="M442 1030q-88 0 -138 56t-50 134t50 135q50 56 138 56t138 -56t51 -134q0 -78 -50 -135q-51 -56 -139 -56zM442 1063q72 0 112 46q40 47 40 111t-40 111t-112 47t-112 -47t-41 -111q1 -64 41 -111q40 -46 112 -46zM961 139q-121 -166 -253 -166q-54 0 -96 44
q-43 44 -53 130l-4 3q-152 -174 -261 -175t-174 59t-66 133q-1 75 26 123q80 143 483 240l2 54q4 132 -50 198t-153 66q-55 0 -93 -16t-38 -33q-1 -5 9 -17q48 -59 49 -101q0 -42 -33 -75t-84 -33t-86 27t-35 74t44 92q91 93 256 135q79 20 149 21q168 0 240 -77t61 -267
l-17 -369q-8 -107 67 -107q34 0 89 58zM283 248q0 -52 37 -90t84 -39q80 0 149 69l12 306q-86 -20 -140 -47q-105 -51 -130 -117q-12 -30 -12 -82z" />
    <glyph glyph-name="ae" unicode="&#xe6;" horiz-adv-x="1439" 
d="M362 848q-55 0 -93 -16t-38 -33q-1 -5 9 -17q48 -59 49 -101q0 -42 -33 -75t-84 -33t-86 27t-35 74t43 92q88 92 255 135q79 20 153 21q167 0 229 -107q128 109 296 109t263 -86q94 -86 92 -213q0 -28 -8 -58q-147 0 -268 2l-303 6q-2 -16 -2 -38v-39q0 -167 84 -270
t221 -103q171 0 262 151l23 -12q-126 -291 -414 -291q-129 1 -224 61t-143 161q-179 -222 -336 -222q-91 0 -155 61t-65 134q-1 74 26 122q81 145 483 240l2 56q6 130 -49 196t-154 66zM559 449q0 21 4 43q-229 -63 -268 -166q-12 -33 -12 -83t38 -89t85 -39q88 0 188 108
q-35 88 -35 226zM979 612h172q0 184 -77 244q-28 23 -68 23q-72 0 -128 -73t-71 -196q96 2 172 2z" />
    <glyph glyph-name="ccedilla" unicode="&#xe7;" horiz-adv-x="903" 
d="M287 -535q317 51 317 173t-177 120q-75 0 -146 -22v22l196 211h-2q-183 0 -305 128q-121 128 -121 332t139 348q139 145 353 145q139 0 231 -58t90 -147q0 -57 -36 -91t-91 -34t-90 44t-31 103q0 33 19 56q18 23 16 37t-34 28q-32 16 -72 17q-104 -1 -173 -99t-69 -275
t81 -279t218 -103q162 0 254 151l25 -12q-115 -261 -353 -289l-94 -98q132 16 224 -33t92 -137q0 -119 -145 -186q-110 -52 -306 -74z" />
    <glyph glyph-name="egrave" unicode="&#xe8;" horiz-adv-x="933" 
d="M152 1399h247l203 -379h-35zM475 -31q-186 0 -306 131t-120 334t137 347q137 143 344 143q162 0 255 -86q92 -86 92 -213q0 -29 -7 -58q-150 0 -270 2l-299 6q-4 -16 -4 -38v-39q0 -169 86 -274t219 -103q168 0 260 151l25 -12q-128 -291 -412 -291zM504 879
q-72 0 -129 -74t-72 -195l344 2q0 184 -77 244q-28 23 -66 23z" />
    <glyph glyph-name="eacute" unicode="&#xe9;" horiz-adv-x="933" 
d="M596 1399h246l-414 -379h-37zM475 -31q-186 0 -306 131t-120 334t137 347q137 143 344 143q162 0 255 -86q92 -86 92 -213q0 -29 -7 -58q-150 0 -270 2l-299 6q-4 -16 -4 -38v-39q0 -169 86 -274t219 -103q168 0 260 151l25 -12q-128 -291 -412 -291zM504 879
q-72 0 -129 -74t-72 -195l344 2q0 184 -77 244q-28 23 -66 23z" />
    <glyph glyph-name="ecircumflex" unicode="&#xea;" horiz-adv-x="933" 
d="M473 1409h39l279 -403h-31l-264 200h-4l-269 -200h-28zM475 -31q-186 0 -306 131t-120 334t137 347q137 143 344 143q162 0 255 -86q92 -86 92 -213q0 -29 -7 -58q-150 0 -270 2l-299 6q-4 -16 -4 -38v-39q0 -169 86 -274t219 -103q168 0 260 151l25 -12
q-128 -291 -412 -291zM504 879q-72 0 -129 -74t-72 -195l344 2q0 184 -77 244q-28 23 -66 23z" />
    <glyph glyph-name="edieresis" unicode="&#xeb;" horiz-adv-x="933" 
d="M285 1053q-61 0 -96 40q-71 84 0 174q33 42 95 42t94 -42t32 -88t-32 -86t-93 -40zM694 1053q-61 0 -93 40t-32 86t32 88t93 42t93 -42t32 -88t-32 -86t-93 -40zM475 -31q-186 0 -306 131t-120 334t137 347q137 143 344 143q162 0 255 -86q92 -86 92 -213q0 -29 -7 -58
q-150 0 -270 2l-299 6q-4 -16 -4 -38v-39q0 -169 86 -274t219 -103q168 0 260 151l25 -12q-128 -291 -412 -291zM504 879q-72 0 -129 -74t-72 -195l344 2q0 184 -77 244q-28 23 -66 23z" />
    <glyph glyph-name="igrave" unicode="&#xec;" horiz-adv-x="559" 
d="M-49 1399h248l202 -379h-34zM164 621q0 94 -16 122q-16 27 -70 39l-43 11l2 24l362 101v-850q1 -14 17 -20t80 -13l28 -2l6 -33h-489l6 33l35 2q45 4 63 10t19 25v551z" />
    <glyph glyph-name="iacute" unicode="&#xed;" horiz-adv-x="559" 
d="M371 1399h245l-413 -379h-37zM164 621q0 94 -16 122q-16 27 -70 39l-43 11l2 24l362 101v-850q1 -14 17 -20t80 -13l28 -2l6 -33h-489l6 33l35 2q45 4 63 10t19 25v551z" />
    <glyph glyph-name="icircumflex" unicode="&#xee;" horiz-adv-x="559" 
d="M164 621q0 94 -16 122q-16 27 -70 39l-43 11l2 24l362 101v-850q1 -14 17 -20t80 -13l28 -2l6 -33h-489l6 33l35 2q45 4 63 10t19 25v551zM266 1409h39l264 -403h-30l-252 200h-4l-250 -200h-33z" />
    <glyph glyph-name="idieresis" unicode="&#xef;" horiz-adv-x="559" 
d="M86 1053q-61 0 -95 40t-34 86t34 88t95 42t93 -42t32 -88t-32 -86t-93 -40zM496 1053q-61 0 -94 40q-67 83 0 174q32 42 94 42t93 -42q32 -42 32 -88t-32 -86t-93 -40zM164 621q0 94 -16 122q-16 27 -70 39l-43 11l2 24l362 101v-850q1 -14 17 -20t80 -13l28 -2l6 -33
h-489l6 33l35 2q45 4 63 10t19 25v551z" />
    <glyph glyph-name="eth" unicode="&#xf0;" horiz-adv-x="1058" 
d="M1010 514q0 -238 -134 -390t-349 -151q-216 0 -347 136t-131 338q0 203 130 340t335 137q85 0 148 -21q-75 142 -193 230l-41 -14q-43 -13 -94 -29l-135 -46l4 48l221 73q-109 72 -262 103l12 30q201 -20 365 -96l241 80l4 -47l-188 -61q198 -109 306 -287
q108 -177 108 -373zM537 16q215 0 217 410q0 207 -65 333t-167 126q-103 0 -158 -108t-57 -300q1 -461 230 -461z" />
    <glyph glyph-name="ntilde" unicode="&#xf1;" horiz-adv-x="1122" 
d="M769 1180q37 0 61 19t36 95h33q-12 -144 -51 -202t-118 -58t-203 66t-165 67q-42 0 -61 -20t-33 -94h-37q13 145 53 202q82 118 322 -9q125 -66 163 -66zM573 764q-87 0 -176 -62v-634q1 -14 15 -22t71 -11l39 -2l4 -33h-487l6 33l35 2q45 4 63 10t19 25v548
q0 97 -16 125q-16 27 -70 39l-43 11l2 24l364 101l-4 -170h6q96 81 151 111q107 59 201 60q95 1 163 -67t67 -227v-555q0 -13 18 -21q18 -7 80 -14l29 -2l6 -33h-483l6 33l37 2q51 4 62 13t12 22v495q0 115 -45 157t-132 42z" />
    <glyph glyph-name="ograve" unicode="&#xf2;" 
d="M172 1399h248l203 -379h-35zM49 446q0 199 143 338q143 138 357 138t348 -134q133 -134 133 -336q0 -201 -142 -341t-358 -140t-349 138q-132 138 -132 337zM539 12q105 0 166 115t61 297q0 450 -229 455q-107 0 -169 -117q-57 -104 -59 -289q0 -461 230 -461z" />
    <glyph glyph-name="oacute" unicode="&#xf3;" 
d="M651 1399h246l-414 -379h-37zM49 446q0 199 143 338q143 138 357 138t348 -134q133 -134 133 -336q0 -201 -142 -341t-358 -140t-349 138q-132 138 -132 337zM539 12q105 0 166 115t61 297q0 450 -229 455q-107 0 -169 -117q-57 -104 -59 -289q0 -461 230 -461z" />
    <glyph glyph-name="ocircumflex" unicode="&#xf4;" 
d="M518 1409h39l279 -403h-31l-264 200h-4l-269 -200h-28zM49 446q0 199 143 338q143 138 357 138t348 -134q133 -134 133 -336q0 -201 -142 -341t-358 -140t-349 138q-132 138 -132 337zM539 12q105 0 166 115t61 297q0 450 -229 455q-107 0 -169 -117q-57 -104 -59 -289
q0 -461 230 -461z" />
    <glyph glyph-name="otilde" unicode="&#xf5;" 
d="M740 1180q38 0 62 19t36 95h32q-12 -144 -51 -202t-119 -58t-202 66q-123 66 -165 67q-42 0 -62 -21t-31 -93h-37q14 145 53 202q80 117 322 -9q124 -66 162 -66zM49 446q0 199 143 338q143 138 357 138t348 -134q133 -134 133 -336q0 -201 -142 -341t-358 -140t-349 138
q-132 138 -132 337zM539 12q105 0 166 115t61 297q0 450 -229 455q-107 0 -169 -117q-57 -104 -59 -289q0 -461 230 -461z" />
    <glyph glyph-name="odieresis" unicode="&#xf6;" 
d="M334 1053q-61 0 -95 40t-34 86t34 88t95 42t93 -42t32 -88t-32 -86t-93 -40zM743 1053q-61 0 -93 40t-32 86t32 88t93 42t93 -42q68 -87 1 -174q-33 -40 -94 -40zM49 446q0 199 143 338q143 138 357 138t348 -134q133 -134 133 -336q0 -201 -142 -341t-358 -140t-349 138
q-132 138 -132 337zM539 12q105 0 166 115t61 297q0 450 -229 455q-107 0 -169 -117q-57 -104 -59 -289q0 -461 230 -461z" />
    <glyph glyph-name="divide" unicode="&#xf7;" horiz-adv-x="1148" 
d="M70 488q0 225 142 372q142 148 363 148t365 -144t144 -371q-1 -226 -145 -373t-366 -147q-111 0 -203 37q-188 76 -262 268q-38 96 -38 210zM1018 492q0 198 -125 326t-317 128q-191 0 -316 -129t-125 -328t123 -324q123 -126 317 -126q192 0 318 128q125 127 125 325z
" />
    <glyph glyph-name="oslash" unicode="&#xf8;" 
d="M1030 470q0 -219 -142 -359t-358 -140q-129 0 -225 49l-166 -284h-45l176 303q-106 61 -164 169q-57 108 -57 221q0 216 143 355q143 138 357 138q113 0 207 -41l178 307h45l-188 -324q115 -59 177 -169t62 -225zM698 780q-58 99 -163 100q-104 1 -167 -117
q-57 -102 -58 -291t38 -298zM766 434q0 191 -47 303l-352 -610q55 -114 166 -114q111 -1 172 114q61 116 61 307z" />
    <glyph glyph-name="ugrave" unicode="&#xf9;" horiz-adv-x="1081" 
d="M174 1399h248l203 -379h-35zM547 129q88 0 168 59v611q1 31 -17 42t-80 15l-36 2l-9 33h375v-694q0 -53 10 -71t41 -28l84 -20l-4 -23l-364 -88l2 178h-4q-192 -171 -346 -174q-90 0 -164 70q-68 72 -66 229l2 555q0 14 -16 18q-16 5 -84 13l-33 2l-6 33h377l-6 -567
q-2 -111 43 -153t133 -42z" />
    <glyph glyph-name="uacute" unicode="&#xfa;" horiz-adv-x="1081" 
d="M643 1399h246l-414 -379h-37zM547 129q88 0 168 59v611q1 31 -17 42t-80 15l-36 2l-9 33h375v-694q0 -53 10 -71t41 -28l84 -20l-4 -23l-364 -88l2 178h-4q-192 -171 -346 -174q-90 0 -164 70q-68 72 -66 229l2 555q0 14 -16 18q-16 5 -84 13l-33 2l-6 33h377l-6 -567
q-2 -111 43 -153t133 -42z" />
    <glyph glyph-name="ucircumflex" unicode="&#xfb;" horiz-adv-x="1081" 
d="M512 1409h39l278 -403h-30l-264 200h-5l-268 -200h-29zM547 129q88 0 168 59v611q1 31 -17 42t-80 15l-36 2l-9 33h375v-694q0 -53 10 -71t41 -28l84 -20l-4 -23l-364 -88l2 178h-4q-192 -171 -346 -174q-90 0 -164 70q-68 72 -66 229l2 555q0 14 -16 18q-16 5 -84 13
l-33 2l-6 33h377l-6 -567q-2 -111 43 -153t133 -42z" />
    <glyph glyph-name="udieresis" unicode="&#xfc;" horiz-adv-x="1081" 
d="M346 1053q-61 0 -95 40t-34 86t34 88t95 42t93 -42t32 -88t-32 -86t-93 -40zM756 1053q-61 0 -93 40t-32 86t32 88t93 42t93 -42t32 -88t-32 -86t-93 -40zM547 129q88 0 168 59v611q1 31 -17 42t-80 15l-36 2l-9 33h375v-694q0 -53 10 -71t41 -28l84 -20l-4 -23l-364 -88
l2 178h-4q-192 -171 -346 -174q-90 0 -164 70q-68 72 -66 229l2 555q0 14 -16 18q-16 5 -84 13l-33 2l-6 33h377l-6 -567q-2 -111 43 -153t133 -42z" />
    <glyph glyph-name="yacute" unicode="&#xfd;" horiz-adv-x="983" 
d="M621 1399h245l-413 -379h-37zM209 -528q-55 0 -99 34t-44 86q0 54 32 89q33 35 89 35t88 -34q32 -32 42 -73q35 10 59 48t50 116l70 198h-19l-348 777q-27 60 -48 79t-65 23l-36 8l-7 33h512l-6 -33l-41 -6q-53 -6 -64 -26t9 -66l215 -506l139 385q45 121 34 153t-35 42
t-66 16l-41 8l-6 33h370l-6 -33l-41 -6q-58 -4 -84 -42t-80 -183l-227 -604l-92 -281q-47 -138 -105 -204t-149 -66z" />
    <glyph glyph-name="thorn" unicode="&#xfe;" 
d="M342 4v-453q0 -23 98 -26l70 -2l6 -37h-536l6 37l43 2q43 4 62 9t20 26v1579q-1 55 -15 75t-55 33l-64 23l3 24l362 97v-654l8 -2q59 74 139 125q81 51 167 51q166 0 270 -125t104 -313q0 -229 -153 -371q-146 -131 -346 -131q-100 0 -183 33h-6zM561 14q100 0 156 109
q57 109 57 275t-67 267t-171 101t-194 -82v-494q44 -78 104 -127t115 -49z" />
    <glyph glyph-name="ydieresis" unicode="&#xff;" horiz-adv-x="983" 
d="M301 1053q-61 0 -95 40t-34 86t34 88t95 42t93 -42t32 -88t-32 -86t-93 -40zM711 1053q-61 0 -94 40q-67 83 0 174q31 42 93 42t94 -42t32 -88t-32 -86t-93 -40zM209 -528q-55 0 -99 34t-44 86q0 54 32 89q33 35 89 35t88 -34q32 -32 42 -73q35 10 59 48t50 116l70 198
h-19l-348 777q-27 60 -48 79t-65 23l-36 8l-7 33h512l-6 -33l-41 -6q-53 -6 -64 -26t9 -66l215 -506l139 385q45 121 34 153t-35 42t-66 16l-41 8l-6 33h370l-6 -33l-41 -6q-58 -4 -84 -42t-80 -183l-227 -604l-92 -281q-47 -138 -105 -204t-149 -66z" />
    <glyph glyph-name="dotlessi" unicode="&#x131;" horiz-adv-x="559" 
d="M164 621q0 94 -16 122q-16 27 -70 39l-43 11l2 24l362 101v-850q1 -14 17 -20t80 -13l28 -2l6 -33h-489l6 33l35 2q45 4 63 10t19 25v551z" />
    <glyph glyph-name="Lslash" unicode="&#x141;" horiz-adv-x="1185" 
d="M219 1198q0 14 -16 20t-80 15l-74 10l-6 37h639l-6 -37l-111 -12q-82 -9 -82 -37v-541l207 64l4 -47l-211 -66v-555l119 -8q185 0 275 75t176 267l22 70h53l-57 -453h-1030l6 37l90 12q82 7 82 37v436l-190 -59l2 49l188 59v627z" />
    <glyph glyph-name="lslash" unicode="&#x142;" horiz-adv-x="546" 
d="M154 1112q0 74 -14 98t-54 35l-61 23l2 24l364 101v-785l150 47l2 -47l-152 -47v-483q-1 -14 15 -20t71 -15l39 -8l6 -35h-485l6 35l37 8q41 6 57 12t17 25v407l-150 -45l2 47l148 46v577z" />
    <glyph glyph-name="OE" unicode="&#x152;" horiz-adv-x="1978" 
d="M791 0q-347 0 -536 166t-189 457q0 133 52 253q107 246 390 352q141 52 319 52h998l14 -418h-49l-21 70q-25 86 -57 145q-65 117 -209 146q-74 14 -176 14l-119 -2v-561l66 2q123 4 182 37t86 114l25 68l39 -2l-52 -487h-38l-7 65q-8 90 -59 123t-190 37l-52 2v-584
l156 -6q294 0 406 181q36 58 63 132l20 64l52 -2l-52 -418h-1062zM946 45v1163l-139 29q-218 0 -338 -165q-121 -165 -121 -427t125 -431t379 -169h94z" />
    <glyph glyph-name="oe" unicode="&#x153;" horiz-adv-x="1652" 
d="M885 111q-144 -144 -358 -144t-350 138q-128 134 -128 337q0 202 142 342t362 140t350 -150q139 150 346 150q162 0 256 -87t92 -212q0 -28 -8 -58q-150 0 -270 2l-303 6q-4 -33 -4 -97t24 -134t64 -119q89 -106 221 -104q165 0 262 151l23 -12q-128 -291 -414 -291
q-180 0 -307 142zM539 8q103 0 164 115t61 299q0 454 -227 459q-108 0 -167 -113t-61 -301q0 -459 230 -459zM1192 612h172q0 185 -75 244q-28 23 -68 23q-71 0 -129 -73t-74 -196q98 2 174 2z" />
    <glyph glyph-name="Scaron" unicode="&#x160;" horiz-adv-x="1075" 
d="M250 1772h29l268 -203h4l266 203h29l-279 -404h-39zM569 1307q118 0 265 -43l90 28l6 -379h-45l-148 295q-84 52 -192 53q-107 1 -171 -57t-64 -130q0 -70 23 -110q45 -74 157 -120q54 -22 127 -48q182 -64 267 -141q111 -100 110 -264t-135 -291t-345 -129
q-210 -2 -410 70l-22 348h49l86 -203q111 -168 305 -168q129 2 199 71t70 177q0 164 -191 244q-57 26 -129 50q-73 24 -139 54q-224 103 -221 314q0 78 30 146q63 140 227 202q82 31 201 31z" />
    <glyph glyph-name="scaron" unicode="&#x161;" horiz-adv-x="804" 
d="M100 1391h29l268 -203h4l267 203h28l-278 -404h-39zM252 734q0 -68 59 -104t171 -77t165 -84q101 -82 101 -201t-98 -208t-273 -89q-174 0 -307 52l-13 262l49 -2l52 -117q45 -74 97 -114t130 -40t126 43t48 113q0 94 -134 154q-40 18 -89 36t-98 42q-168 83 -166 239
q0 125 92 202t260 79q91 0 188 -33l84 20l11 -276l-48 -2l-122 205q-68 43 -135 44q-68 1 -109 -37t-41 -107z" />
    <glyph glyph-name="Ydieresis" unicode="&#x178;" horiz-adv-x="1300" 
d="M467 1395q-61 0 -95 40t-34 86t34 88t95 42t93 -42t32 -88t-32 -86t-93 -40zM877 1395q-61 0 -94 40q-67 83 0 174q31 42 93 42t94 -42q67 -88 0 -174q-32 -40 -93 -40zM518 78v487l-295 516q-57 94 -87 121t-87 35l-47 8l-6 35h618l-6 -35l-45 -4q-82 -10 -91 -44
t36 -112l242 -438h8l162 299q93 171 90 226q-2 32 -31 46t-86 21l-47 6l-6 35h460l-6 -35l-51 -8q-78 -13 -114 -52q-63 -68 -156 -243l-189 -338v-532q0 -12 18 -18t87 -13l78 -8l6 -33h-645l6 33l96 8q88 7 88 37z" />
    <glyph glyph-name="Zcaron" unicode="&#x17d;" horiz-adv-x="1234" 
d="M326 1757h28l269 -203h4l266 203h29l-279 -403h-39zM838 1235h-197q-286 0 -396 -171q-36 -56 -63 -132l-16 -62h-51l18 410h1018v-37l-786 -1190v-6l215 -4q233 -4 343 78q58 43 100 111t81 163l22 64h54l-60 -459h-1054v35l772 1194v6z" />
    <glyph glyph-name="zcaron" unicode="&#x17e;" horiz-adv-x="929" 
d="M170 1382h29l268 -202h4l266 202h29l-279 -403h-38zM82 545v346h774v-31l-543 -817h99q232 6 332 135q32 41 57 88l43 84h43l-70 -350h-774v29l537 821l-91 -2q-147 -4 -214 -50t-109 -151l-41 -102h-43z" />
    <glyph glyph-name="florin" unicode="&#x192;" horiz-adv-x="1130" 
d="M201 -113q-96 0 -156 42q-59 41 -59 99t32 96t80 38t76 -18q58 -36 59 -109q0 -37 -24 -74l33 -4q28 -4 45 -4q47 11 86 135t92 401l39 222l-213 8l33 86l204 22q69 258 172 367q113 113 299 113q89 0 147 -45q58 -44 58 -106t-37 -99t-85 -37t-76 22q-58 44 -40 119
q9 37 42 68q-64 16 -78 16q-74 -14 -133 -270q-16 -74 -35 -154h252l-10 -102h-261l-47 -197q-85 -376 -214 -505q-130 -130 -281 -130z" />
    <glyph glyph-name="circumflex" unicode="&#x2c6;" horiz-adv-x="776" 
d="M369 1409h39l278 -403h-31l-264 200h-4l-268 -200h-29z" />
    <glyph glyph-name="caron" unicode="&#x2c7;" horiz-adv-x="776" 
d="M90 1409h29l268 -203h4l266 203h29l-278 -403h-39z" />
    <glyph glyph-name="breve" unicode="&#x2d8;" horiz-adv-x="804" 
d="M406 1010q-66 0 -114 28q-124 74 -179 346h37q78 -223 256 -225q86 -1 152 57t106 168h32q-47 -270 -176 -346q-48 -28 -114 -28z" />
    <glyph glyph-name="dotaccent" unicode="&#x2d9;" horiz-adv-x="817" 
d="M270 1212q0 50 37 96t104 46t101 -45t33 -97q1 -52 -33 -95q-34 -44 -101 -44t-104 44t-37 95z" />
    <glyph glyph-name="ring" unicode="&#x2da;" horiz-adv-x="776" 
d="M389 1030q-88 0 -138 56t-50 134t50 135q50 56 138 56t138 -56q51 -56 51 -134q0 -79 -50 -135t-139 -56zM389 1063q72 0 112 46q40 47 40 111t-40 111t-112 47t-113 -47q-40 -47 -40 -111t40 -111q40 -46 113 -46z" />
    <glyph glyph-name="ogonek" unicode="&#x2db;" horiz-adv-x="813" 
d="M485 -393q75 0 156 61l10 -20q-74 -94 -173 -128q-38 -14 -81 -14q-92 0 -154 57q-63 57 -64 132t29 125q82 139 298 221h61q-129 -59 -189 -134t-60 -146t46 -113t121 -41z" />
    <glyph glyph-name="tilde" unicode="&#x2dc;" horiz-adv-x="804" 
d="M566 1034q-79 0 -203 66t-165 67q-42 0 -61 -20t-33 -94h-36q14 145 53 202q81 118 321 -9q124 -66 163 -66q38 0 62 19t35 95h33q-12 -144 -51 -202t-118 -58z" />
    <glyph glyph-name="hungarumlaut" unicode="&#x2dd;" horiz-adv-x="860" 
d="M338 1399h233l-399 -379h-37zM698 1399h234l-402 -379h-34z" />
    <glyph glyph-name="pi" unicode="&#x3c0;" horiz-adv-x="1480" 
d="M741 -43q-141 0 -266 53q-125 52 -218 146q-198 199 -200 483q0 143 54 268q107 253 364 366q125 54 266 54t267 -54q126 -53 218 -147q93 -94 146 -219t53 -267t-53 -266q-108 -254 -364 -364q-126 -53 -267 -53zM741 -8q133 0 250 51t205 139t138 206t50 251t-50 252
t-138 208t-205 140t-250 51t-251 -51q-235 -102 -343 -348q-51 -119 -51 -252t51 -251q104 -241 343 -345q118 -51 251 -51zM784 1014q322 0 322 -208q0 -99 -89 -164t-235 -64q-29 0 -77 6v-279q0 -15 57 -18l59 -8l4 -29h-389l4 29l56 6q49 7 49 24v649q0 10 -10 14t-48 7
l-47 6l-4 29h348zM776 608q72 0 117 51t45 137t-43 137q-43 50 -131 52l-59 -2v-365q40 -10 71 -10z" />
    <glyph glyph-name="endash" unicode="&#x2013;" horiz-adv-x="901" 
d="M31 528h839l4 -86h-849z" />
    <glyph glyph-name="emdash" unicode="&#x2014;" horiz-adv-x="1861" 
d="M31 528h1802l6 -86h-1814z" />
    <glyph glyph-name="quoteleft" unicode="&#x2018;" horiz-adv-x="428" 
d="M236 768q-92 0 -144 60q-51 60 -51 154t85 194t230 165l25 -24q-180 -96 -180 -244q0 -90 91 -133q34 -16 62 -21t27 -10q0 -88 -81 -128q-27 -13 -64 -13z" />
    <glyph glyph-name="quoteright" unicode="&#x2019;" horiz-adv-x="428" 
d="M229 1022q0 62 -27 94q-46 50 -124 70q-29 6 -29 8q0 88 81 128q28 13 65 13q90 0 142 -60q52 -59 52 -155t-85 -193t-230 -163l-25 22q88 46 134 110t46 126z" />
    <glyph glyph-name="quotesinglbase" unicode="&#x201a;" horiz-adv-x="428" 
d="M229 -29q0 91 -89 133q-34 16 -62 22t-29 9q0 88 81 128q28 13 65 13q90 0 142 -60t52 -156t-85 -192q-85 -97 -230 -163l-25 23q180 96 180 243z" />
    <glyph glyph-name="quotedblleft" unicode="&#x201c;" horiz-adv-x="829" 
d="M641 768q-90 0 -141 60t-51 154t83 195q84 99 230 164l24 -24q-86 -47 -134 -111t-48 -126q0 -96 91 -140q34 -16 63 -21t28 -10q0 -88 -80 -128q-28 -13 -65 -13zM236 768q-92 0 -144 60q-51 60 -51 154t85 194t230 165l25 -24q-180 -96 -180 -244q0 -90 91 -133
q34 -16 62 -21t27 -10q0 -88 -81 -128q-27 -13 -64 -13z" />
    <glyph glyph-name="quotedblright" unicode="&#x201d;" horiz-adv-x="829" 
d="M229 1022q0 62 -27 94q-46 50 -124 70q-29 6 -29 8q0 88 81 128q28 13 65 13q90 0 142 -60q52 -59 52 -155t-85 -193t-230 -163l-25 22q88 46 134 110t46 126zM635 1022q0 97 -89 141q-34 17 -63 23t-28 8q0 85 82 128q27 13 63 13q90 0 142 -60q52 -59 52 -155t-84 -193
q-85 -97 -231 -163l-24 22q88 46 134 110t46 126z" />
    <glyph glyph-name="quotedblbase" unicode="&#x201e;" horiz-adv-x="825" 
d="M229 -29q0 91 -89 133q-34 16 -62 22t-29 9q0 88 81 128q28 13 65 13q90 0 142 -60t52 -156t-85 -192q-85 -97 -230 -163l-25 23q180 96 180 243zM635 -29q0 90 -89 133q-34 16 -63 22t-28 9q0 85 82 128q27 13 63 13q90 0 142 -60t52 -156t-84 -192q-85 -97 -231 -163
l-24 23q180 96 180 243z" />
    <glyph glyph-name="dagger" unicode="&#x2020;" horiz-adv-x="909" 
d="M434 831h-401l-2 43h403v406h43v-406h406l-4 -43h-402v-1150h-43v1150z" />
    <glyph glyph-name="daggerdbl" unicode="&#x2021;" horiz-adv-x="909" 
d="M434 63h-403l2 43h401v746h-401l-2 43h403v385h43v-385h406l-4 -43h-402v-746h402l4 -43h-406v-382h-43v382z" />
    <glyph glyph-name="bullet" unicode="&#x2022;" horiz-adv-x="888" 
d="M590 122q-104 -42 -147 -42t-144 41t-123 66q-61 67 -113 226q-12 41 -12 63q0 81 82 225q19 37 35 53t69 44t121 49t90 21q70 0 225 -78q38 -19 52 -36q28 -25 71 -130t43 -139q1 -33 -19 -96t-49 -121q-29 -57 -53 -81q-24 -23 -128 -65z" />
    <glyph glyph-name="ellipsis" unicode="&#x2026;" horiz-adv-x="1347" 
d="M1131 -27q-60 0 -102 43q-42 44 -42 102t42 100t102 42q59 0 101 -43t42 -100t-41 -101q-42 -43 -102 -43zM220 -27q-60 0 -102 43q-42 44 -42 102t42 100t102 42t102 -43t40 -100q0 -57 -40 -101q-42 -43 -102 -43zM819 117q0 -57 -42 -101t-102 -43q-60 0 -103 43
q-42 44 -42 102t42 100t102 42t103 -43q42 -43 42 -100z" />
    <glyph glyph-name="perthousand" unicode="&#x2030;" horiz-adv-x="1863" 
d="M913 6q109 0 171 70t62 172t-63 173q-64 71 -170 72q-105 1 -168 -71t-63 -174t61 -172t170 -70zM1561 6q109 0 171 70t62 173t-64 173t-169 71t-170 -71q-64 -72 -64 -174q1 -102 63 -172t171 -70zM470 857q65 69 66 172t-63 174t-171 72q-106 1 -169 -71t-63 -174
t62 -170q65 -72 169 -72t169 69zM1194 248q0 -120 -76 -201q-76 -82 -202 -82t-204 83q-77 83 -77 201q0 119 77 202q77 84 201 84t203 -84q78 -83 78 -203zM1841 248q0 -120 -76 -201q-76 -82 -203 -82t-205 83q-77 83 -77 201q0 119 77 202q77 84 202 84t204 -84
q78 -83 78 -203zM1044 1311h50l-924 -1340h-51zM302 748q-127 0 -203 82t-76 201q0 120 77 203t200 83q124 0 203 -82t80 -202t-76 -202q-78 -83 -205 -83z" />
    <glyph glyph-name="guilsinglleft" unicode="&#x2039;" horiz-adv-x="575" 
d="M37 426v57l481 346l10 -16l-260 -360l262 -357l-12 -16z" />
    <glyph glyph-name="guilsinglright" unicode="&#x203a;" horiz-adv-x="577" 
d="M49 96l264 357l-264 360l12 16l482 -346v-57l-482 -346z" />
    <glyph glyph-name="fraction" unicode="&#x2044;" horiz-adv-x="980" 
d="M940 1311h59l-958 -1340h-59z" />
    <glyph glyph-name="Euro" unicode="&#x20ac;" horiz-adv-x="1058" 
d="M129 618q0 59 10 105h-129l6 43h129q49 239 211 382q161 142 363 142q141 0 223 -47t82 -133q0 -47 -37 -83t-85 -36q-89 0 -121 77t12 144q-15 10 -35 20t-73 11q-53 0 -107 -36q-113 -76 -161 -249q-26 -88 -36 -192h393l6 -43h-403v-68q0 -86 10 -151h387l6 -43h-383
q37 -160 128 -248t223 -88q183 0 284 160l23 -15q-143 -297 -422 -297q-183 0 -318 129t-174 359h-131l6 43h119q-6 55 -6 114z" />
    <glyph glyph-name="trademark" unicode="&#x2122;" horiz-adv-x="1165" 
d="M211 868v387h-10q-49 1 -77 -35t-46 -87l-8 -19h-27l12 166h428l6 -166h-26q-23 71 -49 107q-27 35 -80 34h-15v-389q0 -6 29 -12l33 -4l2 -25h-236v25l41 4q23 2 23 14zM901 825v25l39 4q14 4 18 11t3 32l-7 338h-6l-139 -401h-49l-119 389h-8l-6 -283q-2 -58 5 -72
t36 -16l26 -2l2 -25h-170l4 25l25 2q27 2 33 15t8 77l8 281q-10 25 -35 26l-32 6l-2 23h194l90 -317h8l105 317h196l-2 -23l-36 -6q-27 -2 -27 -14l8 -342q0 -25 6 -31t25 -10l31 -4l4 -25h-236z" />
    <glyph glyph-name="Omega" unicode="&#x2126;" horiz-adv-x="1251" 
d="M1196 1374q100 0 146 -37t46 -87t-33 -83q-34 -33 -81 -32q-111 0 -146 159v9q0 4 -2 6l-43 8q-55 -25 -77 -93t-21 -210v-125h262l-28 -109h-234v-712q0 -14 16 -22t80 -11l74 -2l6 -33h-530l6 33l39 2q47 4 61 10t15 25v714h-344v-714q0 -14 13 -22t66 -11l64 -4l6 -33
h-512l6 33l45 4q41 4 59 10q17 6 17 25v708l-162 6l37 103l123 -2l4 59q19 202 158 307q138 105 315 105q88 0 139 -37t52 -96q0 -11 -4 -31q66 86 164 133t198 47zM714 1112q-52 0 -92 48t-51 134l-47 11q-59 -23 -88 -92t-28 -214v-110l340 -2l6 92q6 84 45 160
q-33 -27 -85 -27z" />
    <glyph glyph-name="Delta" unicode="&#x2206;" horiz-adv-x="1030" 
d="M31 197q0 67 43 107t102 40t99 -36t40 -82q0 -102 -75 -138q16 -28 57 -50t90 -22q100 0 144 68t44 235v883q0 29 -96 35l-98 10l-6 33h649l-6 -33l-94 -12q-82 -7 -82 -37v-858q0 -136 -141 -251q-141 -116 -319 -116q-177 0 -264 66t-87 158z" />
    <glyph glyph-name="radical" unicode="&#x221a;" horiz-adv-x="1718" 
d="M985 993v-104h342v250q-59 10 -95 57t-44 111l-72 18q-66 -27 -98 -103t-33 -229zM1561 68q0 -14 16 -20t80 -13l29 -2l6 -33h-484l6 33l37 2q47 4 62 10q14 6 14 25v714h-342v-716q0 -14 14 -22t72 -11l59 -2l5 -33h-504l6 33l39 2q47 4 61 10t15 25v714h-344v-714
q0 -14 13 -22t66 -11l64 -4l6 -33h-512l6 33l45 4q41 4 59 10q17 6 17 25v708l-162 6l37 103l123 -2l4 59q19 202 158 307q138 105 315 105q88 0 139 -37t52 -96q0 -27 -9 -43q70 98 186 151t229 53t173 -47l144 52v-1323zM721 1112q-125 0 -150 182l-47 11q-59 -23 -88 -92
t-28 -214v-110l340 -2l6 84q7 95 55 180q-35 -39 -88 -39z" />
    <glyph glyph-name="approxequal" unicode="&#x2248;" horiz-adv-x="1724" 
d="M1250 1386q112 0 173 -42t61 -100q0 -60 -36 -96t-96 -36t-102 55t-54 140l-72 18q-68 -27 -104 -101t-35 -225v-110h416l160 26v-847q0 -16 18 -22t78 -11l31 -2l6 -33h-486l6 35l39 2q43 4 59 10q15 6 15 25v712h-342v-716q0 -14 14 -22t72 -11l59 -2l5 -33h-504l6 33
l39 2q47 4 61 10t15 25v714h-344v-714q0 -14 13 -22t66 -11l64 -4l6 -33h-512l6 33l45 4q41 4 59 10q17 6 17 25v708l-162 6l37 103l123 -2l4 59q19 202 158 307q138 105 315 105q88 0 139 -37t52 -96q-1 -24 -11 -49q72 102 191 156q120 54 232 54zM718 1112q-58 0 -97 54
t-50 128l-47 11q-59 -23 -88 -92t-28 -214v-110l340 -2l6 84q10 102 59 184q-37 -43 -95 -43z" />
    <glyph glyph-name="apple" unicode="&#xf8ff;" horiz-adv-x="1552" 
d="M602 236l-383 -140l139 383l-370 176l370 170l-139 387l383 -141l176 371l170 -371l387 141l-141 -387l369 -168l-369 -174l141 -387l-387 142l-174 -371zM905 346l361 -180l-179 362l377 129l-377 125l179 361l-361 -178l-127 378l-131 -378l-358 178l178 -361
l-381 -127l381 -131l-178 -358l358 180l127 -381z" />
    <glyph glyph-name="fi" unicode="&#xfb01;" horiz-adv-x="1146" 
d="M172 70v708l-162 8l37 101h123l6 84q11 185 164 301t346 114q98 0 159 -41q60 -41 60 -101t-35 -96q-36 -36 -96 -36t-102 55t-54 140l-73 18q-66 -27 -102 -101t-35 -225v-112h415l160 28v-847q0 -16 18 -22t78 -11l29 -2l6 -33h-485l4 33l41 2q47 4 61 10t15 25v714
h-342v-716q0 -14 14 -22t70 -11l57 -2l6 -33h-510l6 33l41 2q43 4 62 10q18 6 18 25z" />
    <glyph glyph-name="fl" unicode="&#xfb02;" horiz-adv-x="1138" 
d="M408 887h342v252q-61 8 -100 55q-38 47 -44 113l-69 18q-66 -27 -98 -101t-31 -225v-112zM983 68q0 -14 16 -20t80 -13l29 -2l6 -33h-485l6 33l33 2q43 4 62 10t20 25v714h-342v-716q0 -14 14 -22t70 -11l57 -2l6 -33h-510l6 33l41 2q43 4 62 10q18 6 18 25v708l-162 6
l37 103h123l6 84q11 187 161 302q149 115 337 113q104 0 162 -47l147 52v-1323z" />
    </font>
</defs>
</svg>
