<?xml version="1.0" standalone="no"?>
<!DOCTYPE svg PUBLIC "-//W3C//DTD SVG 1.1//EN" "http://www.w3.org/Graphics/SVG/1.1/DTD/svg11.dtd" >
<svg xmlns="http://www.w3.org/2000/svg">
<metadata>
Created by FontPrep 20130207 at Thu Nov 17 19:10:43 2016
 By Bradley Gorman
Copyright  2005, Joshua Darden &#38; Phil's Fonts, Inc. All rights reserved. Published by Garagefonts USA 301-260-2285 www.garagefonts.com
</metadata>
<defs>
<font id="5c5dd0a5c46bb01e0c5a037e78457227" horiz-adv-x='1024' >
  <font-face 
    font-family="FreightDispMediumItalic"
    font-weight="400"
    font-style="italic"
    font-stretch="normal"
    units-per-em="2048"
    panose-1="2 0 6 3 8 0 0 9 0 4"
    ascent="1536"
    descent="-512"
    x-height="909"
    cap-height="1280"
    bbox="-348 -541 2120 1743"
    underline-thickness="40"
    underline-position="-299"
    slope="-12"
    unicode-range="U+0020-FB02"
  />
<missing-glyph horiz-adv-x="1024" 
 />
    <glyph glyph-name=".notdef" horiz-adv-x="1024" 
 />
    <glyph glyph-name=".null" horiz-adv-x="0" 
 />
    <glyph glyph-name=".null" horiz-adv-x="0" 
 />
    <glyph glyph-name="nonmarkingreturn" horiz-adv-x="681" 
 />
    <glyph glyph-name="space" unicode=" " horiz-adv-x="284" 
 />
    <glyph glyph-name="exclam" unicode="!" horiz-adv-x="532" 
d="M205 -29q-53 0 -89 37t-36 84t35 82t88 35t87 -35t34 -82t-33 -84t-86 -37zM426 1309q96 -5 93 -70q-1 -18 -7 -39l-248 -813q-2 -8 -13 -7t-9 9l65 832q5 37 25 65t88 23h6z" />
    <glyph glyph-name="quotedbl" unicode="&#x22;" horiz-adv-x="684" 
d="M369 1323h4l125 -55l-379 -443h-39zM702 1323h3l124 -55l-376 -443h-39z" />
    <glyph glyph-name="numbersign" unicode="#" horiz-adv-x="1056" 
d="M6 387v35h289l113 432h-279v35h289l106 405h41l-108 -405h338l108 405h39l-106 -405h276v-35h-287l-112 -432h276v-35h-287l-104 -397h-39l105 397h-338l-107 -397h-39l105 397h-279zM672 422l114 432h-337l-115 -432h338z" />
    <glyph glyph-name="dollar" unicode="$" horiz-adv-x="1021" 
d="M411 14q131 0 217 83q87 83 87 204q-1 86 -59 152t-158 125l-224 -539q66 -25 137 -25zM340 1042q0 -86 55 -147t146 -115l188 455q-64 29 -128 30q-172 3 -241 -131q-20 -42 -20 -92zM582 1307q94 0 170 -19l92 225h41q-79 -199 -97 -235q74 -20 111 -35l86 21l-63 -346
l-31 2l-64 254q-26 23 -65 45l-12 -35q-14 -33 -36 -84q-22 -50 -46 -110t-45 -110q-20 -50 -35 -85l-15 -35l13 -6q137 -76 223 -164t86 -215q0 -162 -135 -282t-344 -120q-86 0 -164 13l-133 -324h-41l137 332q-141 31 -225 78l47 317h33l36 -168q38 -108 134 -166l10 25
q10 22 25 60t36 86q20 48 55 134t99 236h-2q-150 88 -200 145q-95 107 -93 220q0 137 118 241q117 105 294 105z" />
    <glyph glyph-name="percent" unicode="%" horiz-adv-x="1245" 
d="M1247 1311h53l-1222 -1340h-55zM631 244q0 121 82 207t203 86q122 0 201 -78q79 -77 79 -201t-82 -208t-207 -83q-125 0 -201 78q-75 78 -75 199zM678 244q0 -104 62 -170t170 -66q107 0 173 74t66 177q0 104 -64 170t-168 66q-103 1 -171 -73t-68 -178zM211 821
q-76 76 -77 196t80 210q82 88 205 88q124 1 202 -77q79 -78 79 -201t-79 -204q-86 -88 -210 -88t-200 76zM411 786q105 0 173 72q67 72 67 174q0 103 -62 172q-62 68 -167 69t-173 -72q-67 -73 -68 -178t62 -171t168 -66z" />
    <glyph glyph-name="ampersand" unicode="&#x26;" horiz-adv-x="1474" 
d="M813 772q1 -124 -161 -125q-80 1 -158 61t-113 152q-178 -75 -178 -276q0 -230 176 -354t506 -124q232 0 377 109t145 281q0 97 -60 168t-141 71t-157 -59t-75 -113q1 -53 45 -83t116 -34q-19 8 -29 32t-4 48q15 62 80 64q38 0 62 -24t24 -62t-30 -69q-30 -32 -81 -32
q-103 1 -171 69t-68 158t41 135q71 77 245 133q174 55 241 116q42 39 42 101t-43 98t-119 40q19 -9 27 -35q20 -58 -22 -100q-19 -20 -58 -20t-64 26q-24 26 -24 67q0 42 39 75q74 62 181 11q93 -47 128 -147q18 -51 18 -103q0 -100 -60 -155t-222 -108q82 -30 128 -100
t46 -173t-58 -197q-119 -195 -391 -281q-133 -42 -281 -42t-270 38q-246 76 -349 263q-50 92 -50 182q0 236 194 373q60 43 132 68q-31 107 14 209q55 124 179 180q60 27 124 26q125 -2 200 -107q74 -105 54 -242l-33 6q9 92 -44 162q-52 71 -137 71t-139 -66
q-55 -66 -57 -171v-19q0 -8 2 -16h33q111 0 179 -48t69 -108zM721 737q15 1 29 13t14 28q0 47 -57 82t-142 35h-24q20 -68 70 -113t110 -45z" />
    <glyph glyph-name="quotesingle" unicode="'" horiz-adv-x="354" 
d="M369 1323h4l125 -55l-379 -443h-39z" />
    <glyph glyph-name="parenleft" unicode="(" horiz-adv-x="696" 
d="M516 -541q-76 49 -157 139q-175 195 -233 500q-30 158 -1 341t103 331q143 285 375 447q105 74 194 110l24 -37q-209 -90 -383 -292q-216 -253 -263 -565q-48 -312 85 -595q57 -121 134 -209t151 -135z" />
    <glyph glyph-name="parenright" unicode=")" horiz-adv-x="696" 
d="M-141 -504q206 89 381 290q213 250 262 565t-84 595q-57 121 -133 209t-150 137l27 35q76 -49 156 -139t142 -216q146 -300 95 -627q-52 -327 -277 -589q-176 -205 -397 -297z" />
    <glyph glyph-name="asterisk" unicode="*" horiz-adv-x="649" 
d="M397 975q0 8 -4 12l-200 80l-43 127q6 12 10 16l137 -20l104 -195q-1 -4 9 -2t10 6l18 226l105 71q2 2 8 -1t8 -3l27 -129l-156 -168q-4 -4 2 -11t10 -7l217 61l103 -84v-16l-115 -66l-205 95q-4 2 -10 -4t-4 -11l125 -190l-45 -123l-14 -4l-99 92l23 221q0 4 -8 7t-11 1
l-133 -172h-135q-6 6 -6 17l57 123l211 43q4 0 4 8z" />
    <glyph glyph-name="plus" unicode="+" horiz-adv-x="915" 
d="M492 911v-403h395l6 -51h-401v-410h-52l-2 410h-401l6 51h395l2 403h52z" />
    <glyph glyph-name="comma" unicode="," horiz-adv-x="397" 
d="M143 -1q0 37 -15 61q-29 48 -87 52q-25 1 -43 -12q-12 47 12 80q42 58 110 59t112 -45t44 -110t-30 -116q-62 -106 -189 -173q-61 -33 -123 -51l-16 16q86 32 155 99q70 68 70 140z" />
    <glyph glyph-name="hyphen" unicode="-" horiz-adv-x="602" 
d="M68 524h499l-14 -90h-506z" />
    <glyph glyph-name="period" unicode="." horiz-adv-x="428" 
d="M153 -27q-54 0 -92 38q-37 38 -37 88t36 87t90 37t91 -37q35 -37 35 -87t-34 -88t-89 -38z" />
    <glyph glyph-name="slash" unicode="/" horiz-adv-x="528" 
d="M461 1313h43l-432 -1796h-45z" />
    <glyph glyph-name="zero" unicode="0" horiz-adv-x="1060" 
d="M491 -27q-98 0 -174 33q-156 68 -213 233q-28 83 -28 191t41 212q84 212 271 302q94 45 192 45q191 0 304 -126t111 -320q0 -119 -41 -224q-84 -214 -272 -302q-94 -44 -191 -44zM252 291q0 -139 56 -212t146 -73q159 0 263 192t102 453q0 143 -60 223q-59 80 -147 80
q-159 0 -260 -194q-100 -194 -100 -469z" />
    <glyph glyph-name="one" unicode="1" horiz-adv-x="716" 
d="M39 31l96 8q45 2 63 10q17 8 21 27l150 798l-209 33l8 27l387 45l-172 -907q-4 -12 12 -20t76 -13l86 -8l4 -31h-528z" />
    <glyph glyph-name="two" unicode="2" horiz-adv-x="913" 
d="M397 874q-135 0 -254 -139l-12 23q74 104 173 166t214 63q115 0 192 -67q78 -67 78 -160q0 -92 -42 -159q-75 -120 -316 -277q-115 -76 -262 -174v-7h356q94 0 145 36q82 59 146 169l23 37h32l-155 -385h-744v49q390 275 482 361t124 141t31 115q0 104 -59 156t-152 52z
" />
    <glyph glyph-name="three" unicode="3" horiz-adv-x="829" 
d="M231 264q-63 0 -122 -16l-11 24q104 47 190 89q86 43 146 89q127 97 127 224q0 86 -54 144q-55 58 -141 58t-158 -46t-120 -111l-14 22q70 111 168 173q109 73 229 73q119 0 198 -72t79 -186q0 -225 -383 -362v-5q4 2 12 3h10q145 -12 230 -107t83 -217q0 -88 -43 -169
q-86 -162 -277 -244q-92 -38 -168 -38q-149 0 -228 33q-97 41 -97 121q0 39 29 70q29 30 66 30q36 0 62 -14q54 -30 65 -96q4 -33 -15 -68q59 -33 124 -34q127 -2 220 104q92 106 91 238q-1 134 -77 212t-221 78z" />
    <glyph glyph-name="four" unicode="4" horiz-adv-x="974" 
d="M-57 39v29l825 911h53l-153 -819h227l-35 -121h-217l-78 -416h-157l75 416h-540zM508 160l113 585h-7l-530 -585h424z" />
    <glyph glyph-name="five" unicode="5" horiz-adv-x="823" 
d="M494 -296q-166 -134 -374 -113q-106 11 -170 51t-61 112q4 41 36 67q32 27 70 23q114 -10 126 -192q93 -40 183 -6q52 20 95 61q96 91 107 239q11 147 -109 263t-321 168l211 581h526l-53 -172h-490l-94 -264q242 -59 372 -190t118 -309q-6 -91 -52 -175t-120 -144z" />
    <glyph glyph-name="six" unicode="6" horiz-adv-x="1009" 
d="M618 807q154 0 238 -88t84 -248q0 -207 -144 -351t-327 -145q-182 0 -289 131q-106 131 -105 303q2 344 284 601q136 122 333 202t443 86l2 -28q-446 -51 -706 -381q-79 -100 -130 -213l10 -2q153 133 307 133zM466 10q60 0 112 33q112 70 158 225q24 78 24 154
q0 216 -133 292q-43 24 -106 24q-110 -1 -224 -111q-53 -137 -53 -241t11 -166t38 -109t70 -74t103 -27z" />
    <glyph glyph-name="seven" unicode="7" horiz-adv-x="880" 
d="M535 797q-211 1 -262 -15q-53 -16 -77 -42t-46 -72l-29 -52h-33l107 342h743v-34l-735 -1301h-125l737 1165l-2 9h-278z" />
    <glyph glyph-name="eight" unicode="8" horiz-adv-x="985" 
d="M170 62q-125 96 -125 236q0 139 102 230t271 117v4q-197 146 -200 299t111 259t275 106t268 -90t107 -219q0 -130 -88 -207t-238 -107v-4q113 -84 157 -139q83 -104 84 -200q2 -175 -123 -278q-125 -102 -300 -102t-301 95zM472 2q120 0 191 75q70 75 70 179
q0 148 -187 292q-52 40 -102 79q-237 -105 -235 -344q0 -192 150 -258q49 -23 113 -23zM817 1020q0 173 -116 237q-40 23 -94 23q-106 0 -166 -74t-60 -174q0 -135 156 -256l90 -69q190 97 190 313z" />
    <glyph glyph-name="nine" unicode="9" horiz-adv-x="1009" 
d="M408 162q-154 0 -238 89t-84 249q0 205 144 350t327 145t289 -132t105 -303q-1 -172 -75 -324t-209 -275q-136 -123 -333 -203t-443 -86l-2 29q446 51 706 381q79 100 130 213h-10q-153 -133 -307 -133zM782 586q0 102 -11 164q-22 127 -107 182q-42 26 -102 26
q-117 -1 -207 -121q-89 -120 -89 -302q0 -131 63 -217q63 -87 170 -87t230 113q53 140 53 242z" />
    <glyph glyph-name="colon" unicode=":" horiz-adv-x="425" 
d="M153 -27q-54 0 -92 38q-37 38 -37 87t36 86t90 37t91 -37q35 -37 35 -86t-34 -87t-89 -38zM269 598q-54 0 -91 39t-37 87t37 85t91 37t89 -37t35 -85t-35 -87t-89 -39z" />
    <glyph glyph-name="semicolon" unicode=";" horiz-adv-x="397" 
d="M143 -1q0 37 -15 61q-28 46 -87 50q-25 1 -43 -10q-12 46 12 78q44 58 110 59q68 1 112 -45t44 -109t-30 -115q-59 -101 -189 -172q-61 -34 -123 -52l-16 18q91 34 139 82t67 84t19 71zM259 598q-54 0 -92 38t-38 87t37 86t91 37t90 -37t36 -86t-35 -87t-89 -38z" />
    <glyph glyph-name="less" unicode="&#x3c;" horiz-adv-x="897" 
d="M25 467v31l817 397l16 -45l-756 -365v-4l756 -368l-16 -45z" />
    <glyph glyph-name="equal" unicode="=" horiz-adv-x="909" 
d="M53 326h803l6 -47h-815zM47 684h815l-6 -47h-803z" />
    <glyph glyph-name="greater" unicode="&#x3e;" horiz-adv-x="897" 
d="M41 113l754 368v4l-754 365l14 45l817 -397v-31l-817 -399z" />
    <glyph glyph-name="question" unicode="?" horiz-adv-x="657" 
d="M229 -29q-53 0 -88 37t-35 84t34 82t87 35t87 -35t34 -82t-33 -84t-86 -37zM162 598q0 90 66 136q67 46 197 85t163 58q59 35 59 99t-85 120q-85 55 -247 55q-56 0 -96 -8q-8 20 -8 60q0 104 133 105q156 2 252 -101t95 -232t-60 -198t-178 -105t-152 -57
q-59 -37 -59 -97t77 -139l-28 -4q-51 47 -90 108t-39 115z" />
    <glyph glyph-name="at" unicode="@" horiz-adv-x="1609" 
d="M895 274q0 76 43 191h-10q-102 -156 -186 -253t-160 -97q-77 0 -130 52q-127 124 38 413q89 152 192 245q132 123 238 123q52 0 82 -54t36 -124h9l69 207l141 -6l-127 -326l-75 -272q-63 -191 101 -191q155 0 263 136q109 136 113 335q4 133 -44 247t-135 197
q-183 175 -468 179q-154 2 -291 -58q-278 -122 -406 -412q-61 -140 -64 -296t48 -284q103 -259 369 -363q129 -51 249 -51q202 0 347 79t225 205l20 -28q-129 -200 -384 -270q-83 -22 -210 -23q-127 0 -264 54q-280 110 -390 383q-54 136 -51 300t68 311q132 299 429 428
q145 63 301 61q308 -3 503 -189q92 -87 142 -208t48 -251q-3 -130 -44 -229q-84 -202 -255 -288q-83 -41 -158 -41q-129 0 -178 50t-44 118zM649 219q73 0 222 224q70 106 102 180q31 73 31 91t-16 44q-30 51 -76 71q-46 21 -86 21q-105 0 -201 -245q-27 -67 -43 -134
q-38 -161 10 -219q28 -32 57 -33z" />
    <glyph glyph-name="A" unicode="A" horiz-adv-x="1243" 
d="M735 571l-51 519h-8l-266 -519h325zM182 102q0 -31 28 -44t89 -19l70 -8l4 -31h-457l6 31l45 10q41 6 70 18q50 21 132 157q42 71 110 192l385 737l-9 74q73 16 132 63q19 14 28 27h27l125 -1069q17 -126 35 -153q18 -26 38 -34t52 -12l73 -10l2 -31h-563l6 31l78 8
q68 4 81 45t3 123l-33 319h-352l-106 -204q-45 -82 -72 -136t-27 -84z" />
    <glyph glyph-name="B" unicode="B" horiz-adv-x="1187" 
d="M535 676h-66l-117 -602l119 -35h90q148 4 240 107q80 93 81 234q0 140 -94 218t-253 78zM592 713h22q156 0 238 86t83 202t-71 178t-213 62h-76l-98 -520q40 -8 115 -8zM711 1280q224 0 341 -91q89 -71 90 -199t-109 -206t-304 -94l4 -6q181 -29 271 -118t90 -201
q0 -177 -158 -271t-447 -94h-512l7 31l88 12q84 11 90 37l215 1124q2 12 -13 18t-79 17l-68 10l-2 31h496z" />
    <glyph glyph-name="C" unicode="C" horiz-adv-x="1357" 
d="M870 1270q-118 0 -224 -64t-181 -168q-152 -215 -152 -522q0 -231 117 -369q117 -137 324 -137q121 0 213 52t172 147l78 139l36 -2l-106 -332l-80 2q-150 -47 -311 -47q-307 0 -479 162q-173 162 -173 420q0 152 58 289q57 137 159 241q222 229 564 229q183 0 327 -75
l144 33l-68 -383l-33 2l-63 284q-43 37 -123 68q-81 31 -199 31z" />
    <glyph glyph-name="D" unicode="D" horiz-adv-x="1359" 
d="M1339 732q0 -132 -55 -267q-115 -281 -421 -404q-155 -61 -353 -61h-533l7 31l88 12q84 11 90 37l215 1124q2 12 -13 18t-79 17l-68 10l-2 31l490 2q162 2 280 -39q354 -121 354 -511zM1128 735q0 364 -241 470q-84 38 -203 38h-109l-221 -1163l135 -45q304 4 475 213
q81 98 122 230q42 132 42 257z" />
    <glyph glyph-name="E" unicode="E" horiz-adv-x="1204" 
d="M692 1243h-117l-108 -567l80 2q151 4 197 23t68 45t40 67l31 61l35 -2l-97 -436l-35 2l7 60q12 87 -45 111t-218 28l-69 2l-113 -594l191 -8q305 0 436 178q39 53 74 113l38 75l39 -2l-131 -401h-1018l7 31l82 12q94 12 96 37l215 1124q2 12 -13 18t-79 17l-66 10l-4 31
h930l2 -393h-39l-12 78q-20 69 -42 119q-47 108 -172 141q-71 18 -190 18z" />
    <glyph glyph-name="F" unicode="F" horiz-adv-x="1150" 
d="M696 1243h-121l-110 -579l86 2q152 4 198 23q45 19 67 45t40 65l31 61l33 -2l-95 -434l-32 2l4 59q8 88 -45 111t-217 29l-76 2l-107 -551q-2 -14 14 -22t78 -13l101 -10l4 -31h-572l7 31l94 12q77 7 84 37l215 1124q0 15 -10 21t-76 14l-72 10l-4 31h948l-8 -393h-39
l-14 78q-20 69 -42 119q-47 107 -174 141q-71 18 -190 18z" />
    <glyph glyph-name="G" unicode="G" horiz-adv-x="1413" 
d="M1253 74q-287 -105 -577 -105q-106 0 -220 43t-192 120q-160 158 -160 415q0 147 55 286q111 285 395 413q142 64 326 64t332 -77l144 33l-68 -387h-31l-65 290q-108 99 -318 99q-118 0 -224 -64t-182 -168q-155 -216 -155 -520q0 -228 115 -368t315 -140q119 0 205 45
l86 428q2 15 -16 23t-84 14l-86 10l-4 31h555l-8 -31l-80 -12q-90 -11 -92 -37l-76 -387l110 4v-22z" />
    <glyph glyph-name="H" unicode="H" horiz-adv-x="1480" 
d="M-14 31l86 12q82 10 92 37l213 1124q4 11 -12 19q-23 9 -80 16l-66 10l-2 31h541l-8 -31l-91 -12q-84 -11 -90 -37l-100 -528h625l102 532q4 14 -12 20t-80 15l-72 10l-2 31h541l-8 -31l-84 -12q-86 -11 -90 -37l-215 -1124q-4 -14 12 -20t80 -15l65 -10l2 -31h-540l6 31
l92 12q83 7 90 37l104 553h-626l-105 -557q-4 -13 12 -20t80 -15l72 -10l2 -31h-540z" />
    <glyph glyph-name="I" unicode="I" horiz-adv-x="704" 
d="M-6 31l100 12q85 7 90 37l215 1124q2 12 -13 20t-79 15l-78 10l-4 31h559l-6 -31l-98 -12q-86 -11 -90 -37l-215 -1124q-2 -14 13 -20t79 -15l78 -10l4 -31h-561z" />
    <glyph glyph-name="J" unicode="J" horiz-adv-x="704" 
d="M-32 -248q-79 0 -127 36t-48 87t33 85t81 34q90 0 111 -72q23 -70 -30 -131q74 -10 136 77t97 290l207 1046q2 12 -13 20t-79 15l-84 10l-4 31h565l-8 -31l-96 -12q-85 -11 -91 -37l-212 -1075q-10 -67 -52 -135t-103 -120q-60 -52 -132 -85t-151 -33z" />
    <glyph glyph-name="K" unicode="K" horiz-adv-x="1355" 
d="M952 1280h508l-6 -29l-35 -4q-95 -8 -194 -80q-98 -71 -307 -252l-132 -114l273 -617q39 -92 59 -112t38 -26t46 -9l60 -6l4 -31h-531l6 31l62 8q57 4 65 43t-30 139l-199 459l-203 -170l-84 -434q-2 -14 14 -22t78 -13l86 -10l5 -31h-558l7 31l94 12q77 7 84 37
l215 1124q0 15 -10 21t-76 14l-72 10l-4 31h557l-8 -31l-107 -12q-78 -7 -90 -37l-118 -629l380 324q251 216 283 279q18 35 -6 48q-25 13 -78 19l-76 8v31z" />
    <glyph glyph-name="L" unicode="L" horiz-adv-x="1140" 
d="M-16 31l94 12q77 7 84 37l213 1124q4 12 -9 20t-77 15l-72 10l-4 31h575l-6 -31l-125 -12q-83 -7 -90 -37l-219 -1155l158 -8q217 0 318 78q52 39 91 95t80 132l39 86h41l-131 -428h-967z" />
    <glyph glyph-name="M" unicode="M" horiz-adv-x="1662" 
d="M-33 31l62 8q88 8 109 33q21 24 32 57q10 33 20 86l222 991q-23 29 -90 35l-74 8l-4 31h395l154 -1014l6 -2l579 1016h383l-8 -31l-90 -12q-86 -11 -90 -37l-195 -1020q-8 -83 8 -107t78 -32l68 -10l2 -31h-549l6 31l94 12q49 4 71 34t32 107l186 990h-6l-666 -1162h-55
l-180 1131q-6 20 -16 43l-213 -973q-17 -107 5 -136t113 -38l60 -8l4 -31h-459z" />
    <glyph glyph-name="N" unicode="N" horiz-adv-x="1378" 
d="M414 1114h-6l-179 -899q-16 -102 7 -133t106 -43l55 -8l2 -31h-438l6 31l58 8q74 9 99 35q47 48 58 145l180 887q-10 45 -35 83q-26 38 -98 50l-45 10l-4 31h369l524 -987h6l154 772q16 101 -1 127t-43 36t-67 13l-55 8l-4 31h440l-6 -31l-57 -8q-72 -4 -107 -40
t-53 -140l-213 -1073h-43z" />
    <glyph glyph-name="O" unicode="O" horiz-adv-x="1472" 
d="M738 -29q-287 0 -457 178t-170 437q0 139 50 269q103 267 367 392q130 61 280 61q286 1 457 -177t171 -439q0 -143 -53 -274q-107 -270 -369 -388q-128 -58 -276 -59zM1237 770q0 349 -235 461q-76 37 -186 37t-206 -72q-191 -143 -265 -434q-36 -138 -36 -254
q0 -225 109 -359q110 -135 312 -135q106 0 202 72q192 144 268 431q37 135 37 253z" />
    <glyph glyph-name="P" unicode="P" horiz-adv-x="1138" 
d="M752 1280q199 0 312 -87q114 -87 114 -222q0 -170 -144 -276q-214 -158 -577 -77l-105 -542q-2 -14 14 -22t78 -13l115 -10l2 -31h-602l6 31l107 12q83 7 90 37l215 1124q1 20 -29 27q-30 6 -63 8l-86 10l-4 31h557zM657 629q141 0 228 110q88 110 88 267q-1 109 -61 172
t-177 63h-160l-108 -577q35 -12 77 -24t113 -11z" />
    <glyph glyph-name="Q" unicode="Q" horiz-adv-x="1474" 
d="M808 1308q284 1 456 -178t172 -446t-179 -473t-456 -236q56 -179 182 -243t348 -62v-28q-54 -15 -173 -15q-247 0 -391 84t-200 281q-206 49 -332 214t-124 380q0 139 50 269q103 267 367 392q130 61 280 61zM1237 770q0 349 -235 461q-76 37 -186 37t-206 -72
q-191 -143 -265 -434q-36 -138 -36 -254q0 -225 109 -359q110 -135 312 -135q106 0 202 72q192 144 268 431q37 135 37 253z" />
    <glyph glyph-name="R" unicode="R" horiz-adv-x="1271" 
d="M758 1280q210 0 322 -86t112 -222t-117 -236q-117 -99 -293 -113l205 -422q47 -95 84 -126q37 -30 103 -38l34 -6l4 -31h-350l-272 625q-20 8 -62 18t-61 21l-115 -588q-4 -23 92 -35l93 -10l4 -31h-582l6 31l107 12q86 11 90 37l213 1124q10 29 -92 35l-86 10l-2 31h563
zM987 999q0 111 -69 177q-70 66 -203 65h-140l-100 -534q97 -43 187 -43q143 4 234 91t91 244z" />
    <glyph glyph-name="S" unicode="S" horiz-adv-x="1015" 
d="M637 1309q117 0 291 -64l86 21l-64 -348l-30 2l-64 256q-109 90 -227 90t-191 -63t-73 -158q0 -96 58 -159t197 -136q139 -74 220 -165q80 -91 80 -214q0 -158 -135 -278t-343 -120q-145 0 -255 33t-169 66l48 319h32l37 -170q35 -104 117 -155q82 -52 170 -52
q223 -1 301 175q23 52 22 112q0 96 -68 165q-69 69 -185 130q-146 86 -197 143q-51 58 -72 110q-20 52 -20 117q0 135 117 239q118 104 317 104z" />
    <glyph glyph-name="T" unicode="T" horiz-adv-x="1323" 
d="M285 31l118 12q79 7 91 37l219 1163h-78q-211 -5 -336 -161q-37 -46 -68 -97l-36 -84h-39l106 379h1112l-47 -379h-35l-10 78q-16 134 -85 197t-220 67h-70l-223 -1167q-2 -12 13 -20t79 -15l96 -10l5 -31h-601z" />
    <glyph glyph-name="U" unicode="U" horiz-adv-x="1406" 
d="M707 -31q-348 0 -459 193q-39 66 -39 152t20 169l138 721q0 30 -93 35l-86 10l-4 31h578l-8 -31l-107 -12q-78 -7 -90 -37l-133 -696q-16 -82 -16 -152q0 -307 358 -307q152 0 246 92t135 305l125 623q16 100 -1 126q-17 27 -43 35t-67 15l-55 8l-4 31h440l-8 -31l-55 -8
q-75 -9 -100 -35q-45 -47 -60 -145l-127 -633q-44 -225 -158 -342t-327 -117z" />
    <glyph glyph-name="V" unicode="V" horiz-adv-x="1263" 
d="M334 1044q-20 129 -33 153q-11 25 -31 33t-55 11l-72 8l-4 31h559l-6 -31l-86 -6q-71 -4 -85 -29t-1 -110l142 -875h6l399 756q41 74 66 122t24 76q0 28 -28 40t-89 18l-69 8l-4 31h458l-8 -31l-45 -10q-42 -6 -70 -18q-54 -23 -134 -157q-42 -71 -109 -192l-481 -895
h-62z" />
    <glyph glyph-name="W" unicode="W" horiz-adv-x="1949" 
d="M516 1171q0 -27 6 -67l133 -891h7l407 741l-16 90q-21 123 -36 150t-35 35t-56 12l-72 8l-4 31h557l-8 -31l-78 -6q-74 -4 -87 -29q-14 -25 -1 -114l133 -885l6 -2l389 776q41 74 63 119q43 88 -14 114q-29 13 -88 19l-55 8l-2 31h455l-9 -31l-45 -10q-78 -13 -113 -50
q-65 -68 -151 -226l-510 -986h-67l-140 900h-6l-504 -900h-67l-172 1067q-22 128 -35 153q-15 24 -35 32t-55 12l-74 8l-2 31h559l-6 -31l-78 -6q-66 -4 -80 -25q-14 -20 -14 -47z" />
    <glyph glyph-name="X" unicode="X" horiz-adv-x="1316" 
d="M-82 31l53 6q91 13 145 53t187 191l307 348l-194 395q-29 59 -58 120t-56 76t-56 19l-64 10l-6 31h533l-9 -31l-63 -4q-66 -4 -73 -42q-6 -42 50 -161l136 -292h4l227 264q53 59 85 99t36 67t-22 40t-89 21l-49 8l-4 31h479l-8 -31l-49 -6q-93 -12 -148 -55
q-55 -42 -186 -189l-252 -288q20 -43 71 -147t128 -266q77 -163 98 -198t45 -45t49 -14l62 -10l4 -31h-526l6 31l65 4q66 4 76 33t-18 88l-201 432h-6l-277 -322q-53 -59 -85 -99t-37 -67t21 -40t89 -21l51 -8l4 -31h-481z" />
    <glyph glyph-name="Y" unicode="Y" horiz-adv-x="1259" 
d="M258 31l119 12q83 7 90 37l94 485l-207 527q-27 80 -58 110q-31 29 -87 37l-66 10l-2 31h557l-8 -31l-57 -4q-83 -4 -92 -43q-10 -33 24 -125l166 -446h6l260 366q53 74 83 119q57 86 12 105q-25 10 -80 18l-60 10l-4 31h451l-8 -31l-54 -8q-95 -12 -194 -132
q-39 -46 -92 -118l-297 -411l-97 -504q-3 -12 13 -20t80 -15l98 -10l2 -31h-598z" />
    <glyph glyph-name="Z" unicode="Z" horiz-adv-x="1169" 
d="M782 1243q-348 0 -463 -169q-33 -50 -57 -105l-26 -66h-33l67 377h977l-6 -31l-1022 -1204v-6h252q259 0 377 77q59 38 96 93t72 125l31 72h40l-104 -406h-1003l6 29l1024 1208l-2 6h-226z" />
    <glyph glyph-name="bracketleft" unicode="[" horiz-adv-x="665" 
d="M258 1296h506l-2 -41h-459l-260 -1704h459l-4 -40h-506z" />
    <glyph glyph-name="backslash" unicode="\" horiz-adv-x="503" 
d="M-4 1313h45l432 -1796h-43z" />
    <glyph glyph-name="bracketright" unicode="]" horiz-adv-x="665" 
d="M-113 -449h459l260 1704h-459l3 41h505l-266 -1785h-506z" />
    <glyph glyph-name="asciicircum" unicode="^" 
d="M528 1399h66l164 -398h-25l-190 238h-6l-301 -238h-21z" />
    <glyph glyph-name="underscore" unicode="_" horiz-adv-x="927" 
d="M-57 2h868l6 -76h-880z" />
    <glyph glyph-name="grave" unicode="`" 
d="M268 1401h185l125 -383h-25z" />
    <glyph glyph-name="a" unicode="a" horiz-adv-x="927" 
d="M467 47q0 63 98 336h-8q-135 -227 -183 -289q-48 -63 -87 -91t-97 -28q-58 1 -110 57q-53 56 -53 148q0 237 183 481t353 244q49 0 69 -41t25 -145h9l69 194l154 -6l-148 -409l-116 -412l94 -14l143 186l19 -14q-67 -135 -133 -203t-107 -68q-41 1 -87 19q-87 36 -87 55z
M193 252q0 -156 96 -156q86 0 295 400q15 26 26 67q12 42 18 62q5 20 5 30q-9 59 -61 105t-110 47q-58 0 -93 -36q-68 -70 -122 -231t-54 -288z" />
    <glyph glyph-name="b" unicode="b" horiz-adv-x="868" 
d="M300 -33q-114 0 -192 55q-79 55 -53 150l281 1061q11 43 -10 47l-154 20l6 25l361 53l-64 -235q-37 -123 -72 -233t-63 -200t-47 -156q-21 -67 -29 -90t-3 -25q5 -1 37 68t82 157q142 250 269 247q78 1 129 -69t51 -180q0 -211 -137 -421q-113 -175 -254 -238
q-82 -36 -138 -36zM344 14q39 0 63 14q114 69 195 290q62 165 63 277q2 198 -102 198q-65 0 -139 -116t-168 -321q-17 -42 -35 -108t-18 -96q16 -58 59 -98t82 -40z" />
    <glyph glyph-name="c" unicode="c" horiz-adv-x="724" 
d="M610 821q-54 47 -100 47q-98 0 -189 -157q-69 -116 -94 -230q-24 -115 -24 -182q0 -215 157 -215q68 0 123 41t135 143l19 -14q-84 -131 -140 -183q-109 -98 -214 -98t-178 86q-74 86 -74 203q0 231 156 438q71 94 165 154t188 59q94 0 154 -45q61 -45 61 -101
q1 -56 -31 -90t-71 -34t-69 24t-29 58q0 58 55 96z" />
    <glyph glyph-name="d" unicode="d" horiz-adv-x="927" 
d="M467 47q1 32 37 152t59 184h-8q-141 -238 -185 -295q-87 -113 -162 -113q-75 1 -128 57t-53 148q0 240 178 472q108 143 222 217q65 42 113 42t64 -17q37 -39 53 -175h9l149 514q11 42 -12 47l-180 20l6 25l391 53l-252 -803l-143 -489l94 -14l143 184l19 -14
q-67 -133 -133 -201t-107 -68q-41 1 -87 19q-87 36 -87 55zM572 758q-52 46 -110 47q-58 0 -93 -36q-69 -71 -123 -230q-53 -159 -53 -262q0 -181 92 -181t299 400q15 26 26 67q12 42 18 62q5 20 5 30q-9 57 -61 103z" />
    <glyph glyph-name="e" unicode="e" horiz-adv-x="741" 
d="M291 -27q-112 0 -186 86t-74 204t43 233q89 238 274 359q90 58 186 58t156 -46q60 -47 60 -109t-32 -103t-119 -89t-378 -130q-18 -74 -18 -137q0 -215 168 -215q66 0 123 41t137 143l18 -14q-179 -281 -358 -281zM596 760q0 47 -31 76t-77 28t-95 -48
q-106 -104 -168 -349l4 -2q211 67 289 132t78 163z" />
    <glyph glyph-name="f" unicode="f" horiz-adv-x="542" 
d="M625 1313h-27q-59 -14 -109 -136q-30 -74 -73 -290h215l-19 -80h-213l-118 -545q-45 -206 -97 -356q-88 -252 -238 -297q-60 -19 -120 -19t-107 34t-47 79t28 78t64 33t58 -14q48 -31 53 -90q2 -30 -10 -60l53 4h21q70 17 134 301q24 102 54 248l115 602l-172 4l22 68
l170 14q88 361 292 452q62 29 140 29t126 -37t48 -86t-32 -80t-67 -31q-37 0 -59 16q-47 31 -38 94q4 30 22 59q-60 6 -69 6z" />
    <glyph glyph-name="g" unicode="g" horiz-adv-x="806" 
d="M633 805q88 -97 88 -211t-109 -216t-235 -102q-80 0 -139 33q-47 -6 -75 -37t-28 -65t33 -54t72 -34t94 -35l53 -18q148 -54 208 -98t85 -84t25 -94t-36 -107q-74 -109 -255 -158q-91 -25 -187 -25q-190 0 -300 67q-109 67 -107 177q0 80 88 148t215 104v6q-53 26 -88 60
t-35 90t61 105q61 48 142 71v6q-47 37 -78 96t-31 131q0 137 111 245q111 107 246 105q107 0 190 -59l256 33l-29 -131l-235 61v-10zM298 -459q64 -1 112 15q99 32 141 102q20 35 20 72q0 95 -161 161q-65 26 -140 51q-74 25 -106 38q-78 -20 -133 -74t-55 -116
q0 -64 23 -106q24 -42 68 -74t105 -50q62 -18 126 -19zM335 309q71 0 128 62q84 84 114 262q7 47 7 99t-34 94t-76 42t-62 -13t-43 -34q-137 -146 -128 -380q3 -71 31 -102q29 -30 63 -30z" />
    <glyph glyph-name="h" unicode="h" horiz-adv-x="942" 
d="M467 47q1 21 33 113t57 155t50 134t58 156q33 86 33 116q0 29 -30 53t-64 25q-47 0 -147 -151t-234 -433l-71 -223l-166 10q2 6 14 45t30 91q17 52 33 104q17 52 31 93q14 40 32 103l79 285q136 517 134 536q-3 19 -13 21l-154 20l6 25l359 53l-62 -235
q-37 -123 -72 -247q-124 -438 -178 -574l15 -3q150 300 217 395t99 127t74 50t87 18t92 -36t47 -84q0 -98 -137 -449q-23 -58 -42 -112t-35 -94t-17 -48l92 -14l143 184l19 -14q-63 -133 -137 -201t-114 -68t-101 26q-60 27 -60 48z" />
    <glyph glyph-name="i" unicode="i" horiz-adv-x="509" 
d="M174 840q74 74 129 74t99 -38q44 -37 44 -71t-68 -226t-94 -267t-48 -135t-31 -89l104 -16l144 184l18 -14q-57 -120 -156 -217q-53 -51 -94 -52q-42 0 -108 24t-67 43q-1 18 99 305t124 358q24 70 34 98l-110 10l-138 -197l-20 17q66 135 139 209zM469 1085
q-45 0 -73 31t-28 82t32 90t78 39t74 -31q28 -32 27 -82t-33 -90t-77 -39z" />
    <glyph glyph-name="j" unicode="j" horiz-adv-x="477" 
d="M-199 -518q-93 0 -137 67q-12 21 -12 53t28 60t61 29q63 0 90 -45t1 -107l80 27q39 51 72 151t82 281l227 805l-103 8l-145 -197l-18 17q63 135 138 209t129 74t100 -38q46 -37 46 -70q0 -34 -60 -252t-153 -468q-59 -178 -118 -307q-90 -197 -222 -271q-47 -26 -86 -26z
M461 1085q-45 0 -73 30t-28 82t32 90t78 38t75 -30q29 -29 27 -81t-34 -91q-32 -38 -77 -38z" />
    <glyph glyph-name="k" unicode="k" horiz-adv-x="862" 
d="M576 -27q-32 1 -64 17t-45 33q-20 313 -79 424q-19 38 -46 38t-47 -13t-21 -17l-122 -463l-166 10q2 6 14 45t30 90q17 51 33 105q17 54 31 93q14 40 32 103l79 285q136 517 134 536q-3 19 -13 21l-154 20l6 25l359 53l-62 -235q-109 -378 -190 -637q12 4 26 4h25
q79 30 207 96q127 66 141 92v9q-76 29 -76 106q0 39 33 71t76 32t76 -32t33 -72q-1 -78 -54 -127q-52 -50 -227 -122l-123 -49q71 -11 130 -159q45 -108 66 -271l56 -4l135 199l16 -13q-51 -125 -119 -209q-67 -84 -130 -84z" />
    <glyph glyph-name="l" unicode="l" horiz-adv-x="473" 
d="M175 -27q-42 0 -104 27q-61 27 -59 41l322 1192q11 43 -10 47l-154 20l6 25l359 53l-365 -1292l88 -14l141 184l21 -14q-66 -133 -134 -201t-111 -68z" />
    <glyph glyph-name="m" unicode="m" horiz-adv-x="1421" 
d="M428 801q0 -84 -145 -477l14 -5l87 174q135 267 209 343q74 75 143 75t107 -41t38 -84t-22 -124t-60 -177t-62 -161l13 -5l87 174q141 278 191 330q86 88 156 88t116 -36t47 -83q2 -95 -137 -452q-23 -59 -57 -151t-39 -103l94 -14l144 186l18 -14q-66 -135 -134 -203
t-111 -68q-42 0 -104 26q-63 26 -65 48q0 31 59 182q59 152 91 241t58 157q26 67 26 96t-31 53t-65 25q-48 0 -138 -152t-223 -434l-69 -223l-168 10l102 322q20 61 76 207t57 183q-1 38 -25 62t-59 25q-87 0 -368 -586l-68 -223l-166 10l105 328l126 475l-88 8l-139 -199
l-18 17q63 135 130 210t126 74q33 0 71 -26q70 -48 70 -88z" />
    <glyph glyph-name="n" unicode="n" horiz-adv-x="989" 
d="M428 801q0 -95 -141 -477l10 -5q204 408 311 519q73 73 142 73t116 -36t47 -83q0 -100 -137 -452q-30 -77 -61 -162q-31 -86 -35 -92l94 -14l144 186l18 -14q-66 -135 -134 -203t-110 -68q-41 0 -103 26q-63 26 -64 44t31 114q32 95 58 159q25 64 52 140q27 75 57 154
t32 110q1 32 -29 56t-64 25q-48 0 -148 -152t-235 -434l-68 -223l-166 10l105 328l126 471l-88 10l-139 -197l-18 17q63 135 134 210t130 74q34 0 68 -26q65 -49 65 -88z" />
    <glyph glyph-name="o" unicode="o" horiz-adv-x="839" 
d="M344 -25q-137 0 -217 107t-82 272q0 96 39 194q82 206 246 310q80 51 155 51q138 0 224 -106t86 -271q0 -98 -40 -197t-106 -179q-65 -80 -147 -130t-158 -51zM199 243q1 -99 31 -165t83 -66q94 0 182 126t113 275q25 150 25 240q0 89 -30 153t-77 64q-83 0 -163 -121
t-127 -270q-37 -137 -37 -236z" />
    <glyph glyph-name="p" unicode="p" horiz-adv-x="911" 
d="M426 799q0 -71 -64 -224h15q86 174 160 254t159 80t132 -80t48 -203q1 -122 -43 -239t-116 -209t-162 -148t-182 -56t-142 87h-4l-137 -505q-9 -28 92 -31l86 -8l2 -31h-485l4 31l64 8q41 4 57 10t20 25l346 1243l-88 8l-139 -197l-18 17q63 135 130 209t126 73
q36 0 87 -39q52 -38 52 -75zM307 51q43 -41 91 -41t116 69t132 234t66 278q2 204 -102 204q-108 0 -254 -332q-83 -188 -88 -216q-6 -28 -10 -46l-4 -35q-4 -16 -4 -27q14 -47 57 -88z" />
    <glyph glyph-name="q" unicode="q" horiz-adv-x="890" 
d="M190 -25q-58 1 -110 57q-53 56 -53 148q0 240 178 472q108 143 222 217q65 42 113 42t64 -17q37 -39 53 -175h9l63 178l156 -6l-144 -393l-268 -938q-4 -16 19 -24t63 -11l59 -8l7 -31h-486l6 31l82 8q53 2 70 12q16 10 20 27l162 532l92 289h-8q-57 -94 -103 -171
t-88 -129t-81 -81t-97 -29zM572 758q-52 46 -110 47q-58 0 -93 -36q-69 -71 -123 -230q-53 -159 -53 -262q0 -181 92 -181t299 400q15 26 26 67q12 42 18 62q5 20 5 30q-9 57 -61 103z" />
    <glyph glyph-name="r" unicode="r" horiz-adv-x="790" 
d="M428 802q0 -90 -129 -429h14q92 186 155 309q121 239 245 233q61 -4 96 -45t31 -92t-38 -85q-34 -35 -68 -31q-64 7 -83 55q-19 54 27 102l-21 8q-22 11 -24 9q-44 -27 -113 -139t-223 -404l-84 -301l-168 10l105 328l126 475l-88 8l-139 -199l-18 17q63 135 130 210
t126 74q33 0 87 -37q54 -36 54 -76z" />
    <glyph glyph-name="s" unicode="s" horiz-adv-x="657" 
d="M420 911q236 0 235 -159q-1 -47 -31 -75t-68 -28t-62 27q-24 28 -23 58q0 57 49 91q-81 42 -131 45q-61 -4 -98 -53q-37 -50 -37 -103t32 -93t105 -113l58 -57q112 -112 110 -219t-104 -183t-214 -76t-166 33q-55 33 -77 65q-22 33 -23 75q0 42 30 73t70 31q41 0 63 -27
t22 -55t-16 -58q-16 -28 -31 -40q43 -28 97 -43q56 -15 82 -14t63 27t55 72t18 87t-47 94q-20 25 -46 49q-176 166 -207 250t23 175q54 92 165 127q54 17 104 17z" />
    <glyph glyph-name="t" unicode="t" horiz-adv-x="579" 
d="M225 -27q-73 0 -169 44q-24 11 -21 20l207 766l-160 6l22 68l162 22l72 260h164l-72 -272h195l2 -80h-219l-215 -721l124 -14l142 184l18 -14q-63 -133 -134 -201t-118 -68z" />
    <glyph glyph-name="u" unicode="u" horiz-adv-x="989" 
d="M694 -29q-34 0 -81 38q-48 38 -49 68q-3 105 138 488l-10 2q-205 -410 -309 -518q-72 -72 -140 -73q-68 0 -104 26q-61 46 -61 93q0 89 98 347q16 48 39 106t42 112t35 94t17 49l-94 10l-139 -199l-21 15q66 137 134 211q69 74 111 74t103 -27q61 -26 64 -47
q-1 -32 -57 -182t-75 -203t-59 -157q-40 -105 -40 -134q0 -30 30 -54t64 -24q47 0 147 152t236 432l67 225l164 -10l-102 -328q-56 -202 -76 -279t-31 -112l-14 -55q-6 -23 -8 -27l88 -12l141 184l19 -14q-63 -133 -135 -202t-132 -69z" />
    <glyph glyph-name="v" unicode="v" horiz-adv-x="839" 
d="M262 920q35 0 119 -15t84 -28q1 -13 -17 -53t-44 -95t-56 -119q-114 -238 -116 -330q-2 -131 109 -169q31 -11 57 -11q47 -1 127 111q80 111 149 261t69 237q-46 -9 -90 22q-45 31 -46 74t30 77t79 34t82 -36t34 -90q-1 -109 -95 -305q-93 -196 -209 -321
q-149 -191 -260 -191q-70 0 -130 51t-60 102q0 110 198 485q47 89 78 151l-192 35l-121 -168l-16 14q129 277 237 277z" />
    <glyph glyph-name="w" unicode="w" horiz-adv-x="1206" 
d="M262 920q35 0 119 -15t84 -28q-1 -15 -19 -55q-21 -45 -122 -252q-102 -207 -104 -309q-1 -101 87 -128q23 -6 43 -6q38 0 132 120q95 120 212 334q33 58 56 103q0 2 -16 9t-36 23q-50 42 -50 90q-1 48 29 77t74 29q43 0 75 -32q32 -30 32 -75t-15 -73t-59 -80t-82 -155
t-38 -173q0 -153 102 -189q27 -8 49 -8q83 0 195 214t110 368q-46 -9 -86 22t-42 74q-1 43 29 77t75 34t79 -34q33 -34 33 -90q-1 -117 -83 -316q-83 -199 -185 -320q-124 -183 -221 -183q-58 0 -99 54q-40 54 -40 108q0 94 94 338q-134 -236 -244 -368t-203 -132
q-57 0 -106 48t-49 108q0 120 202 486q47 85 78 147l-190 35l-121 -168l-16 14q129 277 237 277z" />
    <glyph glyph-name="x" unicode="x" horiz-adv-x="907" 
d="M86 668q104 247 245 247q69 0 107 -84t72 -249h4q84 197 124 250t70 68t78 15t91 -32q43 -33 42 -84t-30 -82t-74 -31t-69 45t2 80q0 4 -20 10t-28 5q-10 -2 -32 -32q-91 -124 -144 -257q36 -257 87 -401q17 -48 36 -48h74l92 150l21 -19q-108 -244 -238 -246
q-82 1 -123 101t-72 270h-6q-136 -307 -226 -354q-32 -17 -82 -17t-93 33t-42 87t30 84t74 30q45 -1 67 -43t-6 -90q0 -2 6 -6l18 -12t24 -8q25 2 101 119q77 117 123 228q-24 221 -83 365q-17 43 -34 43h-75l-91 -150z" />
    <glyph glyph-name="y" unicode="y" horiz-adv-x="866" 
d="M-104 -418q-72 0 -115 35t-43 87t32 79t78 27t79 -46q32 -46 7 -108l64 -16q97 21 290 198q48 45 79 80q0 332 -45 613q-20 126 -50 203q-29 77 -61 77l-41 2l-129 -199l-21 17q62 135 116 209t129 74t119 -38q88 -75 113 -378q13 -156 15 -392l8 -2q79 130 161 335
q83 206 87 309q-52 -31 -106 -4t-57 72q-3 46 25 78t75 32t83 -35t37 -119q0 -84 -42 -208q-81 -238 -245 -478q-76 -109 -128 -158t-108 -105q-56 -55 -124 -109t-138 -93q-72 -39 -144 -39z" />
    <glyph glyph-name="z" unicode="z" horiz-adv-x="763" 
d="M-43 72q0 67 106 112l533 502q-108 -22 -266 122q-35 32 -60 46q-4 4 -36 -28t-25 -33q73 -21 75 -93q0 -34 -25 -61q-27 -27 -67 -27t-64 27t-24 65q0 73 87 143q87 69 180 71q108 -6 163 -89q22 -33 36 -63t36 -41l15 2l51 188q36 -5 68 -31t31 -67q-2 -66 -107 -110
l-533 -502q149 26 368 -133q46 -35 70 -47q11 -6 38 48q5 9 3 9q-36 10 -58 40t-22 64t27 61q27 25 69 25t64 -28t23 -68q0 -75 -77 -145t-146 -72q-134 -4 -296 158q-36 35 -67 49h-16l-52 -191q-39 4 -71 30q-32 25 -31 67z" />
    <glyph glyph-name="braceleft" unicode="{" horiz-adv-x="638" 
d="M143 457l-2 -15q208 -49 260 -174q35 -84 -18 -209q-23 -53 -68 -147t-58 -170t44 -134t205 -89l-4 -27q-176 20 -282 111t-85 225q15 94 59 183t64 137t29 100q14 84 -60 124t-202 60l-11 25l15 24q291 0 311 142q10 62 -5 158q-15 97 -19 153t6 123q20 127 146 201
t310 69v-31q-154 -6 -224 -53q-104 -70 -88 -238q5 -50 20 -149q28 -186 -38 -270q-90 -115 -305 -129z" />
    <glyph glyph-name="bar" unicode="|" horiz-adv-x="389" 
d="M174 1327h41v-1796h-41v1796z" />
    <glyph glyph-name="braceright" unicode="}" horiz-adv-x="638" 
d="M473 369l2 14q-123 29 -202 98q-122 112 -29 285q29 53 60 103q32 51 61 99t36 101q16 86 -41 143t-204 88l6 29q283 -40 352 -210q22 -55 12 -121t-39 -120t-61 -104t-60 -96q-26 -47 -33 -96q-18 -127 155 -169q50 -13 104 -22l10 -22l-12 -23q-131 0 -214 -29
t-97 -114q-8 -51 4 -101t27 -104q16 -54 28 -110t2 -122q-20 -130 -145 -202t-312 -70v29q154 6 225 54t87 138q7 51 -5 103t-41 149q-29 98 -21 166t41 107q98 119 304 129z" />
    <glyph glyph-name="asciitilde" unicode="~" horiz-adv-x="755" 
d="M220 563q62 0 108 -20q45 -20 119 -66t113 -46q40 -1 66 19t48 97h28q-28 -119 -70 -173t-116 -55q-74 0 -182 66q-107 66 -147 67q-41 2 -65 -18t-46 -98h-27q29 121 69 174t102 53z" />
    <glyph glyph-name="nonbreakingspace" unicode="&#xa0;" horiz-adv-x="284" 
 />
    <glyph glyph-name="exclamdown" unicode="&#xa1;" horiz-adv-x="532" 
d="M180 -39q-74 6 -86 37t0 72l248 815q4 8 14 7t9 -9l-66 -832q-5 -37 -25 -65t-88 -25h-6zM403 1061q-53 0 -87 36t-33 83q0 47 32 84q33 36 86 36t89 -36t36 -84q0 -47 -35 -83t-88 -36z" />
    <glyph glyph-name="cent" unicode="&#xa2;" horiz-adv-x="720" 
d="M203 299q0 -145 73 -193l306 736q-34 24 -82 24t-111 -61q-119 -126 -170 -364q-16 -75 -16 -142zM31 296q0 81 43 196q90 240 278 360q94 59 195 59q35 0 61 -8l146 354h39l-152 -364q49 -18 82 -54t33 -83t-32 -80t-67 -33q-70 0 -98 53l-250 -606q25 -6 51 -6
q68 0 123 41t135 143l19 -16q-178 -279 -346 -279q-18 0 -29 2l-125 -303h-39l127 310q-135 38 -180 187q-14 46 -14 127z" />
    <glyph glyph-name="sterling" unicode="&#xa3;" horiz-adv-x="1056" 
d="M130 256q87 0 206 -33q42 105 34 251q-3 54 -8 108h-225l8 39h215q-5 73 -2 118q8 221 155 387q146 166 370 166q115 0 175 -43t56 -112q-2 -45 -33 -77t-73 -32t-64 18q-45 36 -34 106q5 32 22 56q-39 39 -116 39q-78 1 -152 -65q-103 -91 -115 -371q-4 -90 -14 -190
h264l2 -39h-271q-4 -29 -7 -57q-17 -163 -126 -322q93 -29 183 -58q206 -67 294 17q47 43 89 168l22 -6q-29 -147 -117 -248t-215 -101t-263 82q-38 23 -75 45q-125 -129 -247 -129q-57 0 -95 35q-37 36 -33 94t53 106q50 48 137 48zM87 205q-48 0 -81 -32t-35 -74
q-2 -41 27 -69t78 -28q48 0 104 34t99 89q-53 33 -99 57t-93 23z" />
    <glyph glyph-name="currency" unicode="&#xa4;" horiz-adv-x="1015" 
d="M684 80q145 0 283 129l16 -23q-83 -104 -187 -160t-207 -55q-193 0 -306 141t-133 339h-144l6 38h133l2 33q0 94 21 191h-113l6 39h117q67 233 251 388q183 154 386 154q137 0 215 -50t78 -116q0 -42 -30 -76t-71 -34q-74 0 -95 66q-20 66 8 118q-41 49 -124 49
q-163 0 -278 -134t-162 -365h408l6 -39h-420q-16 -88 -16 -174v-25q0 -12 2 -25h381l6 -38h-383q18 -167 108 -269t236 -102z" />
    <glyph glyph-name="yen" unicode="&#xa5;" horiz-adv-x="1243" 
d="M1116 631v-21q0 -8 -2 -20h-366l-43 -219h370l4 -39h-383l-47 -256q-3 -12 13 -20t79 -15l99 -10l4 -31h-598l6 31l119 12q83 7 90 37l49 252h-365l9 39h362l6 26q6 29 15 66l12 74q8 37 10 53h-369l-2 41h361l-193 481q-24 68 -54 96t-85 33l-57 8l-4 31h551l-7 -31
l-59 -4q-82 -6 -91 -46t32 -138l149 -397h4l254 350q100 141 98 179q0 24 -24 34q-25 10 -72 16l-43 6l-4 31h424l-6 -31l-47 -6q-70 -9 -121 -51t-147 -172l-283 -389h352z" />
    <glyph glyph-name="section" unicode="&#xa7;" horiz-adv-x="798" 
d="M608 173q0 -115 -95 -195t-217 -80q-121 0 -197 41t-74 106q0 45 27 75q28 30 66 30q65 0 82 -57t-7 -109q30 -47 112 -47t128 51q46 52 46 116t-61 128t-124 113q-120 92 -178 162q-57 71 -58 160q-2 89 62 155t156 98q-30 54 -30 114t24 108q48 100 168 144
q60 23 118 23q104 0 182 -43q79 -43 77 -109q0 -41 -31 -69q-32 -28 -68 -27q-66 0 -83 57t10 111q-30 43 -85 43q-133 0 -174 -102q-11 -28 -11 -52q0 -74 62 -138t154 -134q93 -70 133 -118q76 -91 76 -178q1 -88 -63 -158t-160 -99q33 -60 33 -120zM670 479q0 59 -41 109
t-110 107q-69 55 -130 103t-98 99q-109 -63 -109 -162q0 -59 41 -108t113 -105t131 -106q59 -48 96 -101q107 63 107 164z" />
    <glyph glyph-name="dieresis" unicode="&#xa8;" 
d="M604 1175q0 41 27 81t83 40t84 -41q54 -80 0 -151q-32 -39 -82 -39t-81 35t-31 75zM223 1175q0 41 27 81t83 40t84 -41q54 -80 0 -151q-32 -39 -82 -39t-81 35t-31 75z" />
    <glyph glyph-name="copyright" unicode="&#xa9;" horiz-adv-x="1460" 
d="M748 -29q-140 1 -262 53t-213 143t-143 213t-52 261t52 261q105 247 356 358q122 53 262 53t261 -53q122 -52 213 -144t143 -214t52 -261t-52 -261q-106 -250 -356 -356q-122 -53 -261 -53zM748 4q132 0 246 50t200 137t135 203t49 247t-49 247t-135 203t-201 137
t-245 50t-247 -50q-116 -50 -202 -137t-135 -203t-49 -247t49 -247t135 -203t202 -137t247 -50zM786 1032q106 0 185 -41l80 29l4 -248h-23l-94 184q-56 45 -147 45q-91 1 -145 -27q-166 -84 -169 -323q0 -166 86 -273q87 -106 217 -106q86 0 136 38t96 106l41 84h22
l-39 -215l-47 -4q-92 -39 -203 -39q-112 0 -190 28t-133 80q-55 51 -85 124t-30 159t31 160t87 127q56 52 135 82t185 30z" />
    <glyph glyph-name="ordfeminine" unicode="&#xaa;" horiz-adv-x="720" 
d="M279 590q-60 0 -99 45t-39 115t27 157q27 88 86 169t101 123q101 101 194 99q39 0 53 -32t19 -111h6l53 152l115 -4l-111 -316l-88 -313l72 -10l114 151l11 -10q-53 -103 -105 -159t-90 -56q-12 0 -32 7q-88 32 -88 66q0 18 81 257h-6q-92 -156 -153 -243t-121 -87z
M332 684q56 0 166 182q61 101 81 162q21 60 21 76q-8 45 -47 80t-84 35t-72 -28t-62 -97t-60 -197q-25 -129 13 -182q20 -31 44 -31z" />
    <glyph glyph-name="guillemotleft" unicode="&#xab;" horiz-adv-x="925" 
d="M426 440l4 39l510 336l8 -22l-348 -351l219 -321l-14 -23zM37 440l4 39l506 314l8 -21l-336 -330l215 -301l-14 -22z" />
    <glyph glyph-name="registered" unicode="&#xae;" horiz-adv-x="1460" 
d="M748 -29q-140 1 -262 53t-213 143t-143 213t-52 261t52 261q105 247 356 358q122 53 262 53t261 -53q122 -52 213 -144t143 -214t52 -261t-52 -261q-106 -250 -356 -356q-122 -53 -261 -53zM748 4q132 0 246 50t200 137t135 203t49 247t-49 247t-135 203t-201 137
t-245 50t-247 -50q-116 -50 -202 -137t-135 -203t-49 -247t49 -247t135 -203t202 -137t247 -50zM516 322v647q0 12 -57 18l-51 8l-5 25h324q153 0 225 -53t72 -135t-49 -134q-49 -53 -135 -69l159 -242q37 -53 61 -71t62 -21l31 -4l4 -25h-223l-19 35l-198 322q-14 4 -40 8
t-42 8v-322q0 -8 57 -20l56 -6l2 -25h-349l5 25l61 8q49 6 49 23zM897 821q0 170 -209 162l-53 -2v-309q142 -43 217 26q45 41 45 123z" />
    <glyph glyph-name="macron" unicode="&#xaf;" horiz-adv-x="774" 
d="M240 1079q2 0 6 11l6 20q6 14 10 31h508l-16 -62h-514z" />
    <glyph glyph-name="degree" unicode="&#xb0;" horiz-adv-x="657" 
d="M644 827q-83 -90 -209 -90q-125 0 -204 80t-79 201t83 210t207 89t204 -81t79 -199q0 -118 -81 -210zM436 780q106 0 171 73t67 176t-62 172t-170 70q-107 1 -173 -75t-67 -178q0 -102 64 -170t170 -68z" />
    <glyph glyph-name="plusminus" unicode="&#xb1;" horiz-adv-x="706" 
d="M190 958h517l-11 -30l-88 -8q-81 -4 -90 -37l-153 -811q-4 -12 9 -20t72 -13l82 -8v-31h-516l11 31l90 8q86 2 88 37l153 811q4 12 -9 20t-71 13l-84 8v30z" />
    <glyph glyph-name="acute" unicode="&#xb4;" 
d="M655 1401h199l-428 -383h-25z" />
    <glyph glyph-name="paragraph" unicode="&#xb6;" horiz-adv-x="925" 
d="M721 514q-265 0 -423 98q-157 98 -157 271q0 201 145 301t371 98h301l-253 -1345h-46l109 583q-27 -6 -47 -6z" />
    <glyph glyph-name="periodcentered" unicode="&#xb7;" horiz-adv-x="432" 
d="M204 334q-54 0 -91 38t-37 88t36 87t90 37t90 -37t36 -87t-35 -88t-89 -38z" />
    <glyph glyph-name="cedilla" unicode="&#xb8;" 
d="M348 -326q0 99 -170 99q-50 0 -112 -11l4 23l245 223h45l-147 -137q117 6 191 -37q74 -44 73 -112q0 -180 -290 -234q-85 -16 -181 -20l-2 22q344 30 344 184z" />
    <glyph glyph-name="ordmasculine" unicode="&#xba;" horiz-adv-x="651" 
d="M384 586q-108 0 -169 82t-61 217q0 136 107 276q47 63 109 103t120 41q105 0 171 -82t66 -222q0 -141 -109 -276q-49 -61 -112 -100q-62 -39 -122 -39zM357 614q40 0 74 26q97 75 149 255q24 93 24 187q0 190 -88 190q-57 0 -123 -103q-93 -145 -114 -290t15 -217
q24 -48 63 -48z" />
    <glyph glyph-name="guillemotright" unicode="&#xbb;" horiz-adv-x="925" 
d="M-27 117l346 348l-221 326l17 22l379 -344l-2 -39l-510 -334zM367 137l335 328l-219 305l17 21l383 -322l-2 -39l-508 -313z" />
    <glyph glyph-name="questiondown" unicode="&#xbf;" horiz-adv-x="657" 
d="M516 98q0 -24 -4 -46q-14 -77 -146 -77q-62 0 -128 29t-110 77q-93 102 -92 229q1 128 59 197t190 109q47 16 84 28t63 30q52 33 51 95q0 63 -75 136l26 4q53 -47 91 -108t38 -115q1 -88 -65 -134t-159 -74t-136 -42t-71 -30q-54 -31 -54 -97t82 -115q94 -60 238 -60
q73 0 108 7q10 -19 10 -43zM498 1075q-53 0 -87 35t-34 83t34 85t87 37t88 -37t35 -85t-35 -83t-88 -35z" />
    <glyph glyph-name="Agrave" unicode="&#xc0;" horiz-adv-x="1243" 
d="M508 1743h184l125 -383h-24zM735 571l-51 519h-8l-266 -519h325zM182 102q0 -31 28 -44t89 -19l70 -8l4 -31h-457l6 31l45 10q41 6 70 18q50 21 132 157q42 71 110 192l385 737l-9 74q73 16 132 63q19 14 28 27h27l125 -1069q17 -126 35 -153q18 -26 38 -34t52 -12
l73 -10l2 -31h-563l6 31l78 8q68 4 81 45t3 123l-33 319h-352l-106 -204q-45 -82 -72 -136t-27 -84z" />
    <glyph glyph-name="Aacute" unicode="&#xc1;" horiz-adv-x="1243" 
d="M936 1743h199l-428 -383h-25zM735 571l-51 519h-8l-266 -519h325zM182 102q0 -31 28 -44t89 -19l70 -8l4 -31h-457l6 31l45 10q41 6 70 18q50 21 132 157q42 71 110 192l385 737l-9 74q73 16 132 63q19 14 28 27h27l125 -1069q17 -126 35 -153q18 -26 38 -34t52 -12
l73 -10l2 -31h-563l6 31l78 8q68 4 81 45t3 123l-33 319h-352l-106 -204q-45 -82 -72 -136t-27 -84z" />
    <glyph glyph-name="Acircumflex" unicode="&#xc2;" horiz-adv-x="1243" 
d="M813 1741h66l165 -398h-24l-193 238h-6l-299 -238h-20zM735 571l-51 519h-8l-266 -519h325zM182 102q0 -31 28 -44t89 -19l70 -8l4 -31h-457l6 31l45 10q41 6 70 18q50 21 132 157q42 71 110 192l385 737l-9 74q73 16 132 63q19 14 28 27h27l125 -1069q17 -126 35 -153
q18 -26 38 -34t52 -12l73 -10l2 -31h-563l6 31l78 8q68 4 81 45t3 123l-33 319h-352l-106 -204q-45 -82 -72 -136t-27 -84z" />
    <glyph glyph-name="Atilde" unicode="&#xc3;" horiz-adv-x="1243" 
d="M607 1507q-41 0 -65 -19t-46 -97h-27q29 121 69 174t102 53t108 -20t119 -67q74 -46 114 -46q39 0 65 20t48 97h28q-29 -119 -70 -174q-42 -54 -116 -54t-182 66q-107 66 -147 67zM735 571l-51 519h-8l-266 -519h325zM182 102q0 -31 28 -44t89 -19l70 -8l4 -31h-457l6 31
l45 10q41 6 70 18q50 21 132 157q42 71 110 192l385 737l-9 74q73 16 132 63q19 14 28 27h27l125 -1069q17 -126 35 -153q18 -26 38 -34t52 -12l73 -10l2 -31h-563l6 31l78 8q68 4 81 45t3 123l-33 319h-352l-106 -204q-45 -82 -72 -136t-27 -84z" />
    <glyph glyph-name="Adieresis" unicode="&#xc4;" horiz-adv-x="1243" 
d="M864 1517q0 41 27 81t83 40t84 -41q54 -80 0 -151q-32 -39 -82 -39t-81 35t-31 75zM483 1517q0 41 27 81t83 40t84 -41t28 -68q0 -76 -62 -111q-20 -11 -59 -11t-70 35t-31 75zM735 571l-51 519h-8l-266 -519h325zM182 102q0 -31 28 -44t89 -19l70 -8l4 -31h-457l6 31
l45 10q41 6 70 18q50 21 132 157q42 71 110 192l385 737l-9 74q73 16 132 63q19 14 28 27h27l125 -1069q17 -126 35 -153q18 -26 38 -34t52 -12l73 -10l2 -31h-563l6 31l78 8q68 4 81 45t3 123l-33 319h-352l-106 -204q-45 -82 -72 -136t-27 -84z" />
    <glyph glyph-name="Aring" unicode="&#xc5;" horiz-adv-x="1243" 
d="M735 571l-51 516h-8l-266 -516h325zM182 102q0 -31 28 -44t89 -19l70 -8l4 -31h-457l6 31l45 10q41 6 70 18q50 21 132 157q42 71 110 192l450 858q-101 50 -101 176q0 64 49 119q48 55 134 55t134 -55t48 -125t-39 -120t-106 -63l119 -1013q17 -126 35 -153
q18 -26 38 -34t52 -12l73 -10l2 -31h-563l6 31l78 8q68 4 81 45t3 123l-33 319h-352l-106 -204q-45 -82 -72 -136t-27 -84zM812 1278q71 0 110 45t39 107t-39 110q-39 47 -110 47t-111 -47q-39 -47 -39 -109t39 -108q40 -45 111 -45z" />
    <glyph glyph-name="AE" unicode="&#xc6;" horiz-adv-x="1708" 
d="M776 571l111 590h-6l-217 -295q-41 -55 -80 -108t-70 -94t-49 -68l-21 -25h332zM1653 1280v-393h-37l-14 78q-20 69 -40 119q-42 104 -172 139q-71 18 -190 18h-108l-107 -565l70 2q151 4 197 23t68 45t40 67l31 61l32 -2l-94 -436l-35 2l6 60q12 87 -45 111t-217 28
l-61 2l-111 -594l183 -6q304 0 433 177q38 52 74 112l37 75l41 -2l-133 -401h-1005l6 31l92 12q85 7 90 37l84 446h-354l-138 -184q-74 -96 -114 -152q-77 -108 -33 -131q25 -12 84 -20l53 -8l6 -31h-442l6 31l49 10q45 6 77 17q58 20 143 123q44 52 112 141l617 835
q31 39 22 53q-16 27 -94 31l-86 8l-4 31h981z" />
    <glyph glyph-name="Ccedilla" unicode="&#xc7;" horiz-adv-x="1357" 
d="M766 -326q0 99 -170 99q-49 0 -113 -11l4 23l205 186q-272 16 -430 174t-158 406q0 152 58 289q117 281 400 408q140 62 323 62t327 -75l144 33l-68 -383l-33 2l-63 284q-43 37 -123 68q-81 31 -199 31t-224 -64t-181 -168q-152 -215 -152 -522q0 -231 117 -369
q117 -137 324 -137q121 0 213 52t172 147l78 139l36 -2l-106 -332l-80 2q-143 -45 -322 -47h-8l-106 -98q117 6 191 -37q74 -44 73 -112q0 -180 -290 -234q-85 -16 -181 -20l-2 22q344 30 344 184z" />
    <glyph glyph-name="Egrave" unicode="&#xc8;" horiz-adv-x="1204" 
d="M479 1743h185l124 -383h-24zM692 1243h-117l-108 -567l80 2q151 4 197 23t68 45t40 67l31 61l35 -2l-97 -436l-35 2l7 60q12 87 -45 111t-218 28l-69 2l-113 -594l191 -8q305 0 436 178q39 53 74 113l38 75l39 -2l-131 -401h-1018l7 31l82 12q94 12 96 37l215 1124
q2 12 -13 18t-79 17l-66 10l-4 31h930l2 -393h-39l-12 78q-20 69 -42 119q-47 108 -172 141q-71 18 -190 18z" />
    <glyph glyph-name="Eacute" unicode="&#xc9;" horiz-adv-x="1204" 
d="M883 1743h198l-428 -383h-24zM692 1243h-117l-108 -567l80 2q151 4 197 23t68 45t40 67l31 61l35 -2l-97 -436l-35 2l7 60q12 87 -45 111t-218 28l-69 2l-113 -594l191 -8q305 0 436 178q39 53 74 113l38 75l39 -2l-131 -401h-1018l7 31l82 12q94 12 96 37l215 1124
q2 12 -13 18t-79 17l-66 10l-4 31h930l2 -393h-39l-12 78q-20 69 -42 119q-47 108 -172 141q-71 18 -190 18z" />
    <glyph glyph-name="Ecircumflex" unicode="&#xca;" horiz-adv-x="1204" 
d="M760 1741h65l166 -398h-24l-193 238h-6l-299 -238h-20zM692 1243h-117l-108 -567l80 2q151 4 197 23t68 45t40 67l31 61l35 -2l-97 -436l-35 2l7 60q12 87 -45 111t-218 28l-69 2l-113 -594l191 -8q305 0 436 178q39 53 74 113l38 75l39 -2l-131 -401h-1018l7 31l82 12
q94 12 96 37l215 1124q2 12 -13 18t-79 17l-66 10l-4 31h930l2 -393h-39l-12 78q-20 69 -42 119q-47 108 -172 141q-71 18 -190 18z" />
    <glyph glyph-name="Edieresis" unicode="&#xcb;" horiz-adv-x="1204" 
d="M815 1517q0 41 27 81t83 40t84 -41q54 -80 0 -151q-32 -39 -82 -39t-81 35t-31 75zM434 1517q0 41 27 81t83 40t84 -41q54 -80 0 -151q-32 -39 -82 -39t-81 35t-31 75zM692 1243h-117l-108 -567l80 2q151 4 197 23t68 45t40 67l31 61l35 -2l-97 -436l-35 2l7 60
q12 87 -45 111t-218 28l-69 2l-113 -594l191 -8q305 0 436 178q39 53 74 113l38 75l39 -2l-131 -401h-1018l7 31l82 12q94 12 96 37l215 1124q2 12 -13 18t-79 17l-66 10l-4 31h930l2 -393h-39l-12 78q-20 69 -42 119q-47 108 -172 141q-71 18 -190 18z" />
    <glyph glyph-name="Igrave" unicode="&#xcc;" horiz-adv-x="704" 
d="M268 1743h185l125 -383h-25zM-6 31l100 12q85 7 90 37l215 1124q2 12 -13 20t-79 15l-78 10l-4 31h559l-6 -31l-98 -12q-86 -11 -90 -37l-215 -1124q-2 -14 13 -20t79 -15l78 -10l4 -31h-561z" />
    <glyph glyph-name="Iacute" unicode="&#xcd;" horiz-adv-x="704" 
d="M690 1743h199l-428 -383h-25zM-6 31l100 12q85 7 90 37l215 1124q2 12 -13 20t-79 15l-78 10l-4 31h559l-6 -31l-98 -12q-86 -11 -90 -37l-215 -1124q-2 -14 13 -20t79 -15l78 -10l4 -31h-561z" />
    <glyph glyph-name="Icircumflex" unicode="&#xce;" horiz-adv-x="704" 
d="M549 1741h65l166 -398h-24l-193 238h-6l-299 -238h-20zM-6 31l100 12q85 7 90 37l215 1124q2 12 -13 20t-79 15l-78 10l-4 31h559l-6 -31l-98 -12q-86 -11 -90 -37l-215 -1124q-2 -14 13 -20t79 -15l78 -10l4 -31h-561z" />
    <glyph glyph-name="Idieresis" unicode="&#xcf;" horiz-adv-x="704" 
d="M728 1638q56 0 84 -41t28 -68q0 -76 -62 -111q-20 -11 -59 -11t-69 34q-29 34 -31 75q-1 42 26 82t83 40zM238 1516q0 42 26 82t83 40q56 0 84 -41t28 -68q0 -76 -62 -111q-20 -11 -59 -11t-70 34q-30 34 -30 75zM-6 31l100 12q85 7 90 37l215 1124q2 12 -13 20t-79 15
l-78 10l-4 31h559l-6 -31l-98 -12q-86 -11 -90 -37l-215 -1124q-2 -14 13 -20t79 -15l78 -10l4 -31h-561z" />
    <glyph glyph-name="Eth" unicode="&#xd0;" horiz-adv-x="1359" 
d="M1339 732q0 -132 -54 -267q-112 -280 -421 -404q-154 -61 -354 -61h-533l7 31l88 12q84 11 90 37l104 545h-186l8 43h186l103 536q2 12 -13 18t-79 17l-68 10l-2 31l490 2q162 2 280 -39q354 -121 354 -511zM1128 735q0 364 -241 470q-84 38 -203 38h-109l-108 -575h285
l4 -43h-297l-105 -545l135 -45q304 4 475 213q81 98 122 230q42 132 42 257z" />
    <glyph glyph-name="Ntilde" unicode="&#xd1;" horiz-adv-x="1378" 
d="M660 1507q-40 0 -64 -19t-47 -97h-27q29 121 69 174q41 53 103 53t107 -20t119 -67q74 -46 114 -46q39 0 65 20t48 97h29q-29 -120 -71 -174t-116 -54t-182 66q-107 66 -147 67zM414 1114h-6l-179 -899q-16 -102 7 -133t106 -43l55 -8l2 -31h-438l6 31l58 8q74 9 99 35
q47 48 58 145l180 887q-10 45 -35 83q-26 38 -98 50l-45 10l-4 31h369l524 -987h6l154 772q16 101 -1 127t-43 36t-67 13l-55 8l-4 31h440l-6 -31l-57 -8q-72 -4 -107 -40t-53 -140l-213 -1073h-43z" />
    <glyph glyph-name="Ograve" unicode="&#xd2;" horiz-adv-x="1472" 
d="M604 1743h184l125 -383h-24zM738 -29q-287 0 -457 178t-170 437q0 139 50 269q103 267 367 392q130 61 280 61q286 1 457 -177t171 -439q0 -143 -53 -274q-107 -270 -369 -388q-128 -58 -276 -59zM1237 770q0 349 -235 461q-76 37 -186 37t-206 -72q-191 -143 -265 -434
q-36 -138 -36 -254q0 -225 109 -359q110 -135 312 -135q106 0 202 72q192 144 268 431q37 135 37 253z" />
    <glyph glyph-name="Oacute" unicode="&#xd3;" horiz-adv-x="1472" 
d="M1018 1743h199l-429 -383h-24zM738 -29q-287 0 -457 178t-170 437q0 139 50 269q103 267 367 392q130 61 280 61q286 1 457 -177t171 -439q0 -143 -53 -274q-107 -270 -369 -388q-128 -58 -276 -59zM1237 770q0 349 -235 461q-76 37 -186 37t-206 -72
q-191 -143 -265 -434q-36 -138 -36 -254q0 -225 109 -359q110 -135 312 -135q106 0 202 72q192 144 268 431q37 135 37 253z" />
    <glyph glyph-name="Ocircumflex" unicode="&#xd4;" horiz-adv-x="1472" 
d="M897 1741h66l165 -398h-24l-193 238h-6l-299 -238h-20zM738 -29q-287 0 -457 178t-170 437q0 139 50 269q103 267 367 392q130 61 280 61q286 1 457 -177t171 -439q0 -143 -53 -274q-107 -270 -369 -388q-128 -58 -276 -59zM1237 770q0 349 -235 461q-76 37 -186 37
t-206 -72q-191 -143 -265 -434q-36 -138 -36 -254q0 -225 109 -359q110 -135 312 -135q106 0 202 72q192 144 268 431q37 135 37 253z" />
    <glyph glyph-name="Otilde" unicode="&#xd5;" horiz-adv-x="1472" 
d="M705 1507q-41 0 -65 -19t-46 -97h-27q29 121 69 174t102 53t108 -20q45 -20 119 -67q74 -46 114 -46q39 0 65 20t48 97h29q-29 -120 -71 -174t-116 -54t-182 66q-107 66 -147 67zM738 -29q-287 0 -457 178t-170 437q0 139 50 269q103 267 367 392q130 61 280 61
q286 1 457 -177t171 -439q0 -143 -53 -274q-107 -270 -369 -388q-128 -58 -276 -59zM1237 770q0 349 -235 461q-76 37 -186 37t-206 -72q-191 -143 -265 -434q-36 -138 -36 -254q0 -225 109 -359q110 -135 312 -135q106 0 202 72q192 144 268 431q37 135 37 253z" />
    <glyph glyph-name="Odieresis" unicode="&#xd6;" horiz-adv-x="1472" 
d="M1064 1638q56 0 84 -41t28 -68q0 -76 -62 -111q-20 -11 -59 -11t-69 34q-29 34 -31 75q-1 42 26 82t83 40zM683 1638q56 0 84 -41t28 -68q0 -76 -62 -111q-20 -11 -59 -11t-69 34q-29 34 -31 75q-1 42 26 82t83 40zM738 -29q-287 0 -457 178t-170 437q0 139 50 269
q103 267 367 392q130 61 280 61q286 1 457 -177t171 -439q0 -143 -53 -274q-107 -270 -369 -388q-128 -58 -276 -59zM1237 770q0 349 -235 461q-76 37 -186 37t-206 -72q-191 -143 -265 -434q-36 -138 -36 -254q0 -225 109 -359q110 -135 312 -135q106 0 202 72
q192 144 268 431q37 135 37 253z" />
    <glyph glyph-name="Oslash" unicode="&#xd8;" horiz-adv-x="1472" 
d="M111 578q0 146 50 277q103 267 367 392q131 61 310 61t329 -98l146 201h47l-162 -223q113 -86 175 -215q63 -129 63 -277q1 -297 -201 -510q-202 -212 -523 -214q-173 0 -325 94l-156 -216h-49l172 238q-117 84 -180 214t-63 276zM1237 784q0 199 -94 328l-29 -41
q-31 -43 -81 -112t-113 -157q-62 -88 -176 -242t-310 -429q113 -117 285 -117q117 0 213 72q192 144 268 431q37 136 37 267zM827 1268q-121 0 -217 -72q-191 -143 -265 -434q-36 -137 -36 -266q0 -201 99 -334l710 981q-108 125 -291 125z" />
    <glyph glyph-name="Ugrave" unicode="&#xd9;" horiz-adv-x="1406" 
d="M666 1743h184l125 -383h-25zM707 -31q-348 0 -459 193q-39 66 -39 152t20 169l138 721q0 30 -93 35l-86 10l-4 31h578l-8 -31l-107 -12q-78 -7 -90 -37l-133 -696q-16 -82 -16 -152q0 -307 358 -307q152 0 246 92t135 305l125 623q16 100 -1 126q-17 27 -43 35t-67 15
l-55 8l-4 31h440l-8 -31l-55 -8q-75 -9 -100 -35q-45 -47 -60 -145l-127 -633q-44 -225 -158 -342t-327 -117z" />
    <glyph glyph-name="Uacute" unicode="&#xda;" horiz-adv-x="1406" 
d="M1073 1743h199l-428 -383h-25zM707 -31q-348 0 -459 193q-39 66 -39 152t20 169l138 721q0 30 -93 35l-86 10l-4 31h578l-8 -31l-107 -12q-78 -7 -90 -37l-133 -696q-16 -82 -16 -152q0 -307 358 -307q152 0 246 92t135 305l125 623q16 100 -1 126q-17 27 -43 35t-67 15
l-55 8l-4 31h440l-8 -31l-55 -8q-75 -9 -100 -35q-45 -47 -60 -145l-127 -633q-44 -225 -158 -342t-327 -117z" />
    <glyph glyph-name="Ucircumflex" unicode="&#xdb;" horiz-adv-x="1406" 
d="M936 1741h65l166 -398h-24l-193 238h-6l-299 -238h-20zM707 -31q-348 0 -459 193q-39 66 -39 152t20 169l138 721q0 30 -93 35l-86 10l-4 31h578l-8 -31l-107 -12q-78 -7 -90 -37l-133 -696q-16 -82 -16 -152q0 -307 358 -307q152 0 246 92t135 305l125 623
q16 100 -1 126q-17 27 -43 35t-67 15l-55 8l-4 31h440l-8 -31l-55 -8q-75 -9 -100 -35q-45 -47 -60 -145l-127 -633q-44 -225 -158 -342t-327 -117z" />
    <glyph glyph-name="Udieresis" unicode="&#xdc;" horiz-adv-x="1406" 
d="M975 1516q1 42 27 82t82 40t84 -41t28 -68q0 -74 -61 -111q-21 -11 -60 -11t-70 34q-30 34 -30 75zM594 1517q0 41 27 81t83 40t84 -41t27 -68q0 -74 -61 -111q-20 -11 -60 -11t-70 35t-30 75zM707 -31q-348 0 -459 193q-39 66 -39 152t20 169l138 721q0 30 -93 35
l-86 10l-4 31h578l-8 -31l-107 -12q-78 -7 -90 -37l-133 -696q-16 -82 -16 -152q0 -307 358 -307q152 0 246 92t135 305l125 623q16 100 -1 126q-17 27 -43 35t-67 15l-55 8l-4 31h440l-8 -31l-55 -8q-75 -9 -100 -35q-45 -47 -60 -145l-127 -633q-44 -225 -158 -342
t-327 -117z" />
    <glyph glyph-name="Yacute" unicode="&#xdd;" horiz-adv-x="1259" 
d="M989 1743h199l-428 -383h-25zM258 31l119 12q83 7 90 37l94 485l-207 527q-27 80 -58 110q-31 29 -87 37l-66 10l-2 31h557l-8 -31l-57 -4q-83 -4 -92 -43q-10 -33 24 -125l166 -446h6l260 366q53 74 83 119q57 86 12 105q-25 10 -80 18l-60 10l-4 31h451l-8 -31l-54 -8
q-95 -12 -194 -132q-39 -46 -92 -118l-297 -411l-97 -504q-3 -12 13 -20t80 -15l98 -10l2 -31h-598z" />
    <glyph glyph-name="Thorn" unicode="&#xde;" horiz-adv-x="1138" 
d="M705 1018q197 0 311 -89t112 -222q0 -171 -143 -276q-218 -160 -575 -77l-56 -278q-2 -14 14 -22t78 -13l113 -10l4 -31h-604l6 31l107 12q80 7 92 37l215 1124q1 20 -29 27q-30 6 -63 8l-86 10l-2 31h575l-8 -31l-107 -12q-78 -7 -90 -37l-34 -182h170zM599 367
q149 0 237 108t88 264q0 109 -60 173t-178 65h-160l-108 -576q100 -34 181 -34z" />
    <glyph glyph-name="germandbls" unicode="&#xdf;" horiz-adv-x="1007" 
d="M-319 -297q0 45 26 78q27 33 63 33t58 -14q48 -31 53 -90q2 -30 -10 -60l53 4h21q70 17 134 301q24 102 54 248l113 602l-170 4l22 68l170 14q62 260 164 371q102 110 246 110t221 -73q76 -73 71 -182q-5 -108 -83 -174t-199 -89q177 -134 243 -343q45 -144 -19 -292
t-185 -209q-122 -62 -230 -16q-81 32 -116 102q-16 33 -13 78t41 79t90 32t78 -34q25 -32 23 -70q-2 -39 -32 -69t-89 -28q6 -16 36 -44t73 -29q84 -2 141 80q56 82 63 207q7 126 -65 271t-225 265l4 20q150 10 226 78t81 213q4 75 -32 131q-37 57 -102 57q-64 -1 -101 -29
q-70 -54 -112 -223q-22 -84 -44 -194l-133 -625q-47 -206 -99 -356q-88 -250 -235 -296q-147 -45 -227 14q-47 34 -47 79z" />
    <glyph glyph-name="agrave" unicode="&#xe0;" horiz-adv-x="927" 
d="M336 1401h184l125 -383h-24zM467 47q0 63 98 336h-8q-135 -227 -183 -289q-48 -63 -87 -91t-97 -28q-58 1 -110 57q-53 56 -53 148q0 237 183 481t353 244q49 0 69 -41t25 -145h9l69 194l154 -6l-148 -409l-116 -412l94 -14l143 186l19 -14q-67 -135 -133 -203t-107 -68
q-41 1 -87 19q-87 36 -87 55zM193 252q0 -156 96 -156q86 0 295 400q15 26 26 67q12 42 18 62q5 20 5 30q-9 59 -61 105t-110 47q-58 0 -93 -36q-68 -70 -122 -231t-54 -288z" />
    <glyph glyph-name="aacute" unicode="&#xe1;" horiz-adv-x="927" 
d="M731 1401h199l-428 -383h-25zM467 47q0 63 98 336h-8q-135 -227 -183 -289q-48 -63 -87 -91t-97 -28q-58 1 -110 57q-53 56 -53 148q0 237 183 481t353 244q49 0 69 -41t25 -145h9l69 194l154 -6l-148 -409l-116 -412l94 -14l143 186l19 -14q-67 -135 -133 -203t-107 -68
q-41 1 -87 19q-87 36 -87 55zM193 252q0 -156 96 -156q86 0 295 400q15 26 26 67q12 42 18 62q5 20 5 30q-9 59 -61 105t-110 47q-58 0 -93 -36q-68 -70 -122 -231t-54 -288z" />
    <glyph glyph-name="acircumflex" unicode="&#xe2;" horiz-adv-x="927" 
d="M594 1399h65l166 -398h-24l-193 238h-6l-299 -238h-20zM467 47q0 63 98 336h-8q-135 -227 -183 -289q-48 -63 -87 -91t-97 -28q-58 1 -110 57q-53 56 -53 148q0 237 183 481t353 244q49 0 69 -41t25 -145h9l69 194l154 -6l-148 -409l-116 -412l94 -14l143 186l19 -14
q-67 -135 -133 -203t-107 -68q-41 1 -87 19q-87 36 -87 55zM193 252q0 -156 96 -156q86 0 295 400q15 26 26 67q12 42 18 62q5 20 5 30q-9 59 -61 105t-110 47q-58 0 -93 -36q-68 -70 -122 -231t-54 -288z" />
    <glyph glyph-name="atilde" unicode="&#xe3;" horiz-adv-x="927" 
d="M394 1165q-40 0 -64 -19t-47 -97h-27q29 121 69 174t102 53q61 0 107 -20t120 -67q74 -46 114 -46q39 0 65 20t48 97h28q-29 -119 -70 -174q-42 -54 -116 -54t-182 66q-107 66 -147 67zM467 47q0 63 98 336h-8q-135 -227 -183 -289q-48 -63 -87 -91t-97 -28
q-58 1 -110 57q-53 56 -53 148q0 237 183 481t353 244q49 0 69 -41t25 -145h9l69 194l154 -6l-148 -409l-116 -412l94 -14l143 186l19 -14q-67 -135 -133 -203t-107 -68q-41 1 -87 19q-87 36 -87 55zM193 252q0 -156 96 -156q86 0 295 400q15 26 26 67q12 42 18 62
q5 20 5 30q-9 59 -61 105t-110 47q-58 0 -93 -36q-68 -70 -122 -231t-54 -288z" />
    <glyph glyph-name="adieresis" unicode="&#xe4;" horiz-adv-x="927" 
d="M666 1174q0 42 26 82t83 40q56 0 84 -41t28 -68q0 -76 -62 -111q-20 -11 -59 -11t-70 34q-30 34 -30 75zM285 1174q1 42 27 82t82 40t84 -41t28 -68q0 -76 -62 -111q-20 -11 -59 -11t-70 34q-30 34 -30 75zM467 47q0 63 98 336h-8q-135 -227 -183 -289q-48 -63 -87 -91
t-97 -28q-58 1 -110 57q-53 56 -53 148q0 237 183 481t353 244q49 0 69 -41t25 -145h9l69 194l154 -6l-148 -409l-116 -412l94 -14l143 186l19 -14q-67 -135 -133 -203t-107 -68q-41 1 -87 19q-87 36 -87 55zM193 252q0 -156 96 -156q86 0 295 400q15 26 26 67q12 42 18 62
q5 20 5 30q-9 59 -61 105t-110 47q-58 0 -93 -36q-68 -70 -122 -231t-54 -288z" />
    <glyph glyph-name="aring" unicode="&#xe5;" horiz-adv-x="927" 
d="M596 1032q-86 0 -135 54t-48 130t49 130q48 55 134 55t134 -55t48 -130q0 -76 -48 -130t-134 -54zM446 1216q0 -62 39 -108t110 -47q71 0 111 46q40 47 40 109t-40 108t-111 46t-110 -46t-39 -108zM467 47q0 63 98 336h-8q-135 -227 -183 -289q-48 -63 -87 -91t-97 -28
q-58 1 -110 57q-53 56 -53 148q0 237 183 481t353 244q49 0 69 -41t25 -145h9l69 194l154 -6l-148 -409l-116 -412l94 -14l143 186l19 -14q-67 -135 -133 -203t-107 -68q-41 1 -87 19q-87 36 -87 55zM193 252q0 -156 96 -156q86 0 295 400q15 26 26 67q12 42 18 62
q5 20 5 30q-9 59 -61 105t-110 47q-58 0 -93 -36q-68 -70 -122 -231t-54 -288z" />
    <glyph glyph-name="ae" unicode="&#xe6;" horiz-adv-x="1236" 
d="M1245 758q0 -62 -32 -103t-117 -88t-377 -131q-16 -54 -19 -137q0 -215 168 -215q66 0 123 41t135 143l19 -14q-82 -129 -143 -182q-115 -99 -220 -99t-179 85q-73 85 -75 210v33q0 18 4 35q-106 -170 -184 -266t-151 -97q-74 -1 -122 63t-48 156q0 300 270 576
q138 143 256 143q113 0 133 -215q156 217 342 217q98 0 158 -46q60 -47 59 -109zM272 100q59 0 134 107t144 239q68 133 79 193q-12 68 -64 118t-110 50t-94 -36q-69 -69 -118 -225q-50 -157 -50 -259q0 -101 23 -144t56 -43zM725 465q211 67 288 131t79 166q0 45 -31 74
q-31 28 -66 28q-109 -2 -200 -189q-45 -93 -74 -208z" />
    <glyph glyph-name="ccedilla" unicode="&#xe7;" horiz-adv-x="724" 
d="M610 821q-54 47 -100 47q-98 0 -189 -157q-69 -116 -94 -230q-24 -115 -24 -182q0 -215 157 -215q68 0 123 41t135 143l19 -14q-80 -123 -133 -174q-105 -100 -193 -107l-110 -102q117 6 191 -37q74 -44 73 -112q0 -180 -290 -234q-85 -16 -181 -20l-2 22q344 30 344 184
q0 99 -170 99q-49 0 -113 -11l4 23l209 190q-101 8 -168 92t-67 198t43 228q91 242 278 361q94 59 188 59t154 -45q61 -45 61 -101q1 -56 -31 -90t-71 -34t-69 24t-29 58q0 58 55 96z" />
    <glyph glyph-name="egrave" unicode="&#xe8;" horiz-adv-x="741" 
d="M266 1401h185l124 -383h-24zM291 -27q-112 0 -186 86t-74 204t43 233q89 238 274 359q90 58 186 58t156 -46q60 -47 60 -109t-32 -103t-119 -89t-378 -130q-18 -74 -18 -137q0 -215 168 -215q66 0 123 41t137 143l18 -14q-179 -281 -358 -281zM596 760q0 47 -31 76
t-77 28t-95 -48q-106 -104 -168 -349l4 -2q211 67 289 132t78 163z" />
    <glyph glyph-name="eacute" unicode="&#xe9;" horiz-adv-x="741" 
d="M694 1401h199l-428 -383h-25zM291 -27q-112 0 -186 86t-74 204t43 233q89 238 274 359q90 58 186 58t156 -46q60 -47 60 -109t-32 -103t-119 -89t-378 -130q-18 -74 -18 -137q0 -215 168 -215q66 0 123 41t137 143l18 -14q-179 -281 -358 -281zM596 760q0 47 -31 76
t-77 28t-95 -48q-106 -104 -168 -349l4 -2q211 67 289 132t78 163z" />
    <glyph glyph-name="ecircumflex" unicode="&#xea;" horiz-adv-x="741" 
d="M553 1399h65l166 -398h-24l-193 238h-6l-299 -238h-20zM291 -27q-112 0 -186 86t-74 204t43 233q89 238 274 359q90 58 186 58t156 -46q60 -47 60 -109t-32 -103t-119 -89t-378 -130q-18 -74 -18 -137q0 -215 168 -215q66 0 123 41t137 143l18 -14q-179 -281 -358 -281z
M596 760q0 47 -31 76t-77 28t-95 -48q-106 -104 -168 -349l4 -2q211 67 289 132t78 163z" />
    <glyph glyph-name="edieresis" unicode="&#xeb;" horiz-adv-x="741" 
d="M608 1175q0 41 27 81t83 40t84 -41q54 -80 0 -151q-32 -39 -82 -39t-81 35t-31 75zM227 1175q0 41 27 81t83 40t84 -41t28 -68q0 -76 -62 -111q-20 -11 -59 -11t-70 35t-31 75zM291 -27q-112 0 -186 86t-74 204t43 233q89 238 274 359q90 58 186 58t156 -46
q60 -47 60 -109t-32 -103t-119 -89t-378 -130q-18 -74 -18 -137q0 -215 168 -215q66 0 123 41t137 143l18 -14q-179 -281 -358 -281zM596 760q0 47 -31 76t-77 28t-95 -48q-106 -104 -168 -349l4 -2q211 67 289 132t78 163z" />
    <glyph glyph-name="igrave" unicode="&#xec;" horiz-adv-x="509" 
d="M119 1401h184l125 -383h-25zM174 840q74 74 129 74t99 -38q44 -37 44 -71t-68 -226t-94 -267t-48 -135t-31 -89l104 -16l144 184l18 -14q-57 -120 -156 -217q-53 -51 -94 -52q-42 0 -108 24t-67 43q-1 18 99 305t124 358q24 70 34 98l-110 10l-138 -197l-20 17
q66 135 139 209z" />
    <glyph glyph-name="iacute" unicode="&#xed;" horiz-adv-x="509" 
d="M526 1401h199l-428 -383h-25zM174 840q74 74 129 74t99 -38q44 -37 44 -71t-68 -226t-94 -267t-48 -135t-31 -89l104 -16l144 184l18 -14q-57 -120 -156 -217q-53 -51 -94 -52q-42 0 -108 24t-67 43q-1 18 99 305t124 358q24 70 34 98l-110 10l-138 -197l-20 17
q66 135 139 209z" />
    <glyph glyph-name="icircumflex" unicode="&#xee;" horiz-adv-x="509" 
d="M174 840q74 74 129 74t99 -38q44 -37 44 -71t-68 -226t-94 -267t-48 -135t-31 -89l104 -16l144 184l18 -14q-57 -120 -156 -217q-53 -51 -94 -52q-42 0 -108 24t-67 43q-1 18 99 305t124 358q24 70 34 98l-110 10l-138 -197l-20 17q66 135 139 209zM393 1401h66l151 -395
h-26l-185 237h-6l-276 -237h-23z" />
    <glyph glyph-name="idieresis" unicode="&#xef;" horiz-adv-x="509" 
d="M599 1296q56 0 84 -41t28 -68q0 -76 -62 -111q-20 -11 -59 -11t-69 34q-29 34 -31 75q-1 42 26 82t83 40zM109 1174q1 42 27 82t82 40t84 -41t28 -68q0 -76 -62 -111q-20 -11 -59 -11t-70 34q-30 34 -30 75zM174 840q74 74 129 74t99 -38q44 -37 44 -71t-68 -226
t-94 -267t-48 -135t-31 -89l104 -16l144 184l18 -14q-57 -120 -156 -217q-53 -51 -94 -52q-42 0 -108 24t-67 43q-1 18 99 305t124 358q24 70 34 98l-110 10l-138 -197l-20 17q66 135 139 209z" />
    <glyph glyph-name="eth" unicode="&#xf0;" horiz-adv-x="847" 
d="M492 907q84 0 129 -57q-41 170 -140 293l-268 -82l12 45l228 70q-82 86 -183 129l15 36q143 -43 258 -139l256 80l-8 -43l-213 -65q106 -104 168 -244t64 -282q3 -262 -147 -470q-67 -92 -153 -147t-164 -55q-139 -1 -219 106t-82 272q0 96 39 194q83 209 244 309
q80 50 164 50zM199 243q1 -99 31 -165t83 -66q95 0 186 127t115 277q25 151 25 238q0 86 -33 150t-80 64t-89 -37q-83 -73 -149 -220q-32 -69 -52 -132q-37 -137 -37 -236z" />
    <glyph glyph-name="ntilde" unicode="&#xf1;" horiz-adv-x="989" 
d="M426 1165q-39 0 -64 -19t-47 -97h-26q29 121 68 174q41 53 103 53t107 -20t119 -67q74 -46 114 -46t66 20t47 97h29q-28 -120 -70 -174t-117 -54t-182 66q-108 66 -147 67zM428 801q0 -95 -141 -477l10 -5q204 408 311 519q73 73 142 73t116 -36t47 -83q0 -100 -137 -452
q-30 -77 -61 -162q-31 -86 -35 -92l94 -14l144 186l18 -14q-66 -135 -134 -203t-110 -68q-41 0 -103 26q-63 26 -64 44t31 114q32 95 58 159q25 64 52 140q27 75 57 154t32 110q1 32 -29 56t-64 25q-48 0 -148 -152t-235 -434l-68 -223l-166 10l105 328l126 471l-88 10
l-139 -197l-18 17q63 135 134 210t130 74q34 0 68 -26q65 -49 65 -88z" />
    <glyph glyph-name="ograve" unicode="&#xf2;" horiz-adv-x="839" 
d="M319 1401h185l125 -383h-25zM344 -25q-137 0 -217 107t-82 272q0 96 39 194q82 206 246 310q80 51 155 51q138 0 224 -106t86 -271q0 -98 -40 -197t-106 -179q-65 -80 -147 -130t-158 -51zM199 243q1 -99 31 -165t83 -66q94 0 182 126t113 275q25 150 25 240
q0 89 -30 153t-77 64q-83 0 -163 -121t-127 -270q-37 -137 -37 -236z" />
    <glyph glyph-name="oacute" unicode="&#xf3;" horiz-adv-x="839" 
d="M707 1401h198l-428 -383h-24zM344 -25q-137 0 -217 107t-82 272q0 96 39 194q82 206 246 310q80 51 155 51q138 0 224 -106t86 -271q0 -98 -40 -197t-106 -179q-65 -80 -147 -130t-158 -51zM199 243q1 -99 31 -165t83 -66q94 0 182 126t113 275q25 150 25 240
q0 89 -30 153t-77 64q-83 0 -163 -121t-127 -270q-37 -137 -37 -236z" />
    <glyph glyph-name="ocircumflex" unicode="&#xf4;" horiz-adv-x="839" 
d="M580 1399h65l166 -398h-25l-192 238h-6l-299 -238h-21zM344 -25q-137 0 -217 107t-82 272q0 96 39 194q82 206 246 310q80 51 155 51q138 0 224 -106t86 -271q0 -98 -40 -197t-106 -179q-65 -80 -147 -130t-158 -51zM199 243q1 -99 31 -165t83 -66q94 0 182 126t113 275
q25 150 25 240q0 89 -30 153t-77 64q-83 0 -163 -121t-127 -270q-37 -137 -37 -236z" />
    <glyph glyph-name="otilde" unicode="&#xf5;" horiz-adv-x="839" 
d="M381 1165q-39 0 -64 -19t-47 -97h-26q29 121 68 174q40 53 102 53t108 -20q45 -20 119 -67q74 -46 114 -46q39 0 65 20t48 97h29q-29 -120 -71 -174t-116 -54q-75 0 -182 66q-108 66 -147 67zM344 -25q-137 0 -217 107t-82 272q0 96 39 194q82 206 246 310q80 51 155 51
q138 0 224 -106t86 -271q0 -98 -40 -197t-106 -179q-65 -80 -147 -130t-158 -51zM199 243q1 -99 31 -165t83 -66q94 0 182 126t113 275q25 150 25 240q0 89 -30 153t-77 64q-83 0 -163 -121t-127 -270q-37 -137 -37 -236z" />
    <glyph glyph-name="odieresis" unicode="&#xf6;" horiz-adv-x="839" 
d="M765 1296q56 0 84 -41t28 -68q0 -76 -62 -111q-20 -11 -59 -11t-69 34q-29 34 -31 75q-1 42 26 82t83 40zM384 1296q56 0 84 -41t28 -68q0 -76 -62 -111q-20 -11 -59 -11t-69 34q-29 34 -31 75q-1 42 26 82t83 40zM344 -25q-137 0 -217 107t-82 272q0 96 39 194
q82 206 246 310q80 51 155 51q138 0 224 -106t86 -271q0 -98 -40 -197t-106 -179q-65 -80 -147 -130t-158 -51zM199 243q1 -99 31 -165t83 -66q94 0 182 126t113 275q25 150 25 240q0 89 -30 153t-77 64q-83 0 -163 -121t-127 -270q-37 -137 -37 -236z" />
    <glyph glyph-name="divide" unicode="&#xf7;" horiz-adv-x="1089" 
d="M522 -27q-205 0 -332 122q-126 124 -124 319q0 241 151 409t358 168q208 0 333 -123q126 -123 126 -321q0 -239 -149 -407q-70 -77 -164 -122q-93 -45 -199 -45zM525 20q95 0 181 43t146 116q129 154 129 368q0 171 -111 283t-286 112q-102 0 -188 -44t-148 -117
q-129 -154 -129 -367q-1 -170 111 -282t295 -112z" />
    <glyph glyph-name="oslash" unicode="&#xf8;" horiz-adv-x="839" 
d="M795 532q0 -98 -40 -197q-82 -204 -253 -309q-82 -50 -175 -50t-167 69l-221 -307h-43l239 332q-90 109 -90 284q0 96 39 194q82 207 246 309q80 50 176 50t176 -78l254 355h43q-78 -106 -137 -189l-49 -69q-25 -35 -36 -51t-52 -70q90 -107 90 -273zM633 639v31
q0 14 -4 28l-416 -577q32 -107 104 -107q89 0 169 114q109 151 138 380q9 78 9 131zM236 479q-37 -136 -37 -208q0 -71 4 -105l420 582q-31 122 -105 120q-74 0 -155 -121q-81 -122 -127 -268z" />
    <glyph glyph-name="ugrave" unicode="&#xf9;" horiz-adv-x="989" 
d="M391 1401h184l125 -383h-24zM694 -29q-34 0 -81 38q-48 38 -49 68q-3 105 138 488l-10 2q-205 -410 -309 -518q-72 -72 -140 -73q-68 0 -104 26q-61 46 -61 93q0 89 98 347q16 48 39 106t42 112t35 94t17 49l-94 10l-139 -199l-21 15q66 137 134 211q69 74 111 74
t103 -27q61 -26 64 -47q-1 -32 -57 -182t-75 -203t-59 -157q-40 -105 -40 -134q0 -30 30 -54t64 -24q47 0 147 152t236 432l67 225l164 -10l-102 -328q-56 -202 -76 -279t-31 -112l-14 -55q-6 -23 -8 -27l88 -12l141 184l19 -14q-63 -133 -135 -202t-132 -69z" />
    <glyph glyph-name="uacute" unicode="&#xfa;" horiz-adv-x="989" 
d="M784 1401h199l-428 -383h-25zM694 -29q-34 0 -81 38q-48 38 -49 68q-3 105 138 488l-10 2q-205 -410 -309 -518q-72 -72 -140 -73q-68 0 -104 26q-61 46 -61 93q0 89 98 347q16 48 39 106t42 112t35 94t17 49l-94 10l-139 -199l-21 15q66 137 134 211q69 74 111 74
t103 -27q61 -26 64 -47q-1 -32 -57 -182t-75 -203t-59 -157q-40 -105 -40 -134q0 -30 30 -54t64 -24q47 0 147 152t236 432l67 225l164 -10l-102 -328q-56 -202 -76 -279t-31 -112l-14 -55q-6 -23 -8 -27l88 -12l141 184l19 -14q-63 -133 -135 -202t-132 -69z" />
    <glyph glyph-name="ucircumflex" unicode="&#xfb;" horiz-adv-x="989" 
d="M657 1399h66l166 -398h-25l-192 238h-6l-299 -238h-21zM694 -29q-34 0 -81 38q-48 38 -49 68q-3 105 138 488l-10 2q-205 -410 -309 -518q-72 -72 -140 -73q-68 0 -104 26q-61 46 -61 93q0 89 98 347q16 48 39 106t42 112t35 94t17 49l-94 10l-139 -199l-21 15
q66 137 134 211q69 74 111 74t103 -27q61 -26 64 -47q-1 -32 -57 -182t-75 -203t-59 -157q-40 -105 -40 -134q0 -30 30 -54t64 -24q47 0 147 152t236 432l67 225l164 -10l-102 -328q-56 -202 -76 -279t-31 -112l-14 -55q-6 -23 -8 -27l88 -12l141 184l19 -14
q-63 -133 -135 -202t-132 -69z" />
    <glyph glyph-name="udieresis" unicode="&#xfc;" horiz-adv-x="989" 
d="M733 1175q0 41 27 81t83 40t84 -41q54 -80 0 -151q-32 -39 -82 -39t-81 35t-31 75zM352 1175q0 41 27 81t83 40t84 -41q54 -80 0 -151q-32 -39 -82 -39t-81 35t-31 75zM694 -29q-34 0 -81 38q-48 38 -49 68q-3 105 138 488l-10 2q-205 -410 -309 -518q-72 -72 -140 -73
q-68 0 -104 26q-61 46 -61 93q0 89 98 347q16 48 39 106t42 112t35 94t17 49l-94 10l-139 -199l-21 15q66 137 134 211q69 74 111 74t103 -27q61 -26 64 -47q-1 -32 -57 -182t-75 -203t-59 -157q-40 -105 -40 -134q0 -30 30 -54t64 -24q47 0 147 152t236 432l67 225l164 -10
l-102 -328q-56 -202 -76 -279t-31 -112l-14 -55q-6 -23 -8 -27l88 -12l141 184l19 -14q-63 -133 -135 -202t-132 -69z" />
    <glyph glyph-name="yacute" unicode="&#xfd;" horiz-adv-x="866" 
d="M756 1401h198l-428 -383h-24zM-104 -418q-72 0 -115 35t-43 87t32 79t78 27t79 -46q32 -46 7 -108l64 -16q97 21 290 198q48 45 79 80q0 332 -45 613q-20 126 -50 203q-29 77 -61 77l-41 2l-129 -199l-21 17q62 135 116 209t129 74t119 -38q88 -75 113 -378
q13 -156 15 -392l8 -2q79 130 161 335q83 206 87 309q-52 -31 -106 -4t-57 72q-3 46 25 78t75 32t83 -35t37 -119q0 -84 -42 -208q-81 -238 -245 -478q-76 -109 -128 -158t-108 -105q-56 -55 -124 -109t-138 -93q-72 -39 -144 -39z" />
    <glyph glyph-name="thorn" unicode="&#xfe;" horiz-adv-x="856" 
d="M821 627q0 -123 -44 -240q-43 -117 -115 -209t-162 -148t-184 -56t-142 87h-2l-137 -505q-9 -28 92 -31l84 -8l4 -31h-485l4 31l61 8q41 4 59 10q17 6 21 25l461 1671q11 43 -10 47l-154 20l6 25l361 55l-64 -235q-37 -123 -72 -233t-63 -200t-47 -156q-21 -67 -29 -91
t-3 -26q5 -1 9 9q120 258 207 363t169 103q82 -1 128 -82q47 -80 47 -203zM657 608q0 185 -94 185q-65 0 -139 -116t-126 -231q-103 -228 -103 -307q14 -47 57 -88t89 -41q47 0 97 50q86 86 152 257q67 170 67 291z" />
    <glyph glyph-name="ydieresis" unicode="&#xff;" horiz-adv-x="866" 
d="M678 1175q0 41 27 81t83 40t83 -41q28 -41 28 -68q0 -74 -61 -111q-21 -11 -61 -11t-69 35q-30 35 -30 75zM297 1175q0 41 27 81t83 40q55 0 83 -41t28 -68q0 -74 -61 -111q-20 -11 -60 -11t-70 35t-30 75zM-104 -418q-72 0 -115 35t-43 87t32 79t78 27t79 -46
q32 -46 7 -108l64 -16q97 21 290 198q48 45 79 80q0 332 -45 613q-20 126 -50 203q-29 77 -61 77l-41 2l-129 -199l-21 17q62 135 116 209t129 74t119 -38q88 -75 113 -378q13 -156 15 -392l8 -2q79 130 161 335q83 206 87 309q-52 -31 -106 -4t-57 72q-3 46 25 78t75 32
t83 -35t37 -119q0 -84 -42 -208q-81 -238 -245 -478q-76 -109 -128 -158t-108 -105q-56 -55 -124 -109t-138 -93q-72 -39 -144 -39z" />
    <glyph glyph-name="dotlessi" unicode="&#x131;" horiz-adv-x="509" 
d="M174 840q74 74 129 74t99 -38q44 -37 44 -71t-68 -226t-94 -267t-48 -135t-31 -89l104 -16l144 184l18 -14q-57 -120 -156 -217q-53 -51 -94 -52q-42 0 -108 24t-67 43q-1 18 99 305t124 358q24 70 34 98l-110 10l-138 -197l-20 17q66 135 139 209z" />
    <glyph glyph-name="Lslash" unicode="&#x141;" horiz-adv-x="1140" 
d="M248 528q0 2 -31 -8t-67 -20l-99 -29l6 45q55 16 97 28t74 21q30 10 30 8l119 631q2 12 -13 20t-79 15l-86 10l-4 31h596l-9 -31l-123 -12q-80 -7 -92 -37l-106 -565l223 65l-2 -43l-231 -67l-5 -25q-4 -23 -11 -61t-16 -86q-9 -50 -26 -136t-45 -237l158 -8
q213 0 319 80q53 39 93 95q39 56 79 130l37 86h43l-139 -428h-979l6 31l107 12q80 7 92 37q37 188 51 268z" />
    <glyph glyph-name="lslash" unicode="&#x142;" horiz-adv-x="477" 
d="M212 -27q-40 0 -102 32q-61 32 -59 50l121 445l-170 -49l6 43q49 16 86 26t64 18t26 7l187 688q11 43 -13 47l-153 20l6 25l358 53q-57 -200 -118 -424q-62 -223 -101 -360q0 2 53 16t95 29v-43l-162 -47q-27 -92 -75 -270t-56 -193l88 -14l143 184l19 -14
q-67 -133 -135 -201t-108 -68z" />
    <glyph glyph-name="OE" unicode="&#x152;" horiz-adv-x="1908" 
d="M723 0q-336 0 -496 194q-145 174 -103 453q41 279 256 456t560 177h913l-6 -393h-32l-13 78q-20 69 -40 119q-42 104 -173 139q-70 18 -188 18h-105l-106 -565l65 2q150 4 198 25q48 22 72 48t42 66l24 57l33 -2l-96 -436l-33 2l6 60q12 87 -45 111t-217 28l-57 2
l-113 -594l178 -6q306 0 435 177q38 52 75 112l37 75l41 -2l-133 -401h-979zM768 39h106l222 1163l-135 43q-256 -3 -419 -155t-203 -422t55 -436q111 -193 374 -193z" />
    <glyph glyph-name="oe" unicode="&#x153;" horiz-adv-x="1300" 
d="M498 909q90 0 156 -54t100 -146q68 92 156 148t184 56t155 -46q59 -47 59 -109t-31 -103q-32 -41 -119 -89t-378 -130q-18 -74 -18 -137q0 -215 168 -215q66 0 123 41t137 143l18 -14q-178 -279 -358 -279q-84 0 -140 44t-85 114q-129 -158 -291 -158q-126 0 -207 106
q-80 106 -82 273q0 96 38 194q79 205 245 310q80 51 170 51zM199 243q1 -99 31 -165t83 -66q94 0 182 126t113 275q25 150 25 240q0 89 -30 153t-77 64q-83 0 -163 -121t-127 -270q-37 -137 -37 -236zM1155 760q0 47 -31 76t-77 28t-95 -48q-106 -104 -168 -349l4 -2
q214 68 291 132q76 65 76 163z" />
    <glyph glyph-name="Scaron" unicode="&#x160;" horiz-adv-x="1015" 
d="M469 1741h25l194 -238h6l295 238h23l-314 -398h-63zM637 1309q117 0 291 -64l86 21l-64 -348l-30 2l-64 256q-109 90 -227 90t-191 -63t-73 -158q0 -96 58 -159t197 -136q139 -74 220 -165q80 -91 80 -214q0 -158 -135 -278t-343 -120q-145 0 -255 33t-169 66l48 319h32
l37 -170q35 -104 117 -155q82 -52 170 -52q223 -1 301 175q23 52 22 112q0 96 -68 165q-69 69 -185 130q-146 86 -197 143q-51 58 -72 110q-20 52 -20 117q0 135 117 239q118 104 317 104z" />
    <glyph glyph-name="scaron" unicode="&#x161;" horiz-adv-x="657" 
d="M289 1399h24l195 -238h6l295 238h22l-313 -398h-63zM420 911q236 0 235 -159q-1 -47 -31 -75t-68 -28t-62 27q-24 28 -23 58q0 57 49 91q-81 42 -131 45q-61 -4 -98 -53q-37 -50 -37 -103t32 -93t105 -113l58 -57q112 -112 110 -219t-104 -183t-214 -76t-166 33
q-55 33 -77 65q-22 33 -23 75q0 42 30 73t70 31q41 0 63 -27t22 -55t-16 -58q-16 -28 -31 -40q43 -28 97 -43q56 -15 82 -14t63 27t55 72t18 87t-47 94q-20 25 -46 49q-176 166 -207 250t23 175q54 92 165 127q54 17 104 17z" />
    <glyph glyph-name="Ydieresis" unicode="&#x178;" horiz-adv-x="1259" 
d="M877 1516q1 42 27 82t82 40t84 -41t28 -68q0 -76 -62 -111q-20 -11 -59 -11t-70 34q-30 34 -30 75zM496 1516q0 42 26 82t83 40q56 0 84 -41t28 -68q0 -76 -62 -111q-20 -11 -59 -11t-70 34q-30 34 -30 75zM258 31l119 12q83 7 90 37l94 485l-207 527q-27 80 -58 110
q-31 29 -87 37l-66 10l-2 31h557l-8 -31l-57 -4q-83 -4 -92 -43q-10 -33 24 -125l166 -446h6l260 366q53 74 83 119q57 86 12 105q-25 10 -80 18l-60 10l-4 31h451l-8 -31l-54 -8q-95 -12 -194 -132q-39 -46 -92 -118l-297 -411l-97 -504q-3 -12 13 -20t80 -15l98 -10l2 -31
h-598z" />
    <glyph glyph-name="Zcaron" unicode="&#x17d;" horiz-adv-x="1169" 
d="M526 1741h25l194 -238h7l295 238h22l-313 -398h-64zM782 1243q-348 0 -463 -169q-33 -50 -57 -105l-26 -66h-33l67 377h977l-6 -31l-1022 -1204v-6h252q259 0 377 77q59 38 96 93t72 125l31 72h40l-104 -406h-1003l6 29l1024 1208l-2 6h-226z" />
    <glyph glyph-name="zcaron" unicode="&#x17e;" horiz-adv-x="763" 
d="M334 1399h24l195 -238h6l295 238h23l-314 -398h-63zM-43 72q0 67 106 112l533 502q-108 -22 -266 122q-35 32 -60 46q-4 4 -36 -28t-25 -33q73 -21 75 -93q0 -34 -25 -61q-27 -27 -67 -27t-64 27t-24 65q0 73 87 143q87 69 180 71q108 -6 163 -89q22 -33 36 -63t36 -41
l15 2l51 188q36 -5 68 -31t31 -67q-2 -66 -107 -110l-533 -502q149 26 368 -133q46 -35 70 -47q11 -6 38 48q5 9 3 9q-36 10 -58 40t-22 64t27 61q27 25 69 25t64 -28t23 -68q0 -75 -77 -145t-146 -72q-134 -4 -296 158q-36 35 -67 49h-16l-52 -191q-39 4 -71 30
q-32 25 -31 67z" />
    <glyph glyph-name="florin" unicode="&#x192;" horiz-adv-x="1030" 
d="M944 1305q72 0 118 -35t46 -84t-32 -82t-68 -33q-104 0 -96 111q3 31 24 59l-33 4q-28 4 -49 4q-87 -16 -144 -269q-17 -75 -36 -161l248 -2l2 -80h-262l-44 -178q-47 -209 -101 -353t-138 -230t-223 -87q-66 0 -113 33t-47 79t27 78t63 32q36 -1 58 -15q45 -28 51 -72
q6 -45 -7 -75h31l43 2q49 12 92 141q42 129 97 410l41 233l-213 6l24 66l211 16q60 251 182 379q102 103 248 103z" />
    <glyph glyph-name="circumflex" unicode="&#x2c6;" 
d="M528 1399h66l166 -398h-25l-192 238h-6l-299 -238h-21z" />
    <glyph glyph-name="caron" unicode="&#x2c7;" 
d="M289 1399h24l195 -238h6l295 238h22l-313 -398h-63z" />
    <glyph glyph-name="breve" unicode="&#x2d8;" 
d="M295 1386h24q23 -124 66 -194t131 -70t155 71t132 193h26q-29 -70 -57 -138q-101 -240 -273 -240t-197 240q-7 69 -7 138z" />
    <glyph glyph-name="dotaccent" unicode="&#x2d9;" 
d="M529 1087q-56 0 -84 38q-54 74 0 154q28 40 84 40t84 -40t28 -78t-28 -76t-84 -38z" />
    <glyph glyph-name="ring" unicode="&#x2da;" 
d="M535 1032q-86 0 -136 54q-49 54 -48 130t49 130q48 55 134 55t135 -55q48 -55 48 -130q0 -76 -48 -130t-134 -54zM385 1216q0 -62 39 -108t110 -47q70 0 110 46q40 47 40 109t-40 108t-110 46t-110 -46q-39 -46 -39 -108z" />
    <glyph glyph-name="ogonek" unicode="&#x2db;" 
d="M43 -320q0 116 120 219q86 73 240 134h52q-143 -63 -214 -147t-71 -154q0 -72 35 -112t101 -40t134 45l4 -16q-110 -94 -204 -94q-93 0 -145 49q-52 50 -52 116z" />
    <glyph glyph-name="tilde" unicode="&#x2dc;" 
d="M362 1276q62 0 107 -20t119 -67q74 -46 114 -46t66 20t47 97h29q-29 -120 -71 -174t-116 -54t-182 66q-107 66 -147 67q-39 0 -64 -19t-47 -97h-27q29 121 69 174q41 53 103 53z" />
    <glyph glyph-name="hungarumlaut" unicode="&#x2dd;" 
d="M500 1401h176l-406 -383h-24zM811 1401h176l-405 -383h-25z" />
    <glyph glyph-name="pi" unicode="&#x3c0;" horiz-adv-x="1460" 
d="M748 -29q-140 1 -262 53t-213 143t-143 213t-52 261t52 261q105 247 356 358q122 53 262 53t261 -53q122 -52 213 -144t143 -214t52 -261t-52 -261q-106 -250 -356 -356q-122 -53 -261 -53zM748 4q132 0 246 50t200 137t135 203t49 247t-49 247t-135 203t-201 137
t-245 50t-247 -50q-116 -50 -202 -137t-135 -203t-49 -247t49 -247t135 -203t202 -137t247 -50zM798 584q-58 0 -98 8v-283q0 -16 58 -22l65 -6l4 -25h-358l2 25l61 8q49 6 50 22v645q0 10 -10 14t-48 7l-53 8l-2 25h334q147 0 216 -56t69 -146q0 -91 -83 -158
q-83 -66 -207 -66zM807 612q63 0 109 50t47 133q0 184 -191 184h-72v-354q43 -13 107 -13z" />
    <glyph glyph-name="endash" unicode="&#x2013;" horiz-adv-x="899" 
d="M45 524h844l-17 -90h-847z" />
    <glyph glyph-name="emdash" unicode="&#x2014;" horiz-adv-x="1861" 
d="M45 524h1806l-14 -90h-1812z" />
    <glyph glyph-name="quoteleft" unicode="&#x2018;" horiz-adv-x="401" 
d="M298 823q-62 0 -102 47q-42 48 -42 108q0 118 103 214t265 139l13 -16q-155 -65 -216 -173q-20 -38 -20 -78q0 -64 68 -107q25 -15 47 -22t20 -9q-10 -39 -42 -71t-94 -32z" />
    <glyph glyph-name="quoteright" unicode="&#x2019;" horiz-adv-x="401" 
d="M342 1093q0 86 -123 131q-23 7 -22 9q6 39 40 72q33 33 93 33t104 -49q44 -47 45 -111t-25 -115q-78 -157 -315 -227l-18 18q43 16 83 41q138 86 138 198z" />
    <glyph glyph-name="quotesinglbase" unicode="&#x201a;" horiz-adv-x="401" 
d="M133 -3q0 40 -28 73t-73 49t-44 18q6 39 40 72t94 33t104 -48t44 -112q0 -118 -97 -210q-97 -93 -243 -132l-18 18q91 34 138 81t65 83t18 75z" />
    <glyph glyph-name="quotedblleft" unicode="&#x201c;" 
d="M686 823q-60 0 -104 47q-44 46 -43 110q0 117 95 210t243 133l18 -16q-84 -31 -152 -99q-67 -67 -67 -139t72 -112q28 -15 50 -22t21 -9q-6 -37 -40 -70q-33 -33 -93 -33zM302 823q-60 0 -104 47q-44 46 -44 110q0 118 97 211t243 132l16 -16q-84 -31 -152 -99
q-67 -67 -67 -139t71 -112q27 -15 50 -22t22 -9q-4 -37 -38 -70t-94 -33z" />
    <glyph glyph-name="quotedblright" unicode="&#x201d;" 
d="M346 1093q0 85 -122 131q-22 7 -21 9q4 39 38 72q35 33 95 33t104 -49q44 -47 43 -111q0 -117 -94 -207t-246 -135l-18 18q43 16 83 41q138 86 138 198zM729 1093q0 85 -122 131q-22 7 -21 9q4 39 38 72t94 33t104 -49q44 -47 44 -111q0 -117 -94 -207t-246 -135l-16 18
q43 16 82 41q137 88 137 198z" />
    <glyph glyph-name="quotedblbase" unicode="&#x201e;" 
d="M126 242q60 0 104 -48t44 -112q0 -118 -97 -210q-97 -93 -243 -132l-18 18q91 34 138 81q83 83 83 164t-122 125q-22 7 -21 9q4 39 38 72t94 33zM520 -3q0 40 -28 73t-72 49t-43 18q4 39 38 72q35 33 95 33t104 -48t43 -112q0 -118 -97 -210q-97 -93 -243 -132l-16 18
q88 33 152 97q67 67 67 142z" />
    <glyph glyph-name="dagger" unicode="&#x2020;" horiz-adv-x="909" 
d="M512 834h-399l-2 38h403l61 408h41l-61 -408h403l-6 -38h-399l-174 -1153h-41z" />
    <glyph glyph-name="daggerdbl" unicode="&#x2021;" horiz-adv-x="909" 
d="M842 104v-41h-404l-59 -382h-39l57 382h-403l8 41h399l115 750h-399l-2 41h403l60 385h38l-57 -385h404l-7 -41h-401l-115 -750h402z" />
    <glyph glyph-name="bullet" unicode="&#x2022;" horiz-adv-x="888" 
d="M452 868q69 0 225 -78q38 -19 52 -36q26 -22 69 -127q44 -104 45 -139q1 -36 -11 -76q-54 -170 -103 -215q-28 -32 -134 -75q-106 -42 -136 -42q-95 0 -235 82q-36 20 -58 44t-64 122q-42 97 -44 143q-1 46 41 149q43 103 67 126q24 24 79 53t120 49t87 20z" />
    <glyph glyph-name="ellipsis" unicode="&#x2026;" horiz-adv-x="1292" 
d="M138 -27q-54 0 -91 38t-37 88t37 87t91 37t90 -37t36 -87t-36 -88t-90 -38zM1029 -27q-54 0 -91 38t-37 88t36 87t90 37t90 -37t36 -87t-35 -88t-89 -38zM585 -27q-54 0 -91 38t-37 88t36 87t90 37t90 -37t36 -87t-35 -88t-89 -38z" />
    <glyph glyph-name="perthousand" unicode="&#x2030;" horiz-adv-x="1892" 
d="M1247 1311h53l-1222 -1340h-55zM1278 240q0 124 80 210q80 87 203 87q122 0 201 -78q79 -77 79 -201t-82 -208q-83 -84 -207 -83q-189 0 -255 164q-19 49 -19 109zM1323 243q1 -103 63 -169t168 -66t174 73t68 177t-64 170t-169 67t-173 -74q-67 -75 -67 -178zM631 244
q0 121 82 207t203 86q122 0 201 -78q79 -77 79 -201t-82 -208t-207 -83q-125 0 -201 78q-75 78 -75 199zM678 244q0 -104 62 -170t170 -66q107 0 173 74t66 177q0 104 -64 170t-168 66q-103 1 -171 -73t-68 -178zM211 821q-76 76 -77 196t80 210q82 88 205 88q124 1 202 -77
q79 -78 79 -201t-79 -204q-86 -88 -210 -88t-200 76zM411 786q105 0 173 72q67 72 67 174q0 103 -62 172q-62 68 -167 69t-173 -72q-67 -73 -68 -178t62 -171t168 -66z" />
    <glyph glyph-name="guilsinglleft" unicode="&#x2039;" horiz-adv-x="544" 
d="M37 440l4 39l510 336l8 -20l-348 -353l219 -321l-14 -23z" />
    <glyph glyph-name="guilsinglright" unicode="&#x203a;" horiz-adv-x="546" 
d="M-2 117l338 346l-211 325l14 25l379 -344l-6 -41l-506 -332z" />
    <glyph glyph-name="fraction" unicode="&#x2044;" horiz-adv-x="1038" 
d="M1124 1311h60l-1211 -1340h-57z" />
    <glyph glyph-name="Euro" unicode="&#x20ac;" horiz-adv-x="1015" 
d="M684 80q145 0 283 129l16 -23q-83 -104 -187 -160t-207 -55q-193 0 -306 141t-133 339h-144l6 38h133l2 33q0 94 21 191h-113l6 39h117q67 233 251 388q183 154 386 154q137 0 215 -50t78 -116q0 -42 -30 -76t-71 -34q-74 0 -95 66q-20 66 8 118q-41 49 -124 49
q-163 0 -278 -134t-162 -365h408l6 -39h-420q-16 -88 -16 -174v-25q0 -12 2 -25h381l6 -38h-383q18 -167 108 -269t236 -102z" />
    <glyph glyph-name="trademark" unicode="&#x2122;" horiz-adv-x="1144" 
d="M395 1257h-14q-51 1 -80 -31t-51 -85l-8 -19h-19l17 158h411l6 -156h-20q-21 67 -52 101q-30 33 -85 32h-15v-393q0 -6 27 -12l39 -4v-23h-225l2 23l43 4q25 2 24 14v391zM799 893q0 -33 12 -37t27 -6l26 -2l2 -23h-164l3 23l26 2q23 2 31 16t10 78l8 287q-10 20 -32 22
l-31 7l-2 20h170l100 -332h8l115 332h178l-2 -20l-39 -7q-27 -2 -26 -14l8 -344q0 -27 7 -33t23 -10l31 -4l2 -23h-215l2 23l35 4q14 4 18 12t5 33l-7 338h-8l-143 -401h-37l-129 395h-6l-6 -289v-47z" />
    <glyph glyph-name="Omega" unicode="&#x2126;" horiz-adv-x="999" 
d="M1325 1253q0 -49 -32 -81q-31 -32 -67 -32q-104 1 -97 108q3 30 24 61q-40 10 -84 10q-86 -16 -147 -271q-18 -75 -35 -161h217l-21 -80h-213l-106 -483q-47 -207 -96 -357q-80 -246 -233 -297q-57 -18 -115 -18t-101 34t-43 79t27 77t63 33q66 0 92 -52q27 -52 2 -112
l50 4h18q46 11 82 125t100 424l99 543h-308l-116 -545q-132 -585 -343 -653q-140 -45 -223 15q-47 34 -47 79t28 78t64 33t58 -14q48 -31 53 -90q2 -30 -10 -60l53 4h21q70 17 134 301q24 102 54 248l115 602l-172 4l22 68l170 14q50 210 178 338q104 104 256 102
q74 1 119 -31t57 -79q51 80 135 116q83 35 155 35t117 -35q46 -35 46 -84zM782 1087q-63 0 -86 56t19 104q-16 5 -41 17t-56 12q-78 -14 -122 -116t-78 -273l313 2q27 106 66 198h-15z" />
    <glyph glyph-name="Delta" unicode="&#x2206;" horiz-adv-x="923" 
d="M-41 196q0 46 36 84q36 40 86 38t78 -30q52 -55 9 -132q-18 -33 -70 -41q16 -41 64 -72t114 -31q100 0 158 69q57 69 86 228l170 897q5 14 -9 20q-30 12 -83 15l-96 10l-6 31h591l-6 -31l-112 -12q-90 -8 -92 -39l-181 -942q-19 -110 -146 -197q-127 -86 -278 -86
q-74 1 -132 19q-116 37 -159 117q-22 39 -22 85z" />
    <glyph glyph-name="radical" unicode="&#x221a;" horiz-adv-x="1456" 
d="M1210 1376q91 0 146 -43q19 0 80 23q35 10 80 22l-363 -1292l88 -14l141 184l19 -14q-67 -133 -135 -201t-109 -68t-103 26q-63 26 -61 42l295 1094q-46 11 -58 62t21 91q-25 6 -57 18t-84 11q-78 -19 -127 -121t-88 -309h227l-20 -80h-223l-107 -483q-47 -207 -101 -357
q-88 -244 -233 -297q-52 -18 -110 -18t-102 34t-44 79t28 77t64 33q36 0 58 -14q46 -30 48 -90q1 -29 -11 -60l41 4h14q72 17 139 301q25 102 53 248l101 543h-316l-116 -545q-132 -585 -343 -653q-140 -45 -223 15q-47 34 -47 79t28 78t64 33t58 -14q48 -31 53 -90
q2 -30 -10 -60l53 4h21q70 17 134 301q24 102 54 248l115 602l-172 4l22 68l170 14q48 212 180 346q108 108 263 106q82 1 129 -35t57 -87q6 10 12 18l17 14q123 123 290 123zM803 1098l-10 -2q-31 0 -54 15q-43 28 -38 91q3 29 24 53q-18 5 -45 17t-59 12
q-78 -20 -124 -122t-79 -275l319 2q27 117 72 209h-6z" />
    <glyph glyph-name="approxequal" unicode="&#x2248;" horiz-adv-x="1433" 
d="M1219 1376q92 0 145 -46t53 -95q-1 -49 -27 -79t-66 -30t-62 16q-47 32 -39 91q4 29 22 55q-25 6 -57 18t-70 11q-78 -19 -131 -121t-92 -309h256q90 57 168 -17q45 -40 45 -84q0 -43 -110 -340t-132 -358l107 -16l143 184l19 -14q-57 -121 -132 -194t-129 -75
q-25 0 -94 30t-69 50q0 31 256 748l-6 6h-338l-107 -483q-47 -207 -101 -357q-88 -244 -233 -297q-52 -18 -110 -18t-102 34t-44 79t28 77t64 33q36 0 58 -14q46 -30 48 -90q1 -29 -11 -60l41 4h14q72 17 139 301q25 102 53 248l101 543h-316l-116 -545q-132 -585 -343 -653
q-140 -45 -223 15q-47 34 -47 79t28 78t64 33t58 -14q48 -31 53 -90q2 -30 -10 -60l53 4h21q70 17 134 301q24 102 54 248l115 602l-172 4l22 68l170 14q48 212 180 346q108 108 263 106q82 1 129 -35t57 -87q6 10 12 18l17 14q123 123 299 123zM803 1098l-10 -2
q-31 0 -54 15q-43 28 -38 91q3 29 24 53q-18 5 -45 17t-59 12q-78 -20 -124 -122t-79 -275l319 2q27 117 72 209h-6z" />
    <glyph glyph-name="apple" unicode="&#xf8ff;" horiz-adv-x="1552" 
d="M604 238l-379 -140l137 383l-368 176l368 170l-137 385l381 -139l176 371l168 -371l387 139l-141 -385l369 -168l-369 -174l141 -387l-387 142l-172 -371zM911 344l359 -180l-176 362l374 131l-374 127l176 363l-359 -180l-129 381l-133 -381l-358 180l178 -363
l-379 -129l379 -133l-178 -358l358 180l129 -381z" />
    <glyph glyph-name="fi" unicode="&#xfb01;" horiz-adv-x="956" 
d="M492 53q0 31 256 748l-7 6h-340l-116 -545q-47 -206 -101 -356q-90 -252 -238 -297q-60 -19 -120 -19t-107 34t-47 79t28 78t64 33t58 -14q48 -31 53 -90q2 -30 -10 -60l53 4h21q70 17 134 301q24 102 54 248l115 602l-172 4l22 68l170 14q79 349 312 452q75 33 168 33
q94 0 146 -46t52 -95t-27 -79t-67 -30q-74 0 -95 55q-22 55 17 107q-25 6 -57 18t-70 11q-78 -19 -130 -121t-93 -309h256q93 59 169 -17q42 -40 43 -76q2 -37 -92 -298t-116 -320t-31 -88l107 -16l143 184l16 -14q-63 -133 -137 -201t-113 -68t-105 30t-66 50z" />
    <glyph glyph-name="fl" unicode="&#xfb02;" horiz-adv-x="978" 
d="M731 1376q90 0 150 -41l157 43l-362 -1292l88 -14l141 184l21 -14q-66 -133 -136 -201t-110 -68q-41 0 -103 27q-61 27 -59 41l295 1094q-49 14 -60 63t23 90q-23 6 -59 18t-82 11q-115 -29 -175 -251q-22 -77 -42 -179h227l-18 -80h-226l-116 -545q-47 -206 -101 -356
q-90 -252 -237 -297q-147 -44 -228 15q-47 34 -47 79t28 78t64 33t58 -14q48 -31 53 -90q2 -30 -10 -60l55 4h21q49 12 91 139t97 410l111 602l-170 4l22 68l170 14q53 235 178 360t291 125z" />
    </font>
</defs>
</svg>
